<?xml version="1.0"?><!DOCTYPE svg PUBLIC "-//W3C//DTD SVG 1.1//EN" "http://www.w3.org/Graphics/SVG/1.1/DTD/svg11.dtd"><svg width="16px" height="16px" xmlns="http://www.w3.org/2000/svg" viewBox="0 0 16 16" shape-rendering="geometricPrecision" fill="#000"><defs><mask id="refresh-path"><rect fill="#fff" width="100%" height="100%"/><path d="M17.514,2.671l-0.862-0.552L16.65-1h-2.866v0.558c-1.334-0.3-2.758,0.103-3.723,1.067 c-1.569,1.569-1.554,4.141,0.035,5.732c0.779,0.777,1.809,1.205,2.901,1.205c1.071,0,2.077-0.415,2.831-1.168 C16.585,5.639,17.001,4.631,17,3.557l0-0.886H17.514z M14.141,3.558c0,0.22-0.058,0.539-0.333,0.813 c-0.443,0.443-1.23,0.426-1.69-0.035c-0.475-0.475-0.49-1.234-0.036-1.689c0.011-0.011,0.021-0.022,0.033-0.031l0,0.922h2.026 V3.558z" fill="#000"/></mask></defs><path display="inline" d="M13.114,2.537h2.538L15.651,0h-0.867v1.105 c-1.204-0.927-2.924-0.863-4.016,0.227C9.581,2.52,9.606,4.451,10.803,5.649c1.201,1.198,3.131,1.224,4.319,0.037 C15.707,5.102,16.001,4.329,16,3.558l-0.859,0.001c-0.001,0.557-0.208,1.102-0.627,1.521c-0.843,0.842-2.231,0.836-3.104-0.036 c-0.871-0.872-0.877-2.26-0.035-3.105c0.729-0.727,1.86-0.818,2.721-0.268h-0.983L13.114,2.537z" fill="#cb1800"/><g mask="url(#refresh-path)"><g><polygon points="10.021,15.177 13.458,12.012 10.021,12.012"/><path d="M2.02,0v16h7.021v-4.905h4.941V0H2.02z M13,9.97h-5l0,5H3.083v-14H13V9.97z"/></g><path fill-rule="evenodd" clip-rule="evenodd" d="M10.313,6.987c0.843,0.67,1.525,0.392,1.426,0.264 C11.437,6.86,10.843,6.86,10.313,6.987z M11.406,6.61c-0.844-0.286-1.966-0.002-1.923,0.034C8.916,6.365,8.153,5.959,7.734,4.626 c-0.703-2.234,0-2.955,0.046-1.558l0.142,0.948c0,0,0.485-1.184,0.172-2.047C7.82,1.217,7.031,1.33,6.984,2.72 C6.958,3.486,7.143,4.638,7.228,4.817c0,0-0.73,2.149-1.813,3.84c-1.051,1.642-1.115,1.088-0.86,0.541 c0.303-0.65,0.817-0.991,0.989-1.263c0,0-0.798,0.062-1.418,1.127c-0.392,0.673-0.439,2.345,1.233,0.532 c0.332-0.36,0.803-1.116,1.018-1.566c0,0,0.973-0.425,3.294-0.875c0,0,0.626,0.457,1.438,0.645 C12.118,8.03,13.155,7.204,11.406,6.61z M6.657,7.318l0.845-1.941c0.56,1.19,1.353,1.433,1.353,1.433 C8.511,6.854,6.657,7.318,6.657,7.318z"/></g></svg>