<svg width="16" height="16" xmlns="http://www.w3.org/2000/svg" viewBox="0 0 16 16" shape-rendering="geometricPrecision"><defs><mask id="a"><rect fill="#fff" width="100%" height="100%"/><path d="M17.514 2.671l-.862-.552L16.65-1h-2.866v.558A4.044 4.044 0 0 0 10.061.625c-1.569 1.569-1.554 4.141.035 5.732a4.084 4.084 0 0 0 2.901 1.205 3.98 3.98 0 0 0 2.831-1.168A3.973 3.973 0 0 0 17 3.557v-.886h.514zm-3.373.887c0 .22-.058.539-.333.813-.443.443-1.23.426-1.69-.035-.475-.475-.49-1.234-.036-1.689.011-.011.021-.022.033-.031v.922h2.026v.02z"/></mask></defs><path d="M13.114 2.537h2.538L15.651 0h-.867v1.105c-1.204-.927-2.924-.863-4.016.227-1.187 1.188-1.162 3.119.035 4.317 1.201 1.198 3.131 1.224 4.319.037A2.996 2.996 0 0 0 16 3.558l-.859.001a2.137 2.137 0 0 1-.627 1.521c-.843.842-2.231.836-3.104-.036-.871-.872-.877-2.26-.035-3.105.729-.727 1.86-.818 2.721-.268h-.983l.001.866z" fill="#cb1800"/><path mask="url(#a)" d="M7.999.97a7.03 7.03 0 0 0 0 14.06 7.03 7.03 0 1 0 0-14.06zM8.5 6.156c.493-.019 1-.064 1.496-.124.042.456.069.946.082 1.468H8.5V6.156zm0-1.001V2.418c.299.027.589.08.872.152.134.448.348 1.302.512 2.468-.462.056-.931.098-1.384.117zm-1-.001c-.443-.02-.908-.063-1.371-.12.163-1.18.379-2.028.514-2.468a5.52 5.52 0 0 1 .857-.148v2.736zm0 1.001V7.5H5.938c.013-.525.039-1.017.08-1.472.498.061 1.001.107 1.482.127zM4.938 7.5h-2.52a5.582 5.582 0 0 1 .569-1.997c.505.11 1.231.256 2.038.385A24.607 24.607 0 0 0 4.938 7.5zm-.002 1c.012.611.043 1.181.092 1.707-.791.125-1.497.268-1.998.379A5.572 5.572 0 0 1 2.418 8.5h2.518zm1 0H7.5v1.447c-.487.019-.989.063-1.48.121A22.181 22.181 0 0 1 5.936 8.5zM7.5 10.949v2.633a5.64 5.64 0 0 1-.886-.155c-.135-.47-.33-1.286-.481-2.363.457-.055.92-.096 1.367-.115zm1 .001c.448.02.919.064 1.387.122a16.738 16.738 0 0 1-.479 2.348 5.564 5.564 0 0 1-.908.162V10.95zm0-1.001V8.5h1.581c-.011.566-.04 1.092-.083 1.578A18.585 18.585 0 0 0 8.5 9.949zM11.082 8.5h2.5a5.576 5.576 0 0 1-.614 2.09 37.347 37.347 0 0 0-1.976-.372c.047-.527.079-1.099.09-1.718zm-.003-1a23.764 23.764 0 0 0-.09-1.606 34.153 34.153 0 0 0 2.025-.386 5.6 5.6 0 0 1 .568 1.993h-2.503zm1.372-2.895c-.438.092-.982.198-1.577.293a19.775 19.775 0 0 0-.353-1.899c.76.385 1.418.935 1.93 1.606zM5.49 2.993c-.12.487-.246 1.127-.352 1.899A38.166 38.166 0 0 1 3.552 4.6 5.64 5.64 0 0 1 5.49 2.993zm-1.875 8.492c.43-.09.957-.191 1.528-.282.1.716.216 1.319.329 1.795a5.615 5.615 0 0 1-1.857-1.513zm6.942 1.499c.112-.469.225-1.061.323-1.769.557.09 1.075.188 1.501.275a5.631 5.631 0 0 1-1.824 1.494z"/></svg>