<?xml version="1.0"?><!DOCTYPE svg PUBLIC "-//W3C//DTD SVG 1.1//EN" "http://www.w3.org/Graphics/SVG/1.1/DTD/svg11.dtd"><svg width="16px" height="16px" xmlns="http://www.w3.org/2000/svg" viewBox="0 0 16 16" shape-rendering="geometricPrecision" fill="#000"><defs><mask id="refresh-path"><rect fill="#fff" width="100%" height="100%"/><path d="M17.514,2.671l-0.862-0.552L16.65-1h-2.866v0.558c-1.334-0.3-2.758,0.103-3.723,1.067 c-1.569,1.569-1.554,4.141,0.035,5.732c0.779,0.777,1.809,1.205,2.901,1.205c1.071,0,2.077-0.415,2.831-1.168 C16.585,5.639,17.001,4.631,17,3.557l0-0.886H17.514z M14.141,3.558c0,0.22-0.058,0.539-0.333,0.813 c-0.443,0.443-1.23,0.426-1.69-0.035c-0.475-0.475-0.49-1.234-0.036-1.689c0.011-0.011,0.021-0.022,0.033-0.031l0,0.922h2.026 V3.558z" fill="#000"/></mask></defs><path display="inline" d="M13.114,2.537h2.538L15.651,0h-0.867v1.105 c-1.204-0.927-2.924-0.863-4.016,0.227C9.581,2.52,9.606,4.451,10.803,5.649c1.201,1.198,3.131,1.224,4.319,0.037 C15.707,5.102,16.001,4.329,16,3.558l-0.859,0.001c-0.001,0.557-0.208,1.102-0.627,1.521c-0.843,0.842-2.231,0.836-3.104-0.036 c-0.871-0.872-0.877-2.26-0.035-3.105c0.729-0.727,1.86-0.818,2.721-0.268h-0.983L13.114,2.537z" fill="#cb1800"/><path mask="url(#refresh-path)" d="M15.579,2.998c-0.021,0-0.042,0.001-0.064,0.003c-1.004,0.116-2.668,0.598-3.658,2.451 c-0.837,1.565-2.043,3.822-2.94,5.5L7.045,9.081L7.361,8.5c0.023-0.042,0.063-0.072,0.11-0.081L8.68,8.181 c0.102-0.02,0.158-0.13,0.116-0.224L7.938,6.055C7.895,5.958,7.955,5.846,8.061,5.83l2.11-0.326 c0.105-0.016,0.166-0.127,0.123-0.224l-0.91-2.058C9.341,3.125,9.401,3.014,9.505,2.997l2.23-0.362 c0.096-0.016,0.156-0.112,0.129-0.205l-0.429-1.449c-0.007-0.024-0.009-0.05-0.004-0.075L11.544,0.3 c0.029-0.154-0.156-0.254-0.27-0.146l-0.458,0.437c-0.012,0.012-0.022,0.025-0.03,0.04l-0.094,0.174 c-0.02,0.038-0.025,0.082-0.013,0.123l0.275,0.931c0.028,0.093-0.033,0.189-0.129,0.205l-2.342,0.38 C8.379,2.46,8.319,2.57,8.361,2.667l0.907,2.052C9.311,4.816,9.25,4.927,9.145,4.943L7.028,5.27 C6.923,5.287,6.862,5.399,6.906,5.496l0.873,1.937c0.043,0.095-0.014,0.204-0.116,0.224l-0.658,0.13 c-0.047,0.009-0.087,0.039-0.11,0.081L6.521,8.557L3.449,5.485c-0.795-0.795-2.095-0.795-2.89,0s-0.795,2.095,0,2.89l6.92,6.92 c0.795,0.795,2.095,0.795,2.89,0c0.551-0.551,0.711-1.344,0.497-2.044l5.114-9.566C16.148,3.372,15.919,3.003,15.579,2.998z M10.456,12.512c-0.03-0.035-0.054-0.073-0.087-0.107l-0.928-0.928l3.042-5.69c0.685-1.281,1.739-1.802,2.637-2L10.456,12.512z"/></svg>