<?xml version="1.0"?><!DOCTYPE svg PUBLIC "-//W3C//DTD SVG 1.1//EN" "http://www.w3.org/Graphics/SVG/1.1/DTD/svg11.dtd"><svg width="16px" height="16px" xmlns="http://www.w3.org/2000/svg" viewBox="0 0 16 16" shape-rendering="geometricPrecision" fill="#000"><defs><mask id="refresh-path"><rect fill="#fff" width="100%" height="100%"/><path d="M17.514,2.671l-0.862-0.552L16.65-1h-2.866v0.558c-1.334-0.3-2.758,0.103-3.723,1.067 c-1.569,1.569-1.554,4.141,0.035,5.732c0.779,0.777,1.809,1.205,2.901,1.205c1.071,0,2.077-0.415,2.831-1.168 C16.585,5.639,17.001,4.631,17,3.557l0-0.886H17.514z M14.141,3.558c0,0.22-0.058,0.539-0.333,0.813 c-0.443,0.443-1.23,0.426-1.69-0.035c-0.475-0.475-0.49-1.234-0.036-1.689c0.011-0.011,0.021-0.022,0.033-0.031l0,0.922h2.026 V3.558z" fill="#000"/></mask></defs><path display="inline" d="M13.114,2.537h2.538L15.651,0h-0.867v1.105 c-1.204-0.927-2.924-0.863-4.016,0.227C9.581,2.52,9.606,4.451,10.803,5.649c1.201,1.198,3.131,1.224,4.319,0.037 C15.707,5.102,16.001,4.329,16,3.558l-0.859,0.001c-0.001,0.557-0.208,1.102-0.627,1.521c-0.843,0.842-2.231,0.836-3.104-0.036 c-0.871-0.872-0.877-2.26-0.035-3.105c0.729-0.727,1.86-0.818,2.721-0.268h-0.983L13.114,2.537z" fill="#cb1800"/><g mask="url(#refresh-path)"><g><path d="M9.325,5.321c-0.372-0.324-0.84-0.576-1.26-0.576c-0.432,0-0.647,0.168-0.647,0.468c0,0.852,3.25,0.923,3.25,3.094 c0,0.696-0.359,1.211-0.983,1.595c0.168,0.252,0.276,0.552,0.276,0.923c0,1.08-0.804,1.895-2.303,1.895 c-0.876,0-1.787-0.324-2.327-1.007l1.02-0.899c0.384,0.396,0.84,0.611,1.308,0.611c0.491,0,0.719-0.216,0.719-0.516 c0-0.936-3.154-0.852-3.154-3.106c0-0.6,0.372-1.175,0.96-1.535C5.967,6.017,5.835,5.693,5.835,5.273 c0-1.08,0.791-1.835,2.135-1.835c0.923,0,1.667,0.396,2.158,0.779L9.325,5.321z M8.774,9.159 c0.275-0.168,0.407-0.384,0.407-0.708c0-0.755-1.115-0.996-2.051-1.475c-0.275,0.18-0.42,0.408-0.42,0.695 C6.71,8.427,7.85,8.667,8.774,9.159z"/></g><path d="M8,1.001c-3.866,0-6.999,3.135-6.999,7.003C1.003,11.867,4.134,14.999,8,15.001 c3.867-0.002,7.001-3.134,7.001-6.997C15.001,4.136,11.867,1.001,8,1.001z M8,13.585c-3.083-0.006-5.577-2.5-5.583-5.581 C2.423,4.918,4.917,2.423,8,2.417c3.084,0.006,5.578,2.501,5.585,5.587C13.578,11.085,11.084,13.579,8,13.585z"/></g></svg>