<svg width="16" height="16" xmlns="http://www.w3.org/2000/svg" viewBox="0 0 16 16" shape-rendering="geometricPrecision" fill="#00962d"><defs><mask id="a"><rect fill="#fff" width="100%" height="100%"/><path fill="#000" d="M14.5 1.716L13-.371l-1.501 2.087-1.982-2.76-.836.011 1.888 6.811h4.86l1.884-6.792-.841-.013z"/></mask></defs><path fill="#FCC70A" d="M14.858 5.028H11.14L9.999.914l.749 1.043.751 1.045.75-1.045L13 .914l.75 1.043.749 1.045.751-1.045L16 .914z"/><path d="M14.814 2.331L12.486-.001 7.999 4.485 3.511-.001l-2.326 2.33 6.818 6.814 6.811-6.812zM7.999 11.34L3.511 6.854l-2.326 2.33L8.003 16l6.811-6.814-2.328-2.331-4.487 4.485z" mask="url(#a)"/></svg>