<svg width="16" height="16" xmlns="http://www.w3.org/2000/svg" viewBox="0 0 16 16" shape-rendering="geometricPrecision" fill="#00962d"><defs><mask id="a"><rect fill="#fff" width="100%" height="100%"/><path fill="#000" d="M14.5 1.716L13-.371l-1.501 2.087-1.982-2.76-.836.011 1.888 6.811h4.86l1.884-6.792-.841-.013z"/></mask></defs><path fill="#FCC70A" d="M14.858 5.028H11.14L9.999.914l.749 1.043.751 1.045.75-1.045L13 .914l.75 1.043.749 1.045.751-1.045L16 .914z"/><g mask="url(#a)"><path d="M8.182 3.179l-.815-1.923h-3.78L2.77 3.179H1.649l.001.949 13.327-.009.018 9.283.933-.978V3.179z"/><path d="M7.027 6.669A2.806 2.806 0 0 0 4.226 9.47a2.804 2.804 0 0 0 2.801 2.798 2.803 2.803 0 0 0 2.8-2.798 2.805 2.805 0 0 0-2.8-2.801zm.549 3.24l-1.881 1.092-.533-.934 1.348-.785V7.105l1.076.001.001 2.804h-.011z"/><path d="M.072 4.756V14h14.279V4.756H.072zm6.955 8.223a3.511 3.511 0 1 1 0-7.023 3.511 3.511 0 0 1 0 7.023z"/></g></svg>