<?xml version="1.0"?><!DOCTYPE svg PUBLIC "-//W3C//DTD SVG 1.1//EN" "http://www.w3.org/Graphics/SVG/1.1/DTD/svg11.dtd"><svg width="16px" height="16px" xmlns="http://www.w3.org/2000/svg" viewBox="0 0 16 16" shape-rendering="geometricPrecision" fill="#00962d"><defs><mask id="crown-path"><rect fill="#fff" width="100%" height="100%"/><polygon points="14.5,1.716 13,-0.371 11.499,1.716 9.517,-1.044 8.681,-1.033 10.569,5.778 15.429,5.778 17.313,-1.014 16.472,-1.027 " fill="#000"/></mask></defs><g id="crown" display="inline" fill="#cb1800"><polygon fill="#FCC70A" points="14.858,5.028 11.14,5.028 9.999,0.914 10.748,1.957 11.499,3.002 12.249,1.957 13,0.914 13.75,1.957 14.499,3.002 15.25,1.957 16,0.914 "/></g><g mask="url(#crown-path)"><g><polygon points="9.667,4.755 9.452,5.929 14.041,5.929 14.041,12.929 8.168,12.929 7.971,14 15.139,14 15.139,4.755"/><polygon points="7.151,11.929 1.916,11.929 1.916,4.929 8.435,4.929 8.651,3.755 7.394,3.755 6.578,1.832 2.798,1.832 1.982,3.755 0.861,3.755 0.861,13 6.955,13"/></g></g></svg>