<svg width="16" height="16" xmlns="http://www.w3.org/2000/svg" viewBox="0 0 16 16" shape-rendering="geometricPrecision" fill="#00962d"><defs><mask id="a"><rect fill="#fff" width="100%" height="100%"/><path fill="#000" d="M14.5 1.716L13-.371l-1.501 2.087-1.982-2.76-.836.011 1.888 6.811h4.86l1.884-6.792-.841-.013z"/></mask></defs><path fill="#FCC70A" d="M14.858 5.028H11.14L9.999.914l.749 1.043.751 1.045.75-1.045L13 .914l.75 1.043.749 1.045.751-1.045L16 .914z"/><g mask="url(#a)"><path d="M7.271 8.729H1.03v.001a6.242 6.242 0 0 0 6.238 6.239h.002v-6.24z"/><path d="M8.83.928a6.24 6.24 0 0 0-6.238 6.236H4.45a4.382 4.382 0 1 1 4.384 4.384v1.857a6.241 6.241 0 0 0 6.235-6.24A6.24 6.24 0 0 0 8.83.928zm2.344 6.237a2.343 2.343 0 0 0-4.686-.001h2.346v2.345a2.345 2.345 0 0 0 2.34-2.344z"/></g></svg>