<svg width="16" height="16" xmlns="http://www.w3.org/2000/svg" viewBox="0 0 16 16" shape-rendering="geometricPrecision" fill="#00962d"><defs><mask id="a"><rect fill="#fff" width="100%" height="100%"/><path fill="#000" d="M14.5 1.716L13-.371l-1.501 2.087-1.982-2.76-.836.011 1.888 6.811h4.86l1.884-6.792-.841-.013z"/></mask></defs><path fill="#FCC70A" d="M14.858 5.028H11.14L9.999.914l.749 1.043.751 1.045.75-1.045L13 .914l.75 1.043.749 1.045.751-1.045L16 .914z"/><g mask="url(#a)"><path d="M9.341 5.662a2.312 2.312 0 1 1 4.626 0V6.81h1.413V5.662a3.726 3.726 0 1 0-7.453 0V6.81H9.34V5.662zM.62 7.792v7.207h9.875V7.792H.62zm5.806 4.802a.87.87 0 0 1-1.738 0v-2.396a.868.868 0 0 1 1.738 0v2.396z"/></g></svg>