<svg width="16" height="16" xmlns="http://www.w3.org/2000/svg" viewBox="0 0 16 16" shape-rendering="geometricPrecision" fill="#00962d"><defs><mask id="a"><rect fill="#fff" width="100%" height="100%"/><path fill="#000" d="M14.5 1.716L13-.371l-1.501 2.087-1.982-2.76-.836.011 1.888 6.811h4.86l1.884-6.792-.841-.013z"/></mask></defs><path fill="#FCC70A" d="M14.858 5.028H11.14L9.999.914l.749 1.043.751 1.045.75-1.045L13 .914l.75 1.043.749 1.045.751-1.045L16 .914z"/><g mask="url(#a)"><path d="M14.017 5.94a5.938 5.938 0 0 0-11.875 0c0 1.172.345 2.262.932 3.184l-.006-.004.041.06c.046.071.096.14.145.209L8.114 16l4.833-6.665.093-.136.025-.036-.005.001a5.902 5.902 0 0 0 .957-3.224zm-5.938 4.567a4.565 4.565 0 1 1 0-9.133 4.565 4.565 0 0 1 0 9.133z"/><circle cx="8.079" cy="5.914" r="2.242"/></g></svg>