<svg width="16" height="16" xmlns="http://www.w3.org/2000/svg" viewBox="0 0 16 16" shape-rendering="geometricPrecision" fill="#00962d"><defs><mask id="a"><rect fill="#fff" width="100%" height="100%"/><path fill="#000" d="M14.5 1.716L13-.371l-1.501 2.087-1.982-2.76-.836.011 1.888 6.811h4.86l1.884-6.792-.841-.013z"/></mask></defs><path fill="#FCC70A" d="M14.858 5.028H11.14L9.999.914l.749 1.043.751 1.045.75-1.045L13 .914l.75 1.043.749 1.045.751-1.045L16 .914z"/><g mask="url(#a)"><path d="M1.021 1.02v2.617c3.137 0 5.964 1.267 8.021 3.32a11.31 11.31 0 0 1 3.321 8.021h2.617C14.978 7.27 8.73 1.022 1.021 1.02zm0 4.709v2.613a6.647 6.647 0 0 1 6.635 6.637h2.616a9.251 9.251 0 0 0-9.251-9.25zM2.9 11.222a1.88 1.88 0 1 0 .001 3.757 1.88 1.88 0 0 0-.001-3.757z"/></g></svg>