<?xml version="1.0"?><!DOCTYPE svg PUBLIC "-//W3C//DTD SVG 1.1//EN" "http://www.w3.org/Graphics/SVG/1.1/DTD/svg11.dtd"><svg width="16px" height="16px" xmlns="http://www.w3.org/2000/svg" viewBox="0 0 16 16" shape-rendering="geometricPrecision" fill="#00962d"><defs><mask id="crown-path"><rect fill="#fff" width="100%" height="100%"/><polygon points="14.5,1.716 13,-0.371 11.499,1.716 9.517,-1.044 8.681,-1.033 10.569,5.778 15.429,5.778 17.313,-1.014 16.472,-1.027 " fill="#000"/></mask></defs><g id="crown" display="inline" fill="#cb1800"><polygon fill="#FCC70A" points="14.858,5.028 11.14,5.028 9.999,0.914 10.748,1.957 11.499,3.002 12.249,1.957 13,0.914 13.75,1.957 14.499,3.002 15.25,1.957 16,0.914 "/></g><g mask="url(#crown-path)"><path d="M8.001,1.062c-3.833,0-6.939,3.107-6.939,6.941c0,3.829,3.106,6.934,6.939,6.936 c3.832-0.002,6.936-3.106,6.937-6.936C14.938,4.169,11.833,1.062,8.001,1.062z M8.001,13.534 c-3.057-0.006-5.529-2.478-5.536-5.531c0.007-3.059,2.479-5.531,5.536-5.537c3.056,0.006,5.528,2.478,5.534,5.537 C13.529,11.057,11.057,13.528,8.001,13.534z"/></g></svg>