<svg width="16" height="16" xmlns="http://www.w3.org/2000/svg" viewBox="0 0 16 16" shape-rendering="geometricPrecision" fill="#00962d"><defs><mask id="a"><rect fill="#fff" width="100%" height="100%"/><path fill="#000" d="M14.5 1.716L13-.371l-1.501 2.087-1.982-2.76-.836.011 1.888 6.811h4.86l1.884-6.792-.841-.013z"/></mask></defs><path fill="#FCC70A" d="M14.858 5.028H11.14L9.999.914l.749 1.043.751 1.045.75-1.045L13 .914l.75 1.043.749 1.045.751-1.045L16 .914z"/><g mask="url(#a)"><path d="M14.938 8.001a6.94 6.94 0 1 0-13.878 0 6.94 6.94 0 0 0 13.878 0zm-12.472 0a5.543 5.543 0 0 1 5.531-5.536 5.544 5.544 0 0 1 5.537 5.536 5.543 5.543 0 0 1-5.537 5.534 5.54 5.54 0 0 1-5.531-5.534z"/><path d="M8 12.673a4.68 4.68 0 0 0 4.673-4.672A4.682 4.682 0 0 0 8 3.327v9.346z"/></g></svg>