<svg width="16" height="16" xmlns="http://www.w3.org/2000/svg" viewBox="0 0 16 16" shape-rendering="geometricPrecision" fill="#00962d"><defs><mask id="a"><rect fill="#fff" width="100%" height="100%"/><path fill="#000" d="M14.5 1.716L13-.371l-1.501 2.087-1.982-2.76-.836.011 1.888 6.811h4.86l1.884-6.792-.841-.013z"/></mask></defs><path fill="#FCC70A" d="M14.858 5.028H11.14L9.999.914l.749 1.043.751 1.045.75-1.045L13 .914l.75 1.043.749 1.045.751-1.045L16 .914z"/><g mask="url(#a)"><path d="M15.609 3.739c-.906 1.865-2.393 2.551-3.389 2.805.568 1.092.975 2.484 1.15 4.041 1.175-.793 3.569-2.961 2.239-6.846zm-15.219 0c-1.328 3.885 1.065 6.053 2.241 6.846.174-1.557.58-2.949 1.147-4.041-.994-.254-2.481-.94-3.388-2.805zm7.611.348c-2.367 0-4.286 3.66-4.286 8.174h8.57c0-4.514-1.918-8.174-4.284-8.174z"/></g></svg>