<svg width="16" height="16" xmlns="http://www.w3.org/2000/svg" viewBox="0 0 16 16" shape-rendering="geometricPrecision" fill="#cb1800"><defs><mask id="a"><rect fill="#fff" width="100%" height="100%"/><path fill="#000" d="M14.934-.397l-2.039 2.036-2.037-2.036-2.472 2.47 4.511 4.51 4.507-4.51z"/></mask></defs><path d="M12.895 3.052l-2.037-2.035L9.8 2.073l3.097 3.096 3.093-3.096-1.057-1.056z"/><path mask="url(#a)" d="M7.394 4.755l-.816-1.923h-3.78l-.816 1.923H.861V14h14.278V4.755H7.394zm3.044 3.549a.978.978 0 1 1 .002 1.956.978.978 0 0 1-.002-1.956zM7.733 6.062a.978.978 0 1 1 .003 1.955.978.978 0 0 1-.003-1.955zM5.567 7.145a.978.978 0 1 1 0 1.957.98.98 0 0 1 0-1.957zm1.389 4.59H4.178V10.51c0-.519.422-.944.941-.944h.894c.518 0 .943.425.943.944v1.225zm-.608-2.346a.94.94 0 0 1 .936-.905h.894c.519 0 .943.425.943.943v1.226H7.188v-.143c0-.532-.356-.976-.84-1.121zm5.48 3.505H9.05v-1.226c0-.518.421-.943.94-.943h.894c.519 0 .944.425.944.943v1.226z"/></svg>