<svg width="16" height="16" xmlns="http://www.w3.org/2000/svg" viewBox="0 0 16 16" shape-rendering="geometricPrecision" fill="#cb1800"><defs><mask id="a"><rect fill="#fff" width="100%" height="100%"/><path fill="#000" d="M14.934-.397l-2.039 2.036-2.037-2.036-2.472 2.47 4.511 4.51 4.507-4.51z"/></mask></defs><path d="M12.895 3.052l-2.037-2.035L9.8 2.073l3.097 3.096 3.093-3.096-1.057-1.056z"/><g mask="url(#a)"><ellipse cx="13.096" cy="4.259" rx="1.101" ry="1.091"/><path d="M13.367 6.868c-.318 0-.614.095-.862.255a2 2 0 0 0-1.983-1.741 2 2 0 0 0-2.009 1.993 2.004 2.004 0 1 0 3.327 1.491 1.586 1.586 0 0 0 1.527 1.159c.879 0 1.592-.707 1.592-1.578a1.586 1.586 0 0 0-1.592-1.579z"/><path d="M10.202 10.016a2.67 2.67 0 0 1-2.365-2.641c0-1.071.639-1.993 1.559-2.414L8.91 1.907l-5.074.795.284 1.785L1.2 5.611l3.28 8.381 4.789-1.844-.441-1.126 1.497-.235-.123-.771z"/></g></svg>