<svg width="16" height="16" xmlns="http://www.w3.org/2000/svg" viewBox="0 0 16 16" shape-rendering="geometricPrecision" fill="#cb1800"><defs><mask id="a"><rect fill="#fff" width="100%" height="100%"/><path fill="#000" d="M14.934-.397l-2.039 2.036-2.037-2.036-2.472 2.47 4.511 4.51 4.507-4.51z"/></mask></defs><path d="M12.895 3.052l-2.037-2.035L9.8 2.073l3.097 3.096 3.093-3.096-1.057-1.056z"/><path d="M-.001 8.59h7.406V16H-.001zm8.556 0V16H16V8.59H8.555zm6.297 5.206l-1.063 1.061-1.51-1.504-1.511 1.504-1.064-1.06 1.511-1.503-1.51-1.504 1.063-1.059 1.511 1.505 1.51-1.505 1.063 1.061-1.511 1.502 1.511 1.502zM4.276.073v7.41h7.368V.073H4.276zm3.076 6.049L4.96 3.717l1.051-1.059L7.35 4.004l2.559-2.572 1.054 1.06-3.611 3.63z" mask="url(#a)"/></svg>