<svg width="16" height="16" xmlns="http://www.w3.org/2000/svg" viewBox="0 0 16 16" shape-rendering="geometricPrecision" fill="#cb1800"><defs><mask id="a"><rect fill="#fff" width="100%" height="100%"/><path fill="#000" d="M14.934-.397l-2.039 2.036-2.037-2.036-2.472 2.47 4.511 4.51 4.507-4.51z"/></mask></defs><path d="M12.895 3.052l-2.037-2.035L9.8 2.073l3.097 3.096 3.093-3.096-1.057-1.056z"/><g mask="url(#a)"><path d="M11.473 1.006h1.042v13.987h-1.042zm-4.014 0h1.062v13.987H7.459zm-4.015 0h1.021v13.987H3.444z"/><path d="M10.499 8.527V6.5c0-.267.216-.483.483-.483h2.027c.267 0 .483.216.483.483v2.027a.483.483 0 0 1-.483.483h-2.027a.483.483 0 0 1-.483-.483zM6.495 5.519V3.487c0-.267.216-.483.483-.483H9.01c.267 0 .483.216.483.483v2.032a.483.483 0 0 1-.483.483H6.978a.483.483 0 0 1-.483-.483zm-4 6.998v-2.019c0-.267.216-.483.483-.483h2.019c.267 0 .483.216.483.483v2.019a.483.483 0 0 1-.483.483H2.978a.483.483 0 0 1-.483-.483z"/></g></svg>