<svg width="16" height="16" xmlns="http://www.w3.org/2000/svg" viewBox="0 0 16 16" shape-rendering="geometricPrecision" fill="#6e6e6e"><defs><mask id="a"><rect fill="#fff" width="100%" height="100%"/><path d="M17.514 2.671l-.862-.552L16.65-1h-2.866v.558A4.044 4.044 0 0 0 10.061.625c-1.569 1.569-1.554 4.141.035 5.732a4.084 4.084 0 0 0 2.901 1.205 3.98 3.98 0 0 0 2.831-1.168A3.973 3.973 0 0 0 17 3.557v-.886h.514zm-3.373.887c0 .22-.058.539-.333.813-.443.443-1.23.426-1.69-.035-.475-.475-.49-1.234-.036-1.689.011-.011.021-.022.033-.031v.922h2.026v.02z" fill="#000"/></mask></defs><path d="M13.114 2.537h2.538L15.651 0h-.867v1.105c-1.204-.927-2.924-.863-4.016.227-1.187 1.188-1.162 3.119.035 4.317 1.201 1.198 3.131 1.224 4.319.037A2.996 2.996 0 0 0 16 3.558l-.859.001a2.137 2.137 0 0 1-.627 1.521c-.843.842-2.231.836-3.104-.036-.871-.872-.877-2.26-.035-3.105.729-.727 1.86-.818 2.721-.268h-.983l.001.866z" fill="#cb1800"/><path mask="url(#a)" d="M14.307 9.69c.143-.537.227-1.1.227-1.682a6.525 6.525 0 0 0-6.525-6.525c-.581 0-1.142.084-1.678.227A3.321 3.321 0 0 0 1.71 6.329a6.51 6.51 0 0 0-.226 1.68 6.525 6.525 0 0 0 6.525 6.525 6.45 6.45 0 0 0 1.683-.229 3.322 3.322 0 0 0 4.615-4.615zm-3.332 1.299a2.43 2.43 0 0 1-.63.832 3.07 3.07 0 0 1-1.002.568 3.926 3.926 0 0 1-1.333.209 4.47 4.47 0 0 1-1.72-.338 4.481 4.481 0 0 1-1.464-.96l.908-1.07a3.96 3.96 0 0 0 1.083.725 2.93 2.93 0 0 0 1.232.277c.496 0 .878-.104 1.145-.311a.996.996 0 0 0 .399-.826.96.96 0 0 0-.102-.461 1.024 1.024 0 0 0-.283-.332 2.509 2.509 0 0 0-.44-.264 9.714 9.714 0 0 0-.556-.242l-1.205-.529a4.36 4.36 0 0 1-.65-.34 2.567 2.567 0 0 1-.576-.487 2.264 2.264 0 0 1-.562-1.531c0-.352.075-.678.224-.983.149-.3.354-.566.616-.79.262-.227.573-.4.934-.527.361-.127.759-.19 1.192-.19.524 0 1.024.1 1.503.305.478.203.889.477 1.232.818l-.812 1.002a3.653 3.653 0 0 0-.887-.555 2.577 2.577 0 0 0-1.036-.203c-.424 0-.76.092-1.009.277a.904.904 0 0 0-.373.766c0 .17.039.316.116.439.076.122.181.231.312.325.13.096.281.182.453.258.171.078.347.15.528.225l1.192.5c.262.109.503.234.724.381.222.143.411.311.569.498.158.191.28.41.366.658.085.248.128.535.128.861 0 .359-.071.699-.216 1.015z"/></svg>