<?xml version="1.0"?><!DOCTYPE svg PUBLIC "-//W3C//DTD SVG 1.1//EN" "http://www.w3.org/Graphics/SVG/1.1/DTD/svg11.dtd"><svg width="16px" height="16px" xmlns="http://www.w3.org/2000/svg" viewBox="0 0 16 16" shape-rendering="geometricPrecision" fill="#6e6e6e"><defs><mask id="refresh-path"><rect fill="#fff" width="100%" height="100%"/><path d="M17.514,2.671l-0.862-0.552L16.65-1h-2.866v0.558c-1.334-0.3-2.758,0.103-3.723,1.067 c-1.569,1.569-1.554,4.141,0.035,5.732c0.779,0.777,1.809,1.205,2.901,1.205c1.071,0,2.077-0.415,2.831-1.168 C16.585,5.639,17.001,4.631,17,3.557l0-0.886H17.514z M14.141,3.558c0,0.22-0.058,0.539-0.333,0.813 c-0.443,0.443-1.23,0.426-1.69-0.035c-0.475-0.475-0.49-1.234-0.036-1.689c0.011-0.011,0.021-0.022,0.033-0.031l0,0.922h2.026 V3.558z" fill="#000"/></mask></defs><path display="inline" d="M13.114,2.537h2.538L15.651,0h-0.867v1.105 c-1.204-0.927-2.924-0.863-4.016,0.227C9.581,2.52,9.606,4.451,10.803,5.649c1.201,1.198,3.131,1.224,4.319,0.037 C15.707,5.102,16.001,4.329,16,3.558l-0.859,0.001c-0.001,0.557-0.208,1.102-0.627,1.521c-0.843,0.842-2.231,0.836-3.104-0.036 c-0.871-0.872-0.877-2.26-0.035-3.105c0.729-0.727,1.86-0.818,2.721-0.268h-0.983L13.114,2.537z" fill="#cb1800"/><g mask="url(#refresh-path)"><g><path d="M15.387,12.386L11.35,8.347l-3.029,3.029l4.035,4.034c0.784,0.783,2.092,0.741,2.932-0.099 C16.124,14.476,16.167,13.163,15.387,12.386z"/><path d="M7.678,4.667c0.248-1.228-0.103-2.551-1.054-3.502C5.577,0.119,4.087-0.186,2.765,0.211l2.109,2.112L4.262,4.221 L2.296,4.9L0.188,2.788C-0.21,4.112,0.097,5.6,1.139,6.647c0.951,0.952,2.275,1.3,3.503,1.056L7.678,4.667z"/></g><g><polygon points="0.036,15.915 1.91,15.337 0.636,14.059"/><polygon points="1.176,12.288 3.672,14.803 13.784,4.738 11.287,2.223"/><path d="M15.484,0.551c-0.687-0.694-1.801-0.697-2.499-0.017l-1.008,1l2.497,2.517l1.011-1.003l-0.002-0.001 C16.17,2.357,16.174,1.239,15.484,0.551z"/></g></g></svg>