<svg width="16" height="16" xmlns="http://www.w3.org/2000/svg" viewBox="0 0 16 16" shape-rendering="geometricPrecision" fill="#6e6e6e"><defs><mask id="a"><rect fill="#fff" width="100%" height="100%"/><path d="M17.514 2.671l-.862-.552L16.65-1h-2.866v.558A4.044 4.044 0 0 0 10.061.625c-1.569 1.569-1.554 4.141.035 5.732a4.084 4.084 0 0 0 2.901 1.205 3.98 3.98 0 0 0 2.831-1.168A3.973 3.973 0 0 0 17 3.557v-.886h.514zm-3.373.887c0 .22-.058.539-.333.813-.443.443-1.23.426-1.69-.035-.475-.475-.49-1.234-.036-1.689.011-.011.021-.022.033-.031v.922h2.026v.02z" fill="#000"/></mask></defs><path d="M13.114 2.537h2.538L15.651 0h-.867v1.105c-1.204-.927-2.924-.863-4.016.227-1.187 1.188-1.162 3.119.035 4.317 1.201 1.198 3.131 1.224 4.319.037A2.996 2.996 0 0 0 16 3.558l-.859.001a2.137 2.137 0 0 1-.627 1.521c-.843.842-2.231.836-3.104-.036-.871-.872-.877-2.26-.035-3.105.729-.727 1.86-.818 2.721-.268h-.983l.001.866z" fill="#cb1800"/><path mask="url(#a)" d="M14.9 4.223l-2.144-.193a3.247 3.247 0 0 0-5.974.925c-.099.53-.099 1.291-.557 2.091-1.626.367-3.325.2-3.325.2s.273 1.135 2.174 2.048c-1.721 2.305-4.06 2.705-4.06 2.705s1.001.983 3.196.725c.803-.095 1.504-.457 1.826-.646l-2.271 1.408s1.385.422 4.327-.488c3.759-1.162 4.873-4.779 4.845-6.051l.016-.039 2.035-.852-2.093-.433 2.005-1.4zm-3.993 1.451c-.297 0-.539-.322-.539-.719 0-.397.242-.718.539-.718.298 0 .539.321.539.718 0 .397-.241.719-.539.719z"/></svg>