<svg width="16" height="16" xmlns="http://www.w3.org/2000/svg" viewBox="0 0 16 16" shape-rendering="geometricPrecision" fill="#6e6e6e"><defs><mask id="a"><rect fill="#fff" width="100%" height="100%"/><path fill="#000" d="M13.135-1h-3.55v7.956H16V-1z"/></mask></defs><path d="M10.585 0h1.55v5.956h-1.55zm2.865 0H15v5.956h-1.55z" fill="#cb1800"/><path d="M11.246 9.283a2.493 2.493 0 0 0 2.497-2.495 2.493 2.493 0 0 0-2.497-2.494 2.496 2.496 0 1 0 0 4.989zM.005 12.873V16h5.081v-3.128a3.819 3.819 0 0 1 .869-2.403H2.403a2.406 2.406 0 0 0-2.398 2.404zm13.559-2.404H8.919a2.406 2.406 0 0 0-2.398 2.404V16h9.45v-3.127a2.413 2.413 0 0 0-2.407-2.404zM4.729 4.294a2.495 2.495 0 1 0 2.496 2.494 2.492 2.492 0 0 0-2.496-2.494z" mask="url(#a)"/></svg>