<svg width="16" height="16" xmlns="http://www.w3.org/2000/svg" viewBox="0 0 16 16" shape-rendering="geometricPrecision" fill="#6e6e6e"><defs><mask id="a"><rect fill="#fff" width="100%" height="100%"/><path fill="#000" d="M13.135-1h-3.55v7.956H16V-1z"/></mask></defs><path d="M10.585 0h1.55v5.956h-1.55zm2.865 0H15v5.956h-1.55z" fill="#cb1800"/><g mask="url(#a)"><path d="M1.811-.001v16h12.378v-16H1.811zm11.34 14.962H2.793V1.011H13.15v13.95z"/><path d="M8.067 4.602a1.373 1.373 0 1 0 .002-2.746 1.373 1.373 0 0 0-.002 2.746zm1.354 7.896v-6.49H5.312v1.02H6.66v5.471H5.307v1.359h5.467v-1.359H9.421z"/></g></svg>