<?xml version="1.0"?><!DOCTYPE svg PUBLIC "-//W3C//DTD SVG 1.1//EN" "http://www.w3.org/Graphics/SVG/1.1/DTD/svg11.dtd"><svg width="16px" height="16px" xmlns="http://www.w3.org/2000/svg" viewBox="0 0 16 16" shape-rendering="geometricPrecision" fill="#cb1800"><defs><mask id="export-path"><rect fill="#fff" width="100%" height="100%"/><path d="M13.848-1.1l-1.797,1.795l0.286,0.287c-1.812,0.575-3.107,2.263-3.107,4.254v0.987h2.626 V5.235c0-0.491,0.191-0.954,0.538-1.302c0.01-0.01,0.021-0.02,0.03-0.03l1.425,1.421l3.212-3.213L13.848-1.1z" fill="#000"/></mask></defs><path id="export" display="inline" d="M13.848-0.04l-0.736,0.735l0.821,0.821h-0.234 l-0.156,0.008c-1.978,0.084-3.563,1.714-3.563,3.711v0.237h1.126V5.235c0-0.691,0.27-1.343,0.759-1.833 c0.49-0.489,1.141-0.759,1.833-0.759h0.237V2.643h0.063L13.112,3.53l0.735,0.734L16,2.111L13.848-0.04z" fill="#cb1800"/><g mask="url(#export-path)"><path d="M10.515,1.979l3.51,3.51v4.964l-3.51,3.51H5.551l-3.51-3.51V5.488l3.51-3.51H10.515 M10.929,0.979H5.137 L1.041,5.074v5.792l4.096,4.096h5.792l4.096-4.096V5.074L10.929,0.979L10.929,0.979z"/><path d="M3.446,8.977c0.252,0.232,0.55,0.418,0.908,0.418c0.431,0,0.709-0.226,0.709-0.656 c0-0.424-0.272-0.65-0.663-0.65c-0.246,0-0.371,0.053-0.623,0.212L3.34,8.023l0.119-2.127h2.386v0.822H4.3L4.227,7.507 c0.159-0.073,0.298-0.1,0.471-0.1c0.723,0,1.339,0.411,1.339,1.306c0,0.934-0.723,1.471-1.544,1.471 c-0.689,0-1.153-0.258-1.484-0.59L3.446,8.977z"/><path d="M6.602,9.547c1.074-1.014,1.829-1.736,1.829-2.333c0-0.411-0.232-0.636-0.596-0.636 c-0.305,0-0.537,0.206-0.749,0.431l-0.53-0.523c0.418-0.444,0.809-0.669,1.412-0.669c0.829,0,1.392,0.53,1.392,1.339 c0,0.709-0.663,1.464-1.345,2.18c0.212-0.026,0.504-0.053,0.703-0.053h0.848v0.822H6.602V9.547z"/><path d="M12.018,7.99c-0.02-0.291-0.166-0.477-0.517-0.477c-0.278,0-0.557,0.113-0.875,0.298l-0.345-0.643 c0.418-0.252,0.888-0.431,1.405-0.431c0.841,0,1.305,0.477,1.305,1.484v1.882h-0.795l-0.073-0.338h-0.02 c-0.278,0.246-0.59,0.418-0.96,0.418c-0.597,0-0.974-0.437-0.974-0.994C10.169,8.5,10.719,8.123,12.018,7.99z M11.475,9.428 c0.225,0,0.371-0.106,0.543-0.278V8.573c-0.696,0.093-0.921,0.291-0.921,0.543C11.097,9.329,11.243,9.428,11.475,9.428z"/></g></svg>