<?xml version="1.0"?><!DOCTYPE svg PUBLIC "-//W3C//DTD SVG 1.1//EN" "http://www.w3.org/Graphics/SVG/1.1/DTD/svg11.dtd"><svg width="16px" height="16px" xmlns="http://www.w3.org/2000/svg" viewBox="0 0 16 16" shape-rendering="geometricPrecision" fill="#cb1800"><defs><mask id="export-path"><rect fill="#fff" width="100%" height="100%"/><path d="M13.848-1.1l-1.797,1.795l0.286,0.287c-1.812,0.575-3.107,2.263-3.107,4.254v0.987h2.626 V5.235c0-0.491,0.191-0.954,0.538-1.302c0.01-0.01,0.021-0.02,0.03-0.03l1.425,1.421l3.212-3.213L13.848-1.1z" fill="#000"/></mask></defs><path id="export" display="inline" d="M13.848-0.04l-0.736,0.735l0.821,0.821h-0.234 l-0.156,0.008c-1.978,0.084-3.563,1.714-3.563,3.711v0.237h1.126V5.235c0-0.691,0.27-1.343,0.759-1.833 c0.49-0.489,1.141-0.759,1.833-0.759h0.237V2.643h0.063L13.112,3.53l0.735,0.734L16,2.111L13.848-0.04z" fill="#cb1800"/><g mask="url(#export-path)"><g><path d="M6.133,5.138c0.686,0,1.262,0.339,1.634,0.72l-0.686,0.77C6.802,6.374,6.539,6.214,6.15,6.214 c-0.771,0-1.372,0.669-1.372,1.778c0,1.134,0.534,1.795,1.338,1.795c0.457,0,0.778-0.195,1.049-0.491l0.686,0.753 c-0.457,0.534-1.067,0.813-1.753,0.813c-1.431,0-2.599-0.973-2.599-2.828C3.5,6.205,4.711,5.138,6.133,5.138z"/></g><g><path d="M10.573,5.138c0.686,0,1.262,0.339,1.634,0.72l-0.686,0.77c-0.279-0.254-0.542-0.415-0.931-0.415 c-0.771,0-1.372,0.669-1.372,1.778c0,1.134,0.534,1.795,1.338,1.795c0.457,0,0.778-0.195,1.049-0.491l0.686,0.753 c-0.457,0.534-1.067,0.813-1.753,0.813c-1.431,0-2.599-0.973-2.599-2.828C7.94,6.205,9.151,5.138,10.573,5.138z"/></g><path d="M8,1.001c-3.866,0-6.999,3.135-6.999,7.003C1.003,11.867,4.134,14.999,8,15.001 c3.867-0.002,7.001-3.134,7.001-6.997C15.001,4.136,11.867,1.001,8,1.001z M8,13.585c-3.083-0.006-5.577-2.5-5.583-5.581 C2.423,4.918,4.917,2.423,8,2.417c3.084,0.006,5.578,2.501,5.585,5.587C13.578,11.085,11.084,13.579,8,13.585z"/></g></svg>