<?xml version="1.0"?><!DOCTYPE svg PUBLIC "-//W3C//DTD SVG 1.1//EN" "http://www.w3.org/Graphics/SVG/1.1/DTD/svg11.dtd"><svg width="16px" height="16px" xmlns="http://www.w3.org/2000/svg" viewBox="0 0 16 16" shape-rendering="geometricPrecision" fill="#cb1800"><defs><mask id="export-path"><rect fill="#fff" width="100%" height="100%"/><path d="M13.848-1.1l-1.797,1.795l0.286,0.287c-1.812,0.575-3.107,2.263-3.107,4.254v0.987h2.626 V5.235c0-0.491,0.191-0.954,0.538-1.302c0.01-0.01,0.021-0.02,0.03-0.03l1.425,1.421l3.212-3.213L13.848-1.1z" fill="#000"/></mask></defs><path id="export" display="inline" d="M13.848-0.04l-0.736,0.735l0.821,0.821h-0.234 l-0.156,0.008c-1.978,0.084-3.563,1.714-3.563,3.711v0.237h1.126V5.235c0-0.691,0.27-1.343,0.759-1.833 c0.49-0.489,1.141-0.759,1.833-0.759h0.237V2.643h0.063L13.112,3.53l0.735,0.734L16,2.111L13.848-0.04z" fill="#cb1800"/><g mask="url(#export-path)"><path d="M14.186,9.847c0,0.756-0.626,1.381-1.381,1.384h-5.68l-0.204,0.271c-0.036,0.055-0.853,1.103-2.306,1.798 c0.166-0.458,0.229-0.901,0.225-1.289c0-0.027,0-0.066-0.002-0.119L4.82,11.23H3.195c-0.755-0.003-1.381-0.628-1.381-1.384V4.489 c0-0.759,0.626-1.382,1.381-1.384h9.61c0.755,0.002,1.381,0.625,1.381,1.384V9.847z"/><path d="M12.455,2.215H3.545c-1.404,0-2.543,1.14-2.544,2.545v4.968c0.001,1.402,1.141,2.543,2.544,2.544h0.198 c-0.097,0.406-0.327,0.851-0.833,1.312L1.333,15l2.097-0.321c2.375-0.376,3.844-1.808,4.372-2.407h4.654 c1.405-0.001,2.543-1.142,2.544-2.544V4.76C14.998,3.355,13.86,2.215,12.455,2.215z M13.735,9.728c0,0.7-0.58,1.28-1.28,1.281 H7.189L7,11.262c-0.033,0.05-0.79,1.021-2.137,1.666c0.153-0.425,0.211-0.836,0.208-1.194c0-0.025,0-0.062-0.001-0.11 l-0.018-0.614H3.545c-0.7-0.001-1.28-0.581-1.28-1.281V4.76c0-0.703,0.58-1.28,1.28-1.282h8.909c0.7,0.002,1.28,0.579,1.28,1.282 V9.728z"/></g></svg>