<svg width="16" height="16" xmlns="http://www.w3.org/2000/svg" viewBox="0 0 16 16" shape-rendering="geometricPrecision" fill="#cb1800"><defs><mask id="a"><rect fill="#fff" width="100%" height="100%"/><path d="M13.848-1.1L12.051.695l.286.287A4.455 4.455 0 0 0 9.23 5.236v.987h2.626v-.988c0-.491.191-.954.538-1.302l.03-.03 1.425 1.421 3.212-3.213L13.848-1.1z" fill="#000"/></mask></defs><path d="M13.848-.04l-.736.735.821.821h-.234l-.156.008A3.722 3.722 0 0 0 9.98 5.235v.237h1.126v-.237c0-.691.27-1.343.759-1.833a2.579 2.579 0 0 1 1.833-.759h.3l-.886.887.735.734L16 2.111 13.848-.04z"/><g mask="url(#a)"><path d="M6.799 3.47L6.5 1.979h-4L2.2 3.47H.999v10h14v-10h-8.2zm7.201 9H2v-8h12v8z"/><circle cx="5.864" cy="7.27" r=".858"/><path d="M6.255 8.536h-.784a.828.828 0 0 0-.825.828v1.074h2.436V9.364a.83.83 0 0 0-.827-.828z"/><circle cx="10.136" cy="8.287" r=".858"/><path d="M10.526 9.552h-.783a.827.827 0 0 0-.824.827v1.075h2.436v-1.075a.832.832 0 0 0-.829-.827z"/><circle cx="7.763" cy="6.321" r=".858"/><path d="M8.981 9.489V8.414a.83.83 0 0 0-.827-.827H7.37a.825.825 0 0 0-.821.794c.425.127.737.517.737.983v.125h1.695z"/></g></svg>