<svg width="16" height="16" xmlns="http://www.w3.org/2000/svg" viewBox="0 0 16 16" shape-rendering="geometricPrecision" fill="#cb1800"><defs><mask id="a"><rect fill="#fff" width="100%" height="100%"/><path d="M13.848-1.1L12.051.695l.286.287A4.455 4.455 0 0 0 9.23 5.236v.987h2.626v-.988c0-.491.191-.954.538-1.302l.03-.03 1.425 1.421 3.212-3.213L13.848-1.1z" fill="#000"/></mask></defs><path d="M13.848-.04l-.736.735.821.821h-.234l-.156.008A3.722 3.722 0 0 0 9.98 5.235v.237h1.126v-.237c0-.691.27-1.343.759-1.833a2.579 2.579 0 0 1 1.833-.759h.3l-.886.887.735.734L16 2.111 13.848-.04z"/><path d="M5.687 5.661A2.311 2.311 0 0 1 8 3.349a2.311 2.311 0 0 1 2.312 2.312V6.81h1.414V5.661a3.726 3.726 0 1 0-7.454 0V6.81h1.414V5.661zM3.062 7.792v7.207h9.876V7.792H3.062zm5.808 4.802a.87.87 0 0 1-1.739 0v-2.396a.87.87 0 0 1 1.739 0v2.396z" mask="url(#a)"/></svg>