<svg width="16" height="16" xmlns="http://www.w3.org/2000/svg" viewBox="0 0 16 16" shape-rendering="geometricPrecision" fill="#cb1800"><defs><mask id="a"><rect fill="#fff" width="100%" height="100%"/><path d="M13.848-1.1L12.051.695l.286.287A4.455 4.455 0 0 0 9.23 5.236v.987h2.626v-.988c0-.491.191-.954.538-1.302l.03-.03 1.425 1.421 3.212-3.213L13.848-1.1z" fill="#000"/></mask></defs><path d="M13.848-.04l-.736.735.821.821h-.234l-.156.008A3.722 3.722 0 0 0 9.98 5.235v.237h1.126v-.237c0-.691.27-1.343.759-1.833a2.579 2.579 0 0 1 1.833-.759h.3l-.886.887.735.734L16 2.111 13.848-.04z"/><path mask="url(#a)" d="M16.011 6.354c-.174-.731-1.554-1.11-3.454-1.11 0 0 .104.154.186.325.083.175.137.378.137.378 1.912.035 2.428.479 2.45.569.069.292-.753 1.066-2.471 1.882a4.921 4.921 0 0 0-9.153-2.892 4.925 4.925 0 0 0 .038 5.052c-.113.003-.237.013-.346.013-2.116 0-2.675-.477-2.697-.571-.063-.263.592-.916 1.975-1.638 0 0-.028-.185-.027-.362.001-.21.027-.418.027-.418C.928 8.45-.158 9.419.019 10.162c.174.731 1.478 1.11 3.379 1.11.268 0 .56-.016.85-.031.339.388.742.731 1.21 1.006a4.926 4.926 0 0 0 6.742-1.749 4.92 4.92 0 0 0 .521-1.269c2.158-.951 3.489-2.04 3.29-2.875zM4.565 6.011a3.935 3.935 0 0 1 5.379-1.399 3.935 3.935 0 0 1 1.841 4.251c-.939.372-2.059.736-3.376 1.05a25.032 25.032 0 0 1-3.49.577 3.935 3.935 0 0 1-.354-4.479zm6.776 3.982a3.935 3.935 0 0 1-5.378 1.395 3.982 3.982 0 0 1-.384-.261 26.225 26.225 0 0 0 2.993-.533 26.481 26.481 0 0 0 2.908-.868c-.045.09-.088.179-.139.267z"/></svg>