<?xml version="1.0"?><!DOCTYPE svg PUBLIC "-//W3C//DTD SVG 1.1//EN" "http://www.w3.org/Graphics/SVG/1.1/DTD/svg11.dtd"><svg width="16px" height="16px" xmlns="http://www.w3.org/2000/svg" viewBox="0 0 16 16" shape-rendering="geometricPrecision" fill="#cb1800"><defs><mask id="export-path"><rect fill="#fff" width="100%" height="100%"/><path d="M13.848-1.1l-1.797,1.795l0.286,0.287c-1.812,0.575-3.107,2.263-3.107,4.254v0.987h2.626 V5.235c0-0.491,0.191-0.954,0.538-1.302c0.01-0.01,0.021-0.02,0.03-0.03l1.425,1.421l3.212-3.213L13.848-1.1z" fill="#000"/></mask></defs><path id="export" display="inline" d="M13.848-0.04l-0.736,0.735l0.821,0.821h-0.234 l-0.156,0.008c-1.978,0.084-3.563,1.714-3.563,3.711v0.237h1.126V5.235c0-0.691,0.27-1.343,0.759-1.833 c0.49-0.489,1.141-0.759,1.833-0.759h0.237V2.643h0.063L13.112,3.53l0.735,0.734L16,2.111L13.848-0.04z" fill="#cb1800"/><path mask="url(#export-path)" d="M16.011,6.354c-0.174-0.731-1.554-1.11-3.454-1.11c0,0,0.104,0.154,0.186,0.325 c0.083,0.175,0.137,0.378,0.137,0.378c1.912,0.035,2.428,0.479,2.45,0.569c0.069,0.292-0.753,1.066-2.471,1.882 c0.146-1.824-0.727-3.656-2.41-4.645C8.104,2.375,5.085,3.158,3.706,5.506c-0.949,1.617-0.871,3.553,0.038,5.052 c-0.113,0.003-0.237,0.013-0.346,0.013c-2.116,0-2.675-0.477-2.697-0.571C0.638,9.737,1.293,9.084,2.676,8.362 c0,0-0.028-0.185-0.027-0.362C2.65,7.79,2.676,7.582,2.676,7.582C0.928,8.45-0.158,9.419,0.019,10.162 c0.174,0.731,1.478,1.11,3.379,1.11c0.268,0,0.56-0.016,0.85-0.031c0.339,0.388,0.742,0.731,1.21,1.006 c2.347,1.377,5.365,0.595,6.742-1.749c0.239-0.407,0.409-0.834,0.521-1.269C14.879,8.278,16.21,7.189,16.011,6.354z M4.565,6.011 c1.104-1.87,3.507-2.495,5.379-1.399c1.509,0.89,2.205,2.628,1.841,4.251c-0.939,0.372-2.059,0.736-3.376,1.05 c-1.201,0.286-2.392,0.477-3.49,0.577C3.907,9.252,3.711,7.471,4.565,6.011z M11.341,9.993c-1.102,1.867-3.505,2.491-5.378,1.395 c-0.135-0.08-0.262-0.168-0.384-0.261c0.941-0.111,1.947-0.284,2.993-0.533c1.042-0.248,2.02-0.545,2.908-0.868 C11.435,9.816,11.392,9.905,11.341,9.993z"/></svg>