<svg width="16" height="16" xmlns="http://www.w3.org/2000/svg" viewBox="0 0 16 16" shape-rendering="geometricPrecision" fill="#cb1800"><defs><mask id="a"><rect fill="#fff" width="100%" height="100%"/><path d="M13.848-1.1L12.051.695l.286.287A4.455 4.455 0 0 0 9.23 5.236v.987h2.626v-.988c0-.491.191-.954.538-1.302l.03-.03 1.425 1.421 3.212-3.213L13.848-1.1z" fill="#000"/></mask></defs><path d="M13.848-.04l-.736.735.821.821h-.234l-.156.008A3.722 3.722 0 0 0 9.98 5.235v.237h1.126v-.237c0-.691.27-1.343.759-1.833a2.579 2.579 0 0 1 1.833-.759h.3l-.886.887.735.734L16 2.111 13.848-.04z"/><g mask="url(#a)"><path d="M7.999.97a7.03 7.03 0 0 0 0 14.06 7.03 7.03 0 1 0 0-14.06zm-.082 11.554h-.011c-.663 0-1.121-.496-1.121-1.16 0-.686.471-1.156 1.132-1.156.688 0 1.136.471 1.147 1.156.001.664-.458 1.16-1.147 1.16zm1.543-4.75c-.472.52-.663 1.02-.65 1.594v.229H7.116l-.012-.332c-.038-.65.177-1.312.75-1.988.409-.497.742-.905.742-1.339 0-.445-.293-.738-.93-.764-.423 0-.932.152-1.262.381L5.97 4.169c.472-.268 1.223-.523 2.127-.523 1.681 0 2.446.93 2.446 1.986 0 .969-.597 1.605-1.083 2.142z"/></g></svg>