<svg width="16" height="16" xmlns="http://www.w3.org/2000/svg" viewBox="0 0 16 16" shape-rendering="geometricPrecision" fill="#cb1800"><defs><mask id="a"><rect fill="#fff" width="100%" height="100%"/><path d="M13.848-1.1L12.051.695l.286.287A4.455 4.455 0 0 0 9.23 5.236v.987h2.626v-.988c0-.491.191-.954.538-1.302l.03-.03 1.425 1.421 3.212-3.213L13.848-1.1z" fill="#000"/></mask></defs><path d="M13.848-.04l-.736.735.821.821h-.234l-.156.008A3.722 3.722 0 0 0 9.98 5.235v.237h1.126v-.237c0-.691.27-1.343.759-1.833a2.579 2.579 0 0 1 1.833-.759h.3l-.886.887.735.734L16 2.111 13.848-.04z"/><g mask="url(#a)"><path d="M7.468 11.335c-1.04 0-1.782.742-1.782 1.824 0 1.041.722 1.822 1.763 1.822h.02c1.083 0 1.805-.781 1.805-1.822-.021-1.082-.723-1.824-1.806-1.824zm.281-10.317c-1.422 0-2.604.4-3.345.822l.681 2.182c.52-.359 1.322-.6 1.983-.6 1.002.041 1.463.5 1.463 1.203 0 .68-.521 1.32-1.162 2.102-.901 1.063-1.242 2.106-1.181 3.126l.02.521h2.664v-.361c-.02-.9.281-1.682 1.021-2.504.762-.84 1.702-1.842 1.702-3.365 0-1.663-1.2-3.126-3.846-3.126z"/></g></svg>