<?xml version="1.0"?><!DOCTYPE svg PUBLIC "-//W3C//DTD SVG 1.1//EN" "http://www.w3.org/Graphics/SVG/1.1/DTD/svg11.dtd"><svg width="16px" height="16px" xmlns="http://www.w3.org/2000/svg" viewBox="0 0 16 16" shape-rendering="geometricPrecision" fill="#cb1800"><defs><mask id="export-path"><rect fill="#fff" width="100%" height="100%"/><path d="M13.848-1.1l-1.797,1.795l0.286,0.287c-1.812,0.575-3.107,2.263-3.107,4.254v0.987h2.626 V5.235c0-0.491,0.191-0.954,0.538-1.302c0.01-0.01,0.021-0.02,0.03-0.03l1.425,1.421l3.212-3.213L13.848-1.1z" fill="#000"/></mask></defs><path id="export" display="inline" d="M13.848-0.04l-0.736,0.735l0.821,0.821h-0.234 l-0.156,0.008c-1.978,0.084-3.563,1.714-3.563,3.711v0.237h1.126V5.235c0-0.691,0.27-1.343,0.759-1.833 c0.49-0.489,1.141-0.759,1.833-0.759h0.237V2.643h0.063L13.112,3.53l0.735,0.734L16,2.111L13.848-0.04z" fill="#cb1800"/><g mask="url(#export-path)"><g><g><rect x="-0.001" y="8.59" width="7.406" height="7.41"/><g><g><path d="M8.555,8.59V16H16V8.59H8.555z M14.852,13.796l-1.063,1.061l-1.51-1.504l-1.511,1.504l-1.064-1.06l1.511-1.503 l-1.51-1.504l1.063-1.059l1.511,1.505l1.51-1.505l1.063,1.061l-1.511,1.502L14.852,13.796z"/></g></g></g><g><g><path d="M4.276,0.073v7.41h7.368v-7.41H4.276z M7.352,6.122L4.96,3.717l1.051-1.059L7.35,4.004l2.559-2.572l1.054,1.06 L7.352,6.122z"/></g></g></g></g></svg>