<?xml version="1.0"?><!DOCTYPE svg PUBLIC "-//W3C//DTD SVG 1.1//EN" "http://www.w3.org/Graphics/SVG/1.1/DTD/svg11.dtd"><svg width="16px" height="16px" xmlns="http://www.w3.org/2000/svg" viewBox="0 0 16 16" shape-rendering="geometricPrecision" fill="#cb1800"><defs><mask id="export-path"><rect fill="#fff" width="100%" height="100%"/><path d="M13.848-1.1l-1.797,1.795l0.286,0.287c-1.812,0.575-3.107,2.263-3.107,4.254v0.987h2.626 V5.235c0-0.491,0.191-0.954,0.538-1.302c0.01-0.01,0.021-0.02,0.03-0.03l1.425,1.421l3.212-3.213L13.848-1.1z" fill="#000"/></mask></defs><path id="export" display="inline" d="M13.848-0.04l-0.736,0.735l0.821,0.821h-0.234 l-0.156,0.008c-1.978,0.084-3.563,1.714-3.563,3.711v0.237h1.126V5.235c0-0.691,0.27-1.343,0.759-1.833 c0.49-0.489,1.141-0.759,1.833-0.759h0.237V2.643h0.063L13.112,3.53l0.735,0.734L16,2.111L13.848-0.04z" fill="#cb1800"/><g mask="url(#export-path)"><path d="M15.432,12.94l-3.595-3.593l-0.356-0.356c1.227-2.3,0.901-5.215-1.039-7.157 C8.064-0.54,4.211-0.54,1.833,1.837c-2.376,2.378-2.374,6.229,0.002,8.605c1.939,1.939,4.855,2.267,7.158,1.037l3.952,3.952 c0.686,0.687,1.801,0.687,2.486,0C16.121,14.744,16.121,13.631,15.432,12.94z M3.104,9.17C1.432,7.497,1.428,4.78,3.105,3.108 c1.674-1.68,4.388-1.677,6.064-0.005c1.676,1.677,1.674,4.391,0,6.066C7.493,10.845,4.778,10.845,3.104,9.17z"/></g></svg>