<?xml version="1.0"?><!DOCTYPE svg PUBLIC "-//W3C//DTD SVG 1.1//EN" "http://www.w3.org/Graphics/SVG/1.1/DTD/svg11.dtd"><svg width="16px" height="16px" xmlns="http://www.w3.org/2000/svg" viewBox="0 0 16 16" shape-rendering="geometricPrecision" fill="#cb1800"><defs><mask id="export-path"><rect fill="#fff" width="100%" height="100%"/><path d="M13.848-1.1l-1.797,1.795l0.286,0.287c-1.812,0.575-3.107,2.263-3.107,4.254v0.987h2.626 V5.235c0-0.491,0.191-0.954,0.538-1.302c0.01-0.01,0.021-0.02,0.03-0.03l1.425,1.421l3.212-3.213L13.848-1.1z" fill="#000"/></mask></defs><path id="export" display="inline" d="M13.848-0.04l-0.736,0.735l0.821,0.821h-0.234 l-0.156,0.008c-1.978,0.084-3.563,1.714-3.563,3.711v0.237h1.126V5.235c0-0.691,0.27-1.343,0.759-1.833 c0.49-0.489,1.141-0.759,1.833-0.759h0.237V2.643h0.063L13.112,3.53l0.735,0.734L16,2.111L13.848-0.04z" fill="#cb1800"/><g mask="url(#export-path)"><g><path d="M14.939,10.55c-0.201-0.565-0.822-0.86-1.387-0.659l-2.979,1.022L6.579,9.291l2.546-0.34 c0.584-0.074,0.998-0.606,0.924-1.19c-0.074-0.584-0.606-0.998-1.19-0.925L3.063,7.567C2.9,7.588,2.753,7.648,2.623,7.731 c-0.16,0.064-0.296,0.192-0.361,0.366L2.209,8.238c-0.014,0.035-0.03,0.069-0.04,0.106l-1.131,3.018 c-0.071,0.19-0.044,0.391,0.054,0.552c0.264,0.58,1.506,1.4,2.652,1.829l2.754,0.513c0.192,0.031,0.363,0.04,0.538,0.03 c0.171,0.026,0.349,0.016,0.524-0.046l0.448-0.154c0.116-0.035,0.239-0.073,0.376-0.116c1.504-0.48,3.181-1.067,3.81-1.314 c0.008-0.003,0.012-0.008,0.019-0.011l2.067-0.709C14.845,11.736,15.14,11.115,14.939,10.55z"/><path d="M8.568,1.699c-2.545,0-4.608,2.063-4.608,4.608c0,0.181,0.013,0.358,0.033,0.534l0.925-0.117 C4.899,6.573,4.886,6.42,4.886,6.263c0-2.034,1.649-3.684,3.684-3.684c2.034,0,3.684,1.649,3.684,3.684 c0,1.594-1.015,2.948-2.432,3.461l0.83,0.522l0.62-0.213c1.152-0.838,1.905-2.192,1.905-3.726 C13.176,3.762,11.113,1.699,8.568,1.699z"/></g></g></svg>