<svg width="16" height="16" xmlns="http://www.w3.org/2000/svg" viewBox="0 0 16 16" shape-rendering="geometricPrecision" fill="#fff"><defs><mask id="a"><rect width="100%" height="100%"/><path fill="#000" d="M12.892-.396l-4.507 4.51 2.471 2.471 2.038-2.036 2.037 2.035 2.473-2.47z"/></mask></defs><path fill="#cb1800" d="M12.894 3.136l2.037 2.035 1.058-1.057-3.097-3.096-3.093 3.096 1.057 1.057z"/><path d="M7.999.973a6.997 6.997 0 1 0 .002 13.994A6.997 6.997 0 0 0 8 .973zm0 12.579a5.589 5.589 0 0 1-5.581-5.579 5.59 5.59 0 0 1 5.581-5.585 5.591 5.591 0 0 1 5.582 5.585 5.59 5.59 0 0 1-5.582 5.579zm.006-3.426c-.683 0-1.16.49-1.16 1.175 0 .671.464 1.172 1.147 1.172h.013c.698 0 1.148-.501 1.148-1.172-.01-.685-.462-1.175-1.148-1.175zm.736-.646l.286-5.845H6.974L7.27 9.48h1.471z" mask="url(#a)"/></svg>