<svg width="16" height="16" xmlns="http://www.w3.org/2000/svg" viewBox="0 0 16 16" shape-rendering="geometricPrecision" fill="#fff"><defs><mask id="a"><rect width="100%" height="100%"/><path fill="#000" d="M12.892-.396l-4.507 4.51 2.471 2.471 2.038-2.036 2.037 2.035 2.473-2.47z"/></mask></defs><path fill="#cb1800" d="M12.894 3.136l2.037 2.035 1.058-1.057-3.097-3.096-3.093 3.096 1.057 1.057z"/><path d="M11.985 3.584H2.119A2.125 2.125 0 0 0 0 5.703v5.503c0 1.166.953 2.119 2.119 2.119h.988c.023.76-.201 1.758-1.224 2.674 2.905-.451 4.517-2.537 4.621-2.674h5.481a2.125 2.125 0 0 0 2.119-2.119V5.703a2.125 2.125 0 0 0-2.119-2.119zm-.404 6.188h-8.93V8.528h8.93v1.244zm0-2.578h-8.93V5.948h8.93v1.246zm2.305-5.506H4.019c-.829 0-1.542.487-1.891 1.183.287-.145.604-.232.946-.232h9.867c1.165 0 2.119.952 2.119 2.117v5.505c0 .335-.087.649-.226.933a2.115 2.115 0 0 0 1.171-1.883V3.807a2.125 2.125 0 0 0-2.119-2.119z" mask="url(#a)"/></svg>