<svg width="16" height="16" xmlns="http://www.w3.org/2000/svg" viewBox="0 0 16 16" shape-rendering="geometricPrecision" fill="#fff"><defs><mask id="a"><rect width="100%" height="100%"/><path fill="#000" d="M12.892-.396l-4.507 4.51 2.471 2.471 2.038-2.036 2.037 2.035 2.473-2.47z"/></mask></defs><path fill="#cb1800" d="M12.894 3.136l2.037 2.035 1.058-1.057-3.097-3.096-3.093 3.096 1.057 1.057z"/><g mask="url(#a)"><path d="M6.655 8.121c0 .521-.208.992-.54 1.345h3.925a1.956 1.956 0 0 1-.54-1.345c0-.668.337-1.259.849-1.613a1.524 1.524 0 0 0-1.173-.561H6.974c-.472 0-.889.221-1.169.56.513.354.85.944.85 1.614z"/><circle cx="8.078" cy="3.606" r="1.587"/><circle cx="4.691" cy="8.121" r="1.588"/><path d="M5.79 10.462H3.587a1.53 1.53 0 0 0-1.525 1.53v1.988H7.32v-1.988c0-.841-.689-1.53-1.53-1.53z"/><circle cx="11.464" cy="8.121" r="1.588"/><path d="M12.562 10.462H10.36a1.53 1.53 0 0 0-1.525 1.53v1.988h5.258v-1.988c0-.841-.689-1.53-1.531-1.53z"/></g></svg>