<svg width="16" height="16" xmlns="http://www.w3.org/2000/svg" viewBox="0 0 16 16" shape-rendering="geometricPrecision" fill="#fff"><defs><mask id="a"><rect width="100%" height="100%"/><path fill="#000" d="M12.892-.396l-4.507 4.51 2.471 2.471 2.038-2.036 2.037 2.035 2.473-2.47z"/></mask></defs><path fill="#cb1800" d="M12.894 3.136l2.037 2.035 1.058-1.057-3.097-3.096-3.093 3.096 1.057 1.057z"/><g mask="url(#a)"><path d="M10.479 0a5.521 5.521 0 0 0-5.521 5.521c0 .739.152 1.44.416 2.084L0 12.979V16h3.021v-2.042h1.958V12h2.042V9.821a5.496 5.496 0 0 0 3.458 1.221 5.521 5.521 0 0 0 0-11.042zm1.294 6.812a2.586 2.586 0 1 1 0-5.173 2.586 2.586 0 0 1 0 5.173z"/></g></svg>