<svg width="16" height="16" xmlns="http://www.w3.org/2000/svg" viewBox="0 0 16 16" shape-rendering="geometricPrecision" fill="#fff"><defs><mask id="a"><rect width="100%" height="100%"/><path d="M17.514 2.671l-.862-.552L16.65-1h-2.866v.558A4.044 4.044 0 0 0 10.061.625c-1.569 1.569-1.554 4.141.035 5.732a4.084 4.084 0 0 0 2.901 1.205 3.98 3.98 0 0 0 2.831-1.168A3.973 3.973 0 0 0 17 3.557v-.886h.514zm-3.373.887c0 .22-.058.539-.333.813-.443.443-1.23.426-1.69-.035-.475-.475-.49-1.234-.036-1.689.011-.011.021-.022.033-.031v.922h2.026v.02z" fill="#000"/></mask></defs><path d="M13.114 2.537h2.538L15.651 0h-.867v1.105c-1.204-.927-2.924-.863-4.016.227-1.187 1.188-1.162 3.119.035 4.317 1.201 1.198 3.131 1.224 4.319.037A2.996 2.996 0 0 0 16 3.558l-.859.001a2.137 2.137 0 0 1-.627 1.521c-.843.842-2.231.836-3.104-.036-.871-.872-.877-2.26-.035-3.105.729-.727 1.86-.818 2.721-.268h-.983l.001.866z" fill="#cb1800"/><path d="M12.421 2.295H3.568a2.532 2.532 0 0 0-2.529 2.528V9.76a2.534 2.534 0 0 0 2.529 2.529h.196c-.097.402-.325.845-.828 1.304L1.368 15l2.084-.319c2.36-.374 3.82-1.796 4.344-2.392h4.625A2.533 2.533 0 0 0 14.95 9.76V4.823a2.53 2.53 0 0 0-2.529-2.528zm1.272 7.465c0 .696-.577 1.272-1.272 1.274H7.188l-.188.25c-.033.05-.784 1.016-2.124 1.657.153-.422.211-.832.207-1.188l-.001-.108-.018-.61H3.568a1.284 1.284 0 0 1-1.272-1.274V4.823c0-.698.577-1.272 1.272-1.273h8.853a1.281 1.281 0 0 1 1.272 1.273V9.76zM4.849 6.242a1.156 1.156 0 1 0 .001 2.311 1.156 1.156 0 0 0-.001-2.311zm3.146 0c-.638 0-1.157.518-1.157 1.156a1.157 1.157 0 0 0 2.312 0c0-.638-.518-1.156-1.155-1.156zm3.145 0c-.637 0-1.156.518-1.156 1.156a1.155 1.155 0 1 0 1.156-1.156z" mask="url(#a)"/></svg>