<svg width="16" height="16" xmlns="http://www.w3.org/2000/svg" viewBox="0 0 16 16" shape-rendering="geometricPrecision" fill="#fff"><defs><mask id="a"><rect width="100%" height="100%"/><path d="M17.514 2.671l-.862-.552L16.65-1h-2.866v.558A4.044 4.044 0 0 0 10.061.625c-1.569 1.569-1.554 4.141.035 5.732a4.084 4.084 0 0 0 2.901 1.205 3.98 3.98 0 0 0 2.831-1.168A3.973 3.973 0 0 0 17 3.557v-.886h.514zm-3.373.887c0 .22-.058.539-.333.813-.443.443-1.23.426-1.69-.035-.475-.475-.49-1.234-.036-1.689.011-.011.021-.022.033-.031v.922h2.026v.02z" fill="#000"/></mask></defs><path d="M13.114 2.537h2.538L15.651 0h-.867v1.105c-1.204-.927-2.924-.863-4.016.227-1.187 1.188-1.162 3.119.035 4.317 1.201 1.198 3.131 1.224 4.319.037A2.996 2.996 0 0 0 16 3.558l-.859.001a2.137 2.137 0 0 1-.627 1.521c-.843.842-2.231.836-3.104-.036-.871-.872-.877-2.26-.035-3.105.729-.727 1.86-.818 2.721-.268h-.983l.001.866z" fill="#cb1800"/><path d="M9.284 2.017c-.438 0-.546.125-.735.747L5.67 12.038c-.168.554-.277.904-.277 1.108 0 .544.408.781.725.781.437 0 .546-.125.734-.747L9.73 3.907c.169-.555.277-.906.277-1.108.001-.545-.405-.782-.723-.782zM4.523 3.425a.66.66 0 0 0-.362-.826c-.333-.139-.446-.079-.742.335L.584 6.853a7.29 7.29 0 0 0-.397.599.674.674 0 0 0-.063.119c-.005.011-.019.03-.022.039-.005.018-.001.032-.006.049a.595.595 0 0 0-.019.166c0 .061.005.115.02.168.004.017 0 .03.005.047.003.01.017.027.021.038a.617.617 0 0 0 .065.122c.082.147.203.327.396.598l2.834 3.919c.296.413.41.475.742.337a.663.663 0 0 0 .362-.828c-.05-.152-.219-.387-.482-.756L1.405 7.825l2.636-3.643c.263-.369.432-.603.482-.757zm11.465 4.4a.656.656 0 0 0-.02-.168c-.004-.017 0-.03-.005-.047-.003-.01-.017-.027-.021-.038a.72.72 0 0 0-.064-.12 6.876 6.876 0 0 0-.397-.599l-2.835-3.919c-.296-.414-.411-.475-.742-.336a.66.66 0 0 0-.362.826c.05.154.219.389.481.758l2.637 3.643-2.637 3.645c-.263.368-.432.604-.481.756a.661.661 0 0 0 .362.828c.333.138.446.076.742-.337l2.835-3.919c.192-.27.313-.449.395-.597a.588.588 0 0 0 .066-.124c.004-.011.017-.027.02-.037.005-.017.001-.029.005-.045a.587.587 0 0 0 .021-.17z" mask="url(#a)"/></svg>