<svg width="16" height="16" xmlns="http://www.w3.org/2000/svg" viewBox="0 0 16 16" shape-rendering="geometricPrecision" fill="#fff"><defs><mask id="a"><rect width="100%" height="100%"/><path d="M17.514 2.671l-.862-.552L16.65-1h-2.866v.558A4.044 4.044 0 0 0 10.061.625c-1.569 1.569-1.554 4.141.035 5.732a4.084 4.084 0 0 0 2.901 1.205 3.98 3.98 0 0 0 2.831-1.168A3.973 3.973 0 0 0 17 3.557v-.886h.514zm-3.373.887c0 .22-.058.539-.333.813-.443.443-1.23.426-1.69-.035-.475-.475-.49-1.234-.036-1.689.011-.011.021-.022.033-.031v.922h2.026v.02z" fill="#000"/></mask></defs><path d="M13.114 2.537h2.538L15.651 0h-.867v1.105c-1.204-.927-2.924-.863-4.016.227-1.187 1.188-1.162 3.119.035 4.317 1.201 1.198 3.131 1.224 4.319.037A2.996 2.996 0 0 0 16 3.558l-.859.001a2.137 2.137 0 0 1-.627 1.521c-.843.842-2.231.836-3.104-.036-.871-.872-.877-2.26-.035-3.105.729-.727 1.86-.818 2.721-.268h-.983l.001.866z" fill="#cb1800"/><g mask="url(#a)"><path d="M10.055 14.302l2.54-2.338h-2.54z"/><path d="M2.595 1.016v13.969h6.008v-4.468h4.802V1.016H2.595zm9.439 8.027h-4.79v4.601H3.917V2.318h8.116v6.725z"/><path fill-rule="evenodd" clip-rule="evenodd" d="M9.795 6.744c.643.512 1.164.299 1.088.201-.23-.298-.683-.298-1.088-.201zm.834-.288c-.644-.218-1.501-.001-1.468.026-.432-.213-1.015-.523-1.335-1.541-.537-1.705 0-2.255.035-1.189l.108.724s.371-.903.131-1.562c-.208-.574-.81-.488-.846.573-.02.585.121 1.464.186 1.601 0 0-.558 1.641-1.384 2.931-.801 1.252-.85.83-.656.413.231-.496.624-.757.755-.964 0 0-.609.048-1.083.86-.299.514-.335 1.79.941.406.253-.275.613-.852.777-1.195 0 0 .742-.324 2.514-.668 0 0 .478.349 1.098.492.77.177 1.562-.454.227-.907zm-3.625.541l.645-1.482c.427.909 1.033 1.094 1.033 1.094-.263.034-1.678.388-1.678.388z"/></g></svg>