<svg width="16" height="16" xmlns="http://www.w3.org/2000/svg" viewBox="0 0 16 16" shape-rendering="geometricPrecision" fill="#fff"><defs><mask id="a"><rect width="100%" height="100%"/><path d="M17.514 2.671l-.862-.552L16.65-1h-2.866v.558A4.044 4.044 0 0 0 10.061.625c-1.569 1.569-1.554 4.141.035 5.732a4.084 4.084 0 0 0 2.901 1.205 3.98 3.98 0 0 0 2.831-1.168A3.973 3.973 0 0 0 17 3.557v-.886h.514zm-3.373.887c0 .22-.058.539-.333.813-.443.443-1.23.426-1.69-.035-.475-.475-.49-1.234-.036-1.689.011-.011.021-.022.033-.031v.922h2.026v.02z" fill="#000"/></mask></defs><path d="M13.114 2.537h2.538L15.651 0h-.867v1.105c-1.204-.927-2.924-.863-4.016.227-1.187 1.188-1.162 3.119.035 4.317 1.201 1.198 3.131 1.224 4.319.037A2.996 2.996 0 0 0 16 3.558l-.859.001a2.137 2.137 0 0 1-.627 1.521c-.843.842-2.231.836-3.104-.036-.871-.872-.877-2.26-.035-3.105.729-.727 1.86-.818 2.721-.268h-.983l.001.866z" fill="#cb1800"/><g mask="url(#a)"><path d="M8.78 5.833v-.375H7.164v.375H5.585v5.626h4.811V5.833H8.78zm.977 5.029H6.224V6.431h.94v.141H8.78v-.141h.977v4.431z"/><path d="M6.788 8.06h2.405v.758H6.788zm0 1.126h2.405v.787H6.788z"/><path d="M6.799 3.47L6.5 1.979h-4L2.2 3.47H.999v10h14v-10h-8.2zm7.201 9H2v-8h12v8z"/></g></svg>