<svg width="16" height="16" xmlns="http://www.w3.org/2000/svg" viewBox="0 0 16 16" shape-rendering="geometricPrecision" fill="#fff"><defs><mask id="a"><rect width="100%" height="100%"/><path d="M17.514 2.671l-.862-.552L16.65-1h-2.866v.558A4.044 4.044 0 0 0 10.061.625c-1.569 1.569-1.554 4.141.035 5.732a4.084 4.084 0 0 0 2.901 1.205 3.98 3.98 0 0 0 2.831-1.168A3.973 3.973 0 0 0 17 3.557v-.886h.514zm-3.373.887c0 .22-.058.539-.333.813-.443.443-1.23.426-1.69-.035-.475-.475-.49-1.234-.036-1.689.011-.011.021-.022.033-.031v.922h2.026v.02z" fill="#000"/></mask></defs><path d="M13.114 2.537h2.538L15.651 0h-.867v1.105c-1.204-.927-2.924-.863-4.016.227-1.187 1.188-1.162 3.119.035 4.317 1.201 1.198 3.131 1.224 4.319.037A2.996 2.996 0 0 0 16 3.558l-.859.001a2.137 2.137 0 0 1-.627 1.521c-.843.842-2.231.836-3.104-.036-.871-.872-.877-2.26-.035-3.105.729-.727 1.86-.818 2.721-.268h-.983l.001.866z" fill="#cb1800"/><g mask="url(#a)"><path d="M11.636 3.477h-9.03C1.183 3.477.028 4.594.027 5.971v4.865c.001 1.373 1.156 2.49 2.579 2.492h.199c-.098.396-.33.832-.844 1.285L.363 16l2.125-.314a7.647 7.647 0 0 0 4.432-2.357h4.717c1.425-.002 2.578-1.119 2.579-2.492V5.971c-.002-1.377-1.155-2.494-2.58-2.494zm1.298 7.359c0 .686-.588 1.254-1.298 1.256H6.299l-.191.246c-.034.049-.801 1.002-2.167 1.633.155-.416.215-.818.211-1.17 0-.025 0-.062-.002-.109l-.018-.6H2.606c-.71-.002-1.298-.57-1.298-1.256V5.971c0-.689.588-1.256 1.298-1.258h9.03c.71.002 1.298.568 1.298 1.258v4.865z"/><path d="M13.854 1.607H3.987c-.828 0-1.542.488-1.891 1.184.287-.144.604-.232.946-.232h9.866c1.166 0 2.119.951 2.119 2.117v5.504c0 .336-.087.65-.226.934a2.117 2.117 0 0 0 1.172-1.883V3.727c0-1.165-.954-2.12-2.119-2.12z"/><path d="M2.601 8.631h8.93v1.244h-8.93zm0-2.58h8.93v1.246h-8.93z"/></g></svg>