<svg width="16" height="16" xmlns="http://www.w3.org/2000/svg" viewBox="0 0 16 16" shape-rendering="geometricPrecision" fill="#fff"><defs><mask id="a"><rect width="100%" height="100%"/><path d="M17.514 2.671l-.862-.552L16.65-1h-2.866v.558A4.044 4.044 0 0 0 10.061.625c-1.569 1.569-1.554 4.141.035 5.732a4.084 4.084 0 0 0 2.901 1.205 3.98 3.98 0 0 0 2.831-1.168A3.973 3.973 0 0 0 17 3.557v-.886h.514zm-3.373.887c0 .22-.058.539-.333.813-.443.443-1.23.426-1.69-.035-.475-.475-.49-1.234-.036-1.689.011-.011.021-.022.033-.031v.922h2.026v.02z" fill="#000"/></mask></defs><path d="M13.114 2.537h2.538L15.651 0h-.867v1.105c-1.204-.927-2.924-.863-4.016.227-1.187 1.188-1.162 3.119.035 4.317 1.201 1.198 3.131 1.224 4.319.037A2.996 2.996 0 0 0 16 3.558l-.859.001a2.137 2.137 0 0 1-.627 1.521c-.843.842-2.231.836-3.104-.036-.871-.872-.877-2.26-.035-3.105.729-.727 1.86-.818 2.721-.268h-.983l.001.866z" fill="#cb1800"/><g mask="url(#a)"><path d="M9.325 5.321c-.372-.324-.84-.576-1.26-.576-.432 0-.647.168-.647.468 0 .852 3.25.923 3.25 3.094 0 .696-.359 1.211-.983 1.595.168.252.276.552.276.923 0 1.08-.804 1.895-2.303 1.895-.876 0-1.787-.324-2.327-1.007l1.02-.899c.384.396.84.611 1.308.611.491 0 .719-.216.719-.516 0-.936-3.154-.852-3.154-3.106 0-.6.372-1.175.96-1.535-.217-.251-.349-.575-.349-.995 0-1.08.791-1.835 2.135-1.835.923 0 1.667.396 2.158.779l-.803 1.104zm-.551 3.838c.275-.168.407-.384.407-.708 0-.755-1.115-.996-2.051-1.475-.275.18-.42.408-.42.695 0 .756 1.14.996 2.064 1.488z"/><path d="M8 1.001a7 7 0 1 0 .003 14 7 7 0 0 0-.003-14zm0 12.584a5.59 5.59 0 0 1-5.583-5.581A5.593 5.593 0 0 1 8 2.417a5.594 5.594 0 0 1 5.585 5.587A5.593 5.593 0 0 1 8 13.585z"/></g></svg>