<svg width="16" height="16" xmlns="http://www.w3.org/2000/svg" viewBox="0 0 16 16" shape-rendering="geometricPrecision" fill="#fff"><defs><mask id="a"><rect width="100%" height="100%"/><path d="M17.514 2.671l-.862-.552L16.65-1h-2.866v.558A4.044 4.044 0 0 0 10.061.625c-1.569 1.569-1.554 4.141.035 5.732a4.084 4.084 0 0 0 2.901 1.205 3.98 3.98 0 0 0 2.831-1.168A3.973 3.973 0 0 0 17 3.557v-.886h.514zm-3.373.887c0 .22-.058.539-.333.813-.443.443-1.23.426-1.69-.035-.475-.475-.49-1.234-.036-1.689.011-.011.021-.022.033-.031v.922h2.026v.02z" fill="#000"/></mask></defs><path d="M13.114 2.537h2.538L15.651 0h-.867v1.105c-1.204-.927-2.924-.863-4.016.227-1.187 1.188-1.162 3.119.035 4.317 1.201 1.198 3.131 1.224 4.319.037A2.996 2.996 0 0 0 16 3.558l-.859.001a2.137 2.137 0 0 1-.627 1.521c-.843.842-2.231.836-3.104-.036-.871-.872-.877-2.26-.035-3.105.729-.727 1.86-.818 2.721-.268h-.983l.001.866z" fill="#cb1800"/><g mask="url(#a)"><path d="M14.939 10.55a1.086 1.086 0 0 0-1.387-.659l-2.979 1.022-3.994-1.622 2.546-.34a1.065 1.065 0 1 0-.266-2.115l-5.796.731c-.163.021-.31.081-.44.164a.635.635 0 0 0-.361.366l-.053.141c-.014.035-.03.069-.04.106l-1.131 3.018a.631.631 0 0 0 .054.552c.264.58 1.506 1.4 2.652 1.829l2.754.513c.192.031.363.04.538.03.171.026.349.016.524-.046l.448-.154.376-.116c1.504-.48 3.181-1.067 3.81-1.314.008-.003.012-.008.019-.011l2.067-.709c.565-.2.86-.821.659-1.386z"/><path d="M8.568 1.699a4.608 4.608 0 0 0-4.575 5.142l.925-.117a3.678 3.678 0 0 1-.032-.461 3.684 3.684 0 0 1 7.368 0 3.683 3.683 0 0 1-2.432 3.461l.83.522.62-.213a4.599 4.599 0 0 0 1.905-3.726 4.61 4.61 0 0 0-4.609-4.608z"/></g></svg>