<svg width="16" height="16" xmlns="http://www.w3.org/2000/svg" viewBox="0 0 16 16" shape-rendering="geometricPrecision" fill="#fff"><defs><mask id="a"><rect width="100%" height="100%"/><path d="M17.514 2.671l-.862-.552L16.65-1h-2.866v.558A4.044 4.044 0 0 0 10.061.625c-1.569 1.569-1.554 4.141.035 5.732a4.084 4.084 0 0 0 2.901 1.205 3.98 3.98 0 0 0 2.831-1.168A3.973 3.973 0 0 0 17 3.557v-.886h.514zm-3.373.887c0 .22-.058.539-.333.813-.443.443-1.23.426-1.69-.035-.475-.475-.49-1.234-.036-1.689.011-.011.021-.022.033-.031v.922h2.026v.02z" fill="#000"/></mask></defs><path d="M13.114 2.537h2.538L15.651 0h-.867v1.105c-1.204-.927-2.924-.863-4.016.227-1.187 1.188-1.162 3.119.035 4.317 1.201 1.198 3.131 1.224 4.319.037A2.996 2.996 0 0 0 16 3.558l-.859.001a2.137 2.137 0 0 1-.627 1.521c-.843.842-2.231.836-3.104-.036-.871-.872-.877-2.26-.035-3.105.729-.727 1.86-.818 2.721-.268h-.983l.001.866z" fill="#cb1800"/><path mask="url(#a)" d="M8.001 1.042a6.959 6.959 0 1 0 0 13.917A6.959 6.959 0 0 0 8 1.042zm3.605 6.876c0 .354-.065.69-.159 1.014h2.018a5.548 5.548 0 0 1-.842 2.134l-1.449-1.449a3.662 3.662 0 0 1-1.458 1.502l1.44 1.44a5.538 5.538 0 0 1-2.147.895v-2.032a3.658 3.658 0 0 1-1.087.182c-.352 0-.684-.064-1.006-.156v1.996a5.54 5.54 0 0 1-2.116-.915l1.38-1.38A3.674 3.674 0 0 1 4.699 9.67L3.35 11.019a5.5 5.5 0 0 1-.815-2.088h1.863a3.606 3.606 0 0 1-.159-1.013c0-.378.074-.736.179-1.079H2.576a5.52 5.52 0 0 1 .866-1.995l1.281 1.28a3.676 3.676 0 0 1 1.501-1.457l-1.29-1.29a5.53 5.53 0 0 1 1.982-.818v1.832a3.634 3.634 0 0 1 1.006-.156c.381 0 .741.075 1.087.182v-1.87c.73.135 1.41.412 2.01.803L9.673 4.695a3.684 3.684 0 0 1 1.478 1.481L12.527 4.8c.426.602.737 1.291.897 2.038h-1.997c.106.344.179.702.179 1.08z"/></svg>