<svg width="16" height="16" xmlns="http://www.w3.org/2000/svg" viewBox="0 0 16 16" shape-rendering="geometricPrecision" fill="#ffad00"><defs><mask id="a"><rect fill="#fff" width="100%" height="100%"/><path fill="#000" d="M8.986 1.143H17v3.565H8.986z"/></mask></defs><path d="M9.986 2.143H16v1.565H9.986z" fill="#cb1800"/><g mask="url(#a)"><path d="M8.182 3.179l-.815-1.923h-3.78L2.77 3.179H1.649l.001.949 13.327-.009.018 9.283.933-.978V3.179z"/><path d="M.072 4.756V14h14.279V4.756H.072zm13.178 8.173H1.041v-7H13.25v7z"/><g><path d="M6.078 8.202a.932.932 0 1 1 1.863 0v.463h.57v-.463a1.502 1.502 0 1 0-3.003 0v.463h.57v-.463zm-1.057.859v2.904H9V9.061H5.021zm2.34 1.935a.35.35 0 0 1-.7 0v-.966a.35.35 0 0 1 .701 0v.966z"/></g></g></svg>