<svg width="16" height="16" xmlns="http://www.w3.org/2000/svg" viewBox="0 0 16 16" shape-rendering="geometricPrecision" fill="#6e6e6e"><defs><mask id="a"><rect fill="#fff" width="100%" height="100%"/><path d="M16.451 1.534a1.141 1.141 0 0 0-.288-1.066l-.58-.581a1.116 1.116 0 0 0-1.065-.29 1.127 1.127 0 0 0-.962-.551h-.819c-.41 0-.77.223-.964.554-.38-.106-.813.038-1.062.288l-.576.579a1.116 1.116 0 0 0-.292 1.067c-.329.194-.55.553-.55.962v.821c0 .408.221.766.548.96a1.14 1.14 0 0 0-.035.285c.002.263.14.595.325.781l.58.581c.248.248.68.393 1.062.287.194.332.555.555.963.555h.82c.298 0 .588-.121.796-.333a1.02 1.02 0 0 0 .158-.216c.098.025.201.031.3.036.26-.004.588-.144.771-.328l.57-.572c.215-.21.337-.503.335-.803 0-.085-.016-.178-.042-.271.333-.193.556-.552.556-.964v-.821c0-.408-.221-.766-.549-.96z" fill="#000"/></mask></defs><path d="M15.884 2.379h-.177v-.003a.523.523 0 0 1-.5-.325.531.531 0 0 1 .122-.586l.126-.126a.12.12 0 0 0 0-.165l-.579-.58a.117.117 0 0 0-.166 0l-.125.125A.525.525 0 0 1 14 .841a.532.532 0 0 1-.326-.501l-.001-.177a.117.117 0 0 0-.117-.117h-.819a.117.117 0 0 0-.116.117v.178a.53.53 0 0 1-.911.379l-.126-.126a.118.118 0 0 0-.165 0l-.578.581a.116.116 0 0 0 0 .164l.123.127a.532.532 0 0 1 .124.586.523.523 0 0 1-.499.325l-.178.003a.117.117 0 0 0-.117.117v.821c0 .063.052.116.117.116h.178l-.002.002a.524.524 0 0 1 .501.325.53.53 0 0 1-.123.585v.001l-.125.127a.117.117 0 0 0 0 .163l.579.58a.116.116 0 0 0 .165 0l.127-.124a.53.53 0 0 1 .585-.123c.207.088.331.29.326.502l.002.177h-.002a.117.117 0 0 0 .116.117h.82a.117.117 0 0 0 .117-.117h-.001l.001-.177a.529.529 0 0 1 .911-.379l.124.126a.116.116 0 0 0 .165 0l.58-.58a.114.114 0 0 0 0-.163l-.125-.129a.53.53 0 0 1 .378-.911l.177-.004A.117.117 0 0 0 16 3.315v-.821a.117.117 0 0 0-.116-.115zM13.146 3.91a1.002 1.002 0 0 1-1.001-1.004c0-.555.448-1.005 1.001-1.005a1.004 1.004 0 0 1 0 2.009z" fill="#cb1800"/><path d="M15.631 6.403a1.03 1.03 0 0 1 0-1.919l.315-.134.001-.001.001.004a.229.229 0 0 0 .121-.296l-.001-.002v-.002l-.24-.579-.367-.889c-.011-.027-.039-.038-.058-.058-.062-.065-.148-.102-.236-.065v.001l-.317.131a1.02 1.02 0 0 1-1.139-.216 1.034 1.034 0 0 1-.214-1.142l.132-.317a.228.228 0 0 0-.122-.294L12.04.017a.221.221 0 0 0-.293.122l-.135.317a1.028 1.028 0 0 1-1.913.001l-.134-.32a.227.227 0 0 0-.295-.12l-1.466.61a.225.225 0 0 0-.123.294l.13.318c.167.376.095.832-.213 1.142a1.032 1.032 0 0 1-1.139.214v.002l-.317-.135a.23.23 0 0 0-.295.124l-.608 1.468a.23.23 0 0 0 .123.297l.317.134c.382.149.654.523.654.96 0 .436-.272.809-.654.956l-.316.138a.225.225 0 0 0-.123.293l.608 1.47c.047.114.18.171.293.122l.319-.131a1.026 1.026 0 0 1 1.351 1.356h.002l-.131.318a.227.227 0 0 0 .121.295l1.466.609a.225.225 0 0 0 .294-.122l.134-.317a1.03 1.03 0 0 1 .956-.656c.436.002.808.274.957.653l.135.32c.048.115.18.17.294.121l1.466-.608a.227.227 0 0 0 .122-.295l-.132-.317h.001a1.037 1.037 0 0 1 .214-1.143c.31-.31.763-.38 1.138-.216h.002l.314.133a.226.226 0 0 0 .295-.122l.608-1.471a.227.227 0 0 0-.12-.295l-.316-.133zm-4.232.841a1.943 1.943 0 0 1-2.541-1.056 1.944 1.944 0 1 1 3.593-1.49 1.951 1.951 0 0 1-1.052 2.546zm-3.677 4.039h-.241v-.003a.72.72 0 0 1-.512-1.236l.17-.171a.16.16 0 0 0 0-.224l-.785-.787a.157.157 0 0 0-.223 0l-.171.17a.717.717 0 0 1-1.236-.514l-.002-.24a.16.16 0 0 0-.158-.159H3.453a.158.158 0 0 0-.158.158l-.001.242a.717.717 0 0 1-1.234.513l-.17-.171a.16.16 0 0 0-.224 0l-.785.788a.159.159 0 0 0 0 .223l.167.172a.72.72 0 0 1 .168.795.711.711 0 0 1-.677.441l-.241.004a.159.159 0 0 0-.159.159v1.113c0 .087.071.158.159.158h.241l-.002.002a.717.717 0 0 1 .512 1.235v.001l-.17.172a.16.16 0 0 0 0 .222l.786.787a.157.157 0 0 0 .223 0l.172-.168a.716.716 0 0 1 1.235.514l.003.239h-.003c.001.09.072.159.158.159h1.112a.158.158 0 0 0 .159-.159h-.002l.002-.239a.719.719 0 0 1 1.236-.514l.169.17a.157.157 0 0 0 .223 0l.786-.787a.155.155 0 0 0 0-.221l-.168-.175a.72.72 0 0 1-.166-.795.711.711 0 0 1 .678-.441l.241-.005a.158.158 0 0 0 .157-.157V11.44a.158.158 0 0 0-.158-.157zm-3.713 2.078a1.36 1.36 0 0 1-1.359-1.362c0-.752.608-1.363 1.359-1.363a1.362 1.362 0 0 1 0 2.725z" mask="url(#a)"/></svg>