<svg width="16" height="16" xmlns="http://www.w3.org/2000/svg" viewBox="0 0 16 16" shape-rendering="geometricPrecision" fill="#6e6e6e"><defs><mask id="a"><rect fill="#fff" width="100%" height="100%"/><path d="M15.568.488c.365-.9-.337-1.487-.851-1.704-.593-.25-1.396-.157-1.78.752l-.142.357-2.14 5.317.603 2.278 1.98-1.23L15.44.788l.128-.3z" fill="#000"/></mask></defs><path d="M11.686 6.423l.6-.513-.675-.269zM14.245.038a.714.714 0 0 0-.927.393l-.213.531 1.326.532.214-.532h-.001a.714.714 0 0 0-.399-.924zM11.527 4.9l1.433-3.573 1.325.532-1.433 3.572z" fill="#cb1800"/><g mask="url(#a)"><circle cx="11.278" cy="12.205" r=".769"/><circle cx="11.278" cy="7.939" r=".769"/><path d="M2.042.948V14.93h11.939V.948H2.042zm10.812 12.854H3.171v-3.138h9.682v3.138zm0-4.323H3.171V6.397h9.682v3.082zM3.171 5.213V2.077h9.682v3.136H3.171z"/><circle cx="11.278" cy="3.673" r=".769"/></g></svg>