<?xml version="1.0"?><!DOCTYPE svg PUBLIC "-//W3C//DTD SVG 1.1//EN" "http://www.w3.org/Graphics/SVG/1.1/DTD/svg11.dtd"><svg width="16px" height="16px" xmlns="http://www.w3.org/2000/svg" viewBox="0 0 16 16" shape-rendering="geometricPrecision" fill="#6e6e6e"><defs><mask id="edit-path"><rect fill="#fff" width="100%" height="100%"/><path d="M15.568,0.488c0.365-0.9-0.337-1.487-0.851-1.704c-0.593-0.25-1.396-0.157-1.78,0.752l-0.142,0.357 l-2.14,5.317l0.603,2.278l1.98-1.23l2.202-5.47L15.568,0.488z" fill="#000"/></mask></defs><g id="edit_3_" display="inline" fill="#cb1800"><polygon points="11.686,6.423 12.286,5.91 11.611,5.641 "/><path d="M14.245,0.038c-0.365-0.147-0.778,0.03-0.927,0.393l-0.213,0.531l1.326,0.532l0.214-0.532h-0.001 C14.787,0.597,14.61,0.183,14.245,0.038z"/><rect x="10.982" y="2.666" transform="matrix(0.3723 -0.9281 0.9281 0.3723 4.9642 14.0992)" width="3.849" height="1.428"/></g><g mask="url(#edit-path)"><path d="M10.201,4.508c1.483,0,2.673,1.162,2.711,2.645l0.019,0.766l0.744,0.181 c0.772,0.188,1.311,0.875,1.311,1.672l0,0.057c-0.03,0.921-0.788,1.663-1.714,1.665H3.035c-1.115,0-2.022-0.908-2.022-2.024 c0-1.116,0.907-2.024,2.022-2.024c0.118,0,0.24,0.011,0.362,0.033l1.365,0.245L4.564,6.35C4.557,6.3,4.553,6.25,4.553,6.198 c0-0.599,0.487-1.086,1.085-1.086c0.337,0,0.65,0.154,0.858,0.423l0.783,1.012l0.793-1.004C8.59,4.885,9.366,4.508,10.201,4.508 M10.201,3.508c-1.183,0-2.235,0.554-2.915,1.415C6.905,4.43,6.308,4.112,5.637,4.112c-1.152,0-2.085,0.934-2.085,2.086 c0,0.1,0.007,0.199,0.021,0.296C3.399,6.462,3.219,6.445,3.035,6.445c-1.669,0-3.022,1.354-3.022,3.024 c0,1.67,1.353,3.024,3.022,3.024h10.237c1.5-0.003,2.714-1.22,2.714-2.721l-0.001-0.001c0-1.28-0.884-2.354-2.075-2.644 C13.861,5.12,12.219,3.508,10.201,3.508L10.201,3.508z"/></g></svg>