<svg width="16" height="16" xmlns="http://www.w3.org/2000/svg" viewBox="0 0 16 16" shape-rendering="geometricPrecision" fill="#6e6e6e"><defs><mask id="a"><rect fill="#fff" width="100%" height="100%"/><path d="M16.451 1.534a1.141 1.141 0 0 0-.288-1.066l-.58-.581a1.116 1.116 0 0 0-1.065-.29 1.127 1.127 0 0 0-.962-.551h-.819c-.41 0-.77.223-.964.554-.38-.106-.813.038-1.062.288l-.576.579a1.116 1.116 0 0 0-.292 1.067c-.329.194-.55.553-.55.962v.821c0 .408.221.766.548.96a1.14 1.14 0 0 0-.035.285c.002.263.14.595.325.781l.58.581c.248.248.68.393 1.062.287.194.332.555.555.963.555h.82c.298 0 .588-.121.796-.333a1.02 1.02 0 0 0 .158-.216c.098.025.201.031.3.036.26-.004.588-.144.771-.328l.57-.572c.215-.21.337-.503.335-.803 0-.085-.016-.178-.042-.271.333-.193.556-.552.556-.964v-.821c0-.408-.221-.766-.549-.96z" fill="#000"/></mask></defs><path d="M15.884 2.379h-.177v-.003a.523.523 0 0 1-.5-.325.531.531 0 0 1 .122-.586l.126-.126a.12.12 0 0 0 0-.165l-.579-.58a.117.117 0 0 0-.166 0l-.125.125A.525.525 0 0 1 14 .841a.532.532 0 0 1-.326-.501l-.001-.177a.117.117 0 0 0-.117-.117h-.819a.117.117 0 0 0-.116.117v.178a.53.53 0 0 1-.911.379l-.126-.126a.118.118 0 0 0-.165 0l-.578.581a.116.116 0 0 0 0 .164l.123.127a.532.532 0 0 1 .124.586.523.523 0 0 1-.499.325l-.178.003a.117.117 0 0 0-.117.117v.821c0 .063.052.116.117.116h.178l-.002.002a.524.524 0 0 1 .501.325.53.53 0 0 1-.123.585v.001l-.125.127a.117.117 0 0 0 0 .163l.579.58a.116.116 0 0 0 .165 0l.127-.124a.53.53 0 0 1 .585-.123c.207.088.331.29.326.502l.002.177h-.002a.117.117 0 0 0 .116.117h.82a.117.117 0 0 0 .117-.117h-.001l.001-.177a.529.529 0 0 1 .911-.379l.124.126a.116.116 0 0 0 .165 0l.58-.58a.114.114 0 0 0 0-.163l-.125-.129a.53.53 0 0 1 .378-.911l.177-.004A.117.117 0 0 0 16 3.315v-.821a.117.117 0 0 0-.116-.115zM13.146 3.91a1.002 1.002 0 0 1-1.001-1.004c0-.555.448-1.005 1.001-1.005a1.004 1.004 0 0 1 0 2.009z" fill="#cb1800"/><path d="M9.284 2.017c-.438 0-.546.125-.735.747L5.67 12.038c-.168.554-.277.904-.277 1.108 0 .544.408.781.725.781.437 0 .546-.125.734-.747L9.73 3.907c.169-.555.277-.906.277-1.108.001-.545-.405-.782-.723-.782zM4.523 3.425a.66.66 0 0 0-.362-.826c-.333-.139-.446-.079-.742.335L.584 6.853a7.29 7.29 0 0 0-.397.599.674.674 0 0 0-.063.119c-.005.011-.019.03-.022.039-.005.018-.001.032-.006.049a.595.595 0 0 0-.019.166c0 .061.005.115.02.168.004.017 0 .03.005.047.003.01.017.027.021.038a.617.617 0 0 0 .065.122c.082.147.203.327.396.598l2.834 3.919c.296.413.41.475.742.337a.663.663 0 0 0 .362-.828c-.05-.152-.219-.387-.482-.756L1.405 7.825l2.636-3.643c.263-.369.432-.603.482-.757zm11.465 4.4a.656.656 0 0 0-.02-.168c-.004-.017 0-.03-.005-.047-.003-.01-.017-.027-.021-.038a.72.72 0 0 0-.064-.12 6.876 6.876 0 0 0-.397-.599l-2.835-3.919c-.296-.414-.411-.475-.742-.336a.66.66 0 0 0-.362.826c.05.154.219.389.481.758l2.637 3.643-2.637 3.645c-.263.368-.432.604-.481.756a.661.661 0 0 0 .362.828c.333.138.446.076.742-.337l2.835-3.919c.192-.27.313-.449.395-.597a.588.588 0 0 0 .066-.124c.004-.011.017-.027.02-.037.005-.017.001-.029.005-.045a.587.587 0 0 0 .021-.17z" mask="url(#a)"/></svg>