<svg width="16" height="16" xmlns="http://www.w3.org/2000/svg" viewBox="0 0 16 16" shape-rendering="geometricPrecision" fill="#6e6e6e"><defs><mask id="a"><rect fill="#fff" width="100%" height="100%"/><path d="M16.451 1.534a1.141 1.141 0 0 0-.288-1.066l-.58-.581a1.116 1.116 0 0 0-1.065-.29 1.127 1.127 0 0 0-.962-.551h-.819c-.41 0-.77.223-.964.554-.38-.106-.813.038-1.062.288l-.576.579a1.116 1.116 0 0 0-.292 1.067c-.329.194-.55.553-.55.962v.821c0 .408.221.766.548.96a1.14 1.14 0 0 0-.035.285c.002.263.14.595.325.781l.58.581c.248.248.68.393 1.062.287.194.332.555.555.963.555h.82c.298 0 .588-.121.796-.333a1.02 1.02 0 0 0 .158-.216c.098.025.201.031.3.036.26-.004.588-.144.771-.328l.57-.572c.215-.21.337-.503.335-.803 0-.085-.016-.178-.042-.271.333-.193.556-.552.556-.964v-.821c0-.408-.221-.766-.549-.96z" fill="#000"/></mask></defs><path d="M15.884 2.379h-.177v-.003a.523.523 0 0 1-.5-.325.531.531 0 0 1 .122-.586l.126-.126a.12.12 0 0 0 0-.165l-.579-.58a.117.117 0 0 0-.166 0l-.125.125A.525.525 0 0 1 14 .841a.532.532 0 0 1-.326-.501l-.001-.177a.117.117 0 0 0-.117-.117h-.819a.117.117 0 0 0-.116.117v.178a.53.53 0 0 1-.911.379l-.126-.126a.118.118 0 0 0-.165 0l-.578.581a.116.116 0 0 0 0 .164l.123.127a.532.532 0 0 1 .124.586.523.523 0 0 1-.499.325l-.178.003a.117.117 0 0 0-.117.117v.821c0 .063.052.116.117.116h.178l-.002.002a.524.524 0 0 1 .501.325.53.53 0 0 1-.123.585v.001l-.125.127a.117.117 0 0 0 0 .163l.579.58a.116.116 0 0 0 .165 0l.127-.124a.53.53 0 0 1 .585-.123c.207.088.331.29.326.502l.002.177h-.002a.117.117 0 0 0 .116.117h.82a.117.117 0 0 0 .117-.117h-.001l.001-.177a.529.529 0 0 1 .911-.379l.124.126a.116.116 0 0 0 .165 0l.58-.58a.114.114 0 0 0 0-.163l-.125-.129a.53.53 0 0 1 .378-.911l.177-.004A.117.117 0 0 0 16 3.315v-.821a.117.117 0 0 0-.116-.115zM13.146 3.91a1.002 1.002 0 0 1-1.001-1.004c0-.555.448-1.005 1.001-1.005a1.004 1.004 0 0 1 0 2.009z" fill="#cb1800"/><path d="M1.059 3.199v2.777c0 .59.481 1.07 1.07 1.07h2.768a3.816 3.816 0 0 0 2.333 1.35c-.516-.461-.63-.965-.618-1.349h.499c.588 0 1.069-.48 1.069-1.07V3.199c0-.588-.481-1.07-1.069-1.07H2.129c-.589 0-1.07.482-1.07 1.07zm1.274 1.426h4.509v.629H2.333v-.629zm0-1.303h4.509v.63H2.333v-.63zM13.15 6.007a2.13 2.13 0 1 0-4.26 0 2.13 2.13 0 0 0 4.26 0zm-6.163 5.194v2.669h8.067v-2.669a2.054 2.054 0 0 0-2.047-2.053H9.041a2.06 2.06 0 0 0-2.054 2.053z" mask="url(#a)"/></svg>