<svg width="16" height="16" xmlns="http://www.w3.org/2000/svg" viewBox="0 0 16 16" shape-rendering="geometricPrecision" fill="#6e6e6e"><defs><mask id="a"><rect fill="#fff" width="100%" height="100%"/><path d="M15.568.488c.365-.9-.337-1.487-.851-1.704-.593-.25-1.396-.157-1.78.752l-.142.357-2.14 5.317.603 2.278 1.98-1.23L15.44.788l.128-.3z" fill="#000"/></mask></defs><path d="M11.686 6.423l.6-.513-.675-.269zM14.245.038a.714.714 0 0 0-.927.393l-.213.531 1.326.532.214-.532h-.001a.714.714 0 0 0-.399-.924zM11.527 4.9l1.433-3.573 1.325.532-1.433 3.572z" fill="#cb1800"/><g mask="url(#a)"><path d="M5.295 3.818V7.67L2.909 9.058l.944 1.653 3.328-1.932h.02l-.003-4.961z"/><path d="M9.791 1.79h-3.58a6.211 6.211 0 0 0 0 12.421h3.58a6.21 6.21 0 0 0 0-12.421zM1.256 8.003a4.962 4.962 0 0 1 4.955-4.956 4.96 4.96 0 0 1 4.953 4.956 4.96 4.96 0 0 1-4.953 4.951 4.962 4.962 0 0 1-4.955-4.951z"/></g></svg>