<svg width="16" height="16" xmlns="http://www.w3.org/2000/svg" viewBox="0 0 16 16" shape-rendering="geometricPrecision" fill="#6e6e6e"><defs><mask id="a"><rect fill="#fff" width="100%" height="100%"/><path d="M15.568.488c.365-.9-.337-1.487-.851-1.704-.593-.25-1.396-.157-1.78.752l-.142.357-2.14 5.317.603 2.278 1.98-1.23L15.44.788l.128-.3z" fill="#000"/></mask></defs><path d="M11.686 6.423l.6-.513-.675-.269zM14.245.038a.714.714 0 0 0-.927.393l-.213.531 1.326.532.214-.532h-.001a.714.714 0 0 0-.399-.924zM11.527 4.9l1.433-3.573 1.325.532-1.433 3.572z" fill="#cb1800"/><g mask="url(#a)"><path d="M10.021 15.177l3.437-3.165h-3.437z"/><path d="M2.02 0v16h7.021v-4.905h4.941V0H2.02zM13 9.97H8v5H3.083v-14H13v9z"/><path fill-rule="evenodd" clip-rule="evenodd" d="M10.313 6.987c.843.67 1.525.392 1.426.264-.302-.391-.896-.391-1.426-.264zm1.093-.377c-.844-.286-1.966-.002-1.923.034-.567-.279-1.33-.685-1.749-2.018-.703-2.234 0-2.955.046-1.558l.142.948s.485-1.184.172-2.047c-.274-.752-1.063-.639-1.11.751-.026.766.159 1.918.244 2.097 0 0-.73 2.149-1.813 3.84-1.051 1.642-1.115 1.088-.86.541.303-.65.817-.991.989-1.263 0 0-.798.062-1.418 1.127-.392.673-.439 2.345 1.233.532.332-.36.803-1.116 1.018-1.566 0 0 .973-.425 3.294-.875 0 0 .626.457 1.438.645 1.009.232 2.046-.594.297-1.188zm-4.749.708l.845-1.941c.56 1.19 1.353 1.433 1.353 1.433-.344.044-2.198.508-2.198.508z"/></g></svg>