<svg width="16" height="16" xmlns="http://www.w3.org/2000/svg" viewBox="0 0 16 16" shape-rendering="geometricPrecision" fill="#6e6e6e"><defs><mask id="a"><rect fill="#fff" width="100%" height="100%"/><path d="M15.568.488c.365-.9-.337-1.487-.851-1.704-.593-.25-1.396-.157-1.78.752l-.142.357-2.14 5.317.603 2.278 1.98-1.23L15.44.788l.128-.3z" fill="#000"/></mask></defs><g fill="#cb1800"><path d="M11.686 6.423l.6-.513-.675-.269zM14.245.038a.714.714 0 0 0-.927.393l-.213.531 1.326.532.214-.532h-.001a.714.714 0 0 0-.399-.924zM11.527 4.9l1.433-3.573 1.325.532-1.433 3.572z"/></g><path mask="url(#a)" d="M6.035 15.636V8.96a.645.645 0 0 0-.137-.396L0 1.072h16l-5.818 7.389c-.14.179-.218.402-.218.628v4.378l-3.929 2.169zM2.109 2.096L6.703 7.93c.23.292.357.658.357 1.03v4.942l1.881-1.038V9.089c0-.455.155-.903.438-1.261l4.512-5.732H2.109z"/></svg>