<svg width="16" height="16" xmlns="http://www.w3.org/2000/svg" viewBox="0 0 16 16" shape-rendering="geometricPrecision" fill="#6e6e6e"><defs><mask id="a"><rect fill="#fff" width="100%" height="100%"/><path d="M16.451 1.534a1.141 1.141 0 0 0-.288-1.066l-.58-.581a1.116 1.116 0 0 0-1.065-.29 1.127 1.127 0 0 0-.962-.551h-.819c-.41 0-.77.223-.964.554-.38-.106-.813.038-1.062.288l-.576.579a1.116 1.116 0 0 0-.292 1.067c-.329.194-.55.553-.55.962v.821c0 .408.221.766.548.96a1.14 1.14 0 0 0-.035.285c.002.263.14.595.325.781l.58.581c.248.248.68.393 1.062.287.194.332.555.555.963.555h.82c.298 0 .588-.121.796-.333a1.02 1.02 0 0 0 .158-.216c.098.025.201.031.3.036.26-.004.588-.144.771-.328l.57-.572c.215-.21.337-.503.335-.803 0-.085-.016-.178-.042-.271.333-.193.556-.552.556-.964v-.821c0-.408-.221-.766-.549-.96z" fill="#000"/></mask></defs><path d="M15.884 2.379h-.177v-.003a.523.523 0 0 1-.5-.325.531.531 0 0 1 .122-.586l.126-.126a.12.12 0 0 0 0-.165l-.579-.58a.117.117 0 0 0-.166 0l-.125.125A.525.525 0 0 1 14 .841a.532.532 0 0 1-.326-.501l-.001-.177a.117.117 0 0 0-.117-.117h-.819a.117.117 0 0 0-.116.117v.178a.53.53 0 0 1-.911.379l-.126-.126a.118.118 0 0 0-.165 0l-.578.581a.116.116 0 0 0 0 .164l.123.127a.532.532 0 0 1 .124.586.523.523 0 0 1-.499.325l-.178.003a.117.117 0 0 0-.117.117v.821c0 .063.052.116.117.116h.178l-.002.002a.524.524 0 0 1 .501.325.53.53 0 0 1-.123.585v.001l-.125.127a.117.117 0 0 0 0 .163l.579.58a.116.116 0 0 0 .165 0l.127-.124a.53.53 0 0 1 .585-.123c.207.088.331.29.326.502l.002.177h-.002a.117.117 0 0 0 .116.117h.82a.117.117 0 0 0 .117-.117h-.001l.001-.177a.529.529 0 0 1 .911-.379l.124.126a.116.116 0 0 0 .165 0l.58-.58a.114.114 0 0 0 0-.163l-.125-.129a.53.53 0 0 1 .378-.911l.177-.004A.117.117 0 0 0 16 3.315v-.821a.117.117 0 0 0-.116-.115zM13.146 3.91a1.002 1.002 0 0 1-1.001-1.004c0-.555.448-1.005 1.001-1.005a1.004 1.004 0 0 1 0 2.009z" fill="#cb1800"/><path d="M15.064 12.939l-.117-4.781a1.79 1.79 0 0 0 .023-.367v-.966c0-.724.061-3.199.061-4.044s-.725-.181-1.026.905c-.302 1.087-.785 4.527.06 4.588l.151.013-.11 4.652h.958zM3.276 5.169c0-.613-.209-2.736-.418-2.736s-.077 2.736-.229 2.736c-.153 0-.287-2.693-.458-2.693h-.01c-.171 0-.305 2.693-.457 2.693s-.019-2.736-.228-2.736c-.21 0-.419 2.123-.419 2.736 0 .557.238 1.02.753 1.101l-.123 6.67h.958l-.126-6.67c.517-.08.757-.542.757-1.101zM8.27 3.085a4.762 4.762 0 1 0 0 9.524 4.762 4.762 0 0 0 0-9.524zm0 8.096a3.334 3.334 0 1 1 .002-6.668 3.334 3.334 0 0 1-.002 6.668z" mask="url(#a)"/></svg>