<?xml version="1.0"?><!DOCTYPE svg PUBLIC "-//W3C//DTD SVG 1.1//EN" "http://www.w3.org/Graphics/SVG/1.1/DTD/svg11.dtd"><svg width="16px" height="16px" xmlns="http://www.w3.org/2000/svg" viewBox="0 0 16 16" shape-rendering="geometricPrecision" fill="#6e6e6e"><defs><mask id="edit-path"><rect fill="#fff" width="100%" height="100%"/><path d="M15.568,0.488c0.365-0.9-0.337-1.487-0.851-1.704c-0.593-0.25-1.396-0.157-1.78,0.752l-0.142,0.357 l-2.14,5.317l0.603,2.278l1.98-1.23l2.202-5.47L15.568,0.488z" fill="#000"/></mask></defs><g id="edit_3_" display="inline" fill="#cb1800"><polygon points="11.686,6.423 12.286,5.91 11.611,5.641 "/><path d="M14.245,0.038c-0.365-0.147-0.778,0.03-0.927,0.393l-0.213,0.531l1.326,0.532l0.214-0.532h-0.001 C14.787,0.597,14.61,0.183,14.245,0.038z"/><rect x="10.982" y="2.666" transform="matrix(0.3723 -0.9281 0.9281 0.3723 4.9642 14.0992)" width="3.849" height="1.428"/></g><g mask="url(#edit-path)"><g><ellipse cx="13.096" cy="4.259" rx="1.101" ry="1.091"/><path d="M13.367,6.868c-0.318,0-0.614,0.095-0.862,0.255c-0.127-0.979-0.962-1.741-1.983-1.741c-1.11,0-2.009,0.892-2.009,1.993 c0,1.099,0.899,1.991,2.009,1.991c0.507,0,0.964-0.193,1.318-0.5c0.186,0.666,0.796,1.159,1.527,1.159 c0.879,0,1.592-0.707,1.592-1.578C14.958,7.575,14.246,6.868,13.367,6.868z"/></g><path d="M10.202,10.016C8.87,9.859,7.837,8.736,7.837,7.375c0-1.071,0.639-1.993,1.559-2.414L8.91,1.907 L3.836,2.702l0.284,1.785L1.2,5.611l3.28,8.381l4.789-1.844l-0.441-1.126l1.497-0.235L10.202,10.016z"/></g></svg>