<?xml version="1.0"?><!DOCTYPE svg PUBLIC "-//W3C//DTD SVG 1.1//EN" "http://www.w3.org/Graphics/SVG/1.1/DTD/svg11.dtd"><svg width="16px" height="16px" xmlns="http://www.w3.org/2000/svg" viewBox="0 0 16 16" shape-rendering="geometricPrecision" fill="#6e6e6e"><defs><mask id="edit-path"><rect fill="#fff" width="100%" height="100%"/><path d="M16.451,1.534c0.091-0.364-0.004-0.77-0.288-1.066l-0.58-0.581 c-0.286-0.287-0.692-0.383-1.065-0.29c-0.194-0.327-0.552-0.548-0.962-0.551h-0.819c-0.41,0-0.77,0.223-0.964,0.554 c-0.38-0.106-0.813,0.038-1.062,0.288l-0.576,0.579C9.846,0.754,9.749,1.165,9.843,1.534c-0.329,0.194-0.55,0.553-0.55,0.962 v0.821c0,0.408,0.221,0.766,0.548,0.96C9.817,4.37,9.806,4.466,9.806,4.562c0.002,0.263,0.14,0.595,0.325,0.781l0.58,0.581 c0.248,0.248,0.68,0.393,1.062,0.287c0.194,0.332,0.555,0.555,0.963,0.555h0.82c0.298,0,0.588-0.121,0.796-0.333 c0.059-0.06,0.112-0.134,0.158-0.216c0.098,0.025,0.201,0.031,0.3,0.036c0.26-0.004,0.588-0.144,0.771-0.328l0.57-0.572 c0.215-0.21,0.337-0.503,0.335-0.803c0-0.085-0.016-0.178-0.042-0.271C16.777,4.086,17,3.727,17,3.315V2.494 C17,2.086,16.779,1.728,16.451,1.534z" fill="#000"/></mask></defs><g fill="#cb1800"><g><path d="M15.884,2.379h-0.177V2.376c-0.212,0.008-0.414-0.118-0.5-0.325c-0.086-0.207-0.031-0.439,0.122-0.586l0.126-0.126 c0.044-0.044,0.044-0.119,0-0.165l-0.579-0.58c-0.046-0.046-0.119-0.046-0.166,0l-0.125,0.125 C14.439,0.872,14.208,0.929,14,0.841c-0.206-0.087-0.331-0.289-0.326-0.501l-0.001-0.177c0-0.065-0.052-0.117-0.117-0.117 h-0.819c-0.063,0-0.117,0.053-0.116,0.117l0,0.178c0.005,0.212-0.119,0.414-0.326,0.501c-0.208,0.086-0.439,0.03-0.585-0.122 l-0.126-0.126c-0.045-0.045-0.119-0.045-0.165,0l-0.578,0.581c-0.045,0.045-0.045,0.118,0,0.164l0.123,0.127 c0.154,0.147,0.209,0.379,0.124,0.586c-0.086,0.207-0.289,0.333-0.499,0.325l-0.178,0.003c-0.065,0-0.117,0.053-0.117,0.117 v0.821c0,0.063,0.052,0.116,0.117,0.116h0.178l-0.002,0.002c0.212-0.008,0.415,0.118,0.501,0.325 c0.085,0.208,0.03,0.44-0.123,0.585v0.001l-0.125,0.127c-0.044,0.044-0.044,0.12,0,0.163l0.579,0.58 c0.046,0.046,0.119,0.046,0.165,0l0.127-0.124c0.146-0.153,0.377-0.208,0.585-0.123c0.207,0.088,0.331,0.29,0.326,0.502 l0.002,0.177h-0.002c0.001,0.066,0.053,0.117,0.116,0.117h0.002h0.817h0.001c0.064,0,0.117-0.051,0.117-0.117h-0.001 l0.001-0.177C13.668,5.26,13.793,5.058,14,4.97c0.208-0.085,0.439-0.03,0.586,0.123l0.124,0.126 c0.046,0.046,0.121,0.046,0.165,0l0.58-0.58c0.046-0.045,0.046-0.119,0-0.163l-0.125-0.129 c-0.153-0.146-0.208-0.378-0.122-0.586c0.085-0.207,0.288-0.333,0.5-0.325l0.177-0.004C15.947,3.432,16,3.379,16,3.315V2.494 C16,2.431,15.947,2.379,15.884,2.379z M13.146,3.91c-0.553,0-1.001-0.449-1.001-1.004c0-0.555,0.448-1.005,1.001-1.005 c0.553,0,1.002,0.45,1.002,1.005C14.149,3.461,13.7,3.91,13.146,3.91z"/></g></g><g mask="url(#edit-path)"><path d="M7.999,0.97c-3.882,0-7.029,3.147-7.029,7.033c0.001,3.881,3.147,7.025,7.029,7.027 c3.883-0.002,7.031-3.146,7.031-7.027C15.03,4.116,11.882,0.97,7.999,0.97z M7.999,13.608c-3.096-0.006-5.601-2.512-5.607-5.605 c0.006-3.1,2.511-5.606,5.607-5.611c3.098,0.006,5.603,2.512,5.609,5.611C13.602,11.097,11.097,13.603,7.999,13.608z"/><g><path d="M8.243,3.606c1.054,0,1.938,0.52,2.51,1.105L9.699,5.894c-0.429-0.39-0.832-0.637-1.43-0.637 c-1.184,0-2.106,1.027-2.106,2.73c0,1.742,0.819,2.756,2.055,2.756c0.701,0,1.195-0.299,1.611-0.754l1.054,1.157 c-0.702,0.819-1.639,1.248-2.691,1.248c-2.197,0-3.991-1.495-3.991-4.342C4.2,5.244,6.06,3.606,8.243,3.606z"/></g><g><rect x="7.25" y="1.769" transform="matrix(0.7071 -0.7071 0.7071 0.7071 -3.3137 8)" width="1.5" height="12.462"/></g></g></svg>