<?xml version="1.0"?><!DOCTYPE svg PUBLIC "-//W3C//DTD SVG 1.1//EN" "http://www.w3.org/Graphics/SVG/1.1/DTD/svg11.dtd"><svg width="16px" height="16px" xmlns="http://www.w3.org/2000/svg" viewBox="0 0 16 16" shape-rendering="geometricPrecision" fill="#6e6e6e"><defs><mask id="edit-path"><rect fill="#fff" width="100%" height="100%"/><path d="M15.568,0.488c0.365-0.9-0.337-1.487-0.851-1.704c-0.593-0.25-1.396-0.157-1.78,0.752l-0.142,0.357 l-2.14,5.317l0.603,2.278l1.98-1.23l2.202-5.47L15.568,0.488z" fill="#000"/></mask></defs><g id="edit_3_" display="inline" fill="#cb1800"><polygon points="11.686,6.423 12.286,5.91 11.611,5.641 "/><path d="M14.245,0.038c-0.365-0.147-0.778,0.03-0.927,0.393l-0.213,0.531l1.326,0.532l0.214-0.532h-0.001 C14.787,0.597,14.61,0.183,14.245,0.038z"/><rect x="10.982" y="2.666" transform="matrix(0.3723 -0.9281 0.9281 0.3723 4.9642 14.0992)" width="3.849" height="1.428"/></g><g mask="url(#edit-path)"><path d="M15.432,12.94l-3.595-3.593l-0.356-0.356c1.227-2.3,0.901-5.215-1.039-7.157 C8.064-0.54,4.211-0.54,1.833,1.837c-2.376,2.378-2.374,6.229,0.002,8.605c1.939,1.939,4.855,2.267,7.158,1.037l3.952,3.952 c0.686,0.687,1.801,0.687,2.486,0C16.121,14.744,16.121,13.631,15.432,12.94z M3.104,9.17C1.432,7.497,1.428,4.78,3.105,3.108 c1.674-1.68,4.388-1.677,6.064-0.005c1.676,1.677,1.674,4.391,0,6.066C7.493,10.845,4.778,10.845,3.104,9.17z"/></g></svg>