<svg width="16" height="16" xmlns="http://www.w3.org/2000/svg" viewBox="0 0 16 16" shape-rendering="geometricPrecision" fill="#6e6e6e"><defs><mask id="a"><rect fill="#fff" width="100%" height="100%"/><path d="M15.568.488c.365-.9-.337-1.487-.851-1.704-.593-.25-1.396-.157-1.78.752l-.142.357-2.14 5.317.603 2.278 1.98-1.23L15.44.788l.128-.3z" fill="#000"/></mask></defs><path d="M11.686 6.423l.6-.513-.675-.269zM14.245.038a.714.714 0 0 0-.927.393l-.213.531 1.326.532.214-.532h-.001a.714.714 0 0 0-.399-.924zM11.527 4.9l1.433-3.573 1.325.532-1.433 3.572z" fill="#cb1800"/><g mask="url(#a)"><path d="M7.975 1.052A6.978 6.978 0 0 0 1 8.022h2.077a4.9 4.9 0 0 1 4.897-4.896 4.9 4.9 0 0 1 4.899 4.897 4.9 4.9 0 0 1-4.898 4.9V15a6.977 6.977 0 0 0 6.973-6.977 6.973 6.973 0 0 0-6.973-6.971zm2.62 6.971a2.62 2.62 0 0 0-2.621-2.617 2.618 2.618 0 0 0 0 5.239 2.623 2.623 0 0 0 2.621-2.622z"/></g></svg>