<svg width="16" height="16" xmlns="http://www.w3.org/2000/svg" viewBox="0 0 16 16" shape-rendering="geometricPrecision" fill="#6e6e6e"><defs><mask id="a"><rect fill="#fff" width="100%" height="100%"/><path d="M16.451 1.534a1.141 1.141 0 0 0-.288-1.066l-.58-.581a1.116 1.116 0 0 0-1.065-.29 1.127 1.127 0 0 0-.962-.551h-.819c-.41 0-.77.223-.964.554-.38-.106-.813.038-1.062.288l-.576.579a1.116 1.116 0 0 0-.292 1.067c-.329.194-.55.553-.55.962v.821c0 .408.221.766.548.96a1.14 1.14 0 0 0-.035.285c.002.263.14.595.325.781l.58.581c.248.248.68.393 1.062.287.194.332.555.555.963.555h.82c.298 0 .588-.121.796-.333a1.02 1.02 0 0 0 .158-.216c.098.025.201.031.3.036.26-.004.588-.144.771-.328l.57-.572c.215-.21.337-.503.335-.803 0-.085-.016-.178-.042-.271.333-.193.556-.552.556-.964v-.821c0-.408-.221-.766-.549-.96z" fill="#000"/></mask></defs><path d="M15.884 2.379h-.177v-.003a.523.523 0 0 1-.5-.325.531.531 0 0 1 .122-.586l.126-.126a.12.12 0 0 0 0-.165l-.579-.58a.117.117 0 0 0-.166 0l-.125.125A.525.525 0 0 1 14 .841a.532.532 0 0 1-.326-.501l-.001-.177a.117.117 0 0 0-.117-.117h-.819a.117.117 0 0 0-.116.117v.178a.53.53 0 0 1-.911.379l-.126-.126a.118.118 0 0 0-.165 0l-.578.581a.116.116 0 0 0 0 .164l.123.127a.532.532 0 0 1 .124.586.523.523 0 0 1-.499.325l-.178.003a.117.117 0 0 0-.117.117v.821c0 .063.052.116.117.116h.178l-.002.002a.524.524 0 0 1 .501.325.53.53 0 0 1-.123.585v.001l-.125.127a.117.117 0 0 0 0 .163l.579.58a.116.116 0 0 0 .165 0l.127-.124a.53.53 0 0 1 .585-.123c.207.088.331.29.326.502l.002.177h-.002a.117.117 0 0 0 .116.117h.82a.117.117 0 0 0 .117-.117h-.001l.001-.177a.529.529 0 0 1 .911-.379l.124.126a.116.116 0 0 0 .165 0l.58-.58a.114.114 0 0 0 0-.163l-.125-.129a.53.53 0 0 1 .378-.911l.177-.004A.117.117 0 0 0 16 3.315v-.821a.117.117 0 0 0-.116-.115zM13.146 3.91a1.002 1.002 0 0 1-1.001-1.004c0-.555.448-1.005 1.001-1.005a1.004 1.004 0 0 1 0 2.009z" fill="#cb1800"/><path mask="url(#a)" d="M14.307 9.69c.143-.537.227-1.1.227-1.682a6.525 6.525 0 0 0-6.525-6.525c-.581 0-1.142.084-1.678.227A3.321 3.321 0 0 0 1.71 6.329a6.51 6.51 0 0 0-.226 1.68 6.525 6.525 0 0 0 6.525 6.525 6.45 6.45 0 0 0 1.683-.229 3.322 3.322 0 0 0 4.615-4.615zm-3.332 1.299a2.43 2.43 0 0 1-.63.832 3.07 3.07 0 0 1-1.002.568 3.926 3.926 0 0 1-1.333.209 4.47 4.47 0 0 1-1.72-.338 4.481 4.481 0 0 1-1.464-.96l.908-1.07a3.96 3.96 0 0 0 1.083.725 2.93 2.93 0 0 0 1.232.277c.496 0 .878-.104 1.145-.311a.996.996 0 0 0 .399-.826.96.96 0 0 0-.102-.461 1.024 1.024 0 0 0-.283-.332 2.509 2.509 0 0 0-.44-.264 9.714 9.714 0 0 0-.556-.242l-1.205-.529a4.36 4.36 0 0 1-.65-.34 2.567 2.567 0 0 1-.576-.487 2.264 2.264 0 0 1-.562-1.531c0-.352.075-.678.224-.983.149-.3.354-.566.616-.79.262-.227.573-.4.934-.527.361-.127.759-.19 1.192-.19.524 0 1.024.1 1.503.305.478.203.889.477 1.232.818l-.812 1.002a3.653 3.653 0 0 0-.887-.555 2.577 2.577 0 0 0-1.036-.203c-.424 0-.76.092-1.009.277a.904.904 0 0 0-.373.766c0 .17.039.316.116.439.076.122.181.231.312.325.13.096.281.182.453.258.171.078.347.15.528.225l1.192.5c.262.109.503.234.724.381.222.143.411.311.569.498.158.191.28.41.366.658.085.248.128.535.128.861 0 .359-.071.699-.216 1.015z"/></svg>