<?xml version="1.0"?><!DOCTYPE svg PUBLIC "-//W3C//DTD SVG 1.1//EN" "http://www.w3.org/Graphics/SVG/1.1/DTD/svg11.dtd"><svg width="16px" height="16px" xmlns="http://www.w3.org/2000/svg" viewBox="0 0 16 16" shape-rendering="geometricPrecision" fill="#6e6e6e"><defs><mask id="edit-path"><rect fill="#fff" width="100%" height="100%"/><path d="M15.568,0.488c0.365-0.9-0.337-1.487-0.851-1.704c-0.593-0.25-1.396-0.157-1.78,0.752l-0.142,0.357 l-2.14,5.317l0.603,2.278l1.98-1.23l2.202-5.47L15.568,0.488z" fill="#000"/></mask></defs><g id="edit_3_" display="inline" fill="#cb1800"><polygon points="11.686,6.423 12.286,5.91 11.611,5.641 "/><path d="M14.245,0.038c-0.365-0.147-0.778,0.03-0.927,0.393l-0.213,0.531l1.326,0.532l0.214-0.532h-0.001 C14.787,0.597,14.61,0.183,14.245,0.038z"/><rect x="10.982" y="2.666" transform="matrix(0.3723 -0.9281 0.9281 0.3723 4.9642 14.0992)" width="3.849" height="1.428"/></g><g mask="url(#edit-path)"><path d="M13.078,2.394c-1.786-1.782-4.658-1.766-6.444,0.01l-5.05,5.052l0.904,0.902l5.051-5.049 c1.288-1.29,3.353-1.298,4.639-0.012c1.281,1.284,1.283,3.365,0,4.65l-5.051,5.051c-0.881,0.881-2.304,0.889-3.186,0.008 c-0.878-0.882-0.878-2.312,0-3.194l4.422-4.423L8.364,5.39c0.487-0.483,1.253-0.484,1.732-0.007 c0.478,0.478,0.476,1.255-0.002,1.734L5.67,11.542l0.901,0.9l4.423-4.423c0.976-0.977,0.98-2.562,0.003-3.54 c-0.978-0.971-2.543-0.961-3.521-0.001L7.474,4.477L3.039,8.909c-1.38,1.38-1.377,3.62,0,4.999 c1.382,1.376,3.612,1.365,4.99-0.009l5.05-5.051C14.865,7.063,14.859,4.176,13.078,2.394z"/></g></svg>