<?xml version="1.0"?><!DOCTYPE svg PUBLIC "-//W3C//DTD SVG 1.1//EN" "http://www.w3.org/Graphics/SVG/1.1/DTD/svg11.dtd"><svg width="16px" height="16px" xmlns="http://www.w3.org/2000/svg" viewBox="0 0 16 16" shape-rendering="geometricPrecision" fill="#ffad00"><defs><mask id="visibility-invisible-path"><rect fill="#fff" width="100%" height="100%"/><path d="M12.997,0.858c-1.845,0-3.446,1.039-4.253,2.563c0.808,1.523,2.408,2.562,4.253,2.562 c1.844,0,3.444-1.039,4.253-2.562C16.441,1.897,14.841,0.858,12.997,0.858z" fill="#000"/></mask></defs><g id="visibility-invisible" display="inline" fill="#cb1800"><g><g><path d="M12.997,1.611c-1.303,0-2.433,0.733-3.003,1.81c0.57,1.075,1.7,1.809,3.003,1.809c1.302,0,2.432-0.733,3.003-1.809 C15.429,2.345,14.299,1.611,12.997,1.611z M12.996,5.007c-0.876,0-1.587-0.71-1.587-1.586c0-0.877,0.711-1.588,1.587-1.588 c0.877,0,1.588,0.711,1.588,1.588C14.584,4.297,13.873,5.007,12.996,5.007z"/></g></g></g><g mask="url(#visibility-invisible-path)"><path d="M12.421,2.295H3.568c-1.395,0-2.527,1.133-2.529,2.528V9.76c0.002,1.395,1.134,2.527,2.529,2.529h0.196 c-0.097,0.402-0.325,0.845-0.828,1.304L1.368,15l2.084-0.319c2.36-0.374,3.82-1.796,4.344-2.392h4.625 c1.397-0.002,2.527-1.135,2.529-2.529V4.823C14.948,3.428,13.818,2.295,12.421,2.295z M13.693,9.76 c0,0.696-0.577,1.272-1.272,1.274H7.188L7,11.284c-0.033,0.05-0.784,1.016-2.124,1.657c0.153-0.422,0.211-0.832,0.207-1.188 c0-0.023,0-0.062-0.001-0.108l-0.018-0.61H3.568c-0.695-0.002-1.272-0.578-1.272-1.274V4.823c0-0.698,0.577-1.272,1.272-1.273 h8.853c0.696,0.002,1.272,0.575,1.272,1.273V9.76z M4.849,6.242c-0.638,0-1.155,0.518-1.155,1.156 c0,0.637,0.517,1.155,1.155,1.155c0.638,0,1.156-0.519,1.156-1.155C6.005,6.76,5.487,6.242,4.849,6.242z M7.995,6.242 c-0.638,0-1.157,0.518-1.157,1.156c0,0.637,0.52,1.155,1.157,1.155c0.637,0,1.155-0.519,1.155-1.155 C9.15,6.76,8.632,6.242,7.995,6.242z M11.14,6.242c-0.637,0-1.156,0.518-1.156,1.156c0,0.637,0.519,1.155,1.156,1.155 c0.639,0,1.155-0.519,1.155-1.155C12.295,6.76,11.778,6.242,11.14,6.242z"/></g></svg>