<svg width="16" height="16" xmlns="http://www.w3.org/2000/svg" viewBox="0 0 16 16" shape-rendering="geometricPrecision" fill="#ffad00"><defs><mask id="a"><rect fill="#fff" width="100%" height="100%"/><path d="M12.997.858a4.809 4.809 0 0 0-4.253 2.563 4.81 4.81 0 0 0 8.506 0A4.812 4.812 0 0 0 12.997.858z" fill="#000"/></mask></defs><path d="M12.997 1.611a3.394 3.394 0 0 0-3.003 1.81 3.397 3.397 0 0 0 6.006 0 3.398 3.398 0 0 0-3.003-1.81zm-.001 3.396a1.587 1.587 0 1 1 0-3.174 1.587 1.587 0 0 1 0 3.174z" fill="#cb1800"/><g mask="url(#a)"><path d="M14.186 9.847c0 .756-.626 1.381-1.381 1.384h-5.68l-.204.271c-.036.055-.853 1.103-2.306 1.798a3.69 3.69 0 0 0 .225-1.289c0-.027 0-.066-.002-.119l-.018-.662H3.195a1.395 1.395 0 0 1-1.381-1.384V4.489c0-.759.626-1.382 1.381-1.384h9.61a1.392 1.392 0 0 1 1.381 1.384v5.358z"/><path d="M12.455 2.215h-8.91A2.546 2.546 0 0 0 1.001 4.76v4.968a2.549 2.549 0 0 0 2.544 2.544h.198c-.097.406-.327.851-.833 1.312L1.333 15l2.097-.321c2.375-.376 3.844-1.808 4.372-2.407h4.654A2.547 2.547 0 0 0 15 9.728V4.76a2.547 2.547 0 0 0-2.545-2.545zm1.28 7.513c0 .7-.58 1.28-1.28 1.281H7.189L7 11.262c-.033.05-.79 1.021-2.137 1.666a3.46 3.46 0 0 0 .208-1.194l-.001-.11-.018-.614H3.545a1.29 1.29 0 0 1-1.28-1.281V4.76c0-.703.58-1.28 1.28-1.282h8.909c.7.002 1.28.579 1.28 1.282v4.968z"/></g></svg>