<svg width="16" height="16" xmlns="http://www.w3.org/2000/svg" viewBox="0 0 16 16" shape-rendering="geometricPrecision" fill="#ffad00"><defs><mask id="a"><rect fill="#fff" width="100%" height="100%"/><path d="M12.997.858a4.809 4.809 0 0 0-4.253 2.563 4.81 4.81 0 0 0 8.506 0A4.812 4.812 0 0 0 12.997.858z" fill="#000"/></mask></defs><path d="M12.997 1.611a3.394 3.394 0 0 0-3.003 1.81 3.397 3.397 0 0 0 6.006 0 3.398 3.398 0 0 0-3.003-1.81zm-.001 3.396a1.587 1.587 0 1 1 0-3.174 1.587 1.587 0 0 1 0 3.174z" fill="#cb1800"/><path d="M11.805 2.414a1.772 1.772 0 1 0-3.29-1.317l-.529 1.317 3.291 1.321.531-1.321h-.003zM4.463 15.971l1.491-1.273-1.676-.668.185 1.941zm-.391-3.782l3.289 1.319 3.554-8.869-3.29-1.318-3.553 8.868z" mask="url(#a)"/></svg>