<?xml version="1.0"?><!DOCTYPE svg PUBLIC "-//W3C//DTD SVG 1.1//EN" "http://www.w3.org/Graphics/SVG/1.1/DTD/svg11.dtd"><svg width="16px" height="16px" xmlns="http://www.w3.org/2000/svg" viewBox="0 0 16 16" shape-rendering="geometricPrecision" fill="#ffad00"><defs><mask id="visibility-invisible-path"><rect fill="#fff" width="100%" height="100%"/><path d="M12.997,0.858c-1.845,0-3.446,1.039-4.253,2.563c0.808,1.523,2.408,2.562,4.253,2.562 c1.844,0,3.444-1.039,4.253-2.562C16.441,1.897,14.841,0.858,12.997,0.858z" fill="#000"/></mask></defs><g id="visibility-invisible" display="inline" fill="#cb1800"><g><g><path d="M12.997,1.611c-1.303,0-2.433,0.733-3.003,1.81c0.57,1.075,1.7,1.809,3.003,1.809c1.302,0,2.432-0.733,3.003-1.809 C15.429,2.345,14.299,1.611,12.997,1.611z M12.996,5.007c-0.876,0-1.587-0.71-1.587-1.586c0-0.877,0.711-1.588,1.587-1.588 c0.877,0,1.588,0.711,1.588,1.588C14.584,4.297,13.873,5.007,12.996,5.007z"/></g></g></g><path mask="url(#visibility-invisible-path)" d="M7.394,4.755L6.578,2.832H2.798L1.982,4.755H0.861V14h14.278V4.755H7.394z M10.438,8.304 c0.542,0,0.979,0.438,0.979,0.979c0,0.54-0.437,0.978-0.979,0.978c-0.54,0-0.978-0.438-0.978-0.978 C9.46,8.742,9.898,8.304,10.438,8.304z M7.733,6.062c0.542,0,0.979,0.438,0.979,0.978c0,0.541-0.437,0.979-0.979,0.979 c-0.54,0-0.978-0.438-0.978-0.979C6.754,6.5,7.193,6.062,7.733,6.062z M5.567,7.145c0.542,0,0.979,0.438,0.979,0.978 c0,0.541-0.437,0.979-0.979,0.979c-0.54,0-0.979-0.438-0.979-0.979C4.588,7.583,5.027,7.145,5.567,7.145z M6.956,11.735H4.178 V10.51c0-0.519,0.422-0.944,0.941-0.944h0.894c0.518,0,0.943,0.425,0.943,0.944V11.735z M6.348,9.389 c0.02-0.502,0.43-0.905,0.936-0.905h0.894c0.519,0,0.943,0.425,0.943,0.943v1.226H7.188V10.51C7.188,9.978,6.832,9.534,6.348,9.389 z M11.828,12.894H9.05v-1.226c0-0.518,0.421-0.943,0.94-0.943h0.894c0.519,0,0.944,0.425,0.944,0.943V12.894z"/></svg>