<?xml version="1.0"?><!DOCTYPE svg PUBLIC "-//W3C//DTD SVG 1.1//EN" "http://www.w3.org/Graphics/SVG/1.1/DTD/svg11.dtd"><svg width="16px" height="16px" xmlns="http://www.w3.org/2000/svg" viewBox="0 0 16 16" shape-rendering="geometricPrecision" fill="#ffad00"><defs><mask id="visibility-invisible-path"><rect fill="#fff" width="100%" height="100%"/><path d="M12.997,0.858c-1.845,0-3.446,1.039-4.253,2.563c0.808,1.523,2.408,2.562,4.253,2.562 c1.844,0,3.444-1.039,4.253-2.562C16.441,1.897,14.841,0.858,12.997,0.858z" fill="#000"/></mask></defs><g id="visibility-invisible" display="inline" fill="#cb1800"><g><g><path d="M12.997,1.611c-1.303,0-2.433,0.733-3.003,1.81c0.57,1.075,1.7,1.809,3.003,1.809c1.302,0,2.432-0.733,3.003-1.809 C15.429,2.345,14.299,1.611,12.997,1.611z M12.996,5.007c-0.876,0-1.587-0.71-1.587-1.586c0-0.877,0.711-1.588,1.587-1.588 c0.877,0,1.588,0.711,1.588,1.588C14.584,4.297,13.873,5.007,12.996,5.007z"/></g></g></g><g mask="url(#visibility-invisible-path)"><g><path d="M11.636,3.477h-9.03c-1.423,0-2.578,1.117-2.579,2.494v4.865c0.001,1.373,1.156,2.49,2.579,2.492h0.199 c-0.098,0.396-0.33,0.832-0.844,1.285L0.363,16l2.125-0.314c2.408-0.369,3.896-1.771,4.432-2.357h4.717 c1.425-0.002,2.578-1.119,2.579-2.492V5.971C14.214,4.594,13.061,3.477,11.636,3.477z M12.934,10.836 c0,0.686-0.588,1.254-1.298,1.256H6.299l-0.191,0.246c-0.034,0.049-0.801,1.002-2.167,1.633c0.155-0.416,0.215-0.818,0.211-1.17 c0-0.025,0-0.062-0.002-0.109l-0.018-0.6H2.606c-0.71-0.002-1.298-0.57-1.298-1.256V5.971c0-0.689,0.588-1.256,1.298-1.258h9.03 c0.71,0.002,1.298,0.568,1.298,1.258V10.836z"/><path d="M13.854,1.607H3.987c-0.828,0-1.542,0.488-1.891,1.184c0.287-0.144,0.604-0.232,0.946-0.232h9.866 c1.166,0,2.119,0.951,2.119,2.117v5.504c0,0.336-0.087,0.65-0.226,0.934c0.69-0.35,1.172-1.059,1.172-1.883V3.727 C15.973,2.562,15.019,1.607,13.854,1.607z"/><rect x="2.601" y="8.631" width="8.93" height="1.244"/><rect x="2.601" y="6.051" width="8.93" height="1.246"/></g></g></svg>