<?xml version="1.0"?><!DOCTYPE svg PUBLIC "-//W3C//DTD SVG 1.1//EN" "http://www.w3.org/Graphics/SVG/1.1/DTD/svg11.dtd"><svg width="16px" height="16px" xmlns="http://www.w3.org/2000/svg" viewBox="0 0 16 16" shape-rendering="geometricPrecision" fill="#ffad00"><defs><mask id="visibility-invisible-path"><rect fill="#fff" width="100%" height="100%"/><path d="M12.997,0.858c-1.845,0-3.446,1.039-4.253,2.563c0.808,1.523,2.408,2.562,4.253,2.562 c1.844,0,3.444-1.039,4.253-2.562C16.441,1.897,14.841,0.858,12.997,0.858z" fill="#000"/></mask></defs><g id="visibility-invisible" display="inline" fill="#cb1800"><g><g><path d="M12.997,1.611c-1.303,0-2.433,0.733-3.003,1.81c0.57,1.075,1.7,1.809,3.003,1.809c1.302,0,2.432-0.733,3.003-1.809 C15.429,2.345,14.299,1.611,12.997,1.611z M12.996,5.007c-0.876,0-1.587-0.71-1.587-1.586c0-0.877,0.711-1.588,1.587-1.588 c0.877,0,1.588,0.711,1.588,1.588C14.584,4.297,13.873,5.007,12.996,5.007z"/></g></g></g><g mask="url(#visibility-invisible-path)"><g><g><path d="M12.127,5.803L9.186,8.742c0.373,0.336,0.612,0.818,0.612,1.359c0,1.015-0.822,1.838-1.837,1.838 s-1.837-0.823-1.837-1.838c0-0.561,0.256-1.056,0.652-1.393L3.834,5.765C2.688,6.857,1.97,8.394,1.97,10.102 c0,3.309,2.682,5.991,5.991,5.991c3.309,0,5.991-2.683,5.991-5.991C13.951,8.413,13.25,6.891,12.127,5.803z"/></g><path d="M4.004,0L1.929,2.076l6.068,6.073l6.075-6.073L11.998,0L8.001,3.995L4.004,0z"/></g></g></svg>