<svg width="16" height="16" xmlns="http://www.w3.org/2000/svg" viewBox="0 0 16 16" shape-rendering="geometricPrecision" fill="#ffad00"><defs><mask id="a"><rect fill="#fff" width="100%" height="100%"/><path d="M12.997.858a4.809 4.809 0 0 0-4.253 2.563 4.81 4.81 0 0 0 8.506 0A4.812 4.812 0 0 0 12.997.858z" fill="#000"/></mask></defs><path d="M12.997 1.611a3.394 3.394 0 0 0-3.003 1.81 3.397 3.397 0 0 0 6.006 0 3.398 3.398 0 0 0-3.003-1.81zm-.001 3.396a1.587 1.587 0 1 1 0-3.174 1.587 1.587 0 0 1 0 3.174z" fill="#cb1800"/><path d="M11.231 3.39c.002-.046.008-.09.008-.136a3.24 3.24 0 1 0-6.273-1.138l1.312.399a1.872 1.872 0 1 1 3.023 2.08c-.583.621-1.03.621-2.176 1.235-1.824.984-2.271 2.511-2.366 3.414v6.744h6.482V3.39h-.01zM7.445 15.148l-2.33-2.328 1.024-1.024 1.303 1.303 2.492-2.489 1.024 1.026-3.513 3.512z" mask="url(#a)"/></svg>