<svg width="16" height="16" xmlns="http://www.w3.org/2000/svg" viewBox="0 0 16 16" shape-rendering="geometricPrecision" fill="#ffad00"><defs><mask id="a"><rect fill="#fff" width="100%" height="100%"/><path d="M12.997.858a4.809 4.809 0 0 0-4.253 2.563 4.81 4.81 0 0 0 8.506 0A4.812 4.812 0 0 0 12.997.858z" fill="#000"/></mask></defs><path d="M12.997 1.611a3.394 3.394 0 0 0-3.003 1.81 3.397 3.397 0 0 0 6.006 0 3.398 3.398 0 0 0-3.003-1.81zm-.001 3.396a1.587 1.587 0 1 1 0-3.174 1.587 1.587 0 0 1 0 3.174z" fill="#cb1800"/><g mask="url(#a)"><path d="M1.062 8.003a6.939 6.939 0 1 0 13.875-.005 6.939 6.939 0 0 0-13.875.005zm1.403 0a5.543 5.543 0 0 1 5.534-5.537 5.544 5.544 0 0 1 5.536 5.537 5.543 5.543 0 0 1-5.536 5.531 5.54 5.54 0 0 1-5.534-5.531z"/><path d="M7.966 8.038V3.331c.012 0 .022-.003.034-.003a4.682 4.682 0 0 1 4.674 4.675A4.68 4.68 0 0 1 8 12.673c-1.723-.003-3.21-.946-4.02-2.333l3.986-2.302z"/></g></svg>