<svg width="16" height="16" xmlns="http://www.w3.org/2000/svg" viewBox="0 0 16 16" shape-rendering="geometricPrecision" fill="#24437c"><defs><mask id="a"><rect fill="#fff" width="100%" height="100%"/><path fill="#000" d="M14.934-.397l-2.039 2.036-2.037-2.036-2.472 2.47 4.511 4.51 4.507-4.51z"/></mask></defs><path fill="#cb1800" d="M12.895 3.052l-2.037-2.035L9.8 2.073l3.097 3.096 3.093-3.096-1.057-1.056z"/><g mask="url(#a)"><path d="M7.999 1a7 7 0 1 0 .003 14 7 7 0 0 0-.003-14zm0 12.584a5.59 5.59 0 0 1-5.583-5.581 5.593 5.593 0 0 1 5.583-5.587 5.594 5.594 0 0 1 5.585 5.587 5.593 5.593 0 0 1-5.585 5.581zm3.423-3.53L9.366 7.999l2.057-2.057-1.448-1.45L7.917 6.55 5.86 4.493 4.412 5.941l2.057 2.056-2.059 2.058 1.451 1.45 2.058-2.058 2.056 2.057 1.447-1.45z"/></g></svg>