<svg width="16" height="16" xmlns="http://www.w3.org/2000/svg" viewBox="0 0 16 16" shape-rendering="geometricPrecision" fill="#24437c"><defs><mask id="a"><rect fill="#fff" width="100%" height="100%"/><path fill="#000" d="M14.934-.397l-2.039 2.036-2.037-2.036-2.472 2.47 4.511 4.51 4.507-4.51z"/></mask></defs><path fill="#cb1800" d="M12.895 3.052l-2.037-2.035L9.8 2.073l3.097 3.096 3.093-3.096-1.057-1.056z"/><g mask="url(#a)"><path d="M11.031 9.168H9.307v.744h1.724v-.744zM7.068 6.992l.973-2.429L5.5 3.544 4.12 6.992H.892v9.007h14.216V6.992h-8.04zm.437 8.013H1.882V7.982h1.84l-.966 2.413 2.54 1.019 1.375-3.432h.834v7.023zm6.612 0h-5.62V7.982h5.62v7.023zm-1.259-4.499H9.307v.745h3.551v-.745zM8.731 2.843H8.73a1.367 1.367 0 0 0-.764-1.771 1.37 1.37 0 0 0-1.778.755L5.78 2.843l2.542 1.022.409-1.022zM3.058 13.316l1.152-.983-1.295-.517.143 1.5z"/></g></svg>