<svg width="16" height="16" xmlns="http://www.w3.org/2000/svg" viewBox="0 0 16 16" shape-rendering="geometricPrecision" fill="#24437c"><defs><mask id="a"><rect fill="#fff" width="100%" height="100%"/><path fill="#000" d="M14.934-.397l-2.039 2.036-2.037-2.036-2.472 2.47 4.511 4.51 4.507-4.51z"/></mask></defs><path fill="#cb1800" d="M12.895 3.052l-2.037-2.035L9.8 2.073l3.097 3.096 3.093-3.096-1.057-1.056z"/><g mask="url(#a)"><path d="M12.5 3.976H3.562c-.859 0-1.556.697-1.556 1.556v4.906c0 .859.697 1.556 1.556 1.556H12.5c.859 0 1.556-.697 1.556-1.556V5.532c0-.859-.697-1.556-1.556-1.556zm-5.564 6.225l.001-4.265L9.75 8.068l-2.814 2.133z"/></g></svg>