<svg width="16" height="16" xmlns="http://www.w3.org/2000/svg" viewBox="0 0 16 16" shape-rendering="geometricPrecision" fill="#24437c"><defs><mask id="a"><rect fill="#fff" width="100%" height="100%"/><path fill="#000" d="M13.135-1h-3.55v7.956H16V-1z"/></mask></defs><path d="M10.585 0h1.55v5.956h-1.55zm2.865 0H15v5.956h-1.55z" fill="#cb1800"/><g mask="url(#a)"><path d="M7.983 8.903L3.694 6.274.793 8.596c.046.096 4.25 2.737 4.25 2.737L7.98 9.125l3.028 2.206 4.352-2.617-3.1-2.494-4.277 2.683z"/><path d="M7.98 9.955l-2.927 2.197-1.455-.813v.83l4.4 2.786 4.366-2.786v-.83l-1.37.813zm3.104-8.91L7.98 3.59l4.28 2.628 3.102-2.426zM.638 3.928L3.702 6.27 7.98 3.59 5.041 1.047zM12.259 6.22v-.001h.001v.001z"/></g></svg>