<svg width="16" height="16" xmlns="http://www.w3.org/2000/svg" viewBox="0 0 16 16" shape-rendering="geometricPrecision" fill="#24437c"><defs><mask id="a"><rect fill="#fff" width="100%" height="100%"/><path fill="#000" d="M13.135-1h-3.55v7.956H16V-1z"/></mask></defs><path d="M10.585 0h1.55v5.956h-1.55zm2.865 0H15v5.956h-1.55z" fill="#cb1800"/><g mask="url(#a)"><path d="M8 5.495a3 3 0 1 0 .002 6.002A3 3 0 0 0 8 5.495zm0 5.394a2.397 2.397 0 0 1-2.393-2.392A2.398 2.398 0 0 1 8 6.102a2.398 2.398 0 0 1 2.393 2.394A2.396 2.396 0 0 1 8 10.889z"/><path d="M7.558 6.475v1.861l-1.153.671.456.798 1.608-.933h.01l-.001-2.397z"/><path d="M6.799 3.47L6.5 1.979h-4L2.2 3.47H.999v10h14v-10h-8.2zm7.201 9H2v-8h12v8z"/></g></svg>