<?xml version="1.0"?><!DOCTYPE svg PUBLIC "-//W3C//DTD SVG 1.1//EN" "http://www.w3.org/Graphics/SVG/1.1/DTD/svg11.dtd"><svg width="16px" height="16px" xmlns="http://www.w3.org/2000/svg" viewBox="0 0 16 16" shape-rendering="geometricPrecision" fill="#24437c"><defs><mask id="pause-path"><rect fill="#fff" width="100%" height="100%"/><polygon points="13.135,-1 12.45,-1 9.585,-1 9.585,6.956 12.45,6.956 13.135,6.956 16,6.956 16,-1 " fill="#000"/></mask></defs><g fill="#cb1800"><g><rect x="10.585" width="1.55" height="5.956"/></g><g><rect x="13.45" width="1.55" height="5.956"/></g></g><g mask="url(#pause-path)"><g><polygon points="7.065,12.458 2,12.458 2,4.458 7,4.458 8.609,4.458 8.802,3.458 6.799,3.458 6.5,1.967 2.5,1.967 2.201,3.458 1,3.458 1,13.458 6.872,13.458"/><polygon points="9.82,4 9.627,5 14,5 14,13 8.083,13 7.89,14 15,14 15,4"/></g></g></svg>