<?xml version="1.0"?><!DOCTYPE svg PUBLIC "-//W3C//DTD SVG 1.1//EN" "http://www.w3.org/Graphics/SVG/1.1/DTD/svg11.dtd"><svg width="16px" height="16px" xmlns="http://www.w3.org/2000/svg" viewBox="0 0 16 16" shape-rendering="geometricPrecision" fill="#24437c"><defs><mask id="pause-path"><rect fill="#fff" width="100%" height="100%"/><polygon points="13.135,-1 12.45,-1 9.585,-1 9.585,6.956 12.45,6.956 13.135,6.956 16,6.956 16,-1 " fill="#000"/></mask></defs><g fill="#cb1800"><g><rect x="10.585" width="1.55" height="5.956"/></g><g><rect x="13.45" width="1.55" height="5.956"/></g></g><g mask="url(#pause-path)"><g><polygon points="9.667,4.755 9.452,5.929 14.041,5.929 14.041,12.929 8.168,12.929 7.971,14 15.139,14 15.139,4.755"/><polygon points="7.151,11.929 1.916,11.929 1.916,4.929 8.435,4.929 8.651,3.755 7.394,3.755 6.578,1.832 2.798,1.832 1.982,3.755 0.861,3.755 0.861,13 6.955,13"/></g></g></svg>