<svg width="16" height="16" xmlns="http://www.w3.org/2000/svg" viewBox="0 0 16 16" shape-rendering="geometricPrecision" fill="#6e6e6e"><defs><mask id="a"><rect fill="#fff" width="100%" height="100%"/><path fill="#000" d="M14.5 1.716L13-.371l-1.501 2.087-1.982-2.76-.836.011 1.888 6.811h4.86l1.884-6.792-.841-.013z"/></mask></defs><path fill="#FCC70A" d="M14.858 5.028H11.14L9.999.914l.749 1.043.751 1.045.75-1.045L13 .914l.75 1.043.749 1.045.751-1.045L16 .914z"/><g mask="url(#a)"><circle cx="11.278" cy="12.205" r=".769"/><circle cx="11.278" cy="7.939" r=".769"/><path d="M2.042.948V14.93h11.939V.948H2.042zm10.812 12.854H3.171v-3.138h9.682v3.138zm0-4.323H3.171V6.397h9.682v3.082zM3.171 5.213V2.077h9.682v3.136H3.171z"/><circle cx="11.278" cy="3.673" r=".769"/></g></svg>