<?xml version="1.0"?><!DOCTYPE svg PUBLIC "-//W3C//DTD SVG 1.1//EN" "http://www.w3.org/Graphics/SVG/1.1/DTD/svg11.dtd"><svg width="16px" height="16px" xmlns="http://www.w3.org/2000/svg" viewBox="0 0 16 16" shape-rendering="geometricPrecision" fill="#6e6e6e"><defs><mask id="crown-path"><rect fill="#fff" width="100%" height="100%"/><polygon points="14.5,1.716 13,-0.371 11.499,1.716 9.517,-1.044 8.681,-1.033 10.569,5.778 15.429,5.778 17.313,-1.014 16.472,-1.027 " fill="#000"/></mask></defs><g id="crown" display="inline" fill="#cb1800"><polygon fill="#FCC70A" points="14.858,5.028 11.14,5.028 9.999,0.914 10.748,1.957 11.499,3.002 12.249,1.957 13,0.914 13.75,1.957 14.499,3.002 15.25,1.957 16,0.914 "/></g><g mask="url(#crown-path)"><path d="M10.201,4.508c1.483,0,2.673,1.162,2.711,2.645l0.019,0.766l0.744,0.181 c0.772,0.188,1.311,0.875,1.311,1.672l0,0.057c-0.03,0.921-0.788,1.663-1.714,1.665H3.035c-1.115,0-2.022-0.908-2.022-2.024 c0-1.116,0.907-2.024,2.022-2.024c0.118,0,0.24,0.011,0.362,0.033l1.365,0.245L4.564,6.35C4.557,6.3,4.553,6.25,4.553,6.198 c0-0.599,0.487-1.086,1.085-1.086c0.337,0,0.65,0.154,0.858,0.423l0.783,1.012l0.793-1.004C8.59,4.885,9.366,4.508,10.201,4.508 M10.201,3.508c-1.183,0-2.235,0.554-2.915,1.415C6.905,4.43,6.308,4.112,5.637,4.112c-1.152,0-2.085,0.934-2.085,2.086 c0,0.1,0.007,0.199,0.021,0.296C3.399,6.462,3.219,6.445,3.035,6.445c-1.669,0-3.022,1.354-3.022,3.024 c0,1.67,1.353,3.024,3.022,3.024h10.237c1.5-0.003,2.714-1.22,2.714-2.721l-0.001-0.001c0-1.28-0.884-2.354-2.075-2.644 C13.861,5.12,12.219,3.508,10.201,3.508L10.201,3.508z"/></g></svg>