<svg width="16" height="16" xmlns="http://www.w3.org/2000/svg" viewBox="0 0 16 16" shape-rendering="geometricPrecision" fill="#6e6e6e"><defs><mask id="a"><rect fill="#fff" width="100%" height="100%"/><path fill="#000" d="M14.5 1.716L13-.371l-1.501 2.087-1.982-2.76-.836.011 1.888 6.811h4.86l1.884-6.792-.841-.013z"/></mask></defs><path fill="#FCC70A" d="M14.858 5.028H11.14L9.999.914l.749 1.043.751 1.045.75-1.045L13 .914l.75 1.043.749 1.045.751-1.045L16 .914z"/><g mask="url(#a)"><path d="M7.999 3.007L.701 5.591 3.853 7.29l4-1.688.663.303L4.52 7.651l3.479 1.873 7.3-3.933zM3.336 7.813l-1.692.602 1.447.779.245.133z"/><path d="M12.661 7.813l-4.662 2.512-3.001-1.617v1.514l3.001 1.617 4.692-2.529 1.665-.895zM3.899 12.542l.608.451v-5.33l-.608-.367z"/></g></svg>