<svg width="16" height="16" xmlns="http://www.w3.org/2000/svg" viewBox="0 0 16 16" shape-rendering="geometricPrecision" fill="#6e6e6e"><defs><mask id="a"><rect fill="#fff" width="100%" height="100%"/><path fill="#000" d="M14.5 1.716L13-.371l-1.501 2.087-1.982-2.76-.836.011 1.888 6.811h4.86l1.884-6.792-.841-.013z"/></mask></defs><path fill="#FCC70A" d="M14.858 5.028H11.14L9.999.914l.749 1.043.751 1.045.75-1.045L13 .914l.75 1.043.749 1.045.751-1.045L16 .914z"/><g mask="url(#a)"><path d="M10.021 15.177l3.437-3.165h-3.437z"/><path d="M2.02 0v16h7.021v-4.905h4.941V0H2.02zM13 9.97H8v5H3.083v-14H13v9z"/><path d="M9.479 9.017L8.057 6.538 6.646 9.017H5.008l2.277-3.648-2.133-3.47H6.78l1.277 2.299 1.288-2.299h1.617L8.83 5.368l2.287 3.648H9.479z"/></g></svg>