<?xml version="1.0"?><!DOCTYPE svg PUBLIC "-//W3C//DTD SVG 1.1//EN" "http://www.w3.org/Graphics/SVG/1.1/DTD/svg11.dtd"><svg width="16px" height="16px" xmlns="http://www.w3.org/2000/svg" viewBox="0 0 16 16" shape-rendering="geometricPrecision" fill="#6e6e6e"><defs><mask id="crown-path"><rect fill="#fff" width="100%" height="100%"/><polygon points="14.5,1.716 13,-0.371 11.499,1.716 9.517,-1.044 8.681,-1.033 10.569,5.778 15.429,5.778 17.313,-1.014 16.472,-1.027 " fill="#000"/></mask></defs><g id="crown" display="inline" fill="#cb1800"><polygon fill="#FCC70A" points="14.858,5.028 11.14,5.028 9.999,0.914 10.748,1.957 11.499,3.002 12.249,1.957 13,0.914 13.75,1.957 14.499,3.002 15.25,1.957 16,0.914 "/></g><path mask="url(#crown-path)" d="M6.035,15.636V8.96c0-0.143-0.049-0.284-0.137-0.396L0,1.072h16l-5.818,7.389 c-0.14,0.179-0.218,0.402-0.218,0.628v4.378L6.035,15.636z M2.109,2.096L6.703,7.93c0.23,0.292,0.357,0.658,0.357,1.03v4.942 l1.881-1.038V9.089c0-0.455,0.155-0.903,0.438-1.261l4.512-5.732H2.109z"/></svg>