<svg width="16" height="16" xmlns="http://www.w3.org/2000/svg" viewBox="0 0 16 16" shape-rendering="geometricPrecision" fill="#6e6e6e"><defs><mask id="a"><rect fill="#fff" width="100%" height="100%"/><path fill="#000" d="M14.5 1.716L13-.371l-1.501 2.087-1.982-2.76-.836.011 1.888 6.811h4.86l1.884-6.792-.841-.013z"/></mask></defs><path fill="#FCC70A" d="M14.858 5.028H11.14L9.999.914l.749 1.043.751 1.045.75-1.045L13 .914l.75 1.043.749 1.045.751-1.045L16 .914z"/><g mask="url(#a)"><path d="M2.131 11.885V7.242l2.654 2.654 3.757-3.758 1.98 1.981 3.566-3.565-.92-.919-2.645 2.641-1.06-1.059.009-.009-.92-.92-3.768 3.765L2.14 5.411l-.009.01V3.738H1.037v9.242l.797-.002v.002h13.129v-1.095z"/></g></svg>