<svg width="16" height="16" xmlns="http://www.w3.org/2000/svg" viewBox="0 0 16 16" shape-rendering="geometricPrecision" fill="#6e6e6e"><defs><mask id="a"><rect fill="#fff" width="100%" height="100%"/><path fill="#000" d="M14.5 1.716L13-.371l-1.501 2.087-1.982-2.76-.836.011 1.888 6.811h4.86l1.884-6.792-.841-.013z"/></mask></defs><path fill="#FCC70A" d="M14.858 5.028H11.14L9.999.914l.749 1.043.751 1.045.75-1.045L13 .914l.75 1.043.749 1.045.751-1.045L16 .914z"/><g mask="url(#a)"><path d="M9.325 5.321c-.372-.324-.84-.576-1.26-.576-.432 0-.647.168-.647.468 0 .852 3.25.923 3.25 3.094 0 .696-.359 1.211-.983 1.595.168.252.276.552.276.923 0 1.08-.804 1.895-2.303 1.895-.876 0-1.787-.324-2.327-1.007l1.02-.899c.384.396.84.611 1.308.611.491 0 .719-.216.719-.516 0-.936-3.154-.852-3.154-3.106 0-.6.372-1.175.96-1.535-.217-.251-.349-.575-.349-.995 0-1.08.791-1.835 2.135-1.835.923 0 1.667.396 2.158.779l-.803 1.104zm-.551 3.838c.275-.168.407-.384.407-.708 0-.755-1.115-.996-2.051-1.475-.275.18-.42.408-.42.695 0 .756 1.14.996 2.064 1.488z"/><path d="M8 1.001a7 7 0 1 0 .003 14 7 7 0 0 0-.003-14zm0 12.584a5.59 5.59 0 0 1-5.583-5.581A5.593 5.593 0 0 1 8 2.417a5.594 5.594 0 0 1 5.585 5.587A5.593 5.593 0 0 1 8 13.585z"/></g></svg>