<svg width="16" height="16" xmlns="http://www.w3.org/2000/svg" viewBox="0 0 16 16" shape-rendering="geometricPrecision" fill="#6e6e6e"><defs><mask id="a"><rect fill="#fff" width="100%" height="100%"/><path fill="#000" d="M14.5 1.716L13-.371l-1.501 2.087-1.982-2.76-.836.011 1.888 6.811h4.86l1.884-6.792-.841-.013z"/></mask></defs><path fill="#FCC70A" d="M14.858 5.028H11.14L9.999.914l.749 1.043.751 1.045.75-1.045L13 .914l.75 1.043.749 1.045.751-1.045L16 .914z"/><g mask="url(#a)"><path d="M1.001 8.003a7 7 0 0 1 7-7.002v1.416a5.593 5.593 0 0 0-5.584 5.586 5.592 5.592 0 0 0 5.584 5.58 5.591 5.591 0 0 0 5.583-5.58 5.592 5.592 0 0 0-5.583-5.586V1.001a7 7 0 0 1 0 13.998 7 7 0 0 1-7-6.996z"/><path d="M8.463 8.001l-2.921 2.922 1.517 1.514 4.438-4.44L7.06 3.563 5.542 5.08z"/></g></svg>