<svg width="16" height="16" xmlns="http://www.w3.org/2000/svg" viewBox="0 0 16 16" shape-rendering="geometricPrecision" fill="#6e6e6e"><defs><mask id="a"><rect fill="#fff" width="100%" height="100%"/><path fill="#000" d="M14.5 1.716L13-.371l-1.501 2.087-1.982-2.76-.836.011 1.888 6.811h4.86l1.884-6.792-.841-.013z"/></mask></defs><path fill="#FCC70A" d="M14.858 5.028H11.14L9.999.914l.749 1.043.751 1.045.75-1.045L13 .914l.75 1.043.749 1.045.751-1.045L16 .914z"/><path d="M12.243 5.062L10.664 6.64l-3.04-3.038-3.04 3.038-1.578-1.578L7.627.442zM2.02 9.705V16h11.148V9.684l-5.589 4.497L2.02 9.705zm0-1.607v.016l5.559 4.499 5.589-4.494v-.021H2.02z" mask="url(#a)"/></svg>