<svg width="16" height="16" xmlns="http://www.w3.org/2000/svg" viewBox="0 0 16 16" shape-rendering="geometricPrecision" fill="#6e6e6e"><defs><mask id="a"><rect fill="#fff" width="100%" height="100%"/><path fill="#000" d="M14.5 1.716L13-.371l-1.501 2.087-1.982-2.76-.836.011 1.888 6.811h4.86l1.884-6.792-.841-.013z"/></mask></defs><path fill="#FCC70A" d="M14.858 5.028H11.14L9.999.914l.749 1.043.751 1.045.75-1.045L13 .914l.75 1.043.749 1.045.751-1.045L16 .914z"/><g mask="url(#a)"><path d="M11.348 7.312a1.992 1.992 0 0 1 1.779 1.146V4.747H9.053a1.978 1.978 0 0 0 1.081-1.737 1.992 1.992 0 0 0-3.982-.04 1.978 1.978 0 0 0 1.077 1.777H2.873v10.254h2.951a1.992 1.992 0 1 1 2.905-1.747 1.992 1.992 0 0 1-1.083 1.747h5.481v-4.845a1.992 1.992 0 0 1-3.792-.873 1.992 1.992 0 0 1 2.013-1.971z"/></g></svg>