<?xml version="1.0"?><!DOCTYPE svg PUBLIC "-//W3C//DTD SVG 1.1//EN" "http://www.w3.org/Graphics/SVG/1.1/DTD/svg11.dtd"><svg width="16px" height="16px" xmlns="http://www.w3.org/2000/svg" viewBox="0 0 16 16" shape-rendering="geometricPrecision" fill="#6e6e6e"><defs><mask id="crown-path"><rect fill="#fff" width="100%" height="100%"/><polygon points="14.5,1.716 13,-0.371 11.499,1.716 9.517,-1.044 8.681,-1.033 10.569,5.778 15.429,5.778 17.313,-1.014 16.472,-1.027 " fill="#000"/></mask></defs><g id="crown" display="inline" fill="#cb1800"><polygon fill="#FCC70A" points="14.858,5.028 11.14,5.028 9.999,0.914 10.748,1.957 11.499,3.002 12.249,1.957 13,0.914 13.75,1.957 14.499,3.002 15.25,1.957 16,0.914 "/></g><g mask="url(#crown-path)"><path d="M8.291,3.837H6.674v3.414h1.711c0.636,0,1.125-0.149,1.469-0.449c0.344-0.3,0.516-0.728,0.516-1.285 C10.369,4.397,9.677,3.837,8.291,3.837z"/><path d="M8,0C3.582,0,0,3.582,0,8s3.582,8,8,8c4.418,0,8-3.582,8-8S12.418,0,8,0z M11.51,7.243 c-0.317,0.489-0.753,0.845-1.305,1.066C9.653,8.531,8.861,8.642,7.83,8.642H6.674v4.734h-1.57V2.446h3.461 c1.042,0,1.872,0.281,2.492,0.844s0.93,1.317,0.93,2.266C11.986,6.191,11.827,6.754,11.51,7.243z"/></g></svg>