<svg width="16" height="16" xmlns="http://www.w3.org/2000/svg" viewBox="0 0 16 16" shape-rendering="geometricPrecision" fill="#6e6e6e"><defs><mask id="a"><rect fill="#fff" width="100%" height="100%"/><path fill="#000" d="M14.5 1.716L13-.371l-1.501 2.087-1.982-2.76-.836.011 1.888 6.811h4.86l1.884-6.792-.841-.013z"/></mask></defs><path fill="#FCC70A" d="M14.858 5.028H11.14L9.999.914l.749 1.043.751 1.045.75-1.045L13 .914l.75 1.043.749 1.045.751-1.045L16 .914z"/><g mask="url(#a)"><circle cx="6.552" cy="4.044" r="2.94"/><path d="M9.366 13.378l-.402-3.99.409-1c-.03 0-.059-.008-.089-.008H3.811a2.835 2.835 0 0 0-2.826 2.832v3.684h11.133v-3.684c0-.051-.013-.1-.016-.152l-2.736 2.318z"/><path d="M14.929 2.831a1.233 1.233 0 0 0-.69-1.598 1.233 1.233 0 0 0-1.603.68l-.368.918 2.292.92.371-.92h-.002zm-5.116 9.445l1.039-.887-1.168-.467.129 1.354zm-.272-2.634l2.291.92 2.477-6.182-2.292-.918-2.476 6.18z"/></g></svg>