<svg width="16" height="16" xmlns="http://www.w3.org/2000/svg" viewBox="0 0 16 16" shape-rendering="geometricPrecision" fill="#6e6e6e"><defs><mask id="a"><rect fill="#fff" width="100%" height="100%"/><path fill="#000" d="M14.5 1.716L13-.371l-1.501 2.087-1.982-2.76-.836.011 1.888 6.811h4.86l1.884-6.792-.841-.013z"/></mask></defs><path fill="#FCC70A" d="M14.858 5.028H11.14L9.999.914l.749 1.043.751 1.045.75-1.045L13 .914l.75 1.043.749 1.045.751-1.045L16 .914z"/><g mask="url(#a)"><path d="M7.975 1.052A6.978 6.978 0 0 0 1 8.022h2.077a4.9 4.9 0 0 1 4.897-4.896 4.9 4.9 0 0 1 4.899 4.897 4.9 4.9 0 0 1-4.898 4.9V15a6.977 6.977 0 0 0 6.973-6.977 6.973 6.973 0 0 0-6.973-6.971zm2.62 6.971a2.62 2.62 0 0 0-2.621-2.617 2.618 2.618 0 0 0 0 5.239 2.623 2.623 0 0 0 2.621-2.622z"/></g></svg>