<svg width="16" height="16" xmlns="http://www.w3.org/2000/svg" viewBox="0 0 16 16" shape-rendering="geometricPrecision" fill="#6e6e6e"><defs><mask id="a"><rect fill="#fff" width="100%" height="100%"/><path fill="#000" d="M14.5 1.716L13-.371l-1.501 2.087-1.982-2.76-.836.011 1.888 6.811h4.86l1.884-6.792-.841-.013z"/></mask></defs><path fill="#FCC70A" d="M14.858 5.028H11.14L9.999.914l.749 1.043.751 1.045.75-1.045L13 .914l.75 1.043.749 1.045.751-1.045L16 .914z"/><g mask="url(#a)"><path d="M13.997 2.942v9.965H2.958V2.942h11.039m1-1H1.958v11.965h13.039V1.942z"/><path d="M1.958 4.061h13.054v1.064H1.958z"/><path d="M5.871 4.061h1.064v9.576H5.871zm4.231 0h1.064v9.576h-1.064zM3.985 5.89h1.106v1.106H3.985zm0 5h1.106v1.106H3.985zm3.947-2.041h1.106v1.106H7.932zm0-1.853h1.106v1.106H7.932zm4.01 2.959h1.106v1.106h-1.106zm0-1.955h1.106v1.106h-1.106z"/></g></svg>