<svg width="16" height="16" xmlns="http://www.w3.org/2000/svg" viewBox="0 0 16 16" shape-rendering="geometricPrecision"><defs><mask id="a"><rect fill="#fff" width="100%" height="100%"/><path d="M12.997.858a4.809 4.809 0 0 0-4.253 2.563 4.81 4.81 0 0 0 8.506 0A4.812 4.812 0 0 0 12.997.858z"/></mask></defs><path d="M12.971 1.607c-1.315 0-2.454.74-3.029 1.825a3.425 3.425 0 0 0 6.058 0 3.43 3.43 0 0 0-3.029-1.825z" fill="#cb1800"/><path d="M11.17 3.472L9.519 5.124l3.176 3.178-3.176 3.179 1.651 1.65L16 8.305zM0 1.671l.001 12.497L6.4 15.999V2.435l-2.672-.764h4.061v13.03h1.066V.604H0v1.067zm1 .235l4.4 1.282v11.564L1 13.47V1.906z" mask="url(#a)"/></svg>