<svg width="16" height="16" xmlns="http://www.w3.org/2000/svg" viewBox="0 0 16 16" shape-rendering="geometricPrecision"><defs><mask id="a"><rect fill="#fff" width="100%" height="100%"/><path d="M12.997.858a4.809 4.809 0 0 0-4.253 2.563 4.81 4.81 0 0 0 8.506 0A4.812 4.812 0 0 0 12.997.858z"/></mask></defs><path d="M12.971 1.607c-1.315 0-2.454.74-3.029 1.825a3.425 3.425 0 0 0 6.058 0 3.43 3.43 0 0 0-3.029-1.825z" fill="#cb1800"/><g mask="url(#a)"><path d="M6.394 4.686h.844v.844h-.844zm.844.843h.844v.844h-.844zm-.844.844h.844v.845h-.844zm.844.845h.844v.844h-.844zm-.844.843h.844v.844h-.844zm.844.844h.844v.844h-.844zm-.844.844h.844v.845h-.844zm0 1.688h.844v.844h-.844zm0 1.689h.844v.844h-.844zm-.02-10.947h1.709v1.662H6.374z"/><path d="M6.886 5.904l.535-1.403a.737.737 0 0 0-.308-.892.736.736 0 0 0-.932.15l-.986 1.133.001.001a.997.997 0 0 0 .241 1.515 1.002 1.002 0 0 0 1.449-.504zm-.359-1.316a.405.405 0 1 1 .416-.696.405.405 0 0 1-.416.696z"/><path d="M7.238 3.841h.844v.845h-.844zm2.817 10.461l2.54-2.338h-2.54z"/><path d="M2.595 1.016v13.969h6.008v-4.468h4.802V1.016H2.595zm9.439 8.027h-4.79v4.601H3.917V2.318h8.116v6.725z"/></g></svg>