<?xml version="1.0"?><!DOCTYPE svg PUBLIC "-//W3C//DTD SVG 1.1//EN" "http://www.w3.org/Graphics/SVG/1.1/DTD/svg11.dtd"><svg width="16px" height="16px" xmlns="http://www.w3.org/2000/svg" viewBox="0 0 16 16" shape-rendering="geometricPrecision" fill="#000"><defs><mask id="visibility-visible-path"><rect fill="#fff" width="100%" height="100%"/><path d="M12.997,0.858c-1.845,0-3.446,1.039-4.253,2.563c0.808,1.523,2.408,2.562,4.253,2.562 c1.844,0,3.444-1.039,4.253-2.562C16.441,1.897,14.841,0.858,12.997,0.858z" fill="#000"/></mask></defs><path display="inline" d="M12.971,1.607c-1.315,0-2.454,0.74-3.029,1.825 c0.575,1.085,1.715,1.825,3.029,1.825c1.314,0,2.453-0.74,3.029-1.825C15.424,2.348,14.284,1.607,12.971,1.607z" fill="#cb1800"/><g mask="url(#visibility-visible-path)"><path d="M8,6.636C6.436,6.639,5.17,7.904,5.167,9.47C5.17,11.033,6.436,12.299,8,12.302 c1.564-0.003,2.83-1.268,2.833-2.832C10.83,7.904,9.565,6.639,8,6.636z M8.556,9.914l-1.904,1.105l-0.54-0.945L7.477,9.28V7.077 l1.089,0l0.001,2.837H8.556z"/><path d="M7.394,4.755L6.578,2.832H2.798L1.982,4.755H0.861V14h14.278V4.755H7.394z M8,13.021 C6.039,13.02,4.448,11.43,4.448,9.47c0-1.963,1.59-3.554,3.552-3.554c1.961,0,3.551,1.591,3.551,3.554 C11.551,11.43,9.962,13.02,8,13.021z"/></g></svg>