<?xml version="1.0"?><!DOCTYPE svg PUBLIC "-//W3C//DTD SVG 1.1//EN" "http://www.w3.org/Graphics/SVG/1.1/DTD/svg11.dtd"><svg width="16px" height="16px" xmlns="http://www.w3.org/2000/svg" viewBox="0 0 16 16" shape-rendering="geometricPrecision" fill="#000"><defs><mask id="visibility-visible-path"><rect fill="#fff" width="100%" height="100%"/><path d="M12.997,0.858c-1.845,0-3.446,1.039-4.253,2.563c0.808,1.523,2.408,2.562,4.253,2.562 c1.844,0,3.444-1.039,4.253-2.562C16.441,1.897,14.841,0.858,12.997,0.858z" fill="#000"/></mask></defs><path display="inline" d="M12.971,1.607c-1.315,0-2.454,0.74-3.029,1.825 c0.575,1.085,1.715,1.825,3.029,1.825c1.314,0,2.453-0.74,3.029-1.825C15.424,2.348,14.284,1.607,12.971,1.607z" fill="#cb1800"/><g mask="url(#visibility-visible-path)"><path d="M6.799,3.47L6.5,1.979h-4L2.2,3.47H0.999v10h14v-10H6.799z M14,12.47H2v-8h5h7V12.47z"/><g><polygon points="6.685,11.616 7.26,11.126 6.614,10.868"/><rect x="6.012" y="8.022" transform="matrix(0.3723 -0.9281 0.9281 0.3723 -3.1496 12.7517)" width="3.682" height="1.366"/><path d="M9.133,5.508C8.784,5.368,8.39,5.537,8.247,5.884L8.043,6.392l1.268,0.509l0.205-0.509H9.515 C9.652,6.042,9.483,5.646,9.133,5.508z"/></g></g></svg>