<svg width="16" height="16" xmlns="http://www.w3.org/2000/svg" viewBox="0 0 16 16" shape-rendering="geometricPrecision"><defs><mask id="a"><rect fill="#fff" width="100%" height="100%"/><path d="M12.997.858a4.809 4.809 0 0 0-4.253 2.563 4.81 4.81 0 0 0 8.506 0A4.812 4.812 0 0 0 12.997.858z"/></mask></defs><path d="M12.971 1.607c-1.315 0-2.454.74-3.029 1.825a3.425 3.425 0 0 0 6.058 0 3.43 3.43 0 0 0-3.029-1.825z" fill="#cb1800"/><g mask="url(#a)"><path d="M6.799 3.47L6.5 1.979h-4L2.2 3.47H.999v10h14v-10h-8.2zm7.201 9H2v-8h12v8z"/><circle cx="5.864" cy="7.27" r=".858"/><path d="M6.255 8.536h-.784a.828.828 0 0 0-.825.828v1.074h2.436V9.364a.83.83 0 0 0-.827-.828z"/><circle cx="10.136" cy="8.287" r=".858"/><path d="M10.526 9.552h-.783a.827.827 0 0 0-.824.827v1.075h2.436v-1.075a.832.832 0 0 0-.829-.827z"/><circle cx="7.763" cy="6.321" r=".858"/><path d="M8.981 9.489V8.414a.83.83 0 0 0-.827-.827H7.37a.825.825 0 0 0-.821.794c.425.127.737.517.737.983v.125h1.695z"/></g></svg>