<?xml version="1.0"?><!DOCTYPE svg PUBLIC "-//W3C//DTD SVG 1.1//EN" "http://www.w3.org/Graphics/SVG/1.1/DTD/svg11.dtd"><svg width="16px" height="16px" xmlns="http://www.w3.org/2000/svg" viewBox="0 0 16 16" shape-rendering="geometricPrecision" fill="#000"><defs><mask id="visibility-visible-path"><rect fill="#fff" width="100%" height="100%"/><path d="M12.997,0.858c-1.845,0-3.446,1.039-4.253,2.563c0.808,1.523,2.408,2.562,4.253,2.562 c1.844,0,3.444-1.039,4.253-2.562C16.441,1.897,14.841,0.858,12.997,0.858z" fill="#000"/></mask></defs><path display="inline" d="M12.971,1.607c-1.315,0-2.454,0.74-3.029,1.825 c0.575,1.085,1.715,1.825,3.029,1.825c1.314,0,2.453-0.74,3.029-1.825C15.424,2.348,14.284,1.607,12.971,1.607z" fill="#cb1800"/><g mask="url(#visibility-visible-path)"><path d="M11.985,3.584H2.119C0.953,3.584,0,4.538,0,5.703v5.503c0,1.166,0.953,2.119,2.119,2.119h0.988 c0.023,0.76-0.201,1.758-1.224,2.674c2.905-0.451,4.517-2.537,4.621-2.674h5.481c1.166,0,2.119-0.953,2.119-2.119V5.703 C14.104,4.538,13.151,3.584,11.985,3.584z M11.581,9.772h-8.93V8.528h8.93V9.772z M11.581,7.194h-8.93V5.948h8.93V7.194z M13.886,1.688H4.019c-0.829,0-1.542,0.487-1.891,1.183c0.287-0.145,0.604-0.232,0.946-0.232h9.867 c1.165,0,2.119,0.952,2.119,2.117v5.505c0,0.335-0.087,0.649-0.226,0.933c0.691-0.35,1.171-1.059,1.171-1.883V3.807 C16.005,2.642,15.052,1.688,13.886,1.688z"/></g></svg>