<svg width="16" height="16" xmlns="http://www.w3.org/2000/svg" viewBox="0 0 16 16" shape-rendering="geometricPrecision"><defs><mask id="a"><rect fill="#fff" width="100%" height="100%"/><path d="M12.997.858a4.809 4.809 0 0 0-4.253 2.563 4.81 4.81 0 0 0 8.506 0A4.812 4.812 0 0 0 12.997.858z"/></mask></defs><path d="M12.971 1.607c-1.315 0-2.454.74-3.029 1.825a3.425 3.425 0 0 0 6.058 0 3.43 3.43 0 0 0-3.029-1.825z" fill="#cb1800"/><path d="M2.991 14.879l11.856-4.523L11.871 7l-8.88 7.879zM0 1.473V16l1.618-1.436v-4.98h5.61l4.739-4.205 4.029 4.539.004-.002V1.473H0zm8.056 6.189H1.618V6.269h6.438v1.393zm6.327-2.844H1.618V3.426h12.765v1.392z" mask="url(#a)"/></svg>