<svg width="16" height="16" xmlns="http://www.w3.org/2000/svg" viewBox="0 0 16 16" shape-rendering="geometricPrecision"><defs><mask id="a"><rect fill="#fff" width="100%" height="100%"/><path d="M12.997.858a4.809 4.809 0 0 0-4.253 2.563 4.81 4.81 0 0 0 8.506 0A4.812 4.812 0 0 0 12.997.858z"/></mask></defs><path d="M12.971 1.607c-1.315 0-2.454.74-3.029 1.825a3.425 3.425 0 0 0 6.058 0 3.43 3.43 0 0 0-3.029-1.825z" fill="#cb1800"/><g mask="url(#a)"><path d="M14.017 5.94a5.938 5.938 0 0 0-11.875 0c0 1.172.345 2.262.932 3.184l-.006-.004.041.06c.046.071.096.14.145.209L8.114 16l4.833-6.665.093-.136.025-.036-.005.001a5.902 5.902 0 0 0 .957-3.224zm-5.938 4.567a4.565 4.565 0 1 1 0-9.133 4.565 4.565 0 0 1 0 9.133z"/><circle cx="8.079" cy="5.914" r="2.242"/></g></svg>