<svg width="16" height="16" xmlns="http://www.w3.org/2000/svg" viewBox="0 0 16 16" shape-rendering="geometricPrecision"><defs><mask id="a"><rect fill="#fff" width="100%" height="100%"/><path d="M12.997.858a4.809 4.809 0 0 0-4.253 2.563 4.81 4.81 0 0 0 8.506 0A4.812 4.812 0 0 0 12.997.858z"/></mask></defs><path d="M12.971 1.607c-1.315 0-2.454.74-3.029 1.825a3.425 3.425 0 0 0 6.058 0 3.43 3.43 0 0 0-3.029-1.825z" fill="#cb1800"/><g mask="url(#a)"><path d="M14.479 9.852V8.649h-2.566V1.632H6.599L3.896 4.124v4.525H1.569v1.202H.966v4.518h14.069V9.852h-.556zM6.645 2.73v1.403H5.121L6.645 2.73zM4.635 5h2.88V2.321h3.604v8.377H4.635V5zm8.237 6.546a.711.711 0 1 1 0-1.422.711.711 0 0 1 0 1.422z"/><path d="M5.624 5.738h4.57v.866h-4.57zm0 1.625h4.57v.866h-4.57z"/></g></svg>