<?xml version="1.0"?><!DOCTYPE svg PUBLIC "-//W3C//DTD SVG 1.1//EN" "http://www.w3.org/Graphics/SVG/1.1/DTD/svg11.dtd"><svg width="16px" height="16px" xmlns="http://www.w3.org/2000/svg" viewBox="0 0 16 16" shape-rendering="geometricPrecision" fill="#000"><defs><mask id="visibility-visible-path"><rect fill="#fff" width="100%" height="100%"/><path d="M12.997,0.858c-1.845,0-3.446,1.039-4.253,2.563c0.808,1.523,2.408,2.562,4.253,2.562 c1.844,0,3.444-1.039,4.253-2.562C16.441,1.897,14.841,0.858,12.997,0.858z" fill="#000"/></mask></defs><path display="inline" d="M12.971,1.607c-1.315,0-2.454,0.74-3.029,1.825 c0.575,1.085,1.715,1.825,3.029,1.825c1.314,0,2.453-0.74,3.029-1.825C15.424,2.348,14.284,1.607,12.971,1.607z" fill="#cb1800"/><g mask="url(#visibility-visible-path)"><path d="M14.479,9.852V8.649h-2.566V1.632H6.599L3.896,4.124v4.525H1.569v1.202H0.966v4.518h0.604h12.91h0.555 V9.852H14.479z M6.645,2.73v1.403H5.121L6.645,2.73z M4.635,5h2.88V2.321h3.604v8.377H4.635V5z M12.872,11.546 c-0.393,0-0.711-0.319-0.711-0.711c0-0.394,0.318-0.711,0.711-0.711c0.392,0,0.711,0.317,0.711,0.711 C13.583,11.227,13.264,11.546,12.872,11.546z"/><rect x="5.624" y="5.738" width="4.57" height="0.866"/><rect x="5.624" y="7.363" width="4.57" height="0.866"/></g></svg>