<?xml version="1.0"?><!DOCTYPE svg PUBLIC "-//W3C//DTD SVG 1.1//EN" "http://www.w3.org/Graphics/SVG/1.1/DTD/svg11.dtd"><svg width="16px" height="16px" xmlns="http://www.w3.org/2000/svg" viewBox="0 0 16 16" shape-rendering="geometricPrecision" fill="#000"><defs><mask id="visibility-visible-path"><rect fill="#fff" width="100%" height="100%"/><path d="M12.997,0.858c-1.845,0-3.446,1.039-4.253,2.563c0.808,1.523,2.408,2.562,4.253,2.562 c1.844,0,3.444-1.039,4.253-2.562C16.441,1.897,14.841,0.858,12.997,0.858z" fill="#000"/></mask></defs><path display="inline" d="M12.971,1.607c-1.315,0-2.454,0.74-3.029,1.825 c0.575,1.085,1.715,1.825,3.029,1.825c1.314,0,2.453-0.74,3.029-1.825C15.424,2.348,14.284,1.607,12.971,1.607z" fill="#cb1800"/><g mask="url(#visibility-visible-path)"><path d="M7.468,11.335c-1.04,0-1.782,0.742-1.782,1.824c0,1.041,0.722,1.822,1.763,1.822h0.02 c1.083,0,1.805-0.781,1.805-1.822C9.253,12.077,8.551,11.335,7.468,11.335z M7.749,1.018c-1.422,0-2.604,0.4-3.345,0.822 l0.681,2.182c0.52-0.359,1.322-0.6,1.983-0.6c1.002,0.041,1.463,0.5,1.463,1.203c0,0.68-0.521,1.32-1.162,2.102 C6.468,7.79,6.127,8.833,6.188,9.853l0.02,0.521h2.664v-0.361c-0.02-0.9,0.281-1.682,1.021-2.504 c0.762-0.84,1.702-1.842,1.702-3.365C11.595,2.481,10.395,1.018,7.749,1.018z"/></g></svg>