<?xml version="1.0"?><!DOCTYPE svg PUBLIC "-//W3C//DTD SVG 1.1//EN" "http://www.w3.org/Graphics/SVG/1.1/DTD/svg11.dtd"><svg width="16px" height="16px" xmlns="http://www.w3.org/2000/svg" viewBox="0 0 16 16" shape-rendering="geometricPrecision" fill="#000"><defs><mask id="visibility-visible-path"><rect fill="#fff" width="100%" height="100%"/><path d="M12.997,0.858c-1.845,0-3.446,1.039-4.253,2.563c0.808,1.523,2.408,2.562,4.253,2.562 c1.844,0,3.444-1.039,4.253-2.562C16.441,1.897,14.841,0.858,12.997,0.858z" fill="#000"/></mask></defs><path display="inline" d="M12.971,1.607c-1.315,0-2.454,0.74-3.029,1.825 c0.575,1.085,1.715,1.825,3.029,1.825c1.314,0,2.453-0.74,3.029-1.825C15.424,2.348,14.284,1.607,12.971,1.607z" fill="#cb1800"/><path mask="url(#visibility-visible-path)" d="M13.053,8.004c0.064-0.324,0.101-0.657,0.101-1c0-2.859-2.318-5.179-5.18-5.179 c-2.857,0-5.178,2.319-5.178,5.177h1.541c0.002-2.007,1.631-3.637,3.637-3.637c2.01,0,3.639,1.631,3.639,3.639 c0,0.35-0.065,0.681-0.157,1H9.636c0.177-0.293,0.285-0.633,0.285-1c0-1.074-0.873-1.946-1.947-1.946S6.03,5.93,6.03,7.004 c0,0.367,0.107,0.707,0.284,1H0.958v5.482h14.084V8.004H13.053z M11.377,10.745H4.622v-1.46h6.755V10.745z"/></svg>