<?xml version="1.0"?><!DOCTYPE svg PUBLIC "-//W3C//DTD SVG 1.1//EN" "http://www.w3.org/Graphics/SVG/1.1/DTD/svg11.dtd"><svg width="16px" height="16px" xmlns="http://www.w3.org/2000/svg" viewBox="0 0 16 16" shape-rendering="geometricPrecision" fill="#000"><defs><mask id="visibility-visible-path"><rect fill="#fff" width="100%" height="100%"/><path d="M12.997,0.858c-1.845,0-3.446,1.039-4.253,2.563c0.808,1.523,2.408,2.562,4.253,2.562 c1.844,0,3.444-1.039,4.253-2.562C16.441,1.897,14.841,0.858,12.997,0.858z" fill="#000"/></mask></defs><path display="inline" d="M12.971,1.607c-1.315,0-2.454,0.74-3.029,1.825 c0.575,1.085,1.715,1.825,3.029,1.825c1.314,0,2.453-0.74,3.029-1.825C15.424,2.348,14.284,1.607,12.971,1.607z" fill="#cb1800"/><g mask="url(#visibility-visible-path)"><g><g><g><path d="M8,12.965c-3.308,0-6.327-1.819-7.88-4.746L0.004,8.001L0.12,7.782C1.672,4.854,4.692,3.035,8,3.035 c3.306,0,6.326,1.819,7.88,4.747l0.117,0.219L15.88,8.22C14.325,11.147,11.306,12.965,8,12.965z M1.065,8.001 C2.487,10.494,5.121,12.032,8,12.032c2.877,0,5.511-1.538,6.935-4.031C13.511,5.507,10.877,3.968,8,3.968 C5.121,3.968,2.487,5.507,1.065,8.001z"/></g></g></g><polygon points="11.792,6.774 10.446,5.429 7.178,8.696 5.468,6.987 4.124,8.331 7.18,11.386"/></g></svg>