<svg width="16" height="16" xmlns="http://www.w3.org/2000/svg" viewBox="0 0 16 16" shape-rendering="geometricPrecision"><defs><mask id="a"><rect fill="#fff" width="100%" height="100%"/><path d="M12.997.858a4.809 4.809 0 0 0-4.253 2.563 4.81 4.81 0 0 0 8.506 0A4.812 4.812 0 0 0 12.997.858z"/></mask></defs><path d="M12.971 1.607c-1.315 0-2.454.74-3.029 1.825a3.425 3.425 0 0 0 6.058 0 3.43 3.43 0 0 0-3.029-1.825z" fill="#cb1800"/><g mask="url(#a)"><path d="M10.692 3.736H7.596v8.984h3.096V3.736zM6.403 8.562H3.305v4.158h3.098V8.562zm5.484-2.109v6.268h3.096V6.453h-3.096zM2.115 5.73H1.017V15l.799-.002V15h13.167v-1.1H2.114l.001-8.17z"/></g></svg>