<?xml version="1.0"?><!DOCTYPE svg PUBLIC "-//W3C//DTD SVG 1.1//EN" "http://www.w3.org/Graphics/SVG/1.1/DTD/svg11.dtd"><svg width="16px" height="16px" xmlns="http://www.w3.org/2000/svg" viewBox="0 0 16 16" shape-rendering="geometricPrecision" fill="#24437c"><defs><mask id="edit-path"><rect fill="#fff" width="100%" height="100%"/><path d="M15.568,0.488c0.365-0.9-0.337-1.487-0.851-1.704c-0.593-0.25-1.396-0.157-1.78,0.752l-0.142,0.357 l-2.14,5.317l0.603,2.278l1.98-1.23l2.202-5.47L15.568,0.488z" fill="#000"/></mask></defs><g id="edit_3_" display="inline" fill="#cb1800"><polygon points="11.686,6.423 12.286,5.91 11.611,5.641 "/><path d="M14.245,0.038c-0.365-0.147-0.778,0.03-0.927,0.393l-0.213,0.531l1.326,0.532l0.214-0.532h-0.001 C14.787,0.597,14.61,0.183,14.245,0.038z"/><rect x="10.982" y="2.666" transform="matrix(0.3723 -0.9281 0.9281 0.3723 4.9642 14.0992)" width="3.849" height="1.428"/></g><g mask="url(#edit-path)"><g><g><path d="M4.622,5.865H1.017V2.262h3.604V5.865L4.622,5.865z M1.55,5.331h2.536V2.795H1.55V5.331L1.55,5.331z"/></g><g><path d="M4.622,9.803H1.017V6.199h3.604V9.803L4.622,9.803z M1.55,9.268h2.536V6.73H1.55V9.268L1.55,9.268z"/></g><g><path d="M4.622,13.738H1.017v-3.604h3.604V13.738L4.622,13.738z M1.55,13.204h2.536V10.67H1.55V13.204L1.55,13.204z"/></g><rect x="6.041" y="3.051" width="8.941" height="2.137"/><rect x="6.041" y="6.943" width="8.941" height="2.135"/><rect x="6.041" y="10.855" width="8.941" height="2.136"/><polygon points="5.248,6.887 4.621,6.258 3.098,7.779 2.301,6.984 1.675,7.609 3.099,9.034"/></g></g></svg>