<?xml version="1.0"?><!DOCTYPE svg PUBLIC "-//W3C//DTD SVG 1.1//EN" "http://www.w3.org/Graphics/SVG/1.1/DTD/svg11.dtd"><svg width="16px" height="16px" xmlns="http://www.w3.org/2000/svg" viewBox="0 0 16 16" shape-rendering="geometricPrecision" fill="#24437c"><defs><mask id="edit-path"><rect fill="#fff" width="100%" height="100%"/><path d="M15.568,0.488c0.365-0.9-0.337-1.487-0.851-1.704c-0.593-0.25-1.396-0.157-1.78,0.752l-0.142,0.357 l-2.14,5.317l0.603,2.278l1.98-1.23l2.202-5.47L15.568,0.488z" fill="#000"/></mask></defs><g id="edit_3_" fill="#cb1800"><polygon points="11.686,6.423 12.286,5.91 11.611,5.641 "/><path d="M14.245,0.038c-0.365-0.147-0.778,0.03-0.927,0.393l-0.213,0.531l1.326,0.532l0.214-0.532h-0.001 C14.787,0.597,14.61,0.183,14.245,0.038z"/><rect x="10.982" y="2.666" transform="matrix(0.3723 -0.9281 0.9281 0.3723 4.9642 14.0992)" width="3.849" height="1.428"/></g><g mask="url(#edit-path)"><g><polygon points="8.182,3.179 7.367,1.256 3.587,1.256 2.77,3.179 1.649,3.179 1.65,4.128 14.977,4.119 14.995,13.402 15.928,12.424 15.928,3.179"/><g><path d="M7.027,6.669C5.481,6.672,4.23,7.923,4.226,9.47c0.003,1.545,1.254,2.795,2.801,2.798 c1.546-0.003,2.797-1.253,2.8-2.798C9.824,7.923,8.573,6.672,7.027,6.669z M7.576,9.909l-1.881,1.092l-0.533-0.934l1.348-0.785 V7.105l1.076,0.001l0.001,2.804H7.576z"/><path d="M0.072,4.756V14h14.279V4.756H0.072z M7.027,12.979c-1.939-0.001-3.511-1.572-3.511-3.509 c0-1.94,1.572-3.512,3.511-3.512c1.938,0,3.51,1.572,3.51,3.512C10.536,11.407,8.965,12.978,7.027,12.979z"/></g></g></g></svg>