<?xml version="1.0"?><!DOCTYPE svg PUBLIC "-//W3C//DTD SVG 1.1//EN" "http://www.w3.org/Graphics/SVG/1.1/DTD/svg11.dtd"><svg width="16px" height="16px" xmlns="http://www.w3.org/2000/svg" viewBox="0 0 16 16" shape-rendering="geometricPrecision" fill="#24437c"><defs><mask id="edit-path"><rect fill="#fff" width="100%" height="100%"/><path d="M15.568,0.488c0.365-0.9-0.337-1.487-0.851-1.704c-0.593-0.25-1.396-0.157-1.78,0.752l-0.142,0.357 l-2.14,5.317l0.603,2.278l1.98-1.23l2.202-5.47L15.568,0.488z" fill="#000"/></mask></defs><g id="edit_3_" display="inline" fill="#cb1800"><polygon points="11.686,6.423 12.286,5.91 11.611,5.641 "/><path d="M14.245,0.038c-0.365-0.147-0.778,0.03-0.927,0.393l-0.213,0.531l1.326,0.532l0.214-0.532h-0.001 C14.787,0.597,14.61,0.183,14.245,0.038z"/><rect x="10.982" y="2.666" transform="matrix(0.3723 -0.9281 0.9281 0.3723 4.9642 14.0992)" width="3.849" height="1.428"/></g><g mask="url(#edit-path)"><path d="M6.655,8.121c0,0.521-0.208,0.992-0.54,1.345h3.925C9.708,9.113,9.5,8.643,9.5,8.121 c0-0.668,0.337-1.259,0.849-1.613c-0.281-0.339-0.701-0.561-1.173-0.561H6.974c-0.472,0-0.889,0.221-1.169,0.56 C6.318,6.861,6.655,7.451,6.655,8.121z"/><circle cx="8.078" cy="3.606" r="1.587"/><circle cx="4.691" cy="8.121" r="1.588"/><path d="M5.79,10.462H3.587c-0.841,0-1.525,0.689-1.525,1.53v1.988H7.32v-1.988 C7.32,11.151,6.631,10.462,5.79,10.462z"/><circle cx="11.464" cy="8.121" r="1.588"/><path d="M12.562,10.462H10.36c-0.841,0-1.525,0.689-1.525,1.53v1.988h5.258v-1.988 C14.093,11.151,13.404,10.462,12.562,10.462z"/></g></svg>