<?xml version="1.0"?><!DOCTYPE svg PUBLIC "-//W3C//DTD SVG 1.1//EN" "http://www.w3.org/Graphics/SVG/1.1/DTD/svg11.dtd"><svg width="16px" height="16px" xmlns="http://www.w3.org/2000/svg" viewBox="0 0 16 16" shape-rendering="geometricPrecision" fill="#24437c"><defs><mask id="edit-path"><rect fill="#fff" width="100%" height="100%"/><path d="M15.568,0.488c0.365-0.9-0.337-1.487-0.851-1.704c-0.593-0.25-1.396-0.157-1.78,0.752l-0.142,0.357 l-2.14,5.317l0.603,2.278l1.98-1.23l2.202-5.47L15.568,0.488z" fill="#000"/></mask></defs><g id="edit_3_" display="inline" fill="#cb1800"><polygon points="11.686,6.423 12.286,5.91 11.611,5.641 "/><path d="M14.245,0.038c-0.365-0.147-0.778,0.03-0.927,0.393l-0.213,0.531l1.326,0.532l0.214-0.532h-0.001 C14.787,0.597,14.61,0.183,14.245,0.038z"/><rect x="10.982" y="2.666" transform="matrix(0.3723 -0.9281 0.9281 0.3723 4.9642 14.0992)" width="3.849" height="1.428"/></g><g mask="url(#edit-path)"><g><path d="M7.271,8.729H1.03V8.73c0,3.443,2.795,6.239,6.238,6.239h0.002V8.729z"/><path d="M8.83,0.928c-3.442,0-6.237,2.793-6.238,6.236H4.45c0.001-2.417,1.962-4.379,4.38-4.379c2.42,0,4.382,1.963,4.382,4.38 c0,2.42-1.96,4.381-4.378,4.383v1.857c3.443-0.002,6.235-2.797,6.235-6.24C15.068,3.723,12.276,0.928,8.83,0.928z M11.174,7.165 c0-1.292-1.051-2.342-2.344-2.342c-1.293,0-2.341,1.049-2.342,2.341h2.346v2.345C10.125,9.508,11.174,8.458,11.174,7.165z"/></g></g></svg>