<?xml version="1.0"?><!DOCTYPE svg PUBLIC "-//W3C//DTD SVG 1.1//EN" "http://www.w3.org/Graphics/SVG/1.1/DTD/svg11.dtd"><svg width="16px" height="16px" xmlns="http://www.w3.org/2000/svg" viewBox="0 0 16 16" shape-rendering="geometricPrecision" fill="#24437c"><defs><mask id="edit-path"><rect fill="#fff" width="100%" height="100%"/><path d="M15.568,0.488c0.365-0.9-0.337-1.487-0.851-1.704c-0.593-0.25-1.396-0.157-1.78,0.752l-0.142,0.357 l-2.14,5.317l0.603,2.278l1.98-1.23l2.202-5.47L15.568,0.488z" fill="#000"/></mask></defs><g id="edit_3_" display="inline" fill="#cb1800"><polygon points="11.686,6.423 12.286,5.91 11.611,5.641 "/><path d="M14.245,0.038c-0.365-0.147-0.778,0.03-0.927,0.393l-0.213,0.531l1.326,0.532l0.214-0.532h-0.001 C14.787,0.597,14.61,0.183,14.245,0.038z"/><rect x="10.982" y="2.666" transform="matrix(0.3723 -0.9281 0.9281 0.3723 4.9642 14.0992)" width="3.849" height="1.428"/></g><g mask="url(#edit-path)"><path d="M7.468,11.335c-1.04,0-1.782,0.742-1.782,1.824c0,1.041,0.722,1.822,1.763,1.822h0.02 c1.083,0,1.805-0.781,1.805-1.822C9.253,12.077,8.551,11.335,7.468,11.335z M7.749,1.018c-1.422,0-2.604,0.4-3.345,0.822 l0.681,2.182c0.52-0.359,1.322-0.6,1.983-0.6c1.002,0.041,1.463,0.5,1.463,1.203c0,0.68-0.521,1.32-1.162,2.102 C6.468,7.79,6.127,8.833,6.188,9.853l0.02,0.521h2.664v-0.361c-0.02-0.9,0.281-1.682,1.021-2.504 c0.762-0.84,1.702-1.842,1.702-3.365C11.595,2.481,10.395,1.018,7.749,1.018z"/></g></svg>