<?xml version="1.0"?><!DOCTYPE svg PUBLIC "-//W3C//DTD SVG 1.1//EN" "http://www.w3.org/Graphics/SVG/1.1/DTD/svg11.dtd"><svg width="16px" height="16px" xmlns="http://www.w3.org/2000/svg" viewBox="0 0 16 16" shape-rendering="geometricPrecision" fill="#24437c"><defs><mask id="edit-path"><rect fill="#fff" width="100%" height="100%"/><path d="M15.568,0.488c0.365-0.9-0.337-1.487-0.851-1.704c-0.593-0.25-1.396-0.157-1.78,0.752l-0.142,0.357 l-2.14,5.317l0.603,2.278l1.98-1.23l2.202-5.47L15.568,0.488z" fill="#000"/></mask></defs><g id="edit_3_" display="inline" fill="#cb1800"><polygon points="11.686,6.423 12.286,5.91 11.611,5.641 "/><path d="M14.245,0.038c-0.365-0.147-0.778,0.03-0.927,0.393l-0.213,0.531l1.326,0.532l0.214-0.532h-0.001 C14.787,0.597,14.61,0.183,14.245,0.038z"/><rect x="10.982" y="2.666" transform="matrix(0.3723 -0.9281 0.9281 0.3723 4.9642 14.0992)" width="3.849" height="1.428"/></g><g mask="url(#edit-path)"><g><g><path d="M2.138,11.963c0.624,0,1.128-0.506,1.128-1.13c0-0.622-0.504-1.128-1.128-1.128c-0.623,0-1.13,0.506-1.13,1.128 C1.008,11.457,1.515,11.963,2.138,11.963z M3.187,12.499H1.085C0.486,12.499,0,12.989,0,13.587v1.414h4.276v-1.414 C4.276,12.989,3.786,12.499,3.187,12.499z"/></g><g><path d="M13.862,11.963c0.626,0,1.13-0.506,1.13-1.13c0-0.622-0.504-1.128-1.13-1.128c-0.623,0-1.128,0.506-1.128,1.128 C12.734,11.457,13.239,11.963,13.862,11.963z M14.911,12.499H12.81c-0.599,0-1.086,0.49-1.086,1.088v1.414H16v-1.414 C16,12.989,15.509,12.499,14.911,12.499z"/></g><g><path d="M8.018,2.257c0.624,0,1.128-0.505,1.128-1.129S8.642,0,8.018,0c-0.624,0-1.13,0.504-1.13,1.128S7.394,2.257,8.018,2.257 z M9.067,2.794H6.965c-0.599,0-1.085,0.489-1.085,1.088v1.413h4.276V3.882C10.156,3.283,9.666,2.794,9.067,2.794z"/></g></g><polygon points="8.528,6.989 8.528,5.985 7.508,5.985 7.508,6.989 1.984,6.989 1.984,7.586 1.984,8.001 1.984,8.973 3.041,8.973 3.041,8.001 13.013,8.001 13.013,8.973 13.958,8.973 13.958,8.001 13.958,7.586 13.958,6.989"/></g></svg>