<?xml version="1.0"?><!DOCTYPE svg PUBLIC "-//W3C//DTD SVG 1.1//EN" "http://www.w3.org/Graphics/SVG/1.1/DTD/svg11.dtd"><svg width="16px" height="16px" xmlns="http://www.w3.org/2000/svg" viewBox="0 0 16 16" shape-rendering="geometricPrecision" fill="#24437c"><defs><mask id="edit-path"><rect fill="#fff" width="100%" height="100%"/><path d="M15.568,0.488c0.365-0.9-0.337-1.487-0.851-1.704c-0.593-0.25-1.396-0.157-1.78,0.752l-0.142,0.357 l-2.14,5.317l0.603,2.278l1.98-1.23l2.202-5.47L15.568,0.488z" fill="#000"/></mask></defs><g id="edit_3_" display="inline" fill="#cb1800"><polygon points="11.686,6.423 12.286,5.91 11.611,5.641 "/><path d="M14.245,0.038c-0.365-0.147-0.778,0.03-0.927,0.393l-0.213,0.531l1.326,0.532l0.214-0.532h-0.001 C14.787,0.597,14.61,0.183,14.245,0.038z"/><rect x="10.982" y="2.666" transform="matrix(0.3723 -0.9281 0.9281 0.3723 4.9642 14.0992)" width="3.849" height="1.428"/></g><g mask="url(#edit-path)"><g><g><rect x="11.473" y="1.006" width="1.042" height="13.987"/></g><g><rect x="7.459" y="1.006" width="1.062" height="13.987"/></g><g><rect x="3.444" y="1.006" width="1.021" height="13.987"/></g><path d="M10.499,8.527V6.5c0-0.267,0.216-0.483,0.483-0.483h2.027c0.267,0,0.483,0.216,0.483,0.483v2.027 c0,0.267-0.216,0.483-0.483,0.483h-2.027C10.715,9.01,10.499,8.794,10.499,8.527z"/><path d="M6.495,5.519V3.487c0-0.267,0.216-0.483,0.483-0.483H9.01c0.267,0,0.483,0.216,0.483,0.483v2.032 c0,0.267-0.216,0.483-0.483,0.483H6.978C6.711,6.002,6.495,5.786,6.495,5.519z"/><path d="M2.495,12.517v-2.019c0-0.267,0.216-0.483,0.483-0.483h2.019c0.267,0,0.483,0.216,0.483,0.483v2.019 C5.48,12.784,5.264,13,4.997,13H2.978C2.712,13,2.495,12.784,2.495,12.517z"/></g></g></svg>