<?xml version="1.0"?><!DOCTYPE svg PUBLIC "-//W3C//DTD SVG 1.1//EN" "http://www.w3.org/Graphics/SVG/1.1/DTD/svg11.dtd"><svg width="16px" height="16px" xmlns="http://www.w3.org/2000/svg" viewBox="0 0 16 16" shape-rendering="geometricPrecision" fill="#24437c"><defs><mask id="edit-path"><rect fill="#fff" width="100%" height="100%"/><path d="M15.568,0.488c0.365-0.9-0.337-1.487-0.851-1.704c-0.593-0.25-1.396-0.157-1.78,0.752l-0.142,0.357 l-2.14,5.317l0.603,2.278l1.98-1.23l2.202-5.47L15.568,0.488z" fill="#000"/></mask></defs><g id="edit_3_" display="inline" fill="#cb1800"><polygon points="11.686,6.423 12.286,5.91 11.611,5.641 "/><path d="M14.245,0.038c-0.365-0.147-0.778,0.03-0.927,0.393l-0.213,0.531l1.326,0.532l0.214-0.532h-0.001 C14.787,0.597,14.61,0.183,14.245,0.038z"/><rect x="10.982" y="2.666" transform="matrix(0.3723 -0.9281 0.9281 0.3723 4.9642 14.0992)" width="3.849" height="1.428"/></g><g mask="url(#edit-path)"><g><path d="M8,5.2c1.547,0,2.8,1.254,2.8,2.802c0,1.537-1.24,2.783-2.776,2.796v1.401c2.309-0.013,4.177-1.888,4.177-4.197 c0-2.321-1.88-4.201-4.201-4.201s-4.201,1.88-4.201,4.201c0,0.002,0,0.006,0,0.009h1.4c0-0.003-0.001-0.007-0.001-0.009 C5.199,6.454,6.453,5.2,8,5.2z M8,0.998c-3.867,0-7.001,3.135-7.001,7.004c0,0.002,0,0.006,0,0.009h1.401 c0-0.003,0-0.007,0-0.009c0-3.095,2.507-5.603,5.601-5.603c3.093,0,5.601,2.508,5.601,5.603c0,3.083-2.495,5.586-5.577,5.599 v1.401c3.855-0.014,6.978-3.143,6.978-7C15.002,4.133,11.867,0.998,8,0.998z"/><circle cx="4.599" cy="11.22" r="2.105"/></g></g></svg>