<svg width="16" height="16" xmlns="http://www.w3.org/2000/svg" viewBox="0 0 16 16" shape-rendering="geometricPrecision" fill="#6e6e6e"><defs><mask id="a"><rect fill="#fff" width="100%" height="100%"/><path fill="#000" d="M12.892-.396l-4.507 4.51 2.471 2.471 2.038-2.036 2.037 2.035 2.473-2.47z"/></mask></defs><path fill="#cb1800" d="M12.894 3.136l2.037 2.035 1.058-1.057-3.097-3.096-3.093 3.096 1.057 1.057z"/><g mask="url(#a)"><path d="M11 1H5c-.55 0-1 .45-1 1v12c0 .55.45 1 1 1h6c.55 0 1-.45 1-1V2c0-.55-.45-1-1-1zM8 13.969a1 1 0 1 1 0-2 1 1 0 0 1 0 2zm3-3H5V2h6v8.969z"/></g></svg>