<?xml version="1.0"?><!DOCTYPE svg PUBLIC "-//W3C//DTD SVG 1.1//EN" "http://www.w3.org/Graphics/SVG/1.1/DTD/svg11.dtd"><svg width="16px" height="16px" xmlns="http://www.w3.org/2000/svg" viewBox="0 0 16 16" shape-rendering="geometricPrecision" fill="#6e6e6e"><defs><mask id="move_up-path"><rect fill="#fff" width="100%" height="100%"/><polygon points="12.892,-0.396 8.385,4.114 10.856,6.585 12.894,4.549 14.931,6.584 17.404,4.114 " fill="#000"/></mask></defs><polygon points="12.894,3.136 14.931,5.171 15.989,4.114 12.892,1.018 9.799,4.114 10.856,5.171 " fill="#cb1800"/><g mask="url(#move_up-path)"><polygon points="10.021,15.177 13.458,12.012 10.021,12.012"/><path d="M2.02,0v16h7.021v-4.905h4.941V0H2.02z M13,9.97h-5l0,5H3.083v-14H13V9.97z"/><path d="M6.499,8.97c0.829,0,1.5-0.672,1.5-1.5v-3.5c0,0,0.22-0.498,0.95,0.182C9.89,5.026,11,4.313,11,4.313 s-1.364-0.33-1.644-1.218C9,1.97,7.999,1.97,7.999,1.97h-1v4.092C6.842,6.006,6.676,5.97,6.499,5.97c-0.829,0-1.5,0.672-1.5,1.5 C4.999,8.298,5.671,8.97,6.499,8.97z"/></g></svg>