<svg width="16" height="16" xmlns="http://www.w3.org/2000/svg" viewBox="0 0 16 16" shape-rendering="geometricPrecision" fill="#6e6e6e"><defs><mask id="a"><rect fill="#fff" width="100%" height="100%"/><path fill="#000" d="M12.892-.396l-4.507 4.51 2.471 2.471 2.038-2.036 2.037 2.035 2.473-2.47z"/></mask></defs><path fill="#cb1800" d="M12.894 3.136l2.037 2.035 1.058-1.057-3.097-3.096-3.093 3.096 1.057 1.057z"/><g mask="url(#a)"><path d="M10.868 4.2a.73.73 0 1 0-1.106-.954l-.382.442 1.105.956.383-.444zM6.191 8.498l.751-.296-.563-.485-.188.781zm.354-1.526l1.104.956 2.573-2.981-1.104-.954-2.573 2.979zm-1.56-3.935h2.236v.745H4.985zm0 1.491h2.236v.745H4.985zm5.07 9.774l2.54-2.338h-2.54z"/><path d="M2.595 1.016v13.969h6.008v-4.468h4.802V1.016H2.595zm9.439 8.027h-4.79v4.601H3.917V2.318h8.116v6.725z"/></g></svg>