<svg width="16" height="16" xmlns="http://www.w3.org/2000/svg" viewBox="0 0 16 16" shape-rendering="geometricPrecision" fill="#6e6e6e"><defs><mask id="a"><rect fill="#fff" width="100%" height="100%"/><path fill="#000" d="M12.892-.396l-4.507 4.51 2.471 2.471 2.038-2.036 2.037 2.035 2.473-2.47z"/></mask></defs><path fill="#cb1800" d="M12.894 3.136l2.037 2.035 1.058-1.057-3.097-3.096-3.093 3.096 1.057 1.057z"/><g mask="url(#a)"><path d="M8 6.636A2.837 2.837 0 0 0 5.167 9.47 2.837 2.837 0 0 0 8 12.302a2.837 2.837 0 0 0 2.833-2.832A2.837 2.837 0 0 0 8 6.636zm.556 3.278l-1.904 1.105-.54-.945 1.365-.794V7.077h1.089l.001 2.837h-.011z"/><path d="M7.394 4.755l-.816-1.923h-3.78l-.816 1.923H.861V14h14.278V4.755H7.394zM8 13.021a3.553 3.553 0 0 1 0-7.105 3.552 3.552 0 0 1 0 7.105z"/></g></svg>