<svg width="16" height="16" xmlns="http://www.w3.org/2000/svg" viewBox="0 0 16 16" shape-rendering="geometricPrecision" fill="#6e6e6e"><defs><mask id="a"><rect fill="#fff" width="100%" height="100%"/><path fill="#000" d="M12.892-.396l-4.507 4.51 2.471 2.471 2.038-2.036 2.037 2.035 2.473-2.47z"/></mask></defs><path fill="#cb1800" d="M12.894 3.136l2.037 2.035 1.058-1.057-3.097-3.096-3.093 3.096 1.057 1.057z"/><g mask="url(#a)"><path d="M1.811-.001v16h12.378v-16H1.811zM8.03 1.245a1.55 1.55 0 1 1 .003 3.101 1.55 1.55 0 0 1-.003-3.101zm3.055 13.548h-6.17V13.26h1.526V7.082H4.919V5.931h4.64v7.329h1.526v1.533z"/></g></svg>