<svg width="16" height="16" xmlns="http://www.w3.org/2000/svg" viewBox="0 0 16 16" shape-rendering="geometricPrecision" fill="#6e6e6e"><defs><mask id="a"><rect fill="#fff" width="100%" height="100%"/><path fill="#000" d="M12.892-.396l-4.507 4.51 2.471 2.471 2.038-2.036 2.037 2.035 2.473-2.47z"/></mask></defs><path fill="#cb1800" d="M12.894 3.136l2.037 2.035 1.058-1.057-3.097-3.096-3.093 3.096 1.057 1.057z"/><g mask="url(#a)"><path d="M2.991 14.879l11.856-4.523L11.871 7l-8.88 7.879zM0 1.473V16l1.618-1.436v-4.98h5.61l4.739-4.205 4.029 4.539.004-.002V1.473H0zm8.056 6.189H1.618V6.269h6.438v1.393zm6.327-2.844H1.618V3.426h12.765v1.392z"/></g></svg>