<svg width="16" height="16" xmlns="http://www.w3.org/2000/svg" viewBox="0 0 16 16" shape-rendering="geometricPrecision" fill="#6e6e6e"><defs><mask id="a"><rect fill="#fff" width="100%" height="100%"/><path fill="#000" d="M12.892-.396l-4.507 4.51 2.471 2.471 2.038-2.036 2.037 2.035 2.473-2.47z"/></mask></defs><path fill="#cb1800" d="M12.894 3.136l2.037 2.035 1.058-1.057-3.097-3.096-3.093 3.096 1.057 1.057z"/><path mask="url(#a)" d="M13.053 8.004c.064-.324.101-.657.101-1a5.18 5.18 0 0 0-10.358-.002h1.541a3.641 3.641 0 0 1 3.637-3.637 3.64 3.64 0 0 1 3.639 3.639c0 .35-.065.681-.157 1h-1.82c.177-.293.285-.633.285-1a1.945 1.945 0 1 0-3.891 0c0 .367.107.707.284 1H.958v5.482h14.084V8.004h-1.989zm-1.676 2.741H4.622v-1.46h6.755v1.46z"/></svg>