<?xml version="1.0"?><!DOCTYPE svg PUBLIC "-//W3C//DTD SVG 1.1//EN" "http://www.w3.org/Graphics/SVG/1.1/DTD/svg11.dtd"><svg width="16px" height="16px" xmlns="http://www.w3.org/2000/svg" viewBox="0 0 16 16" shape-rendering="geometricPrecision" fill="#000"><path d="M11.257,7.001c1.382,0,2.497-1.115,2.497-2.495c0-1.378-1.114-2.494-2.497-2.494c-1.377,0-2.496,1.116-2.496,2.494 C8.762,5.886,9.88,7.001,11.257,7.001z M0.017,10.414v3.575h5.081v-3.576C5.1,9.499,5.433,8.67,5.967,8.009H2.415 C1.092,8.009,0.017,9.091,0.017,10.414z M13.576,8.009H8.931c-1.323,0-2.398,1.082-2.398,2.404v3.575h9.45v-3.575 C15.983,9.091,14.899,8.009,13.576,8.009z M4.741,2.011c-1.377,0-2.495,1.116-2.495,2.494c0,1.38,1.118,2.495,2.495,2.495 c1.381,0,2.496-1.115,2.496-2.495C7.237,3.128,6.123,2.011,4.741,2.011z"/></svg>