<svg id="Ebene_1" data-name="Ebene 1" xmlns="http://www.w3.org/2000/svg" viewBox="0 0 16 16"><defs><style>.cls-1{fill:#010101;}</style></defs><title>180607_Icons-Neue</title><path class="cls-1" d="M0,0V16H16V0ZM15,10H13.5v1H15v4H11V13.5H10V15H1V11H2.5V10H1V1h9V2.5h1V1h4Z"/><rect class="cls-1" x="4.33" y="10.02" width="2.75" height="0.97"/><polygon class="cls-1" points="10.98 8.92 10.02 8.92 10.02 10.02 8.92 10.02 8.92 10.98 10.02 10.98 10.02 11.67 10.98 11.67 10.98 10.98 11.67 10.98 11.67 10.02 10.98 10.02 10.98 8.92"/><rect class="cls-1" x="10.02" y="4.33" width="0.97" height="2.75"/></svg>