<?xml version="1.0" encoding="UTF-8" standalone="no"?>
<svg
   xmlns:dc="http://purl.org/dc/elements/1.1/"
   xmlns:cc="http://creativecommons.org/ns#"
   xmlns:rdf="http://www.w3.org/1999/02/22-rdf-syntax-ns#"
   xmlns:svg="http://www.w3.org/2000/svg"
   xmlns="http://www.w3.org/2000/svg"
   id="svg6530"
   version="1.1"
   fill="#000"
   shape-rendering="geometricPrecision"
   viewBox="0 0 16 16"
   height="16"
   width="16">
  <metadata
     id="metadata6536">
    <rdf:RDF>
      <cc:Work
         rdf:about="">
        <dc:format>image/svg+xml</dc:format>
        <dc:type
           rdf:resource="http://purl.org/dc/dcmitype/StillImage" />
        <dc:title></dc:title>
      </cc:Work>
    </rdf:RDF>
  </metadata>
  <defs
     id="defs6534" />
  <path
     id="path6526"
     d="M13.125 5.495v8h-12v-8h12m1-1h-14v10h14v-10z" />
  <path
     id="path6528"
     d="M7.175 2.995l-.299-1.49h-4l-.3 1.49H1.375v1h13.5v9.5l1-1v-9.5z" />
  <g
     transform="matrix(0.44556391,0,0,0.44556391,2.5376292,5.7914209)"
     id="g6312"
     style="fill:#000;shape-rendering:geometricPrecision;fill-opacity:1">
    <path
       style="fill:#000;fill-opacity:1"
       d="m 10.623745,1.2743182 a 7.03,7.03 0 0 0 0,14.0599998 7.03,7.03 0 1 0 0,-14.0599998 z m 0.501,5.186 c 0.493,-0.019 1,-0.064 1.496,-0.124 0.042,0.456 0.069,0.946 0.082,1.468 h -1.578 z m 0,-1.001 v -2.737 c 0.299,0.027 0.589,0.08 0.872,0.152 0.134,0.448 0.348,1.302 0.512,2.468 -0.462,0.056 -0.931,0.098 -1.384,0.117 z m -1,-0.001 c -0.4430003,-0.02 -0.9080003,-0.063 -1.3710003,-0.12 0.163,-1.18 0.379,-2.028 0.514,-2.468 a 5.52,5.52 0 0 1 0.8570003,-0.148 z m 0,1.001 v 1.345 H 8.5627447 c 0.013,-0.525 0.039,-1.017 0.08,-1.472 0.498,0.061 1.001,0.107 1.4820003,0.127 z m -2.5620003,1.345 h -2.52 a 5.582,5.582 0 0 1 0.569,-1.997 c 0.505,0.11 1.231,0.256 2.038,0.385 a 24.607,24.607 0 0 0 -0.087,1.612 z m -0.002,1 c 0.012,0.611 0.043,1.181 0.092,1.7069998 -0.791,0.125 -1.497,0.268 -1.998,0.379 a 5.572,5.572 0 0 1 -0.612,-2.0859998 z m 1,0 h 1.5640003 v 1.4469998 c -0.4870003,0.019 -0.9890003,0.063 -1.4800003,0.121 a 22.181,22.181 0 0 1 -0.084,-1.5679998 z m 1.5640003,2.4489998 v 2.633 a 5.64,5.64 0 0 1 -0.8860003,-0.155 c -0.135,-0.47 -0.33,-1.286 -0.481,-2.363 0.457,-0.055 0.92,-0.096 1.3670003,-0.115 z m 1,10e-4 c 0.448,0.02 0.919,0.064 1.387,0.122 a 16.738,16.738 0 0 1 -0.479,2.348 5.564,5.564 0 0 1 -0.908,0.162 z m 0,-1.001 V 8.8043182 h 1.581 c -0.011,0.566 -0.04,1.092 -0.083,1.5779998 a 18.585,18.585 0 0 0 -1.498,-0.129 z m 2.582,-1.4489998 h 2.5 a 5.576,5.576 0 0 1 -0.614,2.0899998 37.347,37.347 0 0 0 -1.976,-0.372 c 0.047,-0.5269998 0.079,-1.0989998 0.09,-1.7179998 z m -0.003,-1 a 23.764,23.764 0 0 0 -0.09,-1.606 34.153,34.153 0 0 0 2.025,-0.386 5.6,5.6 0 0 1 0.568,1.993 h -2.503 z m 1.372,-2.895 c -0.438,0.092 -0.982,0.198 -1.577,0.293 a 19.775,19.775 0 0 0 -0.353,-1.899 c 0.76,0.385 1.418,0.935 1.93,1.606 z m -6.9610003,-1.612 c -0.12,0.487 -0.246,1.127 -0.352,1.899 a 38.166,38.166 0 0 1 -1.586,-0.292 5.64,5.64 0 0 1 1.938,-1.607 z m -1.875,8.4919998 c 0.43,-0.09 0.957,-0.191 1.528,-0.282 0.1,0.716 0.216,1.319 0.329,1.795 a 5.615,5.615 0 0 1 -1.857,-1.513 z m 6.9420003,1.499 c 0.112,-0.469 0.225,-1.061 0.323,-1.769 0.557,0.09 1.075,0.188 1.501,0.275 a 5.631,5.631 0 0 1 -1.824,1.494 z"
       id="path6301" />
  </g>
</svg>
