<svg width="16" height="16" xmlns="http://www.w3.org/2000/svg" viewBox="0 0 16 16" shape-rendering="geometricPrecision"><path d="M2.907 3.45h-.953v8.978h13.052V3.45H2.907zm.806 7.455c0-.927.263-1.39.635-1.39.423 0 .623.511.623 1.373 0 .224-.016.417-.043.587H3.756a3.514 3.514 0 0 1-.043-.57zm2.164.571h-.253c.033-.186.055-.384.055-.604 0-1.094-.417-1.895-1.314-1.895-.869 0-1.359.771-1.359 1.934 0 .203.021.39.054.564h-.153v-7.07h2.972l-.002 7.071zm4.037 0H6.832v-7.07h3.082v7.07zm4.138 0h-3.188v-7.07h3.188v7.07zM.634 5.469h.954v5.09H.634zm14.779 0h.952v5.09h-.952z"/><path d="M8.646 8.347h.664v-.944h.48V6.87h-.48V4.631h-.83L6.959 6.946v.457h1.687v.944zM7.634 6.87v-.01l.687-1.018c.114-.206.211-.394.325-.629h.022c-.01.224-.022.436-.022.647v1.012H7.634V6.87zm6.112 3.699h-1.521v-.012l.32-.279c.65-.602 1.12-1.127 1.12-1.779 0-.605-.399-1.125-1.224-1.125-.469 0-.875.164-1.143.383l.205.497c.188-.142.464-.31.796-.31.485 0 .662.293.662.623-.006.492-.417.938-1.291 1.75l-.441.406v.428h2.517v-.582z"/></svg>