<svg width="16" height="16" xmlns="http://www.w3.org/2000/svg" viewBox="0 0 16 16" shape-rendering="geometricPrecision" fill="#fff"><defs><mask id="a"><rect width="100%" height="100%"/><path d="M16.451 1.534a1.141 1.141 0 0 0-.288-1.066l-.58-.581a1.116 1.116 0 0 0-1.065-.29 1.127 1.127 0 0 0-.962-.551h-.819c-.41 0-.77.223-.964.554-.38-.106-.813.038-1.062.288l-.576.579a1.116 1.116 0 0 0-.292 1.067c-.329.194-.55.553-.55.962v.821c0 .408.221.766.548.96a1.14 1.14 0 0 0-.035.285c.002.263.14.595.325.781l.58.581c.248.248.68.393 1.062.287.194.332.555.555.963.555h.82c.298 0 .588-.121.796-.333a1.02 1.02 0 0 0 .158-.216c.098.025.201.031.3.036.26-.004.588-.144.771-.328l.57-.572c.215-.21.337-.503.335-.803 0-.085-.016-.178-.042-.271.333-.193.556-.552.556-.964v-.821c0-.408-.221-.766-.549-.96z" fill="#000"/></mask></defs><path d="M15.884 2.379h-.177v-.003a.523.523 0 0 1-.5-.325.531.531 0 0 1 .122-.586l.126-.126a.12.12 0 0 0 0-.165l-.579-.58a.117.117 0 0 0-.166 0l-.125.125A.525.525 0 0 1 14 .841a.532.532 0 0 1-.326-.501l-.001-.177a.117.117 0 0 0-.117-.117h-.819a.117.117 0 0 0-.116.117v.178a.53.53 0 0 1-.911.379l-.126-.126a.118.118 0 0 0-.165 0l-.578.581a.116.116 0 0 0 0 .164l.123.127a.532.532 0 0 1 .124.586.523.523 0 0 1-.499.325l-.178.003a.117.117 0 0 0-.117.117v.821c0 .063.052.116.117.116h.178l-.002.002a.524.524 0 0 1 .501.325.53.53 0 0 1-.123.585v.001l-.125.127a.117.117 0 0 0 0 .163l.579.58a.116.116 0 0 0 .165 0l.127-.124a.53.53 0 0 1 .585-.123c.207.088.331.29.326.502l.002.177h-.002a.117.117 0 0 0 .116.117h.82a.117.117 0 0 0 .117-.117h-.001l.001-.177a.529.529 0 0 1 .911-.379l.124.126a.116.116 0 0 0 .165 0l.58-.58a.114.114 0 0 0 0-.163l-.125-.129a.53.53 0 0 1 .378-.911l.177-.004A.117.117 0 0 0 16 3.315v-.821a.117.117 0 0 0-.116-.115zM13.146 3.91a1.002 1.002 0 0 1-1.001-1.004c0-.555.448-1.005 1.001-1.005a1.004 1.004 0 0 1 0 2.009z" fill="#cb1800"/><g mask="url(#a)"><path d="M10.201 4.508a2.698 2.698 0 0 1 2.711 2.645l.019.766.744.181a1.715 1.715 0 0 1 1.311 1.672v.057a1.724 1.724 0 0 1-1.714 1.665H3.035A2.025 2.025 0 0 1 1.013 9.47a2.025 2.025 0 0 1 2.384-1.991l1.365.245-.198-1.374a1.087 1.087 0 0 1 1.074-1.238c.337 0 .65.154.858.423l.783 1.012.793-1.004a2.694 2.694 0 0 1 2.129-1.035m0-1a3.706 3.706 0 0 0-2.915 1.415 2.085 2.085 0 0 0-3.713 1.571 3.023 3.023 0 0 0-3.56 2.975 3.023 3.023 0 0 0 3.022 3.024h10.237a2.72 2.72 0 0 0 2.714-2.721l-.001-.001c0-1.28-.884-2.354-2.075-2.644a3.71 3.71 0 0 0-3.709-3.619z"/></g></svg>