<svg width="16" height="16" xmlns="http://www.w3.org/2000/svg" viewBox="0 0 16 16" shape-rendering="geometricPrecision" fill="#fff"><defs><mask id="a"><rect width="100%" height="100%"/><path d="M15.568.488c.365-.9-.337-1.487-.851-1.704-.593-.25-1.396-.157-1.78.752l-.142.357-2.14 5.317.603 2.278 1.98-1.23L15.44.788l.128-.3z" fill="#000"/></mask></defs><path d="M11.686 6.423l.6-.513-.675-.269zM14.245.038a.714.714 0 0 0-.927.393l-.213.531 1.326.532.214-.532h-.001a.714.714 0 0 0-.399-.924zM11.527 4.9l1.433-3.573 1.325.532-1.433 3.572z" fill="#cb1800"/><g mask="url(#a)"><path d="M6.231 12.232l1.343-.505-.988-.877-.355 1.382zm4.143-6.606V3.124h-9.35v11.805h9.35V9.53l3.113-3.497-1.938-1.728-1.175 1.321zm-.962 1.083l-2.51 2.819 1.937 1.73.573-.645v3.351H1.983V4.086h7.428v2.623zm5.13-3.814a1.297 1.297 0 0 0-1.828.1l-.69.774L13.961 5.5l.694-.778-.002-.001a1.3 1.3 0 0 0-.111-1.826zm-7.888 4.79H3.233v.961h3.421v-.961zM5.265 5.642H3.233v.962h2.032v-.962z"/></g></svg>