<?xml version="1.0"?><!DOCTYPE svg PUBLIC "-//W3C//DTD SVG 1.1//EN" "http://www.w3.org/Graphics/SVG/1.1/DTD/svg11.dtd"><svg width="16px" height="16px" xmlns="http://www.w3.org/2000/svg" viewBox="0 0 16 16" shape-rendering="geometricPrecision" fill="#fff"><defs><mask id="edit-path"><rect fill="#fff" width="100%" height="100%"/><path d="M15.568,0.488c0.365-0.9-0.337-1.487-0.851-1.704c-0.593-0.25-1.396-0.157-1.78,0.752l-0.142,0.357 l-2.14,5.317l0.603,2.278l1.98-1.23l2.202-5.47L15.568,0.488z" fill="#000"/></mask></defs><g id="edit_3_" display="inline" fill="#cb1800"><polygon points="11.686,6.423 12.286,5.91 11.611,5.641 "/><path d="M14.245,0.038c-0.365-0.147-0.778,0.03-0.927,0.393l-0.213,0.531l1.326,0.532l0.214-0.532h-0.001 C14.787,0.597,14.61,0.183,14.245,0.038z"/><rect x="10.982" y="2.666" transform="matrix(0.3723 -0.9281 0.9281 0.3723 4.9642 14.0992)" width="3.849" height="1.428"/></g><g mask="url(#edit-path)"><path d="M7.999,0.973c-3.864,0-6.996,3.133-6.996,7c0.001,3.862,3.132,6.992,6.996,6.994 c3.865-0.002,6.998-3.132,6.998-6.994C14.997,4.105,11.864,0.973,7.999,0.973z M9.026,3.636L8.741,9.48H7.27L6.974,3.636H9.026z M8.005,12.473H7.993c-0.683,0-1.147-0.501-1.147-1.172c0-0.685,0.477-1.175,1.16-1.175c0.686,0,1.138,0.49,1.148,1.175 C9.153,11.972,8.703,12.473,8.005,12.473z"/></g></svg>