<?xml version="1.0"?><!DOCTYPE svg PUBLIC "-//W3C//DTD SVG 1.1//EN" "http://www.w3.org/Graphics/SVG/1.1/DTD/svg11.dtd"><svg width="16px" height="16px" xmlns="http://www.w3.org/2000/svg" viewBox="0 0 16 16" shape-rendering="geometricPrecision" fill="#fff"><defs><mask id="edit-path"><rect fill="#fff" width="100%" height="100%"/><path d="M15.568,0.488c0.365-0.9-0.337-1.487-0.851-1.704c-0.593-0.25-1.396-0.157-1.78,0.752l-0.142,0.357 l-2.14,5.317l0.603,2.278l1.98-1.23l2.202-5.47L15.568,0.488z" fill="#000"/></mask></defs><g id="edit_3_" fill="#cb1800"><polygon points="11.686,6.423 12.286,5.91 11.611,5.641 "/><path d="M14.245,0.038c-0.365-0.147-0.778,0.03-0.927,0.393l-0.213,0.531l1.326,0.532l0.214-0.532h-0.001 C14.787,0.597,14.61,0.183,14.245,0.038z"/><rect x="10.982" y="2.666" transform="matrix(0.3723 -0.9281 0.9281 0.3723 4.9642 14.0992)" width="3.849" height="1.428"/></g><g mask="url(#edit-path)"><g><polygon points="8.182,3.179 7.367,1.256 3.587,1.256 2.77,3.179 1.649,3.179 1.65,4.128 14.977,4.119 14.995,13.402 15.928,12.424 15.928,3.179"/><path d="M0.072,4.756V14h14.279V4.756H0.072z M9.521,8.339c0.55,0,0.994,0.445,0.994,0.994c0,0.548-0.444,0.993-0.994,0.993 c-0.548,0-0.994-0.445-0.994-0.993C8.528,8.783,8.973,8.339,9.521,8.339z M6.774,6.062c0.55,0,0.994,0.445,0.994,0.993 c0,0.55-0.444,0.994-0.994,0.994c-0.548,0-0.994-0.445-0.994-0.994C5.78,6.507,6.225,6.062,6.774,6.062z M4.575,7.162 c0.55,0,0.994,0.445,0.994,0.993c0,0.55-0.444,0.994-0.994,0.994c-0.549,0-0.994-0.445-0.994-0.994 C3.581,7.606,4.027,7.162,4.575,7.162z M5.985,11.823H3.164v-1.244c0-0.527,0.428-0.958,0.955-0.958h0.908 c0.526,0,0.958,0.432,0.958,0.958V11.823z M5.367,9.441c0.021-0.51,0.437-0.92,0.951-0.92h0.908c0.527,0,0.958,0.432,0.958,0.957 v1.245H6.221v-0.145C6.221,10.039,5.859,9.588,5.367,9.441z M10.932,13H8.111v-1.245c0-0.526,0.428-0.957,0.955-0.957h0.908 c0.527,0,0.958,0.432,0.958,0.957V13z"/></g></g></svg>