<svg width="16" height="16" xmlns="http://www.w3.org/2000/svg" viewBox="0 0 16 16" shape-rendering="geometricPrecision" fill="#fff"><defs><mask id="a"><rect width="100%" height="100%"/><path d="M15.568.488c.365-.9-.337-1.487-.851-1.704-.593-.25-1.396-.157-1.78.752l-.142.357-2.14 5.317.603 2.278 1.98-1.23L15.44.788l.128-.3z" fill="#000"/></mask></defs><g fill="#cb1800"><path d="M11.686 6.423l.6-.513-.675-.269zM14.245.038a.714.714 0 0 0-.927.393l-.213.531 1.326.532.214-.532h-.001a.714.714 0 0 0-.399-.924zM11.527 4.9l1.433-3.573 1.325.532-1.433 3.572z"/></g><g mask="url(#a)"><path d="M8.182 3.179l-.815-1.923h-3.78L2.77 3.179H1.649l.001.949 13.327-.009.018 9.283.933-.978V3.179z"/><path d="M7.027 6.669A2.806 2.806 0 0 0 4.226 9.47a2.804 2.804 0 0 0 2.801 2.798 2.803 2.803 0 0 0 2.8-2.798 2.805 2.805 0 0 0-2.8-2.801zm.549 3.24l-1.881 1.092-.533-.934 1.348-.785V7.105l1.076.001.001 2.804h-.011z"/><path d="M.072 4.756V14h14.279V4.756H.072zm6.955 8.223a3.511 3.511 0 1 1 0-7.023 3.511 3.511 0 0 1 0 7.023z"/></g></svg>