<svg width="16" height="16" xmlns="http://www.w3.org/2000/svg" viewBox="0 0 16 16" shape-rendering="geometricPrecision" fill="#fff"><defs><mask id="a"><rect width="100%" height="100%"/><path d="M15.568.488c.365-.9-.337-1.487-.851-1.704-.593-.25-1.396-.157-1.78.752l-.142.357-2.14 5.317.603 2.278 1.98-1.23L15.44.788l.128-.3z" fill="#000"/></mask></defs><path d="M11.686 6.423l.6-.513-.675-.269zM14.245.038a.714.714 0 0 0-.927.393l-.213.531 1.326.532.214-.532h-.001a.714.714 0 0 0-.399-.924zM11.527 4.9l1.433-3.573 1.325.532-1.433 3.572z" fill="#cb1800"/><g mask="url(#a)"><path d="M11.031 9.168H9.307v.744h1.724v-.744zM7.068 6.992l.973-2.429L5.5 3.544 4.12 6.992H.892v9.007h14.216V6.992h-8.04zm.437 8.013H1.882V7.982h1.84l-.966 2.413 2.54 1.019 1.375-3.432h.834v7.023zm6.612 0h-5.62V7.982h5.62v7.023zm-1.259-4.499H9.307v.745h3.551v-.745zM8.731 2.843H8.73a1.367 1.367 0 0 0-.764-1.771 1.37 1.37 0 0 0-1.778.755L5.78 2.843l2.542 1.022.409-1.022zM3.058 13.316l1.152-.983-1.295-.517.143 1.5z"/></g></svg>