<?xml version="1.0"?><!DOCTYPE svg PUBLIC "-//W3C//DTD SVG 1.1//EN" "http://www.w3.org/Graphics/SVG/1.1/DTD/svg11.dtd"><svg width="16px" height="16px" xmlns="http://www.w3.org/2000/svg" viewBox="0 0 16 16" shape-rendering="geometricPrecision" fill="#fff"><defs><mask id="edit-path"><rect fill="#fff" width="100%" height="100%"/><path d="M15.568,0.488c0.365-0.9-0.337-1.487-0.851-1.704c-0.593-0.25-1.396-0.157-1.78,0.752l-0.142,0.357 l-2.14,5.317l0.603,2.278l1.98-1.23l2.202-5.47L15.568,0.488z" fill="#000"/></mask></defs><g id="edit_3_" display="inline" fill="#cb1800"><polygon points="11.686,6.423 12.286,5.91 11.611,5.641 "/><path d="M14.245,0.038c-0.365-0.147-0.778,0.03-0.927,0.393l-0.213,0.531l1.326,0.532l0.214-0.532h-0.001 C14.787,0.597,14.61,0.183,14.245,0.038z"/><rect x="10.982" y="2.666" transform="matrix(0.3723 -0.9281 0.9281 0.3723 4.9642 14.0992)" width="3.849" height="1.428"/></g><g mask="url(#edit-path)"><g><path d="M9.341,5.662c0-1.279,1.036-2.313,2.314-2.313c1.276,0,2.312,1.034,2.312,2.313v1.148h1.413V5.662 c0-2.06-1.668-3.728-3.725-3.728c-2.06,0-3.728,1.669-3.728,3.728v1.148h1.413V5.662z M0.62,7.792v7.207h9.875V7.792H0.62z M6.426,12.594c0,0.479-0.388,0.867-0.867,0.867c-0.481,0-0.871-0.389-0.871-0.867v-2.396c0-0.478,0.39-0.866,0.868-0.866 c0.482,0,0.87,0.389,0.87,0.866V12.594z"/></g></g></svg>