<svg width="16" height="16" xmlns="http://www.w3.org/2000/svg" viewBox="0 0 16 16" shape-rendering="geometricPrecision" fill="#fff"><defs><mask id="a"><rect width="100%" height="100%"/><path d="M15.568.488c.365-.9-.337-1.487-.851-1.704-.593-.25-1.396-.157-1.78.752l-.142.357-2.14 5.317.603 2.278 1.98-1.23L15.44.788l.128-.3z" fill="#000"/></mask></defs><path d="M11.686 6.423l.6-.513-.675-.269zM14.245.038a.714.714 0 0 0-.927.393l-.213.531 1.326.532.214-.532h-.001a.714.714 0 0 0-.399-.924zM11.527 4.9l1.433-3.573 1.325.532-1.433 3.572z" fill="#cb1800"/><g mask="url(#a)"><path d="M3.359 0v1.056h10.329v12.842h1.072V0H3.359zM1.24 16h11.401V2.102H1.24V16zM6.956 3.726a2.65 2.65 0 0 1 2.651 2.651A2.648 2.648 0 0 1 6.956 9.03a2.651 2.651 0 1 1 0-5.304zm-4.509 8.458a2.296 2.296 0 0 1 2.288-2.295H9.17a2.302 2.302 0 0 1 2.296 2.295v2.98H2.447v-2.98z"/></g></svg>