<svg width="16" height="16" xmlns="http://www.w3.org/2000/svg" viewBox="0 0 16 16" shape-rendering="geometricPrecision" fill="#fff"><defs><mask id="a"><rect width="100%" height="100%"/><path d="M15.568.488c.365-.9-.337-1.487-.851-1.704-.593-.25-1.396-.157-1.78.752l-.142.357-2.14 5.317.603 2.278 1.98-1.23L15.44.788l.128-.3z" fill="#000"/></mask></defs><path d="M11.686 6.423l.6-.513-.675-.269zM14.245.038a.714.714 0 0 0-.927.393l-.213.531 1.326.532.214-.532h-.001a.714.714 0 0 0-.399-.924zM11.527 4.9l1.433-3.573 1.325.532-1.433 3.572z" fill="#cb1800"/><g mask="url(#a)"><path d="M8.291 3.837H6.674v3.414h1.711c.636 0 1.125-.149 1.469-.449.344-.3.516-.728.516-1.285-.001-1.12-.693-1.68-2.079-1.68z"/><path d="M8 0a8 8 0 1 0 0 16A8 8 0 0 0 8 0zm3.51 7.243a2.724 2.724 0 0 1-1.305 1.066c-.552.222-1.344.333-2.375.333H6.674v4.734h-1.57V2.446h3.461c1.042 0 1.872.281 2.492.844s.93 1.317.93 2.266c-.001.635-.16 1.198-.477 1.687z"/></g></svg>