<svg width="16" height="16" xmlns="http://www.w3.org/2000/svg" viewBox="0 0 16 16" shape-rendering="geometricPrecision" fill="#fff"><defs><mask id="a"><rect width="100%" height="100%"/><path d="M15.568.488c.365-.9-.337-1.487-.851-1.704-.593-.25-1.396-.157-1.78.752l-.142.357-2.14 5.317.603 2.278 1.98-1.23L15.44.788l.128-.3z" fill="#000"/></mask></defs><path d="M11.686 6.423l.6-.513-.675-.269zM14.245.038a.714.714 0 0 0-.927.393l-.213.531 1.326.532.214-.532h-.001a.714.714 0 0 0-.399-.924zM11.527 4.9l1.433-3.573 1.325.532-1.433 3.572z" fill="#cb1800"/><g mask="url(#a)"><path d="M8.41 6.155l6.188.002-.002-6.185h-2.114l-.002 2.695C9.548.404 5.354.555 2.69 3.217c-2.895 2.895-2.832 7.604.086 10.53 2.929 2.918 7.635 2.981 10.533.09a7.314 7.314 0 0 0 2.138-5.191l-2.094.002a5.215 5.215 0 0 1-1.525 3.709c-2.058 2.05-5.443 2.036-7.572-.089-2.125-2.128-2.137-5.515-.087-7.572 1.775-1.772 4.54-1.994 6.635-.654l-2.394.001v2.112z"/></g></svg>