<svg width="16" height="16" xmlns="http://www.w3.org/2000/svg" viewBox="0 0 16 16" shape-rendering="geometricPrecision" fill="#fff"><defs><mask id="a"><rect width="100%" height="100%"/><path d="M16.451 1.534a1.141 1.141 0 0 0-.288-1.066l-.58-.581a1.116 1.116 0 0 0-1.065-.29 1.127 1.127 0 0 0-.962-.551h-.819c-.41 0-.77.223-.964.554-.38-.106-.813.038-1.062.288l-.576.579a1.116 1.116 0 0 0-.292 1.067c-.329.194-.55.553-.55.962v.821c0 .408.221.766.548.96a1.14 1.14 0 0 0-.035.285c.002.263.14.595.325.781l.58.581c.248.248.68.393 1.062.287.194.332.555.555.963.555h.82c.298 0 .588-.121.796-.333a1.02 1.02 0 0 0 .158-.216c.098.025.201.031.3.036.26-.004.588-.144.771-.328l.57-.572c.215-.21.337-.503.335-.803 0-.085-.016-.178-.042-.271.333-.193.556-.552.556-.964v-.821c0-.408-.221-.766-.549-.96z" fill="#000"/></mask></defs><path d="M15.884 2.379h-.177v-.003a.523.523 0 0 1-.5-.325.531.531 0 0 1 .122-.586l.126-.126a.12.12 0 0 0 0-.165l-.579-.58a.117.117 0 0 0-.166 0l-.125.125A.525.525 0 0 1 14 .841a.532.532 0 0 1-.326-.501l-.001-.177a.117.117 0 0 0-.117-.117h-.819a.117.117 0 0 0-.116.117v.178a.53.53 0 0 1-.911.379l-.126-.126a.118.118 0 0 0-.165 0l-.578.581a.116.116 0 0 0 0 .164l.123.127a.532.532 0 0 1 .124.586.523.523 0 0 1-.499.325l-.178.003a.117.117 0 0 0-.117.117v.821c0 .063.052.116.117.116h.178l-.002.002a.524.524 0 0 1 .501.325.53.53 0 0 1-.123.585v.001l-.125.127a.117.117 0 0 0 0 .163l.579.58a.116.116 0 0 0 .165 0l.127-.124a.53.53 0 0 1 .585-.123c.207.088.331.29.326.502l.002.177h-.002a.117.117 0 0 0 .116.117h.82a.117.117 0 0 0 .117-.117h-.001l.001-.177a.529.529 0 0 1 .911-.379l.124.126a.116.116 0 0 0 .165 0l.58-.58a.114.114 0 0 0 0-.163l-.125-.129a.53.53 0 0 1 .378-.911l.177-.004A.117.117 0 0 0 16 3.315v-.821a.117.117 0 0 0-.116-.115zM13.146 3.91a1.002 1.002 0 0 1-1.001-1.004c0-.555.448-1.005 1.001-1.005a1.004 1.004 0 0 1 0 2.009z" fill="#cb1800"/><g mask="url(#a)"><path d="M14.358 9.706a6.599 6.599 0 0 0 .228-1.697 6.578 6.578 0 0 0-6.578-6.578 6.59 6.59 0 0 0-1.691.229 3.314 3.314 0 0 0-1.906-.599 3.35 3.35 0 0 0-2.752 5.256 6.56 6.56 0 0 0-.227 1.692 6.578 6.578 0 0 0 6.578 6.578c.587 0 1.154-.084 1.696-.229a3.35 3.35 0 0 0 4.652-4.652zm-2.77 4.207c-.468 0-.92-.139-1.306-.402l-.388-.264-.453.121a5.577 5.577 0 0 1-1.433.193 5.558 5.558 0 0 1-5.552-5.553c0-.465.065-.947.193-1.428l.122-.459-.27-.388a2.306 2.306 0 0 1-.414-1.322 2.327 2.327 0 0 1 2.324-2.324c.475 0 .932.145 1.322.414l.39.271.458-.123a5.618 5.618 0 0 1 1.428-.191 5.557 5.557 0 0 1 5.552 5.551c0 .467-.065.949-.194 1.432l-.121.453.265.389c.263.387.402.838.402 1.307a2.327 2.327 0 0 1-2.325 2.323z"/><path d="M10.719 8.46a2.627 2.627 0 0 0-.574-.506 4.599 4.599 0 0 0-.729-.381l-1.202-.506c-.182-.074-.36-.146-.532-.224a2.615 2.615 0 0 1-.458-.26 1.187 1.187 0 0 1-.314-.328.821.821 0 0 1-.116-.443c0-.326.125-.584.375-.772.25-.188.59-.279 1.018-.279.382 0 .73.068 1.043.205.314.135.613.322.896.559l.818-1.01a3.883 3.883 0 0 0-1.242-.826 3.82 3.82 0 0 0-1.515-.307c-.437 0-.838.065-1.202.191a2.903 2.903 0 0 0-.942.531 2.495 2.495 0 0 0-.62.799 2.2 2.2 0 0 0-.226.99 2.27 2.27 0 0 0 .567 1.543c.168.191.361.354.58.49.218.137.437.252.655.342l1.215.533c.2.082.387.162.56.246.172.08.32.17.444.264.122.096.218.209.286.336a.971.971 0 0 1 .103.465c0 .346-.134.623-.402.832-.269.209-.653.312-1.154.312-.418 0-.833-.092-1.242-.279a3.988 3.988 0 0 1-1.092-.729l-.915 1.078c.428.418.919.742 1.475.969a4.502 4.502 0 0 0 1.734.342c.5 0 .948-.07 1.344-.213.396-.141.733-.33 1.01-.572a2.425 2.425 0 0 0 .854-1.863c0-.328-.043-.617-.129-.867a2.131 2.131 0 0 0-.371-.662z"/></g></svg>