<?xml version="1.0"?><!DOCTYPE svg PUBLIC "-//W3C//DTD SVG 1.1//EN" "http://www.w3.org/Graphics/SVG/1.1/DTD/svg11.dtd"><svg width="16px" height="16px" xmlns="http://www.w3.org/2000/svg" viewBox="0 0 16 16" shape-rendering="geometricPrecision" fill="#fff"><defs><mask id="edit-path"><rect fill="#fff" width="100%" height="100%"/><path d="M15.568,0.488c0.365-0.9-0.337-1.487-0.851-1.704c-0.593-0.25-1.396-0.157-1.78,0.752l-0.142,0.357 l-2.14,5.317l0.603,2.278l1.98-1.23l2.202-5.47L15.568,0.488z" fill="#000"/></mask></defs><g id="edit_3_" display="inline" fill="#cb1800"><polygon points="11.686,6.423 12.286,5.91 11.611,5.641 "/><path d="M14.245,0.038c-0.365-0.147-0.778,0.03-0.927,0.393l-0.213,0.531l1.326,0.532l0.214-0.532h-0.001 C14.787,0.597,14.61,0.183,14.245,0.038z"/><rect x="10.982" y="2.666" transform="matrix(0.3723 -0.9281 0.9281 0.3723 4.9642 14.0992)" width="3.849" height="1.428"/></g><g mask="url(#edit-path)"><g><path d="M1.062,7.999c0,3.833,3.107,6.939,6.941,6.939c3.829,0,6.934-3.106,6.936-6.939c-0.002-3.832-3.106-6.936-6.936-6.937 C4.169,1.062,1.062,4.168,1.062,7.999z M13.534,7.999c-0.006,3.057-2.478,5.529-5.531,5.536 c-3.059-0.007-5.531-2.479-5.537-5.536c0.006-3.056,2.478-5.528,5.537-5.534C11.057,2.471,13.528,4.943,13.534,7.999z"/></g><path d="M8,7.999H3.327c0.005,2.581,2.093,4.668,4.675,4.674c2.578-0.006,4.665-2.093,4.67-4.674 c-0.005-2.58-2.092-4.668-4.67-4.672c0,0-0.002,0-0.003,0V7.999z"/></g></svg>