<svg width="16" height="16" xmlns="http://www.w3.org/2000/svg" viewBox="0 0 16 16" shape-rendering="geometricPrecision" fill="#fff"><defs><mask id="a"><rect width="100%" height="100%"/><path d="M15.568.488c.365-.9-.337-1.487-.851-1.704-.593-.25-1.396-.157-1.78.752l-.142.357-2.14 5.317.603 2.278 1.98-1.23L15.44.788l.128-.3z" fill="#000"/></mask></defs><path d="M11.686 6.423l.6-.513-.675-.269zM14.245.038a.714.714 0 0 0-.927.393l-.213.531 1.326.532.214-.532h-.001a.714.714 0 0 0-.399-.924zM11.527 4.9l1.433-3.573 1.325.532-1.433 3.572z" fill="#cb1800"/><g mask="url(#a)"><path d="M1.53.555h4.392v4.392H1.53zm8.418.723v2.918H7.032V1.278h2.916m.739-.739H6.293v4.393h4.394V.539zm4.043.739v2.918h-2.916V1.278h2.916m.738-.739h-4.392v4.393h4.392V.539zM5.185 6.063v2.914H2.27V6.063h2.915m.737-.74H1.53v4.394h4.392V5.323zm.371-.014h4.394v4.394H6.293zm4.784 0h4.392v4.394h-4.392zM1.53 10.007h4.392V14.4H1.53zm4.763-.016h4.394v4.394H6.293zm8.437.74v2.916h-2.916v-2.916h2.916m.738-.74h-4.392v4.394h4.392V9.991z"/></g></svg>