<svg width="16" height="16" xmlns="http://www.w3.org/2000/svg" viewBox="0 0 16 16" shape-rendering="geometricPrecision" fill="#fff"><defs><mask id="a"><rect fill="#fff" width="100%" height="100%"/><path d="M16.451 1.534c.091-.364-.004-.77-.288-1.066l-.58-.581c-.286-.287-.692-.383-1.065-.29-.194-.327-.552-.548-.962-.551h-.819c-.41 0-.77.223-.964.554-.38-.106-.813.038-1.062.288l-.576.579c-.289.287-.386.698-.292 1.067-.329.194-.55.553-.55.962v.821c0 .408.221.766.548.96l-.035.285c.002.263.14.595.325.781l.58.581c.248.248.68.393 1.062.287.194.332.555.555.963.555h.82c.298 0 .588-.121.796-.333l.158-.216.3.036c.26-.004.588-.144.771-.328l.57-.572c.215-.21.337-.503.335-.803l-.042-.271c.333-.193.556-.552.556-.964v-.821c0-.408-.221-.766-.549-.96z"/></mask></defs><path d="M15.884 2.379h-.177v-.003c-.212.008-.414-.118-.5-.325-.086-.207-.031-.439.122-.586l.126-.126c.044-.044.044-.119 0-.165l-.579-.58c-.046-.046-.119-.046-.166 0l-.125.125c-.146.153-.377.21-.585.122-.206-.087-.331-.289-.326-.501l-.001-.177c0-.065-.052-.117-.117-.117h-.819c-.063 0-.117.053-.116.117v.178c.005.212-.119.414-.326.501-.208.086-.439.03-.585-.122l-.126-.126c-.045-.045-.119-.045-.165 0l-.578.581c-.045.045-.045.118 0 .164l.123.127c.154.147.209.379.124.586-.086.207-.289.333-.499.325l-.178.003c-.065 0-.117.053-.117.117v.821c0 .063.052.116.117.116h.178l-.002.002c.212-.008.415.118.501.325.085.208.03.44-.123.585v.001l-.125.127c-.044.044-.044.12 0 .163l.579.58c.046.046.119.046.165 0l.127-.124c.146-.153.377-.208.585-.123.207.088.331.29.326.502l.002.177h-.002c.001.066.053.117.116.117h.82c.064 0 .117-.051.117-.117h-.001l.001-.177c-.007-.212.118-.414.325-.502.208-.085.439-.03.586.123l.124.126c.046.046.121.046.165 0l.58-.58c.046-.045.046-.119 0-.163l-.125-.129c-.153-.146-.208-.378-.122-.586.085-.207.288-.333.5-.325l.177-.004c.062 0 .115-.053.115-.117v-.821c0-.063-.053-.115-.116-.115zm-2.738 1.531c-.553 0-1.001-.449-1.001-1.004 0-.555.448-1.005 1.001-1.005.553 0 1.002.45 1.002 1.005.001.555-.448 1.004-1.002 1.004z" fill="#cb1800"/><g mask="url(#a)"><path d="M8 12.965c-3.308 0-6.327-1.819-7.88-4.746l-.116-.218.116-.219c1.552-2.928 4.572-4.747 7.88-4.747 3.306 0 6.326 1.819 7.88 4.747l.117.219-.117.219c-1.555 2.927-4.574 4.745-7.88 4.745zm-6.935-4.964c1.422 2.493 4.056 4.031 6.935 4.031 2.877 0 5.511-1.538 6.935-4.031-1.424-2.494-4.058-4.033-6.935-4.033-2.879 0-5.513 1.539-6.935 4.033zM8.001 4.988c-.292 0-.568.054-.835.132.355.253.602.648.602 1.118 0 .772-.625 1.397-1.397 1.397-.511 0-.939-.287-1.182-.696-.125.33-.202.685-.202 1.06 0 1.665 1.348 3.013 3.014 3.013 1.663 0 3.012-1.348 3.012-3.013 0-1.663-1.348-3.011-3.012-3.011z"/></g></svg>