<?xml version="1.0"?><!DOCTYPE svg PUBLIC "-//W3C//DTD SVG 1.1//EN" "http://www.w3.org/Graphics/SVG/1.1/DTD/svg11.dtd"><svg width="16px" height="16px" xmlns="http://www.w3.org/2000/svg" viewBox="0 0 16 16" shape-rendering="geometricPrecision" fill="#fff"><defs><mask id="pause-path"><rect fill="#fff" width="100%" height="100%"/><polygon points="13.135,-1 12.45,-1 9.585,-1 9.585,6.956 12.45,6.956 13.135,6.956 16,6.956 16,-1 " fill="#000"/></mask></defs><g fill="#cb1800"><g><rect x="10.585" width="1.55" height="5.956"/></g><g><rect x="13.45" width="1.55" height="5.956"/></g></g><g mask="url(#pause-path)"><g><polygon points="4.463,15.971 5.954,14.697 4.278,14.029"/><rect x="2.716" y="6.643" transform="matrix(0.3723 -0.9281 0.9281 0.3723 -3.1069 12.2355)" width="9.554" height="3.544"/><path d="M10.815,0.121C9.91-0.243,8.885,0.195,8.515,1.097L7.986,2.414l3.291,1.321l0.531-1.321h-0.002 C12.161,1.508,11.721,0.48,10.815,0.121z"/></g></g></svg>