<?xml version="1.0"?><!DOCTYPE svg PUBLIC "-//W3C//DTD SVG 1.1//EN" "http://www.w3.org/Graphics/SVG/1.1/DTD/svg11.dtd"><svg width="16px" height="16px" xmlns="http://www.w3.org/2000/svg" viewBox="0 0 16 16" shape-rendering="geometricPrecision" fill="#fff"><defs><mask id="pause-path"><rect fill="#fff" width="100%" height="100%"/><polygon points="13.135,-1 12.45,-1 9.585,-1 9.585,6.956 12.45,6.956 13.135,6.956 16,6.956 16,-1 " fill="#000"/></mask></defs><g fill="#cb1800"><g><rect x="10.585" width="1.55" height="5.956"/></g><g><rect x="13.45" width="1.55" height="5.956"/></g></g><g mask="url(#pause-path)"><path d="M8,6.636C6.436,6.639,5.17,7.904,5.167,9.47C5.17,11.033,6.436,12.299,8,12.302 c1.564-0.003,2.83-1.268,2.833-2.832C10.83,7.904,9.565,6.639,8,6.636z M8.556,9.914l-1.904,1.105l-0.54-0.945L7.477,9.28V7.077 l1.089,0l0.001,2.837H8.556z"/><path d="M7.394,4.755L6.578,2.832H2.798L1.982,4.755H0.861V14h14.278V4.755H7.394z M8,13.021 C6.039,13.02,4.448,11.43,4.448,9.47c0-1.963,1.59-3.554,3.552-3.554c1.961,0,3.551,1.591,3.551,3.554 C11.551,11.43,9.962,13.02,8,13.021z"/></g></svg>