<svg width="16" height="16" xmlns="http://www.w3.org/2000/svg" viewBox="0 0 16 16" shape-rendering="geometricPrecision" fill="#fff"><defs><mask id="a"><rect width="100%" height="100%"/><path fill="#000" d="M13.135-1h-3.55v7.956H16V-1z"/></mask></defs><path d="M10.585 0h1.55v5.956h-1.55zm2.865 0H15v5.956h-1.55z" fill="#cb1800"/><g mask="url(#a)"><path d="M2.271.963v13.971H13.73V.963H2.271zm5.745 1.633a2.664 2.664 0 0 1 2.665 2.665 2.66 2.66 0 0 1-2.665 2.666 2.665 2.665 0 1 1 0-5.331zm4.533 11.497H3.484v-2.996a2.308 2.308 0 0 1 2.301-2.306h4.457a2.315 2.315 0 0 1 2.308 2.306v2.996z"/></g></svg>