<svg width="16" height="16" xmlns="http://www.w3.org/2000/svg" viewBox="0 0 16 16" shape-rendering="geometricPrecision" fill="#fff"><defs><mask id="a"><rect width="100%" height="100%"/><path fill="#000" d="M13.135-1h-3.55v7.956H16V-1z"/></mask></defs><path d="M10.585 0h1.55v5.956h-1.55zm2.865 0H15v5.956h-1.55z" fill="#cb1800"/><path d="M7.999.97a7.03 7.03 0 0 0 0 14.06 7.03 7.03 0 1 0 0-14.06zm-.082 11.554h-.011c-.663 0-1.121-.496-1.121-1.16 0-.686.471-1.156 1.132-1.156.688 0 1.136.471 1.147 1.156.001.664-.458 1.16-1.147 1.16zm1.543-4.75c-.472.52-.663 1.02-.65 1.594v.229H7.116l-.012-.332c-.038-.65.177-1.312.75-1.988.409-.497.742-.905.742-1.339 0-.445-.293-.738-.93-.764-.423 0-.932.152-1.262.381L5.97 4.169c.472-.268 1.223-.523 2.127-.523 1.681 0 2.446.93 2.446 1.986 0 .969-.597 1.605-1.083 2.142z" mask="url(#a)"/></svg>