<svg width="16" height="16" xmlns="http://www.w3.org/2000/svg" viewBox="0 0 16 16" shape-rendering="geometricPrecision" fill="#fff"><defs><mask id="a"><rect width="100%" height="100%"/><path fill="#000" d="M8.986 1.143H17v3.565H8.986z"/></mask></defs><path d="M9.986 2.143H16v1.565H9.986z" fill="#cb1800"/><path d="M1.53.555h4.392v4.392H1.53zm8.418.723v2.918H7.032V1.278h2.916m.739-.739H6.293v4.393h4.394V.539zm4.043.739v2.918h-2.916V1.278h2.916m.738-.739h-4.392v4.393h4.392V.539zM5.185 6.063v2.914H2.27V6.063h2.915m.737-.74H1.53v4.394h4.392V5.323zm.371-.014h4.394v4.394H6.293zm4.784 0h4.392v4.394h-4.392zM1.53 10.007h4.392V14.4H1.53zm4.763-.016h4.394v4.394H6.293zm8.437.74v2.916h-2.916v-2.916h2.916m.738-.74h-4.392v4.394h4.392V9.991z" mask="url(#a)"/></svg>