<svg width="16" height="16" xmlns="http://www.w3.org/2000/svg" viewBox="0 0 16 16" shape-rendering="geometricPrecision" fill="#24437c"><defs><mask id="a"><rect fill="#fff" width="100%" height="100%"/><path fill="#000" d="M19.079 1.436h-4.914l-1.516-4.674-1.519 4.674H6.217l3.975 2.886-1.516 4.673 3.972-2.888 3.972 2.889-1.516-4.674z"/></mask></defs><path fill="#cb1800" d="M13.928 3.94L16 2.435h-2.561L12.648 0l-.791 2.435H9.295l2.072 1.505-.79 2.437 2.071-1.506 2.071 1.506z"/><path d="M0 5.121l3.176 3.181L0 11.479l1.651 1.652L6.48 8.298 1.651 3.473zM7.144.605v14.096h1.067V1.671l4.057.002-2.67.764v13.562l6.399-1.831V1.674H16V.605H7.144zM15 13.47l-4.4 1.282V3.188L15 1.906V13.47z" mask="url(#a)"/></svg>