<svg width="16" height="16" xmlns="http://www.w3.org/2000/svg" viewBox="0 0 16 16" shape-rendering="geometricPrecision" fill="#24437c"><defs><mask id="a"><rect fill="#fff" width="100%" height="100%"/><path fill="#000" d="M19.079 1.436h-4.914l-1.516-4.674-1.519 4.674H6.217l3.975 2.886-1.516 4.673 3.972-2.888 3.972 2.889-1.516-4.674z"/></mask></defs><path fill="#cb1800" d="M13.928 3.94L16 2.435h-2.561L12.648 0l-.791 2.435H9.295l2.072 1.505-.79 2.437 2.071-1.506 2.071 1.506z"/><path mask="url(#a)" d="M13.053 8.004c.064-.324.101-.657.101-1a5.18 5.18 0 0 0-10.358-.002h1.541a3.641 3.641 0 0 1 3.637-3.637 3.64 3.64 0 0 1 3.639 3.639c0 .35-.065.681-.157 1h-1.82c.177-.293.285-.633.285-1a1.945 1.945 0 1 0-3.891 0c0 .367.107.707.284 1H.958v5.482h14.084V8.004h-1.989zm-1.676 2.741H4.622v-1.46h6.755v1.46z"/></svg>