<svg width="16" height="16" xmlns="http://www.w3.org/2000/svg" viewBox="0 0 16 16" shape-rendering="geometricPrecision"><defs><mask id="a"><rect fill="#fff" width="100%" height="100%"/><path d="M16.383 1.058l-2.47-2.473-4.51 4.512 4.511 4.506 2.469-2.469-2.035-2.039z"/></mask></defs><path fill="#cb1800" d="M12.935 3.095l2.035-2.037L13.913 0l-3.096 3.097 3.096 3.092 1.057-1.056z"/><path d="M2.764 2.068L4.554.277l3.447 3.447L11.448.277l1.789 1.791-5.239 5.239zM1.041 8.334v6.636h13.958V8.334H1.041zm11.157 3.914a1.08 1.08 0 1 1 0-2.162 1.08 1.08 0 1 1 0 2.162z" mask="url(#a)"/></svg>