<?xml version="1.0"?><!DOCTYPE svg PUBLIC "-//W3C//DTD SVG 1.1//EN" "http://www.w3.org/Graphics/SVG/1.1/DTD/svg11.dtd"><svg width="16px" height="16px" xmlns="http://www.w3.org/2000/svg" viewBox="0 0 16 16" shape-rendering="geometricPrecision" fill="#000"><defs><mask id="move_left-path"><rect fill="#fff" width="100%" height="100%"/><polygon points="16.383,1.058 13.913,-1.415 9.403,3.097 13.914,7.603 16.383,5.134 14.348,3.095 " fill="#000"/></mask></defs><polygon points="12.935,3.095 14.97,1.058 13.913,0 10.817,3.097 13.913,6.189 14.97,5.133 " fill="#cb1800"/><path mask="url(#move_left-path)" d="M6.035,15.636V8.96c0-0.143-0.049-0.284-0.137-0.396L0,1.072h16l-5.818,7.389 c-0.14,0.179-0.218,0.402-0.218,0.628v4.378L6.035,15.636z M2.109,2.096L6.703,7.93c0.23,0.292,0.357,0.658,0.357,1.03v4.942 l1.881-1.038V9.089c0-0.455,0.155-0.903,0.438-1.261l4.512-5.732H2.109z"/></svg>