<svg width="16" height="16" xmlns="http://www.w3.org/2000/svg" viewBox="0 0 16 16" shape-rendering="geometricPrecision"><defs><mask id="a"><rect fill="#fff" width="100%" height="100%"/><path d="M16.383 1.058l-2.47-2.473-4.51 4.512 4.511 4.506 2.469-2.469-2.035-2.039z"/></mask></defs><path fill="#cb1800" d="M12.935 3.095l2.035-2.037L13.913 0l-3.096 3.097 3.096 3.092 1.057-1.056z"/><g mask="url(#a)"><path d="M13.125 5.495v8h-12v-8h12m1-1h-14v10h14v-10z"/><path d="M7.175 2.995l-.299-1.49h-4l-.3 1.49H1.375v1h13.5v9.5l1-1v-9.5z"/><path d="M5.919 8.172a1.09 1.09 0 1 1 2.183 0v.542h.667v-.542a1.759 1.759 0 1 0-3.517 0v.542h.667v-.542zM4.68 9.177v3.401h4.66V9.177H4.68zm2.741 2.266a.41.41 0 0 1-.821 0v-1.13a.41.41 0 0 1 .821 0v1.13z"/></g></svg>