<?xml version="1.0"?><!DOCTYPE svg PUBLIC "-//W3C//DTD SVG 1.1//EN" "http://www.w3.org/Graphics/SVG/1.1/DTD/svg11.dtd"><svg width="16px" height="16px" xmlns="http://www.w3.org/2000/svg" viewBox="0 0 16 16" shape-rendering="geometricPrecision" fill="#ffad00"><defs><mask id="decline-path"><rect fill="#fff" width="100%" height="100%"/><polygon points="17.414,1.215 14.79,-1.414 13.066,0.308 11.344,-1.414 8.717,1.213 10.439,2.934 8.715,4.656 11.345,7.284 13.067,5.562 14.789,7.285 17.414,4.655 15.693,2.935 " fill="#000"/></mask></defs><g fill="#cb1800"><polygon points="16,4.656 14.278,2.935 16,1.214 14.789,0.001 13.066,1.722 11.344,0.001 10.132,1.213 11.854,2.934 10.13,4.656 11.345,5.87 13.067,4.147 14.789,5.87 "/></g><path mask="url(#decline-path)" d="M7.394,4.755L6.578,2.832H2.798L1.982,4.755H0.861V14h14.278V4.755H7.394z M10.438,8.304 c0.542,0,0.979,0.438,0.979,0.979c0,0.54-0.437,0.978-0.979,0.978c-0.54,0-0.978-0.438-0.978-0.978 C9.46,8.742,9.898,8.304,10.438,8.304z M7.733,6.062c0.542,0,0.979,0.438,0.979,0.978c0,0.541-0.437,0.979-0.979,0.979 c-0.54,0-0.978-0.438-0.978-0.979C6.754,6.5,7.193,6.062,7.733,6.062z M5.567,7.145c0.542,0,0.979,0.438,0.979,0.978 c0,0.541-0.437,0.979-0.979,0.979c-0.54,0-0.979-0.438-0.979-0.979C4.588,7.583,5.027,7.145,5.567,7.145z M6.956,11.735H4.178 V10.51c0-0.519,0.422-0.944,0.941-0.944h0.894c0.518,0,0.943,0.425,0.943,0.944V11.735z M6.348,9.389 c0.02-0.502,0.43-0.905,0.936-0.905h0.894c0.519,0,0.943,0.425,0.943,0.943v1.226H7.188V10.51C7.188,9.978,6.832,9.534,6.348,9.389 z M11.828,12.894H9.05v-1.226c0-0.518,0.421-0.943,0.94-0.943h0.894c0.519,0,0.944,0.425,0.944,0.943V12.894z"/></svg>