<svg width="16" height="16" xmlns="http://www.w3.org/2000/svg" viewBox="0 0 16 16" shape-rendering="geometricPrecision" fill="#ffad00"><defs><mask id="a"><rect fill="#fff" width="100%" height="100%"/><path fill="#000" d="M17.414 1.215L14.79-1.414 13.066.308l-1.722-1.722-2.627 2.627 1.722 1.721-1.724 1.722 2.63 2.628 1.722-1.722 1.722 1.723 2.625-2.63-1.721-1.72z"/></mask></defs><path d="M16 4.656l-1.722-1.721L16 1.214 14.789.001l-1.723 1.721L11.344.001l-1.212 1.212 1.722 1.721-1.724 1.722 1.215 1.214 1.722-1.723 1.722 1.723z" fill="#cb1800"/><g mask="url(#a)"><ellipse cx="13.096" cy="4.259" rx="1.101" ry="1.091"/><path d="M13.367 6.868c-.318 0-.614.095-.862.255a2 2 0 0 0-1.983-1.741 2 2 0 0 0-2.009 1.993 2.004 2.004 0 1 0 3.327 1.491 1.586 1.586 0 0 0 1.527 1.159c.879 0 1.592-.707 1.592-1.578a1.586 1.586 0 0 0-1.592-1.579z"/><path d="M10.202 10.016a2.67 2.67 0 0 1-2.365-2.641c0-1.071.639-1.993 1.559-2.414L8.91 1.907l-5.074.795.284 1.785L1.2 5.611l3.28 8.381 4.789-1.844-.441-1.126 1.497-.235-.123-.771z"/></g></svg>