<?xml version="1.0"?><!DOCTYPE svg PUBLIC "-//W3C//DTD SVG 1.1//EN" "http://www.w3.org/Graphics/SVG/1.1/DTD/svg11.dtd"><svg width="16px" height="16px" xmlns="http://www.w3.org/2000/svg" viewBox="0 0 16 16" shape-rendering="geometricPrecision" fill="#ffad00"><defs><mask id="decline-path"><rect fill="#fff" width="100%" height="100%"/><polygon points="17.414,1.215 14.79,-1.414 13.066,0.308 11.344,-1.414 8.717,1.213 10.439,2.934 8.715,4.656 11.345,7.284 13.067,5.562 14.789,7.285 17.414,4.655 15.693,2.935 " fill="#000"/></mask></defs><g fill="#cb1800"><polygon points="16,4.656 14.278,2.935 16,1.214 14.789,0.001 13.066,1.722 11.344,0.001 10.132,1.213 11.854,2.934 10.13,4.656 11.345,5.87 13.067,4.147 14.789,5.87 "/></g><g mask="url(#decline-path)"><path d="M7.999,0.97c-3.882,0-7.029,3.147-7.029,7.033c0.001,3.881,3.147,7.025,7.029,7.027 c3.883-0.002,7.031-3.146,7.031-7.027C15.03,4.116,11.882,0.97,7.999,0.97z M7.999,13.608c-3.096-0.006-5.601-2.512-5.607-5.605 c0.006-3.1,2.511-5.606,5.607-5.611c3.098,0.006,5.603,2.512,5.609,5.611C13.602,11.097,11.097,13.603,7.999,13.608z"/><g><path d="M8.243,3.606c1.054,0,1.938,0.52,2.51,1.105L9.699,5.894c-0.429-0.39-0.832-0.637-1.43-0.637 c-1.184,0-2.106,1.027-2.106,2.73c0,1.742,0.819,2.756,2.055,2.756c0.701,0,1.195-0.299,1.611-0.754l1.054,1.157 c-0.702,0.819-1.639,1.248-2.691,1.248c-2.197,0-3.991-1.495-3.991-4.342C4.2,5.244,6.06,3.606,8.243,3.606z"/></g><g><rect x="7.25" y="1.769" transform="matrix(0.7071 -0.7071 0.7071 0.7071 -3.3137 8)" width="1.5" height="12.462"/></g></g></svg>