<svg width="16" height="16" xmlns="http://www.w3.org/2000/svg" viewBox="0 0 16 16" shape-rendering="geometricPrecision" fill="#ffad00"><defs><mask id="a"><rect fill="#fff" width="100%" height="100%"/><path fill="#000" d="M17.414 1.215L14.79-1.414 13.066.308l-1.722-1.722-2.627 2.627 1.722 1.721-1.724 1.722 2.63 2.628 1.722-1.722 1.722 1.723 2.625-2.63-1.721-1.72z"/></mask></defs><path d="M16 4.656l-1.722-1.721L16 1.214 14.789.001l-1.723 1.721L11.344.001l-1.212 1.212 1.722 1.721-1.724 1.722 1.215 1.214 1.722-1.723 1.722 1.723z" fill="#cb1800"/><g mask="url(#a)"><path d="M11 10.001V5.97H4.031v4.031H0V16h15v-5.999h-4zM9.337 14.47H6.351v-.975h.989v-3.024H6.325v-.975h1.014V8.5h1.008v4.995h.989v.975z"/></g></svg>