<svg width="16" height="16" xmlns="http://www.w3.org/2000/svg" viewBox="0 0 16 16" shape-rendering="geometricPrecision" fill="#ffad00"><defs><mask id="a"><rect fill="#fff" width="100%" height="100%"/><path fill="#000" d="M17.414 1.215L14.79-1.414 13.066.308l-1.722-1.722-2.627 2.627 1.722 1.721-1.724 1.722 2.63 2.628 1.722-1.722 1.722 1.723 2.625-2.63-1.721-1.72z"/></mask></defs><path d="M16 4.656l-1.722-1.721L16 1.214 14.789.001l-1.723 1.721L11.344.001l-1.212 1.212 1.722 1.721-1.724 1.722 1.215 1.214 1.722-1.723 1.722 1.723z" fill="#cb1800"/><g mask="url(#a)"><path d="M11.231 3.39c.002-.046.008-.09.008-.136a3.24 3.24 0 1 0-6.273-1.138l1.312.399a1.872 1.872 0 1 1 3.023 2.08c-.583.621-1.03.621-2.176 1.235-1.824.984-2.271 2.511-2.366 3.414v6.744h6.482V3.39h-.01zM7.445 15.148l-2.33-2.328 1.024-1.024 1.303 1.303 2.492-2.489 1.024 1.026-3.513 3.512z"/></g></svg>