<svg width="16" height="16" xmlns="http://www.w3.org/2000/svg" viewBox="0 0 16 16" shape-rendering="geometricPrecision" fill="#ffad00"><defs><mask id="a"><rect fill="#fff" width="100%" height="100%"/><path fill="#000" d="M17.414 1.215L14.79-1.414 13.066.308l-1.722-1.722-2.627 2.627 1.722 1.721-1.724 1.722 2.63 2.628 1.722-1.722 1.722 1.723 2.625-2.63-1.721-1.72z"/></mask></defs><path d="M16 4.656l-1.722-1.721L16 1.214 14.789.001l-1.723 1.721L11.344.001l-1.212 1.212 1.722 1.721-1.724 1.722 1.215 1.214 1.722-1.723 1.722 1.723z" fill="#cb1800"/><g mask="url(#a)"><path d="M11.473 1.006h1.042v13.987h-1.042zM7.459 1.006h1.062v13.987H7.459zM3.444 1.006h1.021v13.987H3.444z"/><path d="M10.499 8.527V6.5c0-.267.216-.483.483-.483h2.027c.267 0 .483.216.483.483v2.027a.483.483 0 0 1-.483.483h-2.027a.483.483 0 0 1-.483-.483zM6.495 5.519V3.487c0-.267.216-.483.483-.483H9.01c.267 0 .483.216.483.483v2.032a.483.483 0 0 1-.483.483H6.978a.483.483 0 0 1-.483-.483zM2.495 12.517v-2.019c0-.267.216-.483.483-.483h2.019c.267 0 .483.216.483.483v2.019a.483.483 0 0 1-.483.483H2.978a.483.483 0 0 1-.483-.483z"/></g></svg>