<svg width="16" height="16" xmlns="http://www.w3.org/2000/svg" viewBox="0 0 16 16" shape-rendering="geometricPrecision" fill="#ffad00"><defs><mask id="a"><rect fill="#fff" width="100%" height="100%"/><path fill="#000" d="M17.414 1.215L14.79-1.414 13.066.308l-1.722-1.722-2.627 2.627 1.722 1.721-1.724 1.722 2.63 2.628 1.722-1.722 1.722 1.723 2.625-2.63-1.721-1.72z"/></mask></defs><path d="M16 4.656l-1.722-1.721L16 1.214 14.789.001l-1.723 1.721L11.344.001l-1.212 1.212 1.722 1.721-1.724 1.722 1.215 1.214 1.722-1.723 1.722 1.723z" fill="#cb1800"/><g mask="url(#a)"><path d="M2.021 8.002a5.987 5.987 0 0 0 5.792 5.976V8.104L2.423 5.85a5.92 5.92 0 0 0-.402 2.152zm3.587-5.476a6.052 6.052 0 0 0-2.516 2.07l4.456 2.731-1.94-4.801zM8 2.022c-.343 0-.693.031-1.044.095l1.355 5.788.786 5.967c2.8-.521 4.881-3.001 4.881-5.87A5.984 5.984 0 0 0 8 2.022z"/></g></svg>