<?xml version="1.0"?><!DOCTYPE svg PUBLIC "-//W3C//DTD SVG 1.1//EN" "http://www.w3.org/Graphics/SVG/1.1/DTD/svg11.dtd"><svg width="16px" height="16px" xmlns="http://www.w3.org/2000/svg" viewBox="0 0 16 16" shape-rendering="geometricPrecision" fill="#fff"><g><g><g><path d="M10.128,6.094c-0.864-0.014-1.742-0.014-2.921,0C6.027,6.107,5.506,6.45,5.341,7.026S4.367,10.4,4.367,10.4H5.78 L6.562,8c0,0,2.757-0.014,4.032-0.014s1.193-0.411,1.221-1.001S10.992,6.107,10.128,6.094z M10.937,7.04 c-0.055,0.288-0.192,0.439-0.85,0.425c-0.658-0.014-3.429,0-3.429,0s0.027-0.206,0.11-0.48c0.082-0.274,0.247-0.37,1.015-0.37 s1.783,0.027,2.345,0.027C10.69,6.642,10.992,6.752,10.937,7.04z"/></g></g><path d="M8.001,1.79c-3.43,0-6.211,2.781-6.211,6.213c0,3.427,2.78,6.206,6.211,6.208 c3.429-0.002,6.208-2.78,6.209-6.208C14.21,4.571,11.43,1.79,8.001,1.79z M8.001,12.953c-2.736-0.005-4.949-2.218-4.955-4.951 c0.006-2.738,2.219-4.951,4.955-4.956c2.735,0.005,4.948,2.218,4.953,4.956C12.949,10.736,10.736,12.948,8.001,12.953z"/></g></svg>