<svg viewBox="0 0 100 100" xmlns="http://www.w3.org/2000/svg" fill-rule="evenodd" clip-rule="evenodd" stroke-linejoin="round" stroke-miterlimit="1.414"><path d="M73.263 41.146C70.376 33.312 61.066 25.963 50 25.963c-11.066 0-20.376 7.349-23.263 15.182-14.524 1.889-24.356 5.482-24.356 9.612 0 4.31 10.718 8.03 26.3 9.842l-2.56 7.144c-.005 0-.011-.003-.017-.003a3.15 3.15 0 1 0 3.147 3.149c0-.664-.251-1.247-.602-1.752l5.737-7.98c4.895.394 10.134.619 15.613.619 5.48 0 10.718-.225 15.613-.62l5.738 7.98c-.352.506-.603 1.09-.603 1.753a3.147 3.147 0 0 0 3.147 3.148 3.147 3.147 0 0 0 3.15-3.148 3.15 3.15 0 0 0-3.15-3.15c-.005 0-.011.004-.019.004L71.317 60.6c15.584-1.81 26.302-5.532 26.302-9.842 0-4.13-9.832-7.723-24.356-9.61zm-3.378 5.335c0 .019-.043.346-.144.564C68.566 49.194 60.186 50.86 50 50.86s-18.566-1.666-19.741-3.815a2.157 2.157 0 0 1-.144-.564c-.003-.065-.01-.091-.01-.171 0-6.41 8.544-16.29 19.895-16.29 11.35 0 19.894 9.88 19.894 16.29 0 .08-.005.106-.01.171z" fill="#fff" fill-rule="nonzero"/></svg>