<?xml version="1.0" encoding="UTF-8" standalone="no"?>
<!DOCTYPE svg PUBLIC "-//W3C//DTD SVG 1.1//EN" "http://www.w3.org/Graphics/SVG/1.1/DTD/svg11.dtd">
<svg width="100%" height="100%" viewBox="0 0 100 100" version="1.1" xmlns="http://www.w3.org/2000/svg" xmlns:xlink="http://www.w3.org/1999/xlink" xml:space="preserve" style="fill-rule:evenodd;clip-rule:evenodd;stroke-linejoin:round;stroke-miterlimit:1.41421;">
    <g transform="matrix(0.952381,0,0,0.952381,2.38094,2.38142)">
        <path d="M74.426,40.703C71.395,32.477 61.619,24.761 50,24.761C38.381,24.761 28.605,32.477 25.574,40.702C10.324,42.685 0,46.458 0,50.794C0,55.32 11.254,59.226 27.615,61.128L24.928,68.63C24.922,68.63 24.915,68.626 24.909,68.626C23.081,68.626 21.602,70.108 21.602,71.933C21.602,73.759 23.081,75.238 24.909,75.238C26.735,75.238 28.214,73.759 28.214,71.933C28.214,71.236 27.95,70.624 27.581,70.093L33.605,61.714C38.745,62.128 44.246,62.364 49.999,62.364C55.752,62.364 61.253,62.128 66.393,61.714L72.417,70.093C72.048,70.624 71.784,71.236 71.784,71.933C71.784,73.759 73.263,75.238 75.089,75.238C76.917,75.238 78.396,73.759 78.396,71.933C78.396,70.109 76.917,68.626 75.089,68.626C75.083,68.626 75.077,68.63 75.069,68.63L72.383,61.128C88.746,59.227 100,55.32 100,50.794C100,46.458 89.676,42.685 74.426,40.703ZM70.879,46.305C70.879,46.324 70.834,46.668 70.728,46.897C69.494,49.153 60.695,50.902 50,50.902C39.305,50.902 30.506,49.153 29.272,46.897C29.166,46.668 29.121,46.324 29.121,46.305C29.118,46.236 29.111,46.209 29.111,46.125C29.111,39.394 38.081,29.021 50,29.021C61.918,29.021 70.889,39.394 70.889,46.125C70.889,46.209 70.883,46.236 70.879,46.305Z" style="fill:white;fill-rule:nonzero;"/>
    </g>
</svg>
