<?xml version="1.0"?><!DOCTYPE svg PUBLIC "-//W3C//DTD SVG 1.1//EN" "http://www.w3.org/Graphics/SVG/1.1/DTD/svg11.dtd"><svg width="16px" height="16px" xmlns="http://www.w3.org/2000/svg" viewBox="0 0 16 16" shape-rendering="geometricPrecision" fill="#00962d"><defs><mask id="decline-path"><rect fill="#fff" width="100%" height="100%"/><polygon points="17.414,1.215 14.79,-1.414 13.066,0.308 11.344,-1.414 8.717,1.213 10.439,2.934 8.715,4.656 11.345,7.284 13.067,5.562 14.789,7.285 17.414,4.655 15.693,2.935 " fill="#000"/></mask></defs><g fill="#cb1800"><polygon points="16,4.656 14.278,2.935 16,1.214 14.789,0.001 13.066,1.722 11.344,0.001 10.132,1.213 11.854,2.934 10.13,4.656 11.345,5.87 13.067,4.147 14.789,5.87 "/></g><g mask="url(#decline-path)"><g><path d="M8.001,12.153c0.258,0,0.466-0.209,0.466-0.466v-1.287c0-0.257-0.208-0.466-0.468-0.466 c-0.257,0-0.467,0.209-0.467,0.466v1.287C7.533,11.944,7.743,12.153,8.001,12.153z"/><path d="M7.394,4.755L6.578,2.832H2.798L1.982,4.755H0.861V14h14.278V4.755H7.394z M5.997,7.961c0-1.106,0.897-2.003,2.003-2.003 c1.106,0,2.002,0.897,2.002,2.003v0.618h-0.76V7.961c0-0.687-0.556-1.243-1.242-1.243c-0.686,0-1.243,0.555-1.243,1.243v0.618 h-0.76V7.961z M10.653,12.979H5.346V9.106h5.307V12.979z"/></g></g></svg>