<svg width="16" height="16" xmlns="http://www.w3.org/2000/svg" viewBox="0 0 16 16" shape-rendering="geometricPrecision" fill="#00962d"><defs><mask id="a"><rect fill="#fff" width="100%" height="100%"/><path fill="#000" d="M17.414 1.215L14.79-1.414 13.066.308l-1.722-1.722-2.627 2.627 1.722 1.721-1.724 1.722 2.63 2.628 1.722-1.722 1.722 1.723 2.625-2.63-1.721-1.72z"/></mask></defs><path d="M16 4.656l-1.722-1.721L16 1.214 14.789.001l-1.723 1.721L11.344.001l-1.212 1.212 1.722 1.721-1.724 1.722 1.215 1.214 1.722-1.723 1.722 1.723z" fill="#cb1800"/><path d="M8.058 9.283a2.493 2.493 0 0 0 2.497-2.495 2.493 2.493 0 0 0-2.497-2.494 2.496 2.496 0 1 0 0 4.989zm2.319 1.186H5.731a2.406 2.406 0 0 0-2.398 2.404V16h9.45v-3.127a2.412 2.412 0 0 0-2.406-2.404z" mask="url(#a)"/></svg>