<svg width="16" height="16" xmlns="http://www.w3.org/2000/svg" viewBox="0 0 16 16" shape-rendering="geometricPrecision" fill="#00962d"><defs><mask id="a"><rect fill="#fff" width="100%" height="100%"/><path fill="#000" d="M17.414 1.215L14.79-1.414 13.066.308l-1.722-1.722-2.627 2.627 1.722 1.721-1.724 1.722 2.63 2.628 1.722-1.722 1.722 1.723 2.625-2.63-1.721-1.72z"/></mask></defs><path d="M16 4.656l-1.722-1.721L16 1.214 14.789.001l-1.723 1.721L11.344.001l-1.212 1.212 1.722 1.721-1.724 1.722 1.215 1.214 1.722-1.723 1.722 1.723z" fill="#cb1800"/><path mask="url(#a)" d="M13.053 8.004c.064-.324.101-.657.101-1a5.18 5.18 0 0 0-10.358-.002h1.541a3.641 3.641 0 0 1 3.637-3.637 3.64 3.64 0 0 1 3.639 3.639c0 .35-.065.681-.157 1h-1.82c.177-.293.285-.633.285-1a1.945 1.945 0 1 0-3.891 0c0 .367.107.707.284 1H.958v5.482h14.084V8.004h-1.989zm-1.676 2.741H4.622v-1.46h6.755v1.46z"/></svg>