<?xml version="1.0"?><!DOCTYPE svg PUBLIC "-//W3C//DTD SVG 1.1//EN" "http://www.w3.org/Graphics/SVG/1.1/DTD/svg11.dtd"><svg width="16px" height="16px" xmlns="http://www.w3.org/2000/svg" viewBox="0 0 16 16" shape-rendering="geometricPrecision" fill="#00962d"><defs><mask id="decline-path"><rect fill="#fff" width="100%" height="100%"/><polygon points="17.414,1.215 14.79,-1.414 13.066,0.308 11.344,-1.414 8.717,1.213 10.439,2.934 8.715,4.656 11.345,7.284 13.067,5.562 14.789,7.285 17.414,4.655 15.693,2.935 " fill="#000"/></mask></defs><g fill="#cb1800"><polygon points="16,4.656 14.278,2.935 16,1.214 14.789,0.001 13.066,1.722 11.344,0.001 10.132,1.213 11.854,2.934 10.13,4.656 11.345,5.87 13.067,4.147 14.789,5.87 "/></g><g mask="url(#decline-path)"><g><g><rect x="1" y="11.479" width="13.987" height="1.042"/></g><g><rect x="1" y="7.465" width="13.987" height="1.062"/></g><g><rect x="1" y="3.45" width="13.987" height="1.021"/></g><path d="M7.466,10.505h2.027c0.267,0,0.483,0.216,0.483,0.483v2.027c0,0.267-0.216,0.483-0.483,0.483H7.466 c-0.267,0-0.483-0.216-0.483-0.483v-2.027C6.983,10.721,7.2,10.505,7.466,10.505z"/><path d="M10.474,6.501h2.032c0.267,0,0.483,0.216,0.483,0.483v2.032c0,0.267-0.216,0.483-0.483,0.483h-2.032 c-0.267,0-0.483-0.216-0.483-0.483V6.984C9.991,6.717,10.208,6.501,10.474,6.501z"/><path d="M3.477,2.502h2.019c0.267,0,0.483,0.216,0.483,0.483v2.019c0,0.267-0.216,0.483-0.483,0.483H3.477 c-0.267,0-0.483-0.216-0.483-0.483V2.985C2.994,2.718,3.21,2.502,3.477,2.502z"/></g></g></svg>