<?xml version="1.0"?><!DOCTYPE svg PUBLIC "-//W3C//DTD SVG 1.1//EN" "http://www.w3.org/Graphics/SVG/1.1/DTD/svg11.dtd"><svg width="16px" height="16px" xmlns="http://www.w3.org/2000/svg" viewBox="0 0 16 16" shape-rendering="geometricPrecision" fill="#00962d"><defs><mask id="decline-path"><rect fill="#fff" width="100%" height="100%"/><polygon points="17.414,1.215 14.79,-1.414 13.066,0.308 11.344,-1.414 8.717,1.213 10.439,2.934 8.715,4.656 11.345,7.284 13.067,5.562 14.789,7.285 17.414,4.655 15.693,2.935 " fill="#000"/></mask></defs><g fill="#cb1800"><polygon points="16,4.656 14.278,2.935 16,1.214 14.789,0.001 13.066,1.722 11.344,0.001 10.132,1.213 11.854,2.934 10.13,4.656 11.345,5.87 13.067,4.147 14.789,5.87 "/></g><g mask="url(#decline-path)"><g><path d="M1.062,7.999c0,3.833,3.107,6.939,6.941,6.939c3.829,0,6.934-3.106,6.936-6.939c-0.002-3.832-3.106-6.936-6.936-6.937 C4.169,1.062,1.062,4.168,1.062,7.999z M13.534,7.999c-0.006,3.057-2.478,5.529-5.531,5.536 c-3.059-0.007-5.531-2.479-5.537-5.536c0.006-3.056,2.478-5.528,5.537-5.534C11.057,2.471,13.528,4.943,13.534,7.999z"/></g><path d="M8,7.999H3.327c0.005,2.581,2.093,4.668,4.675,4.674c2.578-0.006,4.665-2.093,4.67-4.674 c-0.005-2.58-2.092-4.668-4.67-4.672c0,0-0.002,0-0.003,0V7.999z"/></g></svg>