<svg width="16" height="16" xmlns="http://www.w3.org/2000/svg" viewBox="0 0 16 16" shape-rendering="geometricPrecision" fill="#00962d"><defs><mask id="a"><rect fill="#fff" width="100%" height="100%"/><path fill="#000" d="M17.414 1.215L14.79-1.414 13.066.308l-1.722-1.722-2.627 2.627 1.722 1.721-1.724 1.722 2.63 2.628 1.722-1.722 1.722 1.723 2.625-2.63-1.721-1.72z"/></mask></defs><path d="M16 4.656l-1.722-1.721L16 1.214 14.789.001l-1.723 1.721L11.344.001l-1.212 1.212 1.722 1.721-1.724 1.722 1.215 1.214 1.722-1.723 1.722 1.723z" fill="#cb1800"/><g mask="url(#a)"><path d="M15.387 12.386L11.35 8.347l-3.029 3.029 4.035 4.034c.784.783 2.092.741 2.932-.099.836-.835.879-2.148.099-2.925zM7.678 4.667a3.86 3.86 0 0 0-1.054-3.502C5.577.119 4.087-.186 2.765.211l2.109 2.112-.612 1.898-1.966.679L.188 2.788a3.87 3.87 0 0 0 .951 3.859 3.871 3.871 0 0 0 3.503 1.056l3.036-3.036zM.036 15.915l1.874-.578-1.274-1.278zm1.14-3.627l2.496 2.515L13.784 4.738l-2.497-2.515zM15.484.551a1.773 1.773 0 0 0-2.499-.017l-1.008 1 2.497 2.517 1.011-1.003-.002-.001c.687-.69.691-1.808.001-2.496z"/></g></svg>