<?xml version="1.0"?><!DOCTYPE svg PUBLIC "-//W3C//DTD SVG 1.1//EN" "http://www.w3.org/Graphics/SVG/1.1/DTD/svg11.dtd"><svg width="16px" height="16px" xmlns="http://www.w3.org/2000/svg" viewBox="0 0 16 16" shape-rendering="geometricPrecision" fill="#000"><defs><mask id="add-path"><rect fill="#fff" width="100%" height="100%"/><polygon points="14.782,1.217 14.782,-1 11.218,-1 11.218,1.217 9,1.217 9,4.78 11.218,4.78 11.218,7.001 14.782,7.001 14.782,4.78 17,4.78 17,1.217 " fill="#000"/></mask></defs><polygon points="16,2.217 13.782,2.217 13.782,0 12.218,0 12.218,2.217 10,2.217 10,3.78 12.218,3.78 12.218,6.001 13.782,6.001 13.782,3.78 16,3.78 " fill="#cb1800"/><g mask="url(#add-path)"><g><polygon points="4.463,15.971 5.954,14.697 4.278,14.029"/><rect x="2.716" y="6.643" transform="matrix(0.3723 -0.9281 0.9281 0.3723 -3.1069 12.2355)" width="9.554" height="3.544"/><path d="M10.815,0.121C9.91-0.243,8.885,0.195,8.515,1.097L7.986,2.414l3.291,1.321l0.531-1.321h-0.002 C12.161,1.508,11.721,0.48,10.815,0.121z"/></g></g></svg>