<svg width="16" height="16" xmlns="http://www.w3.org/2000/svg" viewBox="0 0 16 16" shape-rendering="geometricPrecision"><defs><mask id="a"><rect fill="#fff" width="100%" height="100%"/><path d="M14.782 1.217V-1h-3.564v2.217H9V4.78h2.218v2.221h3.564V4.78H17V1.217z"/></mask></defs><path fill="#cb1800" d="M16 2.217h-2.218V0h-1.564v2.217H10V3.78h2.218v2.221h1.564V3.78H16z"/><g mask="url(#a)"><path d="M1.811-.001v16h12.378v-16H1.811zm11.34 14.962H2.793V1.011H13.15v13.95z"/><path d="M8.067 4.602a1.373 1.373 0 1 0 .002-2.746 1.373 1.373 0 0 0-.002 2.746zm1.354 7.896v-6.49H5.312v1.02H6.66v5.471H5.307v1.359h5.467v-1.359H9.421z"/></g></svg>