<svg width="16" height="16" xmlns="http://www.w3.org/2000/svg" viewBox="0 0 16 16" shape-rendering="geometricPrecision"><defs><mask id="a"><rect fill="#fff" width="100%" height="100%"/><path d="M14.782 1.217V-1h-3.564v2.217H9V4.78h2.218v2.221h3.564V4.78H17V1.217z"/></mask></defs><path fill="#cb1800" d="M16 2.217h-2.218V0h-1.564v2.217H10V3.78h2.218v2.221h1.564V3.78H16z"/><g mask="url(#a)"><path d="M9.341 5.662a2.312 2.312 0 1 1 4.626 0V6.81h1.413V5.662a3.726 3.726 0 1 0-7.453 0V6.81H9.34V5.662zM.62 7.792v7.207h9.875V7.792H.62zm5.806 4.802a.87.87 0 0 1-1.738 0v-2.396a.868.868 0 0 1 1.738 0v2.396z"/></g></svg>