<svg width="16" height="16" xmlns="http://www.w3.org/2000/svg" viewBox="0 0 16 16" shape-rendering="geometricPrecision"><defs><mask id="a"><rect fill="#fff" width="100%" height="100%"/><path d="M14.782 1.217V-1h-3.564v2.217H9V4.78h2.218v2.221h3.564V4.78H17V1.217z"/></mask></defs><path fill="#cb1800" d="M16 2.217h-2.218V0h-1.564v2.217H10V3.78h2.218v2.221h1.564V3.78H16z"/><path d="M2.138 11.963a1.128 1.128 0 1 0 0-2.257 1.128 1.128 0 0 0 0 2.257zm1.049.536H1.085c-.599 0-1.085.49-1.085 1.088v1.414h4.276v-1.414c0-.598-.49-1.088-1.089-1.088zm10.675-.536a1.129 1.129 0 1 0 .002-2.258 1.129 1.129 0 0 0-.002 2.258zm1.049.536H12.81a1.09 1.09 0 0 0-1.086 1.088v1.414H16v-1.414c0-.598-.491-1.088-1.089-1.088zM8.018 2.257a1.128 1.128 0 1 0 0-2.257 1.128 1.128 0 1 0 0 2.257zm1.049.537H6.965c-.599 0-1.085.489-1.085 1.088v1.413h4.276V3.882c0-.599-.49-1.088-1.089-1.088zm-.539 4.195V5.985h-1.02v1.004H1.984v1.984h1.057v-.972h9.972v.972h.945V6.989z" mask="url(#a)"/></svg>