<svg width="16" height="16" xmlns="http://www.w3.org/2000/svg" viewBox="0 0 16 16" shape-rendering="geometricPrecision"><defs><mask id="a"><rect fill="#fff" width="100%" height="100%"/><path d="M14.782 1.217V-1h-3.564v2.217H9V4.78h2.218v2.221h3.564V4.78H17V1.217z"/></mask></defs><path fill="#cb1800" d="M16 2.217h-2.218V0h-1.564v2.217H10V3.78h2.218v2.221h1.564V3.78H16z"/><path d="M11.236 3.388c.001-.045.005-.09.005-.137a3.241 3.241 0 0 0-6.274-1.139l1.312.402a1.868 1.868 0 0 1 1.72-1.137c1.033 0 1.873.838 1.873 1.873 0 .525-.222 1.002-.572 1.342-.582.624-1.028.624-2.172 1.239-1.83.981-2.275 2.51-2.371 3.414v6.746h6.485V3.388h-.006zM7.892 15.046h-.01c-.531 0-.9-.4-.9-.932 0-.555.378-.934.911-.934.555 0 .912.379.922.934-.001.531-.368.932-.923.932zm1.24-3.82c-.379.418-.532.818-.521 1.279v.186H7.248l-.009-.268c-.031-.523.144-1.055.604-1.598.327-.398.594-.729.594-1.074 0-.359-.235-.596-.748-.615-.338 0-.748.123-1.015.307l-.349-1.116c.38-.215.984-.42 1.711-.42 1.354 0 1.967.746 1.967 1.598-.001.779-.483 1.289-.871 1.721z" mask="url(#a)"/></svg>