<svg width="16" height="16" xmlns="http://www.w3.org/2000/svg" viewBox="0 0 16 16" shape-rendering="geometricPrecision"><defs><mask id="a"><rect fill="#fff" width="100%" height="100%"/><path d="M14.782 1.217V-1h-3.564v2.217H9V4.78h2.218v2.221h3.564V4.78H17V1.217z"/></mask></defs><path fill="#cb1800" d="M16 2.217h-2.218V0h-1.564v2.217H10V3.78h2.218v2.221h1.564V3.78H16z"/><g mask="url(#a)"><path d="M1.021 1.02v2.617c3.137 0 5.964 1.267 8.021 3.32a11.31 11.31 0 0 1 3.321 8.021h2.617C14.978 7.27 8.73 1.022 1.021 1.02zm0 4.709v2.613a6.647 6.647 0 0 1 6.635 6.637h2.616a9.251 9.251 0 0 0-9.251-9.25zM2.9 11.222a1.88 1.88 0 1 0 .001 3.757 1.88 1.88 0 0 0-.001-3.757z"/></g></svg>