<svg width="16" height="16" xmlns="http://www.w3.org/2000/svg" viewBox="0 0 16 16" shape-rendering="geometricPrecision"><defs><mask id="a"><rect fill="#fff" width="100%" height="100%"/><path d="M14.782 1.217V-1h-3.564v2.217H9V4.78h2.218v2.221h3.564V4.78H17V1.217z"/></mask></defs><path fill="#cb1800" d="M16 2.217h-2.218V0h-1.564v2.217H10V3.78h2.218v2.221h1.564V3.78H16z"/><path mask="url(#a)" d="M14.9 4.223l-2.144-.193a3.247 3.247 0 0 0-5.974.925c-.099.53-.099 1.291-.557 2.091-1.626.367-3.325.2-3.325.2s.273 1.135 2.174 2.048c-1.721 2.305-4.06 2.705-4.06 2.705s1.001.983 3.196.725c.803-.095 1.504-.457 1.826-.646l-2.271 1.408s1.385.422 4.327-.488c3.759-1.162 4.873-4.779 4.845-6.051l.016-.039 2.035-.852-2.093-.433 2.005-1.4zm-3.993 1.451c-.297 0-.539-.322-.539-.719 0-.397.242-.718.539-.718.298 0 .539.321.539.718 0 .397-.241.719-.539.719z"/></svg>