<svg width="16" height="16" xmlns="http://www.w3.org/2000/svg" viewBox="0 0 16 16" shape-rendering="geometricPrecision"><defs><mask id="a"><rect fill="#fff" width="100%" height="100%"/><path d="M14.782 1.217v-2.217h-3.564v2.217h-2.218v3.563h2.218v2.221h3.564v-2.221h2.218v-3.563z"/></mask></defs><path fill="#cb1800" d="M16 2.217h-2.218v-2.217h-1.564v2.217h-2.218v1.563h2.218v2.221h1.564v-2.221h2.218z"/><path mask="url(#a)" d="M7.993 3.184c-3.468 0-6.475 1.952-7.993 4.817 1.518 2.863 4.525 4.814 7.993 4.814 3.466 0 6.472-1.951 7.993-4.814-1.521-2.865-4.527-4.817-7.993-4.817zm-.82 8.199l-3.052-3.052 1.342-1.344 1.709 1.708 3.265-3.265 1.345 1.344-4.609 4.609z"/></svg>