<svg width="16" height="16" xmlns="http://www.w3.org/2000/svg" viewBox="0 0 16 16" shape-rendering="geometricPrecision" fill="#ffad00"><defs><mask id="a"><rect fill="#fff" width="100%" height="100%"/><path d="M16.451 1.534a1.141 1.141 0 0 0-.288-1.066l-.58-.581a1.116 1.116 0 0 0-1.065-.29 1.127 1.127 0 0 0-.962-.551h-.819c-.41 0-.77.223-.964.554-.38-.106-.813.038-1.062.288l-.576.579a1.116 1.116 0 0 0-.292 1.067c-.329.194-.55.553-.55.962v.821c0 .408.221.766.548.96a1.14 1.14 0 0 0-.035.285c.002.263.14.595.325.781l.58.581c.248.248.68.393 1.062.287.194.332.555.555.963.555h.82c.298 0 .588-.121.796-.333a1.02 1.02 0 0 0 .158-.216c.098.025.201.031.3.036.26-.004.588-.144.771-.328l.57-.572c.215-.21.337-.503.335-.803 0-.085-.016-.178-.042-.271.333-.193.556-.552.556-.964v-.821c0-.408-.221-.766-.549-.96z" fill="#000"/></mask></defs><path d="M15.884 2.379h-.177v-.003a.523.523 0 0 1-.5-.325.531.531 0 0 1 .122-.586l.126-.126a.12.12 0 0 0 0-.165l-.579-.58a.117.117 0 0 0-.166 0l-.125.125A.525.525 0 0 1 14 .841a.532.532 0 0 1-.326-.501l-.001-.177a.117.117 0 0 0-.117-.117h-.819a.117.117 0 0 0-.116.117v.178a.53.53 0 0 1-.911.379l-.126-.126a.118.118 0 0 0-.165 0l-.578.581a.116.116 0 0 0 0 .164l.123.127a.532.532 0 0 1 .124.586.523.523 0 0 1-.499.325l-.178.003a.117.117 0 0 0-.117.117v.821c0 .063.052.116.117.116h.178l-.002.002a.524.524 0 0 1 .501.325.53.53 0 0 1-.123.585v.001l-.125.127a.117.117 0 0 0 0 .163l.579.58a.116.116 0 0 0 .165 0l.127-.124a.53.53 0 0 1 .585-.123c.207.088.331.29.326.502l.002.177h-.002a.117.117 0 0 0 .116.117h.82a.117.117 0 0 0 .117-.117h-.001l.001-.177a.529.529 0 0 1 .911-.379l.124.126a.116.116 0 0 0 .165 0l.58-.58a.114.114 0 0 0 0-.163l-.125-.129a.53.53 0 0 1 .378-.911l.177-.004A.117.117 0 0 0 16 3.315v-.821a.117.117 0 0 0-.116-.115zM13.146 3.91a1.002 1.002 0 0 1-1.001-1.004c0-.555.448-1.005 1.001-1.005a1.004 1.004 0 0 1 0 2.009z" fill="#cb1800"/><path d="M12.421 2.295H3.568a2.532 2.532 0 0 0-2.529 2.528V9.76a2.534 2.534 0 0 0 2.529 2.529h.196c-.097.402-.325.845-.828 1.304L1.368 15l2.084-.319c2.36-.374 3.82-1.796 4.344-2.392h4.625A2.533 2.533 0 0 0 14.95 9.76V4.823a2.53 2.53 0 0 0-2.529-2.528zm1.272 7.465c0 .696-.577 1.272-1.272 1.274H7.188l-.188.25c-.033.05-.784 1.016-2.124 1.657.153-.422.211-.832.207-1.188l-.001-.108-.018-.61H3.568a1.284 1.284 0 0 1-1.272-1.274V4.823c0-.698.577-1.272 1.272-1.273h8.853a1.281 1.281 0 0 1 1.272 1.273V9.76zM4.849 6.242a1.156 1.156 0 1 0 .001 2.311 1.156 1.156 0 0 0-.001-2.311zm3.146 0c-.638 0-1.157.518-1.157 1.156a1.157 1.157 0 0 0 2.312 0c0-.638-.518-1.156-1.155-1.156zm3.145 0c-.637 0-1.156.518-1.156 1.156a1.155 1.155 0 1 0 1.156-1.156z" mask="url(#a)"/></svg>