<svg width="16" height="16" xmlns="http://www.w3.org/2000/svg" viewBox="0 0 16 16" shape-rendering="geometricPrecision" fill="#ffad00"><defs><mask id="a"><rect fill="#fff" width="100%" height="100%"/><path d="M15.568.488c.365-.9-.337-1.487-.851-1.704-.593-.25-1.396-.157-1.78.752l-.142.357-2.14 5.317.603 2.278 1.98-1.23L15.44.788l.128-.3z" fill="#000"/></mask></defs><path d="M11.686 6.423l.6-.513-.675-.269zM14.245.038a.714.714 0 0 0-.927.393l-.213.531 1.326.532.214-.532h-.001a.714.714 0 0 0-.399-.924zM11.527 4.9l1.433-3.573 1.325.532-1.433 3.572z" fill="#cb1800"/><g mask="url(#a)"><path d="M10.021 15.177l3.437-3.165h-3.437z"/><path d="M2.02 0v16h7.021v-4.905h4.941V0H2.02zM13 9.97H8v5H3.083v-14H13v9z"/><path d="M6.999 2.97h1v1h-1zm1 1h1v1h-1z"/><path d="M6.999 4.97h1v1h-1zm1 1h1v1h-1zm-1 1h1v1h-1zm1 1h1v1h-1zm-1 1h1v1h-1zm0 2h1v1h-1zm0 2h1v1h-1zM6.975 0h2.024v1.97H6.975z"/><path d="M7.583 4.414l.634-1.663a.873.873 0 0 0-.365-1.056.87.87 0 0 0-1.104.177h-.001L5.579 3.215l.001.001a1.188 1.188 0 0 0 .286 1.795 1.187 1.187 0 0 0 1.717-.597zm-.426-1.559a.482.482 0 0 1 .493-.825.48.48 0 1 1-.493.825z"/><path d="M7.999 1.97h1v1h-1z"/></g></svg>