<?xml version="1.0"?><!DOCTYPE svg PUBLIC "-//W3C//DTD SVG 1.1//EN" "http://www.w3.org/Graphics/SVG/1.1/DTD/svg11.dtd"><svg width="16px" height="16px" xmlns="http://www.w3.org/2000/svg" viewBox="0 0 16 16" shape-rendering="geometricPrecision" fill="#ffad00"><defs><mask id="edit-path"><rect fill="#fff" width="100%" height="100%"/><path d="M15.568,0.488c0.365-0.9-0.337-1.487-0.851-1.704c-0.593-0.25-1.396-0.157-1.78,0.752l-0.142,0.357 l-2.14,5.317l0.603,2.278l1.98-1.23l2.202-5.47L15.568,0.488z" fill="#000"/></mask></defs><g id="edit_3_" display="inline" fill="#cb1800"><polygon points="11.686,6.423 12.286,5.91 11.611,5.641 "/><path d="M14.245,0.038c-0.365-0.147-0.778,0.03-0.927,0.393l-0.213,0.531l1.326,0.532l0.214-0.532h-0.001 C14.787,0.597,14.61,0.183,14.245,0.038z"/><rect x="10.982" y="2.666" transform="matrix(0.3723 -0.9281 0.9281 0.3723 4.9642 14.0992)" width="3.849" height="1.428"/></g><g mask="url(#edit-path)"><polygon points="10.021,15.177 13.458,12.012 10.021,12.012"/><path d="M2.02,0v16h7.021v-4.905h4.941V0H2.02z M13,9.97h-5l0,5H3.083v-14H13V9.97z"/><g><path d="M8.723,6.459H7.353v2.68H5.964V2.022h2.758c1.469,0,2.349,1.01,2.349,2.219C11.071,5.45,10.192,6.459,8.723,6.459z M8.653,3.262H7.353v1.949h1.299c0.63,0,1.029-0.391,1.029-0.971C9.682,3.661,9.283,3.262,8.653,3.262z"/></g></g></svg>