<?xml version="1.0"?><!DOCTYPE svg PUBLIC "-//W3C//DTD SVG 1.1//EN" "http://www.w3.org/Graphics/SVG/1.1/DTD/svg11.dtd"><svg width="16px" height="16px" xmlns="http://www.w3.org/2000/svg" viewBox="0 0 16 16" shape-rendering="geometricPrecision" fill="#ffad00"><defs><mask id="edit-path"><rect fill="#fff" width="100%" height="100%"/><path d="M15.568,0.488c0.365-0.9-0.337-1.487-0.851-1.704c-0.593-0.25-1.396-0.157-1.78,0.752l-0.142,0.357 l-2.14,5.317l0.603,2.278l1.98-1.23l2.202-5.47L15.568,0.488z" fill="#000"/></mask></defs><g id="edit_3_" display="inline" fill="#cb1800"><polygon points="11.686,6.423 12.286,5.91 11.611,5.641 "/><path d="M14.245,0.038c-0.365-0.147-0.778,0.03-0.927,0.393l-0.213,0.531l1.326,0.532l0.214-0.532h-0.001 C14.787,0.597,14.61,0.183,14.245,0.038z"/><rect x="10.982" y="2.666" transform="matrix(0.3723 -0.9281 0.9281 0.3723 4.9642 14.0992)" width="3.849" height="1.428"/></g><g mask="url(#edit-path)"><path d="M13.031,11.953c0,0-0.891,0-1.016-0.806c-0.187-1.197-0.661-4.542-0.661-4.542h-0.007 c-0.233-1.326-1.228-2.38-2.521-2.704c0.002-0.021,0.012-0.039,0.012-0.06c0-0.47-0.381-0.852-0.852-0.852 c-0.47,0-0.852,0.381-0.852,0.852c0,0.024,0.012,0.044,0.014,0.068C5.869,4.24,4.884,5.288,4.653,6.606H4.646 c0,0-0.501,3.352-0.663,4.557c-0.106,0.791-1.014,0.791-1.014,0.791v1.031h2.134c0.199,0.598,0.756,1.031,1.42,1.031 s1.222-0.434,1.42-1.031h5.087V11.953z"/></g></svg>