<svg width="16" height="16" xmlns="http://www.w3.org/2000/svg" viewBox="0 0 16 16" shape-rendering="geometricPrecision" fill="#ffad00"><defs><mask id="a"><rect fill="#fff" width="100%" height="100%"/><path d="M15.568.488c.365-.9-.337-1.487-.851-1.704-.593-.25-1.396-.157-1.78.752l-.142.357-2.14 5.317.603 2.278 1.98-1.23L15.44.788l.128-.3z" fill="#000"/></mask></defs><path d="M11.686 6.423l.6-.513-.675-.269zM14.245.038a.714.714 0 0 0-.927.393l-.213.531 1.326.532.214-.532h-.001a.714.714 0 0 0-.399-.924zM11.527 4.9l1.433-3.573 1.325.532-1.433 3.572z" fill="#cb1800"/><g mask="url(#a)"><path d="M14.017 5.94a5.938 5.938 0 0 0-11.875 0c0 1.172.345 2.262.932 3.184l-.006-.004.041.06c.046.071.096.14.145.209L8.114 16l4.833-6.665.093-.136.025-.036-.005.001a5.902 5.902 0 0 0 .957-3.224zm-5.938 4.567a4.565 4.565 0 1 1 0-9.133 4.565 4.565 0 0 1 0 9.133z"/><circle cx="8.079" cy="5.914" r="2.242"/></g></svg>