<svg width="16" height="16" xmlns="http://www.w3.org/2000/svg" viewBox="0 0 16 16" shape-rendering="geometricPrecision" fill="#ffad00"><defs><mask id="a"><rect fill="#fff" width="100%" height="100%"/><path d="M15.568.488c.365-.9-.337-1.487-.851-1.704-.593-.25-1.396-.157-1.78.752l-.142.357-2.14 5.317.603 2.278 1.98-1.23L15.44.788l.128-.3z" fill="#000"/></mask></defs><g fill="#cb1800"><path d="M11.686 6.423l.6-.513-.675-.269zM14.245.038a.714.714 0 0 0-.927.393l-.213.531 1.326.532.214-.532h-.001a.714.714 0 0 0-.399-.924zM11.527 4.9l1.433-3.573 1.325.532-1.433 3.572z"/></g><path mask="url(#a)" d="M7.999.97a6.99 6.99 0 0 0-2.429.44 1.517 1.517 0 0 0-.912-.309 1.53 1.53 0 0 0-1.502 1.81A7.014 7.014 0 0 0 .97 8.003 7.03 7.03 0 1 0 7.999.97zm5.589 6.66h-.889a1.528 1.528 0 0 0-1.131-1.027A3.823 3.823 0 0 0 8.5 4.211V2.418a5.61 5.61 0 0 1 5.088 5.212zm-3.786 0H8.5V4.988a3.056 3.056 0 0 1 2.242 1.674 1.523 1.523 0 0 0-.94.968zm-2.302 0H4.975A3.053 3.053 0 0 1 7.5 4.988V7.63zm0 1v2.382A3.06 3.06 0 0 1 5.004 8.63H7.5zm1 0h1.322c.146.393.445.712.829.876A3.055 3.055 0 0 1 8.5 11.013V8.63zm-4.456-4.6A1.526 1.526 0 0 0 6.18 2.702a5.55 5.55 0 0 1 1.32-.284v1.793A3.815 3.815 0 0 0 4.198 7.63H2.412a5.601 5.601 0 0 1 1.632-3.6zM2.43 8.63h1.793a3.82 3.82 0 0 0 3.276 3.159v1.793A5.613 5.613 0 0 1 2.43 8.63zm6.07 4.952v-1.793a3.826 3.826 0 0 0 2.979-2.184 1.524 1.524 0 0 0 1.201-.975h.89a5.614 5.614 0 0 1-5.07 4.952z"/></svg>