<svg width="16" height="16" xmlns="http://www.w3.org/2000/svg" viewBox="0 0 16 16" shape-rendering="geometricPrecision" fill="#ffad00"><defs><mask id="a"><rect fill="#fff" width="100%" height="100%"/><path d="M15.568.488c.365-.9-.337-1.487-.851-1.704-.593-.25-1.396-.157-1.78.752l-.142.357-2.14 5.317.603 2.278 1.98-1.23L15.44.788l.128-.3z" fill="#000"/></mask></defs><path d="M11.686 6.423l.6-.513-.675-.269zM14.245.038a.714.714 0 0 0-.927.393l-.213.531 1.326.532.214-.532h-.001a.714.714 0 0 0-.399-.924zM11.527 4.9l1.433-3.573 1.325.532-1.433 3.572z" fill="#cb1800"/><g mask="url(#a)"><path d="M11.231 3.39c.003-.045.008-.09.008-.137A3.24 3.24 0 0 0 7.999.012a3.234 3.234 0 0 0-3.031 2.104l1.31.401a1.872 1.872 0 1 1 3.024 2.078c-.584.621-1.028.621-2.174 1.236-1.828.982-2.273 2.51-2.37 3.412v6.745h6.483v-12.6h-.011v.002zm-.812 10.615l-1.02 1.023-1.452-1.453-1.452 1.454-1.023-1.024 1.453-1.453-1.452-1.451 1.022-1.022 1.451 1.452 1.453-1.452 1.02 1.022-1.452 1.451 1.452 1.453z"/></g></svg>