<?xml version="1.0"?><!DOCTYPE svg PUBLIC "-//W3C//DTD SVG 1.1//EN" "http://www.w3.org/Graphics/SVG/1.1/DTD/svg11.dtd"><svg width="16px" height="16px" xmlns="http://www.w3.org/2000/svg" viewBox="0 0 16 16" shape-rendering="geometricPrecision" fill="#ffad00"><defs><mask id="edit-path"><rect fill="#fff" width="100%" height="100%"/><path d="M15.568,0.488c0.365-0.9-0.337-1.487-0.851-1.704c-0.593-0.25-1.396-0.157-1.78,0.752l-0.142,0.357 l-2.14,5.317l0.603,2.278l1.98-1.23l2.202-5.47L15.568,0.488z" fill="#000"/></mask></defs><g id="edit_3_" display="inline" fill="#cb1800"><polygon points="11.686,6.423 12.286,5.91 11.611,5.641 "/><path d="M14.245,0.038c-0.365-0.147-0.778,0.03-0.927,0.393l-0.213,0.531l1.326,0.532l0.214-0.532h-0.001 C14.787,0.597,14.61,0.183,14.245,0.038z"/><rect x="10.982" y="2.666" transform="matrix(0.3723 -0.9281 0.9281 0.3723 4.9642 14.0992)" width="3.849" height="1.428"/></g><path mask="url(#edit-path)" d="M14.9,4.223l-2.144-0.193c-0.665-1.139-1.984-1.804-3.359-1.566 C8.062,2.695,7.062,3.711,6.782,4.955c-0.099,0.53-0.099,1.291-0.557,2.091C4.599,7.413,2.9,7.246,2.9,7.246 s0.273,1.135,2.174,2.048c-1.721,2.305-4.06,2.705-4.06,2.705s1.001,0.983,3.196,0.725c0.803-0.095,1.504-0.457,1.826-0.646 l-2.271,1.408c0,0,1.385,0.422,4.327-0.488c3.759-1.162,4.873-4.779,4.845-6.051c0.006-0.013,0.01-0.025,0.016-0.039l2.035-0.852 l-2.093-0.433L14.9,4.223z M10.907,5.674c-0.297,0-0.539-0.322-0.539-0.719c0-0.397,0.242-0.718,0.539-0.718 c0.298,0,0.539,0.321,0.539,0.718C11.446,5.352,11.205,5.674,10.907,5.674z"/></svg>