<?xml version="1.0"?><!DOCTYPE svg PUBLIC "-//W3C//DTD SVG 1.1//EN" "http://www.w3.org/Graphics/SVG/1.1/DTD/svg11.dtd"><svg width="16px" height="16px" xmlns="http://www.w3.org/2000/svg" viewBox="0 0 16 16" shape-rendering="geometricPrecision" fill="#ffad00"><defs><mask id="edit-path"><rect fill="#fff" width="100%" height="100%"/><path d="M15.568,0.488c0.365-0.9-0.337-1.487-0.851-1.704c-0.593-0.25-1.396-0.157-1.78,0.752l-0.142,0.357 l-2.14,5.317l0.603,2.278l1.98-1.23l2.202-5.47L15.568,0.488z" fill="#000"/></mask></defs><g id="edit_3_" display="inline" fill="#cb1800"><polygon points="11.686,6.423 12.286,5.91 11.611,5.641 "/><path d="M14.245,0.038c-0.365-0.147-0.778,0.03-0.927,0.393l-0.213,0.531l1.326,0.532l0.214-0.532h-0.001 C14.787,0.597,14.61,0.183,14.245,0.038z"/><rect x="10.982" y="2.666" transform="matrix(0.3723 -0.9281 0.9281 0.3723 4.9642 14.0992)" width="3.849" height="1.428"/></g><g mask="url(#edit-path)"><g><path d="M14.182,12.821L8.715,7.353L7.881,6.52L7.048,7.353L6.33,8.071L5.496,8.905L6.33,9.738l5.467,5.467l0.834,0.834 l0.833-0.834l0.718-0.718l0.834-0.834L14.182,12.821z M8.668,10.635L6.921,8.887l0.943-0.943l1.747,1.747L8.668,10.635z"/></g><g><polygon points="3.108,8.848 2.601,10.205 1.244,10.711 2.601,11.218 3.108,12.575 3.615,11.218 4.972,10.711 3.615,10.205"/></g><g><polygon points="4.938,5.26 5.653,3.345 7.567,2.63 5.653,1.915 4.938,0 4.222,1.915 2.308,2.63 4.222,3.345"/></g><g><polygon points="10.584,6.142 11.054,4.885 12.31,4.416 11.054,3.946 10.584,2.69 10.115,3.946 8.859,4.416 10.115,4.885"/></g></g></svg>