<?xml version="1.0"?><!DOCTYPE svg PUBLIC "-//W3C//DTD SVG 1.1//EN" "http://www.w3.org/Graphics/SVG/1.1/DTD/svg11.dtd"><svg width="16px" height="16px" xmlns="http://www.w3.org/2000/svg" viewBox="0 0 16 16" shape-rendering="geometricPrecision" fill="#ffad00"><defs><mask id="visibility-visible-path"><rect fill="#fff" width="100%" height="100%"/><path d="M12.997,0.858c-1.845,0-3.446,1.039-4.253,2.563c0.808,1.523,2.408,2.562,4.253,2.562 c1.844,0,3.444-1.039,4.253-2.562C16.441,1.897,14.841,0.858,12.997,0.858z" fill="#000"/></mask></defs><path display="inline" d="M12.971,1.607c-1.315,0-2.454,0.74-3.029,1.825 c0.575,1.085,1.715,1.825,3.029,1.825c1.314,0,2.453-0.74,3.029-1.825C15.424,2.348,14.284,1.607,12.971,1.607z" fill="#cb1800"/><g mask="url(#visibility-visible-path)"><path d="M1.935,1.982V14h3.031V1.982H1.935z M3.451,12.028c-0.511,0-0.924-0.413-0.924-0.923 c0-0.512,0.413-0.925,0.924-0.925c0.51,0,0.923,0.413,0.923,0.925C4.374,11.615,3.96,12.028,3.451,12.028z"/><path d="M5.993,1.982V14h3.029V1.982H5.993z M7.508,12.028c-0.511,0-0.924-0.412-0.924-0.922 c0-0.512,0.413-0.923,0.924-0.923c0.51,0,0.922,0.411,0.922,0.923C8.431,11.616,8.018,12.028,7.508,12.028z"/><path d="M10.001,1.982V14h3.076V1.982H10.001z M11.54,11.999c-0.519,0-0.938-0.419-0.938-0.937 c0-0.52,0.419-0.938,0.938-0.938c0.518,0,0.937,0.419,0.937,0.938C12.476,11.58,12.057,11.999,11.54,11.999z"/></g></svg>