<?xml version="1.0"?><!DOCTYPE svg PUBLIC "-//W3C//DTD SVG 1.1//EN" "http://www.w3.org/Graphics/SVG/1.1/DTD/svg11.dtd"><svg width="16px" height="16px" xmlns="http://www.w3.org/2000/svg" viewBox="0 0 16 16" shape-rendering="geometricPrecision" fill="#ffad00"><defs><mask id="visibility-visible-path"><rect fill="#fff" width="100%" height="100%"/><path d="M12.997,0.858c-1.845,0-3.446,1.039-4.253,2.563c0.808,1.523,2.408,2.562,4.253,2.562 c1.844,0,3.444-1.039,4.253-2.562C16.441,1.897,14.841,0.858,12.997,0.858z" fill="#000"/></mask></defs><path display="inline" d="M12.971,1.607c-1.315,0-2.454,0.74-3.029,1.825 c0.575,1.085,1.715,1.825,3.029,1.825c1.314,0,2.453-0.74,3.029-1.825C15.424,2.348,14.284,1.607,12.971,1.607z" fill="#cb1800"/><g mask="url(#visibility-visible-path)"><g><polygon points="7.999,3.007 0.701,5.591 3.853,7.29 7.853,5.602 8.516,5.905 4.52,7.651 7.999,9.524 15.299,5.591"/><g><polygon points="3.336,7.813 1.644,8.415 3.091,9.194 3.336,9.327"/><polygon points="12.661,7.813 7.999,10.325 4.998,8.708 4.998,10.222 7.999,11.839 12.691,9.31 14.356,8.415"/></g><polygon points="3.899,12.542 4.507,12.993 4.507,7.663 3.899,7.296"/></g></g></svg>