<?xml version="1.0"?><!DOCTYPE svg PUBLIC "-//W3C//DTD SVG 1.1//EN" "http://www.w3.org/Graphics/SVG/1.1/DTD/svg11.dtd"><svg width="16px" height="16px" xmlns="http://www.w3.org/2000/svg" viewBox="0 0 16 16" shape-rendering="geometricPrecision" fill="#ffad00"><defs><mask id="visibility-visible-path"><rect fill="#fff" width="100%" height="100%"/><path d="M12.997,0.858c-1.845,0-3.446,1.039-4.253,2.563c0.808,1.523,2.408,2.562,4.253,2.562 c1.844,0,3.444-1.039,4.253-2.562C16.441,1.897,14.841,0.858,12.997,0.858z" fill="#000"/></mask></defs><path display="inline" d="M12.971,1.607c-1.315,0-2.454,0.74-3.029,1.825 c0.575,1.085,1.715,1.825,3.029,1.825c1.314,0,2.453-0.74,3.029-1.825C15.424,2.348,14.284,1.607,12.971,1.607z" fill="#cb1800"/><g mask="url(#visibility-visible-path)"><g><polygon points="8.182,3.179 7.367,1.256 3.587,1.256 2.77,3.179 1.649,3.179 1.65,4.128 14.977,4.119 14.995,13.402 15.928,12.424 15.928,3.179"/><g><path d="M7.027,6.669C5.481,6.672,4.23,7.923,4.226,9.47c0.003,1.545,1.254,2.795,2.801,2.798 c1.546-0.003,2.797-1.253,2.8-2.798C9.824,7.923,8.573,6.672,7.027,6.669z M7.576,9.909l-1.881,1.092l-0.533-0.934l1.348-0.785 V7.105l1.076,0.001l0.001,2.804H7.576z"/><path d="M0.072,4.756V14h14.279V4.756H0.072z M7.027,12.979c-1.939-0.001-3.511-1.572-3.511-3.509 c0-1.94,1.572-3.512,3.511-3.512c1.938,0,3.51,1.572,3.51,3.512C10.536,11.407,8.965,12.978,7.027,12.979z"/></g></g></g></svg>