<svg width="16" height="16" xmlns="http://www.w3.org/2000/svg" viewBox="0 0 16 16" shape-rendering="geometricPrecision" fill="#ffad00"><defs><mask id="a"><rect fill="#fff" width="100%" height="100%"/><path d="M12.997.858a4.809 4.809 0 0 0-4.253 2.563 4.81 4.81 0 0 0 8.506 0A4.812 4.812 0 0 0 12.997.858z" fill="#000"/></mask></defs><path d="M12.971 1.607c-1.315 0-2.454.74-3.029 1.825a3.425 3.425 0 0 0 6.058 0 3.43 3.43 0 0 0-3.029-1.825z" fill="#cb1800"/><g mask="url(#a)"><path d="M10.479 0a5.521 5.521 0 0 0-5.521 5.521c0 .739.152 1.44.416 2.084L0 12.979V16h3.021v-2.042h1.958V12h2.042V9.821a5.496 5.496 0 0 0 3.458 1.221 5.521 5.521 0 0 0 0-11.042zm1.294 6.812a2.586 2.586 0 1 1 0-5.173 2.586 2.586 0 0 1 0 5.173z"/></g></svg>