<?xml version="1.0"?><!DOCTYPE svg PUBLIC "-//W3C//DTD SVG 1.1//EN" "http://www.w3.org/Graphics/SVG/1.1/DTD/svg11.dtd"><svg width="16px" height="16px" xmlns="http://www.w3.org/2000/svg" viewBox="0 0 16 16" shape-rendering="geometricPrecision" fill="#ffad00"><defs><mask id="visibility-visible-path"><rect fill="#fff" width="100%" height="100%"/><path d="M12.997,0.858c-1.845,0-3.446,1.039-4.253,2.563c0.808,1.523,2.408,2.562,4.253,2.562 c1.844,0,3.444-1.039,4.253-2.562C16.441,1.897,14.841,0.858,12.997,0.858z" fill="#000"/></mask></defs><path display="inline" d="M12.971,1.607c-1.315,0-2.454,0.74-3.029,1.825 c0.575,1.085,1.715,1.825,3.029,1.825c1.314,0,2.453-0.74,3.029-1.825C15.424,2.348,14.284,1.607,12.971,1.607z" fill="#cb1800"/><g mask="url(#visibility-visible-path)"><g><path d="M6.867,9.283c1.382,0,2.497-1.115,2.497-2.495c0-1.378-1.114-2.494-2.497-2.494c-1.377,0-2.496,1.116-2.496,2.494 C4.372,8.168,5.49,9.283,6.867,9.283z M9.186,10.469H4.541c-1.323,0-2.398,1.082-2.398,2.404V16h9.45v-3.127 C11.593,11.551,10.509,10.469,9.186,10.469z"/></g><path d="M7.641,0v1.125c1.349,0,2.564,0.545,3.448,1.428c0.883,0.885,1.428,2.1,1.428,3.449h1.125 C13.642,2.688,10.956,0.001,7.641,0z M7.641,2.025v1.122c1.575,0.004,2.849,1.279,2.852,2.855h1.125 C11.618,3.805,9.837,2.025,7.641,2.025z"/></g></svg>