<?xml version="1.0"?><!DOCTYPE svg PUBLIC "-//W3C//DTD SVG 1.1//EN" "http://www.w3.org/Graphics/SVG/1.1/DTD/svg11.dtd"><svg width="16px" height="16px" xmlns="http://www.w3.org/2000/svg" viewBox="0 0 16 16" shape-rendering="geometricPrecision" fill="#ffad00"><defs><mask id="visibility-visible-path"><rect fill="#fff" width="100%" height="100%"/><path d="M12.997,0.858c-1.845,0-3.446,1.039-4.253,2.563c0.808,1.523,2.408,2.562,4.253,2.562 c1.844,0,3.444-1.039,4.253-2.562C16.441,1.897,14.841,0.858,12.997,0.858z" fill="#000"/></mask></defs><path display="inline" d="M12.971,1.607c-1.315,0-2.454,0.74-3.029,1.825 c0.575,1.085,1.715,1.825,3.029,1.825c1.314,0,2.453-0.74,3.029-1.825C15.424,2.348,14.284,1.607,12.971,1.607z" fill="#cb1800"/><g mask="url(#visibility-visible-path)"><path d="M7.999,0.97c-3.882,0-7.029,3.147-7.029,7.033c0.001,3.881,3.147,7.025,7.029,7.027 c3.883-0.002,7.031-3.146,7.031-7.027C15.03,4.116,11.882,0.97,7.999,0.97z M7.999,13.608c-3.096-0.006-5.601-2.512-5.607-5.605 c0.006-3.1,2.511-5.606,5.607-5.611c3.098,0.006,5.603,2.512,5.609,5.611C13.602,11.097,11.097,13.603,7.999,13.608z"/><g><path d="M8.243,3.606c1.054,0,1.938,0.52,2.51,1.105L9.699,5.894c-0.429-0.39-0.832-0.637-1.43-0.637 c-1.184,0-2.106,1.027-2.106,2.73c0,1.742,0.819,2.756,2.055,2.756c0.701,0,1.195-0.299,1.611-0.754l1.054,1.157 c-0.702,0.819-1.639,1.248-2.691,1.248c-2.197,0-3.991-1.495-3.991-4.342C4.2,5.244,6.06,3.606,8.243,3.606z"/></g><g><rect x="7.25" y="1.769" transform="matrix(0.7071 -0.7071 0.7071 0.7071 -3.3137 8)" width="1.5" height="12.462"/></g></g></svg>