<svg width="16" height="16" xmlns="http://www.w3.org/2000/svg" viewBox="0 0 16 16" shape-rendering="geometricPrecision" fill="#ffad00"><defs><mask id="a"><rect fill="#fff" width="100%" height="100%"/><path d="M12.997.858a4.809 4.809 0 0 0-4.253 2.563 4.81 4.81 0 0 0 8.506 0A4.812 4.812 0 0 0 12.997.858z" fill="#000"/></mask></defs><path d="M12.971 1.607c-1.315 0-2.454.74-3.029 1.825a3.425 3.425 0 0 0 6.058 0 3.43 3.43 0 0 0-3.029-1.825z" fill="#cb1800"/><path mask="url(#a)" d="M13.053 8.004c.064-.324.101-.657.101-1a5.18 5.18 0 0 0-10.358-.002h1.541a3.641 3.641 0 0 1 3.637-3.637 3.64 3.64 0 0 1 3.639 3.639c0 .35-.065.681-.157 1h-1.82c.177-.293.285-.633.285-1a1.945 1.945 0 1 0-3.891 0c0 .367.107.707.284 1H.958v5.482h14.084V8.004h-1.989zm-1.676 2.741H4.622v-1.46h6.755v1.46z"/></svg>