<?xml version="1.0"?><!DOCTYPE svg PUBLIC "-//W3C//DTD SVG 1.1//EN" "http://www.w3.org/Graphics/SVG/1.1/DTD/svg11.dtd"><svg width="16px" height="16px" xmlns="http://www.w3.org/2000/svg" viewBox="0 0 16 16" shape-rendering="geometricPrecision" fill="#ffad00"><defs><mask id="visibility-visible-path"><rect fill="#fff" width="100%" height="100%"/><path d="M12.997,0.858c-1.845,0-3.446,1.039-4.253,2.563c0.808,1.523,2.408,2.562,4.253,2.562 c1.844,0,3.444-1.039,4.253-2.562C16.441,1.897,14.841,0.858,12.997,0.858z" fill="#000"/></mask></defs><path display="inline" d="M12.971,1.607c-1.315,0-2.454,0.74-3.029,1.825 c0.575,1.085,1.715,1.825,3.029,1.825c1.314,0,2.453-0.74,3.029-1.825C15.424,2.348,14.284,1.607,12.971,1.607z" fill="#cb1800"/><g mask="url(#visibility-visible-path)"><g><path d="M15.609,3.739c-0.906,1.865-2.393,2.551-3.389,2.805c0.568,1.092,0.975,2.484,1.15,4.041 C14.545,9.792,16.939,7.624,15.609,3.739z M0.39,3.739c-1.328,3.885,1.065,6.053,2.241,6.846c0.174-1.557,0.58-2.949,1.147-4.041 C2.784,6.29,1.297,5.604,0.39,3.739z M8.001,4.087c-2.367,0-4.286,3.66-4.286,8.174h8.57C12.285,7.747,10.367,4.087,8.001,4.087z"/></g></g></svg>