<svg width="16" height="16" xmlns="http://www.w3.org/2000/svg" viewBox="0 0 16 16" shape-rendering="geometricPrecision" fill="#00962d"><defs><mask id="a"><rect fill="#fff" width="100%" height="100%"/><path d="M17.514 2.671l-.862-.552L16.65-1h-2.866v.558A4.044 4.044 0 0 0 10.061.625c-1.569 1.569-1.554 4.141.035 5.732a4.084 4.084 0 0 0 2.901 1.205 3.98 3.98 0 0 0 2.831-1.168A3.973 3.973 0 0 0 17 3.557v-.886h.514zm-3.373.887c0 .22-.058.539-.333.813-.443.443-1.23.426-1.69-.035-.475-.475-.49-1.234-.036-1.689.011-.011.021-.022.033-.031v.922h2.026v.02z" fill="#000"/></mask></defs><path d="M13.114 2.537h2.538L15.651 0h-.867v1.105c-1.204-.927-2.924-.863-4.016.227-1.187 1.188-1.162 3.119.035 4.317 1.201 1.198 3.131 1.224 4.319.037A2.996 2.996 0 0 0 16 3.558l-.859.001a2.137 2.137 0 0 1-.627 1.521c-.843.842-2.231.836-3.104-.036-.871-.872-.877-2.26-.035-3.105.729-.727 1.86-.818 2.721-.268h-.983l.001.866z" fill="#cb1800"/><path mask="url(#a)" d="M15.579 2.998a.702.702 0 0 0-.064.003c-1.004.116-2.668.598-3.658 2.451l-2.94 5.5-1.872-1.871.316-.581a.16.16 0 0 1 .11-.081l1.209-.238a.161.161 0 0 0 .116-.224l-.858-1.902a.161.161 0 0 1 .123-.225l2.11-.326a.16.16 0 0 0 .123-.224l-.91-2.058a.161.161 0 0 1 .121-.225l2.23-.362a.162.162 0 0 0 .129-.205L11.435.981a.158.158 0 0 1-.004-.075L11.544.3c.029-.154-.156-.254-.27-.146l-.458.437a.168.168 0 0 0-.03.04l-.094.174a.165.165 0 0 0-.013.123l.275.931a.161.161 0 0 1-.129.205l-2.342.38a.16.16 0 0 0-.122.223l.907 2.052a.16.16 0 0 1-.123.224l-2.117.327a.162.162 0 0 0-.122.226l.873 1.937a.16.16 0 0 1-.116.224l-.658.13a.16.16 0 0 0-.11.081l-.374.689-3.072-3.072c-.795-.795-2.095-.795-2.89 0s-.795 2.095 0 2.89l6.92 6.92a2.05 2.05 0 0 0 2.89 0 2.04 2.04 0 0 0 .497-2.044l5.114-9.566a.466.466 0 0 0-.401-.687zm-5.123 9.514c-.03-.035-.054-.073-.087-.107l-.928-.928 3.042-5.69c.685-1.281 1.739-1.802 2.637-2l-4.664 8.725z"/></svg>