<svg width="16" height="16" xmlns="http://www.w3.org/2000/svg" viewBox="0 0 16 16" shape-rendering="geometricPrecision" fill="#00962d"><defs><mask id="a"><rect fill="#fff" width="100%" height="100%"/><path d="M17.514 2.671l-.862-.552L16.65-1h-2.866v.558A4.044 4.044 0 0 0 10.061.625c-1.569 1.569-1.554 4.141.035 5.732a4.084 4.084 0 0 0 2.901 1.205 3.98 3.98 0 0 0 2.831-1.168A3.973 3.973 0 0 0 17 3.557v-.886h.514zm-3.373.887c0 .22-.058.539-.333.813-.443.443-1.23.426-1.69-.035-.475-.475-.49-1.234-.036-1.689.011-.011.021-.022.033-.031v.922h2.026v.02z" fill="#000"/></mask></defs><path d="M13.114 2.537h2.538L15.651 0h-.867v1.105c-1.204-.927-2.924-.863-4.016.227-1.187 1.188-1.162 3.119.035 4.317 1.201 1.198 3.131 1.224 4.319.037A2.996 2.996 0 0 0 16 3.558l-.859.001a2.137 2.137 0 0 1-.627 1.521c-.843.842-2.231.836-3.104-.036-.871-.872-.877-2.26-.035-3.105.729-.727 1.86-.818 2.721-.268h-.983l.001.866z" fill="#cb1800"/><g mask="url(#a)"><path d="M15.631 6.403a1.03 1.03 0 0 1 0-1.919l.315-.134.001-.001.001.004a.229.229 0 0 0 .121-.296l-.001-.002v-.002l-.24-.579-.367-.889c-.011-.027-.039-.038-.058-.058-.062-.065-.148-.102-.236-.065v.001l-.317.131a1.02 1.02 0 0 1-1.139-.216 1.034 1.034 0 0 1-.214-1.142l.132-.317a.228.228 0 0 0-.122-.294L12.04.017a.221.221 0 0 0-.293.122l-.135.317a1.028 1.028 0 0 1-1.913.001l-.134-.32a.227.227 0 0 0-.295-.12l-1.466.61a.225.225 0 0 0-.123.294l.13.318c.167.376.095.832-.213 1.142a1.032 1.032 0 0 1-1.139.214v.002l-.317-.135a.23.23 0 0 0-.295.124l-.608 1.468a.23.23 0 0 0 .123.297l.317.134c.382.149.654.523.654.96 0 .436-.272.809-.654.956l-.316.138a.225.225 0 0 0-.123.293l.608 1.47c.047.114.18.171.293.122l.319-.131a1.026 1.026 0 0 1 1.351 1.356h.002l-.131.318a.227.227 0 0 0 .121.295l1.466.609a.225.225 0 0 0 .294-.122l.134-.317a1.03 1.03 0 0 1 .956-.656c.436.002.808.274.957.653l.135.32c.048.115.18.17.294.121l1.466-.608a.227.227 0 0 0 .122-.295l-.132-.317h.001a1.037 1.037 0 0 1 .214-1.143c.31-.31.763-.38 1.138-.216h.002l.314.133a.226.226 0 0 0 .295-.122l.608-1.471a.227.227 0 0 0-.12-.295l-.316-.133zm-4.232.841a1.943 1.943 0 0 1-2.541-1.056 1.944 1.944 0 1 1 3.593-1.49 1.951 1.951 0 0 1-1.052 2.546zm-3.677 4.039h-.241v-.003a.72.72 0 0 1-.512-1.236l.17-.171a.16.16 0 0 0 0-.224l-.785-.787a.157.157 0 0 0-.223 0l-.171.17a.717.717 0 0 1-1.236-.514l-.002-.24a.16.16 0 0 0-.158-.159H3.453a.158.158 0 0 0-.158.158l-.001.242a.717.717 0 0 1-1.234.513l-.17-.171a.16.16 0 0 0-.224 0l-.785.788a.159.159 0 0 0 0 .223l.167.172a.72.72 0 0 1 .168.795.711.711 0 0 1-.677.441l-.241.004a.159.159 0 0 0-.159.159v1.113c0 .087.071.158.159.158h.241l-.002.002a.717.717 0 0 1 .512 1.235v.001l-.17.172a.16.16 0 0 0 0 .222l.786.787a.157.157 0 0 0 .223 0l.172-.168a.716.716 0 0 1 1.235.514l.003.239h-.003c.001.09.072.159.158.159h1.112a.158.158 0 0 0 .159-.159h-.002l.002-.239a.719.719 0 0 1 1.236-.514l.169.17a.157.157 0 0 0 .223 0l.786-.787a.155.155 0 0 0 0-.221l-.168-.175a.72.72 0 0 1-.166-.795.711.711 0 0 1 .678-.441l.241-.005a.158.158 0 0 0 .157-.157V11.44a.158.158 0 0 0-.158-.157zm-3.713 2.078a1.36 1.36 0 0 1-1.359-1.362c0-.752.608-1.363 1.359-1.363a1.362 1.362 0 0 1 0 2.725z"/></g></svg>