<svg width="16" height="16" xmlns="http://www.w3.org/2000/svg" viewBox="0 0 16 16" shape-rendering="geometricPrecision" fill="#00962d"><defs><mask id="a"><rect fill="#fff" width="100%" height="100%"/><path d="M17.514 2.671l-.862-.552L16.65-1h-2.866v.558A4.044 4.044 0 0 0 10.061.625c-1.569 1.569-1.554 4.141.035 5.732a4.084 4.084 0 0 0 2.901 1.205 3.98 3.98 0 0 0 2.831-1.168A3.973 3.973 0 0 0 17 3.557v-.886h.514zm-3.373.887c0 .22-.058.539-.333.813-.443.443-1.23.426-1.69-.035-.475-.475-.49-1.234-.036-1.689.011-.011.021-.022.033-.031v.922h2.026v.02z" fill="#000"/></mask></defs><path d="M13.114 2.537h2.538L15.651 0h-.867v1.105c-1.204-.927-2.924-.863-4.016.227-1.187 1.188-1.162 3.119.035 4.317 1.201 1.198 3.131 1.224 4.319.037A2.996 2.996 0 0 0 16 3.558l-.859.001a2.137 2.137 0 0 1-.627 1.521c-.843.842-2.231.836-3.104-.036-.871-.872-.877-2.26-.035-3.105.729-.727 1.86-.818 2.721-.268h-.983l.001.866z" fill="#cb1800"/><g mask="url(#a)"><path d="M8.004 1.011a6.995 6.995 0 1 0 .003 13.99 6.995 6.995 0 0 0-.003-13.99zm0 12.575a5.588 5.588 0 0 1-5.578-5.578 5.587 5.587 0 0 1 5.578-5.582 5.588 5.588 0 0 1 5.58 5.582 5.59 5.59 0 0 1-5.58 5.578z"/><path d="M3.904 8.345h.726s-.023-.2-.023-.353c0-.127.023-.373.023-.373h-.726V6.72h.877a4.115 4.115 0 0 1 3.998-3.006c.62 0 1.158.152 1.158.152l-.363 1.368s-.396-.117-.83-.117c-1.11 0-1.975.62-2.35 1.602h2.911l-.186.9H6.186s-.025.176-.025.352c0 .129.036.374.036.374h2.781l-.175.888H6.465a2.45 2.45 0 0 0 2.338 1.637c.607 0 1.124-.176 1.124-.176l.268 1.379s-.61.223-1.415.223c-1.999 0-3.52-1.25-3.998-3.062h-.878v-.889z"/></g></svg>