<svg width="16" height="16" xmlns="http://www.w3.org/2000/svg" viewBox="0 0 16 16" shape-rendering="geometricPrecision" fill="#00962d"><defs><mask id="a"><rect fill="#fff" width="100%" height="100%"/><path d="M17.514 2.671l-.862-.552L16.65-1h-2.866v.558A4.044 4.044 0 0 0 10.061.625c-1.569 1.569-1.554 4.141.035 5.732a4.084 4.084 0 0 0 2.901 1.205 3.98 3.98 0 0 0 2.831-1.168A3.973 3.973 0 0 0 17 3.557v-.886h.514zm-3.373.887c0 .22-.058.539-.333.813-.443.443-1.23.426-1.69-.035-.475-.475-.49-1.234-.036-1.689.011-.011.021-.022.033-.031v.922h2.026v.02z" fill="#000"/></mask></defs><path d="M13.114 2.537h2.538L15.651 0h-.867v1.105c-1.204-.927-2.924-.863-4.016.227-1.187 1.188-1.162 3.119.035 4.317 1.201 1.198 3.131 1.224 4.319.037A2.996 2.996 0 0 0 16 3.558l-.859.001a2.137 2.137 0 0 1-.627 1.521c-.843.842-2.231.836-3.104-.036-.871-.872-.877-2.26-.035-3.105.729-.727 1.86-.818 2.721-.268h-.983l.001.866z" fill="#cb1800"/><path mask="url(#a)" d="M16.011 6.354c-.174-.731-1.554-1.11-3.454-1.11 0 0 .104.154.186.325.083.175.137.378.137.378 1.912.035 2.428.479 2.45.569.069.292-.753 1.066-2.471 1.882a4.921 4.921 0 0 0-9.153-2.892 4.925 4.925 0 0 0 .038 5.052c-.113.003-.237.013-.346.013-2.116 0-2.675-.477-2.697-.571-.063-.263.592-.916 1.975-1.638 0 0-.028-.185-.027-.362.001-.21.027-.418.027-.418C.928 8.45-.158 9.419.019 10.162c.174.731 1.478 1.11 3.379 1.11.268 0 .56-.016.85-.031.339.388.742.731 1.21 1.006a4.926 4.926 0 0 0 6.742-1.749 4.92 4.92 0 0 0 .521-1.269c2.158-.951 3.489-2.04 3.29-2.875zM4.565 6.011a3.935 3.935 0 0 1 5.379-1.399 3.935 3.935 0 0 1 1.841 4.251c-.939.372-2.059.736-3.376 1.05a25.032 25.032 0 0 1-3.49.577 3.935 3.935 0 0 1-.354-4.479zm6.776 3.982a3.935 3.935 0 0 1-5.378 1.395 3.982 3.982 0 0 1-.384-.261 26.225 26.225 0 0 0 2.993-.533 26.481 26.481 0 0 0 2.908-.868c-.045.09-.088.179-.139.267z"/></svg>