<svg width="16" height="16" xmlns="http://www.w3.org/2000/svg" viewBox="0 0 16 16" shape-rendering="geometricPrecision" fill="#00962d"><defs><mask id="a"><rect fill="#fff" width="100%" height="100%"/><path d="M17.514 2.671l-.862-.552L16.65-1h-2.866v.558A4.044 4.044 0 0 0 10.061.625c-1.569 1.569-1.554 4.141.035 5.732a4.084 4.084 0 0 0 2.901 1.205 3.98 3.98 0 0 0 2.831-1.168A3.973 3.973 0 0 0 17 3.557v-.886h.514zm-3.373.887c0 .22-.058.539-.333.813-.443.443-1.23.426-1.69-.035-.475-.475-.49-1.234-.036-1.689.011-.011.021-.022.033-.031v.922h2.026v.02z" fill="#000"/></mask></defs><path d="M13.114 2.537h2.538L15.651 0h-.867v1.105c-1.204-.927-2.924-.863-4.016.227-1.187 1.188-1.162 3.119.035 4.317 1.201 1.198 3.131 1.224 4.319.037A2.996 2.996 0 0 0 16 3.558l-.859.001a2.137 2.137 0 0 1-.627 1.521c-.843.842-2.231.836-3.104-.036-.871-.872-.877-2.26-.035-3.105.729-.727 1.86-.818 2.721-.268h-.983l.001.866z" fill="#cb1800"/><path mask="url(#a)" d="M15.98 6.366c-.174-.729-1.551-1.107-3.448-1.107 0 0 .104.154.185.325.083.175.137.377.137.377 1.909.035 2.423.478 2.445.568.069.291-.751 1.064-2.466 1.879a4.913 4.913 0 0 0-9.135-2.886 4.913 4.913 0 0 0 .038 5.042c-.113.003-.236.013-.346.013-2.112 0-2.669-.476-2.692-.57-.061-.264.592-.915 1.973-1.637 0 0-.028-.184-.027-.361.001-.209.027-.417.027-.417C.926 8.459-.157 9.426.019 10.168c.174.729 1.475 1.107 3.372 1.107.268 0 .558-.016.848-.031a4.916 4.916 0 0 0 7.937-.742c.239-.406.408-.833.52-1.267 2.154-.948 3.483-2.035 3.284-2.869zM4.556 6.025a3.928 3.928 0 0 1 5.369-1.397 3.928 3.928 0 0 1 1.837 4.242c-.937.371-2.055.735-3.369 1.048a24.957 24.957 0 0 1-3.483.576 3.924 3.924 0 0 1-.354-4.469zm6.763 3.974a3.928 3.928 0 0 1-5.368 1.393 4.149 4.149 0 0 1-.383-.26 26.342 26.342 0 0 0 2.987-.532 26.373 26.373 0 0 0 2.902-.866c-.044.088-.087.177-.138.265z"/></svg>