<svg width="16" height="16" xmlns="http://www.w3.org/2000/svg" viewBox="0 0 16 16" shape-rendering="geometricPrecision"><defs><mask id="a"><rect fill="#fff" width="100%" height="100%"/><path d="M15.568.488c.365-.9-.337-1.487-.851-1.704-.593-.25-1.396-.157-1.78.752l-.142.357-2.14 5.317.603 2.278 1.98-1.23L15.44.788l.128-.3z"/></mask></defs><path d="M11.686 6.423l.6-.513-.675-.269zM14.245.038a.714.714 0 0 0-.927.393l-.213.531 1.326.532.214-.532h-.001a.714.714 0 0 0-.399-.924zM11.527 4.9l1.433-3.573 1.325.532-1.433 3.572z" fill="#cb1800"/><g mask="url(#a)"><path d="M7.045 11.946h.995v.995h-.995zm1.991 1.99h1.99v-.995h-.995v-.995h-.995zm.995-5.972v.997H8.04v-.997h1.991V6.97h-.995v-.995H7.045v.995H6.05v1.991h.995v.995h.995v.995h1.991v-.995h.995v.995h1.99v-.995h-.995V6.97h-.995v.994zm0 2.987h.995v.995h-.995zM1.075 6.97h.995v.994h-.995z"/><path d="M3.065 5.975H6.05v-1.99h.995V2.99H6.05V1H1.075v4.974h.995v.996h.995v-.995zm-.995-3.98h2.985V4.98H2.07V1.995zm9.951 12.936h.995v-.995h.995v-.995h-.995v-.995h-.995zm.995-3.98h.995v.995h-.995zm.995-2.987h.995v.997h-.995zM3.065 11.946h.995v.995h-.995z"/><path d="M6.05 10.951v-.995H4.06v-.995h.995V6.97H4.06v.994h-.995v1.992h-1.99v4.974H6.05v-.994h.995v-.995H6.05v-1.99zm-3.98 2.985v-2.985h2.985v2.985H2.07zM3.065 2.99h.995v.995h-.995zm8.956 0h.995v.995h-.995z"/><path d="M14.011 1h-3.98v.995H8.04V4.98h.996V2.99h.995v3.98h.995v-.995h3.98V1h-.995zm0 3.98h-2.985V1.995h2.985V4.98z"/></g></svg>