<svg width="16" height="16" xmlns="http://www.w3.org/2000/svg" viewBox="0 0 16 16" shape-rendering="geometricPrecision"><defs><mask id="a"><rect fill="#fff" width="100%" height="100%"/><path d="M15.568.488c.365-.9-.337-1.487-.851-1.704-.593-.25-1.396-.157-1.78.752l-.142.357-2.14 5.317.603 2.278 1.98-1.23L15.44.788l.128-.3z"/></mask></defs><path d="M11.686 6.423l.6-.513-.675-.269zM14.245.038a.714.714 0 0 0-.927.393l-.213.531 1.326.532.214-.532h-.001a.714.714 0 0 0-.399-.924zM11.527 4.9l1.433-3.573 1.325.532-1.433 3.572z" fill="#cb1800"/><g mask="url(#a)"><path d="M4.463 15.971l1.491-1.274-1.676-.668zm-.393-3.783l3.557-8.867 3.289 1.32-3.557 8.866zM10.815.121a1.772 1.772 0 0 0-2.3.976l-.529 1.317 3.291 1.321.531-1.321h-.002a1.771 1.771 0 0 0-.991-2.293z"/></g></svg>