<svg width="16" height="16" xmlns="http://www.w3.org/2000/svg" viewBox="0 0 16 16" shape-rendering="geometricPrecision"><defs><mask id="a"><rect fill="#fff" width="100%" height="100%"/><path d="M15.568.488c.365-.9-.337-1.487-.851-1.704-.593-.25-1.396-.157-1.78.752l-.142.357-2.14 5.317.603 2.278 1.98-1.23L15.44.788l.128-.3z"/></mask></defs><path d="M11.686 6.423l.6-.513-.675-.269zM14.245.038a.714.714 0 0 0-.927.393l-.213.531 1.326.532.214-.532h-.001a.714.714 0 0 0-.399-.924zM11.527 4.9l1.433-3.573 1.325.532-1.433 3.572z" fill="#cb1800"/><g mask="url(#a)"><path d="M3.032-.012v1.056h10.329v9.226h1.073V-.012zM8.98 15.293l2.525-2.325H8.98z"/><path d="M1.566 15.97h5.971v-4.44h4.773V2.088H1.566V15.97zM2.94 3.326h8.116v6.725h-4.79v4.601H2.94V3.326z"/></g></svg>