<svg width="16" height="16" xmlns="http://www.w3.org/2000/svg" viewBox="0 0 16 16" shape-rendering="geometricPrecision"><defs><mask id="a"><rect fill="#fff" width="100%" height="100%"/><path d="M15.568.488c.365-.9-.337-1.487-.851-1.704-.593-.25-1.396-.157-1.78.752l-.142.357-2.14 5.317.603 2.278 1.98-1.23L15.44.788l.128-.3z"/></mask></defs><path d="M11.686 6.423l.6-.513-.675-.269zM14.245.038a.714.714 0 0 0-.927.393l-.213.531 1.326.532.214-.532h-.001a.714.714 0 0 0-.399-.924zM11.527 4.9l1.433-3.573 1.325.532-1.433 3.572z" fill="#cb1800"/><g mask="url(#a)"><path d="M1.811-.001v16h12.378v-16H1.811zm11.34 14.962H2.793V1.011H13.15v13.95z"/><path d="M8.067 4.602a1.373 1.373 0 1 0 .002-2.746 1.373 1.373 0 0 0-.002 2.746zm1.354 7.896v-6.49H5.312v1.02H6.66v5.471H5.307v1.359h5.467v-1.359H9.421z"/></g></svg>