<?xml version="1.0"?><!DOCTYPE svg PUBLIC "-//W3C//DTD SVG 1.1//EN" "http://www.w3.org/Graphics/SVG/1.1/DTD/svg11.dtd"><svg width="16px" height="16px" xmlns="http://www.w3.org/2000/svg" viewBox="0 0 16 16" shape-rendering="geometricPrecision" fill="#000"><defs><mask id="edit-path"><rect fill="#fff" width="100%" height="100%"/><path d="M15.568,0.488c0.365-0.9-0.337-1.487-0.851-1.704c-0.593-0.25-1.396-0.157-1.78,0.752l-0.142,0.357 l-2.14,5.317l0.603,2.278l1.98-1.23l2.202-5.47L15.568,0.488z" fill="#000"/></mask></defs><g id="edit_3_" display="inline" fill="#cb1800"><polygon points="11.686,6.423 12.286,5.91 11.611,5.641 "/><path d="M14.245,0.038c-0.365-0.147-0.778,0.03-0.927,0.393l-0.213,0.531l1.326,0.532l0.214-0.532h-0.001 C14.787,0.597,14.61,0.183,14.245,0.038z"/><rect x="10.982" y="2.666" transform="matrix(0.3723 -0.9281 0.9281 0.3723 4.9642 14.0992)" width="3.849" height="1.428"/></g><g mask="url(#edit-path)"><path d="M14.479,9.852V8.649h-2.566V1.632H6.599L3.896,4.124v4.525H1.569v1.202H0.966v4.518h0.604h12.91h0.555 V9.852H14.479z M6.645,2.73v1.403H5.121L6.645,2.73z M4.635,5h2.88V2.321h3.604v8.377H4.635V5z M12.872,11.546 c-0.393,0-0.711-0.319-0.711-0.711c0-0.394,0.318-0.711,0.711-0.711c0.392,0,0.711,0.317,0.711,0.711 C13.583,11.227,13.264,11.546,12.872,11.546z"/><rect x="5.624" y="5.738" width="4.57" height="0.866"/><rect x="5.624" y="7.363" width="4.57" height="0.866"/></g></svg>