<svg width="16" height="16" xmlns="http://www.w3.org/2000/svg" viewBox="0 0 16 16" shape-rendering="geometricPrecision"><defs><mask id="a"><rect fill="#fff" width="100%" height="100%"/><path d="M16.451 1.534a1.141 1.141 0 0 0-.288-1.066l-.58-.581a1.116 1.116 0 0 0-1.065-.29 1.127 1.127 0 0 0-.962-.551h-.819c-.41 0-.77.223-.964.554-.38-.106-.813.038-1.062.288l-.576.579a1.116 1.116 0 0 0-.292 1.067c-.329.194-.55.553-.55.962v.821c0 .408.221.766.548.96a1.14 1.14 0 0 0-.035.285c.002.263.14.595.325.781l.58.581c.248.248.68.393 1.062.287.194.332.555.555.963.555h.82c.298 0 .588-.121.796-.333a1.02 1.02 0 0 0 .158-.216c.098.025.201.031.3.036.26-.004.588-.144.771-.328l.57-.572c.215-.21.337-.503.335-.803 0-.085-.016-.178-.042-.271.333-.193.556-.552.556-.964v-.821c0-.408-.221-.766-.549-.96z"/></mask></defs><path d="M15.884 2.379h-.177v-.003a.523.523 0 0 1-.5-.325.531.531 0 0 1 .122-.586l.126-.126a.12.12 0 0 0 0-.165l-.579-.58a.117.117 0 0 0-.166 0l-.125.125A.525.525 0 0 1 14 .841a.532.532 0 0 1-.326-.501l-.001-.177a.117.117 0 0 0-.117-.117h-.819a.117.117 0 0 0-.116.117v.178a.53.53 0 0 1-.911.379l-.126-.126a.118.118 0 0 0-.165 0l-.578.581a.116.116 0 0 0 0 .164l.123.127a.532.532 0 0 1 .124.586.523.523 0 0 1-.499.325l-.178.003a.117.117 0 0 0-.117.117v.821c0 .063.052.116.117.116h.178l-.002.002a.524.524 0 0 1 .501.325.53.53 0 0 1-.123.585v.001l-.125.127a.117.117 0 0 0 0 .163l.579.58a.116.116 0 0 0 .165 0l.127-.124a.53.53 0 0 1 .585-.123c.207.088.331.29.326.502l.002.177h-.002a.117.117 0 0 0 .116.117h.82a.117.117 0 0 0 .117-.117h-.001l.001-.177a.529.529 0 0 1 .911-.379l.124.126a.116.116 0 0 0 .165 0l.58-.58a.114.114 0 0 0 0-.163l-.125-.129a.53.53 0 0 1 .378-.911l.177-.004A.117.117 0 0 0 16 3.315v-.821a.117.117 0 0 0-.116-.115zM13.146 3.91a1.002 1.002 0 0 1-1.001-1.004c0-.555.448-1.005 1.001-1.005a1.004 1.004 0 0 1 0 2.009z" fill="#cb1800"/><path d="M7.999.97a7.03 7.03 0 0 0 0 14.06 7.03 7.03 0 1 0 0-14.06zm0 12.638a5.616 5.616 0 0 1-5.607-5.605 5.616 5.616 0 0 1 5.607-5.611 5.617 5.617 0 0 1 5.609 5.611 5.615 5.615 0 0 1-5.609 5.605zm-.082-3.4c-.662 0-1.132.471-1.132 1.156 0 .664.458 1.16 1.121 1.16h.012c.688 0 1.147-.496 1.147-1.16-.011-.685-.459-1.156-1.148-1.156zm.18-6.563c-.904 0-1.656.256-2.127.523l.434 1.387c.33-.229.839-.381 1.262-.381.637.025.93.318.93.764 0 .434-.333.842-.741 1.338-.574.676-.788 1.338-.75 1.988l.012.332h1.694v-.228c-.013-.574.178-1.074.649-1.594.486-.537 1.083-1.174 1.083-2.143 0-1.056-.765-1.986-2.446-1.986z" mask="url(#a)"/></svg>