<?xml version="1.0"?><!DOCTYPE svg PUBLIC "-//W3C//DTD SVG 1.1//EN" "http://www.w3.org/Graphics/SVG/1.1/DTD/svg11.dtd"><svg width="16px" height="16px" xmlns="http://www.w3.org/2000/svg" viewBox="0 0 16 16" shape-rendering="geometricPrecision" fill="#000"><defs><mask id="edit-path"><rect fill="#fff" width="100%" height="100%"/><path d="M15.568,0.488c0.365-0.9-0.337-1.487-0.851-1.704c-0.593-0.25-1.396-0.157-1.78,0.752l-0.142,0.357 l-2.14,5.317l0.603,2.278l1.98-1.23l2.202-5.47L15.568,0.488z" fill="#000"/></mask></defs><g id="edit_3_" display="inline" fill="#cb1800"><polygon points="11.686,6.423 12.286,5.91 11.611,5.641 "/><path d="M14.245,0.038c-0.365-0.147-0.778,0.03-0.927,0.393l-0.213,0.531l1.326,0.532l0.214-0.532h-0.001 C14.787,0.597,14.61,0.183,14.245,0.038z"/><rect x="10.982" y="2.666" transform="matrix(0.3723 -0.9281 0.9281 0.3723 4.9642 14.0992)" width="3.849" height="1.428"/></g><g mask="url(#edit-path)"><g><path d="M14.939,10.55c-0.201-0.565-0.822-0.86-1.387-0.659l-2.979,1.022L6.579,9.291l2.546-0.34 c0.584-0.074,0.998-0.606,0.924-1.19c-0.074-0.584-0.606-0.998-1.19-0.925L3.063,7.567C2.9,7.588,2.753,7.648,2.623,7.731 c-0.16,0.064-0.296,0.192-0.361,0.366L2.209,8.238c-0.014,0.035-0.03,0.069-0.04,0.106l-1.131,3.018 c-0.071,0.19-0.044,0.391,0.054,0.552c0.264,0.58,1.506,1.4,2.652,1.829l2.754,0.513c0.192,0.031,0.363,0.04,0.538,0.03 c0.171,0.026,0.349,0.016,0.524-0.046l0.448-0.154c0.116-0.035,0.239-0.073,0.376-0.116c1.504-0.48,3.181-1.067,3.81-1.314 c0.008-0.003,0.012-0.008,0.019-0.011l2.067-0.709C14.845,11.736,15.14,11.115,14.939,10.55z"/><path d="M8.568,1.699c-2.545,0-4.608,2.063-4.608,4.608c0,0.181,0.013,0.358,0.033,0.534l0.925-0.117 C4.899,6.573,4.886,6.42,4.886,6.263c0-2.034,1.649-3.684,3.684-3.684c2.034,0,3.684,1.649,3.684,3.684 c0,1.594-1.015,2.948-2.432,3.461l0.83,0.522l0.62-0.213c1.152-0.838,1.905-2.192,1.905-3.726 C13.176,3.762,11.113,1.699,8.568,1.699z"/></g></g></svg>