<svg width="16" height="16" xmlns="http://www.w3.org/2000/svg" viewBox="0 0 16 16" shape-rendering="geometricPrecision" fill="#24437c"><defs><mask id="a"><rect fill="#fff" width="100%" height="100%"/><path fill="#000" d="M14.782 1.217V-1h-3.564v2.217H9V4.78h2.218v2.221h3.564V4.78H17V1.217z"/></mask></defs><path fill="#cb1800" d="M16 2.217h-2.218V0h-1.564v2.217H10V3.78h2.218v2.221h1.564V3.78H16z"/><g mask="url(#a)"><path d="M2.764 2.068L4.554.277l3.447 3.447L11.448.277l1.789 1.791-5.239 5.239zM1.041 8.334v6.636h13.958V8.334H1.041zm11.157 3.914a1.08 1.08 0 1 1 0-2.162 1.08 1.08 0 1 1 0 2.162z"/></g></svg>