<svg width="16" height="16" xmlns="http://www.w3.org/2000/svg" viewBox="0 0 16 16" shape-rendering="geometricPrecision" fill="#24437c"><defs><mask id="a"><rect fill="#fff" width="100%" height="100%"/><path fill="#000" d="M14.782 1.217V-1h-3.564v2.217H9V4.78h2.218v2.221h3.564V4.78H17V1.217z"/></mask></defs><path fill="#cb1800" d="M16 2.217h-2.218V0h-1.564v2.217H10V3.78h2.218v2.221h1.564V3.78H16z"/><g mask="url(#a)"><path d="M10.021 15.177l3.437-3.165h-3.437z"/><path d="M2.02 0v16h7.021v-4.905h4.941V0H2.02zM13 9.97H8v5H3.083v-14H13v9z"/><path d="M6.499 8.97a1.5 1.5 0 0 0 1.5-1.5v-3.5s.22-.498.95.182c.941.874 2.051.161 2.051.161s-1.364-.33-1.644-1.218C9 1.97 7.999 1.97 7.999 1.97h-1v4.092a1.479 1.479 0 0 0-.5-.092 1.5 1.5 0 1 0 0 3z"/></g></svg>