<svg width="16" height="16" xmlns="http://www.w3.org/2000/svg" viewBox="0 0 16 16" shape-rendering="geometricPrecision" fill="#24437c"><defs><mask id="a"><rect fill="#fff" width="100%" height="100%"/><path fill="#000" d="M14.782 1.217V-1h-3.564v2.217H9V4.78h2.218v2.221h3.564V4.78H17V1.217z"/></mask></defs><path fill="#cb1800" d="M16 2.217h-2.218V0h-1.564v2.217H10V3.78h2.218v2.221h1.564V3.78H16z"/><g mask="url(#a)"><path d="M8 6.636A2.837 2.837 0 0 0 5.167 9.47 2.837 2.837 0 0 0 8 12.302a2.837 2.837 0 0 0 2.833-2.832A2.837 2.837 0 0 0 8 6.636zm.556 3.278l-1.904 1.105-.54-.945 1.365-.794V7.077h1.089l.001 2.837h-.011z"/><path d="M7.394 4.755l-.816-1.923h-3.78l-.816 1.923H.861V14h14.278V4.755H7.394zM8 13.021a3.553 3.553 0 0 1 0-7.105 3.552 3.552 0 0 1 0 7.105z"/></g></svg>