<svg width="16" height="16" xmlns="http://www.w3.org/2000/svg" viewBox="0 0 16 16" shape-rendering="geometricPrecision" fill="#24437c"><defs><mask id="a"><rect fill="#fff" width="100%" height="100%"/><path fill="#000" d="M14.782 1.217V-1h-3.564v2.217H9V4.78h2.218v2.221h3.564V4.78H17V1.217z"/></mask></defs><path fill="#cb1800" d="M16 2.217h-2.218V0h-1.564v2.217H10V3.78h2.218v2.221h1.564V3.78H16z"/><g mask="url(#a)"><path d="M7.394 4.755l-.816-1.923h-3.78l-.816 1.923H.861V14h14.278V4.755H7.394zm6.648 8.174H1.916v-7h12.125v7z"/><path d="M6.66 12.054l.48-.409-.539-.215zM6.533 10.837l1.144-2.85 1.057.424-1.144 2.85zM8.702 6.959a.57.57 0 0 0-.74.314l-.17.423 1.058.425.171-.425a.57.57 0 0 0-.319-.737z"/></g></svg>