<svg width="16" height="16" xmlns="http://www.w3.org/2000/svg" viewBox="0 0 16 16" shape-rendering="geometricPrecision" fill="#24437c"><defs><mask id="a"><rect fill="#fff" width="100%" height="100%"/><path fill="#000" d="M14.782 1.217V-1h-3.564v2.217H9V4.78h2.218v2.221h3.564V4.78H17V1.217z"/></mask></defs><path fill="#cb1800" d="M16 2.217h-2.218V0h-1.564v2.217H10V3.78h2.218v2.221h1.564V3.78H16z"/><g mask="url(#a)"><path d="M8.182 3.179l-.815-1.923h-3.78L2.77 3.179H1.649l.001.949 13.327-.009.018 9.283.933-.978V3.179z"/><path d="M.072 4.756V14h14.279V4.756H.072zm13.178 8.173H1.041v-7H13.25v7z"/><g><circle cx="5.236" cy="8.478" r=".722"/><path d="M5.564 9.543h-.659a.697.697 0 0 0-.694.696v.904H6.26v-.904a.698.698 0 0 0-.696-.696z"/><circle cx="8.83" cy="9.334" r=".722"/><path d="M9.158 10.398h-.659a.697.697 0 0 0-.694.696v.905h2.049v-.905a.698.698 0 0 0-.696-.696z"/><circle cx="6.833" cy="7.68" r=".722"/><path d="M7.858 10.345V9.44a.698.698 0 0 0-.696-.696h-.66a.695.695 0 0 0-.691.668c.357.107.62.435.62.827v.105h1.427z"/></g></g></svg>