<svg width="16" height="16" xmlns="http://www.w3.org/2000/svg" viewBox="0 0 16 16" shape-rendering="geometricPrecision" fill="#fff"><defs><mask id="a"><rect width="100%" height="100%"/><path fill="#000" d="M14.258-1.414l-3.229 3.227-1.69-1.69-2.74 2.743 4.432 4.433L17 1.329z"/></mask></defs><path fill="#cb1800" d="M15.586 1.33L14.258 0l-3.229 3.228L9.34 1.539 8.013 2.867l3.018 3.019z"/><g mask="url(#a)"><path d="M10.201 4.508a2.698 2.698 0 0 1 2.711 2.645l.019.766.744.181a1.715 1.715 0 0 1 1.311 1.672v.057a1.724 1.724 0 0 1-1.714 1.665H3.035A2.025 2.025 0 0 1 1.013 9.47a2.025 2.025 0 0 1 2.384-1.991l1.365.245-.198-1.374a1.087 1.087 0 0 1 1.074-1.238c.337 0 .65.154.858.423l.783 1.012.793-1.004a2.694 2.694 0 0 1 2.129-1.035m0-1a3.706 3.706 0 0 0-2.915 1.415 2.085 2.085 0 0 0-3.713 1.571 3.023 3.023 0 0 0-3.56 2.975 3.023 3.023 0 0 0 3.022 3.024h10.237a2.72 2.72 0 0 0 2.714-2.721l-.001-.001c0-1.28-.884-2.354-2.075-2.644a3.71 3.71 0 0 0-3.709-3.619z"/></g></svg>