<?xml version="1.0"?><!DOCTYPE svg PUBLIC "-//W3C//DTD SVG 1.1//EN" "http://www.w3.org/Graphics/SVG/1.1/DTD/svg11.dtd"><svg width="16px" height="16px" xmlns="http://www.w3.org/2000/svg" viewBox="0 0 16 16" shape-rendering="geometricPrecision" fill="#fff"><defs><mask id="accept-path"><rect fill="#fff" width="100%" height="100%"/><polygon points="14.258,-1.414 11.029,1.813 9.339,0.123 6.599,2.866 11.031,7.299 17,1.329 " fill="#000"/></mask></defs><polygon points="15.586,1.33 14.258,0 11.029,3.228 9.34,1.539 8.013,2.867 11.031,5.886 " fill="#cb1800"/><g mask="url(#accept-path)"><g><polygon points="8.182,3.179 7.367,1.256 3.587,1.256 2.77,3.179 1.649,3.179 1.65,4.128 14.977,4.119 14.995,13.402 15.928,12.424 15.928,3.179"/><path d="M0.072,4.756V14h14.279V4.756H0.072z M9.97,9.625v3.366H8.068v-2.633H6.078v2.633H4.177V9.625H3.613l3.46-3.563 l3.461,3.563H9.97z"/></g></g></svg>