<?xml version="1.0"?><!DOCTYPE svg PUBLIC "-//W3C//DTD SVG 1.1//EN" "http://www.w3.org/Graphics/SVG/1.1/DTD/svg11.dtd"><svg width="16px" height="16px" xmlns="http://www.w3.org/2000/svg" viewBox="0 0 16 16" shape-rendering="geometricPrecision" fill="#fff"><defs><mask id="accept-path"><rect fill="#fff" width="100%" height="100%"/><polygon points="14.258,-1.414 11.029,1.813 9.339,0.123 6.599,2.866 11.031,7.299 17,1.329 " fill="#000"/></mask></defs><polygon points="15.586,1.33 14.258,0 11.029,3.228 9.34,1.539 8.013,2.867 11.031,5.886 " fill="#cb1800"/><g mask="url(#accept-path)"><g><polygon points="7.065,12.458 2,12.458 2,4.458 7,4.458 8.609,4.458 8.802,3.458 6.799,3.458 6.5,1.967 2.5,1.967 2.201,3.458 1,3.458 1,13.458 6.872,13.458"/><polygon points="9.82,4 9.627,5 14,5 14,13 8.083,13 7.89,14 15,14 15,4"/></g></g></svg>