<?xml version="1.0"?><!DOCTYPE svg PUBLIC "-//W3C//DTD SVG 1.1//EN" "http://www.w3.org/Graphics/SVG/1.1/DTD/svg11.dtd"><svg width="16px" height="16px" xmlns="http://www.w3.org/2000/svg" viewBox="0 0 16 16" shape-rendering="geometricPrecision" fill="#fff"><defs><mask id="accept-path"><rect fill="#fff" width="100%" height="100%"/><polygon points="14.258,-1.414 11.029,1.813 9.339,0.123 6.599,2.866 11.031,7.299 17,1.329 " fill="#000"/></mask></defs><polygon points="15.586,1.33 14.258,0 11.029,3.228 9.34,1.539 8.013,2.867 11.031,5.886 " fill="#cb1800"/><g mask="url(#accept-path)"><path d="M3.359,0v1.056h10.329v12.842h1.072V0H3.359z M1.24,16h11.401V2.102H1.24V16z M6.956,3.726 c1.467,0,2.651,1.188,2.651,2.651c0,1.47-1.185,2.653-2.651,2.653c-1.464,0-2.653-1.184-2.653-2.653 C4.302,4.914,5.492,3.726,6.956,3.726z M2.447,12.184c0-1.263,1.027-2.295,2.288-2.295h4.435c1.262,0,2.296,1.032,2.296,2.295 v2.98H2.447V12.184z"/></g></svg>