<?xml version="1.0"?><!DOCTYPE svg PUBLIC "-//W3C//DTD SVG 1.1//EN" "http://www.w3.org/Graphics/SVG/1.1/DTD/svg11.dtd"><svg width="16px" height="16px" xmlns="http://www.w3.org/2000/svg" viewBox="0 0 16 16" shape-rendering="geometricPrecision" fill="#fff"><defs><mask id="accept-path"><rect fill="#fff" width="100%" height="100%"/><polygon points="14.258,-1.414 11.029,1.813 9.339,0.123 6.599,2.866 11.031,7.299 17,1.329 " fill="#000"/></mask></defs><polygon points="15.586,1.33 14.258,0 11.029,3.228 9.34,1.539 8.013,2.867 11.031,5.886 " fill="#cb1800"/><g mask="url(#accept-path)"><path d="M14.479,9.852V8.649h-2.566V1.632H6.599L3.896,4.124v4.525H1.569v1.202H0.966v4.518h0.604h12.91h0.555 V9.852H14.479z M6.645,2.73v1.403H5.121L6.645,2.73z M4.635,5h2.88V2.321h3.604v8.377H4.635V5z M12.872,11.546 c-0.393,0-0.711-0.319-0.711-0.711c0-0.394,0.318-0.711,0.711-0.711c0.392,0,0.711,0.317,0.711,0.711 C13.583,11.227,13.264,11.546,12.872,11.546z"/><rect x="5.624" y="5.738" width="4.57" height="0.866"/><rect x="5.624" y="7.363" width="4.57" height="0.866"/></g></svg>