<svg width="16" height="16" xmlns="http://www.w3.org/2000/svg" viewBox="0 0 16 16" shape-rendering="geometricPrecision" fill="#6e6e6e"><defs><mask id="a"><rect fill="#fff" width="100%" height="100%"/><path fill="#000" d="M8.986 1.143H17v3.565H8.986z"/></mask></defs><path d="M9.986 2.143H16v1.565H9.986z" fill="#cb1800"/><g mask="url(#a)"><path d="M1 11.479h13.987v1.042H1zm0-4.014h13.987v1.062H1zM1 3.45h13.987v1.021H1z"/><path d="M7.466 10.505h2.027c.267 0 .483.216.483.483v2.027a.483.483 0 0 1-.483.483H7.466a.483.483 0 0 1-.483-.483v-2.027c0-.267.217-.483.483-.483zm3.008-4.004h2.032c.267 0 .483.216.483.483v2.032a.483.483 0 0 1-.483.483h-2.032a.483.483 0 0 1-.483-.483V6.984c0-.267.217-.483.483-.483zM3.477 2.502h2.019c.267 0 .483.216.483.483v2.019a.483.483 0 0 1-.483.483H3.477a.483.483 0 0 1-.483-.483V2.985c0-.267.216-.483.483-.483z"/></g></svg>