<?xml version="1.0"?><!DOCTYPE svg PUBLIC "-//W3C//DTD SVG 1.1//EN" "http://www.w3.org/Graphics/SVG/1.1/DTD/svg11.dtd"><svg width="16px" height="16px" xmlns="http://www.w3.org/2000/svg" viewBox="0 0 16 16" shape-rendering="geometricPrecision" fill="#6e6e6e"><defs><mask id="remove-path"><rect fill="#fff" width="100%" height="100%"/><rect x="8.986" y="1.143" width="8.014" height="3.565" fill="#000"/></mask></defs><g fill="#cb1800"><rect x="9.986" y="2.143" width="6.014" height="1.565"/></g><g mask="url(#remove-path)"><g><path d="M14.938,8.001c0-3.833-3.107-6.939-6.941-6.939c-3.829,0-6.934,3.106-6.936,6.939c0.002,3.832,3.106,6.936,6.936,6.937 C11.831,14.938,14.938,11.833,14.938,8.001z M2.466,8.001c0.006-3.057,2.478-5.529,5.531-5.536 c3.059,0.007,5.531,2.479,5.537,5.536c-0.006,3.056-2.479,5.528-5.537,5.534C4.943,13.529,2.472,11.057,2.466,8.001z"/></g><path d="M8,8.001h4.673C12.668,5.421,10.581,3.334,8,3.327V8.001z"/></g></svg>