<svg width="16" height="16" xmlns="http://www.w3.org/2000/svg" viewBox="0 0 16 16" shape-rendering="geometricPrecision" fill="#00962d"><defs><mask id="a"><rect fill="#fff" width="100%" height="100%"/><path fill="#000" d="M19.079 1.436h-4.914l-1.516-4.674-1.519 4.674H6.217l3.975 2.886-1.516 4.673 3.972-2.888 3.972 2.889-1.516-4.674z"/></mask></defs><path fill="#cb1800" d="M13.928 3.94L16 2.435h-2.561L12.648 0l-.791 2.435H9.295l2.072 1.505-.79 2.437 2.071-1.506 2.071 1.506z"/><path mask="url(#a)" d="M0 0v16h16V0H0zm15 7.876h-1.652l-1.284-2.625-1.32 2.625h-1.1l-.215.59L8.03 4.205l-1.868 7.419L4.268 1H15v6.876zM4.22 1L2.129 7.876H1V1h3.22zM1 8.876h1.87l1.127-3.701L5.751 15H1V8.876zM6.36 15l1.797-7.203 1.222 3.722.964-2.643h1.017l.691-1.375.672 1.375H15V15H6.36z"/></svg>