<svg width="16" height="16" xmlns="http://www.w3.org/2000/svg" viewBox="0 0 16 16" shape-rendering="geometricPrecision" fill="#00962d"><defs><mask id="a"><rect fill="#fff" width="100%" height="100%"/><path fill="#000" d="M19.079 1.436h-4.914l-1.516-4.674-1.519 4.674H6.217l3.975 2.886-1.516 4.673 3.972-2.888 3.972 2.889-1.516-4.674z"/></mask></defs><path fill="#cb1800" d="M13.928 3.94L16 2.435h-2.561L12.648 0l-.791 2.435H9.295l2.072 1.505-.79 2.437 2.071-1.506 2.071 1.506z"/><g mask="url(#a)"><path d="M7.999 3.007L.701 5.591 3.853 7.29l4-1.688.663.303L4.52 7.651l3.479 1.873 7.3-3.933zM3.336 7.813l-1.692.602 1.447.779.245.133z"/><path d="M12.661 7.813l-4.662 2.512-3.001-1.617v1.514l3.001 1.617 4.692-2.529 1.665-.895zM3.899 12.542l.608.451v-5.33l-.608-.367z"/></g></svg>