<svg width="16" height="16" xmlns="http://www.w3.org/2000/svg" viewBox="0 0 16 16" shape-rendering="geometricPrecision" fill="#00962d"><defs><mask id="a"><rect fill="#fff" width="100%" height="100%"/><path fill="#000" d="M19.079 1.436h-4.914l-1.516-4.674-1.519 4.674H6.217l3.975 2.886-1.516 4.673 3.972-2.888 3.972 2.889-1.516-4.674z"/></mask></defs><path fill="#cb1800" d="M13.928 3.94L16 2.435h-2.561L12.648 0l-.791 2.435H9.295l2.072 1.505-.79 2.437 2.071-1.506 2.071 1.506z"/><g mask="url(#a)"><path d="M11.17 3.472L9.519 5.124l3.176 3.178-3.176 3.179 1.651 1.65L16 8.305zM0 1.671l.001 12.497L6.4 15.999V2.435l-2.672-.764h4.061v13.03h1.066V.604H0v1.067zm1 .235l4.4 1.282v11.564L1 13.47V1.906z"/></g></svg>