<?xml version="1.0"?><!DOCTYPE svg PUBLIC "-//W3C//DTD SVG 1.1//EN" "http://www.w3.org/Graphics/SVG/1.1/DTD/svg11.dtd"><svg width="16px" height="16px" xmlns="http://www.w3.org/2000/svg" viewBox="0 0 16 16" shape-rendering="geometricPrecision" fill="#00962d"><defs><mask id="new-path"><rect fill="#fff" width="100%" height="100%"/><polygon points="19.079,1.436 14.165,1.436 12.649,-3.238 11.13,1.436 6.217,1.436 10.192,4.322 8.676,8.995 12.648,6.107 16.62,8.996 15.104,4.322 " fill="#000"/></mask></defs><polygon points="13.928,3.94 16,2.435 13.439,2.435 12.648,0 11.857,2.435 9.295,2.435 11.367,3.94 10.577,6.377 12.648,4.871 14.719,6.377 " fill="#cb1800"/><g mask="url(#new-path)"><path d="M12.26,6.22L7.983,8.903L3.694,6.274L0.793,8.596c0.046,0.096,4.25,2.737,4.25,2.737L7.98,9.125 l3.028,2.206l4.352-2.617L12.26,6.22z"/><polygon points="7.98,9.955 5.053,12.152 3.598,11.339 3.598,12.169 7.998,14.955 12.364,12.169 12.364,11.339 10.994,12.152"/><polygon points="11.084,1.045 7.98,3.59 12.26,6.218 15.362,3.792"/><polygon points="0.638,3.928 3.702,6.269 7.98,3.59 5.041,1.047"/><rect x="12.259" y="6.219" transform="matrix(0.84 -0.5425 0.5425 0.84 -1.413 7.6461)" width="0.001" height="0.001"/></g></svg>