<svg width="16" height="16" xmlns="http://www.w3.org/2000/svg" viewBox="0 0 16 16" shape-rendering="geometricPrecision" fill="#00962d"><defs><mask id="a"><rect fill="#fff" width="100%" height="100%"/><path fill="#000" d="M19.079 1.436h-4.914l-1.516-4.674-1.519 4.674H6.217l3.975 2.886-1.516 4.673 3.972-2.888 3.972 2.889-1.516-4.674z"/></mask></defs><path fill="#cb1800" d="M13.928 3.94L16 2.435h-2.561L12.648 0l-.791 2.435H9.295l2.072 1.505-.79 2.437 2.071-1.506 2.071 1.506z"/><g mask="url(#a)"><path d="M3.032-.012v1.056h10.329v9.226h1.073V-.012zM8.98 15.293l2.525-2.325H8.98z"/><path d="M1.566 15.97h5.971v-4.44h4.773V2.088H1.566V15.97zM2.94 3.326h8.116v6.725h-4.79v4.601H2.94V3.326z"/></g></svg>