<svg width="16" height="16" xmlns="http://www.w3.org/2000/svg" viewBox="0 0 16 16" shape-rendering="geometricPrecision" fill="#00962d"><defs><mask id="a"><rect fill="#fff" width="100%" height="100%"/><path fill="#000" d="M19.079 1.436h-4.914l-1.516-4.674-1.519 4.674H6.217l3.975 2.886-1.516 4.673 3.972-2.888 3.972 2.889-1.516-4.674z"/></mask></defs><path fill="#cb1800" d="M13.928 3.94L16 2.435h-2.561L12.648 0l-.791 2.435H9.295l2.072 1.505-.79 2.437 2.071-1.506 2.071 1.506z"/><path mask="url(#a)" d="M14.49 13.121L14.479 0H4.034C2.658.003 1.536.619 1.513 1.987c-.003.025-.003.529 0 .535v.003c0 .04.009.076.011.117h-.009v10.826A2.532 2.532 0 0 0 4.044 16h8.386l-.038-1.689-.009-11.345h-8.35c-.496 0-1.68-.048-1.68-.979v-.093C2.404 1.009 3.537.842 4.033.842h9.593v12.279h.864zM7.819 4.302a1.122 1.122 0 1 1 0 2.243 1.122 1.122 0 0 1 0-2.243zm-2.257 8.694h1.105v-4.47H5.566v-.834h3.359v5.304h1.106v1.111H5.562v-1.111z"/></svg>