<svg width="16" height="16" xmlns="http://www.w3.org/2000/svg" viewBox="0 0 16 16" shape-rendering="geometricPrecision" fill="#00962d"><defs><mask id="a"><rect fill="#fff" width="100%" height="100%"/><path fill="#000" d="M19.079 1.436h-4.914l-1.516-4.674-1.519 4.674H6.217l3.975 2.886-1.516 4.673 3.972-2.888 3.972 2.889-1.516-4.674z"/></mask></defs><path fill="#cb1800" d="M13.928 3.94L16 2.435h-2.561L12.648 0l-.791 2.435H9.295l2.072 1.505-.79 2.437 2.071-1.506 2.071 1.506z"/><g mask="url(#a)"><path d="M2.131 11.885V7.242l2.654 2.654 3.757-3.758 1.98 1.981 3.566-3.565-.92-.919-2.645 2.641-1.06-1.059.009-.009-.92-.92-3.768 3.765L2.14 5.411l-.009.01V3.738H1.037v9.242l.797-.002v.002h13.129v-1.095z"/></g></svg>