<svg width="16" height="16" xmlns="http://www.w3.org/2000/svg" viewBox="0 0 16 16" shape-rendering="geometricPrecision" fill="#00962d"><defs><mask id="a"><rect fill="#fff" width="100%" height="100%"/><path fill="#000" d="M19.079 1.436h-4.914l-1.516-4.674-1.519 4.674H6.217l3.975 2.886-1.516 4.673 3.972-2.888 3.972 2.889-1.516-4.674z"/></mask></defs><path fill="#cb1800" d="M13.928 3.94L16 2.435h-2.561L12.648 0l-.791 2.435H9.295l2.072 1.505-.79 2.437 2.071-1.506 2.071 1.506z"/><path d="M14.085 1.939a6.336 6.336 0 0 1 .002 8.965 6.337 6.337 0 0 1-7.916.847h-.009v2.125l-.013.014H4.022v2.123H.013v-4.014h.01l-.003-.005 3.574-3.573A6.33 6.33 0 0 1 5.122 1.94a6.335 6.335 0 0 1 8.963-.001zm-3.928 3.928z" mask="url(#a)"/></svg>