<svg width="16" height="16" xmlns="http://www.w3.org/2000/svg" viewBox="0 0 16 16" shape-rendering="geometricPrecision" fill="#00962d"><defs><mask id="a"><rect fill="#fff" width="100%" height="100%"/><path fill="#000" d="M19.079 1.436h-4.914l-1.516-4.674-1.519 4.674H6.217l3.975 2.886-1.516 4.673 3.972-2.888 3.972 2.889-1.516-4.674z"/></mask></defs><path fill="#cb1800" d="M13.928 3.94L16 2.435h-2.561L12.648 0l-.791 2.435H9.295l2.072 1.505-.79 2.437 2.071-1.506 2.071 1.506z"/><g mask="url(#a)"><path d="M12.99 8.003A4.992 4.992 0 1 1 7.998 3.01L7.997.893A7.111 7.111 0 0 0 .892 8.002a7.109 7.109 0 0 0 14.215.001H12.99z"/><path d="M8.941 7.062l.001 3.916h2.035l-.002-5.956-5.951.002-.001 2.035z"/></g></svg>