<svg width="16" height="16" xmlns="http://www.w3.org/2000/svg" viewBox="0 0 16 16" shape-rendering="geometricPrecision" fill="#00962d"><defs><mask id="a"><rect fill="#fff" width="100%" height="100%"/><path fill="#000" d="M19.079 1.436h-4.914l-1.516-4.674-1.519 4.674H6.217l3.975 2.886-1.516 4.673 3.972-2.888 3.972 2.889-1.516-4.674z"/></mask></defs><path fill="#cb1800" d="M13.928 3.94L16 2.435h-2.561L12.648 0l-.791 2.435H9.295l2.072 1.505-.79 2.437 2.071-1.506 2.071 1.506z"/><path d="M8.41 6.155l6.188.002-.002-6.185h-2.114l-.002 2.695C9.548.404 5.354.555 2.69 3.217c-2.895 2.895-2.832 7.604.086 10.53 2.929 2.918 7.635 2.981 10.533.09a7.314 7.314 0 0 0 2.138-5.191l-2.094.002a5.215 5.215 0 0 1-1.525 3.709c-2.058 2.05-5.443 2.036-7.572-.089-2.125-2.128-2.137-5.515-.087-7.572 1.775-1.772 4.54-1.994 6.635-.654l-2.394.001v2.112z" mask="url(#a)"/></svg>