<svg width="16" height="16" xmlns="http://www.w3.org/2000/svg" viewBox="0 0 16 16" shape-rendering="geometricPrecision" fill="#00962d"><defs><mask id="a"><rect fill="#fff" width="100%" height="100%"/><path fill="#000" d="M19.079 1.436h-4.914l-1.516-4.674-1.519 4.674H6.217l3.975 2.886-1.516 4.673 3.972-2.888 3.972 2.889-1.516-4.674z"/></mask></defs><path fill="#cb1800" d="M13.928 3.94L16 2.435h-2.561L12.648 0l-.791 2.435H9.295l2.072 1.505-.79 2.437 2.071-1.506 2.071 1.506z"/><g mask="url(#a)"><path d="M13.826 1.99l-5.027.006L1 9.794l5.038 5.038 7.799-7.799-.011-5.043zm-2.484 4a1.5 1.5 0 1 1 .001-3.001 1.5 1.5 0 0 1-.001 3.001z"/><path d="M2.342 9.668L7.94 4.07l3.823 3.822-5.598 5.599z"/><path d="M3.873 9.85l4.263-4.263.719.718L4.59 10.57zm1.353 1.354L9.489 6.94l.718.719-4.263 4.263z"/></g></svg>