<svg width="16" height="16" xmlns="http://www.w3.org/2000/svg" viewBox="0 0 16 16" shape-rendering="geometricPrecision" fill="#00962d"><defs><mask id="a"><rect fill="#fff" width="100%" height="100%"/><path d="M19.079 1.436h-4.914l-1.516-4.674-1.519 4.674H6.217l3.975 2.886-1.516 4.673 3.972-2.888 3.972 2.889-1.516-4.674z"/></mask></defs><path fill="#cb1800" d="M13.928 3.94L16 2.435h-2.561L12.648 0l-.791 2.435H9.295l2.072 1.505-.79 2.437 2.071-1.506 2.071 1.506z"/><path mask="url(#a)" d="M7.993 3.184A9.037 9.037 0 0 0 0 8.001a9.044 9.044 0 0 0 15.986 0 9.042 9.042 0 0 0-7.993-4.817zm-.82 8.199L4.121 8.331l1.342-1.344 1.709 1.708 3.265-3.265 1.345 1.344-4.609 4.609z"/></svg>