<?xml version="1.0"?><!DOCTYPE svg PUBLIC "-//W3C//DTD SVG 1.1//EN" "http://www.w3.org/Graphics/SVG/1.1/DTD/svg11.dtd"><svg width="16px" height="16px" xmlns="http://www.w3.org/2000/svg" viewBox="0 0 16 16" shape-rendering="geometricPrecision" fill="#6e6e6e"><defs><mask id="accept-path"><rect fill="#fff" width="100%" height="100%"/><polygon points="14.258,-1.414 11.029,1.813 9.339,0.123 6.599,2.866 11.031,7.299 17,1.329 " fill="#000"/></mask></defs><polygon points="15.586,1.33 14.258,0 11.029,3.228 9.34,1.539 8.013,2.867 11.031,5.886 " fill="#cb1800"/><g mask="url(#accept-path)"><path d="M6.799,3.47L6.5,1.979h-4L2.2,3.47H0.999v10h14v-10H6.799z M14,12.47H2v-8h5h7V12.47z"/><g><path d="M6.919,7.07c0-0.604,0.489-1.091,1.092-1.091c0.602,0,1.091,0.488,1.091,1.091v0.542h0.667V7.07 c0-0.971-0.787-1.759-1.758-1.759c-0.971,0-1.759,0.788-1.759,1.759v0.542h0.667V7.07z M5.68,8.076v3.401h4.66V8.076H5.68z M8.421,10.342c0,0.226-0.183,0.409-0.409,0.409c-0.227,0-0.412-0.183-0.412-0.409v-1.13c0-0.225,0.184-0.409,0.41-0.409 c0.228,0,0.411,0.184,0.411,0.409V10.342z"/></g></g></svg>