<svg width="16" height="16" xmlns="http://www.w3.org/2000/svg" viewBox="0 0 16 16" shape-rendering="geometricPrecision" fill="#6e6e6e"><defs><mask id="a"><rect fill="#fff" width="100%" height="100%"/><path fill="#000" d="M14.258-1.414l-3.229 3.227-1.69-1.69-2.74 2.743 4.432 4.433L17 1.329z"/></mask></defs><path fill="#cb1800" d="M15.586 1.33L14.258 0l-3.229 3.228L9.34 1.539 8.013 2.867l3.018 3.019z"/><g mask="url(#a)"><path d="M1.811-.001v16h12.378v-16H1.811zM8.03 1.245a1.55 1.55 0 1 1 .003 3.101 1.55 1.55 0 0 1-.003-3.101zm3.055 13.548h-6.17V13.26h1.526V7.082H4.919V5.931h4.64v7.329h1.526v1.533z"/></g></svg>