<?xml version="1.0"?><!DOCTYPE svg PUBLIC "-//W3C//DTD SVG 1.1//EN" "http://www.w3.org/Graphics/SVG/1.1/DTD/svg11.dtd"><svg width="16px" height="16px" xmlns="http://www.w3.org/2000/svg" viewBox="0 0 16 16" shape-rendering="geometricPrecision" fill="#6e6e6e"><defs><mask id="accept-path"><rect fill="#fff" width="100%" height="100%"/><polygon points="14.258,-1.414 11.029,1.813 9.339,0.123 6.599,2.866 11.031,7.299 17,1.329 " fill="#000"/></mask></defs><polygon points="15.586,1.33 14.258,0 11.029,3.228 9.34,1.539 8.013,2.867 11.031,5.886 " fill="#cb1800"/><g mask="url(#accept-path)"><g><path d="M8,5.2c1.547,0,2.8,1.254,2.8,2.802c0,1.537-1.24,2.783-2.776,2.796v1.401c2.309-0.013,4.177-1.888,4.177-4.197 c0-2.321-1.88-4.201-4.201-4.201s-4.201,1.88-4.201,4.201c0,0.002,0,0.006,0,0.009h1.4c0-0.003-0.001-0.007-0.001-0.009 C5.199,6.454,6.453,5.2,8,5.2z M8,0.998c-3.867,0-7.001,3.135-7.001,7.004c0,0.002,0,0.006,0,0.009h1.401 c0-0.003,0-0.007,0-0.009c0-3.095,2.507-5.603,5.601-5.603c3.093,0,5.601,2.508,5.601,5.603c0,3.083-2.495,5.586-5.577,5.599 v1.401c3.855-0.014,6.978-3.143,6.978-7C15.002,4.133,11.867,0.998,8,0.998z"/><circle cx="4.599" cy="11.22" r="2.105"/></g></g></svg>