<?xml version="1.0"?><!DOCTYPE svg PUBLIC "-//W3C//DTD SVG 1.1//EN" "http://www.w3.org/Graphics/SVG/1.1/DTD/svg11.dtd"><svg width="16px" height="16px" xmlns="http://www.w3.org/2000/svg" viewBox="0 0 16 16" shape-rendering="geometricPrecision" fill="#6e6e6e"><defs><mask id="accept-path"><rect fill="#fff" width="100%" height="100%"/><polygon points="14.258,-1.414 11.029,1.813 9.339,0.123 6.599,2.866 11.031,7.299 17,1.329 " fill="#000"/></mask></defs><polygon points="15.586,1.33 14.258,0 11.029,3.228 9.34,1.539 8.013,2.867 11.031,5.886 " fill="#cb1800"/><g mask="url(#accept-path)"><g><rect x="1.53" y="0.555" width="4.392" height="4.392"/><path d="M9.948,1.278v2.918H7.032V1.278H9.948 M10.687,0.539H6.293v4.393h4.394V0.539L10.687,0.539z"/><path d="M14.73,1.278v2.918h-2.916V1.278H14.73 M15.468,0.539h-4.392v4.393h4.392V0.539L15.468,0.539z"/><path d="M5.185,6.063v2.914H2.27V6.063H5.185 M5.922,5.323H1.53v4.394h4.392V5.323L5.922,5.323z"/><rect x="6.293" y="5.309" width="4.394" height="4.394"/><rect x="11.077" y="5.309" width="4.392" height="4.394"/><rect x="1.53" y="10.007" width="4.392" height="4.393"/><rect x="6.293" y="9.991" width="4.394" height="4.394"/><path d="M14.73,10.731v2.916h-2.916v-2.916H14.73 M15.468,9.991h-4.392v4.394h4.392V9.991L15.468,9.991z"/></g></g></svg>