<svg width="16" height="16" xmlns="http://www.w3.org/2000/svg" viewBox="0 0 16 16" shape-rendering="geometricPrecision" fill="#cb1800"><path d="M12.377 4.153a2.267 2.267 0 0 0-2.102-3.12 2.263 2.263 0 0 0-2.198 1.732 2.246 2.246 0 0 0-2.194-1.764 2.25 2.25 0 0 0-2.25 2.25c0 .279.059.545.15.789-1.492.955-2.447 2.488-2.447 4.504 0 3.564 2.982 6.455 6.664 6.455 3.68 0 6.663-2.891 6.663-6.455.001-1.941-.887-3.432-2.286-4.391zm-4.419-.912c1.12 0 2.029 1.143 2.029 2.553 0 1.408-.909 2.551-2.029 2.551-1.121 0-2.029-1.143-2.029-2.551-.001-1.41.907-2.553 2.029-2.553zm.195 10.412c-4.655 0-4.948-4.637-4.948-4.637-.001 0 2.093.635 4.792.635 2.976 0 5.086-.652 5.087-.652-.001 0-.711 4.654-4.931 4.654z"/></svg>