<?xml version="1.0"?><!DOCTYPE svg PUBLIC "-//W3C//DTD SVG 1.1//EN" "http://www.w3.org/Graphics/SVG/1.1/DTD/svg11.dtd"><svg width="16px" height="16px" xmlns="http://www.w3.org/2000/svg" viewBox="0 0 16 16" shape-rendering="geometricPrecision" fill="#cb1800"><g><g><polygon points="8.182,3.179 7.367,1.256 3.587,1.256 2.77,3.179 1.649,3.179 1.65,4.128 14.977,4.119 14.995,13.402 15.928,12.424 15.928,3.179"/><path d="M0.072,4.756V14h14.279V4.756H0.072z M5.294,12.992L5.212,12.14l0.736,0.293L5.294,12.992z M6.565,11.912l-1.443-0.579 L6.681,7.44l1.444,0.579L6.565,11.912z M8.517,7.042l-0.233,0.58L6.84,7.042l0.232-0.578c0.163-0.396,0.612-0.588,1.01-0.428 C8.479,6.193,8.673,6.644,8.517,7.042L8.517,7.042z"/></g></g></svg>