<svg width="16" height="16" xmlns="http://www.w3.org/2000/svg" viewBox="0 0 16 16" shape-rendering="geometricPrecision" fill="#24437c"><defs><mask id="a"><rect fill="#fff" width="100%" height="100%"/><path fill="#000" d="M17.414 1.215L14.79-1.414 13.066.308l-1.722-1.722-2.627 2.627 1.722 1.721-1.724 1.722 2.63 2.628 1.722-1.722 1.722 1.723 2.625-2.63-1.721-1.72z"/></mask></defs><path d="M16 4.656l-1.722-1.721L16 1.214 14.789.001l-1.723 1.721L11.344.001l-1.212 1.212 1.722 1.721-1.724 1.722 1.215 1.214 1.722-1.723 1.722 1.723z" fill="#cb1800"/><g mask="url(#a)"><path d="M6.133 5.138c.686 0 1.262.339 1.634.72l-.686.77c-.279-.254-.542-.414-.931-.414-.771 0-1.372.669-1.372 1.778 0 1.134.534 1.795 1.338 1.795.457 0 .778-.195 1.049-.491l.686.753a2.252 2.252 0 0 1-1.753.813c-1.431 0-2.599-.973-2.599-2.828.001-1.829 1.212-2.896 2.634-2.896zM10.573 5.138c.686 0 1.262.339 1.634.72l-.686.77c-.279-.254-.542-.415-.931-.415-.771 0-1.372.669-1.372 1.778 0 1.134.534 1.795 1.338 1.795.457 0 .778-.195 1.049-.491l.686.753a2.252 2.252 0 0 1-1.753.813c-1.431 0-2.599-.973-2.599-2.828.001-1.828 1.212-2.895 2.634-2.895z"/><path d="M8 1.001a7 7 0 1 0 .003 14 7 7 0 0 0-.003-14zm0 12.584a5.59 5.59 0 0 1-5.583-5.581A5.593 5.593 0 0 1 8 2.417a5.594 5.594 0 0 1 5.585 5.587A5.593 5.593 0 0 1 8 13.585z"/></g></svg>