<svg width="16" height="16" xmlns="http://www.w3.org/2000/svg" viewBox="0 0 16 16" shape-rendering="geometricPrecision" fill="#24437c"><defs><mask id="a"><rect fill="#fff" width="100%" height="100%"/><path fill="#000" d="M17.414 1.215L14.79-1.414 13.066.308l-1.722-1.722-2.627 2.627 1.722 1.721-1.724 1.722 2.63 2.628 1.722-1.722 1.722 1.723 2.625-2.63-1.721-1.72z"/></mask></defs><path d="M16 4.656l-1.722-1.721L16 1.214 14.789.001l-1.723 1.721L11.344.001l-1.212 1.212 1.722 1.721-1.724 1.722 1.215 1.214 1.722-1.723 1.722 1.723z" fill="#cb1800"/><g mask="url(#a)"><path d="M7.999 1a7 7 0 1 0 .003 14 7 7 0 0 0-.003-14zm3.423 9.054l-1.448 1.45-2.055-2.057-2.058 2.058-1.451-1.45 2.059-2.058-2.057-2.056L5.86 4.493 7.917 6.55l2.058-2.057 1.448 1.45-2.057 2.056 2.056 2.055z"/></g></svg>