<svg width="16" height="16" xmlns="http://www.w3.org/2000/svg" viewBox="0 0 16 16" shape-rendering="geometricPrecision" fill="#24437c"><defs><mask id="a"><rect fill="#fff" width="100%" height="100%"/><path fill="#000" d="M17.414 1.215L14.79-1.414 13.066.308l-1.722-1.722-2.627 2.627 1.722 1.721-1.724 1.722 2.63 2.628 1.722-1.722 1.722 1.723 2.625-2.63-1.721-1.72z"/></mask></defs><path d="M16 4.656l-1.722-1.721L16 1.214 14.789.001l-1.723 1.721L11.344.001l-1.212 1.212 1.722 1.721-1.724 1.722 1.215 1.214 1.722-1.723 1.722 1.723z" fill="#cb1800"/><g mask="url(#a)"><path d="M10.055 14.302l2.54-2.338h-2.54z"/><path d="M2.595 1.016v13.969h6.008v-4.468h4.802V1.016H2.595zm9.439 8.027h-4.79v4.601H3.917V2.318h8.116v6.725z"/><path fill-rule="evenodd" clip-rule="evenodd" d="M9.795 6.744c.643.512 1.164.299 1.088.201-.23-.298-.683-.298-1.088-.201zm.834-.288c-.644-.218-1.501-.001-1.468.026-.432-.213-1.015-.523-1.335-1.541-.537-1.705 0-2.255.035-1.189l.108.724s.371-.903.131-1.562c-.208-.574-.81-.488-.846.573-.02.585.121 1.464.186 1.601 0 0-.558 1.641-1.384 2.931-.801 1.252-.85.83-.656.413.231-.496.624-.757.755-.964 0 0-.609.048-1.083.86-.299.514-.335 1.79.941.406.253-.275.613-.852.777-1.195 0 0 .742-.324 2.514-.668 0 0 .478.349 1.098.492.77.177 1.562-.454.227-.907zm-3.625.541l.645-1.482c.427.909 1.033 1.094 1.033 1.094-.263.034-1.678.388-1.678.388z"/></g></svg>