<svg width="16" height="16" xmlns="http://www.w3.org/2000/svg" viewBox="0 0 16 16" shape-rendering="geometricPrecision" fill="#24437c"><defs><mask id="a"><rect fill="#fff" width="100%" height="100%"/><path fill="#000" d="M17.414 1.215L14.79-1.414 13.066.308l-1.722-1.722-2.627 2.627 1.722 1.721-1.724 1.722 2.63 2.628 1.722-1.722 1.722 1.723 2.625-2.63-1.721-1.72z"/></mask></defs><path d="M16 4.656l-1.722-1.721L16 1.214 14.789.001l-1.723 1.721L11.344.001l-1.212 1.212 1.722 1.721-1.724 1.722 1.215 1.214 1.722-1.723 1.722 1.723z" fill="#cb1800"/><g mask="url(#a)"><path d="M8.182 3.179l-.815-1.923h-3.78L2.77 3.179H1.649l.001.949 13.327-.009.018 9.283.933-.978V3.179z"/><path d="M.072 4.756V14h14.279V4.756H.072zm5.222 8.236l-.082-.852.736.293-.654.559zm1.271-1.08l-1.443-.579L6.681 7.44l1.444.579-1.56 3.893zm1.952-4.87l-.233.58-1.444-.58.232-.578a.778.778 0 0 1 1.445.578z"/></g></svg>