<svg width="16" height="16" xmlns="http://www.w3.org/2000/svg" viewBox="0 0 16 16" shape-rendering="geometricPrecision" fill="#24437c"><defs><mask id="a"><rect fill="#fff" width="100%" height="100%"/><path fill="#000" d="M17.414 1.215L14.79-1.414 13.066.308l-1.722-1.722-2.627 2.627 1.722 1.721-1.724 1.722 2.63 2.628 1.722-1.722 1.722 1.723 2.625-2.63-1.721-1.72z"/></mask></defs><path d="M16 4.656l-1.722-1.721L16 1.214 14.789.001l-1.723 1.721L11.344.001l-1.212 1.212 1.722 1.721-1.724 1.722 1.215 1.214 1.722-1.723 1.722 1.723z" fill="#cb1800"/><g mask="url(#a)"><path d="M11.985 3.584H2.119A2.125 2.125 0 0 0 0 5.703v5.503c0 1.166.953 2.119 2.119 2.119h.988c.023.76-.201 1.758-1.224 2.674 2.905-.451 4.517-2.537 4.621-2.674h5.481a2.125 2.125 0 0 0 2.119-2.119V5.703a2.125 2.125 0 0 0-2.119-2.119zm-.404 6.188h-8.93V8.528h8.93v1.244zm0-2.578h-8.93V5.948h8.93v1.246zm2.305-5.506H4.019c-.829 0-1.542.487-1.891 1.183.287-.145.604-.232.946-.232h9.867c1.165 0 2.119.952 2.119 2.117v5.505c0 .335-.087.649-.226.933a2.115 2.115 0 0 0 1.171-1.883V3.807a2.125 2.125 0 0 0-2.119-2.119z"/></g></svg>