<svg width="16" height="16" xmlns="http://www.w3.org/2000/svg" viewBox="0 0 16 16" shape-rendering="geometricPrecision" fill="#24437c"><defs><mask id="a"><rect fill="#fff" width="100%" height="100%"/><path fill="#000" d="M17.414 1.215L14.79-1.414 13.066.308l-1.722-1.722-2.627 2.627 1.722 1.721-1.724 1.722 2.63 2.628 1.722-1.722 1.722 1.723 2.625-2.63-1.721-1.72z"/></mask></defs><path d="M16 4.656l-1.722-1.721L16 1.214 14.789.001l-1.723 1.721L11.344.001l-1.212 1.212 1.722 1.721-1.724 1.722 1.215 1.214 1.722-1.723 1.722 1.723z" fill="#cb1800"/><g mask="url(#a)"><path d="M13.658 5.408h-3.342c-1.136.001-1.853.64-2.163 1.518h5.392v.002l.008-.002c.27 0 .482.479.482 1.066 0 .588-.213 1.064-.482 1.064H8.146c.307.888 1.026 1.535 2.171 1.535h3.342C15.223 10.592 16 9.385 16 8c.002-1.385-.775-2.592-2.342-2.592zM2.454 9.074v-.002l-.006.002c-.268 0-.484-.479-.484-1.066 0-.588.217-1.064.484-1.064h5.406c-.308-.888-1.026-1.536-2.17-1.536H2.342C.78 5.408 0 6.615 0 8c-.002 1.385.777 2.592 2.342 2.592h3.342c1.135-.001 1.852-.64 2.162-1.518H2.454z"/><path d="M11.162 7.201H4.85c-.498 0-.902.36-.902.799 0 .439.404.797.902.797h6.312c.498 0 .9-.357.9-.797 0-.439-.402-.799-.9-.799z"/></g></svg>