<svg width="16" height="16" xmlns="http://www.w3.org/2000/svg" viewBox="0 0 16 16" shape-rendering="geometricPrecision" fill="#24437c"><defs><mask id="a"><rect fill="#fff" width="100%" height="100%"/><path fill="#000" d="M17.414 1.215L14.79-1.414 13.066.308l-1.722-1.722-2.627 2.627 1.722 1.721-1.724 1.722 2.63 2.628 1.722-1.722 1.722 1.723 2.625-2.63-1.721-1.72z"/></mask></defs><path d="M16 4.656l-1.722-1.721L16 1.214 14.789.001l-1.723 1.721L11.344.001l-1.212 1.212 1.722 1.721-1.724 1.722 1.215 1.214 1.722-1.723 1.722 1.723z" fill="#cb1800"/><g mask="url(#a)"><path d="M10.128 6.094c-.864-.014-1.742-.014-2.921 0-1.18.013-1.701.356-1.866.932S4.367 10.4 4.367 10.4H5.78L6.562 8s2.757-.014 4.032-.014 1.193-.411 1.221-1.001-.823-.878-1.687-.891zm.809.946c-.055.288-.192.439-.85.425-.658-.014-3.429 0-3.429 0s.027-.206.11-.48c.082-.274.247-.37 1.015-.37s1.783.027 2.345.027c.562 0 .864.11.809.398z"/><path d="M8.001 1.79a6.212 6.212 0 0 0 0 12.421 6.21 6.21 0 0 0 0-12.421zm0 11.163a4.961 4.961 0 0 1-4.955-4.951 4.962 4.962 0 0 1 4.955-4.956 4.96 4.96 0 0 1 4.953 4.956 4.959 4.959 0 0 1-4.953 4.951z"/></g></svg>