<svg width="16" height="16" xmlns="http://www.w3.org/2000/svg" viewBox="0 0 16 16" shape-rendering="geometricPrecision" fill="#24437c"><defs><mask id="a"><rect fill="#fff" width="100%" height="100%"/><path fill="#000" d="M17.414 1.215L14.79-1.414 13.066.308l-1.722-1.722-2.627 2.627 1.722 1.721-1.724 1.722 2.63 2.628 1.722-1.722 1.722 1.723 2.625-2.63-1.721-1.72z"/></mask></defs><path d="M16 4.656l-1.722-1.721L16 1.214 14.789.001l-1.723 1.721L11.344.001l-1.212 1.212 1.722 1.721-1.724 1.722 1.215 1.214 1.722-1.723 1.722 1.723z" fill="#cb1800"/><g mask="url(#a)"><path d="M1.021 1.02v2.617c3.137 0 5.964 1.267 8.021 3.32a11.31 11.31 0 0 1 3.321 8.021h2.617C14.978 7.27 8.73 1.022 1.021 1.02zm0 4.709v2.613a6.647 6.647 0 0 1 6.635 6.637h2.616a9.251 9.251 0 0 0-9.251-9.25zM2.9 11.222a1.88 1.88 0 1 0 .001 3.757 1.88 1.88 0 0 0-.001-3.757z"/></g></svg>