<?xml version="1.0"?><!DOCTYPE svg PUBLIC "-//W3C//DTD SVG 1.1//EN" "http://www.w3.org/Graphics/SVG/1.1/DTD/svg11.dtd"><svg width="16px" height="16px" xmlns="http://www.w3.org/2000/svg" viewBox="0 0 16 16" shape-rendering="geometricPrecision" fill="#fff"><defs><mask id="visibility-invisible-path"><rect fill="#fff" width="100%" height="100%"/><path d="M12.997,0.858c-1.845,0-3.446,1.039-4.253,2.563c0.808,1.523,2.408,2.562,4.253,2.562 c1.844,0,3.444-1.039,4.253-2.562C16.441,1.897,14.841,0.858,12.997,0.858z" fill="#000"/></mask></defs><g id="visibility-invisible" display="inline" fill="#cb1800"><g><g><path d="M12.997,1.611c-1.303,0-2.433,0.733-3.003,1.81c0.57,1.075,1.7,1.809,3.003,1.809c1.302,0,2.432-0.733,3.003-1.809 C15.429,2.345,14.299,1.611,12.997,1.611z M12.996,5.007c-0.876,0-1.587-0.71-1.587-1.586c0-0.877,0.711-1.588,1.587-1.588 c0.877,0,1.588,0.711,1.588,1.588C14.584,4.297,13.873,5.007,12.996,5.007z"/></g></g></g><g mask="url(#visibility-invisible-path)"><g><path d="M11.246,9.283c1.382,0,2.497-1.115,2.497-2.495c0-1.378-1.114-2.494-2.497-2.494c-1.377,0-2.496,1.116-2.496,2.494 C8.75,8.168,9.869,9.283,11.246,9.283z M0.005,12.873V16h5.081v-3.128c0.002-0.914,0.335-1.743,0.869-2.403H2.403 C1.081,10.469,0.005,11.551,0.005,12.873z M13.564,10.469H8.919c-1.323,0-2.398,1.082-2.398,2.404V16h9.45v-3.127 C15.971,11.551,14.887,10.469,13.564,10.469z M4.729,4.294c-1.377,0-2.495,1.116-2.495,2.494c0,1.38,1.118,2.495,2.495,2.495 c1.381,0,2.496-1.115,2.496-2.495C7.225,5.41,6.111,4.294,4.729,4.294z"/></g></g></svg>