<svg width="16" height="16" xmlns="http://www.w3.org/2000/svg" viewBox="0 0 16 16" shape-rendering="geometricPrecision" fill="#fff"><defs><mask id="a"><rect width="100%" height="100%"/><path d="M12.997.858a4.809 4.809 0 0 0-4.253 2.563 4.81 4.81 0 0 0 8.506 0A4.812 4.812 0 0 0 12.997.858z" fill="#000"/></mask></defs><path d="M12.997 1.611a3.394 3.394 0 0 0-3.003 1.81 3.397 3.397 0 0 0 6.006 0 3.398 3.398 0 0 0-3.003-1.81zm-.001 3.396a1.587 1.587 0 1 1 0-3.174 1.587 1.587 0 0 1 0 3.174z" fill="#cb1800"/><g mask="url(#a)"><path d="M5.295 3.818V7.67L2.909 9.058l.944 1.653 3.328-1.932h.02l-.003-4.961z"/><path d="M9.791 1.79h-3.58a6.211 6.211 0 0 0 0 12.421h3.58a6.21 6.21 0 0 0 0-12.421zM1.256 8.003a4.962 4.962 0 0 1 4.955-4.956 4.96 4.96 0 0 1 4.953 4.956 4.96 4.96 0 0 1-4.953 4.951 4.962 4.962 0 0 1-4.955-4.951z"/></g></svg>