<svg width="16" height="16" xmlns="http://www.w3.org/2000/svg" viewBox="0 0 16 16" shape-rendering="geometricPrecision" fill="#fff"><defs><mask id="a"><rect width="100%" height="100%"/><path d="M12.997.858a4.809 4.809 0 0 0-4.253 2.563 4.81 4.81 0 0 0 8.506 0A4.812 4.812 0 0 0 12.997.858z" fill="#000"/></mask></defs><path d="M12.997 1.611a3.394 3.394 0 0 0-3.003 1.81 3.397 3.397 0 0 0 6.006 0 3.398 3.398 0 0 0-3.003-1.81zm-.001 3.396a1.587 1.587 0 1 1 0-3.174 1.587 1.587 0 0 1 0 3.174z" fill="#cb1800"/><g mask="url(#a)"><path d="M10.021 15.177l3.437-3.165h-3.437z"/><path d="M2.02 0v16h7.021v-4.905h4.941V0H2.02zM13 9.97H8v5H3.083v-14H13v9z"/><path d="M6.999 2.97h1v1h-1zm1 1h1v1h-1z"/><path d="M6.999 4.97h1v1h-1zm1 1h1v1h-1zm-1 1h1v1h-1zm1 1h1v1h-1zm-1 1h1v1h-1zm0 2h1v1h-1zm0 2h1v1h-1zM6.975 0h2.024v1.97H6.975z"/><path d="M7.583 4.414l.634-1.663a.873.873 0 0 0-.365-1.056.87.87 0 0 0-1.104.177h-.001L5.579 3.215l.001.001a1.188 1.188 0 0 0 .286 1.795 1.187 1.187 0 0 0 1.717-.597zm-.426-1.559a.482.482 0 0 1 .493-.825.48.48 0 1 1-.493.825z"/><path d="M7.999 1.97h1v1h-1z"/></g></svg>