<svg width="16" height="16" xmlns="http://www.w3.org/2000/svg" viewBox="0 0 16 16" shape-rendering="geometricPrecision" fill="#fff"><defs><mask id="a"><rect width="100%" height="100%"/><path d="M12.997.858a4.809 4.809 0 0 0-4.253 2.563 4.81 4.81 0 0 0 8.506 0A4.812 4.812 0 0 0 12.997.858z" fill="#000"/></mask></defs><path d="M12.997 1.611a3.394 3.394 0 0 0-3.003 1.81 3.397 3.397 0 0 0 6.006 0 3.398 3.398 0 0 0-3.003-1.81zm-.001 3.396a1.587 1.587 0 1 1 0-3.174 1.587 1.587 0 0 1 0 3.174z" fill="#cb1800"/><g mask="url(#a)"><path d="M8 5.495a3 3 0 1 0 .002 6.002A3 3 0 0 0 8 5.495zm0 5.394a2.397 2.397 0 0 1-2.393-2.392A2.398 2.398 0 0 1 8 6.102a2.398 2.398 0 0 1 2.393 2.394A2.396 2.396 0 0 1 8 10.889z"/><path d="M7.558 6.475v1.861l-1.153.671.456.798 1.608-.933h.01l-.001-2.397z"/><path d="M6.799 3.47L6.5 1.979h-4L2.2 3.47H.999v10h14v-10h-8.2zm7.201 9H2v-8h12v8z"/></g></svg>