<svg width="16" height="16" xmlns="http://www.w3.org/2000/svg" viewBox="0 0 16 16" shape-rendering="geometricPrecision" fill="#fff"><defs><mask id="a"><rect width="100%" height="100%"/><path d="M12.997.858a4.809 4.809 0 0 0-4.253 2.563 4.81 4.81 0 0 0 8.506 0A4.812 4.812 0 0 0 12.997.858z" fill="#000"/></mask></defs><path d="M12.997 1.611a3.394 3.394 0 0 0-3.003 1.81 3.397 3.397 0 0 0 6.006 0 3.398 3.398 0 0 0-3.003-1.81zm-.001 3.396a1.587 1.587 0 1 1 0-3.174 1.587 1.587 0 0 1 0 3.174z" fill="#cb1800"/><g mask="url(#a)"><path d="M8.182 3.179l-.815-1.923h-3.78L2.77 3.179H1.649l.001.949 13.327-.009.018 9.283.933-.978V3.179z"/><path d="M.072 4.756V14h14.279V4.756H.072zm13.178 8.173H1.041v-7H13.25v7z"/><g><path d="M7.032 6.987l-2.505 2.58h.409v2.437h1.376v-1.906h1.441v1.906H9.13V9.567h.408z"/></g></g></svg>