<svg width="16" height="16" xmlns="http://www.w3.org/2000/svg" viewBox="0 0 16 16" shape-rendering="geometricPrecision" fill="#fff"><defs><mask id="a"><rect width="100%" height="100%"/><path d="M12.997.858a4.809 4.809 0 0 0-4.253 2.563 4.81 4.81 0 0 0 8.506 0A4.812 4.812 0 0 0 12.997.858z" fill="#000"/></mask></defs><path d="M12.997 1.611a3.394 3.394 0 0 0-3.003 1.81 3.397 3.397 0 0 0 6.006 0 3.398 3.398 0 0 0-3.003-1.81zm-.001 3.396a1.587 1.587 0 1 1 0-3.174 1.587 1.587 0 0 1 0 3.174z" fill="#cb1800"/><g mask="url(#a)"><circle cx="3.535" cy="5.212" r="1.794"/><path d="M4.351 7.858H2.712c-.951 0-1.725.779-1.725 1.73v2.246H6.08V9.589a1.736 1.736 0 0 0-1.729-1.731z"/><circle cx="12.466" cy="7.338" r="1.794"/><path d="M13.282 9.983h-1.639a1.73 1.73 0 0 0-1.724 1.729v2.248h5.093v-2.248c0-.949-.779-1.729-1.73-1.729z"/><circle cx="7.505" cy="3.228" r="1.794"/><path d="M10.05 9.851V7.603c0-.949-.778-1.729-1.73-1.729H6.682c-.928 0-1.68.74-1.717 1.66a2.15 2.15 0 0 1 1.541 2.055v.262h3.544z"/></g></svg>