<svg width="16" height="16" xmlns="http://www.w3.org/2000/svg" viewBox="0 0 16 16" shape-rendering="geometricPrecision" fill="#fff"><defs><mask id="a"><rect width="100%" height="100%"/><path d="M12.997.858a4.809 4.809 0 0 0-4.253 2.563 4.81 4.81 0 0 0 8.506 0A4.812 4.812 0 0 0 12.997.858z" fill="#000"/></mask></defs><path d="M12.997 1.611a3.394 3.394 0 0 0-3.003 1.81 3.397 3.397 0 0 0 6.006 0 3.398 3.398 0 0 0-3.003-1.81zm-.001 3.396a1.587 1.587 0 1 1 0-3.174 1.587 1.587 0 0 1 0 3.174z" fill="#cb1800"/><g mask="url(#a)"><path d="M7.271 8.729H1.03v.001a6.242 6.242 0 0 0 6.238 6.239h.002v-6.24z"/><path d="M8.83.928a6.24 6.24 0 0 0-6.238 6.236H4.45a4.382 4.382 0 1 1 4.384 4.384v1.857a6.241 6.241 0 0 0 6.235-6.24A6.24 6.24 0 0 0 8.83.928zm2.344 6.237a2.343 2.343 0 0 0-4.686-.001h2.346v2.345a2.345 2.345 0 0 0 2.34-2.344z"/></g></svg>