<svg width="16" height="16" xmlns="http://www.w3.org/2000/svg" viewBox="0 0 16 16" shape-rendering="geometricPrecision" fill="#fff"><defs><mask id="a"><rect width="100%" height="100%"/><path d="M12.997.858a4.809 4.809 0 0 0-4.253 2.563 4.81 4.81 0 0 0 8.506 0A4.812 4.812 0 0 0 12.997.858z" fill="#000"/></mask></defs><path d="M12.997 1.611a3.394 3.394 0 0 0-3.003 1.81 3.397 3.397 0 0 0 6.006 0 3.398 3.398 0 0 0-3.003-1.81zm-.001 3.396a1.587 1.587 0 1 1 0-3.174 1.587 1.587 0 0 1 0 3.174z" fill="#cb1800"/><g mask="url(#a)"><path d="M8.291 3.837H6.674v3.414h1.711c.636 0 1.125-.149 1.469-.449.344-.3.516-.728.516-1.285-.001-1.12-.693-1.68-2.079-1.68z"/><path d="M8 0a8 8 0 1 0 0 16A8 8 0 0 0 8 0zm3.51 7.243a2.724 2.724 0 0 1-1.305 1.066c-.552.222-1.344.333-2.375.333H6.674v4.734h-1.57V2.446h3.461c1.042 0 1.872.281 2.492.844s.93 1.317.93 2.266c-.001.635-.16 1.198-.477 1.687z"/></g></svg>