<svg width="16" height="16" xmlns="http://www.w3.org/2000/svg" viewBox="0 0 16 16" shape-rendering="geometricPrecision" fill="#fff"><defs><mask id="a"><rect width="100%" height="100%"/><path d="M12.997.858a4.809 4.809 0 0 0-4.253 2.563 4.81 4.81 0 0 0 8.506 0A4.812 4.812 0 0 0 12.997.858z" fill="#000"/></mask></defs><path d="M12.997 1.611a3.394 3.394 0 0 0-3.003 1.81 3.397 3.397 0 0 0 6.006 0 3.398 3.398 0 0 0-3.003-1.81zm-.001 3.396a1.587 1.587 0 1 1 0-3.174 1.587 1.587 0 0 1 0 3.174z" fill="#cb1800"/><g mask="url(#a)"><path d="M7.468 11.335c-1.04 0-1.782.742-1.782 1.824 0 1.041.722 1.822 1.763 1.822h.02c1.083 0 1.805-.781 1.805-1.822-.021-1.082-.723-1.824-1.806-1.824zm.281-10.317c-1.422 0-2.604.4-3.345.822l.681 2.182c.52-.359 1.322-.6 1.983-.6 1.002.041 1.463.5 1.463 1.203 0 .68-.521 1.32-1.162 2.102-.901 1.063-1.242 2.106-1.181 3.126l.02.521h2.664v-.361c-.02-.9.281-1.682 1.021-2.504.762-.84 1.702-1.842 1.702-3.365 0-1.663-1.2-3.126-3.846-3.126z"/></g></svg>