<svg width="16" height="16" xmlns="http://www.w3.org/2000/svg" viewBox="0 0 16 16" shape-rendering="geometricPrecision" fill="#fff"><defs><mask id="a"><rect width="100%" height="100%"/><path d="M12.997.858a4.809 4.809 0 0 0-4.253 2.563 4.81 4.81 0 0 0 8.506 0A4.812 4.812 0 0 0 12.997.858z" fill="#000"/></mask></defs><path d="M12.997 1.611a3.394 3.394 0 0 0-3.003 1.81 3.397 3.397 0 0 0 6.006 0 3.398 3.398 0 0 0-3.003-1.81zm-.001 3.396a1.587 1.587 0 1 1 0-3.174 1.587 1.587 0 0 1 0 3.174z" fill="#cb1800"/><path d="M15.432 12.94l-3.595-3.593-.356-.356c1.227-2.3.901-5.215-1.039-7.157a6.09 6.09 0 0 0-8.609.003 6.085 6.085 0 0 0 .002 8.605c1.939 1.939 4.855 2.267 7.158 1.037l3.952 3.952a1.757 1.757 0 0 0 2.486 0c.69-.687.69-1.8.001-2.491zM3.104 9.17a4.286 4.286 0 0 1 .001-6.062 4.285 4.285 0 0 1 6.064-.005A4.29 4.29 0 0 1 3.104 9.17z" mask="url(#a)"/></svg>