<?xml version="1.0"?><!DOCTYPE svg PUBLIC "-//W3C//DTD SVG 1.1//EN" "http://www.w3.org/Graphics/SVG/1.1/DTD/svg11.dtd"><svg width="16px" height="16px" xmlns="http://www.w3.org/2000/svg" viewBox="0 0 16 16" shape-rendering="geometricPrecision" fill="#fff"><defs><mask id="visibility-invisible-path"><rect fill="#fff" width="100%" height="100%"/><path d="M12.997,0.858c-1.845,0-3.446,1.039-4.253,2.563c0.808,1.523,2.408,2.562,4.253,2.562 c1.844,0,3.444-1.039,4.253-2.562C16.441,1.897,14.841,0.858,12.997,0.858z" fill="#000"/></mask></defs><g id="visibility-invisible" display="inline" fill="#cb1800"><g><g><path d="M12.997,1.611c-1.303,0-2.433,0.733-3.003,1.81c0.57,1.075,1.7,1.809,3.003,1.809c1.302,0,2.432-0.733,3.003-1.809 C15.429,2.345,14.299,1.611,12.997,1.611z M12.996,5.007c-0.876,0-1.587-0.71-1.587-1.586c0-0.877,0.711-1.588,1.587-1.588 c0.877,0,1.588,0.711,1.588,1.588C14.584,4.297,13.873,5.007,12.996,5.007z"/></g></g></g><g mask="url(#visibility-invisible-path)"><path d="M15.432,12.94l-3.595-3.593l-0.356-0.356c1.227-2.3,0.901-5.215-1.039-7.157 C8.064-0.54,4.211-0.54,1.833,1.837c-2.376,2.378-2.374,6.229,0.002,8.605c1.939,1.939,4.855,2.267,7.158,1.037l3.952,3.952 c0.686,0.687,1.801,0.687,2.486,0C16.121,14.744,16.121,13.631,15.432,12.94z M3.104,9.17C1.432,7.497,1.428,4.78,3.105,3.108 c1.674-1.68,4.388-1.677,6.064-0.005c1.676,1.677,1.674,4.391,0,6.066C7.493,10.845,4.778,10.845,3.104,9.17z"/></g></svg>