<?xml version="1.0"?><!DOCTYPE svg PUBLIC "-//W3C//DTD SVG 1.1//EN" "http://www.w3.org/Graphics/SVG/1.1/DTD/svg11.dtd"><svg width="16px" height="16px" xmlns="http://www.w3.org/2000/svg" viewBox="0 0 16 16" shape-rendering="geometricPrecision" fill="#fff"><defs><mask id="visibility-invisible-path"><rect fill="#fff" width="100%" height="100%"/><path d="M12.997,0.858c-1.845,0-3.446,1.039-4.253,2.563c0.808,1.523,2.408,2.562,4.253,2.562 c1.844,0,3.444-1.039,4.253-2.562C16.441,1.897,14.841,0.858,12.997,0.858z" fill="#000"/></mask></defs><g id="visibility-invisible" display="inline" fill="#cb1800"><g><g><path d="M12.997,1.611c-1.303,0-2.433,0.733-3.003,1.81c0.57,1.075,1.7,1.809,3.003,1.809c1.302,0,2.432-0.733,3.003-1.809 C15.429,2.345,14.299,1.611,12.997,1.611z M12.996,5.007c-0.876,0-1.587-0.71-1.587-1.586c0-0.877,0.711-1.588,1.587-1.588 c0.877,0,1.588,0.711,1.588,1.588C14.584,4.297,13.873,5.007,12.996,5.007z"/></g></g></g><g mask="url(#visibility-invisible-path)"><g><path d="M14.939,10.55c-0.201-0.565-0.822-0.86-1.387-0.659l-2.979,1.022L6.579,9.291l2.546-0.34 c0.584-0.074,0.998-0.606,0.924-1.19c-0.074-0.584-0.606-0.998-1.19-0.925L3.063,7.567C2.9,7.588,2.753,7.648,2.623,7.731 c-0.16,0.064-0.296,0.192-0.361,0.366L2.209,8.238c-0.014,0.035-0.03,0.069-0.04,0.106l-1.131,3.018 c-0.071,0.19-0.044,0.391,0.054,0.552c0.264,0.58,1.506,1.4,2.652,1.829l2.754,0.513c0.192,0.031,0.363,0.04,0.538,0.03 c0.171,0.026,0.349,0.016,0.524-0.046l0.448-0.154c0.116-0.035,0.239-0.073,0.376-0.116c1.504-0.48,3.181-1.067,3.81-1.314 c0.008-0.003,0.012-0.008,0.019-0.011l2.067-0.709C14.845,11.736,15.14,11.115,14.939,10.55z"/><path d="M8.568,1.699c-2.545,0-4.608,2.063-4.608,4.608c0,0.181,0.013,0.358,0.033,0.534l0.925-0.117 C4.899,6.573,4.886,6.42,4.886,6.263c0-2.034,1.649-3.684,3.684-3.684c2.034,0,3.684,1.649,3.684,3.684 c0,1.594-1.015,2.948-2.432,3.461l0.83,0.522l0.62-0.213c1.152-0.838,1.905-2.192,1.905-3.726 C13.176,3.762,11.113,1.699,8.568,1.699z"/></g></g></svg>