<?xml version="1.0"?><!DOCTYPE svg PUBLIC "-//W3C//DTD SVG 1.1//EN" "http://www.w3.org/Graphics/SVG/1.1/DTD/svg11.dtd"><svg width="16px" height="16px" xmlns="http://www.w3.org/2000/svg" viewBox="0 0 16 16" shape-rendering="geometricPrecision" fill="#fff"><defs><mask id="visibility-invisible-path"><rect fill="#fff" width="100%" height="100%"/><path d="M12.997,0.858c-1.845,0-3.446,1.039-4.253,2.563c0.808,1.523,2.408,2.562,4.253,2.562 c1.844,0,3.444-1.039,4.253-2.562C16.441,1.897,14.841,0.858,12.997,0.858z" fill="#000"/></mask></defs><g id="visibility-invisible" display="inline" fill="#cb1800"><g><g><path d="M12.997,1.611c-1.303,0-2.433,0.733-3.003,1.81c0.57,1.075,1.7,1.809,3.003,1.809c1.302,0,2.432-0.733,3.003-1.809 C15.429,2.345,14.299,1.611,12.997,1.611z M12.996,5.007c-0.876,0-1.587-0.71-1.587-1.586c0-0.877,0.711-1.588,1.587-1.588 c0.877,0,1.588,0.711,1.588,1.588C14.584,4.297,13.873,5.007,12.996,5.007z"/></g></g></g><g mask="url(#visibility-invisible-path)"><g><path d="M8,5.2c1.547,0,2.8,1.254,2.8,2.802c0,1.537-1.24,2.783-2.776,2.796v1.401c2.309-0.013,4.177-1.888,4.177-4.197 c0-2.321-1.88-4.201-4.201-4.201s-4.201,1.88-4.201,4.201c0,0.002,0,0.006,0,0.009h1.4c0-0.003-0.001-0.007-0.001-0.009 C5.199,6.454,6.453,5.2,8,5.2z M8,0.998c-3.867,0-7.001,3.135-7.001,7.004c0,0.002,0,0.006,0,0.009h1.401 c0-0.003,0-0.007,0-0.009c0-3.095,2.507-5.603,5.601-5.603c3.093,0,5.601,2.508,5.601,5.603c0,3.083-2.495,5.586-5.577,5.599 v1.401c3.855-0.014,6.978-3.143,6.978-7C15.002,4.133,11.867,0.998,8,0.998z"/><circle cx="4.599" cy="11.22" r="2.105"/></g></g></svg>