<?xml version="1.0"?><!DOCTYPE svg PUBLIC "-//W3C//DTD SVG 1.1//EN" "http://www.w3.org/Graphics/SVG/1.1/DTD/svg11.dtd"><svg width="16px" height="16px" xmlns="http://www.w3.org/2000/svg" viewBox="0 0 16 16" shape-rendering="geometricPrecision" fill="#fff"><defs><mask id="visibility-invisible-path"><rect fill="#fff" width="100%" height="100%"/><path d="M12.997,0.858c-1.845,0-3.446,1.039-4.253,2.563c0.808,1.523,2.408,2.562,4.253,2.562 c1.844,0,3.444-1.039,4.253-2.562C16.441,1.897,14.841,0.858,12.997,0.858z" fill="#000"/></mask></defs><g id="visibility-invisible" display="inline" fill="#cb1800"><g><g><path d="M12.997,1.611c-1.303,0-2.433,0.733-3.003,1.81c0.57,1.075,1.7,1.809,3.003,1.809c1.302,0,2.432-0.733,3.003-1.809 C15.429,2.345,14.299,1.611,12.997,1.611z M12.996,5.007c-0.876,0-1.587-0.71-1.587-1.586c0-0.877,0.711-1.588,1.587-1.588 c0.877,0,1.588,0.711,1.588,1.588C14.584,4.297,13.873,5.007,12.996,5.007z"/></g></g></g><path mask="url(#visibility-invisible-path)" d="M8.001,1.042c-3.844,0-6.959,3.115-6.959,6.961c0,3.841,3.116,6.954,6.959,6.955 c3.843-0.001,6.956-3.114,6.958-6.955C14.958,4.157,11.844,1.042,8.001,1.042z M11.606,7.918c0,0.354-0.065,0.69-0.159,1.014h2.018 c-0.133,0.778-0.423,1.502-0.842,2.134l-1.449-1.449c-0.331,0.634-0.836,1.153-1.458,1.502l1.44,1.44 c-0.633,0.439-1.361,0.749-2.147,0.895v-2.032c-0.346,0.107-0.706,0.182-1.087,0.182c-0.352,0-0.684-0.064-1.006-0.156v1.996 c-0.776-0.155-1.493-0.474-2.116-0.915l1.38-1.38c-0.627-0.34-1.141-0.852-1.481-1.479L3.35,11.019 c-0.405-0.621-0.686-1.328-0.815-2.088h1.863C4.304,8.608,4.239,8.272,4.239,7.918c0-0.378,0.074-0.736,0.179-1.079H2.576 C2.732,6.11,3.031,5.436,3.442,4.844l1.281,1.28c0.349-0.621,0.869-1.126,1.501-1.457l-1.29-1.29 c0.591-0.392,1.261-0.675,1.982-0.818v1.832c0.322-0.092,0.654-0.156,1.006-0.156c0.381,0,0.741,0.075,1.087,0.182V2.547 c0.73,0.135,1.41,0.412,2.01,0.803L9.673,4.695c0.627,0.342,1.138,0.854,1.478,1.481l1.376-1.376 c0.426,0.602,0.737,1.291,0.897,2.038h-1.997C11.533,7.182,11.606,7.54,11.606,7.918z"/></svg>