<svg width="16" height="16" xmlns="http://www.w3.org/2000/svg" viewBox="0 0 16 16" shape-rendering="geometricPrecision" fill="#00962d"><defs><mask id="a"><rect fill="#fff" width="100%" height="100%"/><path fill="#000" d="M14.258-1.414l-3.229 3.227-1.69-1.69-2.74 2.743 4.432 4.433L17 1.329z"/></mask></defs><path fill="#cb1800" d="M15.586 1.33L14.258 0l-3.229 3.228L9.34 1.539 8.013 2.867l3.018 3.019z"/><g mask="url(#a)"><path d="M12.694 4.022c-.014 0-.026.005-.04.006v-.729c0-.716-.581-1.296-1.297-1.296H4.629c-.716 0-1.297.58-1.297 1.296v.727c-.009 0-.017-.004-.026-.004-.254 0-.459.152-.459.339V5.56c0 .188.206.339.459.339.009 0 .017-.003.026-.004v7.157h.002v.946h1.4v-.946h6.519v.946h1.4v-1.77h-.007V7.825c.001-.022.007-.042.007-.064V5.894c.015.001.027.006.041.006.254 0 .459-.152.459-.339V4.362c0-.188-.206-.34-.459-.34zm-7.18 7.81h-.555a.647.647 0 0 1 0-1.294h.555a.647.647 0 0 1 0 1.294zm5.357 0h-.555a.647.647 0 0 1 0-1.294h.555a.647.647 0 1 1 0 1.294zm.934-3.935c0 .646-.49 1.169-1.093 1.169H5.275c-.604 0-1.093-.523-1.093-1.169V4.104c0-.646.49-1.169 1.093-1.169h5.437c.604 0 1.093.523 1.093 1.169v3.793z"/></g></svg>