<svg width="16" height="16" xmlns="http://www.w3.org/2000/svg" viewBox="0 0 16 16" shape-rendering="geometricPrecision" fill="#00962d"><defs><mask id="a"><rect fill="#fff" width="100%" height="100%"/><path fill="#000" d="M14.258-1.414l-3.229 3.227-1.69-1.69-2.74 2.743 4.432 4.433L17 1.329z"/></mask></defs><path fill="#cb1800" d="M15.586 1.33L14.258 0l-3.229 3.228L9.34 1.539 8.013 2.867l3.018 3.019z"/><path d="M5.971 12.849l1.54-.579-1.133-1.008-.407 1.587zm4.751-7.577V2.403H-.001V15.94h10.723V9.75l3.569-4.011-2.221-1.982-1.348 1.515zM9.618 6.514L6.74 9.748l2.221 1.983.657-.739v3.843H1.1V3.505h8.518v3.009zm5.884-4.373a1.488 1.488 0 0 0-2.096.113l-.792.889 2.222 1.985.796-.893-.002-.001a1.49 1.49 0 0 0-.128-2.093zM6.456 7.633H2.533v1.103h3.923V7.633zM4.863 5.291h-2.33v1.102h2.33V5.291z" mask="url(#a)"/></svg>