<svg width="16" height="16" xmlns="http://www.w3.org/2000/svg" viewBox="0 0 16 16" shape-rendering="geometricPrecision" fill="#00962d"><defs><mask id="a"><rect fill="#fff" width="100%" height="100%"/><path fill="#000" d="M14.258-1.414l-3.229 3.227-1.69-1.69-2.74 2.743 4.432 4.433L17 1.329z"/></mask></defs><path fill="#cb1800" d="M15.586 1.33L14.258 0l-3.229 3.228L9.34 1.539 8.013 2.867l3.018 3.019z"/><path mask="url(#a)" d="M10.28 0L8.324 1.954l2.182 2.183h-.623l-.416.021C4.211 4.38 0 8.712 0 14.02v.63h2.994v-.63c0-1.839.717-3.569 2.017-4.872A6.85 6.85 0 0 1 9.884 7.13h.629v-.001h.167L8.324 9.487l1.954 1.953L16 5.717 10.28 0z"/></svg>