<svg width="16" height="16" xmlns="http://www.w3.org/2000/svg" viewBox="0 0 16 16" shape-rendering="geometricPrecision" fill="#00962d"><defs><mask id="a"><rect fill="#fff" width="100%" height="100%"/><path fill="#000" d="M14.258-1.414l-3.229 3.227-1.69-1.69-2.74 2.743 4.432 4.433L17 1.329z"/></mask></defs><path fill="#cb1800" d="M15.586 1.33L14.258 0l-3.229 3.228L9.34 1.539 8.013 2.867l3.018 3.019z"/><path d="M14.625 6.406c-.281-.844-3.277.058-5.172.453-.673.141.552-1.619 1.235-2.89.398-.742-.031-1-2.375-1.031C5.969 2.906 1.489 4.244 1.062 7.5c-.438 3.344 2.625 6.031 7.594 5.344 5.95-.823 6.164-5.853 5.969-6.438zm-12.109.453a.922.922 0 1 1 1.845 0 .922.922 0 0 1-1.845 0zm1.375 4.004a1.03 1.03 0 1 1 0-2.062 1.03 1.03 0 0 1 0 2.062zm1.031-5.832a.75.75 0 1 1 1.5 0 .75.75 0 0 1-1.5 0zm2.328 6.998a1.174 1.174 0 1 1-.267-2.334 1.174 1.174 0 0 1 .267 2.334zm3.246-.563a1.174 1.174 0 1 1-.267-2.334 1.174 1.174 0 0 1 .267 2.334zm2.146-2.242a.803.803 0 1 1-.18-1.596.803.803 0 0 1 .18 1.596z" mask="url(#a)"/></svg>