<svg width="16" height="16" xmlns="http://www.w3.org/2000/svg" viewBox="0 0 16 16" shape-rendering="geometricPrecision" fill="#00962d"><defs><mask id="a"><rect fill="#fff" width="100%" height="100%"/><path fill="#000" d="M14.258-1.414l-3.229 3.227-1.69-1.69-2.74 2.743 4.432 4.433L17 1.329z"/></mask></defs><path fill="#cb1800" d="M15.586 1.33L14.258 0l-3.229 3.228L9.34 1.539 8.013 2.867l3.018 3.019z"/><g mask="url(#a)"><path d="M1.001 8.003a7 7 0 0 1 7-7.002v1.416a5.593 5.593 0 0 0-5.584 5.586 5.592 5.592 0 0 0 5.584 5.58 5.591 5.591 0 0 0 5.583-5.58 5.592 5.592 0 0 0-5.583-5.586V1.001a7 7 0 0 1 0 13.998 7 7 0 0 1-7-6.996z"/><path d="M8.463 8.001l-2.921 2.922 1.517 1.514 4.438-4.44L7.06 3.563 5.542 5.08z"/></g></svg>