<?xml version="1.0"?><!DOCTYPE svg PUBLIC "-//W3C//DTD SVG 1.1//EN" "http://www.w3.org/Graphics/SVG/1.1/DTD/svg11.dtd"><svg width="16px" height="16px" xmlns="http://www.w3.org/2000/svg" viewBox="0 0 16 16" shape-rendering="geometricPrecision" fill="#00962d"><defs><mask id="accept-path"><rect fill="#fff" width="100%" height="100%"/><polygon points="14.258,-1.414 11.029,1.813 9.339,0.123 6.599,2.866 11.031,7.299 17,1.329 " fill="#000"/></mask></defs><polygon points="15.586,1.33 14.258,0 11.029,3.228 9.34,1.539 8.013,2.867 11.031,5.886 " fill="#cb1800"/><g mask="url(#accept-path)"><g><g><circle cx="6.552" cy="4.044" r="2.94"/><path d="M9.366,13.378l-0.402-3.99l0.409-1c-0.03,0-0.059-0.008-0.089-0.008H3.811c-1.559,0-2.826,1.275-2.826,2.832v3.684 h11.133v-3.684c0-0.051-0.013-0.1-0.016-0.152L9.366,13.378z"/></g><path d="M14.929,2.831c0.247-0.633-0.059-1.35-0.69-1.598c-0.63-0.256-1.345,0.051-1.603,0.68l0,0l-0.368,0.918l2.292,0.92 l0.371-0.92H14.929z M9.813,12.276l1.039-0.887l-1.168-0.467L9.813,12.276z M9.541,9.642l2.291,0.92l2.477-6.182l-2.292-0.918 L9.541,9.642z"/></g></g></svg>