<svg width="16" height="16" xmlns="http://www.w3.org/2000/svg" viewBox="0 0 16 16" shape-rendering="geometricPrecision" fill="#00962d"><defs><mask id="a"><rect fill="#fff" width="100%" height="100%"/><path fill="#000" d="M14.258-1.414l-3.229 3.227-1.69-1.69-2.74 2.743 4.432 4.433L17 1.329z"/></mask></defs><path fill="#cb1800" d="M15.586 1.33L14.258 0l-3.229 3.228L9.34 1.539 8.013 2.867l3.018 3.019z"/><path mask="url(#a)" d="M9.985 2L8.271 3.713l1.912 1.914h-.546l-.364.018c-4.608.196-8.3 3.993-8.3 8.646v.553h2.624v-.553a6.01 6.01 0 0 1 1.768-4.271 6.008 6.008 0 0 1 4.272-1.768h.552V8.25h.147l-2.065 2.068 1.713 1.711L15 7.012 9.985 2z"/></svg>