<svg width="16" height="16" xmlns="http://www.w3.org/2000/svg" viewBox="0 0 16 16" shape-rendering="geometricPrecision" fill="#00962d"><defs><mask id="a"><rect fill="#fff" width="100%" height="100%"/><path fill="#000" d="M14.258-1.414l-3.229 3.227-1.69-1.69-2.74 2.743 4.432 4.433L17 1.329z"/></mask></defs><path fill="#cb1800" d="M15.586 1.33L14.258 0l-3.229 3.228L9.34 1.539 8.013 2.867l3.018 3.019z"/><g mask="url(#a)"><path d="M1.062 7.999a6.94 6.94 0 1 0 13.878 0 6.94 6.94 0 0 0-13.878 0zm12.472 0a5.543 5.543 0 0 1-5.531 5.536 5.544 5.544 0 0 1-5.537-5.536 5.543 5.543 0 0 1 5.537-5.534 5.54 5.54 0 0 1 5.531 5.534z"/><path d="M8 7.999H3.327a4.682 4.682 0 0 0 4.675 4.674 4.68 4.68 0 0 0 4.67-4.674 4.678 4.678 0 0 0-4.67-4.672h-.003v4.672z"/></g></svg>