<svg width="16" height="16" xmlns="http://www.w3.org/2000/svg" viewBox="0 0 16 16" shape-rendering="geometricPrecision" fill="#00962d"><defs><mask id="a"><rect fill="#fff" width="100%" height="100%"/><path fill="#000" d="M14.258-1.414l-3.229 3.227-1.69-1.69-2.74 2.743 4.432 4.433L17 1.329z"/></mask></defs><path fill="#cb1800" d="M15.586 1.33L14.258 0l-3.229 3.228L9.34 1.539 8.013 2.867l3.018 3.019z"/><path d="M1.034 2.913v10.174h13.932V2.913H1.034zm4.079 1.445a1.78 1.78 0 0 1 1.781 1.783c0 .986-.795 1.781-1.781 1.781a1.783 1.783 0 0 1 0-3.564zm3.03 7.686H2.084v-2.002c0-.848.69-1.541 1.538-1.541h2.979c.848 0 1.542.693 1.542 1.541v2.002zm5.225-4.139H9.075V6.847h4.293v1.058zm0-2.197H9.075V4.643h4.293v1.065z" mask="url(#a)"/></svg>