<?xml version="1.0"?><!DOCTYPE svg PUBLIC "-//W3C//DTD SVG 1.1//EN" "http://www.w3.org/Graphics/SVG/1.1/DTD/svg11.dtd"><svg width="16px" height="16px" xmlns="http://www.w3.org/2000/svg" viewBox="0 0 16 16" shape-rendering="geometricPrecision" fill="#24437c"><defs><mask id="visibility-invisible-path"><rect fill="#fff" width="100%" height="100%"/><path d="M12.997,0.858c-1.845,0-3.446,1.039-4.253,2.563c0.808,1.523,2.408,2.562,4.253,2.562 c1.844,0,3.444-1.039,4.253-2.562C16.441,1.897,14.841,0.858,12.997,0.858z" fill="#000"/></mask></defs><g id="visibility-invisible" display="inline" fill="#cb1800"><g><g><path d="M12.997,1.611c-1.303,0-2.433,0.733-3.003,1.81c0.57,1.075,1.7,1.809,3.003,1.809c1.302,0,2.432-0.733,3.003-1.809 C15.429,2.345,14.299,1.611,12.997,1.611z M12.996,5.007c-0.876,0-1.587-0.71-1.587-1.586c0-0.877,0.711-1.588,1.587-1.588 c0.877,0,1.588,0.711,1.588,1.588C14.584,4.297,13.873,5.007,12.996,5.007z"/></g></g></g><g mask="url(#visibility-invisible-path)"><polygon points="0,5.121 3.176,8.302 0,11.479 1.651,13.131 6.48,8.298 1.651,3.473"/><path d="M7.144,0.605v14.096h1.067V1.671l4.057,0.002l-2.67,0.764v13.562l6.399-1.831V1.674H16V0.605H7.144z M15,13.47l-4.4,1.282V3.188L15,1.906V13.47z"/></g></svg>