<?xml version="1.0"?><!DOCTYPE svg PUBLIC "-//W3C//DTD SVG 1.1//EN" "http://www.w3.org/Graphics/SVG/1.1/DTD/svg11.dtd"><svg width="16px" height="16px" xmlns="http://www.w3.org/2000/svg" viewBox="0 0 16 16" shape-rendering="geometricPrecision" fill="#24437c"><defs><mask id="visibility-invisible-path"><rect fill="#fff" width="100%" height="100%"/><path d="M12.997,0.858c-1.845,0-3.446,1.039-4.253,2.563c0.808,1.523,2.408,2.562,4.253,2.562 c1.844,0,3.444-1.039,4.253-2.562C16.441,1.897,14.841,0.858,12.997,0.858z" fill="#000"/></mask></defs><g id="visibility-invisible" display="inline" fill="#cb1800"><g><g><path d="M12.997,1.611c-1.303,0-2.433,0.733-3.003,1.81c0.57,1.075,1.7,1.809,3.003,1.809c1.302,0,2.432-0.733,3.003-1.809 C15.429,2.345,14.299,1.611,12.997,1.611z M12.996,5.007c-0.876,0-1.587-0.71-1.587-1.586c0-0.877,0.711-1.588,1.587-1.588 c0.877,0,1.588,0.711,1.588,1.588C14.584,4.297,13.873,5.007,12.996,5.007z"/></g></g></g><g mask="url(#visibility-invisible-path)"><g><path d="M15.387,12.386L11.35,8.347l-3.029,3.029l4.035,4.034c0.784,0.783,2.092,0.741,2.932-0.099 C16.124,14.476,16.167,13.163,15.387,12.386z"/><path d="M7.678,4.667c0.248-1.228-0.103-2.551-1.054-3.502C5.577,0.119,4.087-0.186,2.765,0.211l2.109,2.112L4.262,4.221 L2.296,4.9L0.188,2.788C-0.21,4.112,0.097,5.6,1.139,6.647c0.951,0.952,2.275,1.3,3.503,1.056L7.678,4.667z"/></g><g><polygon points="0.036,15.915 1.91,15.337 0.636,14.059"/><polygon points="1.176,12.288 3.672,14.803 13.784,4.738 11.287,2.223"/><path d="M15.484,0.551c-0.687-0.694-1.801-0.697-2.499-0.017l-1.008,1l2.497,2.517l1.011-1.003l-0.002-0.001 C16.17,2.357,16.174,1.239,15.484,0.551z"/></g></g></svg>