<svg width="16" height="16" xmlns="http://www.w3.org/2000/svg" viewBox="0 0 16 16" shape-rendering="geometricPrecision" fill="#6e6e6e"><defs><mask id="a"><rect fill="#fff" width="100%" height="100%"/><path fill="#000" d="M19.079 1.436h-4.914l-1.516-4.674-1.519 4.674H6.217l3.975 2.886-1.516 4.673 3.972-2.888 3.972 2.889-1.516-4.674z"/></mask></defs><path fill="#cb1800" d="M13.928 3.94L16 2.435h-2.561L12.648 0l-.791 2.435H9.295l2.072 1.505-.79 2.437 2.071-1.506 2.071 1.506z"/><path mask="url(#a)" d="M14.49 13.121L14.478 0H4.033c-1.376.003-2.498.619-2.52 1.987-.003.025-.003.529 0 .535v.003c0 .04.009.076.011.117h-.009v10.826A2.531 2.531 0 0 0 4.044 16h8.385l-.037-1.689-.01-11.345H4.033c-.496 0-1.68-.048-1.68-.979v-.094C2.404 1.008 3.537.841 4.033.841h9.593V13.12h.864zM7.678 4.504a2.147 2.147 0 1 1 0 4.294 2.148 2.148 0 1 1 0-4.294zM4.091 11.89a2.07 2.07 0 0 1 2.064-2.069h3c1.139 0 2.073.932 2.073 2.069v2.692H4.091V11.89z"/></svg>