<?xml version="1.0"?><!DOCTYPE svg PUBLIC "-//W3C//DTD SVG 1.1//EN" "http://www.w3.org/Graphics/SVG/1.1/DTD/svg11.dtd"><svg width="16px" height="16px" xmlns="http://www.w3.org/2000/svg" viewBox="0 0 16 16" shape-rendering="geometricPrecision" fill="#6e6e6e"><defs><mask id="new-path"><rect fill="#fff" width="100%" height="100%"/><polygon points="19.079,1.436 14.165,1.436 12.649,-3.238 11.13,1.436 6.217,1.436 10.192,4.322 8.676,8.995 12.648,6.107 16.62,8.996 15.104,4.322 " fill="#000"/></mask></defs><polygon points="13.928,3.94 16,2.435 13.439,2.435 12.648,0 11.857,2.435 9.295,2.435 11.367,3.94 10.577,6.377 12.648,4.871 14.719,6.377 " fill="#cb1800"/><g mask="url(#new-path)"><path d="M6.799,3.47L6.5,1.979h-4L2.2,3.47H0.999v10h14v-10H6.799z M14,12.47H2v-8h5h7V12.47z"/><g><circle cx="5.864" cy="7.27" r="0.858"/><path d="M6.255,8.536H5.471c-0.455,0-0.825,0.373-0.825,0.828v1.074h2.436V9.364C7.082,8.909,6.709,8.536,6.255,8.536z"/><circle cx="10.136" cy="8.287" r="0.858"/><path d="M10.526,9.552H9.743c-0.455,0-0.824,0.373-0.824,0.827v1.075h2.436v-1.075C11.354,9.925,10.981,9.552,10.526,9.552z"/><circle cx="7.763" cy="6.321" r="0.858"/><path d="M8.981,9.489V8.414c0-0.454-0.372-0.827-0.827-0.827H7.37c-0.444,0-0.803,0.354-0.821,0.794 c0.425,0.127,0.737,0.517,0.737,0.983v0.125H8.981z"/></g></g></svg>