<svg width="16" height="16" xmlns="http://www.w3.org/2000/svg" viewBox="0 0 16 16" shape-rendering="geometricPrecision" fill="#6e6e6e"><defs><mask id="a"><rect fill="#fff" width="100%" height="100%"/><path fill="#000" d="M19.079 1.436h-4.914l-1.516-4.674-1.519 4.674H6.217l3.975 2.886-1.516 4.673 3.972-2.888 3.972 2.889-1.516-4.674z"/></mask></defs><path fill="#cb1800" d="M13.928 3.94L16 2.435h-2.561L12.648 0l-.791 2.435H9.295l2.072 1.505-.79 2.437 2.071-1.506 2.071 1.506z"/><g mask="url(#a)"><path d="M7.054 6.495a3.002 3.002 0 0 0 0 6.001 3 3 0 0 0 0-6.001zm0 5.394A2.397 2.397 0 0 1 4.66 9.497a2.397 2.397 0 0 1 2.394-2.394 2.398 2.398 0 0 1 2.393 2.394 2.397 2.397 0 0 1-2.393 2.392z"/><path d="M6.611 7.475v1.861l-1.152.671.456.798 1.608-.933h.009l-.001-2.397z"/><path d="M13.125 5.495v8h-12v-8h12m1-1h-14v10h14v-10z"/><path d="M7.175 2.995l-.299-1.49h-4l-.3 1.49H1.375v1h13.5v9.5l1-1v-9.5z"/></g></svg>