<svg width="16" height="16" xmlns="http://www.w3.org/2000/svg" viewBox="0 0 16 16" shape-rendering="geometricPrecision" fill="#6e6e6e"><defs><mask id="a"><rect fill="#fff" width="100%" height="100%"/><path fill="#000" d="M19.079 1.436h-4.914l-1.516-4.674-1.519 4.674H6.217l3.975 2.886-1.516 4.673 3.972-2.888 3.972 2.889-1.516-4.674z"/></mask></defs><path fill="#cb1800" d="M13.928 3.94L16 2.435h-2.561L12.648 0l-.791 2.435H9.295l2.072 1.505-.79 2.437 2.071-1.506 2.071 1.506z"/><g mask="url(#a)"><path d="M6.136 14.063l7.86-6.878-3.255-1.741-4.605 8.619zM0 4.568l4.147 11.214.838-1.57-1.421-3.844 4.331-1.602 2.457-4.6 4.406 2.352.003-.003L12.35-.002 0 4.568zm7.985 2.478l-4.97 1.838-.397-1.074 4.97-1.839.397 1.075zm4.073-4.002L2.204 6.688l-.398-1.074 9.854-3.646.398 1.076z"/></g></svg>