<svg width="16" height="16" xmlns="http://www.w3.org/2000/svg" viewBox="0 0 16 16" shape-rendering="geometricPrecision" fill="#6e6e6e"><defs><mask id="a"><rect fill="#fff" width="100%" height="100%"/><path fill="#000" d="M19.079 1.436h-4.914l-1.516-4.674-1.519 4.674H6.217l3.975 2.886-1.516 4.673 3.972-2.888 3.972 2.889-1.516-4.674z"/></mask></defs><path fill="#cb1800" d="M13.928 3.94L16 2.435h-2.561L12.648 0l-.791 2.435H9.295l2.072 1.505-.79 2.437 2.071-1.506 2.071 1.506z"/><g mask="url(#a)"><path d="M14.938 8.001a6.94 6.94 0 1 0-13.878 0 6.94 6.94 0 0 0 13.878 0zm-12.472 0a5.543 5.543 0 0 1 5.531-5.536 5.544 5.544 0 0 1 5.537 5.536 5.543 5.543 0 0 1-5.537 5.534 5.54 5.54 0 0 1-5.531-5.534z"/><path d="M8 12.673a4.68 4.68 0 0 0 4.673-4.672A4.682 4.682 0 0 0 8 3.327v9.346z"/></g></svg>