<svg width="16" height="16" xmlns="http://www.w3.org/2000/svg" viewBox="0 0 16 16" shape-rendering="geometricPrecision" fill="#6e6e6e"><defs><mask id="a"><rect fill="#fff" width="100%" height="100%"/><path fill="#000" d="M19.079 1.436h-4.914l-1.516-4.674-1.519 4.674H6.217l3.975 2.886-1.516 4.673 3.972-2.888 3.972 2.889-1.516-4.674z"/></mask></defs><path fill="#cb1800" d="M13.928 3.94L16 2.435h-2.561L12.648 0l-.791 2.435H9.295l2.072 1.505-.79 2.437 2.071-1.506 2.071 1.506z"/><g mask="url(#a)"><path d="M9.759 2.438V1.03H6.24v1.408H2.717v1.917h10.565V2.438H9.759zM3.661 14.97h8.645V5.388H3.661v9.582zm6.163-8.075h1.016v6.567H9.824V6.895zm-2.35 0h1.017v6.567H7.474V6.895zm-2.349 0h1.016v6.567H5.125V6.895z"/></g></svg>