<svg width="16" height="16" xmlns="http://www.w3.org/2000/svg" viewBox="0 0 16 16" shape-rendering="geometricPrecision" fill="#cb1800"><defs><mask id="a"><rect fill="#fff" width="100%" height="100%"/><path fill="#000" d="M17.414 1.215L14.79-1.414 13.066.308l-1.722-1.722-2.627 2.627 1.722 1.721-1.724 1.722 2.63 2.628 1.722-1.722 1.722 1.723 2.625-2.63-1.721-1.72z"/></mask></defs><path d="M16 4.656l-1.722-1.721L16 1.214 14.789.001l-1.723 1.721L11.344.001l-1.212 1.212 1.722 1.721-1.724 1.722 1.215 1.214 1.722-1.723 1.722 1.723z"/><path d="M1.935 1.982V14h3.031V1.982H1.935zm1.516 10.046a.923.923 0 1 1 0-1.848.923.923 0 0 1 0 1.848zM5.993 1.982V14h3.029V1.982H5.993zm1.515 10.046a.922.922 0 1 1 0-1.845.92.92 0 0 1 .922.923.92.92 0 0 1-.922.922zm2.493-10.046V14h3.076V1.982h-3.076zm1.539 10.017a.937.937 0 1 1 0-1.875.937.937 0 1 1 0 1.875z" mask="url(#a)"/></svg>