<?xml version="1.0"?><!DOCTYPE svg PUBLIC "-//W3C//DTD SVG 1.1//EN" "http://www.w3.org/Graphics/SVG/1.1/DTD/svg11.dtd"><svg width="16px" height="16px" xmlns="http://www.w3.org/2000/svg" viewBox="0 0 16 16" shape-rendering="geometricPrecision" fill="#cb1800"><defs><mask id="decline-path"><rect fill="#fff" width="100%" height="100%"/><polygon points="17.414,1.215 14.79,-1.414 13.066,0.308 11.344,-1.414 8.717,1.213 10.439,2.934 8.715,4.656 11.345,7.284 13.067,5.562 14.789,7.285 17.414,4.655 15.693,2.935 " fill="#000"/></mask></defs><g fill="#cb1800"><polygon points="16,4.656 14.278,2.935 16,1.214 14.789,0.001 13.066,1.722 11.344,0.001 10.132,1.213 11.854,2.934 10.13,4.656 11.345,5.87 13.067,4.147 14.789,5.87 "/></g><g mask="url(#decline-path)"><g><polygon points="4.463,15.971 5.954,14.697 4.278,14.029"/><rect x="2.716" y="6.643" transform="matrix(0.3723 -0.9281 0.9281 0.3723 -3.1069 12.2355)" width="9.554" height="3.544"/><path d="M10.815,0.121C9.91-0.243,8.885,0.195,8.515,1.097L7.986,2.414l3.291,1.321l0.531-1.321h-0.002 C12.161,1.508,11.721,0.48,10.815,0.121z"/></g></g></svg>