<?xml version="1.0"?><!DOCTYPE svg PUBLIC "-//W3C//DTD SVG 1.1//EN" "http://www.w3.org/Graphics/SVG/1.1/DTD/svg11.dtd"><svg width="16px" height="16px" xmlns="http://www.w3.org/2000/svg" viewBox="0 0 16 16" shape-rendering="geometricPrecision" fill="#cb1800"><defs><mask id="decline-path"><rect fill="#fff" width="100%" height="100%"/><polygon points="17.414,1.215 14.79,-1.414 13.066,0.308 11.344,-1.414 8.717,1.213 10.439,2.934 8.715,4.656 11.345,7.284 13.067,5.562 14.789,7.285 17.414,4.655 15.693,2.935 " fill="#000"/></mask></defs><g fill="#cb1800"><polygon points="16,4.656 14.278,2.935 16,1.214 14.789,0.001 13.066,1.722 11.344,0.001 10.132,1.213 11.854,2.934 10.13,4.656 11.345,5.87 13.067,4.147 14.789,5.87 "/></g><g mask="url(#decline-path)"><polygon points="5.295,3.817 5.295,7.67 2.909,9.059 3.853,10.711 7.181,8.779 7.201,8.779 7.198,3.818"/><path d="M9.791,1.79h-3.58C2.78,1.79,0,4.571,0,8.003c0,3.427,2.78,6.206,6.211,6.208h3.58 c3.429-0.002,6.208-2.78,6.209-6.208C16,4.571,13.22,1.79,9.791,1.79z M6.211,12.953c-2.736-0.005-4.949-2.218-4.955-4.951 c0.006-2.738,2.219-4.951,4.955-4.956c2.735,0.005,4.948,2.218,4.953,4.956C11.158,10.736,8.946,12.948,6.211,12.953z M9.955,12.945c1.494-1.134,2.464-2.923,2.465-4.942c0-2.022-0.969-3.813-2.464-4.947c2.658,0.092,4.783,2.265,4.788,4.947 C14.739,10.68,12.613,12.853,9.955,12.945z"/></g></svg>