<svg width="16" height="16" xmlns="http://www.w3.org/2000/svg" viewBox="0 0 16 16" shape-rendering="geometricPrecision" fill="#cb1800"><defs><mask id="a"><rect fill="#fff" width="100%" height="100%"/><path fill="#000" d="M17.414 1.215L14.79-1.414 13.066.308l-1.722-1.722-2.627 2.627 1.722 1.721-1.724 1.722 2.63 2.628 1.722-1.722 1.722 1.723 2.625-2.63-1.721-1.72z"/></mask></defs><path d="M16 4.656l-1.722-1.721L16 1.214 14.789.001l-1.723 1.721L11.344.001l-1.212 1.212 1.722 1.721-1.724 1.722 1.215 1.214 1.722-1.723 1.722 1.723z"/><g mask="url(#a)"><path d="M7.999 3.007L.701 5.591 3.853 7.29l4-1.688.663.303L4.52 7.651l3.479 1.873 7.3-3.933zM3.336 7.813l-1.692.602 1.447.779.245.133z"/><path d="M12.661 7.813l-4.662 2.512-3.001-1.617v1.514l3.001 1.617 4.692-2.529 1.665-.895zM3.899 12.542l.608.451v-5.33l-.608-.367z"/></g></svg>