<svg width="16" height="16" xmlns="http://www.w3.org/2000/svg" viewBox="0 0 16 16" shape-rendering="geometricPrecision" fill="#cb1800"><defs><mask id="a"><rect fill="#fff" width="100%" height="100%"/><path fill="#000" d="M17.414 1.215L14.79-1.414 13.066.308l-1.722-1.722-2.627 2.627 1.722 1.721-1.724 1.722 2.63 2.628 1.722-1.722 1.722 1.723 2.625-2.63-1.721-1.72z"/></mask></defs><path d="M16 4.656l-1.722-1.721L16 1.214 14.789.001l-1.723 1.721L11.344.001l-1.212 1.212 1.722 1.721-1.724 1.722 1.215 1.214 1.722-1.723 1.722 1.723z"/><g mask="url(#a)"><path d="M8.182 3.179l-.815-1.923h-3.78L2.77 3.179H1.649l.001.949 13.327-.009.018 9.283.933-.978V3.179z"/><path d="M.072 4.756V14h14.279V4.756H.072zm9.449 3.583a.993.993 0 1 1 .001 1.987.993.993 0 0 1-.001-1.987zM6.774 6.062a.993.993 0 1 1 .002 1.986.993.993 0 0 1-.002-1.986zm-2.199 1.1a.993.993 0 1 1 .002 1.986.993.993 0 0 1-.002-1.986zm1.41 4.661H3.164v-1.244c0-.527.428-.958.955-.958h.908c.526 0 .958.432.958.958v1.244zm-.618-2.382a.956.956 0 0 1 .951-.92h.908c.527 0 .958.432.958.957v1.245H6.221v-.145c0-.539-.362-.99-.854-1.137zM10.932 13H8.111v-1.245c0-.526.428-.957.955-.957h.908c.527 0 .958.432.958.957V13z"/></g></svg>