<svg width="16" height="16" xmlns="http://www.w3.org/2000/svg" viewBox="0 0 16 16" shape-rendering="geometricPrecision" fill="#cb1800"><defs><mask id="a"><rect fill="#fff" width="100%" height="100%"/><path fill="#000" d="M17.414 1.215L14.79-1.414 13.066.308l-1.722-1.722-2.627 2.627 1.722 1.721-1.724 1.722 2.63 2.628 1.722-1.722 1.722 1.723 2.625-2.63-1.721-1.72z"/></mask></defs><path d="M16 4.656l-1.722-1.721L16 1.214 14.789.001l-1.723 1.721L11.344.001l-1.212 1.212 1.722 1.721-1.724 1.722 1.215 1.214 1.722-1.723 1.722 1.723z"/><path d="M6.867 9.283a2.493 2.493 0 0 0 2.497-2.495 2.493 2.493 0 0 0-2.497-2.494 2.496 2.496 0 1 0 0 4.989zm2.319 1.186H4.541a2.406 2.406 0 0 0-2.398 2.404V16h9.45v-3.127a2.413 2.413 0 0 0-2.407-2.404zM7.641 0v1.125c1.349 0 2.564.545 3.448 1.428a4.86 4.86 0 0 1 1.428 3.449h1.125A6.002 6.002 0 0 0 7.641 0zm0 2.025v1.122a2.859 2.859 0 0 1 2.852 2.855h1.125a3.977 3.977 0 0 0-3.977-3.977z" mask="url(#a)"/></svg>