<svg width="16" height="16" xmlns="http://www.w3.org/2000/svg" viewBox="0 0 16 16" shape-rendering="geometricPrecision" fill="#cb1800"><defs><mask id="a"><rect fill="#fff" width="100%" height="100%"/><path fill="#000" d="M17.414 1.215L14.79-1.414 13.066.308l-1.722-1.722-2.627 2.627 1.722 1.721-1.724 1.722 2.63 2.628 1.722-1.722 1.722 1.723 2.625-2.63-1.721-1.72z"/></mask></defs><path d="M16 4.656l-1.722-1.721L16 1.214 14.789.001l-1.723 1.721L11.344.001l-1.212 1.212 1.722 1.721-1.724 1.722 1.215 1.214 1.722-1.723 1.722 1.723z"/><g mask="url(#a)"><path d="M14.818 5.818c-.4-2.076-3.738-2.209-5.541-2.209H6.705c-1.801 0-5.08.295-5.514 2.183l-.111.735-.021.54h1.848c.766-.584 2.014-1.203 2.903-1.527.436-.426 1.138-.576 1.696-.576H8.53c.578 0 1.321.088 1.753.581.877.326 2.1.943 2.853 1.523h1.799l.006-.517-.123-.733z"/><path d="M14.082 10.512c0-.623-.497-2.442-.497-2.442-.235-.777-3.503-2.342-4.193-2.342H6.7c-.689 0-4.017 1.565-4.252 2.342 0 0-.497 1.819-.497 2.442 0 .488-.004 1.445-.004 1.445h12.138s-.003-.957-.003-1.445zM8 10.935a2.102 2.102 0 1 1 0-4.204 2.102 2.102 0 0 1 0 4.204z"/></g></svg>