<svg width="16" height="16" xmlns="http://www.w3.org/2000/svg" viewBox="0 0 16 16" shape-rendering="geometricPrecision" fill="#cb1800"><defs><mask id="a"><rect fill="#fff" width="100%" height="100%"/><path fill="#000" d="M17.414 1.215L14.79-1.414 13.066.308l-1.722-1.722-2.627 2.627 1.722 1.721-1.724 1.722 2.63 2.628 1.722-1.722 1.722 1.723 2.625-2.63-1.721-1.72z"/></mask></defs><path d="M16 4.656l-1.722-1.721L16 1.214 14.789.001l-1.723 1.721L11.344.001l-1.212 1.212 1.722 1.721-1.724 1.722 1.215 1.214 1.722-1.723 1.722 1.723z"/><g mask="url(#a)"><path d="M7.999.97a7.03 7.03 0 0 0 0 14.06 7.03 7.03 0 1 0 0-14.06zm0 12.638a5.616 5.616 0 0 1-5.607-5.605 5.616 5.616 0 0 1 5.607-5.611 5.617 5.617 0 0 1 5.609 5.611 5.615 5.615 0 0 1-5.609 5.605z"/><path d="M7.999 11.927a3.933 3.933 0 0 1-3.926-3.925 3.933 3.933 0 0 1 3.926-3.929 3.934 3.934 0 0 1 3.927 3.929 3.933 3.933 0 0 1-3.927 3.925z"/></g></svg>