<svg width="16" height="16" xmlns="http://www.w3.org/2000/svg" viewBox="0 0 16 16" shape-rendering="geometricPrecision" fill="#cb1800"><defs><mask id="a"><rect fill="#fff" width="100%" height="100%"/><path fill="#000" d="M17.414 1.215L14.79-1.414 13.066.308l-1.722-1.722-2.627 2.627 1.722 1.721-1.724 1.722 2.63 2.628 1.722-1.722 1.722 1.723 2.625-2.63-1.721-1.72z"/></mask></defs><path d="M16 4.656l-1.722-1.721L16 1.214 14.789.001l-1.723 1.721L11.344.001l-1.212 1.212 1.722 1.721-1.724 1.722 1.215 1.214 1.722-1.723 1.722 1.723z"/><path d="M15.235 11.444L9.643 5.85a4.861 4.861 0 0 0-1.327-4.418C6.997.114 5.122-.271 3.457.23l3.349 3.353L3.56 6.828.211 3.475c-.5 1.667-.114 3.541 1.198 4.86 1.2 1.2 2.87 1.64 4.418 1.329l5.59 5.588c.987.986 2.634.934 3.692-.124 1.053-1.052 1.107-2.705.126-3.684z" mask="url(#a)"/></svg>