<svg width="16" height="16" xmlns="http://www.w3.org/2000/svg" viewBox="0 0 16 16" shape-rendering="geometricPrecision" fill="#fff"><defs><mask id="a"><rect width="100%" height="100%"/><path fill="#000" d="M16.383 1.058l-2.47-2.473-4.51 4.512 4.511 4.506 2.469-2.469-2.035-2.039z"/></mask></defs><path fill="#cb1800" d="M12.935 3.095l2.035-2.037L13.913 0l-3.096 3.097 3.096 3.092 1.057-1.056z"/><path mask="url(#a)" d="M0 0v16h16V0H0zm15 7.876h-1.652l-1.284-2.625-1.32 2.625h-1.1l-.215.59L8.03 4.205l-1.868 7.419L4.268 1H15v6.876zM4.22 1L2.129 7.876H1V1h3.22zM1 8.876h1.87l1.127-3.701L5.751 15H1V8.876zM6.36 15l1.797-7.203 1.222 3.722.964-2.643h1.017l.691-1.375.672 1.375H15V15H6.36z"/></svg>