<svg width="16" height="16" xmlns="http://www.w3.org/2000/svg" viewBox="0 0 16 16" shape-rendering="geometricPrecision" fill="#fff"><defs><mask id="a"><rect width="100%" height="100%"/><path fill="#000" d="M16.383 1.058l-2.47-2.473-4.51 4.512 4.511 4.506 2.469-2.469-2.035-2.039z"/></mask></defs><path fill="#cb1800" d="M12.935 3.095l2.035-2.037L13.913 0l-3.096 3.097 3.096 3.092 1.057-1.056z"/><g mask="url(#a)"><circle cx="11.278" cy="12.205" r=".769"/><circle cx="11.278" cy="7.939" r=".769"/><path d="M2.042.948V14.93h11.939V.948H2.042zm10.812 12.854H3.171v-3.138h9.682v3.138zm0-4.323H3.171V6.397h9.682v3.082zM3.171 5.213V2.077h9.682v3.136H3.171z"/><circle cx="11.278" cy="3.673" r=".769"/></g></svg>