<?xml version="1.0"?><!DOCTYPE svg PUBLIC "-//W3C//DTD SVG 1.1//EN" "http://www.w3.org/Graphics/SVG/1.1/DTD/svg11.dtd"><svg width="16px" height="16px" xmlns="http://www.w3.org/2000/svg" viewBox="0 0 16 16" shape-rendering="geometricPrecision" fill="#fff"><defs><mask id="move_left-path"><rect fill="#fff" width="100%" height="100%"/><polygon points="16.383,1.058 13.913,-1.415 9.403,3.097 13.914,7.603 16.383,5.134 14.348,3.095 " fill="#000"/></mask></defs><polygon points="12.935,3.095 14.97,1.058 13.913,0 10.817,3.097 13.913,6.189 14.97,5.133 " fill="#cb1800"/><g mask="url(#move_left-path)"><g><path d="M8.78,5.833V5.458H7.164v0.375H5.585v5.626h4.811V5.833H8.78z M9.757,10.862H6.224V6.431h0.94v0.141H8.78V6.431h0.977 V10.862z"/><rect x="6.788" y="8.06" width="2.405" height="0.758"/><rect x="6.788" y="9.186" width="2.405" height="0.787"/></g><path d="M6.799,3.47L6.5,1.979h-4L2.2,3.47H0.999v10h14v-10H6.799z M14,12.47H2v-8h5h7V12.47z"/></g></svg>