<svg width="16" height="16" xmlns="http://www.w3.org/2000/svg" viewBox="0 0 16 16" shape-rendering="geometricPrecision" fill="#fff"><defs><mask id="a"><rect width="100%" height="100%"/><path fill="#000" d="M16.383 1.058l-2.47-2.473-4.51 4.512 4.511 4.506 2.469-2.469-2.035-2.039z"/></mask></defs><path fill="#cb1800" d="M12.935 3.095l2.035-2.037L13.913 0l-3.096 3.097 3.096 3.092 1.057-1.056z"/><g mask="url(#a)"><path d="M9.341 5.662a2.312 2.312 0 1 1 4.626 0V6.81h1.413V5.662a3.726 3.726 0 1 0-7.453 0V6.81H9.34V5.662zM.62 7.792v7.207h9.875V7.792H.62zm5.806 4.802a.87.87 0 0 1-1.738 0v-2.396a.868.868 0 0 1 1.738 0v2.396z"/></g></svg>