<svg width="16" height="16" xmlns="http://www.w3.org/2000/svg" viewBox="0 0 16 16" shape-rendering="geometricPrecision" fill="#fff"><defs><mask id="a"><rect width="100%" height="100%"/><path fill="#000" d="M16.383 1.058l-2.47-2.473-4.51 4.512 4.511 4.506 2.469-2.469-2.035-2.039z"/></mask></defs><path fill="#cb1800" d="M12.935 3.095l2.035-2.037L13.913 0l-3.096 3.097 3.096 3.092 1.057-1.056z"/><path d="M13.031 11.953s-.891 0-1.016-.806c-.187-1.197-.661-4.542-.661-4.542h-.007a3.397 3.397 0 0 0-2.521-2.704c.002-.021.012-.039.012-.06a.852.852 0 0 0-1.704 0c0 .024.012.044.014.068a3.396 3.396 0 0 0-2.495 2.697h-.007s-.501 3.352-.663 4.557c-.106.791-1.014.791-1.014.791v1.031h2.134c.199.598.756 1.031 1.42 1.031s1.222-.434 1.42-1.031h5.087v-1.032z" mask="url(#a)"/></svg>