<svg width="16" height="16" xmlns="http://www.w3.org/2000/svg" viewBox="0 0 16 16" shape-rendering="geometricPrecision" fill="#fff"><defs><mask id="a"><rect width="100%" height="100%"/><path fill="#000" d="M16.383 1.058l-2.47-2.473-4.51 4.512 4.511 4.506 2.469-2.469-2.035-2.039z"/></mask></defs><path fill="#cb1800" d="M12.935 3.095l2.035-2.037L13.913 0l-3.096 3.097 3.096 3.092 1.057-1.056z"/><path d="M6.867 9.283a2.493 2.493 0 0 0 2.497-2.495 2.493 2.493 0 0 0-2.497-2.494 2.496 2.496 0 1 0 0 4.989zm2.319 1.186H4.541a2.406 2.406 0 0 0-2.398 2.404V16h9.45v-3.127a2.413 2.413 0 0 0-2.407-2.404zM7.641 0v1.125c1.349 0 2.564.545 3.448 1.428a4.86 4.86 0 0 1 1.428 3.449h1.125A6.002 6.002 0 0 0 7.641 0zm0 2.025v1.122a2.859 2.859 0 0 1 2.852 2.855h1.125a3.977 3.977 0 0 0-3.977-3.977z" mask="url(#a)"/></svg>