<svg width="16" height="16" xmlns="http://www.w3.org/2000/svg" viewBox="0 0 16 16" shape-rendering="geometricPrecision" fill="#fff"><defs><mask id="a"><rect width="100%" height="100%"/><path fill="#000" d="M16.383 1.058l-2.47-2.473-4.51 4.512 4.511 4.506 2.469-2.469-2.035-2.039z"/></mask></defs><path fill="#cb1800" d="M12.935 3.095l2.035-2.037L13.913 0l-3.096 3.097 3.096 3.092 1.057-1.056z"/><path mask="url(#a)" d="M13.053 8.004c.064-.324.101-.657.101-1a5.18 5.18 0 0 0-10.358-.002h1.541a3.641 3.641 0 0 1 3.637-3.637 3.64 3.64 0 0 1 3.639 3.639c0 .35-.065.681-.157 1h-1.82c.177-.293.285-.633.285-1a1.945 1.945 0 1 0-3.891 0c0 .367.107.707.284 1H.958v5.482h14.084V8.004h-1.989zm-1.676 2.741H4.622v-1.46h6.755v1.46z"/></svg>