<svg width="16" height="16" xmlns="http://www.w3.org/2000/svg" viewBox="0 0 16 16" shape-rendering="geometricPrecision" fill="#fff"><defs><mask id="a"><rect width="100%" height="100%"/><path fill="#000" d="M16.383 1.058l-2.47-2.473-4.51 4.512 4.511 4.506 2.469-2.469-2.035-2.039z"/></mask></defs><path fill="#cb1800" d="M12.935 3.095l2.035-2.037L13.913 0l-3.096 3.097 3.096 3.092 1.057-1.056z"/><path d="M12.5 3.976H3.562c-.859 0-1.556.697-1.556 1.556v4.906c0 .859.697 1.556 1.556 1.556H12.5c.859 0 1.556-.697 1.556-1.556V5.532c0-.859-.697-1.556-1.556-1.556zm-5.564 6.225l.001-4.265L9.75 8.068l-2.814 2.133z" mask="url(#a)"/></svg>