<svg width="16" height="16" xmlns="http://www.w3.org/2000/svg" viewBox="0 0 16 16" shape-rendering="geometricPrecision" fill="#cb1800"><defs><mask id="a"><rect fill="#fff" width="100%" height="100%"/><path fill="#000" d="M19.079 1.436h-4.914l-1.516-4.674-1.519 4.674H6.217l3.975 2.886-1.516 4.673 3.972-2.888 3.972 2.889-1.516-4.674z"/></mask></defs><path d="M13.928 3.94L16 2.435h-2.561L12.648 0l-.791 2.435H9.295l2.072 1.505-.79 2.437 2.071-1.506 2.071 1.506z"/><path d="M14.814 2.331L12.486-.001 7.999 4.485 3.511-.001l-2.326 2.33 6.818 6.814 6.811-6.812zM7.999 11.34L3.511 6.854l-2.326 2.33L8.003 16l6.811-6.814-2.328-2.331-4.487 4.485z" mask="url(#a)"/></svg>