<svg width="16" height="16" xmlns="http://www.w3.org/2000/svg" viewBox="0 0 16 16" shape-rendering="geometricPrecision" fill="#cb1800"><defs><mask id="a"><rect fill="#fff" width="100%" height="100%"/><path fill="#000" d="M19.079 1.436h-4.914l-1.516-4.674-1.519 4.674H6.217l3.975 2.886-1.516 4.673 3.972-2.888 3.972 2.889-1.516-4.674z"/></mask></defs><path d="M13.928 3.94L16 2.435h-2.561L12.648 0l-.791 2.435H9.295l2.072 1.505-.79 2.437 2.071-1.506 2.071 1.506z"/><path d="M12.485 14.112l2.329-2.33-6.81-6.816-6.818 6.816 2.326 2.33L8 9.628l4.485 4.484zM1.188 1.888l-.002 1.829 13.629.002V1.888H1.188z" mask="url(#a)"/></svg>