<svg width="16" height="16" xmlns="http://www.w3.org/2000/svg" viewBox="0 0 16 16" shape-rendering="geometricPrecision" fill="#cb1800"><defs><mask id="a"><rect fill="#fff" width="100%" height="100%"/><path fill="#000" d="M19.079 1.436h-4.914l-1.516-4.674-1.519 4.674H6.217l3.975 2.886-1.516 4.673 3.972-2.888 3.972 2.889-1.516-4.674z"/></mask></defs><path d="M13.928 3.94L16 2.435h-2.561L12.648 0l-.791 2.435H9.295l2.072 1.505-.79 2.437 2.071-1.506 2.071 1.506z"/><g mask="url(#a)"><path d="M6.394 4.686h.844v.844h-.844zm.844.843h.844v.844h-.844zm-.844.844h.844v.845h-.844zm.844.845h.844v.844h-.844zm-.844.843h.844v.844h-.844zm.844.844h.844v.844h-.844zm-.844.844h.844v.845h-.844zm0 1.688h.844v.844h-.844zm0 1.689h.844v.844h-.844zm-.02-10.947h1.709v1.662H6.374z"/><path d="M6.886 5.904l.535-1.403a.737.737 0 0 0-.308-.892.736.736 0 0 0-.932.15l-.986 1.133.001.001a.997.997 0 0 0 .241 1.515 1.002 1.002 0 0 0 1.449-.504zm-.359-1.316a.405.405 0 1 1 .416-.696.405.405 0 0 1-.416.696z"/><path d="M7.238 3.841h.844v.845h-.844zm2.817 10.461l2.54-2.338h-2.54z"/><path d="M2.595 1.016v13.969h6.008v-4.468h4.802V1.016H2.595zm9.439 8.027h-4.79v4.601H3.917V2.318h8.116v6.725z"/></g></svg>