<?xml version="1.0"?><!DOCTYPE svg PUBLIC "-//W3C//DTD SVG 1.1//EN" "http://www.w3.org/Graphics/SVG/1.1/DTD/svg11.dtd"><svg width="16px" height="16px" xmlns="http://www.w3.org/2000/svg" viewBox="0 0 16 16" shape-rendering="geometricPrecision" fill="#cb1800"><defs><mask id="new-path"><rect fill="#fff" width="100%" height="100%"/><polygon points="19.079,1.436 14.165,1.436 12.649,-3.238 11.13,1.436 6.217,1.436 10.192,4.322 8.676,8.995 12.648,6.107 16.62,8.996 15.104,4.322 " fill="#000"/></mask></defs><polygon points="13.928,3.94 16,2.435 13.439,2.435 12.648,0 11.857,2.435 9.295,2.435 11.367,3.94 10.577,6.377 12.648,4.871 14.719,6.377 " fill="#cb1800"/><g mask="url(#new-path)"><path d="M6.799,3.47L6.5,1.979h-4L2.2,3.47H0.999v10h14v-10H6.799z M14,12.47H2v-8h5h7V12.47z"/><g><polygon points="8,5.479 5.012,8.556 5.499,8.556 5.499,11.462 7.14,11.462 7.14,9.189 8.859,9.189 8.859,11.462 10.502,11.462 10.502,8.556 10.988,8.556"/></g></g></svg>