<svg width="16" height="16" xmlns="http://www.w3.org/2000/svg" viewBox="0 0 16 16" shape-rendering="geometricPrecision" fill="#cb1800"><defs><mask id="a"><rect fill="#fff" width="100%" height="100%"/><path fill="#000" d="M19.079 1.436h-4.914l-1.516-4.674-1.519 4.674H6.217l3.975 2.886-1.516 4.673 3.972-2.888 3.972 2.889-1.516-4.674z"/></mask></defs><path d="M13.928 3.94L16 2.435h-2.561L12.648 0l-.791 2.435H9.295l2.072 1.505-.79 2.437 2.071-1.506 2.071 1.506z"/><g mask="url(#a)"><path d="M15.432 12.94l-3.595-3.593-.356-.356c1.227-2.3.901-5.215-1.039-7.157a6.09 6.09 0 0 0-8.609.003 6.085 6.085 0 0 0 .002 8.605c1.939 1.939 4.855 2.267 7.158 1.037l3.952 3.952a1.757 1.757 0 0 0 2.486 0c.69-.687.69-1.8.001-2.491zM3.104 9.17a4.286 4.286 0 0 1 .001-6.062 4.285 4.285 0 0 1 6.064-.005A4.29 4.29 0 0 1 3.104 9.17z"/></g></svg>