<?xml version="1.0"?><!DOCTYPE svg PUBLIC "-//W3C//DTD SVG 1.1//EN" "http://www.w3.org/Graphics/SVG/1.1/DTD/svg11.dtd"><svg width="16px" height="16px" xmlns="http://www.w3.org/2000/svg" viewBox="0 0 16 16" shape-rendering="geometricPrecision" fill="#cb1800"><defs><mask id="new-path"><rect fill="#fff" width="100%" height="100%"/><polygon points="19.079,1.436 14.165,1.436 12.649,-3.238 11.13,1.436 6.217,1.436 10.192,4.322 8.676,8.995 12.648,6.107 16.62,8.996 15.104,4.322 " fill="#000"/></mask></defs><polygon points="13.928,3.94 16,2.435 13.439,2.435 12.648,0 11.857,2.435 9.295,2.435 11.367,3.94 10.577,6.377 12.648,4.871 14.719,6.377 " fill="#cb1800"/><g mask="url(#new-path)"><g><g><rect x="11.473" y="1.006" width="1.042" height="13.987"/></g><g><rect x="7.459" y="1.006" width="1.062" height="13.987"/></g><g><rect x="3.444" y="1.006" width="1.021" height="13.987"/></g><path d="M10.499,8.527V6.5c0-0.267,0.216-0.483,0.483-0.483h2.027c0.267,0,0.483,0.216,0.483,0.483v2.027 c0,0.267-0.216,0.483-0.483,0.483h-2.027C10.715,9.01,10.499,8.794,10.499,8.527z"/><path d="M6.495,5.519V3.487c0-0.267,0.216-0.483,0.483-0.483H9.01c0.267,0,0.483,0.216,0.483,0.483v2.032 c0,0.267-0.216,0.483-0.483,0.483H6.978C6.711,6.002,6.495,5.786,6.495,5.519z"/><path d="M2.495,12.517v-2.019c0-0.267,0.216-0.483,0.483-0.483h2.019c0.267,0,0.483,0.216,0.483,0.483v2.019 C5.48,12.784,5.264,13,4.997,13H2.978C2.712,13,2.495,12.784,2.495,12.517z"/></g></g></svg>