<?xml version="1.0"?><!DOCTYPE svg PUBLIC "-//W3C//DTD SVG 1.1//EN" "http://www.w3.org/Graphics/SVG/1.1/DTD/svg11.dtd"><svg width="16px" height="16px" xmlns="http://www.w3.org/2000/svg" viewBox="0 0 16 16" shape-rendering="geometricPrecision" fill="#cb1800"><defs><mask id="new-path"><rect fill="#fff" width="100%" height="100%"/><polygon points="19.079,1.436 14.165,1.436 12.649,-3.238 11.13,1.436 6.217,1.436 10.192,4.322 8.676,8.995 12.648,6.107 16.62,8.996 15.104,4.322 " fill="#000"/></mask></defs><polygon points="13.928,3.94 16,2.435 13.439,2.435 12.648,0 11.857,2.435 9.295,2.435 11.367,3.94 10.577,6.377 12.648,4.871 14.719,6.377 " fill="#cb1800"/><g mask="url(#new-path)"><g><path d="M14.938,8.001c0-3.833-3.107-6.939-6.941-6.939c-3.829,0-6.934,3.106-6.936,6.939c0.002,3.832,3.106,6.936,6.936,6.937 C11.831,14.938,14.938,11.833,14.938,8.001z M2.466,8.001c0.006-3.057,2.478-5.529,5.531-5.536 c3.059,0.007,5.531,2.479,5.537,5.536c-0.006,3.056-2.479,5.528-5.537,5.534C4.943,13.529,2.472,11.057,2.466,8.001z"/></g><path d="M8,8.001h4.673C12.668,5.421,10.581,3.334,8,3.327V8.001z"/></g></svg>