<svg width="16" height="16" xmlns="http://www.w3.org/2000/svg" viewBox="0 0 16 16" shape-rendering="geometricPrecision" fill="#fff"><defs><mask id="a"><rect width="100%" height="100%"/><path d="M12.997.858a4.809 4.809 0 0 0-4.253 2.563 4.81 4.81 0 0 0 8.506 0A4.812 4.812 0 0 0 12.997.858z" fill="#000"/></mask></defs><path d="M12.971 1.607c-1.315 0-2.454.74-3.029 1.825a3.425 3.425 0 0 0 6.058 0 3.43 3.43 0 0 0-3.029-1.825z" fill="#cb1800"/><g mask="url(#a)"><path d="M8 6.636A2.837 2.837 0 0 0 5.167 9.47 2.837 2.837 0 0 0 8 12.302a2.837 2.837 0 0 0 2.833-2.832A2.837 2.837 0 0 0 8 6.636zm.556 3.278l-1.904 1.105-.54-.945 1.365-.794V7.077h1.089l.001 2.837h-.011z"/><path d="M7.394 4.755l-.816-1.923h-3.78l-.816 1.923H.861V14h14.278V4.755H7.394zM8 13.021a3.553 3.553 0 0 1 0-7.105 3.552 3.552 0 0 1 0 7.105z"/></g></svg>