<svg width="16" height="16" xmlns="http://www.w3.org/2000/svg" viewBox="0 0 16 16" shape-rendering="geometricPrecision" fill="#fff"><defs><mask id="a"><rect width="100%" height="100%"/><path d="M12.997.858a4.809 4.809 0 0 0-4.253 2.563 4.81 4.81 0 0 0 8.506 0A4.812 4.812 0 0 0 12.997.858z" fill="#000"/></mask></defs><path d="M12.971 1.607c-1.315 0-2.454.74-3.029 1.825a3.425 3.425 0 0 0 6.058 0 3.43 3.43 0 0 0-3.029-1.825z" fill="#cb1800"/><g mask="url(#a)"><path d="M7.394 4.755l-.816-1.923h-3.78l-.816 1.923H.861V14h14.278V4.755H7.394zm6.648 8.174H1.916v-7h12.125v7z"/><path d="M8.006 6.979a2.49 2.49 0 1 0 0 4.98 2.49 2.49 0 0 0 0-4.98zm0 4.475A1.988 1.988 0 0 1 6.02 9.47a1.99 1.99 0 0 1 1.986-1.987A1.99 1.99 0 0 1 9.992 9.47a1.989 1.989 0 0 1-1.986 1.984z"/><path d="M7.639 7.792v1.545l-.956.556.378.663 1.334-.775h.008l-.001-1.989z"/></g></svg>