<svg width="16" height="16" xmlns="http://www.w3.org/2000/svg" viewBox="0 0 16 16" shape-rendering="geometricPrecision" fill="#fff"><defs><mask id="a"><rect width="100%" height="100%"/><path d="M12.997.858a4.809 4.809 0 0 0-4.253 2.563 4.81 4.81 0 0 0 8.506 0A4.812 4.812 0 0 0 12.997.858z" fill="#000"/></mask></defs><path d="M12.971 1.607c-1.315 0-2.454.74-3.029 1.825a3.425 3.425 0 0 0 6.058 0 3.43 3.43 0 0 0-3.029-1.825z" fill="#cb1800"/><g mask="url(#a)"><path d="M5.687 5.661A2.311 2.311 0 0 1 8 3.349a2.311 2.311 0 0 1 2.312 2.312V6.81h1.414V5.661a3.726 3.726 0 1 0-7.454 0V6.81h1.414V5.661zM3.062 7.792v7.207h9.876V7.792H3.062zm5.808 4.802a.87.87 0 0 1-1.739 0v-2.396a.87.87 0 0 1 1.739 0v2.396z"/></g></svg>