<svg width="16" height="16" xmlns="http://www.w3.org/2000/svg" viewBox="0 0 16 16" shape-rendering="geometricPrecision" fill="#fff"><defs><mask id="a"><rect width="100%" height="100%"/><path d="M12.997.858a4.809 4.809 0 0 0-4.253 2.563 4.81 4.81 0 0 0 8.506 0A4.812 4.812 0 0 0 12.997.858z" fill="#000"/></mask></defs><path d="M12.971 1.607c-1.315 0-2.454.74-3.029 1.825a3.425 3.425 0 0 0 6.058 0 3.43 3.43 0 0 0-3.029-1.825z" fill="#cb1800"/><g mask="url(#a)"><path d="M13.826 1.99l-5.027.006L1 9.794l5.038 5.038 7.799-7.799-.011-5.043zm-2.484 4a1.5 1.5 0 1 1 .001-3.001 1.5 1.5 0 0 1-.001 3.001z"/><path d="M2.342 9.668L7.94 4.07l3.823 3.822-5.598 5.599z"/><path d="M3.873 9.85l4.263-4.263.719.718L4.59 10.57zm1.353 1.354L9.489 6.94l.718.719-4.263 4.263z"/></g></svg>