<svg width="16" height="16" xmlns="http://www.w3.org/2000/svg" viewBox="0 0 16 16" shape-rendering="geometricPrecision" fill="#6e6e6e"><defs><mask id="a"><rect fill="#fff" width="100%" height="100%"/><path fill="#000" d="M14.934-.397l-2.039 2.036-2.037-2.036-2.472 2.47 4.511 4.51 4.507-4.51z"/></mask></defs><path fill="#cb1800" d="M12.895 3.052l-2.037-2.035L9.8 2.073l3.097 3.096 3.093-3.096-1.057-1.056z"/><g mask="url(#a)"><path d="M5.295 3.817V7.67L2.909 9.059l.944 1.652 3.328-1.932h.02l-.003-4.961z"/><path d="M9.791 1.79h-3.58a6.211 6.211 0 0 0 0 12.421h3.58a6.21 6.21 0 0 0 0-12.421zm-3.58 11.163a4.961 4.961 0 0 1-4.955-4.951 4.962 4.962 0 0 1 4.955-4.956 4.96 4.96 0 0 1 4.953 4.956 4.96 4.96 0 0 1-4.953 4.951zm3.744-.008a6.196 6.196 0 0 0 2.465-4.942 6.195 6.195 0 0 0-2.464-4.947 4.956 4.956 0 0 1 4.788 4.947 4.956 4.956 0 0 1-4.789 4.942z"/></g></svg>