<svg width="16" height="16" xmlns="http://www.w3.org/2000/svg" viewBox="0 0 16 16" shape-rendering="geometricPrecision" fill="#6e6e6e"><defs><mask id="a"><rect fill="#fff" width="100%" height="100%"/><path fill="#000" d="M14.934-.397l-2.039 2.036-2.037-2.036-2.472 2.47 4.511 4.51 4.507-4.51z"/></mask></defs><path fill="#cb1800" d="M12.895 3.052l-2.037-2.035L9.8 2.073l3.097 3.096 3.093-3.096-1.057-1.056z"/><g mask="url(#a)"><path d="M1.979 7.695a4.662 4.662 0 0 1 4.663-4.661h.001V1.056h-.001a6.644 6.644 0 0 0-6.641 6.64v.002h1.978v-.003zm6.332 4.157a2.492 2.492 0 1 0 0-4.986V9.36H5.814a2.498 2.498 0 0 0 2.497 2.492zm0-9.134v1.978a4.663 4.663 0 1 1-4.665 4.665H1.668a6.642 6.642 0 0 0 13.281-.003 6.643 6.643 0 0 0-6.638-6.64z"/></g></svg>