<svg width="16" height="16" xmlns="http://www.w3.org/2000/svg" viewBox="0 0 16 16" shape-rendering="geometricPrecision" fill="#6e6e6e"><defs><mask id="a"><rect fill="#fff" width="100%" height="100%"/><path fill="#000" d="M14.934-.397l-2.039 2.036-2.037-2.036-2.472 2.47 4.511 4.51 4.507-4.51z"/></mask></defs><path fill="#cb1800" d="M12.895 3.052l-2.037-2.035L9.8 2.073l3.097 3.096 3.093-3.096-1.057-1.056z"/><path d="M15.235 11.444L9.643 5.85a4.861 4.861 0 0 0-1.327-4.418C6.997.114 5.122-.271 3.457.23l3.349 3.353L3.56 6.828.211 3.475c-.5 1.667-.114 3.541 1.198 4.86 1.2 1.2 2.87 1.64 4.418 1.329l5.59 5.588c.987.986 2.634.934 3.692-.124 1.053-1.052 1.107-2.705.126-3.684z" mask="url(#a)"/></svg>