<svg width="16" height="16" xmlns="http://www.w3.org/2000/svg" viewBox="0 0 16 16" shape-rendering="geometricPrecision" fill="#6e6e6e"><defs><mask id="a"><rect fill="#fff" width="100%" height="100%"/><path fill="#000" d="M14.934-.397l-2.039 2.036-2.037-2.036-2.472 2.47 4.511 4.51 4.507-4.51z"/></mask></defs><path fill="#cb1800" d="M12.895 3.052l-2.037-2.035L9.8 2.073l3.097 3.096 3.093-3.096-1.057-1.056z"/><g mask="url(#a)"><path d="M13.237 5.237l-1.791 1.791-3.447-3.445-3.448 3.445-1.789-1.791L8.002 0zM1.041 8.334v6.636h13.958V8.334H1.041zm11.157 3.914a1.08 1.08 0 1 1 0-2.162 1.08 1.08 0 1 1 0 2.162z"/></g></svg>