<?xml version="1.0"?><!DOCTYPE svg PUBLIC "-//W3C//DTD SVG 1.1//EN" "http://www.w3.org/Graphics/SVG/1.1/DTD/svg11.dtd"><svg width="16px" height="16px" xmlns="http://www.w3.org/2000/svg" viewBox="0 0 16 16" shape-rendering="geometricPrecision" fill="#cb1800"><defs><mask id="visibility-invisible-path"><rect fill="#fff" width="100%" height="100%"/><path d="M12.997,0.858c-1.845,0-3.446,1.039-4.253,2.563c0.808,1.523,2.408,2.562,4.253,2.562 c1.844,0,3.444-1.039,4.253-2.562C16.441,1.897,14.841,0.858,12.997,0.858z" fill="#000"/></mask></defs><g id="visibility-invisible" fill="#cb1800"><g><g><path d="M12.997,1.611c-1.303,0-2.433,0.733-3.003,1.81c0.57,1.075,1.7,1.809,3.003,1.809c1.302,0,2.432-0.733,3.003-1.809 C15.429,2.345,14.299,1.611,12.997,1.611z M12.996,5.007c-0.876,0-1.587-0.71-1.587-1.586c0-0.877,0.711-1.588,1.587-1.588 c0.877,0,1.588,0.711,1.588,1.588C14.584,4.297,13.873,5.007,12.996,5.007z"/></g></g></g><g mask="url(#visibility-invisible-path)"><g><path d="M10.929,0.978H5.137L1.041,5.074v5.792l4.096,4.096h5.792l4.096-4.096V5.074L10.929,0.978z M4.492,10.183 c-0.689,0-1.153-0.258-1.484-0.59l0.438-0.616c0.252,0.232,0.55,0.418,0.908,0.418c0.431,0,0.709-0.226,0.709-0.656 c0-0.424-0.272-0.65-0.663-0.65c-0.245,0-0.371,0.053-0.623,0.212L3.34,8.023l0.119-2.127h2.386v0.822H4.3L4.227,7.507 c0.159-0.073,0.298-0.1,0.471-0.1c0.723,0,1.339,0.411,1.339,1.306C6.037,9.647,5.314,10.183,4.492,10.183z M9.564,10.104H6.602 V9.547c1.074-1.014,1.829-1.736,1.829-2.333c0-0.411-0.232-0.636-0.596-0.636c-0.305,0-0.537,0.206-0.749,0.431l-0.53-0.523 c0.418-0.444,0.809-0.669,1.411-0.669c0.829,0,1.392,0.53,1.392,1.339c0,0.709-0.663,1.464-1.345,2.18 c0.212-0.026,0.504-0.053,0.703-0.053h0.848V10.104z M12.992,10.104h-0.795l-0.073-0.338h-0.02 c-0.278,0.246-0.59,0.418-0.96,0.418c-0.597,0-0.974-0.437-0.974-0.994c0-0.689,0.55-1.067,1.849-1.199 c-0.02-0.291-0.166-0.477-0.517-0.477c-0.278,0-0.557,0.113-0.875,0.298l-0.345-0.643c0.418-0.252,0.888-0.431,1.405-0.431 c0.841,0,1.305,0.477,1.305,1.484V10.104z"/></g><g><path d="M11.097,9.117c0,0.212,0.146,0.311,0.378,0.311c0.225,0,0.371-0.106,0.543-0.278V8.573 C11.322,8.666,11.097,8.865,11.097,9.117z"/></g></g></svg>