<?xml version="1.0"?><!DOCTYPE svg PUBLIC "-//W3C//DTD SVG 1.1//EN" "http://www.w3.org/Graphics/SVG/1.1/DTD/svg11.dtd"><svg width="16px" height="16px" xmlns="http://www.w3.org/2000/svg" viewBox="0 0 16 16" shape-rendering="geometricPrecision" fill="#cb1800"><defs><mask id="visibility-invisible-path"><rect fill="#fff" width="100%" height="100%"/><path d="M12.997,0.858c-1.845,0-3.446,1.039-4.253,2.563c0.808,1.523,2.408,2.562,4.253,2.562 c1.844,0,3.444-1.039,4.253-2.562C16.441,1.897,14.841,0.858,12.997,0.858z" fill="#000"/></mask></defs><g id="visibility-invisible" fill="#cb1800"><g><g><path d="M12.997,1.611c-1.303,0-2.433,0.733-3.003,1.81c0.57,1.075,1.7,1.809,3.003,1.809c1.302,0,2.432-0.733,3.003-1.809 C15.429,2.345,14.299,1.611,12.997,1.611z M12.996,5.007c-0.876,0-1.587-0.71-1.587-1.586c0-0.877,0.711-1.588,1.587-1.588 c0.877,0,1.588,0.711,1.588,1.588C14.584,4.297,13.873,5.007,12.996,5.007z"/></g></g></g><g mask="url(#visibility-invisible-path)"><path d="M10.201,4.508c1.483,0,2.673,1.162,2.711,2.645l0.019,0.766l0.744,0.181 c0.772,0.188,1.311,0.875,1.311,1.672l0,0.057c-0.03,0.921-0.788,1.663-1.714,1.665H3.035c-1.115,0-2.022-0.908-2.022-2.024 c0-1.116,0.907-2.024,2.022-2.024c0.118,0,0.24,0.011,0.362,0.033l1.365,0.245L4.564,6.35C4.557,6.3,4.553,6.25,4.553,6.198 c0-0.599,0.487-1.086,1.085-1.086c0.337,0,0.65,0.154,0.858,0.423l0.783,1.012l0.793-1.004C8.59,4.885,9.366,4.508,10.201,4.508 M10.201,3.508c-1.183,0-2.235,0.554-2.915,1.415C6.905,4.43,6.308,4.112,5.637,4.112c-1.152,0-2.085,0.934-2.085,2.086 c0,0.1,0.007,0.199,0.021,0.296C3.399,6.462,3.219,6.445,3.035,6.445c-1.669,0-3.022,1.354-3.022,3.024 c0,1.67,1.353,3.024,3.022,3.024h10.237c1.5-0.003,2.714-1.22,2.714-2.721l-0.001-0.001c0-1.28-0.884-2.354-2.075-2.644 C13.861,5.12,12.219,3.508,10.201,3.508L10.201,3.508z"/></g></svg>