<?xml version="1.0"?><!DOCTYPE svg PUBLIC "-//W3C//DTD SVG 1.1//EN" "http://www.w3.org/Graphics/SVG/1.1/DTD/svg11.dtd"><svg width="16px" height="16px" xmlns="http://www.w3.org/2000/svg" viewBox="0 0 16 16" shape-rendering="geometricPrecision" fill="#cb1800"><defs><mask id="visibility-invisible-path"><rect fill="#fff" width="100%" height="100%"/><path d="M12.997,0.858c-1.845,0-3.446,1.039-4.253,2.563c0.808,1.523,2.408,2.562,4.253,2.562 c1.844,0,3.444-1.039,4.253-2.562C16.441,1.897,14.841,0.858,12.997,0.858z" fill="#000"/></mask></defs><g id="visibility-invisible" display="inline" fill="#cb1800"><g><g><path d="M12.997,1.611c-1.303,0-2.433,0.733-3.003,1.81c0.57,1.075,1.7,1.809,3.003,1.809c1.302,0,2.432-0.733,3.003-1.809 C15.429,2.345,14.299,1.611,12.997,1.611z M12.996,5.007c-0.876,0-1.587-0.71-1.587-1.586c0-0.877,0.711-1.588,1.587-1.588 c0.877,0,1.588,0.711,1.588,1.588C14.584,4.297,13.873,5.007,12.996,5.007z"/></g></g></g><g mask="url(#visibility-invisible-path)"><g><rect x="7.045" y="11.946" width="0.995" height="0.995"/><polygon points="9.036,13.936 10.031,13.936 11.026,13.936 11.026,12.941 10.031,12.941 10.031,11.946 9.036,11.946"/><polygon points="10.031,7.964 10.031,8.961 9.036,8.961 8.04,8.961 8.04,7.964 9.036,7.964 10.031,7.964 10.031,6.97 9.036,6.97 9.036,5.975 8.04,5.975 7.045,5.975 7.045,6.97 6.05,6.97 6.05,8.961 7.045,8.961 7.045,9.956 8.04,9.956 8.04,10.951 9.036,10.951 10.031,10.951 10.031,9.956 11.026,9.956 11.026,10.951 12.021,10.951 13.016,10.951 13.016,9.956 12.021,9.956 12.021,6.97 11.026,6.97 11.026,7.964"/><rect x="10.031" y="10.951" width="0.995" height="0.995"/><rect x="1.075" y="6.97" width="0.995" height="0.994"/><path d="M3.065,5.975h1.99H6.05V4.98V3.985h0.995V2.99H6.05V1.995V1H5.055H2.07H1.075v0.995V4.98v0.994H2.07V6.97 h0.995V5.975z M2.07,1.995h2.985V4.98H2.07V1.995z"/><polygon points="12.021,14.931 13.016,14.931 13.016,13.936 14.011,13.936 14.011,12.941 13.016,12.941 13.016,11.946 12.021,11.946"/><rect x="13.016" y="10.951" width="0.995" height="0.995"/><rect x="14.011" y="7.964" width="0.995" height="0.997"/><rect x="3.065" y="11.946" width="0.995" height="0.995"/><path d="M6.05,10.951V9.956H5.055H4.06V8.961h0.995V6.97H4.06v0.994H3.065v1.992H2.07H1.075v0.995v2.985v0.994 H2.07h2.985H6.05v-0.994h0.995v-0.995H6.05V10.951z M2.07,13.936v-2.985h2.985v2.985H2.07z"/><rect x="3.065" y="2.99" width="0.995" height="0.995"/><rect x="12.021" y="2.99" width="0.995" height="0.995"/><path d="M14.011,1h-2.985h-0.995v0.995H9.036H8.04V2.99v0.995V4.98h0.996V3.985V2.99h0.995v1.99v0.994V6.97h0.995 V5.975h2.985h0.995V4.98V1.995V1H14.011z M14.011,4.98h-2.985V1.995h2.985V4.98z"/></g></g></svg>