<?xml version="1.0"?><!DOCTYPE svg PUBLIC "-//W3C//DTD SVG 1.1//EN" "http://www.w3.org/Graphics/SVG/1.1/DTD/svg11.dtd"><svg width="16px" height="16px" xmlns="http://www.w3.org/2000/svg" viewBox="0 0 16 16" shape-rendering="geometricPrecision" fill="#cb1800"><defs><mask id="visibility-invisible-path"><rect fill="#fff" width="100%" height="100%"/><path d="M12.997,0.858c-1.845,0-3.446,1.039-4.253,2.563c0.808,1.523,2.408,2.562,4.253,2.562 c1.844,0,3.444-1.039,4.253-2.562C16.441,1.897,14.841,0.858,12.997,0.858z" fill="#000"/></mask></defs><g id="visibility-invisible" display="inline" fill="#cb1800"><g><g><path d="M12.997,1.611c-1.303,0-2.433,0.733-3.003,1.81c0.57,1.075,1.7,1.809,3.003,1.809c1.302,0,2.432-0.733,3.003-1.809 C15.429,2.345,14.299,1.611,12.997,1.611z M12.996,5.007c-0.876,0-1.587-0.71-1.587-1.586c0-0.877,0.711-1.588,1.587-1.588 c0.877,0,1.588,0.711,1.588,1.588C14.584,4.297,13.873,5.007,12.996,5.007z"/></g></g></g><path mask="url(#visibility-invisible-path)" d="M14.49,13.121L14.478,0H4.033C2.657,0.003,1.535,0.619,1.513,1.987 c-0.003,0.025-0.003,0.529,0,0.535v0.003c0,0.04,0.009,0.076,0.011,0.117H1.515v10.826C1.515,14.865,2.647,16,4.044,16h8.385 l-0.037-1.689l-0.01-11.345H4.033c-0.496,0-1.68-0.048-1.68-0.979V1.893c0.051-0.885,1.184-1.052,1.68-1.052h9.593v12.279H14.49z M7.678,4.504c1.189,0,2.15,0.961,2.15,2.146c0,1.188-0.961,2.148-2.15,2.148c-1.186,0-2.148-0.961-2.148-2.148 C5.529,5.465,6.492,4.504,7.678,4.504z M4.091,11.89c0-1.138,0.925-2.069,2.064-2.069h3c1.139,0,2.073,0.932,2.073,2.069v2.692 H4.091V11.89z"/></svg>