<?xml version="1.0"?><!DOCTYPE svg PUBLIC "-//W3C//DTD SVG 1.1//EN" "http://www.w3.org/Graphics/SVG/1.1/DTD/svg11.dtd"><svg width="16px" height="16px" xmlns="http://www.w3.org/2000/svg" viewBox="0 0 16 16" shape-rendering="geometricPrecision" fill="#cb1800"><defs><mask id="visibility-invisible-path"><rect fill="#fff" width="100%" height="100%"/><path d="M12.997,0.858c-1.845,0-3.446,1.039-4.253,2.563c0.808,1.523,2.408,2.562,4.253,2.562 c1.844,0,3.444-1.039,4.253-2.562C16.441,1.897,14.841,0.858,12.997,0.858z" fill="#000"/></mask></defs><g id="visibility-invisible" display="inline" fill="#cb1800"><g><g><path d="M12.997,1.611c-1.303,0-2.433,0.733-3.003,1.81c0.57,1.075,1.7,1.809,3.003,1.809c1.302,0,2.432-0.733,3.003-1.809 C15.429,2.345,14.299,1.611,12.997,1.611z M12.996,5.007c-0.876,0-1.587-0.71-1.587-1.586c0-0.877,0.711-1.588,1.587-1.588 c0.877,0,1.588,0.711,1.588,1.588C14.584,4.297,13.873,5.007,12.996,5.007z"/></g></g></g><g mask="url(#visibility-invisible-path)"><g><polygon points="8.182,3.179 7.367,1.256 3.587,1.256 2.77,3.179 1.649,3.179 1.65,4.128 14.977,4.119 14.995,13.402 15.928,12.424 15.928,3.179"/><path d="M0.072,4.756V14h14.279V4.756H0.072z M9.521,8.339c0.55,0,0.994,0.445,0.994,0.994c0,0.548-0.444,0.993-0.994,0.993 c-0.548,0-0.994-0.445-0.994-0.993C8.528,8.783,8.973,8.339,9.521,8.339z M6.774,6.062c0.55,0,0.994,0.445,0.994,0.993 c0,0.55-0.444,0.994-0.994,0.994c-0.548,0-0.994-0.445-0.994-0.994C5.78,6.507,6.225,6.062,6.774,6.062z M4.575,7.162 c0.55,0,0.994,0.445,0.994,0.993c0,0.55-0.444,0.994-0.994,0.994c-0.549,0-0.994-0.445-0.994-0.994 C3.581,7.606,4.027,7.162,4.575,7.162z M5.985,11.823H3.164v-1.244c0-0.527,0.428-0.958,0.955-0.958h0.908 c0.526,0,0.958,0.432,0.958,0.958V11.823z M5.367,9.441c0.021-0.51,0.437-0.92,0.951-0.92h0.908c0.527,0,0.958,0.432,0.958,0.957 v1.245H6.221v-0.145C6.221,10.039,5.859,9.588,5.367,9.441z M10.932,13H8.111v-1.245c0-0.526,0.428-0.957,0.955-0.957h0.908 c0.527,0,0.958,0.432,0.958,0.957V13z"/></g></g></svg>