<svg width="16" height="16" xmlns="http://www.w3.org/2000/svg" viewBox="0 0 16 16" shape-rendering="geometricPrecision" fill="#cb1800"><defs><mask id="a"><rect fill="#fff" width="100%" height="100%"/><path d="M12.997.858a4.809 4.809 0 0 0-4.253 2.563 4.81 4.81 0 0 0 8.506 0A4.812 4.812 0 0 0 12.997.858z" fill="#000"/></mask></defs><path d="M12.997 1.611a3.394 3.394 0 0 0-3.003 1.81 3.397 3.397 0 0 0 6.006 0 3.398 3.398 0 0 0-3.003-1.81zm-.001 3.396a1.587 1.587 0 1 1 0-3.174 1.587 1.587 0 0 1 0 3.174z"/><g mask="url(#a)"><path d="M12.127 5.803L9.186 8.742c.373.336.612.818.612 1.359a1.837 1.837 0 1 1-3.674 0c0-.561.256-1.056.652-1.393L3.834 5.765a5.972 5.972 0 0 0-1.864 4.337 5.99 5.99 0 1 0 11.982 0 5.971 5.971 0 0 0-1.825-4.299z"/><path d="M4.004 0L1.929 2.076l6.068 6.073 6.075-6.073L11.998 0 8.001 3.995 4.004 0z"/></g></svg>