<?xml version="1.0"?><!DOCTYPE svg PUBLIC "-//W3C//DTD SVG 1.1//EN" "http://www.w3.org/Graphics/SVG/1.1/DTD/svg11.dtd"><svg width="16px" height="16px" xmlns="http://www.w3.org/2000/svg" viewBox="0 0 16 16" shape-rendering="geometricPrecision" fill="#cb1800"><defs><mask id="visibility-invisible-path"><rect fill="#fff" width="100%" height="100%"/><path d="M12.997,0.858c-1.845,0-3.446,1.039-4.253,2.563c0.808,1.523,2.408,2.562,4.253,2.562 c1.844,0,3.444-1.039,4.253-2.562C16.441,1.897,14.841,0.858,12.997,0.858z" fill="#000"/></mask></defs><g id="visibility-invisible" display="inline" fill="#cb1800"><g><g><path d="M12.997,1.611c-1.303,0-2.433,0.733-3.003,1.81c0.57,1.075,1.7,1.809,3.003,1.809c1.302,0,2.432-0.733,3.003-1.809 C15.429,2.345,14.299,1.611,12.997,1.611z M12.996,5.007c-0.876,0-1.587-0.71-1.587-1.586c0-0.877,0.711-1.588,1.587-1.588 c0.877,0,1.588,0.711,1.588,1.588C14.584,4.297,13.873,5.007,12.996,5.007z"/></g></g></g><g mask="url(#visibility-invisible-path)"><g><path d="M9.325,5.321c-0.372-0.324-0.84-0.576-1.26-0.576c-0.432,0-0.647,0.168-0.647,0.468c0,0.852,3.25,0.923,3.25,3.094 c0,0.696-0.359,1.211-0.983,1.595c0.168,0.252,0.276,0.552,0.276,0.923c0,1.08-0.804,1.895-2.303,1.895 c-0.876,0-1.787-0.324-2.327-1.007l1.02-0.899c0.384,0.396,0.84,0.611,1.308,0.611c0.491,0,0.719-0.216,0.719-0.516 c0-0.936-3.154-0.852-3.154-3.106c0-0.6,0.372-1.175,0.96-1.535C5.967,6.017,5.835,5.693,5.835,5.273 c0-1.08,0.791-1.835,2.135-1.835c0.923,0,1.667,0.396,2.158,0.779L9.325,5.321z M8.774,9.159 c0.275-0.168,0.407-0.384,0.407-0.708c0-0.755-1.115-0.996-2.051-1.475c-0.275,0.18-0.42,0.408-0.42,0.695 C6.71,8.427,7.85,8.667,8.774,9.159z"/></g><path d="M8,1.001c-3.866,0-6.999,3.135-6.999,7.003C1.003,11.867,4.134,14.999,8,15.001 c3.867-0.002,7.001-3.134,7.001-6.997C15.001,4.136,11.867,1.001,8,1.001z M8,13.585c-3.083-0.006-5.577-2.5-5.583-5.581 C2.423,4.918,4.917,2.423,8,2.417c3.084,0.006,5.578,2.501,5.585,5.587C13.578,11.085,11.084,13.579,8,13.585z"/></g></svg>