<svg width="16" height="16" xmlns="http://www.w3.org/2000/svg" viewBox="0 0 16 16" shape-rendering="geometricPrecision" fill="#cb1800"><defs><mask id="a"><rect fill="#fff" width="100%" height="100%"/><path d="M12.997.858a4.809 4.809 0 0 0-4.253 2.563 4.81 4.81 0 0 0 8.506 0A4.812 4.812 0 0 0 12.997.858z" fill="#000"/></mask></defs><path d="M12.997 1.611a3.394 3.394 0 0 0-3.003 1.81 3.397 3.397 0 0 0 6.006 0 3.398 3.398 0 0 0-3.003-1.81zm-.001 3.396a1.587 1.587 0 1 1 0-3.174 1.587 1.587 0 0 1 0 3.174z"/><g mask="url(#a)"><path d="M11.473 1.006h1.042v13.987h-1.042zm-4.014 0h1.062v13.987H7.459zm-4.015 0h1.021v13.987H3.444z"/><path d="M10.499 8.527V6.5c0-.267.216-.483.483-.483h2.027c.267 0 .483.216.483.483v2.027a.483.483 0 0 1-.483.483h-2.027a.483.483 0 0 1-.483-.483zM6.495 5.519V3.487c0-.267.216-.483.483-.483H9.01c.267 0 .483.216.483.483v2.032a.483.483 0 0 1-.483.483H6.978a.483.483 0 0 1-.483-.483zm-4 6.998v-2.019c0-.267.216-.483.483-.483h2.019c.267 0 .483.216.483.483v2.019a.483.483 0 0 1-.483.483H2.978a.483.483 0 0 1-.483-.483z"/></g></svg>