<?xml version="1.0"?><!DOCTYPE svg PUBLIC "-//W3C//DTD SVG 1.1//EN" "http://www.w3.org/Graphics/SVG/1.1/DTD/svg11.dtd"><svg width="16px" height="16px" xmlns="http://www.w3.org/2000/svg" viewBox="0 0 16 16" shape-rendering="geometricPrecision" fill="#cb1800"><defs><mask id="visibility-invisible-path"><rect fill="#fff" width="100%" height="100%"/><path d="M12.997,0.858c-1.845,0-3.446,1.039-4.253,2.563c0.808,1.523,2.408,2.562,4.253,2.562 c1.844,0,3.444-1.039,4.253-2.562C16.441,1.897,14.841,0.858,12.997,0.858z" fill="#000"/></mask></defs><g id="visibility-invisible" display="inline" fill="#cb1800"><g><g><path d="M12.997,1.611c-1.303,0-2.433,0.733-3.003,1.81c0.57,1.075,1.7,1.809,3.003,1.809c1.302,0,2.432-0.733,3.003-1.809 C15.429,2.345,14.299,1.611,12.997,1.611z M12.996,5.007c-0.876,0-1.587-0.71-1.587-1.586c0-0.877,0.711-1.588,1.587-1.588 c0.877,0,1.588,0.711,1.588,1.588C14.584,4.297,13.873,5.007,12.996,5.007z"/></g></g></g><g mask="url(#visibility-invisible-path)"><path d="M14.358,9.706c0.144-0.543,0.228-1.109,0.228-1.697c0-3.633-2.945-6.578-6.578-6.578 c-0.586,0-1.151,0.086-1.691,0.229C5.776,1.282,5.12,1.061,4.411,1.061c-1.85,0-3.349,1.5-3.349,3.35 c0,0.709,0.222,1.365,0.597,1.906C1.515,6.858,1.432,7.423,1.432,8.009c0,3.633,2.945,6.578,6.578,6.578 c0.587,0,1.154-0.084,1.696-0.229c0.537,0.365,1.185,0.58,1.883,0.58c1.85,0,3.35-1.5,3.35-3.35 C14.938,10.89,14.724,10.241,14.358,9.706z M11.588,13.913c-0.468,0-0.92-0.139-1.306-0.402l-0.388-0.264l-0.453,0.121 c-0.484,0.129-0.967,0.193-1.433,0.193c-3.062,0-5.552-2.49-5.552-5.553c0-0.465,0.065-0.947,0.193-1.428l0.122-0.459L2.501,5.733 C2.23,5.343,2.087,4.886,2.087,4.411c0-1.281,1.042-2.324,2.324-2.324c0.475,0,0.932,0.145,1.322,0.414l0.39,0.271l0.458-0.123 c0.482-0.127,0.963-0.191,1.428-0.191c3.062,0,5.552,2.49,5.552,5.551c0,0.467-0.065,0.949-0.194,1.432l-0.121,0.453l0.265,0.389 c0.263,0.387,0.402,0.838,0.402,1.307C13.913,12.87,12.87,13.913,11.588,13.913z"/><path d="M10.719,8.46c-0.16-0.191-0.351-0.359-0.574-0.506C9.923,7.81,9.679,7.683,9.416,7.573 L8.214,7.067C8.032,6.993,7.854,6.921,7.682,6.843c-0.173-0.078-0.325-0.164-0.458-0.26C7.092,6.487,6.987,6.378,6.91,6.255 C6.833,6.132,6.794,5.983,6.794,5.812c0-0.326,0.125-0.584,0.375-0.772c0.25-0.188,0.59-0.279,1.018-0.279 c0.382,0,0.73,0.068,1.043,0.205c0.314,0.135,0.613,0.322,0.896,0.559l0.818-1.01c-0.346-0.346-0.76-0.621-1.242-0.826 C9.219,3.483,8.714,3.382,8.187,3.382c-0.437,0-0.838,0.065-1.202,0.191C6.621,3.7,6.307,3.878,6.043,4.104 C5.779,4.331,5.572,4.599,5.423,4.903c-0.151,0.305-0.226,0.635-0.226,0.99c0,0.328,0.052,0.619,0.157,0.873 c0.105,0.256,0.241,0.479,0.41,0.67c0.168,0.191,0.361,0.354,0.58,0.49c0.218,0.137,0.437,0.252,0.655,0.342l1.215,0.533 c0.2,0.082,0.387,0.162,0.56,0.246c0.172,0.08,0.32,0.17,0.444,0.264C9.34,9.407,9.436,9.52,9.504,9.647 c0.068,0.127,0.103,0.281,0.103,0.465c0,0.346-0.134,0.623-0.402,0.832c-0.269,0.209-0.653,0.312-1.154,0.312 c-0.418,0-0.833-0.092-1.242-0.279c-0.41-0.186-0.774-0.43-1.092-0.729l-0.915,1.078c0.428,0.418,0.919,0.742,1.475,0.969 c0.555,0.229,1.133,0.342,1.734,0.342c0.5,0,0.948-0.07,1.344-0.213c0.396-0.141,0.733-0.33,1.01-0.572 c0.278-0.24,0.49-0.521,0.636-0.84c0.146-0.318,0.218-0.66,0.218-1.023c0-0.328-0.043-0.617-0.129-0.867 C11.002,8.872,10.878,8.651,10.719,8.46z"/></g></svg>