<svg width="16" height="16" xmlns="http://www.w3.org/2000/svg" viewBox="0 0 16 16" shape-rendering="geometricPrecision" fill="#cb1800"><defs><mask id="a"><rect fill="#fff" width="100%" height="100%"/><path d="M12.997.858a4.809 4.809 0 0 0-4.253 2.563 4.81 4.81 0 0 0 8.506 0A4.812 4.812 0 0 0 12.997.858z" fill="#000"/></mask></defs><path d="M12.997 1.611a3.394 3.394 0 0 0-3.003 1.81 3.397 3.397 0 0 0 6.006 0 3.398 3.398 0 0 0-3.003-1.81zm-.001 3.396a1.587 1.587 0 1 1 0-3.174 1.587 1.587 0 0 1 0 3.174z"/><g mask="url(#a)"><path d="M13.1 6.144a2.124 2.124 0 1 0-4.248 0 2.124 2.124 0 0 0 4.248 0zm-6.147 5.18v2.661h8.045v-2.661a2.048 2.048 0 0 0-2.042-2.047H9.002a2.054 2.054 0 0 0-2.049 2.047zm.124-9.304h-4.97A1.07 1.07 0 0 0 1.04 3.087v2.771c0 .587.48 1.066 1.067 1.066h2.761c.052.07.864 1.12 2.327 1.347-.515-.46-.628-.963-.616-1.346h.498c.586 0 1.066-.479 1.066-1.066V3.087A1.07 1.07 0 0 0 7.077 2.02zM4.325 6.293h-.006c-.27 0-.457-.203-.457-.474 0-.28.192-.473.462-.473.281 0 .464.192.468.473a.451.451 0 0 1-.467.474zm.629-1.939c-.192.213-.27.416-.265.65v.093h-.691l-.006-.135c-.015-.265.072-.535.307-.811.167-.202.302-.369.302-.546 0-.182-.12-.302-.38-.312a.974.974 0 0 0-.514.156l-.177-.565c.192-.109.5-.214.868-.214.685 0 .997.379.997.812 0 .394-.243.654-.441.872z"/></g></svg>