<svg width="16" height="16" xmlns="http://www.w3.org/2000/svg" viewBox="0 0 16 16" shape-rendering="geometricPrecision"><defs><mask id="a"><rect fill="#fff" width="100%" height="100%"/><path d="M8.986 1.143H17v3.565H8.986z"/></mask></defs><path d="M9.986 2.143H16v1.565H9.986z" fill="#cb1800"/><path mask="url(#a)" d="M14.49 13.121L14.478 0H4.033c-1.376.003-2.498.619-2.52 1.987-.003.025-.003.529 0 .535v.003c0 .04.009.076.011.117h-.009v10.826A2.531 2.531 0 0 0 4.044 16h8.385l-.037-1.689-.01-11.345H4.033c-.496 0-1.68-.048-1.68-.979v-.094C2.404 1.008 3.537.841 4.033.841h9.593V13.12h.864zM7.678 4.504a2.147 2.147 0 1 1 0 4.294 2.148 2.148 0 1 1 0-4.294zM4.091 11.89a2.07 2.07 0 0 1 2.064-2.069h3c1.139 0 2.073.932 2.073 2.069v2.692H4.091V11.89z"/></svg>