<?xml version="1.0"?><!DOCTYPE svg PUBLIC "-//W3C//DTD SVG 1.1//EN" "http://www.w3.org/Graphics/SVG/1.1/DTD/svg11.dtd"><svg width="16px" height="16px" xmlns="http://www.w3.org/2000/svg" viewBox="0 0 16 16" shape-rendering="geometricPrecision" fill="#000"><defs><mask id="remove-path"><rect fill="#fff" width="100%" height="100%"/><rect x="8.986" y="1.143" width="8.014" height="3.565" fill="#000"/></mask></defs><g fill="#cb1800"><rect x="9.986" y="2.143" width="6.014" height="1.565"/></g><g mask="url(#remove-path)"><path d="M13.125,5.495v8h-12v-8H13.125 M14.125,4.495h-14v10h14V4.495L14.125,4.495z"/><polygon points="7.175,2.995 6.876,1.505 2.876,1.505 2.576,2.995 1.375,2.995 1.375,3.995 2.375,3.995 7.375,3.995 14.875,3.995 14.875,13.495 15.875,12.495 15.875,2.995"/><g><polygon points="5.574,12.574 6.148,12.084 5.502,11.826"/><rect x="4.9" y="8.98" transform="matrix(0.3723 -0.9281 0.9281 0.3723 -4.7363 12.3213)" width="3.682" height="1.366"/><path d="M8.022,6.466c-0.349-0.14-0.744,0.029-0.887,0.376L6.931,7.35L8.2,7.859L8.404,7.35H8.403 C8.541,7,8.371,6.604,8.022,6.466z"/></g></g></svg>