<svg width="16" height="16" xmlns="http://www.w3.org/2000/svg" viewBox="0 0 16 16" shape-rendering="geometricPrecision"><defs><mask id="a"><rect fill="#fff" width="100%" height="100%"/><path d="M8.986 1.143H17v3.565H8.986z"/></mask></defs><path d="M9.986 2.143H16v1.565H9.986z" fill="#cb1800"/><g mask="url(#a)"><path d="M10.479 0a5.521 5.521 0 0 0-5.521 5.521c0 .739.152 1.44.416 2.084L0 12.979V16h3.021v-2.042h1.958V12h2.042V9.821a5.496 5.496 0 0 0 3.458 1.221 5.521 5.521 0 0 0 0-11.042zm1.294 6.812a2.586 2.586 0 1 1 0-5.173 2.586 2.586 0 0 1 0 5.173z"/></g></svg>