<svg width="16" height="16" xmlns="http://www.w3.org/2000/svg" viewBox="0 0 16 16" shape-rendering="geometricPrecision"><defs><mask id="a"><rect fill="#fff" width="100%" height="100%"/><path d="M8.986 1.143H17v3.565H8.986z"/></mask></defs><path d="M9.986 2.143H16v1.565H9.986z" fill="#cb1800"/><g mask="url(#a)"><path d="M1.001 8.003a7 7 0 0 1 7-7.002v1.416a5.593 5.593 0 0 0-5.584 5.586 5.592 5.592 0 0 0 5.584 5.58 5.591 5.591 0 0 0 5.583-5.58 5.592 5.592 0 0 0-5.583-5.586V1.001a7 7 0 0 1 0 13.998 7 7 0 0 1-7-6.996z"/><path d="M8.463 8.001l-2.921 2.922 1.517 1.514 4.438-4.44L7.06 3.563 5.542 5.08z"/></g></svg>