<svg width="16" height="16" xmlns="http://www.w3.org/2000/svg" viewBox="0 0 16 16" shape-rendering="geometricPrecision"><defs><mask id="a"><rect fill="#fff" width="100%" height="100%"/><path d="M12.892-.396l-4.507 4.51 2.471 2.471 2.038-2.036 2.037 2.035 2.473-2.47z"/></mask></defs><path fill="#cb1800" d="M12.894 3.136l2.037 2.035 1.058-1.057-3.097-3.096-3.093 3.096 1.057 1.057z"/><path d="M7.99 15.033c-1.088 0-1.828-.8-1.828-1.868 0-1.088.759-1.868 1.848-1.868 1.088 0 1.807.78 1.827 1.868 0 1.068-.717 1.868-1.827 1.868h-.02zM6.84 10.27L6.368.967h3.265l-.452 9.303H6.84z" mask="url(#a)"/></svg>