<svg width="16" height="16" xmlns="http://www.w3.org/2000/svg" viewBox="0 0 16 16" shape-rendering="geometricPrecision"><defs><mask id="a"><rect fill="#fff" width="100%" height="100%"/><path d="M12.892-.396l-4.507 4.51 2.471 2.471 2.038-2.036 2.037 2.035 2.473-2.47z"/></mask></defs><path fill="#cb1800" d="M12.894 3.136l2.037 2.035 1.058-1.057-3.097-3.096-3.093 3.096 1.057 1.057z"/><g mask="url(#a)"><path d="M12.99 8.003A4.992 4.992 0 1 1 7.998 3.01L7.997.893A7.111 7.111 0 0 0 .892 8.002a7.109 7.109 0 0 0 14.215.001H12.99z"/><path d="M8.941 7.062l.001 3.916h2.035l-.002-5.956-5.951.002-.001 2.035z"/></g></svg>