<?xml version="1.0"?><!DOCTYPE svg PUBLIC "-//W3C//DTD SVG 1.1//EN" "http://www.w3.org/Graphics/SVG/1.1/DTD/svg11.dtd"><svg width="16px" height="16px" xmlns="http://www.w3.org/2000/svg" viewBox="0 0 16 16" shape-rendering="geometricPrecision" fill="#000"><defs><mask id="move_up-path"><rect fill="#fff" width="100%" height="100%"/><polygon points="12.892,-0.396 8.385,4.114 10.856,6.585 12.894,4.549 14.931,6.584 17.404,4.114 " fill="#000"/></mask></defs><polygon points="12.894,3.136 14.931,5.171 15.989,4.114 12.892,1.018 9.799,4.114 10.856,5.171 " fill="#cb1800"/><g mask="url(#move_up-path)"><g><g><g><path d="M8,12.965c-3.308,0-6.327-1.819-7.88-4.746L0.004,8.001L0.12,7.782C1.672,4.854,4.692,3.035,8,3.035 c3.306,0,6.326,1.819,7.88,4.747l0.117,0.219L15.88,8.22C14.325,11.147,11.306,12.965,8,12.965z M1.065,8.001 C2.487,10.494,5.121,12.032,8,12.032c2.877,0,5.511-1.538,6.935-4.031C13.511,5.507,10.877,3.968,8,3.968 C5.121,3.968,2.487,5.507,1.065,8.001z"/></g></g></g><polygon points="11.792,6.774 10.446,5.429 7.178,8.696 5.468,6.987 4.124,8.331 7.18,11.386"/></g></svg>