<svg width="16" height="16" xmlns="http://www.w3.org/2000/svg" viewBox="0 0 16 16" shape-rendering="geometricPrecision"><defs><mask id="a"><rect fill="#fff" width="100%" height="100%"/><path d="M12.892-.396l-4.507 4.51 2.471 2.471 2.038-2.036 2.037 2.035 2.473-2.47z"/></mask></defs><path fill="#cb1800" d="M12.894 3.136l2.037 2.035 1.058-1.057-3.097-3.096-3.093 3.096 1.057 1.057z"/><path d="M.995 14.003L14.01 1l.997.997L1.992 15zM7.59 3.71v2.121L9.714 3.71zM3.289 8.548v1.578l1.582-1.578zm3.105 3.558l-.61.61h.61zm4.3.61V7.81L7.59 10.911v1.805zm-7.195 2.285h11.496v-1.102H4.6zm8.393-8.389v6.104h3.103V6.435H12.07zm-9.797 4.705l.001-5.609H.995v7.141l.002-.434zm-1.1 3.684l.801-.002v.002h.195l-.996-.996z" mask="url(#a)"/></svg>