<svg width="16" height="16" xmlns="http://www.w3.org/2000/svg" viewBox="0 0 16 16" shape-rendering="geometricPrecision" fill="#ffad00"><defs><mask id="a"><rect fill="#fff" width="100%" height="100%"/><path fill="#000" d="M14.934-.397l-2.039 2.036-2.037-2.036-2.472 2.47 4.511 4.51 4.507-4.51z"/></mask></defs><path fill="#cb1800" d="M12.895 3.052l-2.037-2.035L9.8 2.073l3.097 3.096 3.093-3.096-1.057-1.056z"/><g mask="url(#a)"><path d="M4.463 15.971l1.491-1.274-1.676-.668zm-.393-3.783l3.557-8.867 3.289 1.32-3.557 8.866zM10.815.121a1.772 1.772 0 0 0-2.3.976l-.529 1.317 3.291 1.321.531-1.321h-.002a1.771 1.771 0 0 0-.991-2.293z"/></g></svg>