<svg width="16" height="16" xmlns="http://www.w3.org/2000/svg" viewBox="0 0 16 16" shape-rendering="geometricPrecision" fill="#ffad00"><defs><mask id="a"><rect fill="#fff" width="100%" height="100%"/><path fill="#000" d="M14.934-.397l-2.039 2.036-2.037-2.036-2.472 2.47 4.511 4.51 4.507-4.51z"/></mask></defs><path fill="#cb1800" d="M12.895 3.052l-2.037-2.035L9.8 2.073l3.097 3.096 3.093-3.096-1.057-1.056z"/><g mask="url(#a)"><path d="M8.009 4.685c-.991-2.585-6.25-2.471-6.001 1.65.087 1.41 1.178 2.589 2.687 3.96 2.26 2.058 3.315 2.755 3.315 2.755s1.051-.697 3.314-2.755c1.505-1.371 2.599-2.55 2.683-3.96C14.254 2.214 9 2.1 8.009 4.685z"/></g></svg>