<svg width="16" height="16" xmlns="http://www.w3.org/2000/svg" viewBox="0 0 16 16" shape-rendering="geometricPrecision" fill="#ffad00"><defs><mask id="a"><rect fill="#fff" width="100%" height="100%"/><path fill="#000" d="M14.934-.397l-2.039 2.036-2.037-2.036-2.472 2.47 4.511 4.51 4.507-4.51z"/></mask></defs><path fill="#cb1800" d="M12.895 3.052l-2.037-2.035L9.8 2.073l3.097 3.096 3.093-3.096-1.057-1.056z"/><g mask="url(#a)"><path d="M2.021 8.002a5.987 5.987 0 0 0 5.792 5.976V8.104L2.423 5.85a5.92 5.92 0 0 0-.402 2.152zm3.587-5.476a6.052 6.052 0 0 0-2.516 2.07l4.456 2.731-1.94-4.801zM8 2.022c-.343 0-.693.031-1.044.095l1.355 5.788.786 5.967c2.8-.521 4.881-3.001 4.881-5.87A5.984 5.984 0 0 0 8 2.022z"/></g></svg>