<svg width="16" height="16" xmlns="http://www.w3.org/2000/svg" viewBox="0 0 16 16" shape-rendering="geometricPrecision" fill="#6e6e6e"><defs><mask id="a"><rect fill="#fff" width="100%" height="100%"/><path fill="#000" d="M14.782 1.217V-1h-3.564v2.217H9V4.78h2.218v2.221h3.564V4.78H17V1.217z"/></mask></defs><path fill="#cb1800" d="M16 2.217h-2.218V0h-1.564v2.217H10V3.78h2.218v2.221h1.564V3.78H16z"/><g mask="url(#a)"><path d="M4.271 11.728l4.866-2.562L11.699 4.3 6.833 6.863l-2.562 4.865zm2.958-4.469a1.068 1.068 0 1 1 1.512 1.512 1.068 1.068 0 1 1-1.512-1.512z"/><path d="M8.001 1.01a6.99 6.99 0 0 0 0 13.979 6.99 6.99 0 0 0 0-13.979zm1.144 12.445L8 12.31l-1.145 1.145a5.588 5.588 0 0 1-4.31-4.309L3.69 8 2.546 6.855a5.588 5.588 0 0 1 4.309-4.31L8 3.69l1.145-1.145a5.59 5.59 0 0 1 4.31 4.31L12.31 8l1.146 1.146a5.585 5.585 0 0 1-4.311 4.309z"/></g></svg>