<svg width="16" height="16" xmlns="http://www.w3.org/2000/svg" viewBox="0 0 16 16" shape-rendering="geometricPrecision" fill="#6e6e6e"><defs><mask id="a"><rect fill="#fff" width="100%" height="100%"/><path fill="#000" d="M14.782 1.217V-1h-3.564v2.217H9V4.78h2.218v2.221h3.564V4.78H17V1.217z"/></mask></defs><path fill="#cb1800" d="M16 2.217h-2.218V0h-1.564v2.217H10V3.78h2.218v2.221h1.564V3.78H16z"/><path d="M7.999.973a6.997 6.997 0 1 0 .002 13.994A6.997 6.997 0 0 0 8 .973zm0 12.579a5.589 5.589 0 0 1-5.581-5.579 5.59 5.59 0 0 1 5.581-5.585 5.591 5.591 0 0 1 5.582 5.585 5.59 5.59 0 0 1-5.582 5.579zm.006-3.426c-.683 0-1.16.49-1.16 1.175 0 .671.464 1.172 1.147 1.172h.013c.698 0 1.148-.501 1.148-1.172-.01-.685-.462-1.175-1.148-1.175zm.736-.646l.286-5.845H6.974L7.27 9.48h1.471z" mask="url(#a)"/></svg>