<svg width="16" height="16" xmlns="http://www.w3.org/2000/svg" viewBox="0 0 16 16" shape-rendering="geometricPrecision" fill="#6e6e6e"><defs><mask id="a"><rect fill="#fff" width="100%" height="100%"/><path fill="#000" d="M14.782 1.217V-1h-3.564v2.217H9V4.78h2.218v2.221h3.564V4.78H17V1.217z"/></mask></defs><path fill="#cb1800" d="M16 2.217h-2.218V0h-1.564v2.217H10V3.78h2.218v2.221h1.564V3.78H16z"/><g mask="url(#a)"><path d="M10.021 15.177l3.437-3.165h-3.437z"/><path d="M2.02 0v16h7.021v-4.905h4.941V0H2.02zM13 9.97H8v5H3.083v-14H13v9z"/><path d="M10.502 9.017h-1.16L8.033 4.698l-1.31 4.318H5.564L3.666 1.899h1.449l1.099 4.488 1.299-4.488h1.04l1.299 4.488 1.109-4.488h1.449l-1.908 7.118z"/></g></svg>