<?xml version="1.0"?><!DOCTYPE svg PUBLIC "-//W3C//DTD SVG 1.1//EN" "http://www.w3.org/Graphics/SVG/1.1/DTD/svg11.dtd"><svg width="16px" height="16px" xmlns="http://www.w3.org/2000/svg" viewBox="0 0 16 16" shape-rendering="geometricPrecision" fill="#6e6e6e"><defs><mask id="add-path"><rect fill="#fff" width="100%" height="100%"/><polygon points="14.782,1.217 14.782,-1 11.218,-1 11.218,1.217 9,1.217 9,4.78 11.218,4.78 11.218,7.001 14.782,7.001 14.782,4.78 17,4.78 17,1.217 " fill="#000"/></mask></defs><polygon points="16,2.217 13.782,2.217 13.782,0 12.218,0 12.218,2.217 10,2.217 10,3.78 12.218,3.78 12.218,6.001 13.782,6.001 13.782,3.78 16,3.78 " fill="#cb1800"/><g mask="url(#add-path)"><g><polygon points="8.182,3.179 7.367,1.256 3.587,1.256 2.77,3.179 1.649,3.179 1.65,4.128 14.977,4.119 14.995,13.402 15.928,12.424 15.928,3.179"/><path d="M0.072,4.756V14h14.279V4.756H0.072z M13.25,12.929H1.041v-7H13.25V12.929z"/></g><g><circle cx="5.236" cy="8.478" r="0.722"/><path d="M5.564,9.543H4.905c-0.383,0-0.694,0.314-0.694,0.696v0.904H6.26v-0.904C6.26,9.857,5.947,9.543,5.564,9.543z"/><circle cx="8.83" cy="9.334" r="0.722"/><path d="M9.158,10.398H8.499c-0.383,0-0.694,0.314-0.694,0.696v0.905h2.049v-0.905C9.854,10.712,9.541,10.398,9.158,10.398z"/><circle cx="6.833" cy="7.68" r="0.722"/><path d="M7.858,10.345V9.44c0-0.382-0.313-0.696-0.696-0.696H6.502c-0.373,0-0.676,0.298-0.691,0.668 c0.357,0.107,0.62,0.435,0.62,0.827v0.105H7.858z"/></g></g></svg>