<svg width="16" height="16" xmlns="http://www.w3.org/2000/svg" viewBox="0 0 16 16" shape-rendering="geometricPrecision" fill="#6e6e6e"><defs><mask id="a"><rect fill="#fff" width="100%" height="100%"/><path fill="#000" d="M14.782 1.217V-1h-3.564v2.217H9V4.78h2.218v2.221h3.564V4.78H17V1.217z"/></mask></defs><path fill="#cb1800" d="M16 2.217h-2.218V0h-1.564v2.217H10V3.78h2.218v2.221h1.564V3.78H16z"/><g mask="url(#a)"><path d="M3.01 2.578L4.589 1l3.039 3.038L10.668 1l1.578 1.578-4.621 4.619zm-.99 7.127V16h11.148V9.684l-5.589 4.497L2.02 9.705zm0-1.607v.016l5.559 4.499 5.589-4.494v-.021H2.02z"/></g></svg>