<svg width="16" height="16" xmlns="http://www.w3.org/2000/svg" viewBox="0 0 16 16" shape-rendering="geometricPrecision" fill="#6e6e6e"><defs><mask id="a"><rect fill="#fff" width="100%" height="100%"/><path fill="#000" d="M14.782 1.217V-1h-3.564v2.217H9V4.78h2.218v2.221h3.564V4.78H17V1.217z"/></mask></defs><path fill="#cb1800" d="M16 2.217h-2.218V0h-1.564v2.217H10V3.78h2.218v2.221h1.564V3.78H16z"/><path d="M4.974 12.78h6.022c.786 0 1.423-.637 1.423-1.423V3.912c0-.786-.15-1.238-.921-1.423-.496-.122-1.537-.415-2.913-.486v-.399h1.066a.294.294 0 0 0 0-.588H6.318a.294.294 0 0 0 0 .588h1.066v.391c-1.756.046-2.252.294-2.912.494-.752.228-.921.637-.921 1.423v7.445c0 .786.637 1.423 1.423 1.423zm.908-1.368a.66.66 0 0 1-.65-.577c-.033.004-.065.01-.099.01a.81.81 0 1 1 .81-.81c0 .018-.004.034-.005.052a.663.663 0 0 1-.056 1.325zm4.888-.568c-.037 0-.072-.005-.107-.01a.66.66 0 0 1-.65.577.663.663 0 1 1-.056-1.325c-.001-.015-.005-.029-.005-.044a.81.81 0 1 1 .818.802zM4.303 4.826c0-.786.164-1.212.921-1.423.581-.161 1.569-.323 2.804-.323 1.074 0 2.122.182 2.704.324.764.186.921.637.921 1.423l-.019.06c.008.061.019.121.019.183l-.182 1.618c0 .786-.164 1.212-.921 1.423-.581.162-1.387.324-2.622.324-1.074 0-1.909-.182-2.491-.324-.764-.186-.921-.638-.921-1.423l-.213-1.619c0-.063.011-.123.019-.183l-.019-.06zm-.84 10.114h2.548v-1.827H4.969zm7.568-1.827H9.989v1.827h2.548z" mask="url(#a)"/></svg>