<svg width="16" height="16" xmlns="http://www.w3.org/2000/svg" viewBox="0 0 16 16" shape-rendering="geometricPrecision" fill="#6e6e6e"><defs><mask id="a"><rect fill="#fff" width="100%" height="100%"/><path fill="#000" d="M14.782 1.217V-1h-3.564v2.217H9V4.78h2.218v2.221h3.564V4.78H17V1.217z"/></mask></defs><path fill="#cb1800" d="M16 2.217h-2.218V0h-1.564v2.217H10V3.78h2.218v2.221h1.564V3.78H16z"/><path d="M2.991 14.879l11.856-4.523L11.871 7l-8.88 7.879zM0 1.473V16l1.618-1.436v-4.98h5.61l4.739-4.205 4.029 4.539.004-.002V1.473H0zm8.056 6.189H1.618V6.269h6.438v1.393zm6.327-2.844H1.618V3.426h12.765v1.392z" mask="url(#a)"/></svg>