<svg width="16" height="16" xmlns="http://www.w3.org/2000/svg" viewBox="0 0 16 16" shape-rendering="geometricPrecision" fill="#6e6e6e"><defs><mask id="a"><rect fill="#fff" width="100%" height="100%"/><path fill="#000" d="M14.782 1.217V-1h-3.564v2.217H9V4.78h2.218v2.221h3.564V4.78H17V1.217z"/></mask></defs><path fill="#cb1800" d="M16 2.217h-2.218V0h-1.564v2.217H10V3.78h2.218v2.221h1.564V3.78H16z"/><path d="M10.692 3.736H7.596v8.984h3.096V3.736zM6.403 8.562H3.305v4.158h3.098V8.562zm5.484-2.109v6.268h3.096V6.453h-3.096zM2.115 5.73H1.017V15l.799-.002V15h13.167v-1.1H2.114l.001-8.17z" mask="url(#a)"/></svg>