<svg width="16" height="16" xmlns="http://www.w3.org/2000/svg" viewBox="0 0 16 16" shape-rendering="geometricPrecision"><defs><mask id="a"><rect fill="#fff" width="100%" height="100%"/><path d="M14.258-1.414l-3.229 3.227-1.69-1.69-2.74 2.743 4.432 4.433L17 1.329z"/></mask></defs><path fill="#cb1800" d="M15.586 1.33L14.258 0l-3.229 3.228L9.34 1.539 8.013 2.867l3.018 3.019z"/><path mask="url(#a)" d="M0 0v16h16V0H0zm15 7.876h-1.652l-1.284-2.625-1.32 2.625h-1.1l-.215.59L8.03 4.205l-1.868 7.419L4.268 1H15v6.876zM4.22 1L2.129 7.876H1V1h3.22zM1 8.876h1.87l1.127-3.701L5.751 15H1V8.876zM6.36 15l1.797-7.203 1.222 3.722.964-2.643h1.017l.691-1.375.672 1.375H15V15H6.36z"/></svg>