<svg width="16" height="16" xmlns="http://www.w3.org/2000/svg" viewBox="0 0 16 16" shape-rendering="geometricPrecision"><defs><mask id="a"><rect fill="#fff" width="100%" height="100%"/><path d="M14.258-1.414l-3.229 3.227-1.69-1.69-2.74 2.743 4.432 4.433L17 1.329z"/></mask></defs><path fill="#cb1800" d="M15.586 1.33L14.258 0l-3.229 3.228L9.34 1.539 8.013 2.867l3.018 3.019z"/><path d="M1.935 1.982V14h3.031V1.982H1.935zm1.516 10.046a.923.923 0 1 1 0-1.848.923.923 0 0 1 0 1.848zM5.993 1.982V14h3.029V1.982H5.993zm1.515 10.046a.922.922 0 1 1 0-1.845.92.92 0 0 1 .922.923.92.92 0 0 1-.922.922zm2.493-10.046V14h3.076V1.982h-3.076zm1.539 10.017a.937.937 0 1 1 0-1.875.937.937 0 1 1 0 1.875z" mask="url(#a)"/></svg>