<svg width="16" height="16" xmlns="http://www.w3.org/2000/svg" viewBox="0 0 16 16" shape-rendering="geometricPrecision"><defs><mask id="a"><rect fill="#fff" width="100%" height="100%"/><path d="M14.258-1.414l-3.229 3.227-1.69-1.69-2.74 2.743 4.432 4.433L17 1.329z"/></mask></defs><path fill="#cb1800" d="M15.586 1.33L14.258 0l-3.229 3.228L9.34 1.539 8.013 2.867l3.018 3.019z"/><g mask="url(#a)"><path d="M10.055 14.302l2.54-2.338h-2.54z"/><path d="M2.595 1.016v13.969h6.008v-4.468h4.802V1.016H2.595zm9.439 8.027h-4.79v4.601H3.917V2.318h8.116v6.725z"/><path d="M9.709 7.916h-.8l-.905-2.982L7.1 7.916h-.801L4.988 3h1.001l.759 3.101L7.645 3h.718l.897 3.101L10.027 3h1.001L9.709 7.916z"/></g></svg>