<svg width="16" height="16" xmlns="http://www.w3.org/2000/svg" viewBox="0 0 16 16" shape-rendering="geometricPrecision"><defs><mask id="a"><rect fill="#fff" width="100%" height="100%"/><path d="M14.258-1.414l-3.229 3.227-1.69-1.69-2.74 2.743 4.432 4.433L17 1.329z"/></mask></defs><path fill="#cb1800" d="M15.586 1.33L14.258 0l-3.229 3.228L9.34 1.539 8.013 2.867l3.018 3.019z"/><path d="M11.231 3.39c.003-.045.008-.09.008-.137A3.24 3.24 0 0 0 7.999.012a3.234 3.234 0 0 0-3.031 2.104l1.31.401a1.872 1.872 0 1 1 3.024 2.078c-.584.621-1.028.621-2.174 1.236-1.828.982-2.273 2.51-2.37 3.412v6.745h6.483v-12.6h-.011v.002zm-.812 10.615l-1.02 1.023-1.452-1.453-1.452 1.454-1.023-1.024 1.453-1.453-1.452-1.451 1.022-1.022 1.451 1.452 1.453-1.452 1.02 1.022-1.452 1.451 1.452 1.453z" mask="url(#a)"/></svg>