<svg width="16" height="16" xmlns="http://www.w3.org/2000/svg" viewBox="0 0 16 16" shape-rendering="geometricPrecision"><defs><mask id="a"><rect fill="#fff" width="100%" height="100%"/><path d="M14.258-1.414l-3.229 3.227-1.69-1.69-2.74 2.743 4.432 4.433L17 1.329z"/></mask></defs><path fill="#cb1800" d="M15.586 1.33L14.258 0l-3.229 3.228L9.34 1.539 8.013 2.867l3.018 3.019z"/><g mask="url(#a)"><path d="M1.021 1.02v2.617c3.137 0 5.964 1.267 8.021 3.32a11.31 11.31 0 0 1 3.321 8.021h2.617C14.978 7.27 8.73 1.022 1.021 1.02zm0 4.709v2.613a6.647 6.647 0 0 1 6.635 6.637h2.616a9.251 9.251 0 0 0-9.251-9.25zM2.9 11.222a1.88 1.88 0 1 0 .001 3.757 1.88 1.88 0 0 0-.001-3.757z"/></g></svg>