<svg width="16" height="16" xmlns="http://www.w3.org/2000/svg" viewBox="0 0 16 16" shape-rendering="geometricPrecision"><defs><mask id="a"><rect fill="#fff" width="100%" height="100%"/><path d="M14.258-1.414l-3.229 3.227-1.69-1.69-2.74 2.743 4.432 4.433L17 1.329z"/></mask></defs><path fill="#cb1800" d="M15.586 1.33L14.258 0l-3.229 3.228L9.34 1.539 8.013 2.867l3.018 3.019z"/><path d="M15.235 11.444L9.643 5.85a4.861 4.861 0 0 0-1.327-4.418C6.997.114 5.122-.271 3.457.23l3.349 3.353L3.56 6.828.211 3.475c-.5 1.667-.114 3.541 1.198 4.86 1.2 1.2 2.87 1.64 4.418 1.329l5.59 5.588c.987.986 2.634.934 3.692-.124 1.053-1.052 1.107-2.705.126-3.684z" mask="url(#a)"/></svg>