<svg width="16" height="16" xmlns="http://www.w3.org/2000/svg" viewBox="0 0 16 16" shape-rendering="geometricPrecision"><defs><mask id="a"><rect fill="#fff" width="100%" height="100%"/><path d="M14.258-1.414l-3.229 3.227-1.69-1.69-2.74 2.743 4.432 4.433L17 1.329z"/></mask></defs><path fill="#cb1800" d="M15.586 1.33L14.258 0l-3.229 3.228L9.34 1.539 8.013 2.867l3.018 3.019z"/><g mask="url(#a)"><path d="M9.759 2.438V1.03H6.24v1.408H2.717v1.917h10.565V2.438H9.759zM3.661 14.97h8.645V5.388H3.661v9.582zm6.163-8.075h1.016v6.567H9.824V6.895zm-2.35 0h1.017v6.567H7.474V6.895zm-2.349 0h1.016v6.567H5.125V6.895z"/></g></svg>