<svg width="16" height="16" xmlns="http://www.w3.org/2000/svg" viewBox="0 0 16 16" shape-rendering="geometricPrecision"><defs><mask id="a"><rect fill="#fff" width="100%" height="100%"/><path d="M19.079 1.436h-4.914l-1.516-4.674-1.519 4.674H6.217l3.975 2.886-1.516 4.673 3.972-2.888 3.972 2.889-1.516-4.674z"/></mask></defs><path fill="#cb1800" d="M13.928 3.94L16 2.435h-2.561L12.648 0l-.791 2.435H9.295l2.072 1.505-.79 2.437 2.071-1.506 2.071 1.506z"/><path d="M8 1.001a7 7 0 1 0 .003 14 7 7 0 0 0-.003-14zm-.823 10.148l-3.231-3.23 1.419-1.422 1.81 1.806 3.456-3.454 1.423 1.423-4.877 4.877z" mask="url(#a)"/></svg>