<svg width="16" height="16" xmlns="http://www.w3.org/2000/svg" viewBox="0 0 16 16" shape-rendering="geometricPrecision"><defs><mask id="a"><rect fill="#fff" width="100%" height="100%"/><path d="M19.079 1.436h-4.914l-1.516-4.674-1.519 4.674H6.217l3.975 2.886-1.516 4.673 3.972-2.888 3.972 2.889-1.516-4.674z"/></mask></defs><path fill="#cb1800" d="M13.928 3.94L16 2.435h-2.561L12.648 0l-.791 2.435H9.295l2.072 1.505-.79 2.437 2.071-1.506 2.071 1.506z"/><path d="M11.805 2.414a1.772 1.772 0 1 0-3.29-1.317l-.529 1.317 3.291 1.321.531-1.321h-.003zM4.463 15.971l1.491-1.273-1.676-.668.185 1.941zm-.391-3.782l3.289 1.319 3.554-8.869-3.29-1.318-3.553 8.868z" mask="url(#a)"/></svg>