<svg width="16" height="16" xmlns="http://www.w3.org/2000/svg" viewBox="0 0 16 16" shape-rendering="geometricPrecision"><defs><mask id="a"><rect fill="#fff" width="100%" height="100%"/><path d="M19.079 1.436h-4.914l-1.516-4.674-1.519 4.674H6.217l3.975 2.886-1.516 4.673 3.972-2.888 3.972 2.889-1.516-4.674z"/></mask></defs><path fill="#cb1800" d="M13.928 3.94L16 2.435h-2.561L12.648 0l-.791 2.435H9.295l2.072 1.505-.79 2.437 2.071-1.506 2.071 1.506z"/><g mask="url(#a)"><path d="M8.78 5.833v-.375H7.164v.375H5.585v5.626h4.811V5.833H8.78zm.977 5.029H6.224V6.431h.94v.141H8.78v-.141h.977v4.431z"/><path d="M6.788 8.06h2.405v.758H6.788zm0 1.126h2.405v.787H6.788z"/><path d="M6.799 3.47L6.5 1.979h-4L2.2 3.47H.999v10h14v-10h-8.2zm7.201 9H2v-8h12v8z"/></g></svg>