<svg width="16" height="16" xmlns="http://www.w3.org/2000/svg" viewBox="0 0 16 16" shape-rendering="geometricPrecision"><defs><mask id="a"><rect fill="#fff" width="100%" height="100%"/><path d="M19.079 1.436h-4.914l-1.516-4.674-1.519 4.674H6.217l3.975 2.886-1.516 4.673 3.972-2.888 3.972 2.889-1.516-4.674z"/></mask></defs><path fill="#cb1800" d="M13.928 3.94L16 2.435h-2.561L12.648 0l-.791 2.435H9.295l2.072 1.505-.79 2.437 2.071-1.506 2.071 1.506z"/><path d="M6.867 9.283a2.493 2.493 0 0 0 2.497-2.495 2.493 2.493 0 0 0-2.497-2.494 2.496 2.496 0 1 0 0 4.989zm2.319 1.186H4.541a2.406 2.406 0 0 0-2.398 2.404V16h9.45v-3.127a2.413 2.413 0 0 0-2.407-2.404zM7.641 0v1.125c1.349 0 2.564.545 3.448 1.428a4.86 4.86 0 0 1 1.428 3.449h1.125A6.002 6.002 0 0 0 7.641 0zm0 2.025v1.122a2.859 2.859 0 0 1 2.852 2.855h1.125a3.977 3.977 0 0 0-3.977-3.977z" mask="url(#a)"/></svg>