<svg width="16" height="16" xmlns="http://www.w3.org/2000/svg" viewBox="0 0 16 16" shape-rendering="geometricPrecision" fill="#24437c"><defs><mask id="a"><rect fill="#fff" width="100%" height="100%"/><path fill="#000" d="M16.383 1.058l-2.47-2.473-4.51 4.512 4.511 4.506 2.469-2.469-2.035-2.039z"/></mask></defs><path fill="#cb1800" d="M12.935 3.095l2.035-2.037L13.913 0l-3.096 3.097 3.096 3.092 1.057-1.056z"/><g mask="url(#a)"><path d="M5.295 3.817V7.67L2.909 9.059l.944 1.652 3.328-1.932h.02l-.003-4.961z"/><path d="M9.791 1.79h-3.58a6.211 6.211 0 0 0 0 12.421h3.58a6.21 6.21 0 0 0 0-12.421zm-3.58 11.163a4.961 4.961 0 0 1-4.955-4.951 4.962 4.962 0 0 1 4.955-4.956 4.96 4.96 0 0 1 4.953 4.956 4.96 4.96 0 0 1-4.953 4.951zm3.744-.008a6.196 6.196 0 0 0 2.465-4.942 6.195 6.195 0 0 0-2.464-4.947 4.956 4.956 0 0 1 4.788 4.947 4.956 4.956 0 0 1-4.789 4.942z"/></g></svg>