<svg width="16" height="16" xmlns="http://www.w3.org/2000/svg" viewBox="0 0 16 16" shape-rendering="geometricPrecision" fill="#24437c"><defs><mask id="a"><rect fill="#fff" width="100%" height="100%"/><path fill="#000" d="M16.383 1.058l-2.47-2.473-4.51 4.512 4.511 4.506 2.469-2.469-2.035-2.039z"/></mask></defs><path fill="#cb1800" d="M12.935 3.095l2.035-2.037L13.913 0l-3.096 3.097 3.096 3.092 1.057-1.056z"/><g mask="url(#a)"><path d="M8.004 1.011a6.995 6.995 0 1 0 .003 13.99 6.995 6.995 0 0 0-.003-13.99zm0 12.575a5.588 5.588 0 0 1-5.578-5.578 5.587 5.587 0 0 1 5.578-5.582 5.588 5.588 0 0 1 5.58 5.582 5.59 5.59 0 0 1-5.58 5.578z"/><path d="M3.904 8.345h.726s-.023-.2-.023-.353c0-.127.023-.373.023-.373h-.726V6.72h.877a4.115 4.115 0 0 1 3.998-3.006c.62 0 1.158.152 1.158.152l-.363 1.368s-.396-.117-.83-.117c-1.11 0-1.975.62-2.35 1.602h2.911l-.186.9H6.186s-.025.176-.025.352c0 .129.036.374.036.374h2.781l-.175.888H6.465a2.45 2.45 0 0 0 2.338 1.637c.607 0 1.124-.176 1.124-.176l.268 1.379s-.61.223-1.415.223c-1.999 0-3.52-1.25-3.998-3.062h-.878v-.889z"/></g></svg>