<svg width="16" height="16" xmlns="http://www.w3.org/2000/svg" viewBox="0 0 16 16" shape-rendering="geometricPrecision" fill="#24437c"><defs><mask id="a"><rect fill="#fff" width="100%" height="100%"/><path fill="#000" d="M16.383 1.058l-2.47-2.473-4.51 4.512 4.511 4.506 2.469-2.469-2.035-2.039z"/></mask></defs><path fill="#cb1800" d="M12.935 3.095l2.035-2.037L13.913 0l-3.096 3.097 3.096 3.092 1.057-1.056z"/><g mask="url(#a)"><path d="M14.938 8.001a6.94 6.94 0 1 0-13.878 0 6.94 6.94 0 0 0 13.878 0zm-12.472 0a5.543 5.543 0 0 1 5.531-5.536 5.544 5.544 0 0 1 5.537 5.536 5.543 5.543 0 0 1-5.537 5.534 5.54 5.54 0 0 1-5.531-5.534z"/><path d="M8 8.001h4.673A4.682 4.682 0 0 0 8 3.327v4.674z"/></g></svg>