<svg width="16" height="16" xmlns="http://www.w3.org/2000/svg" viewBox="0 0 16 16" shape-rendering="geometricPrecision" fill="#6e6e6e"><defs><mask id="a"><rect fill="#fff" width="100%" height="100%"/><path fill="#000" d="M11.875-1.414l-2.47 2.47 2.035 2.039-2.035 2.037 2.47 2.472 4.51-4.511z"/></mask></defs><path fill="#cb1800" d="M11.875 0l-1.057 1.057 2.035 2.038-2.035 2.037 1.057 1.057 3.095-3.096z"/><g mask="url(#a)"><path d="M6.133 5.138c.686 0 1.262.339 1.634.72l-.686.77c-.279-.254-.542-.414-.931-.414-.771 0-1.372.669-1.372 1.778 0 1.134.534 1.795 1.338 1.795.457 0 .778-.195 1.049-.491l.686.753a2.252 2.252 0 0 1-1.753.813c-1.431 0-2.599-.973-2.599-2.828.001-1.829 1.212-2.896 2.634-2.896zM10.573 5.138c.686 0 1.262.339 1.634.72l-.686.77c-.279-.254-.542-.415-.931-.415-.771 0-1.372.669-1.372 1.778 0 1.134.534 1.795 1.338 1.795.457 0 .778-.195 1.049-.491l.686.753a2.252 2.252 0 0 1-1.753.813c-1.431 0-2.599-.973-2.599-2.828.001-1.828 1.212-2.895 2.634-2.895z"/><path d="M8 1.001a7 7 0 1 0 .003 14 7 7 0 0 0-.003-14zm0 12.584a5.59 5.59 0 0 1-5.583-5.581A5.593 5.593 0 0 1 8 2.417a5.594 5.594 0 0 1 5.585 5.587A5.593 5.593 0 0 1 8 13.585z"/></g></svg>