<?xml version="1.0"?><!DOCTYPE svg PUBLIC "-//W3C//DTD SVG 1.1//EN" "http://www.w3.org/Graphics/SVG/1.1/DTD/svg11.dtd"><svg width="16px" height="16px" xmlns="http://www.w3.org/2000/svg" viewBox="0 0 16 16" shape-rendering="geometricPrecision" fill="#6e6e6e"><defs><mask id="move_right-path"><rect fill="#fff" width="100%" height="100%"/><polygon points="11.875,-1.414 9.405,1.056 11.44,3.095 9.405,5.132 11.875,7.604 16.385,3.093 " fill="#000"/></mask></defs><polygon points="11.875,0 10.818,1.057 12.853,3.095 10.818,5.132 11.875,6.189 14.97,3.093 " fill="#cb1800"/><g mask="url(#move_right-path)"><g><polygon points="7.065,12.458 2,12.458 2,4.458 7,4.458 8.609,4.458 8.802,3.458 6.799,3.458 6.5,1.967 2.5,1.967 2.201,3.458 1,3.458 1,13.458 6.872,13.458"/><polygon points="9.82,4 9.627,5 14,5 14,13 8.083,13 7.89,14 15,14 15,4"/></g></g></svg>