<?xml version="1.0"?><!DOCTYPE svg PUBLIC "-//W3C//DTD SVG 1.1//EN" "http://www.w3.org/Graphics/SVG/1.1/DTD/svg11.dtd"><svg width="16px" height="16px" xmlns="http://www.w3.org/2000/svg" viewBox="0 0 16 16" shape-rendering="geometricPrecision" fill="#6e6e6e"><defs><mask id="move_right-path"><rect fill="#fff" width="100%" height="100%"/><polygon points="11.875,-1.414 9.405,1.056 11.44,3.095 9.405,5.132 11.875,7.604 16.385,3.093 " fill="#000"/></mask></defs><polygon points="11.875,0 10.818,1.057 12.853,3.095 10.818,5.132 11.875,6.189 14.97,3.093 " fill="#cb1800"/><g mask="url(#move_right-path)"><g><g><rect x="1" y="11.479" width="13.987" height="1.042"/></g><g><rect x="1" y="7.465" width="13.987" height="1.062"/></g><g><rect x="1" y="3.45" width="13.987" height="1.021"/></g><path d="M7.466,10.505h2.027c0.267,0,0.483,0.216,0.483,0.483v2.027c0,0.267-0.216,0.483-0.483,0.483H7.466 c-0.267,0-0.483-0.216-0.483-0.483v-2.027C6.983,10.721,7.2,10.505,7.466,10.505z"/><path d="M10.474,6.501h2.032c0.267,0,0.483,0.216,0.483,0.483v2.032c0,0.267-0.216,0.483-0.483,0.483h-2.032 c-0.267,0-0.483-0.216-0.483-0.483V6.984C9.991,6.717,10.208,6.501,10.474,6.501z"/><path d="M3.477,2.502h2.019c0.267,0,0.483,0.216,0.483,0.483v2.019c0,0.267-0.216,0.483-0.483,0.483H3.477 c-0.267,0-0.483-0.216-0.483-0.483V2.985C2.994,2.718,3.21,2.502,3.477,2.502z"/></g></g></svg>