<svg width="16" height="16" xmlns="http://www.w3.org/2000/svg" viewBox="0 0 16 16" shape-rendering="geometricPrecision" fill="#6e6e6e"><defs><mask id="a"><rect fill="#fff" width="100%" height="100%"/><path fill="#000" d="M11.875-1.414l-2.47 2.47 2.035 2.039-2.035 2.037 2.47 2.472 4.51-4.511z"/></mask></defs><path fill="#cb1800" d="M11.875 0l-1.057 1.057 2.035 2.038-2.035 2.037 1.057 1.057 3.095-3.096z"/><path d="M13.237 5.237l-1.791 1.791-3.447-3.445-3.448 3.445-1.789-1.791L8.002 0zM0 8v6.929h16V8H0zm14.413 5.495H1.588v-4.06h12.825v4.06zm-2.387-1.517a.934.934 0 0 0 .939-.93.934.934 0 0 0-.939-.931.935.935 0 0 0-.941.931c0 .513.42.93.941.93z" mask="url(#a)"/></svg>