<?xml version="1.0"?><!DOCTYPE svg PUBLIC "-//W3C//DTD SVG 1.1//EN" "http://www.w3.org/Graphics/SVG/1.1/DTD/svg11.dtd"><svg width="16px" height="16px" xmlns="http://www.w3.org/2000/svg" viewBox="0 0 16 16" shape-rendering="geometricPrecision" fill="#cb1800"><defs><mask id="accept-path"><rect fill="#fff" width="100%" height="100%"/><polygon points="14.258,-1.414 11.029,1.813 9.339,0.123 6.599,2.866 11.031,7.299 17,1.329 " fill="#000"/></mask></defs><polygon points="15.586,1.33 14.258,0 11.029,3.228 9.34,1.539 8.013,2.867 11.031,5.886 " fill="#cb1800"/><g mask="url(#accept-path)"><g><path d="M3.446,8.977c0.252,0.232,0.55,0.418,0.908,0.418c0.431,0,0.709-0.226,0.709-0.656c0-0.424-0.272-0.65-0.663-0.65 c-0.246,0-0.371,0.053-0.623,0.212L3.34,8.023l0.119-2.127h2.386v0.822H4.3L4.227,7.507c0.159-0.073,0.298-0.1,0.471-0.1 c0.723,0,1.339,0.411,1.339,1.306c0,0.934-0.723,1.471-1.544,1.471c-0.689,0-1.153-0.258-1.484-0.59L3.446,8.977z"/><path d="M6.602,9.547c1.074-1.014,1.829-1.736,1.829-2.333c0-0.411-0.232-0.636-0.596-0.636c-0.305,0-0.537,0.206-0.749,0.431 l-0.53-0.523c0.418-0.444,0.809-0.669,1.412-0.669c0.829,0,1.392,0.53,1.392,1.339c0,0.709-0.663,1.464-1.345,2.18 c0.212-0.026,0.504-0.053,0.703-0.053h0.848v0.822H6.602V9.547z"/><path d="M12.018,7.99c-0.02-0.291-0.166-0.477-0.517-0.477c-0.278,0-0.557,0.113-0.875,0.298l-0.345-0.643 c0.418-0.252,0.888-0.431,1.405-0.431c0.841,0,1.305,0.477,1.305,1.484v1.882h-0.795l-0.073-0.338h-0.02 c-0.278,0.246-0.59,0.418-0.96,0.418c-0.597,0-0.974-0.437-0.974-0.994C10.169,8.5,10.719,8.123,12.018,7.99z M11.475,9.428 c0.225,0,0.371-0.106,0.543-0.278V8.573c-0.696,0.093-0.921,0.291-0.921,0.543C11.097,9.329,11.243,9.428,11.475,9.428z"/></g><path d="M7.999,0.97c-3.882,0-7.029,3.147-7.029,7.033c0.001,3.881,3.147,7.025,7.029,7.027 c3.883-0.002,7.031-3.146,7.031-7.027C15.03,4.116,11.882,0.97,7.999,0.97z M7.999,13.608c-3.096-0.006-5.601-2.512-5.607-5.605 c0.006-3.1,2.511-5.606,5.607-5.611c3.098,0.006,5.603,2.512,5.609,5.611C13.602,11.097,11.097,13.603,7.999,13.608z"/></g></svg>