<svg width="16" height="16" xmlns="http://www.w3.org/2000/svg" viewBox="0 0 16 16" shape-rendering="geometricPrecision" fill="#cb1800"><defs><mask id="a"><rect fill="#fff" width="100%" height="100%"/><path fill="#000" d="M14.258-1.414l-3.229 3.227-1.69-1.69-2.74 2.743 4.432 4.433L17 1.329z"/></mask></defs><path d="M15.586 1.33L14.258 0l-3.229 3.228L9.34 1.539 8.013 2.867l3.018 3.019z"/><path d="M11.805 2.414a1.772 1.772 0 1 0-3.29-1.317l-.529 1.317 3.291 1.321.531-1.321h-.003zM4.463 15.971l1.491-1.273-1.676-.668.185 1.941zm-.391-3.782l3.289 1.319 3.554-8.869-3.29-1.318-3.553 8.868z" mask="url(#a)"/></svg>