<svg width="16" height="16" xmlns="http://www.w3.org/2000/svg" viewBox="0 0 16 16" shape-rendering="geometricPrecision" fill="#cb1800"><defs><mask id="a"><rect fill="#fff" width="100%" height="100%"/><path fill="#000" d="M14.258-1.414l-3.229 3.227-1.69-1.69-2.74 2.743 4.432 4.433L17 1.329z"/></mask></defs><path d="M15.586 1.33L14.258 0l-3.229 3.228L9.34 1.539 8.013 2.867l3.018 3.019z"/><path mask="url(#a)" d="M8.255 6.028v-.806c0-1.318.144-1.61 1.711-1.61h2.025L12 .994H8.562c-1.913 0-2.85 1.02-2.85 2.983v2.051H4.229v2.617h1.483v6.284l2.497.006c.007-3.073.021-6.29.021-6.29h3.75l.012-2.617H8.255z"/></svg>