<?xml version="1.0"?><!DOCTYPE svg PUBLIC "-//W3C//DTD SVG 1.1//EN" "http://www.w3.org/Graphics/SVG/1.1/DTD/svg11.dtd"><svg width="16px" height="16px" xmlns="http://www.w3.org/2000/svg" viewBox="0 0 16 16" shape-rendering="geometricPrecision" fill="#cb1800"><defs><mask id="accept-path"><rect fill="#fff" width="100%" height="100%"/><polygon points="14.258,-1.414 11.029,1.813 9.339,0.123 6.599,2.866 11.031,7.299 17,1.329 " fill="#000"/></mask></defs><polygon points="15.586,1.33 14.258,0 11.029,3.228 9.34,1.539 8.013,2.867 11.031,5.886 " fill="#cb1800"/><g mask="url(#accept-path)"><path d="M13.125,5.495v8h-12v-8H13.125 M14.125,4.495h-14v10h14V4.495L14.125,4.495z"/><polygon points="7.175,2.995 6.876,1.505 2.876,1.505 2.576,2.995 1.375,2.995 1.375,3.995 2.375,3.995 7.375,3.995 14.875,3.995 14.875,13.495 15.875,12.495 15.875,2.995"/><g><path d="M5.919,8.172c0-0.604,0.489-1.091,1.092-1.091c0.602,0,1.091,0.488,1.091,1.091v0.542h0.667V8.172 c0-0.971-0.787-1.759-1.758-1.759c-0.971,0-1.759,0.788-1.759,1.759v0.542h0.667V8.172z M4.68,9.177v3.401h4.66V9.177H4.68z M7.421,11.443c0,0.226-0.183,0.409-0.409,0.409c-0.227,0-0.412-0.183-0.412-0.409v-1.13c0-0.225,0.184-0.409,0.41-0.409 c0.228,0,0.411,0.184,0.411,0.409V11.443z"/></g></g></svg>