<svg width="16" height="16" xmlns="http://www.w3.org/2000/svg" viewBox="0 0 16 16" shape-rendering="geometricPrecision" fill="#cb1800"><defs><mask id="a"><rect fill="#fff" width="100%" height="100%"/><path fill="#000" d="M14.258-1.414l-3.229 3.227-1.69-1.69-2.74 2.743 4.432 4.433L17 1.329z"/></mask></defs><path d="M15.586 1.33L14.258 0l-3.229 3.228L9.34 1.539 8.013 2.867l3.018 3.019z"/><g mask="url(#a)"><path d="M13.997 2.942v9.965H2.958V2.942h11.039m1-1H1.958v11.965h13.039V1.942z"/><path d="M1.958 4.061h13.054v1.064H1.958z"/><path d="M5.871 4.061h1.064v9.576H5.871zm4.231 0h1.064v9.576h-1.064zM3.985 5.89h1.106v1.106H3.985zm0 5h1.106v1.106H3.985zm3.947-2.041h1.106v1.106H7.932zm0-1.853h1.106v1.106H7.932zm4.01 2.959h1.106v1.106h-1.106zm0-1.955h1.106v1.106h-1.106z"/></g></svg>