<?xml version="1.0"?><!DOCTYPE svg PUBLIC "-//W3C//DTD SVG 1.1//EN" "http://www.w3.org/Graphics/SVG/1.1/DTD/svg11.dtd"><svg width="16px" height="16px" xmlns="http://www.w3.org/2000/svg" viewBox="0 0 16 16" shape-rendering="geometricPrecision" fill="#24437c"><defs><mask id="visibility-visible-path"><rect fill="#fff" width="100%" height="100%"/><path d="M12.997,0.858c-1.845,0-3.446,1.039-4.253,2.563c0.808,1.523,2.408,2.562,4.253,2.562 c1.844,0,3.444-1.039,4.253-2.562C16.441,1.897,14.841,0.858,12.997,0.858z" fill="#000"/></mask></defs><path display="inline" d="M12.971,1.607c-1.315,0-2.454,0.74-3.029,1.825 c0.575,1.085,1.715,1.825,3.029,1.825c1.314,0,2.453-0.74,3.029-1.825C15.424,2.348,14.284,1.607,12.971,1.607z" fill="#cb1800"/><path mask="url(#visibility-visible-path)" d="M0,0v16h16V0H0z M15,7.876h-1.652l-1.284-2.625l-1.32,2.625h-1.1l-0.215,0.59L8.03,4.205 l-1.868,7.419L4.268,1H15V7.876z M4.22,1L2.129,7.876H1V1H4.22z M1,8.876h1.87l1.127-3.701L5.751,15H1V8.876z M6.36,15l1.797-7.203 l1.222,3.722l0.964-2.643h1.017l0.691-1.375l0.672,1.375H15V15H6.36z"/></svg>