<?xml version="1.0"?><!DOCTYPE svg PUBLIC "-//W3C//DTD SVG 1.1//EN" "http://www.w3.org/Graphics/SVG/1.1/DTD/svg11.dtd"><svg width="16px" height="16px" xmlns="http://www.w3.org/2000/svg" viewBox="0 0 16 16" shape-rendering="geometricPrecision" fill="#24437c"><defs><mask id="visibility-visible-path"><rect fill="#fff" width="100%" height="100%"/><path d="M12.997,0.858c-1.845,0-3.446,1.039-4.253,2.563c0.808,1.523,2.408,2.562,4.253,2.562 c1.844,0,3.444-1.039,4.253-2.562C16.441,1.897,14.841,0.858,12.997,0.858z" fill="#000"/></mask></defs><path display="inline" d="M12.971,1.607c-1.315,0-2.454,0.74-3.029,1.825 c0.575,1.085,1.715,1.825,3.029,1.825c1.314,0,2.453-0.74,3.029-1.825C15.424,2.348,14.284,1.607,12.971,1.607z" fill="#cb1800"/><g mask="url(#visibility-visible-path)"><circle cx="11.278" cy="12.205" r="0.769"/><circle cx="11.278" cy="7.939" r="0.769"/><path d="M2.042,0.948v4.265v1.185v3.082v1.185v4.265h11.939v-4.265V9.479V6.397V5.213V0.948H2.042z M12.854,13.802H3.171v-3.138h9.682V13.802z M12.854,9.479H3.171V6.397h9.682V9.479z M3.171,5.213V2.077h9.682v3.136H3.171z"/><circle cx="11.278" cy="3.673" r="0.769"/></g></svg>