<svg width="16" height="16" xmlns="http://www.w3.org/2000/svg" viewBox="0 0 16 16" shape-rendering="geometricPrecision" fill="#24437c"><defs><mask id="a"><rect fill="#fff" width="100%" height="100%"/><path d="M12.997.858a4.809 4.809 0 0 0-4.253 2.563 4.81 4.81 0 0 0 8.506 0A4.812 4.812 0 0 0 12.997.858z" fill="#000"/></mask></defs><path d="M12.971 1.607c-1.315 0-2.454.74-3.029 1.825a3.425 3.425 0 0 0 6.058 0 3.43 3.43 0 0 0-3.029-1.825z" fill="#cb1800"/><g mask="url(#a)"><ellipse cx="6.496" cy="3.368" rx="1.771" ry=".427"/><ellipse cx="10.762" cy="3.368" rx="1.771" ry=".427"/><path d="M8.268 3.573v.704c-.276.075-.448.173-.448.282 0 .235.793.427 1.77.427.978 0 1.771-.191 1.771-.427 0-.235-.793-.427-1.771-.427-.213 0-.414.01-.604.027v-.586h-.718z"/><path d="M12.533 3.573v1.15c0 .185-.49.34-1.172.4v.79c0 .235-.793.427-1.771.427-.977 0-1.77-.191-1.77-.427h-.006v-.907a4.24 4.24 0 0 1-.718.118v.79c0 .235-.793.427-1.771.427-.978 0-1.771-.191-1.771-.427h-.005V4.522h.02c-.005.012-.015.024-.015.037 0 .235.793.427 1.771.427.979 0 1.771-.191 1.771-.427 0-.235-.793-.427-1.771-.427-.213 0-.414.01-.604.027v-.586h-.282L.975 7.038v6.879h10.586l3.465-3.465V3.573h-2.493zm-1.725 9.493H1.883V7.755h8.925v5.311zm3.7-3.159l-2.637 2.635V7.391l2.637-2.636v5.152z"/></g></svg>