<svg width="16" height="16" xmlns="http://www.w3.org/2000/svg" viewBox="0 0 16 16" shape-rendering="geometricPrecision" fill="#24437c"><defs><mask id="a"><rect fill="#fff" width="100%" height="100%"/><path d="M12.997.858a4.809 4.809 0 0 0-4.253 2.563 4.81 4.81 0 0 0 8.506 0A4.812 4.812 0 0 0 12.997.858z" fill="#000"/></mask></defs><path d="M12.971 1.607c-1.315 0-2.454.74-3.029 1.825a3.425 3.425 0 0 0 6.058 0 3.43 3.43 0 0 0-3.029-1.825z" fill="#cb1800"/><path d="M11.031 9.168H9.307v.744h1.724v-.744zM7.068 6.992l.973-2.429L5.5 3.544 4.12 6.992H.892v9.007h14.216V6.992h-8.04zm.437 8.013H1.882V7.982h1.84l-.966 2.413 2.54 1.019 1.375-3.432h.834v7.023zm6.612 0h-5.62V7.982h5.62v7.023zm-1.259-4.499H9.307v.745h3.551v-.745zM8.731 2.843H8.73a1.367 1.367 0 0 0-.764-1.771 1.37 1.37 0 0 0-1.778.755L5.78 2.843l2.542 1.022.409-1.022zM3.058 13.316l1.152-.983-1.295-.517.143 1.5z" mask="url(#a)"/></svg>