<?xml version="1.0"?><!DOCTYPE svg PUBLIC "-//W3C//DTD SVG 1.1//EN" "http://www.w3.org/Graphics/SVG/1.1/DTD/svg11.dtd"><svg width="16px" height="16px" xmlns="http://www.w3.org/2000/svg" viewBox="0 0 16 16" shape-rendering="geometricPrecision" fill="#24437c"><defs><mask id="visibility-visible-path"><rect fill="#fff" width="100%" height="100%"/><path d="M12.997,0.858c-1.845,0-3.446,1.039-4.253,2.563c0.808,1.523,2.408,2.562,4.253,2.562 c1.844,0,3.444-1.039,4.253-2.562C16.441,1.897,14.841,0.858,12.997,0.858z" fill="#000"/></mask></defs><path display="inline" d="M12.971,1.607c-1.315,0-2.454,0.74-3.029,1.825 c0.575,1.085,1.715,1.825,3.029,1.825c1.314,0,2.453-0.74,3.029-1.825C15.424,2.348,14.284,1.607,12.971,1.607z" fill="#cb1800"/><g mask="url(#visibility-visible-path)"><path d="M1.811-0.001v16h12.378v-16H1.811z M13.151,14.961H2.793V1.011h10.357V14.961z"/><path d="M8.067,4.602c0.761,0,1.374-0.616,1.374-1.373c0-0.756-0.613-1.372-1.374-1.372 c-0.757,0-1.372,0.616-1.372,1.372C6.695,3.986,7.31,4.602,8.067,4.602z M9.421,12.498v-6.49H5.312v1.02H6.66v5.471H5.307v1.359 h5.467v-1.359H9.421z"/></g></svg>