<?xml version="1.0"?><!DOCTYPE svg PUBLIC "-//W3C//DTD SVG 1.1//EN" "http://www.w3.org/Graphics/SVG/1.1/DTD/svg11.dtd"><svg width="16px" height="16px" xmlns="http://www.w3.org/2000/svg" viewBox="0 0 16 16" shape-rendering="geometricPrecision" fill="#24437c"><defs><mask id="visibility-visible-path"><rect fill="#fff" width="100%" height="100%"/><path d="M12.997,0.858c-1.845,0-3.446,1.039-4.253,2.563c0.808,1.523,2.408,2.562,4.253,2.562 c1.844,0,3.444-1.039,4.253-2.562C16.441,1.897,14.841,0.858,12.997,0.858z" fill="#000"/></mask></defs><path display="inline" d="M12.971,1.607c-1.315,0-2.454,0.74-3.029,1.825 c0.575,1.085,1.715,1.825,3.029,1.825c1.314,0,2.453-0.74,3.029-1.825C15.424,2.348,14.284,1.607,12.971,1.607z" fill="#cb1800"/><g mask="url(#visibility-visible-path)"><g><ellipse cx="13.096" cy="4.259" rx="1.101" ry="1.091"/><path d="M13.367,6.868c-0.318,0-0.614,0.095-0.862,0.255c-0.127-0.979-0.962-1.741-1.983-1.741c-1.11,0-2.009,0.892-2.009,1.993 c0,1.099,0.899,1.991,2.009,1.991c0.507,0,0.964-0.193,1.318-0.5c0.186,0.666,0.796,1.159,1.527,1.159 c0.879,0,1.592-0.707,1.592-1.578C14.958,7.575,14.246,6.868,13.367,6.868z"/></g><path d="M10.202,10.016C8.87,9.859,7.837,8.736,7.837,7.375c0-1.071,0.639-1.993,1.559-2.414L8.91,1.907 L3.836,2.702l0.284,1.785L1.2,5.611l3.28,8.381l4.789-1.844l-0.441-1.126l1.497-0.235L10.202,10.016z"/></g></svg>