<svg width="16" height="16" xmlns="http://www.w3.org/2000/svg" viewBox="0 0 16 16" shape-rendering="geometricPrecision" fill="#24437c"><defs><mask id="a"><rect fill="#fff" width="100%" height="100%"/><path d="M12.997.858a4.809 4.809 0 0 0-4.253 2.563 4.81 4.81 0 0 0 8.506 0A4.812 4.812 0 0 0 12.997.858z" fill="#000"/></mask></defs><path d="M12.971 1.607c-1.315 0-2.454.74-3.029 1.825a3.425 3.425 0 0 0 6.058 0 3.43 3.43 0 0 0-3.029-1.825z" fill="#cb1800"/><path d="M9.759 2.438V1.03H6.24v1.408H2.717v1.917h10.565V2.438H9.759zM3.661 14.97h8.645V5.388H3.661v9.582zm6.163-8.075h1.016v6.567H9.824V6.895zm-2.35 0h1.017v6.567H7.474V6.895zm-2.349 0h1.016v6.567H5.125V6.895z" mask="url(#a)"/></svg>