<svg width="16" height="16" xmlns="http://www.w3.org/2000/svg" viewBox="0 0 16 16" shape-rendering="geometricPrecision" fill="#24437c"><defs><mask id="a"><rect fill="#fff" width="100%" height="100%"/><path d="M12.997.858a4.809 4.809 0 0 0-4.253 2.563 4.81 4.81 0 0 0 8.506 0A4.812 4.812 0 0 0 12.997.858z" fill="#000"/></mask></defs><path d="M12.971 1.607c-1.315 0-2.454.74-3.029 1.825a3.425 3.425 0 0 0 6.058 0 3.43 3.43 0 0 0-3.029-1.825z" fill="#cb1800"/><g mask="url(#a)"><path d="M14.182 12.821L8.715 7.353l-.834-.833-.833.833-.718.718-.834.834.834.833 5.467 5.467.834.834.833-.834.718-.718.834-.834-.834-.832zm-5.514-2.186L6.921 8.887l.943-.943 1.747 1.747-.943.944zM3.108 8.848l-.507 1.357-1.357.506 1.357.507.507 1.357.507-1.357 1.357-.507-1.357-.506zM4.938 5.26l.715-1.915 1.914-.715-1.914-.715L4.938 0l-.716 1.915-1.914.715 1.914.715zM10.584 6.142l.47-1.257 1.256-.469-1.256-.47-.47-1.256-.469 1.256-1.256.47 1.256.469z"/></g></svg>