<?xml version="1.0"?><!DOCTYPE svg PUBLIC "-//W3C//DTD SVG 1.1//EN" "http://www.w3.org/Graphics/SVG/1.1/DTD/svg11.dtd"><svg width="16px" height="16px" xmlns="http://www.w3.org/2000/svg" viewBox="0 0 16 16" shape-rendering="geometricPrecision" fill="#000"><defs><mask id="move_right-path"><rect fill="#fff" width="100%" height="100%"/><polygon points="11.875,-1.414 9.405,1.056 11.44,3.095 9.405,5.132 11.875,7.604 16.385,3.093 " fill="#000"/></mask></defs><polygon points="11.875,0 10.818,1.057 12.853,3.095 10.818,5.132 11.875,6.189 14.97,3.093 " fill="#cb1800"/><g mask="url(#move_right-path)"><path d="M8.001,1.79c-3.43,0-6.211,2.781-6.211,6.213c0,3.427,2.78,6.206,6.211,6.208 c3.429-0.002,6.208-2.78,6.209-6.208C14.21,4.571,11.43,1.79,8.001,1.79z M8.001,12.953c-2.736-0.005-4.949-2.218-4.955-4.951 c0.006-2.738,2.219-4.951,4.955-4.956c2.735,0.005,4.948,2.218,4.953,4.956C12.949,10.736,10.736,12.948,8.001,12.953z"/><polygon points="7.085,3.818 7.085,7.67 4.699,9.059 5.643,10.711 8.972,8.779 8.991,8.779 8.989,3.818"/></g></svg>