<?xml version="1.0"?><!DOCTYPE svg PUBLIC "-//W3C//DTD SVG 1.1//EN" "http://www.w3.org/Graphics/SVG/1.1/DTD/svg11.dtd"><svg width="16px" height="16px" xmlns="http://www.w3.org/2000/svg" viewBox="0 0 16 16" shape-rendering="geometricPrecision" fill="#000"><defs><mask id="move_right-path"><rect fill="#fff" width="100%" height="100%"/><polygon points="11.875,-1.414 9.405,1.056 11.44,3.095 9.405,5.132 11.875,7.604 16.385,3.093 " fill="#000"/></mask></defs><polygon points="11.875,0 10.818,1.057 12.853,3.095 10.818,5.132 11.875,6.189 14.97,3.093 " fill="#cb1800"/><path mask="url(#move_right-path)" d="M7.394,4.755L6.578,2.832H2.798L1.982,4.755H0.861V14h14.278V4.755H7.394z M6.168,12.992 L6.087,12.14l0.736,0.293L6.168,12.992z M7.44,11.912l-1.443-0.579L7.556,7.44L9,8.019L7.44,11.912z M9.392,7.042l-0.233,0.58 l-1.444-0.58l0.232-0.578c0.163-0.396,0.612-0.588,1.01-0.428C9.354,6.193,9.548,6.644,9.392,7.042L9.392,7.042z"/></svg>