<svg width="16" height="16" xmlns="http://www.w3.org/2000/svg" viewBox="0 0 16 16" shape-rendering="geometricPrecision"><defs><mask id="a"><rect fill="#fff" width="100%" height="100%"/><path d="M11.875-1.414l-2.47 2.47 2.035 2.039-2.035 2.037 2.47 2.472 4.51-4.511z"/></mask></defs><path fill="#cb1800" d="M11.875 0l-1.057 1.057 2.035 2.038-2.035 2.037 1.057 1.057 3.095-3.096z"/><path mask="url(#a)" d="M4.212 1.067c1.069 0 1.604.865 1.604 1.832 0 1.122.03 2.548.03 2.548h5.504c1.123 0 1.922.621 1.922 1.56 0 1.124-.687 1.686-1.811 1.686H5.877v.999c0 .999.501 1.995 2.123 1.995h3.462c.874 0 1.623.581 1.623 1.579s-.518 1.666-1.592 1.666H7.82c-3.145 0-5.095-1.23-5.095-4.738V3.042c.002-1.218.49-1.975 1.487-1.975z"/></svg>