<svg width="16" height="16" xmlns="http://www.w3.org/2000/svg" viewBox="0 0 16 16" shape-rendering="geometricPrecision" fill="#24437c"><defs><mask id="a"><rect fill="#fff" width="100%" height="100%"/><path d="M13.848-1.1L12.051.695l.286.287A4.455 4.455 0 0 0 9.23 5.236v.987h2.626v-.988c0-.491.191-.954.538-1.302l.03-.03 1.425 1.421 3.212-3.213L13.848-1.1z" fill="#000"/></mask></defs><path d="M13.848-.04l-.736.735.821.821h-.234l-.156.008A3.722 3.722 0 0 0 9.98 5.235v.237h1.126v-.237c0-.691.27-1.343.759-1.833a2.579 2.579 0 0 1 1.833-.759h.3l-.886.887.735.734L16 2.111 13.848-.04z" fill="#cb1800"/><g mask="url(#a)"><path d="M6.133 5.138c.686 0 1.262.339 1.634.72l-.686.77c-.279-.254-.542-.414-.931-.414-.771 0-1.372.669-1.372 1.778 0 1.134.534 1.795 1.338 1.795.457 0 .778-.195 1.049-.491l.686.753a2.252 2.252 0 0 1-1.753.813c-1.431 0-2.599-.973-2.599-2.828.001-1.829 1.212-2.896 2.634-2.896zm4.44 0c.686 0 1.262.339 1.634.72l-.686.77c-.279-.254-.542-.415-.931-.415-.771 0-1.372.669-1.372 1.778 0 1.134.534 1.795 1.338 1.795.457 0 .778-.195 1.049-.491l.686.753a2.252 2.252 0 0 1-1.753.813c-1.431 0-2.599-.973-2.599-2.828.001-1.828 1.212-2.895 2.634-2.895z"/><path d="M8 1.001a7 7 0 1 0 .003 14 7 7 0 0 0-.003-14zm0 12.584a5.59 5.59 0 0 1-5.583-5.581A5.593 5.593 0 0 1 8 2.417a5.594 5.594 0 0 1 5.585 5.587A5.593 5.593 0 0 1 8 13.585z"/></g></svg>