<?xml version="1.0"?><!DOCTYPE svg PUBLIC "-//W3C//DTD SVG 1.1//EN" "http://www.w3.org/Graphics/SVG/1.1/DTD/svg11.dtd"><svg width="16px" height="16px" xmlns="http://www.w3.org/2000/svg" viewBox="0 0 16 16" shape-rendering="geometricPrecision" fill="#24437c"><defs><mask id="export-path"><rect fill="#fff" width="100%" height="100%"/><path d="M13.848-1.1l-1.797,1.795l0.286,0.287c-1.812,0.575-3.107,2.263-3.107,4.254v0.987h2.626 V5.235c0-0.491,0.191-0.954,0.538-1.302c0.01-0.01,0.021-0.02,0.03-0.03l1.425,1.421l3.212-3.213L13.848-1.1z" fill="#000"/></mask></defs><path id="export" display="inline" d="M13.848-0.04l-0.736,0.735l0.821,0.821h-0.234 l-0.156,0.008c-1.978,0.084-3.563,1.714-3.563,3.711v0.237h1.126V5.235c0-0.691,0.27-1.343,0.759-1.833 c0.49-0.489,1.141-0.759,1.833-0.759h0.237V2.643h0.063L13.112,3.53l0.735,0.734L16,2.111L13.848-0.04z" fill="#cb1800"/><path mask="url(#export-path)" d="M15.986,9.771c0-1.28-0.884-2.354-2.075-2.644c-0.05-2.008-1.692-3.62-3.71-3.62 c-1.183,0-2.235,0.554-2.915,1.415C6.905,4.43,6.308,4.112,5.637,4.112c-1.152,0-2.085,0.934-2.085,2.086 c0,0.1,0.007,0.199,0.021,0.296C3.399,6.462,3.219,6.445,3.035,6.445c-1.669,0-3.022,1.354-3.022,3.024s1.353,3.024,3.022,3.024 h10.237C14.772,12.489,15.987,11.273,15.986,9.771L15.986,9.771z"/></svg>