<svg width="16" height="16" xmlns="http://www.w3.org/2000/svg" viewBox="0 0 16 16" shape-rendering="geometricPrecision" fill="#24437c"><defs><mask id="a"><rect fill="#fff" width="100%" height="100%"/><path d="M13.848-1.1L12.051.695l.286.287A4.455 4.455 0 0 0 9.23 5.236v.987h2.626v-.988c0-.491.191-.954.538-1.302l.03-.03 1.425 1.421 3.212-3.213L13.848-1.1z" fill="#000"/></mask></defs><path d="M13.848-.04l-.736.735.821.821h-.234l-.156.008A3.722 3.722 0 0 0 9.98 5.235v.237h1.126v-.237c0-.691.27-1.343.759-1.833a2.579 2.579 0 0 1 1.833-.759h.3l-.886.887.735.734L16 2.111 13.848-.04z" fill="#cb1800"/><g mask="url(#a)"><path d="M7.999 1a7 7 0 1 0 .003 14 7 7 0 0 0-.003-14zm0 12.584a5.59 5.59 0 0 1-5.583-5.581 5.593 5.593 0 0 1 5.583-5.587 5.594 5.594 0 0 1 5.585 5.587 5.593 5.593 0 0 1-5.585 5.581zm3.423-3.53L9.366 7.999l2.057-2.057-1.448-1.45L7.917 6.55 5.86 4.493 4.412 5.941l2.057 2.056-2.059 2.058 1.451 1.45 2.058-2.058 2.056 2.057 1.447-1.45z"/></g></svg>