<?xml version="1.0"?><!DOCTYPE svg PUBLIC "-//W3C//DTD SVG 1.1//EN" "http://www.w3.org/Graphics/SVG/1.1/DTD/svg11.dtd"><svg width="16px" height="16px" xmlns="http://www.w3.org/2000/svg" viewBox="0 0 16 16" shape-rendering="geometricPrecision" fill="#24437c"><defs><mask id="export-path"><rect fill="#fff" width="100%" height="100%"/><path d="M13.848-1.1l-1.797,1.795l0.286,0.287c-1.812,0.575-3.107,2.263-3.107,4.254v0.987h2.626 V5.235c0-0.491,0.191-0.954,0.538-1.302c0.01-0.01,0.021-0.02,0.03-0.03l1.425,1.421l3.212-3.213L13.848-1.1z" fill="#000"/></mask></defs><path id="export" display="inline" d="M13.848-0.04l-0.736,0.735l0.821,0.821h-0.234 l-0.156,0.008c-1.978,0.084-3.563,1.714-3.563,3.711v0.237h1.126V5.235c0-0.691,0.27-1.343,0.759-1.833 c0.49-0.489,1.141-0.759,1.833-0.759h0.237V2.643h0.063L13.112,3.53l0.735,0.734L16,2.111L13.848-0.04z" fill="#cb1800"/><g mask="url(#export-path)"><circle cx="3.535" cy="5.212" r="1.794"/><path d="M4.351,7.858H2.712c-0.951,0-1.725,0.779-1.725,1.73v2.246h5.093V9.589 C6.081,8.638,5.301,7.858,4.351,7.858z"/><circle cx="12.466" cy="7.338" r="1.794"/><path d="M13.282,9.983h-1.639c-0.951,0-1.724,0.779-1.724,1.729v2.248h5.093v-2.248 C15.012,10.763,14.233,9.983,13.282,9.983z"/><circle cx="7.505" cy="3.228" r="1.794"/><path d="M10.05,9.851V7.603c0-0.949-0.778-1.729-1.73-1.729H6.682c-0.928,0-1.68,0.74-1.717,1.66 C5.853,7.8,6.506,8.614,6.506,9.589v0.262H10.05z"/></g></svg>