<svg width="16" height="16" xmlns="http://www.w3.org/2000/svg" viewBox="0 0 16 16" shape-rendering="geometricPrecision" fill="#24437c"><defs><mask id="a"><rect fill="#fff" width="100%" height="100%"/><path d="M13.848-1.1L12.051.695l.286.287A4.455 4.455 0 0 0 9.23 5.236v.987h2.626v-.988c0-.491.191-.954.538-1.302l.03-.03 1.425 1.421 3.212-3.213L13.848-1.1z" fill="#000"/></mask></defs><path d="M13.848-.04l-.736.735.821.821h-.234l-.156.008A3.722 3.722 0 0 0 9.98 5.235v.237h1.126v-.237c0-.691.27-1.343.759-1.833a2.579 2.579 0 0 1 1.833-.759h.3l-.886.887.735.734L16 2.111 13.848-.04z" fill="#cb1800"/><g mask="url(#a)"><path d="M6.136 14.063l7.86-6.878-3.255-1.741-4.605 8.619zM0 4.568l4.147 11.214.838-1.57-1.421-3.844 4.331-1.602 2.457-4.6 4.406 2.352.003-.003L12.35-.002 0 4.568zm7.985 2.478l-4.97 1.838-.397-1.074 4.97-1.839.397 1.075zm4.073-4.002L2.204 6.688l-.398-1.074 9.854-3.646.398 1.076z"/></g></svg>