<?xml version="1.0"?><!DOCTYPE svg PUBLIC "-//W3C//DTD SVG 1.1//EN" "http://www.w3.org/Graphics/SVG/1.1/DTD/svg11.dtd"><svg width="16px" height="16px" xmlns="http://www.w3.org/2000/svg" viewBox="0 0 16 16" shape-rendering="geometricPrecision" fill="#24437c"><defs><mask id="export-path"><rect fill="#fff" width="100%" height="100%"/><path d="M13.848-1.1l-1.797,1.795l0.286,0.287c-1.812,0.575-3.107,2.263-3.107,4.254v0.987h2.626 V5.235c0-0.491,0.191-0.954,0.538-1.302c0.01-0.01,0.021-0.02,0.03-0.03l1.425,1.421l3.212-3.213L13.848-1.1z" fill="#000"/></mask></defs><path id="export" display="inline" d="M13.848-0.04l-0.736,0.735l0.821,0.821h-0.234 l-0.156,0.008c-1.978,0.084-3.563,1.714-3.563,3.711v0.237h1.126V5.235c0-0.691,0.27-1.343,0.759-1.833 c0.49-0.489,1.141-0.759,1.833-0.759h0.237V2.643h0.063L13.112,3.53l0.735,0.734L16,2.111L13.848-0.04z" fill="#cb1800"/><g mask="url(#export-path)"><path d="M11.231,3.39c0.003-0.045,0.008-0.09,0.008-0.137c0-1.789-1.45-3.241-3.24-3.241 c-1.391,0-2.571,0.875-3.031,2.104l1.31,0.401c0.287-0.668,0.951-1.136,1.723-1.136c1.033,0,1.871,0.839,1.871,1.872 c0,0.527-0.221,1.002-0.57,1.342C8.718,5.216,8.274,5.216,7.128,5.831C5.3,6.813,4.855,8.341,4.758,9.243v6.745h6.483V3.388 h-0.011V3.39z M10.419,14.005l-1.02,1.023l-1.452-1.453l-1.452,1.454l-1.023-1.024l1.453-1.453l-1.452-1.451l1.022-1.022 l1.451,1.452l1.453-1.452l1.02,1.022l-1.452,1.451L10.419,14.005z"/></g></svg>