<svg width="16" height="16" xmlns="http://www.w3.org/2000/svg" viewBox="0 0 16 16" shape-rendering="geometricPrecision" fill="#24437c"><defs><mask id="a"><rect fill="#fff" width="100%" height="100%"/><path d="M13.848-1.1l-1.797 1.795.286.287c-1.812.575-3.107 2.263-3.107 4.254v.987h2.626v-.988c0-.491.191-.954.538-1.302l.03-.03 1.425 1.421 3.212-3.213-3.213-3.211z"/></mask></defs><path d="M13.848-.04l-.736.735.821.821h-.234l-.156.008c-1.978.084-3.563 1.714-3.563 3.711v.237h1.126v-.237c0-.691.27-1.343.759-1.833.49-.489 1.141-.759 1.833-.759h.3l-.886.887.735.734 2.153-2.153-2.152-2.151z" fill="#cb1800"/><path mask="url(#a)" d="M7.993 3.184c-3.468 0-6.475 1.952-7.993 4.817 1.518 2.863 4.525 4.814 7.993 4.814 3.466 0 6.472-1.951 7.993-4.814-1.521-2.865-4.527-4.817-7.993-4.817zm-.82 8.199l-3.052-3.052 1.342-1.344 1.709 1.708 3.265-3.265 1.345 1.344-4.609 4.609z"/></svg>