<svg width="16" height="16" xmlns="http://www.w3.org/2000/svg" viewBox="0 0 16 16" shape-rendering="geometricPrecision"><defs><mask id="a"><rect fill="#fff" width="100%" height="100%"/><path d="M13.848-1.1L12.051.695l.286.287A4.455 4.455 0 0 0 9.23 5.236v.987h2.626v-.988c0-.491.191-.954.538-1.302l.03-.03 1.425 1.421 3.212-3.213L13.848-1.1z"/></mask></defs><path d="M13.848-.04l-.736.735.821.821h-.234l-.156.008A3.722 3.722 0 0 0 9.98 5.235v.237h1.126v-.237c0-.691.27-1.343.759-1.833a2.579 2.579 0 0 1 1.833-.759h.3l-.886.887.735.734L16 2.111 13.848-.04z" fill="#cb1800"/><g mask="url(#a)"><path d="M4.271 11.728l4.866-2.562L11.699 4.3 6.833 6.863l-2.562 4.865zm2.958-4.469a1.068 1.068 0 1 1 1.512 1.512 1.068 1.068 0 1 1-1.512-1.512z"/><path d="M8.001 1.01a6.99 6.99 0 0 0 0 13.979 6.99 6.99 0 0 0 0-13.979zm1.144 12.445L8 12.31l-1.145 1.145a5.588 5.588 0 0 1-4.31-4.309L3.69 8 2.546 6.855a5.588 5.588 0 0 1 4.309-4.31L8 3.69l1.145-1.145a5.59 5.59 0 0 1 4.31 4.31L12.31 8l1.146 1.146a5.585 5.585 0 0 1-4.311 4.309z"/></g></svg>