<svg width="16" height="16" xmlns="http://www.w3.org/2000/svg" viewBox="0 0 16 16" shape-rendering="geometricPrecision"><defs><mask id="a"><rect fill="#fff" width="100%" height="100%"/><path d="M13.848-1.1L12.051.695l.286.287A4.455 4.455 0 0 0 9.23 5.236v.987h2.626v-.988c0-.491.191-.954.538-1.302l.03-.03 1.425 1.421 3.212-3.213L13.848-1.1z"/></mask></defs><path d="M13.848-.04l-.736.735.821.821h-.234l-.156.008A3.722 3.722 0 0 0 9.98 5.235v.237h1.126v-.237c0-.691.27-1.343.759-1.833a2.579 2.579 0 0 1 1.833-.759h.3l-.886.887.735.734L16 2.111 13.848-.04z" fill="#cb1800"/><g mask="url(#a)"><path d="M10.055 14.302l2.54-2.338h-2.54z"/><path d="M2.595 1.016v13.969h6.008v-4.468h4.802V1.016H2.595zm9.439 8.027h-4.79v4.601H3.917V2.318h8.116v6.725z"/><path d="M9.709 7.916h-.8l-.905-2.982L7.1 7.916h-.801L4.988 3h1.001l.759 3.101L7.645 3h.718l.897 3.101L10.027 3h1.001L9.709 7.916z"/></g></svg>