<svg width="16" height="16" xmlns="http://www.w3.org/2000/svg" viewBox="0 0 16 16" shape-rendering="geometricPrecision"><defs><mask id="a"><rect fill="#fff" width="100%" height="100%"/><path d="M13.848-1.1L12.051.695l.286.287A4.455 4.455 0 0 0 9.23 5.236v.987h2.626v-.988c0-.491.191-.954.538-1.302l.03-.03 1.425 1.421 3.212-3.213L13.848-1.1z"/></mask></defs><path d="M13.848-.04l-.736.735.821.821h-.234l-.156.008A3.722 3.722 0 0 0 9.98 5.235v.237h1.126v-.237c0-.691.27-1.343.759-1.833a2.579 2.579 0 0 1 1.833-.759h.3l-.886.887.735.734L16 2.111 13.848-.04z" fill="#cb1800"/><g mask="url(#a)"><path d="M8.182 3.179l-.815-1.923h-3.78L2.77 3.179H1.649l.001.949 13.327-.009.018 9.283.933-.978V3.179z"/><path d="M.072 4.756V14h14.279V4.756H.072zm9.449 3.583a.993.993 0 1 1 .001 1.987.993.993 0 0 1-.001-1.987zM6.774 6.062a.993.993 0 1 1 .002 1.986.993.993 0 0 1-.002-1.986zm-2.199 1.1a.993.993 0 1 1 .002 1.986.993.993 0 0 1-.002-1.986zm1.41 4.661H3.164v-1.244c0-.527.428-.958.955-.958h.908c.526 0 .958.432.958.958v1.244zm-.618-2.382a.956.956 0 0 1 .951-.92h.908c.527 0 .958.432.958.957v1.245H6.221v-.145c0-.539-.362-.99-.854-1.137zM10.932 13H8.111v-1.245c0-.526.428-.957.955-.957h.908c.527 0 .958.432.958.957V13z"/></g></svg>