<svg width="16" height="16" xmlns="http://www.w3.org/2000/svg" viewBox="0 0 16 16" shape-rendering="geometricPrecision"><defs><mask id="a"><rect fill="#fff" width="100%" height="100%"/><path d="M13.848-1.1L12.051.695l.286.287A4.455 4.455 0 0 0 9.23 5.236v.987h2.626v-.988c0-.491.191-.954.538-1.302l.03-.03 1.425 1.421 3.212-3.213L13.848-1.1z"/></mask></defs><path d="M13.848-.04l-.736.735.821.821h-.234l-.156.008A3.722 3.722 0 0 0 9.98 5.235v.237h1.126v-.237c0-.691.27-1.343.759-1.833a2.579 2.579 0 0 1 1.833-.759h.3l-.886.887.735.734L16 2.111 13.848-.04z" fill="#cb1800"/><g mask="url(#a)"><path d="M12.127 5.803L9.186 8.742c.373.336.612.818.612 1.359a1.837 1.837 0 1 1-3.674 0c0-.561.256-1.056.652-1.393L3.834 5.765a5.972 5.972 0 0 0-1.864 4.337 5.99 5.99 0 1 0 11.982 0 5.971 5.971 0 0 0-1.825-4.299z"/><path d="M4.004 0L1.929 2.076l6.068 6.073 6.075-6.073L11.998 0 8.001 3.995 4.004 0z"/></g></svg>