<svg width="16" height="16" xmlns="http://www.w3.org/2000/svg" viewBox="0 0 16 16" shape-rendering="geometricPrecision"><defs><mask id="a"><rect fill="#fff" width="100%" height="100%"/><path d="M13.848-1.1L12.051.695l.286.287A4.455 4.455 0 0 0 9.23 5.236v.987h2.626v-.988c0-.491.191-.954.538-1.302l.03-.03 1.425 1.421 3.212-3.213L13.848-1.1z"/></mask></defs><path d="M13.848-.04l-.736.735.821.821h-.234l-.156.008A3.722 3.722 0 0 0 9.98 5.235v.237h1.126v-.237c0-.691.27-1.343.759-1.833a2.579 2.579 0 0 1 1.833-.759h.3l-.886.887.735.734L16 2.111 13.848-.04z" fill="#cb1800"/><g mask="url(#a)"><path d="M10.479 0a5.521 5.521 0 0 0-5.521 5.521c0 .739.152 1.44.416 2.084L0 12.979V16h3.021v-2.042h1.958V12h2.042V9.821a5.496 5.496 0 0 0 3.458 1.221 5.521 5.521 0 0 0 0-11.042zm1.294 6.812a2.586 2.586 0 1 1 0-5.173 2.586 2.586 0 0 1 0 5.173z"/></g></svg>