<svg width="16" height="16" xmlns="http://www.w3.org/2000/svg" viewBox="0 0 16 16" shape-rendering="geometricPrecision"><defs><mask id="a"><rect fill="#fff" width="100%" height="100%"/><path d="M13.848-1.1L12.051.695l.286.287A4.455 4.455 0 0 0 9.23 5.236v.987h2.626v-.988c0-.491.191-.954.538-1.302l.03-.03 1.425 1.421 3.212-3.213L13.848-1.1z"/></mask></defs><path d="M13.848-.04l-.736.735.821.821h-.234l-.156.008A3.722 3.722 0 0 0 9.98 5.235v.237h1.126v-.237c0-.691.27-1.343.759-1.833a2.579 2.579 0 0 1 1.833-.759h.3l-.886.887.735.734L16 2.111 13.848-.04z" fill="#cb1800"/><g mask="url(#a)"><path d="M14.49 13.12L14.479-.001H4.034C2.658.002 1.536.618 1.513 1.986c-.003.025-.003.529 0 .535v.003c0 .04.009.076.011.117h-.009v10.826a2.532 2.532 0 0 0 2.529 2.531h8.386l-.038-1.689-.009-11.344h-8.35c-.496 0-1.68-.048-1.68-.978v-.094C2.404 1.008 3.537.841 4.033.841h9.593V13.12h.864zM4.011 3.966h7.35l.004 10.992L4.851 15a2.532 2.532 0 0 1-2.529-2.531s-.005-9.456-.002-9.481h.011c0 .93 1.184.978 1.68.978z"/><path d="M4.525 5.764h5.506v1.247H4.525zm0 2.582h5.506v1.243H4.525z"/></g></svg>