<?xml version="1.0"?><!DOCTYPE svg PUBLIC "-//W3C//DTD SVG 1.1//EN" "http://www.w3.org/Graphics/SVG/1.1/DTD/svg11.dtd"><svg width="16px" height="16px" xmlns="http://www.w3.org/2000/svg" viewBox="0 0 16 16" shape-rendering="geometricPrecision" fill="#000"><defs><mask id="export-path"><rect fill="#fff" width="100%" height="100%"/><path d="M13.848-1.1l-1.797,1.795l0.286,0.287c-1.812,0.575-3.107,2.263-3.107,4.254v0.987h2.626 V5.235c0-0.491,0.191-0.954,0.538-1.302c0.01-0.01,0.021-0.02,0.03-0.03l1.425,1.421l3.212-3.213L13.848-1.1z" fill="#000"/></mask></defs><path id="export" display="inline" d="M13.848-0.04l-0.736,0.735l0.821,0.821h-0.234 l-0.156,0.008c-1.978,0.084-3.563,1.714-3.563,3.711v0.237h1.126V5.235c0-0.691,0.27-1.343,0.759-1.833 c0.49-0.489,1.141-0.759,1.833-0.759h0.237V2.643h0.063L13.112,3.53l0.735,0.734L16,2.111L13.848-0.04z" fill="#cb1800"/><g mask="url(#export-path)"><g><ellipse cx="13.096" cy="4.259" rx="1.101" ry="1.091"/><path d="M13.367,6.868c-0.318,0-0.614,0.095-0.862,0.255c-0.127-0.979-0.962-1.741-1.983-1.741c-1.11,0-2.009,0.892-2.009,1.993 c0,1.099,0.899,1.991,2.009,1.991c0.507,0,0.964-0.193,1.318-0.5c0.186,0.666,0.796,1.159,1.527,1.159 c0.879,0,1.592-0.707,1.592-1.578C14.958,7.575,14.246,6.868,13.367,6.868z"/></g><path d="M10.202,10.016C8.87,9.859,7.837,8.736,7.837,7.375c0-1.071,0.639-1.993,1.559-2.414L8.91,1.907 L3.836,2.702l0.284,1.785L1.2,5.611l3.28,8.381l4.789-1.844l-0.441-1.126l1.497-0.235L10.202,10.016z"/></g></svg>