<?xml version="1.0"?><!DOCTYPE svg PUBLIC "-//W3C//DTD SVG 1.1//EN" "http://www.w3.org/Graphics/SVG/1.1/DTD/svg11.dtd"><svg width="16px" height="16px" xmlns="http://www.w3.org/2000/svg" viewBox="0 0 16 16" shape-rendering="geometricPrecision" fill="#000"><defs><mask id="export-path"><rect fill="#fff" width="100%" height="100%"/><path d="M13.848-1.1l-1.797,1.795l0.286,0.287c-1.812,0.575-3.107,2.263-3.107,4.254v0.987h2.626 V5.235c0-0.491,0.191-0.954,0.538-1.302c0.01-0.01,0.021-0.02,0.03-0.03l1.425,1.421l3.212-3.213L13.848-1.1z" fill="#000"/></mask></defs><path id="export" display="inline" d="M13.848-0.04l-0.736,0.735l0.821,0.821h-0.234 l-0.156,0.008c-1.978,0.084-3.563,1.714-3.563,3.711v0.237h1.126V5.235c0-0.691,0.27-1.343,0.759-1.833 c0.49-0.489,1.141-0.759,1.833-0.759h0.237V2.643h0.063L13.112,3.53l0.735,0.734L16,2.111L13.848-0.04z" fill="#cb1800"/><g mask="url(#export-path)"><path d="M11.348,7.312c0.788,0.008,1.464,0.478,1.779,1.146V4.747H9.053c0.633-0.329,1.073-0.974,1.081-1.737 c0.011-1.1-0.87-2-1.97-2.011c-1.1-0.011-2.001,0.872-2.012,1.971C6.143,3.745,6.585,4.411,7.229,4.747H2.873v10.254h2.951 c-0.644-0.336-1.085-1.013-1.077-1.788c0.011-1.101,0.912-1.982,2.011-1.972c1.1,0.011,1.982,0.912,1.971,2.013 c-0.008,0.763-0.449,1.419-1.083,1.747h5.481v-4.845c-0.323,0.679-1.02,1.146-1.82,1.137c-1.101-0.01-1.983-0.91-1.972-2.01 C9.346,8.183,10.248,7.301,11.348,7.312z"/></g></svg>