<svg width="16" height="16" xmlns="http://www.w3.org/2000/svg" viewBox="0 0 16 16" shape-rendering="geometricPrecision"><defs><mask id="a"><rect fill="#fff" width="100%" height="100%"/><path d="M13.848-1.1L12.051.695l.286.287A4.455 4.455 0 0 0 9.23 5.236v.987h2.626v-.988c0-.491.191-.954.538-1.302l.03-.03 1.425 1.421 3.212-3.213L13.848-1.1z"/></mask></defs><path d="M13.848-.04l-.736.735.821.821h-.234l-.156.008A3.722 3.722 0 0 0 9.98 5.235v.237h1.126v-.237c0-.691.27-1.343.759-1.833a2.579 2.579 0 0 1 1.833-.759h.3l-.886.887.735.734L16 2.111 13.848-.04z" fill="#cb1800"/><g mask="url(#a)"><circle cx="6.552" cy="4.044" r="2.94"/><path d="M9.366 13.378l-.402-3.99.409-1c-.03 0-.059-.008-.089-.008H3.811a2.835 2.835 0 0 0-2.826 2.832v3.684h11.133v-3.684c0-.051-.013-.1-.016-.152l-2.736 2.318z"/><path d="M14.929 2.831a1.233 1.233 0 0 0-.69-1.598 1.233 1.233 0 0 0-1.603.68l-.368.918 2.292.92.371-.92h-.002zm-5.116 9.445l1.039-.887-1.168-.467.129 1.354zm-.272-2.634l2.291.92 2.477-6.182-2.292-.918-2.476 6.18z"/></g></svg>