<?xml version="1.0"?><!DOCTYPE svg PUBLIC "-//W3C//DTD SVG 1.1//EN" "http://www.w3.org/Graphics/SVG/1.1/DTD/svg11.dtd"><svg width="16px" height="16px" xmlns="http://www.w3.org/2000/svg" viewBox="0 0 16 16" shape-rendering="geometricPrecision" fill="#000"><defs><mask id="export-path"><rect fill="#fff" width="100%" height="100%"/><path d="M13.848-1.1l-1.797,1.795l0.286,0.287c-1.812,0.575-3.107,2.263-3.107,4.254v0.987h2.626 V5.235c0-0.491,0.191-0.954,0.538-1.302c0.01-0.01,0.021-0.02,0.03-0.03l1.425,1.421l3.212-3.213L13.848-1.1z" fill="#000"/></mask></defs><path id="export" display="inline" d="M13.848-0.04l-0.736,0.735l0.821,0.821h-0.234 l-0.156,0.008c-1.978,0.084-3.563,1.714-3.563,3.711v0.237h1.126V5.235c0-0.691,0.27-1.343,0.759-1.833 c0.49-0.489,1.141-0.759,1.833-0.759h0.237V2.643h0.063L13.112,3.53l0.735,0.734L16,2.111L13.848-0.04z" fill="#cb1800"/><g mask="url(#export-path)"><path d="M11.231,3.39c0.002-0.046,0.008-0.09,0.008-0.136c0-1.791-1.451-3.242-3.242-3.242 c-1.387,0-2.569,0.875-3.031,2.104l1.312,0.399c0.285-0.664,0.947-1.133,1.719-1.133c1.033,0,1.873,0.837,1.873,1.872 c0,0.525-0.222,1.001-0.569,1.341C8.718,5.216,8.271,5.216,7.125,5.83C5.301,6.814,4.854,8.341,4.759,9.244v6.744h6.482V3.39 H11.231z M7.445,15.148l-2.33-2.328l1.024-1.024l1.303,1.303l2.492-2.489l1.024,1.026L7.445,15.148z"/></g></svg>