<?xml version="1.0"?><!DOCTYPE svg PUBLIC "-//W3C//DTD SVG 1.1//EN" "http://www.w3.org/Graphics/SVG/1.1/DTD/svg11.dtd"><svg width="16px" height="16px" xmlns="http://www.w3.org/2000/svg" viewBox="0 0 16 16" shape-rendering="geometricPrecision" fill="#000"><defs><mask id="export-path"><rect fill="#fff" width="100%" height="100%"/><path d="M13.848-1.1l-1.797,1.795l0.286,0.287c-1.812,0.575-3.107,2.263-3.107,4.254v0.987h2.626 V5.235c0-0.491,0.191-0.954,0.538-1.302c0.01-0.01,0.021-0.02,0.03-0.03l1.425,1.421l3.212-3.213L13.848-1.1z" fill="#000"/></mask></defs><path id="export" display="inline" d="M13.848-0.04l-0.736,0.735l0.821,0.821h-0.234 l-0.156,0.008c-1.978,0.084-3.563,1.714-3.563,3.711v0.237h1.126V5.235c0-0.691,0.27-1.343,0.759-1.833 c0.49-0.489,1.141-0.759,1.833-0.759h0.237V2.643h0.063L13.112,3.53l0.735,0.734L16,2.111L13.848-0.04z" fill="#cb1800"/><g mask="url(#export-path)"><g><g><rect x="1" y="11.479" width="13.987" height="1.042"/></g><g><rect x="1" y="7.465" width="13.987" height="1.062"/></g><g><rect x="1" y="3.45" width="13.987" height="1.021"/></g><path d="M7.466,10.505h2.027c0.267,0,0.483,0.216,0.483,0.483v2.027c0,0.267-0.216,0.483-0.483,0.483H7.466 c-0.267,0-0.483-0.216-0.483-0.483v-2.027C6.983,10.721,7.2,10.505,7.466,10.505z"/><path d="M10.474,6.501h2.032c0.267,0,0.483,0.216,0.483,0.483v2.032c0,0.267-0.216,0.483-0.483,0.483h-2.032 c-0.267,0-0.483-0.216-0.483-0.483V6.984C9.991,6.717,10.208,6.501,10.474,6.501z"/><path d="M3.477,2.502h2.019c0.267,0,0.483,0.216,0.483,0.483v2.019c0,0.267-0.216,0.483-0.483,0.483H3.477 c-0.267,0-0.483-0.216-0.483-0.483V2.985C2.994,2.718,3.21,2.502,3.477,2.502z"/></g></g></svg>