<?xml version="1.0"?><!DOCTYPE svg PUBLIC "-//W3C//DTD SVG 1.1//EN" "http://www.w3.org/Graphics/SVG/1.1/DTD/svg11.dtd"><svg width="16px" height="16px" xmlns="http://www.w3.org/2000/svg" viewBox="0 0 16 16" shape-rendering="geometricPrecision" fill="#000"><defs><mask id="export-path"><rect fill="#fff" width="100%" height="100%"/><path d="M13.848-1.1l-1.797,1.795l0.286,0.287c-1.812,0.575-3.107,2.263-3.107,4.254v0.987h2.626 V5.235c0-0.491,0.191-0.954,0.538-1.302c0.01-0.01,0.021-0.02,0.03-0.03l1.425,1.421l3.212-3.213L13.848-1.1z" fill="#000"/></mask></defs><path id="export" display="inline" d="M13.848-0.04l-0.736,0.735l0.821,0.821h-0.234 l-0.156,0.008c-1.978,0.084-3.563,1.714-3.563,3.711v0.237h1.126V5.235c0-0.691,0.27-1.343,0.759-1.833 c0.49-0.489,1.141-0.759,1.833-0.759h0.237V2.643h0.063L13.112,3.53l0.735,0.734L16,2.111L13.848-0.04z" fill="#cb1800"/><g mask="url(#export-path)"><g><path d="M8.001,1.062c-3.833,0-6.939,3.107-6.939,6.941c0,3.829,3.106,6.934,6.939,6.936c3.832-0.002,6.936-3.106,6.937-6.936 C14.938,4.169,11.833,1.062,8.001,1.062z M8.001,13.534c-3.057-0.006-5.529-2.478-5.536-5.531 c0.007-3.059,2.479-5.531,5.536-5.537c3.056,0.006,5.528,2.478,5.534,5.537C13.529,11.057,11.057,13.528,8.001,13.534z"/></g><path d="M8.001,12.673c-2.581-0.005-4.668-2.092-4.674-4.67C3.333,5.42,5.42,3.332,8.001,3.327 c2.58,0.005,4.667,2.093,4.672,4.675C12.668,10.581,10.581,12.668,8.001,12.673z"/></g></svg>