<svg width="16" height="16" xmlns="http://www.w3.org/2000/svg" viewBox="0 0 16 16" shape-rendering="geometricPrecision"><defs><mask id="a"><rect fill="#fff" width="100%" height="100%"/><path d="M13.848-1.1L12.051.695l.286.287A4.455 4.455 0 0 0 9.23 5.236v.987h2.626v-.988c0-.491.191-.954.538-1.302l.03-.03 1.425 1.421 3.212-3.213L13.848-1.1z"/></mask></defs><path d="M13.848-.04l-.736.735.821.821h-.234l-.156.008A3.722 3.722 0 0 0 9.98 5.235v.237h1.126v-.237c0-.691.27-1.343.759-1.833a2.579 2.579 0 0 1 1.833-.759h.3l-.886.887.735.734L16 2.111 13.848-.04z" fill="#cb1800"/><g mask="url(#a)"><path d="M13.997 2.942v9.965H2.958V2.942h11.039m1-1H1.958v11.965h13.039V1.942z"/><path d="M1.958 4.061h13.054v1.064H1.958z"/><path d="M5.871 4.061h1.064v9.576H5.871zm4.231 0h1.064v9.576h-1.064zM3.985 5.89h1.106v1.106H3.985zm0 5h1.106v1.106H3.985zm3.947-2.041h1.106v1.106H7.932zm0-1.853h1.106v1.106H7.932zm4.01 2.959h1.106v1.106h-1.106zm0-1.955h1.106v1.106h-1.106z"/></g></svg>