<?xml version="1.0"?><!DOCTYPE svg PUBLIC "-//W3C//DTD SVG 1.1//EN" "http://www.w3.org/Graphics/SVG/1.1/DTD/svg11.dtd"><svg width="16px" height="16px" xmlns="http://www.w3.org/2000/svg" viewBox="0 0 16 16" shape-rendering="geometricPrecision" fill="#00962d"><defs><mask id="edit-path"><rect fill="#fff" width="100%" height="100%"/><path d="M15.568,0.488c0.365-0.9-0.337-1.487-0.851-1.704c-0.593-0.25-1.396-0.157-1.78,0.752l-0.142,0.357 l-2.14,5.317l0.603,2.278l1.98-1.23l2.202-5.47L15.568,0.488z" fill="#000"/></mask></defs><g id="edit_3_" display="inline" fill="#cb1800"><polygon points="11.686,6.423 12.286,5.91 11.611,5.641 "/><path d="M14.245,0.038c-0.365-0.147-0.778,0.03-0.927,0.393l-0.213,0.531l1.326,0.532l0.214-0.532h-0.001 C14.787,0.597,14.61,0.183,14.245,0.038z"/><rect x="10.982" y="2.666" transform="matrix(0.3723 -0.9281 0.9281 0.3723 4.9642 14.0992)" width="3.849" height="1.428"/></g><g mask="url(#edit-path)"><g><path d="M6.133,5.138c0.686,0,1.262,0.339,1.634,0.72l-0.686,0.77C6.802,6.374,6.539,6.214,6.15,6.214 c-0.771,0-1.372,0.669-1.372,1.778c0,1.134,0.534,1.795,1.338,1.795c0.457,0,0.778-0.195,1.049-0.491l0.686,0.753 c-0.457,0.534-1.067,0.813-1.753,0.813c-1.431,0-2.599-0.973-2.599-2.828C3.5,6.205,4.711,5.138,6.133,5.138z"/></g><g><path d="M10.573,5.138c0.686,0,1.262,0.339,1.634,0.72l-0.686,0.77c-0.279-0.254-0.542-0.415-0.931-0.415 c-0.771,0-1.372,0.669-1.372,1.778c0,1.134,0.534,1.795,1.338,1.795c0.457,0,0.778-0.195,1.049-0.491l0.686,0.753 c-0.457,0.534-1.067,0.813-1.753,0.813c-1.431,0-2.599-0.973-2.599-2.828C7.94,6.205,9.151,5.138,10.573,5.138z"/></g><path d="M8,1.001c-3.866,0-6.999,3.135-6.999,7.003C1.003,11.867,4.134,14.999,8,15.001 c3.867-0.002,7.001-3.134,7.001-6.997C15.001,4.136,11.867,1.001,8,1.001z M8,13.585c-3.083-0.006-5.577-2.5-5.583-5.581 C2.423,4.918,4.917,2.423,8,2.417c3.084,0.006,5.578,2.501,5.585,5.587C13.578,11.085,11.084,13.579,8,13.585z"/></g></svg>