<?xml version="1.0"?><!DOCTYPE svg PUBLIC "-//W3C//DTD SVG 1.1//EN" "http://www.w3.org/Graphics/SVG/1.1/DTD/svg11.dtd"><svg width="16px" height="16px" xmlns="http://www.w3.org/2000/svg" viewBox="0 0 16 16" shape-rendering="geometricPrecision" fill="#00962d"><defs><mask id="edit-path"><rect fill="#fff" width="100%" height="100%"/><path d="M15.568,0.488c0.365-0.9-0.337-1.487-0.851-1.704c-0.593-0.25-1.396-0.157-1.78,0.752l-0.142,0.357 l-2.14,5.317l0.603,2.278l1.98-1.23l2.202-5.47L15.568,0.488z" fill="#000"/></mask></defs><g id="edit_3_" display="inline" fill="#cb1800"><polygon points="11.686,6.423 12.286,5.91 11.611,5.641 "/><path d="M14.245,0.038c-0.365-0.147-0.778,0.03-0.927,0.393l-0.213,0.531l1.326,0.532l0.214-0.532h-0.001 C14.787,0.597,14.61,0.183,14.245,0.038z"/><rect x="10.982" y="2.666" transform="matrix(0.3723 -0.9281 0.9281 0.3723 4.9642 14.0992)" width="3.849" height="1.428"/></g><g mask="url(#edit-path)"><path d="M14.186,9.847c0,0.756-0.626,1.381-1.381,1.384h-5.68l-0.204,0.271c-0.036,0.055-0.853,1.103-2.306,1.798 c0.166-0.458,0.229-0.901,0.225-1.289c0-0.027,0-0.066-0.002-0.119L4.82,11.23H3.195c-0.755-0.003-1.381-0.628-1.381-1.384V4.489 c0-0.759,0.626-1.382,1.381-1.384h9.61c0.755,0.002,1.381,0.625,1.381,1.384V9.847z"/><path d="M12.455,2.215H3.545c-1.404,0-2.543,1.14-2.544,2.545v4.968c0.001,1.402,1.141,2.543,2.544,2.544h0.198 c-0.097,0.406-0.327,0.851-0.833,1.312L1.333,15l2.097-0.321c2.375-0.376,3.844-1.808,4.372-2.407h4.654 c1.405-0.001,2.543-1.142,2.544-2.544V4.76C14.998,3.355,13.86,2.215,12.455,2.215z M13.735,9.728c0,0.7-0.58,1.28-1.28,1.281 H7.189L7,11.262c-0.033,0.05-0.79,1.021-2.137,1.666c0.153-0.425,0.211-0.836,0.208-1.194c0-0.025,0-0.062-0.001-0.11 l-0.018-0.614H3.545c-0.7-0.001-1.28-0.581-1.28-1.281V4.76c0-0.703,0.58-1.28,1.28-1.282h8.909c0.7,0.002,1.28,0.579,1.28,1.282 V9.728z"/></g></svg>