<?xml version="1.0"?><!DOCTYPE svg PUBLIC "-//W3C//DTD SVG 1.1//EN" "http://www.w3.org/Graphics/SVG/1.1/DTD/svg11.dtd"><svg width="16px" height="16px" xmlns="http://www.w3.org/2000/svg" viewBox="0 0 16 16" shape-rendering="geometricPrecision" fill="#00962d"><defs><mask id="edit-path"><rect fill="#fff" width="100%" height="100%"/><path d="M15.568,0.488c0.365-0.9-0.337-1.487-0.851-1.704c-0.593-0.25-1.396-0.157-1.78,0.752l-0.142,0.357 l-2.14,5.317l0.603,2.278l1.98-1.23l2.202-5.47L15.568,0.488z" fill="#000"/></mask></defs><g id="edit_3_" display="inline" fill="#cb1800"><polygon points="11.686,6.423 12.286,5.91 11.611,5.641 "/><path d="M14.245,0.038c-0.365-0.147-0.778,0.03-0.927,0.393l-0.213,0.531l1.326,0.532l0.214-0.532h-0.001 C14.787,0.597,14.61,0.183,14.245,0.038z"/><rect x="10.982" y="2.666" transform="matrix(0.3723 -0.9281 0.9281 0.3723 4.9642 14.0992)" width="3.849" height="1.428"/></g><g mask="url(#edit-path)"><g><g><g><g><path d="M13.658,5.408h-3.342C9.18,5.409,8.463,6.048,8.153,6.926h5.392v0.002c0.004,0,0.006-0.002,0.008-0.002 c0.27,0,0.482,0.479,0.482,1.066c0,0.588-0.213,1.064-0.482,1.064H8.146c0.307,0.888,1.026,1.535,2.171,1.535h3.342 C15.223,10.592,16,9.385,16,8C16.002,6.615,15.225,5.408,13.658,5.408z"/></g></g><g><g><path d="M2.454,9.074V9.072c-0.002,0-0.004,0.002-0.006,0.002c-0.268,0-0.484-0.479-0.484-1.066 c0-0.588,0.217-1.064,0.484-1.064h5.406C7.546,6.056,6.828,5.408,5.684,5.408H2.342C0.78,5.408,0,6.615,0,8 c-0.002,1.385,0.777,2.592,2.342,2.592h3.342c1.135-0.001,1.852-0.64,2.162-1.518H2.454z"/></g></g></g><path d="M11.162,7.201H4.85C4.352,7.201,3.948,7.561,3.948,8c0,0.439,0.404,0.797,0.902,0.797h6.312c0.498,0,0.9-0.357,0.9-0.797 C12.062,7.561,11.66,7.201,11.162,7.201z"/></g></g></svg>