<?xml version="1.0"?><!DOCTYPE svg PUBLIC "-//W3C//DTD SVG 1.1//EN" "http://www.w3.org/Graphics/SVG/1.1/DTD/svg11.dtd"><svg width="16px" height="16px" xmlns="http://www.w3.org/2000/svg" viewBox="0 0 16 16" shape-rendering="geometricPrecision" fill="#00962d"><defs><mask id="edit-path"><rect fill="#fff" width="100%" height="100%"/><path d="M15.568,0.488c0.365-0.9-0.337-1.487-0.851-1.704c-0.593-0.25-1.396-0.157-1.78,0.752l-0.142,0.357 l-2.14,5.317l0.603,2.278l1.98-1.23l2.202-5.47L15.568,0.488z" fill="#000"/></mask></defs><g id="edit_3_" display="inline" fill="#cb1800"><polygon points="11.686,6.423 12.286,5.91 11.611,5.641 "/><path d="M14.245,0.038c-0.365-0.147-0.778,0.03-0.927,0.393l-0.213,0.531l1.326,0.532l0.214-0.532h-0.001 C14.787,0.597,14.61,0.183,14.245,0.038z"/><rect x="10.982" y="2.666" transform="matrix(0.3723 -0.9281 0.9281 0.3723 4.9642 14.0992)" width="3.849" height="1.428"/></g><g mask="url(#edit-path)"><g><g><g><path d="M6.35,5.582C6.819,5.26,7.387,5.072,8,5.072c0.612,0,1.181,0.189,1.651,0.51l1.471-1.47 C10.266,3.424,9.182,3.011,8,3.011c-1.182,0-2.266,0.413-3.122,1.1L6.35,5.582z"/><path d="M5.583,6.349L4.112,4.878C3.424,5.733,3.011,6.818,3.011,8c0,1.182,0.413,2.267,1.1,3.121l1.471-1.471 C5.261,9.181,5.072,8.613,5.072,8C5.072,7.387,5.261,6.819,5.583,6.349z"/></g><g><path d="M10.418,9.651l1.47,1.47c0.687-0.855,1.1-1.939,1.1-3.121c0-1.182-0.413-2.267-1.101-3.122l-1.471,1.471 C10.74,6.819,10.928,7.387,10.928,8S10.74,9.181,10.418,9.651z"/><path d="M9.651,10.418C9.181,10.739,8.613,10.928,8,10.928c-0.613,0-1.181-0.189-1.651-0.51l-1.471,1.471 c0.855,0.687,1.94,1.1,3.122,1.1c1.182,0,2.267-0.413,3.122-1.101L9.651,10.418z"/></g></g><g><path d="M7.934,14.81c-1.059,0-2.058-0.417-2.814-1.173l-2.756-2.756C0.824,9.342,0.8,6.862,2.309,5.353l3.045-3.044 C6.074,1.587,7.038,1.19,8.067,1.19c1.058,0,2.058,0.416,2.814,1.172l2.756,2.756c0.744,0.744,1.16,1.728,1.173,2.77 c0.012,1.046-0.386,2.025-1.118,2.758l-3.045,3.045C9.926,14.412,8.962,14.81,7.934,14.81z M8.067,2.19 c-0.762,0-1.475,0.293-2.006,0.825L3.016,6.06C1.896,7.179,1.921,9.024,3.07,10.174l2.756,2.756 c1.113,1.113,3.028,1.141,4.113,0.055l3.045-3.045c0.541-0.54,0.834-1.265,0.825-2.039c-0.009-0.779-0.321-1.516-0.88-2.074 L10.174,3.07C9.606,2.503,8.858,2.19,8.067,2.19z"/></g></g></g></svg>