<svg width="16" height="16" xmlns="http://www.w3.org/2000/svg" viewBox="0 0 16 16" shape-rendering="geometricPrecision" fill="#00962d"><defs><mask id="a"><rect fill="#fff" width="100%" height="100%"/><path d="M15.568.488c.365-.9-.337-1.487-.851-1.704-.593-.25-1.396-.157-1.78.752l-.142.357-2.14 5.317.603 2.278 1.98-1.23L15.44.788l.128-.3z" fill="#000"/></mask></defs><path d="M11.686 6.423l.6-.513-.675-.269zM14.245.038a.714.714 0 0 0-.927.393l-.213.531 1.326.532.214-.532h-.001a.714.714 0 0 0-.399-.924zM11.527 4.9l1.433-3.573 1.325.532-1.433 3.572z" fill="#cb1800"/><g mask="url(#a)"><path d="M1.021 1.02v2.617c3.137 0 5.964 1.267 8.021 3.32a11.31 11.31 0 0 1 3.321 8.021h2.617C14.978 7.27 8.73 1.022 1.021 1.02zm0 4.709v2.613a6.647 6.647 0 0 1 6.635 6.637h2.616a9.251 9.251 0 0 0-9.251-9.25zM2.9 11.222a1.88 1.88 0 1 0 .001 3.757 1.88 1.88 0 0 0-.001-3.757z"/></g></svg>