<svg width="16" height="16" xmlns="http://www.w3.org/2000/svg" viewBox="0 0 16 16" shape-rendering="geometricPrecision" fill="#00962d"><defs><mask id="a"><rect fill="#fff" width="100%" height="100%"/><path d="M16.451 1.534a1.141 1.141 0 0 0-.288-1.066l-.58-.581a1.116 1.116 0 0 0-1.065-.29 1.127 1.127 0 0 0-.962-.551h-.819c-.41 0-.77.223-.964.554-.38-.106-.813.038-1.062.288l-.576.579a1.116 1.116 0 0 0-.292 1.067c-.329.194-.55.553-.55.962v.821c0 .408.221.766.548.96a1.14 1.14 0 0 0-.035.285c.002.263.14.595.325.781l.58.581c.248.248.68.393 1.062.287.194.332.555.555.963.555h.82c.298 0 .588-.121.796-.333a1.02 1.02 0 0 0 .158-.216c.098.025.201.031.3.036.26-.004.588-.144.771-.328l.57-.572c.215-.21.337-.503.335-.803 0-.085-.016-.178-.042-.271.333-.193.556-.552.556-.964v-.821c0-.408-.221-.766-.549-.96z" fill="#000"/></mask></defs><path d="M15.884 2.379h-.177v-.003a.523.523 0 0 1-.5-.325.531.531 0 0 1 .122-.586l.126-.126a.12.12 0 0 0 0-.165l-.579-.58a.117.117 0 0 0-.166 0l-.125.125A.525.525 0 0 1 14 .841a.532.532 0 0 1-.326-.501l-.001-.177a.117.117 0 0 0-.117-.117h-.819a.117.117 0 0 0-.116.117v.178a.53.53 0 0 1-.911.379l-.126-.126a.118.118 0 0 0-.165 0l-.578.581a.116.116 0 0 0 0 .164l.123.127a.532.532 0 0 1 .124.586.523.523 0 0 1-.499.325l-.178.003a.117.117 0 0 0-.117.117v.821c0 .063.052.116.117.116h.178l-.002.002a.524.524 0 0 1 .501.325.53.53 0 0 1-.123.585v.001l-.125.127a.117.117 0 0 0 0 .163l.579.58a.116.116 0 0 0 .165 0l.127-.124a.53.53 0 0 1 .585-.123c.207.088.331.29.326.502l.002.177h-.002a.117.117 0 0 0 .116.117h.82a.117.117 0 0 0 .117-.117h-.001l.001-.177a.529.529 0 0 1 .911-.379l.124.126a.116.116 0 0 0 .165 0l.58-.58a.114.114 0 0 0 0-.163l-.125-.129a.53.53 0 0 1 .378-.911l.177-.004A.117.117 0 0 0 16 3.315v-.821a.117.117 0 0 0-.116-.115zM13.146 3.91a1.002 1.002 0 0 1-1.001-1.004c0-.555.448-1.005 1.001-1.005a1.004 1.004 0 0 1 0 2.009z" fill="#cb1800"/><path d="M5.583 11.08V9.383L4.325 11.08h1.258zm5.244-6.118a.82.82 0 0 0 .82-.82V1.876a.82.82 0 0 0-1.638 0v2.266a.817.817 0 0 0 .818.82zm-5.653 0a.82.82 0 0 0 .818-.82V1.876a.818.818 0 1 0-1.636 0v2.266c0 .452.363.82.818.82zm7.483-1.274v.549c0 1.009-.822 1.83-1.83 1.83a1.828 1.828 0 0 1-1.83-1.83v-.549H7.004v.549c0 1.009-.823 1.83-1.83 1.83a1.83 1.83 0 0 1-1.831-1.83v-.549H1.474V15h13.052V3.688h-1.869zm-5.132 8.464c-.144.098-.324.132-.544.134h-.09v.589c0 .225-.048.42-.176.561a.618.618 0 0 1-.469.201h-.01a.615.615 0 0 1-.477-.206c-.126-.142-.177-.335-.177-.556v-.589H3.73c-.275 0-.507-.063-.674-.212a.766.766 0 0 1-.204-.789.891.891 0 0 1 .101-.196c.038-.061.079-.119.121-.174.039-.054.091-.119.148-.197L5.34 7.885c.143-.19.26-.331.36-.427a.606.606 0 0 1 .428-.168c.23-.002.438.07.573.227.135.157.189.37.19.624l-.001 2.94h.018c.219 0 .403.027.558.097.192.084.281.291.275.509a.533.533 0 0 1-.216.465zm4.747 1.201c-.125.131-.306.186-.506.185H8.814a.783.783 0 0 1-.567-.211.683.683 0 0 1-.214-.499c.001-.135.046-.277.122-.446.077-.17.163-.309.266-.418.355-.369.678-.688.967-.952.287-.265.492-.438.626-.53.212-.149.386-.299.522-.443.134-.147.235-.294.306-.44a.996.996 0 0 0 .099-.415.682.682 0 0 0-.373-.635.8.8 0 0 0-.384-.096c-.304.005-.514.12-.696.391a2.066 2.066 0 0 0-.117.291c-.065.19-.142.343-.237.46a.581.581 0 0 1-.467.199.606.606 0 0 1-.441-.176.644.644 0 0 1-.177-.47c-.001-.207.046-.42.136-.636.09-.219.226-.418.403-.594.181-.18.407-.321.675-.428.274-.108.59-.161.944-.161.422 0 .792.065 1.107.205a1.781 1.781 0 0 1 1.029 1.621c0 .356-.09.688-.268.981a3 3 0 0 1-.531.671 27.72 27.72 0 0 1-.863.728c-.397.323-.669.576-.808.745l-.002.003h1.778c.226 0 .422.045.571.161a.58.58 0 0 1 .224.47.618.618 0 0 1-.172.439z" mask="url(#a)"/></svg>