<?xml version="1.0"?><!DOCTYPE svg PUBLIC "-//W3C//DTD SVG 1.1//EN" "http://www.w3.org/Graphics/SVG/1.1/DTD/svg11.dtd"><svg width="16px" height="16px" xmlns="http://www.w3.org/2000/svg" viewBox="0 0 16 16" shape-rendering="geometricPrecision" fill="#00962d"><defs><mask id="edit-path"><rect fill="#fff" width="100%" height="100%"/><path d="M15.568,0.488c0.365-0.9-0.337-1.487-0.851-1.704c-0.593-0.25-1.396-0.157-1.78,0.752l-0.142,0.357 l-2.14,5.317l0.603,2.278l1.98-1.23l2.202-5.47L15.568,0.488z" fill="#000"/></mask></defs><g id="edit_3_" display="inline" fill="#cb1800"><polygon points="11.686,6.423 12.286,5.91 11.611,5.641 "/><path d="M14.245,0.038c-0.365-0.147-0.778,0.03-0.927,0.393l-0.213,0.531l1.326,0.532l0.214-0.532h-0.001 C14.787,0.597,14.61,0.183,14.245,0.038z"/><rect x="10.982" y="2.666" transform="matrix(0.3723 -0.9281 0.9281 0.3723 4.9642 14.0992)" width="3.849" height="1.428"/></g><g mask="url(#edit-path)"><path d="M7.975,1.052C4.126,1.052,1.002,4.176,1,8.022h2.077c0-2.7,2.193-4.896,4.897-4.896 c2.705,0,4.899,2.195,4.899,4.897c0,2.706-2.194,4.899-4.898,4.9V15c3.851,0,6.973-3.126,6.973-6.977 C14.949,4.176,11.826,1.052,7.975,1.052z M10.595,8.023c0-1.444-1.175-2.617-2.621-2.617S5.356,6.579,5.356,8.023 c0,1.446,1.172,2.622,2.618,2.622S10.595,9.47,10.595,8.023z"/></g></svg>