<svg width="16" height="16" xmlns="http://www.w3.org/2000/svg" viewBox="0 0 16 16" shape-rendering="geometricPrecision" fill="#cb1800"><defs><mask id="a"><rect fill="#fff" width="100%" height="100%"/><path fill="#000" d="M14.782 1.217V-1h-3.564v2.217H9V4.78h2.218v2.221h3.564V4.78H17V1.217z"/></mask></defs><path d="M16 2.217h-2.218V0h-1.564v2.217H10V3.78h2.218v2.221h1.564V3.78H16z"/><path d="M11.17 3.472L9.519 5.124l3.176 3.178-3.176 3.179 1.651 1.65L16 8.305zM0 1.671l.001 12.497L6.4 15.999V2.435l-2.672-.764h4.061v13.03h1.066V.604H0v1.067zm1 .235l4.4 1.282v11.564L1 13.47V1.906z" mask="url(#a)"/></svg>