<svg width="16" height="16" xmlns="http://www.w3.org/2000/svg" viewBox="0 0 16 16" shape-rendering="geometricPrecision" fill="#cb1800"><defs><mask id="a"><rect fill="#fff" width="100%" height="100%"/><path fill="#000" d="M14.782 1.217V-1h-3.564v2.217H9V4.78h2.218v2.221h3.564V4.78H17V1.217z"/></mask></defs><path d="M16 2.217h-2.218V0h-1.564v2.217H10V3.78h2.218v2.221h1.564V3.78H16z"/><g mask="url(#a)"><path d="M8 5.495a3 3 0 1 0 .002 6.002A3 3 0 0 0 8 5.495zm0 5.394a2.397 2.397 0 0 1-2.393-2.392A2.398 2.398 0 0 1 8 6.102a2.398 2.398 0 0 1 2.393 2.394A2.396 2.396 0 0 1 8 10.889z"/><path d="M7.558 6.475v1.861l-1.153.671.456.798 1.608-.933h.01l-.001-2.397z"/><path d="M6.799 3.47L6.5 1.979h-4L2.2 3.47H.999v10h14v-10h-8.2zm7.201 9H2v-8h12v8z"/></g></svg>