<svg width="16" height="16" xmlns="http://www.w3.org/2000/svg" viewBox="0 0 16 16" shape-rendering="geometricPrecision" fill="#cb1800"><defs><mask id="a"><rect fill="#fff" width="100%" height="100%"/><path fill="#000" d="M14.782 1.217V-1h-3.564v2.217H9V4.78h2.218v2.221h3.564V4.78H17V1.217z"/></mask></defs><path d="M16 2.217h-2.218V0h-1.564v2.217H10V3.78h2.218v2.221h1.564V3.78H16z"/><g mask="url(#a)"><path d="M5.687 5.661A2.311 2.311 0 0 1 8 3.349a2.311 2.311 0 0 1 2.312 2.312V6.81h1.414V5.661a3.726 3.726 0 1 0-7.454 0V6.81h1.414V5.661zM3.062 7.792v7.207h9.876V7.792H3.062zm5.808 4.802a.87.87 0 0 1-1.739 0v-2.396a.87.87 0 0 1 1.739 0v2.396z"/></g></svg>