<svg width="16" height="16" xmlns="http://www.w3.org/2000/svg" viewBox="0 0 16 16" shape-rendering="geometricPrecision" fill="#cb1800"><defs><mask id="a"><rect fill="#fff" width="100%" height="100%"/><path fill="#000" d="M14.782 1.217V-1h-3.564v2.217H9V4.78h2.218v2.221h3.564V4.78H17V1.217z"/></mask></defs><path d="M16 2.217h-2.218V0h-1.564v2.217H10V3.78h2.218v2.221h1.564V3.78H16z"/><g mask="url(#a)"><path d="M11.348 7.312a1.992 1.992 0 0 1 1.779 1.146V4.747H9.053a1.978 1.978 0 0 0 1.081-1.737 1.992 1.992 0 0 0-3.982-.04 1.978 1.978 0 0 0 1.077 1.777H2.873v10.254h2.951a1.992 1.992 0 1 1 2.905-1.747 1.992 1.992 0 0 1-1.083 1.747h5.481v-4.845a1.992 1.992 0 0 1-3.792-.873 1.992 1.992 0 0 1 2.013-1.971z"/></g></svg>