<svg width="16" height="16" xmlns="http://www.w3.org/2000/svg" viewBox="0 0 16 16" shape-rendering="geometricPrecision" fill="#00962d"><defs><mask id="a"><rect fill="#fff" width="100%" height="100%"/><path fill="#000" d="M14.934-.397l-2.039 2.036-2.037-2.036-2.472 2.47 4.511 4.51 4.507-4.51z"/></mask></defs><path fill="#cb1800" d="M12.895 3.052l-2.037-2.035L9.8 2.073l3.097 3.096 3.093-3.096-1.057-1.056z"/><path d="M8 1.001a7 7 0 1 0 .003 14 7 7 0 0 0-.003-14zm4.016 8.024H9.023l.002 2.943-2.048.001.001-2.943H3.984l-.001-2.05h2.994V4l2.047-.001v2.976l2.993.001-.001 2.049z" mask="url(#a)"/></svg>