<svg width="16" height="16" xmlns="http://www.w3.org/2000/svg" viewBox="0 0 16 16" shape-rendering="geometricPrecision" fill="#00962d"><defs><mask id="a"><rect fill="#fff" width="100%" height="100%"/><path fill="#000" d="M14.934-.397l-2.039 2.036-2.037-2.036-2.472 2.47 4.511 4.51 4.507-4.51z"/></mask></defs><path fill="#cb1800" d="M12.895 3.052l-2.037-2.035L9.8 2.073l3.097 3.096 3.093-3.096-1.057-1.056z"/><path mask="url(#a)" d="M10.28 0L8.324 1.954l2.182 2.183h-.623l-.416.021C4.211 4.38 0 8.712 0 14.02v.63h2.994v-.63c0-1.839.717-3.569 2.017-4.872A6.85 6.85 0 0 1 9.884 7.13h.629v-.001h.167L8.324 9.487l1.954 1.953L16 5.717 10.28 0z"/></svg>