<?xml version="1.0"?><!DOCTYPE svg PUBLIC "-//W3C//DTD SVG 1.1//EN" "http://www.w3.org/Graphics/SVG/1.1/DTD/svg11.dtd"><svg width="16px" height="16px" xmlns="http://www.w3.org/2000/svg" viewBox="0 0 16 16" shape-rendering="geometricPrecision" fill="#00962d"><defs><mask id="move_down-path"><rect fill="#fff" width="100%" height="100%"/><polygon points="14.934,-0.397 12.895,1.639 10.858,-0.397 8.386,2.073 12.897,6.583 17.404,2.073 " fill="#000"/></mask></defs><polygon points="12.895,3.052 10.858,1.017 9.8,2.073 12.897,5.169 15.99,2.073 14.933,1.017 " fill="#cb1800"/><g mask="url(#move_down-path)"><g><polygon points="9.667,4.755 9.452,5.929 14.041,5.929 14.041,12.929 8.168,12.929 7.971,14 15.139,14 15.139,4.755"/><polygon points="7.151,11.929 1.916,11.929 1.916,4.929 8.435,4.929 8.651,3.755 7.394,3.755 6.578,1.832 2.798,1.832 1.982,3.755 0.861,3.755 0.861,13 6.955,13"/></g></g></svg>