<?xml version="1.0"?><!DOCTYPE svg PUBLIC "-//W3C//DTD SVG 1.1//EN" "http://www.w3.org/Graphics/SVG/1.1/DTD/svg11.dtd"><svg width="16px" height="16px" xmlns="http://www.w3.org/2000/svg" viewBox="0 0 16 16" shape-rendering="geometricPrecision" fill="#cb1800"><defs><mask id="remove-path"><rect fill="#fff" width="100%" height="100%"/><rect x="8.986" y="1.143" width="8.014" height="3.565" fill="#000"/></mask></defs><g fill="#cb1800"><rect x="9.986" y="2.143" width="6.014" height="1.565"/></g><g mask="url(#remove-path)"><path d="M7.983,8.903L3.694,6.274L0.793,8.596c0.046,0.096,4.25,2.737,4.25,2.737L7.98,9.125l3.028,2.206 l4.352-2.617l-3.1-2.494L7.983,8.903z"/><polygon points="7.98,9.955 5.053,12.152 3.598,11.339 3.598,12.169 7.998,14.955 12.364,12.169 12.364,11.339 10.994,12.152"/><polygon points="11.084,1.045 7.98,3.59 12.26,6.218 15.362,3.792"/><polygon points="0.638,3.928 3.702,6.27 7.98,3.59 5.041,1.047"/><rect x="12.259" y="6.219" transform="matrix(0.7071 -0.7071 0.7071 0.7071 -0.8068 10.4906)" width="0.001" height="0.001"/></g></svg>