<svg width="16" height="16" xmlns="http://www.w3.org/2000/svg" viewBox="0 0 16 16" shape-rendering="geometricPrecision" fill="#cb1800"><defs><mask id="a"><rect fill="#fff" width="100%" height="100%"/><path fill="#000" d="M8.986 1.143H17v3.565H8.986z"/></mask></defs><path d="M9.986 2.143H16v1.565H9.986z"/><g mask="url(#a)"><path d="M8.001 1.062a6.94 6.94 0 1 0 0 13.878 6.94 6.94 0 0 0 0-13.878zm0 12.472a5.543 5.543 0 0 1-5.536-5.531 5.544 5.544 0 0 1 5.536-5.537 5.543 5.543 0 0 1 5.534 5.537 5.54 5.54 0 0 1-5.534 5.531z"/><path d="M8.001 8V3.327a4.682 4.682 0 0 0-4.674 4.675 4.68 4.68 0 0 0 4.674 4.67 4.678 4.678 0 0 0 4.672-4.67v-.003H8.001z"/></g></svg>