<?xml version="1.0"?><!DOCTYPE svg PUBLIC "-//W3C//DTD SVG 1.1//EN" "http://www.w3.org/Graphics/SVG/1.1/DTD/svg11.dtd"><svg width="16px" height="16px" xmlns="http://www.w3.org/2000/svg" viewBox="0 0 16 16" shape-rendering="geometricPrecision" fill="#00962d"><defs><mask id="pause-path"><rect fill="#fff" width="100%" height="100%"/><polygon points="13.135,-1 12.45,-1 9.585,-1 9.585,6.956 12.45,6.956 13.135,6.956 16,6.956 16,-1 " fill="#000"/></mask></defs><g fill="#cb1800"><g><rect x="10.585" width="1.55" height="5.956"/></g><g><rect x="13.45" width="1.55" height="5.956"/></g></g><path mask="url(#pause-path)" d="M15.98,6.366c-0.174-0.729-1.551-1.107-3.448-1.107c0,0,0.104,0.154,0.185,0.325 c0.083,0.175,0.137,0.377,0.137,0.377c1.909,0.035,2.423,0.478,2.445,0.568c0.069,0.291-0.751,1.064-2.466,1.879 c0.146-1.82-0.726-3.649-2.405-4.636c-2.341-1.376-5.353-0.593-6.73,1.75c-0.948,1.614-0.869,3.546,0.038,5.042 c-0.113,0.003-0.236,0.013-0.346,0.013c-2.112,0-2.669-0.476-2.692-0.57C0.637,9.743,1.29,9.092,2.671,8.37 c0,0-0.028-0.184-0.027-0.361C2.645,7.8,2.671,7.592,2.671,7.592c-1.745,0.867-2.828,1.834-2.652,2.576 c0.174,0.729,1.475,1.107,3.372,1.107c0.268,0,0.558-0.016,0.848-0.031c0.338,0.387,0.74,0.729,1.208,1.004 c2.342,1.375,5.354,0.594,6.729-1.746c0.239-0.406,0.408-0.833,0.52-1.267C14.85,8.287,16.179,7.2,15.98,6.366z M4.556,6.025 c1.102-1.867,3.5-2.49,5.369-1.397c1.506,0.889,2.2,2.623,1.837,4.242c-0.937,0.371-2.055,0.735-3.369,1.048 c-1.199,0.286-2.388,0.476-3.483,0.576C3.899,9.259,3.704,7.482,4.556,6.025z M11.319,9.999c-1.1,1.863-3.498,2.487-5.368,1.393 c-0.135-0.08-0.261-0.168-0.383-0.26c0.939-0.111,1.943-0.284,2.987-0.532c1.04-0.248,2.016-0.543,2.902-0.866 C11.413,9.822,11.37,9.911,11.319,9.999z"/></svg>