<?xml version="1.0"?><!DOCTYPE svg PUBLIC "-//W3C//DTD SVG 1.1//EN" "http://www.w3.org/Graphics/SVG/1.1/DTD/svg11.dtd"><svg width="16px" height="16px" xmlns="http://www.w3.org/2000/svg" viewBox="0 0 16 16" shape-rendering="geometricPrecision" fill="#00962d"><defs><mask id="pause-path"><rect fill="#fff" width="100%" height="100%"/><polygon points="13.135,-1 12.45,-1 9.585,-1 9.585,6.956 12.45,6.956 13.135,6.956 16,6.956 16,-1 " fill="#000"/></mask></defs><g fill="#cb1800"><g><rect x="10.585" width="1.55" height="5.956"/></g><g><rect x="13.45" width="1.55" height="5.956"/></g></g><g mask="url(#pause-path)"><g><g><rect x="11.473" y="1.006" width="1.042" height="13.987"/></g><g><rect x="7.459" y="1.006" width="1.062" height="13.987"/></g><g><rect x="3.444" y="1.006" width="1.021" height="13.987"/></g><path d="M10.499,8.527V6.5c0-0.267,0.216-0.483,0.483-0.483h2.027c0.267,0,0.483,0.216,0.483,0.483v2.027 c0,0.267-0.216,0.483-0.483,0.483h-2.027C10.715,9.01,10.499,8.794,10.499,8.527z"/><path d="M6.495,5.519V3.487c0-0.267,0.216-0.483,0.483-0.483H9.01c0.267,0,0.483,0.216,0.483,0.483v2.032 c0,0.267-0.216,0.483-0.483,0.483H6.978C6.711,6.002,6.495,5.786,6.495,5.519z"/><path d="M2.495,12.517v-2.019c0-0.267,0.216-0.483,0.483-0.483h2.019c0.267,0,0.483,0.216,0.483,0.483v2.019 C5.48,12.784,5.264,13,4.997,13H2.978C2.712,13,2.495,12.784,2.495,12.517z"/></g></g></svg>