<svg width="16" height="16" xmlns="http://www.w3.org/2000/svg" viewBox="0 0 16 16" shape-rendering="geometricPrecision" fill="#00962d"><defs><mask id="a"><rect fill="#fff" width="100%" height="100%"/><path fill="#000" d="M13.135-1h-3.55v7.956H16V-1z"/></mask></defs><path d="M10.585 0h1.55v5.956h-1.55zm2.865 0H15v5.956h-1.55z" fill="#cb1800"/><g mask="url(#a)"><path d="M14.938 8.001a6.94 6.94 0 1 0-13.878 0 6.94 6.94 0 0 0 13.878 0zm-12.472 0a5.543 5.543 0 0 1 5.531-5.536 5.544 5.544 0 0 1 5.537 5.536 5.543 5.543 0 0 1-5.537 5.534 5.54 5.54 0 0 1-5.531-5.534z"/><path d="M8 12.673a4.68 4.68 0 0 0 4.673-4.672A4.682 4.682 0 0 0 8 3.327v9.346z"/></g></svg>