<svg width="16" height="16" xmlns="http://www.w3.org/2000/svg" viewBox="0 0 16 16" shape-rendering="geometricPrecision" fill="#00962d"><defs><mask id="a"><rect fill="#fff" width="100%" height="100%"/><path fill="#000" d="M13.135-1h-3.55v7.956H16V-1z"/></mask></defs><path d="M10.585 0h1.55v5.956h-1.55zm2.865 0H15v5.956h-1.55z" fill="#cb1800"/><path d="M13.237 5.237l-1.791 1.791-3.447-3.445-3.448 3.445-1.789-1.791L8.002 0zM0 8v6.929h16V8H0zm14.413 5.495H1.588v-4.06h12.825v4.06zm-2.387-1.517a.934.934 0 0 0 .939-.93.934.934 0 0 0-.939-.931.935.935 0 0 0-.941.931c0 .513.42.93.941.93z" mask="url(#a)"/></svg>