<svg width="16" height="16" xmlns="http://www.w3.org/2000/svg" viewBox="0 0 16 16" shape-rendering="geometricPrecision" fill="#fff"><defs><mask id="a"><rect width="100%" height="100%"/><path fill="#000" d="M14.782 1.217V-1h-3.564v2.217H9V4.78h2.218v2.221h3.564V4.78H17V1.217z"/></mask></defs><path fill="#cb1800" d="M16 2.217h-2.218V0h-1.564v2.217H10V3.78h2.218v2.221h1.564V3.78H16z"/><path d="M11.805 2.414a1.772 1.772 0 1 0-3.29-1.317l-.529 1.317 3.291 1.321.531-1.321h-.003zM4.463 15.971l1.491-1.273-1.676-.668.185 1.941zm-.391-3.782l3.289 1.319 3.554-8.869-3.29-1.318-3.553 8.868z" mask="url(#a)"/></svg>