<svg width="16" height="16" xmlns="http://www.w3.org/2000/svg" viewBox="0 0 16 16" shape-rendering="geometricPrecision" fill="#fff"><defs><mask id="a"><rect width="100%" height="100%"/><path fill="#000" d="M14.782 1.217V-1h-3.564v2.217H9V4.78h2.218v2.221h3.564V4.78H17V1.217z"/></mask></defs><path fill="#cb1800" d="M16 2.217h-2.218V0h-1.564v2.217H10V3.78h2.218v2.221h1.564V3.78H16z"/><path d="M2.131 11.885V7.242l2.654 2.654 3.757-3.758 1.98 1.981 3.566-3.565-.92-.919-2.645 2.641-1.06-1.059.009-.009-.92-.92-3.768 3.765L2.14 5.411l-.009.01V3.738H1.037v9.242l.797-.002v.002h13.129v-1.095z" mask="url(#a)"/></svg>