<svg width="16" height="16" xmlns="http://www.w3.org/2000/svg" viewBox="0 0 16 16" shape-rendering="geometricPrecision" fill="#fff"><defs><mask id="a"><rect width="100%" height="100%"/><path fill="#000" d="M14.782 1.217V-1h-3.564v2.217H9V4.78h2.218v2.221h3.564V4.78H17V1.217z"/></mask></defs><path fill="#cb1800" d="M16 2.217h-2.218V0h-1.564v2.217H10V3.78h2.218v2.221h1.564V3.78H16z"/><path d="M1.011 8.002a6.989 6.989 0 1 0 13.978-.006 6.989 6.989 0 0 0-13.978.006zM8.514 8L5.268 4.755l1.686-1.686 4.93 4.928-4.931 4.933-1.685-1.684L8.514 8z" mask="url(#a)"/></svg>