<svg width="16" height="16" xmlns="http://www.w3.org/2000/svg" viewBox="0 0 16 16" shape-rendering="geometricPrecision" fill="#fff"><defs><mask id="a"><rect width="100%" height="100%"/><path fill="#000" d="M14.782 1.217V-1h-3.564v2.217H9V4.78h2.218v2.221h3.564V4.78H17V1.217z"/></mask></defs><path fill="#cb1800" d="M16 2.217h-2.218V0h-1.564v2.217H10V3.78h2.218v2.221h1.564V3.78H16z"/><g mask="url(#a)"><path d="M11.473 1.006h1.042v13.987h-1.042zm-4.014 0h1.062v13.987H7.459zm-4.015 0h1.021v13.987H3.444z"/><path d="M10.499 8.527V6.5c0-.267.216-.483.483-.483h2.027c.267 0 .483.216.483.483v2.027a.483.483 0 0 1-.483.483h-2.027a.483.483 0 0 1-.483-.483zM6.495 5.519V3.487c0-.267.216-.483.483-.483H9.01c.267 0 .483.216.483.483v2.032a.483.483 0 0 1-.483.483H6.978a.483.483 0 0 1-.483-.483zm-4 6.998v-2.019c0-.267.216-.483.483-.483h2.019c.267 0 .483.216.483.483v2.019a.483.483 0 0 1-.483.483H2.978a.483.483 0 0 1-.483-.483z"/></g></svg>