<svg width="16" height="16" xmlns="http://www.w3.org/2000/svg" viewBox="0 0 16 16" shape-rendering="geometricPrecision" fill="#fff"><defs><mask id="a"><rect width="100%" height="100%"/><path fill="#000" d="M14.782 1.217V-1h-3.564v2.217H9V4.78h2.218v2.221h3.564V4.78H17V1.217z"/></mask></defs><path fill="#cb1800" d="M16 2.217h-2.218V0h-1.564v2.217H10V3.78h2.218v2.221h1.564V3.78H16z"/><path mask="url(#a)" d="M9.985 2L8.271 3.713l1.912 1.914h-.546l-.364.018c-4.608.196-8.3 3.993-8.3 8.646v.553h2.624v-.553a6.01 6.01 0 0 1 1.768-4.271 6.008 6.008 0 0 1 4.272-1.768h.552V8.25h.147l-2.065 2.068 1.713 1.711L15 7.012 9.985 2z"/></svg>