<svg width="16" height="16" xmlns="http://www.w3.org/2000/svg" viewBox="0 0 16 16" shape-rendering="geometricPrecision" fill="#fff"><defs><mask id="a"><rect width="100%" height="100%"/><path fill="#000" d="M14.782 1.217V-1h-3.564v2.217H9V4.78h2.218v2.221h3.564V4.78H17V1.217z"/></mask></defs><path fill="#cb1800" d="M16 2.217h-2.218V0h-1.564v2.217H10V3.78h2.218v2.221h1.564V3.78H16z"/><g mask="url(#a)"><path d="M8.001 1.062a6.94 6.94 0 1 0 0 13.878 6.94 6.94 0 0 0 0-13.878zm0 12.472a5.543 5.543 0 0 1-5.536-5.531 5.544 5.544 0 0 1 5.536-5.537 5.543 5.543 0 0 1 5.534 5.537 5.54 5.54 0 0 1-5.534 5.531z"/></g></svg>