<svg width="16" height="16" xmlns="http://www.w3.org/2000/svg" viewBox="0 0 16 16" shape-rendering="geometricPrecision" fill="#fff"><defs><mask id="a"><rect width="100%" height="100%"/><path fill="#000" d="M14.782 1.217V-1h-3.564v2.217H9V4.78h2.218v2.221h3.564V4.78H17V1.217z"/></mask></defs><path fill="#cb1800" d="M16 2.217h-2.218V0h-1.564v2.217H10V3.78h2.218v2.221h1.564V3.78H16z"/><g mask="url(#a)"><path d="M15.387 12.386L11.35 8.347l-3.029 3.029 4.035 4.034c.784.783 2.092.741 2.932-.099.836-.835.879-2.148.099-2.925zM7.678 4.667a3.86 3.86 0 0 0-1.054-3.502C5.577.119 4.087-.186 2.765.211l2.109 2.112-.612 1.898-1.966.679L.188 2.788a3.87 3.87 0 0 0 .951 3.859 3.871 3.871 0 0 0 3.503 1.056l3.036-3.036zM.036 15.915l1.874-.578-1.274-1.278zm1.14-3.627l2.496 2.515L13.784 4.738l-2.497-2.515zM15.484.551a1.773 1.773 0 0 0-2.499-.017l-1.008 1 2.497 2.517 1.011-1.003-.002-.001c.687-.69.691-1.808.001-2.496z"/></g></svg>