<svg width="16" height="16" xmlns="http://www.w3.org/2000/svg" viewBox="0 0 16 16" shape-rendering="geometricPrecision" fill="#ffad00"><defs><mask id="a"><rect fill="#fff" width="100%" height="100%"/><path d="M17.514 2.671l-.862-.552L16.65-1h-2.866v.558A4.044 4.044 0 0 0 10.061.625c-1.569 1.569-1.554 4.141.035 5.732a4.084 4.084 0 0 0 2.901 1.205 3.98 3.98 0 0 0 2.831-1.168A3.973 3.973 0 0 0 17 3.557v-.886h.514zm-3.373.887c0 .22-.058.539-.333.813-.443.443-1.23.426-1.69-.035-.475-.475-.49-1.234-.036-1.689.011-.011.021-.022.033-.031v.922h2.026v.02z" fill="#000"/></mask></defs><path d="M13.114 2.537h2.538L15.651 0h-.867v1.105c-1.204-.927-2.924-.863-4.016.227-1.187 1.188-1.162 3.119.035 4.317 1.201 1.198 3.131 1.224 4.319.037A2.996 2.996 0 0 0 16 3.558l-.859.001a2.137 2.137 0 0 1-.627 1.521c-.843.842-2.231.836-3.104-.036-.871-.872-.877-2.26-.035-3.105.729-.727 1.86-.818 2.721-.268h-.983l.001.866z" fill="#cb1800"/><g mask="url(#a)"><path d="M3.446 8.977c.252.232.55.418.908.418.431 0 .709-.226.709-.656 0-.424-.272-.65-.663-.65-.246 0-.371.053-.623.212l-.437-.278.119-2.127h2.386v.822H4.3l-.073.789c.159-.073.298-.1.471-.1.723 0 1.339.411 1.339 1.306 0 .934-.723 1.471-1.544 1.471-.689 0-1.153-.258-1.484-.59l.437-.617zm3.156.57c1.074-1.014 1.829-1.736 1.829-2.333 0-.411-.232-.636-.596-.636-.305 0-.537.206-.749.431l-.53-.523c.418-.444.809-.669 1.412-.669.829 0 1.392.53 1.392 1.339 0 .709-.663 1.464-1.345 2.18.212-.026.504-.053.703-.053h.848v.822H6.602v-.558zm5.416-1.557c-.02-.291-.166-.477-.517-.477-.278 0-.557.113-.875.298l-.345-.643c.418-.252.888-.431 1.405-.431.841 0 1.305.477 1.305 1.484v1.882h-.795l-.073-.338h-.02c-.278.246-.59.418-.96.418-.597 0-.974-.437-.974-.994 0-.689.55-1.066 1.849-1.199zm-.543 1.438c.225 0 .371-.106.543-.278v-.577c-.696.093-.921.291-.921.543 0 .213.146.312.378.312z"/><path d="M7.999.97a7.03 7.03 0 0 0 0 14.06 7.03 7.03 0 1 0 0-14.06zm0 12.638a5.616 5.616 0 0 1-5.607-5.605 5.616 5.616 0 0 1 5.607-5.611 5.617 5.617 0 0 1 5.609 5.611 5.615 5.615 0 0 1-5.609 5.605z"/></g></svg>