<?xml version="1.0"?><!DOCTYPE svg PUBLIC "-//W3C//DTD SVG 1.1//EN" "http://www.w3.org/Graphics/SVG/1.1/DTD/svg11.dtd"><svg width="16px" height="16px" xmlns="http://www.w3.org/2000/svg" viewBox="0 0 16 16" shape-rendering="geometricPrecision" fill="#ffad00"><defs><mask id="refresh-path"><rect fill="#fff" width="100%" height="100%"/><path d="M17.514,2.671l-0.862-0.552L16.65-1h-2.866v0.558c-1.334-0.3-2.758,0.103-3.723,1.067 c-1.569,1.569-1.554,4.141,0.035,5.732c0.779,0.777,1.809,1.205,2.901,1.205c1.071,0,2.077-0.415,2.831-1.168 C16.585,5.639,17.001,4.631,17,3.557l0-0.886H17.514z M14.141,3.558c0,0.22-0.058,0.539-0.333,0.813 c-0.443,0.443-1.23,0.426-1.69-0.035c-0.475-0.475-0.49-1.234-0.036-1.689c0.011-0.011,0.021-0.022,0.033-0.031l0,0.922h2.026 V3.558z" fill="#000"/></mask></defs><path display="inline" d="M13.114,2.537h2.538L15.651,0h-0.867v1.105 c-1.204-0.927-2.924-0.863-4.016,0.227C9.581,2.52,9.606,4.451,10.803,5.649c1.201,1.198,3.131,1.224,4.319,0.037 C15.707,5.102,16.001,4.329,16,3.558l-0.859,0.001c-0.001,0.557-0.208,1.102-0.627,1.521c-0.843,0.842-2.231,0.836-3.104-0.036 c-0.871-0.872-0.877-2.26-0.035-3.105c0.729-0.727,1.86-0.818,2.721-0.268h-0.983L13.114,2.537z" fill="#cb1800"/><g mask="url(#refresh-path)"><path d="M11.097,9.117c0,0.212,0.146,0.311,0.378,0.311c0.225,0,0.371-0.106,0.543-0.278V8.573 C11.322,8.666,11.097,8.865,11.097,9.117z"/><path d="M7.999,0.97c-3.882,0-7.029,3.147-7.029,7.033c0.001,3.881,3.147,7.025,7.029,7.027 c3.883-0.002,7.031-3.146,7.031-7.027C15.03,4.116,11.882,0.97,7.999,0.97z M4.492,10.183c-0.689,0-1.153-0.258-1.484-0.59 l0.438-0.616c0.252,0.232,0.55,0.418,0.908,0.418c0.431,0,0.709-0.226,0.709-0.656c0-0.424-0.272-0.65-0.663-0.65 c-0.245,0-0.371,0.053-0.623,0.212L3.34,8.023l0.119-2.127h2.386v0.822H4.3L4.227,7.507c0.159-0.073,0.298-0.1,0.471-0.1 c0.723,0,1.339,0.411,1.339,1.306C6.037,9.647,5.314,10.183,4.492,10.183z M9.564,10.104H6.602V9.547 c1.074-1.014,1.829-1.736,1.829-2.333c0-0.411-0.232-0.636-0.596-0.636c-0.305,0-0.537,0.206-0.749,0.431l-0.53-0.523 c0.418-0.444,0.809-0.669,1.411-0.669c0.829,0,1.392,0.53,1.392,1.339c0,0.709-0.663,1.464-1.345,2.18 c0.212-0.026,0.504-0.053,0.703-0.053h0.848V10.104z M12.197,10.104l-0.073-0.338h-0.02c-0.278,0.246-0.59,0.418-0.96,0.418 c-0.597,0-0.974-0.437-0.974-0.994c0-0.689,0.55-1.067,1.849-1.199c-0.02-0.291-0.166-0.477-0.517-0.477 c-0.278,0-0.557,0.113-0.875,0.298l-0.345-0.643c0.418-0.252,0.888-0.431,1.405-0.431c0.841,0,1.305,0.477,1.305,1.484v1.882 H12.197z"/></g></svg>