<svg width="16" height="16" xmlns="http://www.w3.org/2000/svg" viewBox="0 0 16 16" shape-rendering="geometricPrecision" fill="#ffad00"><defs><mask id="a"><rect fill="#fff" width="100%" height="100%"/><path d="M17.514 2.671l-.862-.552L16.65-1h-2.866v.558A4.044 4.044 0 0 0 10.061.625c-1.569 1.569-1.554 4.141.035 5.732a4.084 4.084 0 0 0 2.901 1.205 3.98 3.98 0 0 0 2.831-1.168A3.973 3.973 0 0 0 17 3.557v-.886h.514zm-3.373.887c0 .22-.058.539-.333.813-.443.443-1.23.426-1.69-.035-.475-.475-.49-1.234-.036-1.689.011-.011.021-.022.033-.031v.922h2.026v.02z" fill="#000"/></mask></defs><path d="M13.114 2.537h2.538L15.651 0h-.867v1.105c-1.204-.927-2.924-.863-4.016.227-1.187 1.188-1.162 3.119.035 4.317 1.201 1.198 3.131 1.224 4.319.037A2.996 2.996 0 0 0 16 3.558l-.859.001a2.137 2.137 0 0 1-.627 1.521c-.843.842-2.231.836-3.104-.036-.871-.872-.877-2.26-.035-3.105.729-.727 1.86-.818 2.721-.268h-.983l.001.866z" fill="#cb1800"/><g mask="url(#a)"><path d="M15.002 12.385H.998v.829h.85l.649.805h11.082l.648-.805h.775zM7.325 8.637c-.804-.537-1.599-.875-2.117-.797l-1.041-.862a.449.449 0 0 0-.696-.567.442.442 0 0 0-.063.45.445.445 0 0 0-.432.149.448.448 0 0 0 .061.631c.183.152.449.13.609-.041l1.027.848c-.004.521.49 1.252 1.173 1.976.869.922 1.854 1.393 2.524.582.65-.785.029-1.656-1.045-2.369z"/><path d="M9.771 8.43c1.32 0 2.397.926 2.397 2.064 0 1.141-1.075 2.066-2.397 2.066-2.07 0-5.647-.486-6.205-1.09-.009-.027-.013-.084.042-.197.224-.478 1.062-1.121 2.175-1.375a4.207 4.207 0 0 1 1.09-.098l.552.027.331-.444c.444-.598 1.199-.953 2.015-.953m0-1.036c-1.187 0-2.23.545-2.847 1.371-.077-.001-.157-.005-.237-.005a5.13 5.13 0 0 0-1.134.131c-1.891.43-3.495 1.895-2.902 3.07.705 1.395 6.387 1.635 7.121 1.635 1.897 0 3.432-1.39 3.432-3.102-.001-1.713-1.537-3.1-3.433-3.1zm-1.522-.425l-.376-.358c.029-.029.732-.821-.033-2.097a2.33 2.33 0 0 1 .012-2.534l.419.301c-.025.037-.625.904.012 1.966.972 1.624.008 2.677-.034 2.722z"/><path d="M7.214 6.969l-.377-.358c.03-.029.733-.821-.033-2.095a2.335 2.335 0 0 1 .013-2.536l.42.301c-.027.037-.625.904.011 1.966.972 1.624.007 2.677-.034 2.722zm2.07 0l-.376-.358c.027-.029.73-.821-.033-2.098a2.33 2.33 0 0 1 .012-2.533l.418.301c-.026.037-.623.904.013 1.966.973 1.624.008 2.677-.034 2.722z"/></g></svg>