<?xml version="1.0"?><!DOCTYPE svg PUBLIC "-//W3C//DTD SVG 1.1//EN" "http://www.w3.org/Graphics/SVG/1.1/DTD/svg11.dtd"><svg width="16px" height="16px" xmlns="http://www.w3.org/2000/svg" viewBox="0 0 16 16" shape-rendering="geometricPrecision" fill="#ffad00"><defs><mask id="refresh-path"><rect fill="#fff" width="100%" height="100%"/><path d="M17.514,2.671l-0.862-0.552L16.65-1h-2.866v0.558c-1.334-0.3-2.758,0.103-3.723,1.067 c-1.569,1.569-1.554,4.141,0.035,5.732c0.779,0.777,1.809,1.205,2.901,1.205c1.071,0,2.077-0.415,2.831-1.168 C16.585,5.639,17.001,4.631,17,3.557l0-0.886H17.514z M14.141,3.558c0,0.22-0.058,0.539-0.333,0.813 c-0.443,0.443-1.23,0.426-1.69-0.035c-0.475-0.475-0.49-1.234-0.036-1.689c0.011-0.011,0.021-0.022,0.033-0.031l0,0.922h2.026 V3.558z" fill="#000"/></mask></defs><path display="inline" d="M13.114,2.537h2.538L15.651,0h-0.867v1.105 c-1.204-0.927-2.924-0.863-4.016,0.227C9.581,2.52,9.606,4.451,10.803,5.649c1.201,1.198,3.131,1.224,4.319,0.037 C15.707,5.102,16.001,4.329,16,3.558l-0.859,0.001c-0.001,0.557-0.208,1.102-0.627,1.521c-0.843,0.842-2.231,0.836-3.104-0.036 c-0.871-0.872-0.877-2.26-0.035-3.105c0.729-0.727,1.86-0.818,2.721-0.268h-0.983L13.114,2.537z" fill="#cb1800"/><path mask="url(#refresh-path)" d="M16.011,6.354c-0.174-0.731-1.554-1.11-3.454-1.11c0,0,0.104,0.154,0.186,0.325 c0.083,0.175,0.137,0.378,0.137,0.378c1.912,0.035,2.428,0.479,2.45,0.569c0.069,0.292-0.753,1.066-2.471,1.882 c0.146-1.824-0.727-3.656-2.41-4.645C8.104,2.375,5.085,3.158,3.706,5.506c-0.949,1.617-0.871,3.553,0.038,5.052 c-0.113,0.003-0.237,0.013-0.346,0.013c-2.116,0-2.675-0.477-2.697-0.571C0.638,9.737,1.293,9.084,2.676,8.362 c0,0-0.028-0.185-0.027-0.362C2.65,7.79,2.676,7.582,2.676,7.582C0.928,8.45-0.158,9.419,0.019,10.162 c0.174,0.731,1.478,1.11,3.379,1.11c0.268,0,0.56-0.016,0.85-0.031c0.339,0.388,0.742,0.731,1.21,1.006 c2.347,1.377,5.365,0.595,6.742-1.749c0.239-0.407,0.409-0.834,0.521-1.269C14.879,8.278,16.21,7.189,16.011,6.354z M4.565,6.011 c1.104-1.87,3.507-2.495,5.379-1.399c1.509,0.89,2.205,2.628,1.841,4.251c-0.939,0.372-2.059,0.736-3.376,1.05 c-1.201,0.286-2.392,0.477-3.49,0.577C3.907,9.252,3.711,7.471,4.565,6.011z M11.341,9.993c-1.102,1.867-3.505,2.491-5.378,1.395 c-0.135-0.08-0.262-0.168-0.384-0.261c0.941-0.111,1.947-0.284,2.993-0.533c1.042-0.248,2.02-0.545,2.908-0.868 C11.435,9.816,11.392,9.905,11.341,9.993z"/></svg>