<svg width="16" height="16" xmlns="http://www.w3.org/2000/svg" viewBox="0 0 16 16" shape-rendering="geometricPrecision" fill="#ffad00"><defs><mask id="a"><rect fill="#fff" width="100%" height="100%"/><path d="M17.514 2.671l-.862-.552L16.65-1h-2.866v.558A4.044 4.044 0 0 0 10.061.625c-1.569 1.569-1.554 4.141.035 5.732a4.084 4.084 0 0 0 2.901 1.205 3.98 3.98 0 0 0 2.831-1.168A3.973 3.973 0 0 0 17 3.557v-.886h.514zm-3.373.887c0 .22-.058.539-.333.813-.443.443-1.23.426-1.69-.035-.475-.475-.49-1.234-.036-1.689.011-.011.021-.022.033-.031v.922h2.026v.02z" fill="#000"/></mask></defs><path d="M13.114 2.537h2.538L15.651 0h-.867v1.105c-1.204-.927-2.924-.863-4.016.227-1.187 1.188-1.162 3.119.035 4.317 1.201 1.198 3.131 1.224 4.319.037A2.996 2.996 0 0 0 16 3.558l-.859.001a2.137 2.137 0 0 1-.627 1.521c-.843.842-2.231.836-3.104-.036-.871-.872-.877-2.26-.035-3.105.729-.727 1.86-.818 2.721-.268h-.983l.001.866z" fill="#cb1800"/><g mask="url(#a)"><path d="M5.583 11.08V9.383L4.325 11.08h1.258zm5.244-6.118a.82.82 0 0 0 .82-.82V1.876a.82.82 0 0 0-1.638 0v2.266a.817.817 0 0 0 .818.82zm-5.653 0a.82.82 0 0 0 .818-.82V1.876a.818.818 0 1 0-1.636 0v2.266c0 .452.363.82.818.82zm7.483-1.274v.549c0 1.009-.822 1.83-1.83 1.83a1.828 1.828 0 0 1-1.83-1.83v-.549H7.004v.549c0 1.009-.823 1.83-1.83 1.83a1.83 1.83 0 0 1-1.831-1.83v-.549H1.474V15h13.052V3.688h-1.869zm-5.132 8.464c-.144.098-.324.132-.544.134h-.09v.589c0 .225-.048.42-.176.561a.618.618 0 0 1-.469.201h-.01a.615.615 0 0 1-.477-.206c-.126-.142-.177-.335-.177-.556v-.589H3.73c-.275 0-.507-.063-.674-.212a.766.766 0 0 1-.204-.789.891.891 0 0 1 .101-.196c.038-.061.079-.119.121-.174.039-.054.091-.119.148-.197L5.34 7.885c.143-.19.26-.331.36-.427a.606.606 0 0 1 .428-.168c.23-.002.438.07.573.227.135.157.189.37.19.624l-.001 2.94h.018c.219 0 .403.027.558.097.192.084.281.291.275.509a.533.533 0 0 1-.216.465zm4.747 1.201c-.125.131-.306.186-.506.185H8.814a.783.783 0 0 1-.567-.211.683.683 0 0 1-.214-.499c.001-.135.046-.277.122-.446.077-.17.163-.309.266-.418.355-.369.678-.688.967-.952.287-.265.492-.438.626-.53.212-.149.386-.299.522-.443.134-.147.235-.294.306-.44a.996.996 0 0 0 .099-.415.682.682 0 0 0-.373-.635.8.8 0 0 0-.384-.096c-.304.005-.514.12-.696.391a2.066 2.066 0 0 0-.117.291c-.065.19-.142.343-.237.46a.581.581 0 0 1-.467.199.606.606 0 0 1-.441-.176.644.644 0 0 1-.177-.47c-.001-.207.046-.42.136-.636.09-.219.226-.418.403-.594.181-.18.407-.321.675-.428.274-.108.59-.161.944-.161.422 0 .792.065 1.107.205a1.781 1.781 0 0 1 1.029 1.621c0 .356-.09.688-.268.981a3 3 0 0 1-.531.671 27.72 27.72 0 0 1-.863.728c-.397.323-.669.576-.808.745l-.002.003h1.778c.226 0 .422.045.571.161a.58.58 0 0 1 .224.47.618.618 0 0 1-.172.439z"/></g></svg>