<svg width="16" height="16" xmlns="http://www.w3.org/2000/svg" viewBox="0 0 16 16" shape-rendering="geometricPrecision" fill="#ffad00"><defs><mask id="a"><rect fill="#fff" width="100%" height="100%"/><path d="M17.514 2.671l-.862-.552L16.65-1h-2.866v.558A4.044 4.044 0 0 0 10.061.625c-1.569 1.569-1.554 4.141.035 5.732a4.084 4.084 0 0 0 2.901 1.205 3.98 3.98 0 0 0 2.831-1.168A3.973 3.973 0 0 0 17 3.557v-.886h.514zm-3.373.887c0 .22-.058.539-.333.813-.443.443-1.23.426-1.69-.035-.475-.475-.49-1.234-.036-1.689.011-.011.021-.022.033-.031v.922h2.026v.02z" fill="#000"/></mask></defs><path d="M13.114 2.537h2.538L15.651 0h-.867v1.105c-1.204-.927-2.924-.863-4.016.227-1.187 1.188-1.162 3.119.035 4.317 1.201 1.198 3.131 1.224 4.319.037A2.996 2.996 0 0 0 16 3.558l-.859.001a2.137 2.137 0 0 1-.627 1.521c-.843.842-2.231.836-3.104-.036-.871-.872-.877-2.26-.035-3.105.729-.727 1.86-.818 2.721-.268h-.983l.001.866z" fill="#cb1800"/><g mask="url(#a)"><path d="M14.358 9.706a6.599 6.599 0 0 0 .228-1.697 6.578 6.578 0 0 0-6.578-6.578 6.59 6.59 0 0 0-1.691.229 3.314 3.314 0 0 0-1.906-.599 3.35 3.35 0 0 0-2.752 5.256 6.56 6.56 0 0 0-.227 1.692 6.578 6.578 0 0 0 6.578 6.578c.587 0 1.154-.084 1.696-.229a3.35 3.35 0 0 0 4.652-4.652zm-2.77 4.207c-.468 0-.92-.139-1.306-.402l-.388-.264-.453.121a5.577 5.577 0 0 1-1.433.193 5.558 5.558 0 0 1-5.552-5.553c0-.465.065-.947.193-1.428l.122-.459-.27-.388a2.306 2.306 0 0 1-.414-1.322 2.327 2.327 0 0 1 2.324-2.324c.475 0 .932.145 1.322.414l.39.271.458-.123a5.618 5.618 0 0 1 1.428-.191 5.557 5.557 0 0 1 5.552 5.551c0 .467-.065.949-.194 1.432l-.121.453.265.389c.263.387.402.838.402 1.307a2.327 2.327 0 0 1-2.325 2.323z"/><path d="M10.719 8.46a2.627 2.627 0 0 0-.574-.506 4.599 4.599 0 0 0-.729-.381l-1.202-.506c-.182-.074-.36-.146-.532-.224a2.615 2.615 0 0 1-.458-.26 1.187 1.187 0 0 1-.314-.328.821.821 0 0 1-.116-.443c0-.326.125-.584.375-.772.25-.188.59-.279 1.018-.279.382 0 .73.068 1.043.205.314.135.613.322.896.559l.818-1.01a3.883 3.883 0 0 0-1.242-.826 3.82 3.82 0 0 0-1.515-.307c-.437 0-.838.065-1.202.191a2.903 2.903 0 0 0-.942.531 2.495 2.495 0 0 0-.62.799 2.2 2.2 0 0 0-.226.99 2.27 2.27 0 0 0 .567 1.543c.168.191.361.354.58.49.218.137.437.252.655.342l1.215.533c.2.082.387.162.56.246.172.08.32.17.444.264.122.096.218.209.286.336a.971.971 0 0 1 .103.465c0 .346-.134.623-.402.832-.269.209-.653.312-1.154.312-.418 0-.833-.092-1.242-.279a3.988 3.988 0 0 1-1.092-.729l-.915 1.078c.428.418.919.742 1.475.969a4.502 4.502 0 0 0 1.734.342c.5 0 .948-.07 1.344-.213.396-.141.733-.33 1.01-.572a2.425 2.425 0 0 0 .854-1.863c0-.328-.043-.617-.129-.867a2.131 2.131 0 0 0-.371-.662z"/></g></svg>