<?xml version="1.0"?><!DOCTYPE svg PUBLIC "-//W3C//DTD SVG 1.1//EN" "http://www.w3.org/Graphics/SVG/1.1/DTD/svg11.dtd"><svg width="16px" height="16px" xmlns="http://www.w3.org/2000/svg" viewBox="0 0 16 16" shape-rendering="geometricPrecision" fill="#6e6e6e"><defs><mask id="export-path"><rect fill="#fff" width="100%" height="100%"/><path d="M13.848-1.1l-1.797,1.795l0.286,0.287c-1.812,0.575-3.107,2.263-3.107,4.254v0.987h2.626 V5.235c0-0.491,0.191-0.954,0.538-1.302c0.01-0.01,0.021-0.02,0.03-0.03l1.425,1.421l3.212-3.213L13.848-1.1z" fill="#000"/></mask></defs><path id="export" display="inline" d="M13.848-0.04l-0.736,0.735l0.821,0.821h-0.234 l-0.156,0.008c-1.978,0.084-3.563,1.714-3.563,3.711v0.237h1.126V5.235c0-0.691,0.27-1.343,0.759-1.833 c0.49-0.489,1.141-0.759,1.833-0.759h0.237V2.643h0.063L13.112,3.53l0.735,0.734L16,2.111L13.848-0.04z" fill="#cb1800"/><g mask="url(#export-path)"><g><g><path d="M12.933,2.584H3.067c-1.166,0-2.119,0.953-2.119,2.119v5.504c0,1.164,0.953,2.119,2.119,2.119h0.987 c0.023,0.76-0.201,1.758-1.224,2.674c2.905-0.451,4.518-2.537,4.621-2.674h5.481c1.166,0,2.119-0.955,2.119-2.119V4.703 C15.052,3.537,14.099,2.584,12.933,2.584z M4.495,8.746c-0.711,0-1.288-0.578-1.288-1.289c0-0.711,0.577-1.287,1.288-1.287 c0.711,0,1.288,0.576,1.288,1.287C5.783,8.168,5.206,8.746,4.495,8.746z M8,8.746c-0.711,0-1.289-0.578-1.289-1.289 C6.711,6.746,7.29,6.17,8,6.17c0.711,0,1.287,0.576,1.287,1.287C9.288,8.168,8.711,8.746,8,8.746z M11.505,8.746 c-0.711,0-1.288-0.578-1.288-1.289c0-0.711,0.577-1.287,1.288-1.287c0.711,0,1.288,0.576,1.288,1.287 C12.793,8.168,12.216,8.746,11.505,8.746z"/></g></g></g></svg>