<?xml version="1.0"?><!DOCTYPE svg PUBLIC "-//W3C//DTD SVG 1.1//EN" "http://www.w3.org/Graphics/SVG/1.1/DTD/svg11.dtd"><svg width="16px" height="16px" xmlns="http://www.w3.org/2000/svg" viewBox="0 0 16 16" shape-rendering="geometricPrecision" fill="#6e6e6e"><defs><mask id="export-path"><rect fill="#fff" width="100%" height="100%"/><path d="M13.848-1.1l-1.797,1.795l0.286,0.287c-1.812,0.575-3.107,2.263-3.107,4.254v0.987h2.626 V5.235c0-0.491,0.191-0.954,0.538-1.302c0.01-0.01,0.021-0.02,0.03-0.03l1.425,1.421l3.212-3.213L13.848-1.1z" fill="#000"/></mask></defs><path id="export" display="inline" d="M13.848-0.04l-0.736,0.735l0.821,0.821h-0.234 l-0.156,0.008c-1.978,0.084-3.563,1.714-3.563,3.711v0.237h1.126V5.235c0-0.691,0.27-1.343,0.759-1.833 c0.49-0.489,1.141-0.759,1.833-0.759h0.237V2.643h0.063L13.112,3.53l0.735,0.734L16,2.111L13.848-0.04z" fill="#cb1800"/><g mask="url(#export-path)"><g><polygon points="8.182,3.179 7.367,1.256 3.587,1.256 2.77,3.179 1.649,3.179 1.65,4.128 14.977,4.119 14.995,13.402 15.928,12.424 15.928,3.179"/><g><path d="M7.027,6.669C5.481,6.672,4.23,7.923,4.226,9.47c0.003,1.545,1.254,2.795,2.801,2.798 c1.546-0.003,2.797-1.253,2.8-2.798C9.824,7.923,8.573,6.672,7.027,6.669z M7.576,9.909l-1.881,1.092l-0.533-0.934l1.348-0.785 V7.105l1.076,0.001l0.001,2.804H7.576z"/><path d="M0.072,4.756V14h14.279V4.756H0.072z M7.027,12.979c-1.939-0.001-3.511-1.572-3.511-3.509 c0-1.94,1.572-3.512,3.511-3.512c1.938,0,3.51,1.572,3.51,3.512C10.536,11.407,8.965,12.978,7.027,12.979z"/></g></g></g></svg>