<svg width="16" height="16" xmlns="http://www.w3.org/2000/svg" viewBox="0 0 16 16" shape-rendering="geometricPrecision" fill="#6e6e6e"><defs><mask id="a"><rect fill="#fff" width="100%" height="100%"/><path d="M13.848-1.1L12.051.695l.286.287A4.455 4.455 0 0 0 9.23 5.236v.987h2.626v-.988c0-.491.191-.954.538-1.302l.03-.03 1.425 1.421 3.212-3.213L13.848-1.1z" fill="#000"/></mask></defs><path d="M13.848-.04l-.736.735.821.821h-.234l-.156.008A3.722 3.722 0 0 0 9.98 5.235v.237h1.126v-.237c0-.691.27-1.343.759-1.833a2.579 2.579 0 0 1 1.833-.759h.3l-.886.887.735.734L16 2.111 13.848-.04z" fill="#cb1800"/><g mask="url(#a)"><path d="M11.231 3.39c.003-.045.008-.09.008-.137A3.24 3.24 0 0 0 7.999.012a3.234 3.234 0 0 0-3.031 2.104l1.31.401a1.872 1.872 0 1 1 3.024 2.078c-.584.621-1.028.621-2.174 1.236-1.828.982-2.273 2.51-2.37 3.412v6.745h6.483v-12.6h-.011v.002zm-.812 10.615l-1.02 1.023-1.452-1.453-1.452 1.454-1.023-1.024 1.453-1.453-1.452-1.451 1.022-1.022 1.451 1.452 1.453-1.452 1.02 1.022-1.452 1.451 1.452 1.453z"/></g></svg>