<svg width="16" height="16" xmlns="http://www.w3.org/2000/svg" viewBox="0 0 16 16" shape-rendering="geometricPrecision" fill="#6e6e6e"><defs><mask id="a"><rect fill="#fff" width="100%" height="100%"/><path d="M13.848-1.1L12.051.695l.286.287A4.455 4.455 0 0 0 9.23 5.236v.987h2.626v-.988c0-.491.191-.954.538-1.302l.03-.03 1.425 1.421 3.212-3.213L13.848-1.1z" fill="#000"/></mask></defs><path d="M13.848-.04l-.736.735.821.821h-.234l-.156.008A3.722 3.722 0 0 0 9.98 5.235v.237h1.126v-.237c0-.691.27-1.343.759-1.833a2.579 2.579 0 0 1 1.833-.759h.3l-.886.887.735.734L16 2.111 13.848-.04z" fill="#cb1800"/><g mask="url(#a)"><path d="M8 5.2a2.8 2.8 0 0 1 .024 5.598v1.401A4.2 4.2 0 0 0 8 3.801a4.2 4.2 0 0 0-4.201 4.201v.009h1.4l-.001-.009A2.803 2.803 0 0 1 8 5.2zM8 .998A7.002 7.002 0 0 0 .999 8.002v.009H2.4v-.009a5.601 5.601 0 1 1 5.625 5.599v1.401A7.003 7.003 0 0 0 8 .998z"/><circle cx="4.599" cy="11.22" r="2.105"/></g></svg>