<svg width="16" height="16" xmlns="http://www.w3.org/2000/svg" viewBox="0 0 16 16" shape-rendering="geometricPrecision" fill="#24437c"><defs><mask id="a"><rect fill="#fff" width="100%" height="100%"/><path d="M17.514 2.671l-.862-.552L16.65-1h-2.866v.558A4.044 4.044 0 0 0 10.061.625c-1.569 1.569-1.554 4.141.035 5.732a4.084 4.084 0 0 0 2.901 1.205 3.98 3.98 0 0 0 2.831-1.168A3.973 3.973 0 0 0 17 3.557v-.886h.514zm-3.373.887c0 .22-.058.539-.333.813-.443.443-1.23.426-1.69-.035-.475-.475-.49-1.234-.036-1.689.011-.011.021-.022.033-.031v.922h2.026v.02z" fill="#000"/></mask></defs><path d="M13.114 2.537h2.538L15.651 0h-.867v1.105c-1.204-.927-2.924-.863-4.016.227-1.187 1.188-1.162 3.119.035 4.317 1.201 1.198 3.131 1.224 4.319.037A2.996 2.996 0 0 0 16 3.558l-.859.001a2.137 2.137 0 0 1-.627 1.521c-.843.842-2.231.836-3.104-.036-.871-.872-.877-2.26-.035-3.105.729-.727 1.86-.818 2.721-.268h-.983l.001.866z" fill="#cb1800"/><g mask="url(#a)"><path d="M12.694 4.022c-.014 0-.026.005-.04.006v-.729c0-.716-.581-1.296-1.297-1.296H4.629c-.716 0-1.297.58-1.297 1.296v.727c-.009 0-.017-.004-.026-.004-.254 0-.459.152-.459.339V5.56c0 .188.206.339.459.339.009 0 .017-.003.026-.004v7.157h.002v.946h1.4v-.946h6.519v.946h1.4v-1.77h-.007V7.825c.001-.022.007-.042.007-.064V5.894c.015.001.027.006.041.006.254 0 .459-.152.459-.339V4.362c0-.188-.206-.34-.459-.34zm-7.18 7.81h-.555a.647.647 0 0 1 0-1.294h.555a.647.647 0 0 1 0 1.294zm5.357 0h-.555a.647.647 0 0 1 0-1.294h.555a.647.647 0 1 1 0 1.294zm.934-3.935c0 .646-.49 1.169-1.093 1.169H5.275c-.604 0-1.093-.523-1.093-1.169V4.104c0-.646.49-1.169 1.093-1.169h5.437c.604 0 1.093.523 1.093 1.169v3.793z"/></g></svg>