<svg width="16" height="16" xmlns="http://www.w3.org/2000/svg" viewBox="0 0 16 16" shape-rendering="geometricPrecision" fill="#24437c"><defs><mask id="a"><rect fill="#fff" width="100%" height="100%"/><path d="M17.514 2.671l-.862-.552L16.65-1h-2.866v.558A4.044 4.044 0 0 0 10.061.625c-1.569 1.569-1.554 4.141.035 5.732a4.084 4.084 0 0 0 2.901 1.205 3.98 3.98 0 0 0 2.831-1.168A3.973 3.973 0 0 0 17 3.557v-.886h.514zm-3.373.887c0 .22-.058.539-.333.813-.443.443-1.23.426-1.69-.035-.475-.475-.49-1.234-.036-1.689.011-.011.021-.022.033-.031v.922h2.026v.02z" fill="#000"/></mask></defs><path d="M13.114 2.537h2.538L15.651 0h-.867v1.105c-1.204-.927-2.924-.863-4.016.227-1.187 1.188-1.162 3.119.035 4.317 1.201 1.198 3.131 1.224 4.319.037A2.996 2.996 0 0 0 16 3.558l-.859.001a2.137 2.137 0 0 1-.627 1.521c-.843.842-2.231.836-3.104-.036-.871-.872-.877-2.26-.035-3.105.729-.727 1.86-.818 2.721-.268h-.983l.001.866z" fill="#cb1800"/><path mask="url(#a)" d="M14.49 13.121L14.479 0H4.034C2.658.003 1.536.619 1.513 1.987c-.003.025-.003.529 0 .535v.003c0 .04.009.076.011.117h-.009v10.826A2.532 2.532 0 0 0 4.044 16h8.386l-.038-1.689-.009-11.345h-8.35c-.496 0-1.68-.048-1.68-.979v-.093C2.404 1.009 3.537.842 4.033.842h9.593v12.279h.864zM7.819 4.302a1.122 1.122 0 1 1 0 2.243 1.122 1.122 0 0 1 0-2.243zm-2.257 8.694h1.105v-4.47H5.566v-.834h3.359v5.304h1.106v1.111H5.562v-1.111z"/></svg>