<svg width="16" height="16" xmlns="http://www.w3.org/2000/svg" viewBox="0 0 16 16" shape-rendering="geometricPrecision" fill="#24437c"><defs><mask id="a"><rect fill="#fff" width="100%" height="100%"/><path d="M17.514 2.671l-.862-.552L16.65-1h-2.866v.558A4.044 4.044 0 0 0 10.061.625c-1.569 1.569-1.554 4.141.035 5.732a4.084 4.084 0 0 0 2.901 1.205 3.98 3.98 0 0 0 2.831-1.168A3.973 3.973 0 0 0 17 3.557v-.886h.514zm-3.373.887c0 .22-.058.539-.333.813-.443.443-1.23.426-1.69-.035-.475-.475-.49-1.234-.036-1.689.011-.011.021-.022.033-.031v.922h2.026v.02z" fill="#000"/></mask></defs><path d="M13.114 2.537h2.538L15.651 0h-.867v1.105c-1.204-.927-2.924-.863-4.016.227-1.187 1.188-1.162 3.119.035 4.317 1.201 1.198 3.131 1.224 4.319.037A2.996 2.996 0 0 0 16 3.558l-.859.001a2.137 2.137 0 0 1-.627 1.521c-.843.842-2.231.836-3.104-.036-.871-.872-.877-2.26-.035-3.105.729-.727 1.86-.818 2.721-.268h-.983l.001.866z" fill="#cb1800"/><g mask="url(#a)"><path d="M14.818 5.818c-.4-2.076-3.738-2.209-5.541-2.209H6.705c-1.801 0-5.08.295-5.514 2.183l-.111.735-.021.54h1.848c.766-.584 2.014-1.203 2.903-1.527.436-.426 1.138-.576 1.696-.576H8.53c.578 0 1.321.088 1.753.581.877.326 2.1.943 2.853 1.523h1.799l.006-.517-.123-.733z"/><path d="M14.082 10.512c0-.623-.497-2.442-.497-2.442-.235-.777-3.503-2.342-4.193-2.342H6.7c-.689 0-4.017 1.565-4.252 2.342 0 0-.497 1.819-.497 2.442 0 .488-.004 1.445-.004 1.445h12.138s-.003-.957-.003-1.445zM8 10.935a2.102 2.102 0 1 1 0-4.204 2.102 2.102 0 0 1 0 4.204z"/></g></svg>