<svg width="16" height="16" xmlns="http://www.w3.org/2000/svg" viewBox="0 0 16 16" shape-rendering="geometricPrecision" fill="#24437c"><defs><mask id="a"><rect fill="#fff" width="100%" height="100%"/><path d="M17.514 2.671l-.862-.552L16.65-1h-2.866v.558A4.044 4.044 0 0 0 10.061.625c-1.569 1.569-1.554 4.141.035 5.732a4.084 4.084 0 0 0 2.901 1.205 3.98 3.98 0 0 0 2.831-1.168A3.973 3.973 0 0 0 17 3.557v-.886h.514zm-3.373.887c0 .22-.058.539-.333.813-.443.443-1.23.426-1.69-.035-.475-.475-.49-1.234-.036-1.689.011-.011.021-.022.033-.031v.922h2.026v.02z" fill="#000"/></mask></defs><path d="M13.114 2.537h2.538L15.651 0h-.867v1.105c-1.204-.927-2.924-.863-4.016.227-1.187 1.188-1.162 3.119.035 4.317 1.201 1.198 3.131 1.224 4.319.037A2.996 2.996 0 0 0 16 3.558l-.859.001a2.137 2.137 0 0 1-.627 1.521c-.843.842-2.231.836-3.104-.036-.871-.872-.877-2.26-.035-3.105.729-.727 1.86-.818 2.721-.268h-.983l.001.866z" fill="#cb1800"/><g mask="url(#a)"><path d="M15.387 12.386L11.35 8.347l-3.029 3.029 4.035 4.034c.784.783 2.092.741 2.932-.099.836-.835.879-2.148.099-2.925zM7.678 4.667a3.86 3.86 0 0 0-1.054-3.502C5.577.119 4.087-.186 2.765.211l2.109 2.112-.612 1.898-1.966.679L.188 2.788a3.87 3.87 0 0 0 .951 3.859 3.871 3.871 0 0 0 3.503 1.056l3.036-3.036zM.036 15.915l1.874-.578-1.274-1.278zm1.14-3.627l2.496 2.515L13.784 4.738l-2.497-2.515zM15.484.551a1.773 1.773 0 0 0-2.499-.017l-1.008 1 2.497 2.517 1.011-1.003-.002-.001c.687-.69.691-1.808.001-2.496z"/></g></svg>