<svg width="16" height="16" xmlns="http://www.w3.org/2000/svg" viewBox="0 0 16 16" shape-rendering="geometricPrecision" fill="#fff"><defs><mask id="a"><rect width="100%" height="100%"/><path fill="#000" d="M17.414 1.215L14.79-1.414 13.066.308l-1.722-1.722-2.627 2.627 1.722 1.721-1.724 1.722 2.63 2.628 1.722-1.722 1.722 1.723 2.625-2.63-1.721-1.72z"/></mask></defs><path d="M16 4.656l-1.722-1.721L16 1.214 14.789.001l-1.723 1.721L11.344.001l-1.212 1.212 1.722 1.721-1.724 1.722 1.215 1.214 1.722-1.723 1.722 1.723z" fill="#cb1800"/><g mask="url(#a)"><path d="M12.694 4.022c-.014 0-.026.005-.04.006v-.729c0-.716-.581-1.296-1.297-1.296H4.629c-.716 0-1.297.58-1.297 1.296v.727c-.009 0-.017-.004-.026-.004-.254 0-.459.152-.459.339V5.56c0 .188.206.339.459.339.009 0 .017-.003.026-.004v7.157h.002v.946h1.4v-.946h6.519v.946h1.4v-1.77h-.007V7.825c.001-.022.007-.042.007-.064V5.894c.015.001.027.006.041.006.254 0 .459-.152.459-.339V4.362c0-.188-.206-.34-.459-.34zm-7.18 7.81h-.555a.647.647 0 0 1 0-1.294h.555a.647.647 0 0 1 0 1.294zm5.357 0h-.555a.647.647 0 0 1 0-1.294h.555a.647.647 0 1 1 0 1.294zm.934-3.935c0 .646-.49 1.169-1.093 1.169H5.275c-.604 0-1.093-.523-1.093-1.169V4.104c0-.646.49-1.169 1.093-1.169h5.437c.604 0 1.093.523 1.093 1.169v3.793z"/></g></svg>