<svg width="16" height="16" xmlns="http://www.w3.org/2000/svg" viewBox="0 0 16 16" shape-rendering="geometricPrecision" fill="#fff"><defs><mask id="a"><rect width="100%" height="100%"/><path fill="#000" d="M17.414 1.215L14.79-1.414 13.066.308l-1.722-1.722-2.627 2.627 1.722 1.721-1.724 1.722 2.63 2.628 1.722-1.722 1.722 1.723 2.625-2.63-1.721-1.72z"/></mask></defs><path d="M16 4.656l-1.722-1.721L16 1.214 14.789.001l-1.723 1.721L11.344.001l-1.212 1.212 1.722 1.721-1.724 1.722 1.215 1.214 1.722-1.723 1.722 1.723z" fill="#cb1800"/><path mask="url(#a)" d="M14.49 13.121L14.478 0H4.033c-1.376.003-2.498.619-2.52 1.987-.003.025-.003.529 0 .535v.003c0 .04.009.076.011.117h-.009v10.826A2.531 2.531 0 0 0 4.044 16h8.385l-.037-1.689-.01-11.345H4.033c-.496 0-1.68-.048-1.68-.979v-.094C2.404 1.008 3.537.841 4.033.841h9.593V13.12h.864zM7.678 4.504a2.147 2.147 0 1 1 0 4.294 2.148 2.148 0 1 1 0-4.294zM4.091 11.89a2.07 2.07 0 0 1 2.064-2.069h3c1.139 0 2.073.932 2.073 2.069v2.692H4.091V11.89z"/></svg>