<svg width="16" height="16" xmlns="http://www.w3.org/2000/svg" viewBox="0 0 16 16" shape-rendering="geometricPrecision" fill="#fff"><defs><mask id="a"><rect width="100%" height="100%"/><path fill="#000" d="M17.414 1.215L14.79-1.414 13.066.308l-1.722-1.722-2.627 2.627 1.722 1.721-1.724 1.722 2.63 2.628 1.722-1.722 1.722 1.723 2.625-2.63-1.721-1.72z"/></mask></defs><path d="M16 4.656l-1.722-1.721L16 1.214 14.789.001l-1.723 1.721L11.344.001l-1.212 1.212 1.722 1.721-1.724 1.722 1.215 1.214 1.722-1.723 1.722 1.723z" fill="#cb1800"/><g mask="url(#a)"><path d="M8.78 5.833v-.375H7.164v.375H5.585v5.626h4.811V5.833H8.78zm.977 5.029H6.224V6.431h.94v.141H8.78v-.141h.977v4.431z"/><path d="M6.788 8.06h2.405v.758H6.788zm0 1.126h2.405v.787H6.788z"/><path d="M6.799 3.47L6.5 1.979h-4L2.2 3.47H.999v10h14v-10h-8.2zm7.201 9H2v-8h12v8z"/></g></svg>