<svg width="16" height="16" xmlns="http://www.w3.org/2000/svg" viewBox="0 0 16 16" shape-rendering="geometricPrecision" fill="#fff"><defs><mask id="a"><rect width="100%" height="100%"/><path fill="#000" d="M17.414 1.215L14.79-1.414 13.066.308l-1.722-1.722-2.627 2.627 1.722 1.721-1.724 1.722 2.63 2.628 1.722-1.722 1.722 1.723 2.625-2.63-1.721-1.72z"/></mask></defs><path d="M16 4.656l-1.722-1.721L16 1.214 14.789.001l-1.723 1.721L11.344.001l-1.212 1.212 1.722 1.721-1.724 1.722 1.215 1.214 1.722-1.723 1.722 1.723z" fill="#cb1800"/><g mask="url(#a)"><circle cx="3.535" cy="5.212" r="1.794"/><path d="M4.351 7.858H2.712c-.951 0-1.725.779-1.725 1.73v2.246H6.08V9.589a1.736 1.736 0 0 0-1.729-1.731z"/><circle cx="12.466" cy="7.338" r="1.794"/><path d="M13.282 9.983h-1.639a1.73 1.73 0 0 0-1.724 1.729v2.248h5.093v-2.248c0-.949-.779-1.729-1.73-1.729z"/><circle cx="7.505" cy="3.228" r="1.794"/><path d="M10.05 9.851V7.603c0-.949-.778-1.729-1.73-1.729H6.682c-.928 0-1.68.74-1.717 1.66a2.15 2.15 0 0 1 1.541 2.055v.262h3.544z"/></g></svg>