<svg width="16" height="16" xmlns="http://www.w3.org/2000/svg" viewBox="0 0 16 16" shape-rendering="geometricPrecision" fill="#fff"><defs><mask id="a"><rect width="100%" height="100%"/><path fill="#000" d="M17.414 1.215L14.79-1.414 13.066.308l-1.722-1.722-2.627 2.627 1.722 1.721-1.724 1.722 2.63 2.628 1.722-1.722 1.722 1.723 2.625-2.63-1.721-1.72z"/></mask></defs><path d="M16 4.656l-1.722-1.721L16 1.214 14.789.001l-1.723 1.721L11.344.001l-1.212 1.212 1.722 1.721-1.724 1.722 1.215 1.214 1.722-1.723 1.722 1.723z" fill="#cb1800"/><g mask="url(#a)"><path d="M7.999.97a7.03 7.03 0 0 0 0 14.06 7.03 7.03 0 1 0 0-14.06zm0 12.638a5.616 5.616 0 0 1-5.607-5.605 5.616 5.616 0 0 1 5.607-5.611 5.617 5.617 0 0 1 5.609 5.611 5.615 5.615 0 0 1-5.609 5.605z"/><path d="M8.243 3.606c1.054 0 1.938.52 2.51 1.105L9.699 5.894c-.429-.39-.832-.637-1.43-.637-1.184 0-2.106 1.027-2.106 2.73 0 1.742.819 2.756 2.055 2.756.701 0 1.195-.299 1.611-.754l1.054 1.157c-.702.819-1.639 1.248-2.691 1.248-2.197 0-3.991-1.495-3.991-4.342C4.2 5.244 6.06 3.606 8.243 3.606z"/><path d="M3.064 4.124l1.06-1.06 8.812 8.812-1.06 1.06z"/></g></svg>