<svg width="16" height="16" xmlns="http://www.w3.org/2000/svg" viewBox="0 0 16 16" shape-rendering="geometricPrecision" fill="#fff"><defs><mask id="a"><rect width="100%" height="100%"/><path fill="#000" d="M17.414 1.215L14.79-1.414 13.066.308l-1.722-1.722-2.627 2.627 1.722 1.721-1.724 1.722 2.63 2.628 1.722-1.722 1.722 1.723 2.625-2.63-1.721-1.72z"/></mask></defs><path d="M16 4.656l-1.722-1.721L16 1.214 14.789.001l-1.723 1.721L11.344.001l-1.212 1.212 1.722 1.721-1.724 1.722 1.215 1.214 1.722-1.723 1.722 1.723z" fill="#cb1800"/><g mask="url(#a)"><path d="M1.062 7.999a6.94 6.94 0 1 0 13.878 0 6.94 6.94 0 0 0-13.878 0zm12.472 0a5.543 5.543 0 0 1-5.531 5.536 5.544 5.544 0 0 1-5.537-5.536 5.543 5.543 0 0 1 5.537-5.534 5.54 5.54 0 0 1 5.531 5.534z"/><path d="M8 3.327a4.68 4.68 0 0 0-4.673 4.672A4.681 4.681 0 0 0 8 12.673V3.327z"/></g></svg>