<svg width="16" height="16" xmlns="http://www.w3.org/2000/svg" viewBox="0 0 16 16" shape-rendering="geometricPrecision" fill="#fff"><defs><mask id="a"><rect width="100%" height="100%"/><path fill="#000" d="M17.414 1.215L14.79-1.414 13.066.308l-1.722-1.722-2.627 2.627 1.722 1.721-1.724 1.722 2.63 2.628 1.722-1.722 1.722 1.723 2.625-2.63-1.721-1.72z"/></mask></defs><path d="M16 4.656l-1.722-1.721L16 1.214 14.789.001l-1.723 1.721L11.344.001l-1.212 1.212 1.722 1.721-1.724 1.722 1.215 1.214 1.722-1.723 1.722 1.723z" fill="#cb1800"/><path mask="url(#a)" d="M8.001 1.042a6.959 6.959 0 1 0 0 13.917A6.959 6.959 0 0 0 8 1.042zm3.605 6.876c0 .354-.065.69-.159 1.014h2.018a5.548 5.548 0 0 1-.842 2.134l-1.449-1.449a3.662 3.662 0 0 1-1.458 1.502l1.44 1.44a5.538 5.538 0 0 1-2.147.895v-2.032a3.658 3.658 0 0 1-1.087.182c-.352 0-.684-.064-1.006-.156v1.996a5.54 5.54 0 0 1-2.116-.915l1.38-1.38A3.674 3.674 0 0 1 4.699 9.67L3.35 11.019a5.5 5.5 0 0 1-.815-2.088h1.863a3.606 3.606 0 0 1-.159-1.013c0-.378.074-.736.179-1.079H2.576a5.52 5.52 0 0 1 .866-1.995l1.281 1.28a3.676 3.676 0 0 1 1.501-1.457l-1.29-1.29a5.53 5.53 0 0 1 1.982-.818v1.832a3.634 3.634 0 0 1 1.006-.156c.381 0 .741.075 1.087.182v-1.87c.73.135 1.41.412 2.01.803L9.673 4.695a3.684 3.684 0 0 1 1.478 1.481L12.527 4.8c.426.602.737 1.291.897 2.038h-1.997c.106.344.179.702.179 1.08z"/></svg>