<svg width="16" height="16" xmlns="http://www.w3.org/2000/svg" viewBox="0 0 16 16" shape-rendering="geometricPrecision" fill="#ffad00"><defs><mask id="a"><rect fill="#fff" width="100%" height="100%"/><path fill="#000" d="M14.782 1.217V-1h-3.564v2.217H9V4.78h2.218v2.221h3.564V4.78H17V1.217z"/></mask></defs><path fill="#cb1800" d="M16 2.217h-2.218V0h-1.564v2.217H10V3.78h2.218v2.221h1.564V3.78H16z"/><g mask="url(#a)"><path d="M4.463 15.971l1.491-1.274-1.676-.668zm-.393-3.783l3.557-8.867 3.289 1.32-3.557 8.866zM10.815.121a1.772 1.772 0 0 0-2.3.976l-.529 1.317 3.291 1.321.531-1.321h-.002a1.771 1.771 0 0 0-.991-2.293z"/></g></svg>