<svg width="16" height="16" xmlns="http://www.w3.org/2000/svg" viewBox="0 0 16 16" shape-rendering="geometricPrecision" fill="#ffad00"><defs><mask id="a"><rect fill="#fff" width="100%" height="100%"/><path fill="#000" d="M14.782 1.217V-1h-3.564v2.217H9V4.78h2.218v2.221h3.564V4.78H17V1.217z"/></mask></defs><path fill="#cb1800" d="M16 2.217h-2.218V0h-1.564v2.217H10V3.78h2.218v2.221h1.564V3.78H16z"/><g mask="url(#a)"><path d="M8.001 1.767a6.212 6.212 0 0 0 0 12.421 6.21 6.21 0 0 0 0-12.421zm0 11.164A4.961 4.961 0 0 1 3.046 7.98a4.962 4.962 0 0 1 4.955-4.956 4.96 4.96 0 0 1 4.953 4.956 4.96 4.96 0 0 1-4.953 4.951z"/><path d="M7.085 3.795v3.853L4.699 9.036l.944 1.653 3.329-1.933h.019l-.002-4.96z"/></g></svg>