<svg width="16" height="16" xmlns="http://www.w3.org/2000/svg" viewBox="0 0 16 16" shape-rendering="geometricPrecision" fill="#ffad00"><defs><mask id="a"><rect fill="#fff" width="100%" height="100%"/><path fill="#000" d="M14.782 1.217V-1h-3.564v2.217H9V4.78h2.218v2.221h3.564V4.78H17V1.217z"/></mask></defs><path fill="#cb1800" d="M16 2.217h-2.218V0h-1.564v2.217H10V3.78h2.218v2.221h1.564V3.78H16z"/><path d="M8.009 4.685c-.991-2.585-6.25-2.471-6.001 1.65.087 1.41 1.178 2.589 2.687 3.96 2.26 2.058 3.315 2.755 3.315 2.755s1.051-.697 3.314-2.755c1.505-1.371 2.599-2.55 2.683-3.96C14.254 2.214 9 2.1 8.009 4.685z" mask="url(#a)"/></svg>