<svg width="16" height="16" xmlns="http://www.w3.org/2000/svg" viewBox="0 0 16 16" shape-rendering="geometricPrecision" fill="#ffad00"><defs><mask id="a"><rect fill="#fff" width="100%" height="100%"/><path fill="#000" d="M14.782 1.217V-1h-3.564v2.217H9V4.78h2.218v2.221h3.564V4.78H17V1.217z"/></mask></defs><path fill="#cb1800" d="M16 2.217h-2.218V0h-1.564v2.217H10V3.78h2.218v2.221h1.564V3.78H16z"/><g mask="url(#a)"><path d="M15.609 3.739c-.906 1.865-2.393 2.551-3.389 2.805.568 1.092.975 2.484 1.15 4.041 1.175-.793 3.569-2.961 2.239-6.846zm-15.219 0c-1.328 3.885 1.065 6.053 2.241 6.846.174-1.557.58-2.949 1.147-4.041-.994-.254-2.481-.94-3.388-2.805zm7.611.348c-2.367 0-4.286 3.66-4.286 8.174h8.57c0-4.514-1.918-8.174-4.284-8.174z"/></g></svg>