<svg width="16" height="16" xmlns="http://www.w3.org/2000/svg" viewBox="0 0 16 16" shape-rendering="geometricPrecision" fill="#ffad00"><defs><mask id="a"><rect fill="#fff" width="100%" height="100%"/><path fill="#000" d="M14.782 1.217V-1h-3.564v2.217H9V4.78h2.218v2.221h3.564V4.78H17V1.217z"/></mask></defs><path fill="#cb1800" d="M16 2.217h-2.218V0h-1.564v2.217H10V3.78h2.218v2.221h1.564V3.78H16z"/><path d="M12.5 3.976H3.562c-.859 0-1.556.697-1.556 1.556v4.906c0 .859.697 1.556 1.556 1.556H12.5c.859 0 1.556-.697 1.556-1.556V5.532c0-.859-.697-1.556-1.556-1.556zm-5.564 6.225l.001-4.265L9.75 8.068l-2.814 2.133z" mask="url(#a)"/></svg>