<svg version="1" xmlns="http://www.w3.org/2000/svg" width="346.667" height="346.667" viewBox="0 0 260.000000 260.000000"><path d="M110.5 17.6c-35.3 6.2-66.2 29-81.9 60.3-7 13.8-10.6 27-12.2 43.8l-.7 7.3h34l.7-6.9c2.7-27.5 19.3-51.4 44.1-63.6 11.6-5.8 18.5-7.5 32-8.2C186.9 47.5 228 112.1 200 166c-12.5 23.8-36.3 39.9-63.1 42.6l-6.9.7V243h3.4c11.9 0 31.4-4.8 44.3-10.9 57-27.1 81.2-94.4 54.2-151-11.1-23.4-28.5-41.4-51-52.7-22.1-11-47.2-14.9-70.4-10.8z"/><path d="M117.5 88.3C103.2 93.1 93.2 103 89 116.8c-6.5 20.8 3.4 42.5 23.6 51.9 5.3 2.5 7 2.8 16.9 2.8 10.3 0 11.4-.2 17.8-3.2 8.9-4.2 16.8-12.1 21-21 3-6.4 3.2-7.5 3.2-17.8s-.2-11.4-3.2-17.7c-4.4-9.3-10.9-16-20.1-20.5-6.8-3.4-8.3-3.8-17.1-4-6-.2-11.1.2-13.6 1z"/></svg>