<svg width="16" height="16" xmlns="http://www.w3.org/2000/svg" viewBox="0 0 16 16" shape-rendering="geometricPrecision" fill="#ffad00"><defs><mask id="a"><rect fill="#fff" width="100%" height="100%"/><path fill="#000" d="M11.875-1.414l-2.47 2.47 2.035 2.039-2.035 2.037 2.47 2.472 4.51-4.511z"/></mask></defs><path fill="#cb1800" d="M11.875 0l-1.057 1.057 2.035 2.038-2.035 2.037 1.057 1.057 3.095-3.096z"/><g mask="url(#a)"><path d="M8.009 4.685c-.991-2.585-6.25-2.471-6.001 1.65.087 1.41 1.178 2.589 2.687 3.96 2.26 2.058 3.315 2.755 3.315 2.755s1.051-.697 3.314-2.755c1.505-1.371 2.599-2.55 2.683-3.96C14.254 2.214 9 2.1 8.009 4.685z"/></g></svg>