<?xml version="1.0"?><!DOCTYPE svg PUBLIC "-//W3C//DTD SVG 1.1//EN" "http://www.w3.org/Graphics/SVG/1.1/DTD/svg11.dtd"><svg width="16px" height="16px" xmlns="http://www.w3.org/2000/svg" viewBox="0 0 16 16" shape-rendering="geometricPrecision" fill="#ffad00"><defs><mask id="move_right-path"><rect fill="#fff" width="100%" height="100%"/><polygon points="11.875,-1.414 9.405,1.056 11.44,3.095 9.405,5.132 11.875,7.604 16.385,3.093 " fill="#000"/></mask></defs><polygon points="11.875,0 10.818,1.057 12.853,3.095 10.818,5.132 11.875,6.189 14.97,3.093 " fill="#cb1800"/><g mask="url(#move_right-path)"><g><g><rect x="11.473" y="1.006" width="1.042" height="13.987"/></g><g><rect x="7.459" y="1.006" width="1.062" height="13.987"/></g><g><rect x="3.444" y="1.006" width="1.021" height="13.987"/></g><path d="M10.499,8.527V6.5c0-0.267,0.216-0.483,0.483-0.483h2.027c0.267,0,0.483,0.216,0.483,0.483v2.027 c0,0.267-0.216,0.483-0.483,0.483h-2.027C10.715,9.01,10.499,8.794,10.499,8.527z"/><path d="M6.495,5.519V3.487c0-0.267,0.216-0.483,0.483-0.483H9.01c0.267,0,0.483,0.216,0.483,0.483v2.032 c0,0.267-0.216,0.483-0.483,0.483H6.978C6.711,6.002,6.495,5.786,6.495,5.519z"/><path d="M2.495,12.517v-2.019c0-0.267,0.216-0.483,0.483-0.483h2.019c0.267,0,0.483,0.216,0.483,0.483v2.019 C5.48,12.784,5.264,13,4.997,13H2.978C2.712,13,2.495,12.784,2.495,12.517z"/></g></g></svg>