<svg width="16" height="16" xmlns="http://www.w3.org/2000/svg" viewBox="0 0 16 16" shape-rendering="geometricPrecision" fill="#ffad00"><defs><mask id="a"><rect fill="#fff" width="100%" height="100%"/><path fill="#000" d="M11.875-1.414l-2.47 2.47 2.035 2.039-2.035 2.037 2.47 2.472 4.51-4.511z"/></mask></defs><path fill="#cb1800" d="M11.875 0l-1.057 1.057 2.035 2.038-2.035 2.037 1.057 1.057 3.095-3.096z"/><g mask="url(#a)"><path d="M14.182 12.821L8.715 7.353l-.834-.833-.833.833-.718.718-.834.834.834.833 5.467 5.467.834.834.833-.834.718-.718.834-.834-.834-.832zm-5.514-2.186L6.921 8.887l.943-.943 1.747 1.747-.943.944zM3.108 8.848l-.507 1.357-1.357.506 1.357.507.507 1.357.507-1.357 1.357-.507-1.357-.506zM4.938 5.26l.715-1.915 1.914-.715-1.914-.715L4.938 0l-.716 1.915-1.914.715 1.914.715zM10.584 6.142l.47-1.257 1.256-.469-1.256-.47-.47-1.256-.469 1.256-1.256.47 1.256.469z"/></g></svg>