<svg width="16" height="16" xmlns="http://www.w3.org/2000/svg" viewBox="0 0 16 16" shape-rendering="geometricPrecision" fill="#fff"><defs><mask id="a"><rect width="100%" height="100%"/><path fill="#000" d="M14.5 1.716L13-.371l-1.501 2.087-1.982-2.76-.836.011 1.888 6.811h4.86l1.884-6.792-.841-.013z"/></mask></defs><path fill="#FCC70A" d="M14.858 5.028H11.14L9.999.914l.749 1.043.751 1.045.75-1.045L13 .914l.75 1.043.749 1.045.751-1.045L16 .914z"/><path d="M7.999.973a6.997 6.997 0 1 0 .002 13.994A6.997 6.997 0 0 0 8 .973zm0 12.579a5.589 5.589 0 0 1-5.581-5.579 5.59 5.59 0 0 1 5.581-5.585 5.591 5.591 0 0 1 5.582 5.585 5.59 5.59 0 0 1-5.582 5.579zm.006-3.426c-.683 0-1.16.49-1.16 1.175 0 .671.464 1.172 1.147 1.172h.013c.698 0 1.148-.501 1.148-1.172-.01-.685-.462-1.175-1.148-1.175zm.736-.646l.286-5.845H6.974L7.27 9.48h1.471z" mask="url(#a)"/></svg>