<?xml version="1.0"?><!DOCTYPE svg PUBLIC "-//W3C//DTD SVG 1.1//EN" "http://www.w3.org/Graphics/SVG/1.1/DTD/svg11.dtd"><svg width="16px" height="16px" xmlns="http://www.w3.org/2000/svg" viewBox="0 0 16 16" shape-rendering="geometricPrecision" fill="#fff"><defs><mask id="crown-path"><rect fill="#fff" width="100%" height="100%"/><polygon points="14.5,1.716 13,-0.371 11.499,1.716 9.517,-1.044 8.681,-1.033 10.569,5.778 15.429,5.778 17.313,-1.014 16.472,-1.027 " fill="#000"/></mask></defs><g id="crown" display="inline" fill="#cb1800"><polygon fill="#FCC70A" points="14.858,5.028 11.14,5.028 9.999,0.914 10.748,1.957 11.499,3.002 12.249,1.957 13,0.914 13.75,1.957 14.499,3.002 15.25,1.957 16,0.914 "/></g><g mask="url(#crown-path)"><g><polygon points="8.182,3.179 7.367,1.256 3.587,1.256 2.77,3.179 1.649,3.179 1.65,4.128 14.977,4.119 14.995,13.402 15.928,12.424 15.928,3.179"/><path d="M0.072,4.756V14h14.279V4.756H0.072z M9.521,8.339c0.55,0,0.994,0.445,0.994,0.994c0,0.548-0.444,0.993-0.994,0.993 c-0.548,0-0.994-0.445-0.994-0.993C8.528,8.783,8.973,8.339,9.521,8.339z M6.774,6.062c0.55,0,0.994,0.445,0.994,0.993 c0,0.55-0.444,0.994-0.994,0.994c-0.548,0-0.994-0.445-0.994-0.994C5.78,6.507,6.225,6.062,6.774,6.062z M4.575,7.162 c0.55,0,0.994,0.445,0.994,0.993c0,0.55-0.444,0.994-0.994,0.994c-0.549,0-0.994-0.445-0.994-0.994 C3.581,7.606,4.027,7.162,4.575,7.162z M5.985,11.823H3.164v-1.244c0-0.527,0.428-0.958,0.955-0.958h0.908 c0.526,0,0.958,0.432,0.958,0.958V11.823z M5.367,9.441c0.021-0.51,0.437-0.92,0.951-0.92h0.908c0.527,0,0.958,0.432,0.958,0.957 v1.245H6.221v-0.145C6.221,10.039,5.859,9.588,5.367,9.441z M10.932,13H8.111v-1.245c0-0.526,0.428-0.957,0.955-0.957h0.908 c0.527,0,0.958,0.432,0.958,0.957V13z"/></g></g></svg>