<svg width="16" height="16" xmlns="http://www.w3.org/2000/svg" viewBox="0 0 16 16" shape-rendering="geometricPrecision" fill="#fff"><defs><mask id="a"><rect width="100%" height="100%"/><path fill="#000" d="M14.5 1.716L13-.371l-1.501 2.087-1.982-2.76-.836.011 1.888 6.811h4.86l1.884-6.792-.841-.013z"/></mask></defs><path fill="#FCC70A" d="M14.858 5.028H11.14L9.999.914l.749 1.043.751 1.045.75-1.045L13 .914l.75 1.043.749 1.045.751-1.045L16 .914z"/><path d="M11.031 9.168H9.307v.744h1.724v-.744zM7.068 6.992l.973-2.429L5.5 3.544 4.12 6.992H.892v9.007h14.216V6.992h-8.04zm.437 8.013H1.882V7.982h1.84l-.966 2.413 2.54 1.019 1.375-3.432h.834v7.023zm6.612 0h-5.62V7.982h5.62v7.023zm-1.259-4.499H9.307v.745h3.551v-.745zM8.731 2.843H8.73a1.367 1.367 0 0 0-.764-1.771 1.37 1.37 0 0 0-1.778.755L5.78 2.843l2.542 1.022.409-1.022zM3.058 13.316l1.152-.983-1.295-.517.143 1.5z" mask="url(#a)"/></svg>