<?xml version="1.0"?><!DOCTYPE svg PUBLIC "-//W3C//DTD SVG 1.1//EN" "http://www.w3.org/Graphics/SVG/1.1/DTD/svg11.dtd"><svg width="16px" height="16px" xmlns="http://www.w3.org/2000/svg" viewBox="0 0 16 16" shape-rendering="geometricPrecision" fill="#fff"><defs><mask id="crown-path"><rect fill="#fff" width="100%" height="100%"/><polygon points="14.5,1.716 13,-0.371 11.499,1.716 9.517,-1.044 8.681,-1.033 10.569,5.778 15.429,5.778 17.313,-1.014 16.472,-1.027 " fill="#000"/></mask></defs><g id="crown" display="inline" fill="#cb1800"><polygon fill="#FCC70A" points="14.858,5.028 11.14,5.028 9.999,0.914 10.748,1.957 11.499,3.002 12.249,1.957 13,0.914 13.75,1.957 14.499,3.002 15.25,1.957 16,0.914 "/></g><g mask="url(#crown-path)"><path d="M14.49,13.12L14.479-0.001H4.034C2.658,0.002,1.536,0.618,1.513,1.986c-0.003,0.025-0.003,0.529,0,0.535 v0.003c0,0.04,0.009,0.076,0.011,0.117H1.515v10.826c0,1.396,1.133,2.531,2.529,2.531h8.386l-0.038-1.689L12.383,2.965h-8.35 c-0.496,0-1.68-0.048-1.68-0.978V1.893c0.051-0.885,1.184-1.052,1.68-1.052h9.593V13.12H14.49z M4.011,3.966h7.35l0.004,10.992 L4.851,15c-1.396,0-2.529-1.135-2.529-2.531c0,0-0.005-9.456-0.002-9.481h0.011C2.331,3.918,3.515,3.966,4.011,3.966z"/><rect x="4.525" y="5.764" width="5.506" height="1.247"/><rect x="4.525" y="8.346" width="5.506" height="1.243"/></g></svg>