<svg width="16" height="16" xmlns="http://www.w3.org/2000/svg" viewBox="0 0 16 16" shape-rendering="geometricPrecision" fill="#fff"><defs><mask id="a"><rect width="100%" height="100%"/><path fill="#000" d="M14.5 1.716L13-.371l-1.501 2.087-1.982-2.76-.836.011 1.888 6.811h4.86l1.884-6.792-.841-.013z"/></mask></defs><path fill="#FCC70A" d="M14.858 5.028H11.14L9.999.914l.749 1.043.751 1.045.75-1.045L13 .914l.75 1.043.749 1.045.751-1.045L16 .914z"/><path d="M1.979 7.695a4.662 4.662 0 0 1 4.663-4.661h.001V1.056h-.001a6.644 6.644 0 0 0-6.641 6.64v.002h1.978v-.003zm6.332 4.157a2.492 2.492 0 1 0 0-4.986V9.36H5.814a2.498 2.498 0 0 0 2.497 2.492zm0-9.134v1.978a4.663 4.663 0 1 1-4.665 4.665H1.668a6.642 6.642 0 0 0 13.281-.003 6.643 6.643 0 0 0-6.638-6.64z" mask="url(#a)"/></svg>