<?xml version="1.0"?><!DOCTYPE svg PUBLIC "-//W3C//DTD SVG 1.1//EN" "http://www.w3.org/Graphics/SVG/1.1/DTD/svg11.dtd"><svg width="16px" height="16px" xmlns="http://www.w3.org/2000/svg" viewBox="0 0 16 16" shape-rendering="geometricPrecision" fill="#fff"><defs><mask id="crown-path"><rect fill="#fff" width="100%" height="100%"/><polygon points="14.5,1.716 13,-0.371 11.499,1.716 9.517,-1.044 8.681,-1.033 10.569,5.778 15.429,5.778 17.313,-1.014 16.472,-1.027 " fill="#000"/></mask></defs><g id="crown" display="inline" fill="#cb1800"><polygon fill="#FCC70A" points="14.858,5.028 11.14,5.028 9.999,0.914 10.748,1.957 11.499,3.002 12.249,1.957 13,0.914 13.75,1.957 14.499,3.002 15.25,1.957 16,0.914 "/></g><g mask="url(#crown-path)"><g><path d="M6.867,9.283c1.382,0,2.497-1.115,2.497-2.495c0-1.378-1.114-2.494-2.497-2.494c-1.377,0-2.496,1.116-2.496,2.494 C4.372,8.168,5.49,9.283,6.867,9.283z M9.186,10.469H4.541c-1.323,0-2.398,1.082-2.398,2.404V16h9.45v-3.127 C11.593,11.551,10.509,10.469,9.186,10.469z"/></g><path d="M7.641,0v1.125c1.349,0,2.564,0.545,3.448,1.428c0.883,0.885,1.428,2.1,1.428,3.449h1.125 C13.642,2.688,10.956,0.001,7.641,0z M7.641,2.025v1.122c1.575,0.004,2.849,1.279,2.852,2.855h1.125 C11.618,3.805,9.837,2.025,7.641,2.025z"/></g></svg>