<?xml version="1.0"?><!DOCTYPE svg PUBLIC "-//W3C//DTD SVG 1.1//EN" "http://www.w3.org/Graphics/SVG/1.1/DTD/svg11.dtd"><svg width="16px" height="16px" xmlns="http://www.w3.org/2000/svg" viewBox="0 0 16 16" shape-rendering="geometricPrecision" fill="#fff"><defs><mask id="crown-path"><rect fill="#fff" width="100%" height="100%"/><polygon points="14.5,1.716 13,-0.371 11.499,1.716 9.517,-1.044 8.681,-1.033 10.569,5.778 15.429,5.778 17.313,-1.014 16.472,-1.027 " fill="#000"/></mask></defs><g id="crown" display="inline" fill="#cb1800"><polygon fill="#FCC70A" points="14.858,5.028 11.14,5.028 9.999,0.914 10.748,1.957 11.499,3.002 12.249,1.957 13,0.914 13.75,1.957 14.499,3.002 15.25,1.957 16,0.914 "/></g><g mask="url(#crown-path)"><path d="M11.231,3.39c0.002-0.046,0.008-0.09,0.008-0.136c0-1.791-1.451-3.242-3.242-3.242 c-1.387,0-2.569,0.875-3.031,2.104l1.312,0.399c0.285-0.664,0.947-1.133,1.719-1.133c1.033,0,1.873,0.837,1.873,1.872 c0,0.525-0.222,1.001-0.569,1.341C8.718,5.216,8.271,5.216,7.125,5.83C5.301,6.814,4.854,8.341,4.759,9.244v6.744h6.482V3.39 H11.231z M7.445,15.148l-2.33-2.328l1.024-1.024l1.303,1.303l2.492-2.489l1.024,1.026L7.445,15.148z"/></g></svg>