<svg width="16" height="16" xmlns="http://www.w3.org/2000/svg" viewBox="0 0 16 16" shape-rendering="geometricPrecision" fill="#fff"><defs><mask id="a"><rect width="100%" height="100%"/><path fill="#000" d="M14.5 1.716L13-.371l-1.501 2.087-1.982-2.76-.836.011 1.888 6.811h4.86l1.884-6.792-.841-.013z"/></mask></defs><path fill="#FCC70A" d="M14.858 5.028H11.14L9.999.914l.749 1.043.751 1.045.75-1.045L13 .914l.75 1.043.749 1.045.751-1.045L16 .914z"/><g mask="url(#a)"><path d="M8 5.2a2.8 2.8 0 0 1 .024 5.598v1.401A4.2 4.2 0 0 0 8 3.801a4.2 4.2 0 0 0-4.201 4.201v.009h1.4l-.001-.009A2.803 2.803 0 0 1 8 5.2zM8 .998A7.002 7.002 0 0 0 .999 8.002v.009H2.4v-.009a5.601 5.601 0 1 1 5.625 5.599v1.401A7.003 7.003 0 0 0 8 .998z"/><circle cx="4.599" cy="11.22" r="2.105"/></g></svg>