<svg width="16" height="16" xmlns="http://www.w3.org/2000/svg" viewBox="0 0 16 16" shape-rendering="geometricPrecision" fill="#fff"><defs><mask id="a"><rect width="100%" height="100%"/><path fill="#000" d="M14.5 1.716L13-.371l-1.501 2.087-1.982-2.76-.836.011 1.888 6.811h4.86l1.884-6.792-.841-.013z"/></mask></defs><path fill="#FCC70A" d="M14.858 5.028H11.14L9.999.914l.749 1.043.751 1.045.75-1.045L13 .914l.75 1.043.749 1.045.751-1.045L16 .914z"/><g mask="url(#a)"><path d="M13.826 1.99l-5.027.006L1 9.794l5.038 5.038 7.799-7.799-.011-5.043zm-2.484 4a1.5 1.5 0 1 1 .001-3.001 1.5 1.5 0 0 1-.001 3.001z"/><path d="M2.342 9.668L7.94 4.07l3.823 3.822-5.598 5.599z"/><path d="M3.873 9.85l4.263-4.263.719.718L4.59 10.57zm1.353 1.354L9.489 6.94l.718.719-4.263 4.263z"/></g></svg>