<svg width="16" height="16" xmlns="http://www.w3.org/2000/svg" viewBox="0 0 16 16" shape-rendering="geometricPrecision" fill="#fff"><defs><mask id="a"><rect width="100%" height="100%"/><path fill="#000" d="M14.5 1.716L13-.371l-1.501 2.087-1.982-2.76-.836.011 1.888 6.811h4.86l1.884-6.792-.841-.013z"/></mask></defs><path fill="#FCC70A" d="M14.858 5.028H11.14L9.999.914l.749 1.043.751 1.045.75-1.045L13 .914l.75 1.043.749 1.045.751-1.045L16 .914z"/><path d="M9.759 2.438V1.03H6.24v1.408H2.717v1.917h10.565V2.438H9.759zM3.661 14.97h8.645V5.388H3.661v9.582zm6.163-8.075h1.016v6.567H9.824V6.895zm-2.35 0h1.017v6.567H7.474V6.895zm-2.349 0h1.016v6.567H5.125V6.895z" mask="url(#a)"/></svg>