<svg width="16" height="16" xmlns="http://www.w3.org/2000/svg" viewBox="0 0 16 16" shape-rendering="geometricPrecision" fill="#fff"><defs><mask id="a"><rect width="100%" height="100%"/><path fill="#000" d="M14.5 1.716L13-.371l-1.501 2.087-1.982-2.76-.836.011 1.888 6.811h4.86l1.884-6.792-.841-.013z"/></mask></defs><path fill="#FCC70A" d="M14.858 5.028H11.14L9.999.914l.749 1.043.751 1.045.75-1.045L13 .914l.75 1.043.749 1.045.751-1.045L16 .914z"/><g mask="url(#a)"><path d="M12.5 3.976H3.562c-.859 0-1.556.697-1.556 1.556v4.906c0 .859.697 1.556 1.556 1.556H12.5c.859 0 1.556-.697 1.556-1.556V5.532c0-.859-.697-1.556-1.556-1.556zm-5.564 6.225l.001-4.265L9.75 8.068l-2.814 2.133z"/></g></svg>