<svg width="16" height="16" xmlns="http://www.w3.org/2000/svg" viewBox="0 0 16 16" shape-rendering="geometricPrecision" fill="#00962d"><defs><mask id="a"><rect fill="#fff" width="100%" height="100%"/><path fill="#000" d="M11.875-1.414l-2.47 2.47 2.035 2.039-2.035 2.037 2.47 2.472 4.51-4.511z"/></mask></defs><path fill="#cb1800" d="M11.875 0l-1.057 1.057 2.035 2.038-2.035 2.037 1.057 1.057 3.095-3.096z"/><g mask="url(#a)"><path d="M10.021 15.177l3.437-3.165h-3.437z"/><path d="M2.02 0v16h7.021v-4.905h4.941V0H2.02zM13 9.97H8v5H3.083v-14H13v9z"/><path d="M9.479 9.017L8.057 6.538 6.646 9.017H5.008l2.277-3.648-2.133-3.47H6.78l1.277 2.299 1.288-2.299h1.617L8.83 5.368l2.287 3.648H9.479z"/></g></svg>