<svg width="16" height="16" xmlns="http://www.w3.org/2000/svg" viewBox="0 0 16 16" shape-rendering="geometricPrecision" fill="#00962d"><defs><mask id="a"><rect fill="#fff" width="100%" height="100%"/><path fill="#000" d="M11.875-1.414l-2.47 2.47 2.035 2.039-2.035 2.037 2.47 2.472 4.51-4.511z"/></mask></defs><path fill="#cb1800" d="M11.875 0l-1.057 1.057 2.035 2.038-2.035 2.037 1.057 1.057 3.095-3.096z"/><g mask="url(#a)"><path d="M6.955 7.908C7.532 7.908 8 7.439 8 6.863V4.425s.153-.347.662.127c.655.609 1.428.112 1.428.112s-.95-.229-1.145-.848c-.249-.785-.946-.785-.946-.785h-.696v2.851a1.037 1.037 0 0 0-.348-.064 1.045 1.045 0 0 0 0 2.09zm3.1 6.394l2.54-2.338h-2.54z"/><path d="M2.595 1.016v13.969h6.008v-4.468h4.802V1.016H2.595zm9.439 8.027h-4.79v4.601H3.917V2.318h8.116v6.725z"/></g></svg>