<svg width="16" height="16" xmlns="http://www.w3.org/2000/svg" viewBox="0 0 16 16" shape-rendering="geometricPrecision" fill="#00962d"><defs><mask id="a"><rect fill="#fff" width="100%" height="100%"/><path fill="#000" d="M11.875-1.414l-2.47 2.47 2.035 2.039-2.035 2.037 2.47 2.472 4.51-4.511z"/></mask></defs><path fill="#cb1800" d="M11.875 0l-1.057 1.057 2.035 2.038-2.035 2.037 1.057 1.057 3.095-3.096z"/><g mask="url(#a)"><path d="M7.394 4.755l-.816-1.923h-3.78l-.816 1.923H.861V14h14.278V4.755H7.394zm6.648 8.174H1.916v-7h12.125v7z"/><path d="M8.006 6.979a2.49 2.49 0 1 0 0 4.98 2.49 2.49 0 0 0 0-4.98zm0 4.475A1.988 1.988 0 0 1 6.02 9.47a1.99 1.99 0 0 1 1.986-1.987A1.99 1.99 0 0 1 9.992 9.47a1.989 1.989 0 0 1-1.986 1.984z"/><path d="M7.639 7.792v1.545l-.956.556.378.663 1.334-.775h.008l-.001-1.989z"/></g></svg>