<?xml version="1.0"?><!DOCTYPE svg PUBLIC "-//W3C//DTD SVG 1.1//EN" "http://www.w3.org/Graphics/SVG/1.1/DTD/svg11.dtd"><svg width="16px" height="16px" xmlns="http://www.w3.org/2000/svg" viewBox="0 0 16 16" shape-rendering="geometricPrecision" fill="#00962d"><defs><mask id="move_right-path"><rect fill="#fff" width="100%" height="100%"/><polygon points="11.875,-1.414 9.405,1.056 11.44,3.095 9.405,5.132 11.875,7.604 16.385,3.093 " fill="#000"/></mask></defs><polygon points="11.875,0 10.818,1.057 12.853,3.095 10.818,5.132 11.875,6.189 14.97,3.093 " fill="#cb1800"/><g mask="url(#move_right-path)"><path d="M6.799,3.47L6.5,1.979h-4L2.2,3.47H0.999v10h14v-10H6.799z M14,12.47H2v-8h5h7V12.47z"/><g><polygon points="6.685,11.616 7.26,11.126 6.614,10.868"/><rect x="6.012" y="8.022" transform="matrix(0.3723 -0.9281 0.9281 0.3723 -3.1496 12.7517)" width="3.682" height="1.366"/><path d="M9.133,5.508C8.784,5.368,8.39,5.537,8.247,5.884L8.043,6.392l1.268,0.509l0.205-0.509H9.515 C9.652,6.042,9.483,5.646,9.133,5.508z"/></g></g></svg>