<svg width="16" height="16" xmlns="http://www.w3.org/2000/svg" viewBox="0 0 16 16" shape-rendering="geometricPrecision" fill="#00962d"><defs><mask id="a"><rect fill="#fff" width="100%" height="100%"/><path fill="#000" d="M11.875-1.414l-2.47 2.47 2.035 2.039-2.035 2.037 2.47 2.472 4.51-4.511z"/></mask></defs><path fill="#cb1800" d="M11.875 0l-1.057 1.057 2.035 2.038-2.035 2.037 1.057 1.057 3.095-3.096z"/><g mask="url(#a)"><path d="M5.687 5.661A2.311 2.311 0 0 1 8 3.349a2.311 2.311 0 0 1 2.312 2.312V6.81h1.414V5.661a3.726 3.726 0 1 0-7.454 0V6.81h1.414V5.661zM3.062 7.792v7.207h9.876V7.792H3.062zm5.808 4.802a.87.87 0 0 1-1.739 0v-2.396a.87.87 0 0 1 1.739 0v2.396z"/></g></svg>