<svg width="16" height="16" xmlns="http://www.w3.org/2000/svg" viewBox="0 0 16 16" shape-rendering="geometricPrecision" fill="#00962d"><defs><mask id="a"><rect fill="#fff" width="100%" height="100%"/><path fill="#000" d="M11.875-1.414l-2.47 2.47 2.035 2.039-2.035 2.037 2.47 2.472 4.51-4.511z"/></mask></defs><path fill="#cb1800" d="M11.875 0l-1.057 1.057 2.035 2.038-2.035 2.037 1.057 1.057 3.095-3.096z"/><path d="M1.81-.001v16h12.38v-16H1.81zm2.555 9.816a.84.84 0 1 1 .003-1.679.84.84 0 0 1-.003 1.679zm0-2.658a.84.84 0 1 1 .005-1.68.84.84 0 0 1-.005 1.68zm0-2.662a.839.839 0 1 1 .002-1.678.839.839 0 0 1-.002 1.678zm8.11 5.117h-6.08V8.338h6.08v1.274zm0-2.658h-6.08V5.678h6.08v1.276zm0-2.66h-6.08V3.019h6.08v1.275z" mask="url(#a)"/></svg>