<?xml version="1.0"?><!DOCTYPE svg PUBLIC "-//W3C//DTD SVG 1.1//EN" "http://www.w3.org/Graphics/SVG/1.1/DTD/svg11.dtd"><svg width="16px" height="16px" xmlns="http://www.w3.org/2000/svg" viewBox="0 0 16 16" shape-rendering="geometricPrecision" fill="#fff"><defs><mask id="export-path"><rect fill="#fff" width="100%" height="100%"/><path d="M13.848-1.1l-1.797,1.795l0.286,0.287c-1.812,0.575-3.107,2.263-3.107,4.254v0.987h2.626 V5.235c0-0.491,0.191-0.954,0.538-1.302c0.01-0.01,0.021-0.02,0.03-0.03l1.425,1.421l3.212-3.213L13.848-1.1z" fill="#000"/></mask></defs><path id="export" display="inline" d="M13.848-0.04l-0.736,0.735l0.821,0.821h-0.234 l-0.156,0.008c-1.978,0.084-3.563,1.714-3.563,3.711v0.237h1.126V5.235c0-0.691,0.27-1.343,0.759-1.833 c0.49-0.489,1.141-0.759,1.833-0.759h0.237V2.643h0.063L13.112,3.53l0.735,0.734L16,2.111L13.848-0.04z" fill="#cb1800"/><g mask="url(#export-path)"><path d="M12.694,4.022c-0.014,0-0.026,0.005-0.04,0.006V3.299c0-0.716-0.581-1.296-1.297-1.296H4.629 c-0.716,0-1.297,0.58-1.297,1.296v0.727c-0.009,0-0.017-0.004-0.026-0.004c-0.254,0-0.459,0.152-0.459,0.339V5.56 c0,0.188,0.206,0.339,0.459,0.339c0.009,0,0.017-0.003,0.026-0.004v1.866v5.291h0.002v0.946h1.4v-0.946h6.519v0.946h1.4v-1.77 h-0.007V7.825c0.001-0.022,0.007-0.042,0.007-0.064V5.894C12.668,5.895,12.68,5.9,12.694,5.9c0.254,0,0.459-0.152,0.459-0.339 V4.362C13.153,4.174,12.947,4.022,12.694,4.022z M5.514,11.832H4.959c-0.357,0-0.647-0.29-0.647-0.647 c0-0.357,0.29-0.647,0.647-0.647h0.555c0.357,0,0.647,0.29,0.647,0.647C6.161,11.542,5.871,11.832,5.514,11.832z M10.871,11.832 h-0.555c-0.357,0-0.647-0.29-0.647-0.647c0-0.357,0.29-0.647,0.647-0.647h0.555c0.358,0,0.647,0.29,0.647,0.647 C11.518,11.542,11.228,11.832,10.871,11.832z M11.805,7.897c0,0.646-0.49,1.169-1.093,1.169H5.275 c-0.604,0-1.093-0.523-1.093-1.169V4.104c0-0.646,0.49-1.169,1.093-1.169h5.437c0.604,0,1.093,0.523,1.093,1.169V7.897z"/></g></svg>