<?xml version="1.0"?><!DOCTYPE svg PUBLIC "-//W3C//DTD SVG 1.1//EN" "http://www.w3.org/Graphics/SVG/1.1/DTD/svg11.dtd"><svg width="16px" height="16px" xmlns="http://www.w3.org/2000/svg" viewBox="0 0 16 16" shape-rendering="geometricPrecision" fill="#fff"><defs><mask id="export-path"><rect fill="#fff" width="100%" height="100%"/><path d="M13.848-1.1l-1.797,1.795l0.286,0.287c-1.812,0.575-3.107,2.263-3.107,4.254v0.987h2.626 V5.235c0-0.491,0.191-0.954,0.538-1.302c0.01-0.01,0.021-0.02,0.03-0.03l1.425,1.421l3.212-3.213L13.848-1.1z" fill="#000"/></mask></defs><path id="export" display="inline" d="M13.848-0.04l-0.736,0.735l0.821,0.821h-0.234 l-0.156,0.008c-1.978,0.084-3.563,1.714-3.563,3.711v0.237h1.126V5.235c0-0.691,0.27-1.343,0.759-1.833 c0.49-0.489,1.141-0.759,1.833-0.759h0.237V2.643h0.063L13.112,3.53l0.735,0.734L16,2.111L13.848-0.04z" fill="#cb1800"/><g mask="url(#export-path)"><path d="M8.001,1.79c-3.43,0-6.211,2.781-6.211,6.213c0,3.427,2.78,6.206,6.211,6.208 c3.429-0.002,6.208-2.78,6.209-6.208C14.21,4.571,11.43,1.79,8.001,1.79z M8.001,12.953c-2.736-0.005-4.949-2.218-4.955-4.951 c0.006-2.738,2.219-4.951,4.955-4.956c2.735,0.005,4.948,2.218,4.953,4.956C12.949,10.736,10.736,12.948,8.001,12.953z"/><polygon points="7.085,3.818 7.085,7.67 4.699,9.059 5.643,10.711 8.972,8.779 8.991,8.779 8.989,3.818"/></g></svg>