<?xml version="1.0"?><!DOCTYPE svg PUBLIC "-//W3C//DTD SVG 1.1//EN" "http://www.w3.org/Graphics/SVG/1.1/DTD/svg11.dtd"><svg width="16px" height="16px" xmlns="http://www.w3.org/2000/svg" viewBox="0 0 16 16" shape-rendering="geometricPrecision" fill="#fff"><defs><mask id="export-path"><rect fill="#fff" width="100%" height="100%"/><path d="M13.848-1.1l-1.797,1.795l0.286,0.287c-1.812,0.575-3.107,2.263-3.107,4.254v0.987h2.626 V5.235c0-0.491,0.191-0.954,0.538-1.302c0.01-0.01,0.021-0.02,0.03-0.03l1.425,1.421l3.212-3.213L13.848-1.1z" fill="#000"/></mask></defs><path id="export" display="inline" d="M13.848-0.04l-0.736,0.735l0.821,0.821h-0.234 l-0.156,0.008c-1.978,0.084-3.563,1.714-3.563,3.711v0.237h1.126V5.235c0-0.691,0.27-1.343,0.759-1.833 c0.49-0.489,1.141-0.759,1.833-0.759h0.237V2.643h0.063L13.112,3.53l0.735,0.734L16,2.111L13.848-0.04z" fill="#cb1800"/><g mask="url(#export-path)"><path d="M12.26,6.22L7.983,8.903L3.694,6.274L0.793,8.596c0.046,0.096,4.25,2.737,4.25,2.737L7.98,9.125 l3.028,2.206l4.352-2.617L12.26,6.22z"/><polygon points="7.98,9.955 5.053,12.152 3.598,11.339 3.598,12.169 7.998,14.955 12.364,12.169 12.364,11.339 10.994,12.152"/><polygon points="11.084,1.045 7.98,3.59 12.26,6.218 15.362,3.792"/><polygon points="0.638,3.928 3.702,6.269 7.98,3.59 5.041,1.047"/><rect x="12.259" y="6.219" transform="matrix(0.84 -0.5425 0.5425 0.84 -1.413 7.6461)" width="0.001" height="0.001"/></g></svg>