<svg width="16" height="16" xmlns="http://www.w3.org/2000/svg" viewBox="0 0 16 16" shape-rendering="geometricPrecision" fill="#fff"><defs><mask id="a"><rect width="100%" height="100%"/><path d="M13.848-1.1L12.051.695l.286.287A4.455 4.455 0 0 0 9.23 5.236v.987h2.626v-.988c0-.491.191-.954.538-1.302l.03-.03 1.425 1.421 3.212-3.213L13.848-1.1z" fill="#000"/></mask></defs><path d="M13.848-.04l-.736.735.821.821h-.234l-.156.008A3.722 3.722 0 0 0 9.98 5.235v.237h1.126v-.237c0-.691.27-1.343.759-1.833a2.579 2.579 0 0 1 1.833-.759h.3l-.886.887.735.734L16 2.111 13.848-.04z" fill="#cb1800"/><g mask="url(#a)"><path d="M8.182 3.179l-.815-1.923h-3.78L2.77 3.179H1.649l.001.949 13.327-.009.018 9.283.933-.978V3.179z"/><path d="M.072 4.756V14h14.279V4.756H.072zm13.178 8.173H1.041v-7H13.25v7z"/><g><path d="M7.032 6.987l-2.505 2.58h.409v2.437h1.376v-1.906h1.441v1.906H9.13V9.567h.408z"/></g></g></svg>