<?xml version="1.0"?><!DOCTYPE svg PUBLIC "-//W3C//DTD SVG 1.1//EN" "http://www.w3.org/Graphics/SVG/1.1/DTD/svg11.dtd"><svg width="16px" height="16px" xmlns="http://www.w3.org/2000/svg" viewBox="0 0 16 16" shape-rendering="geometricPrecision" fill="#fff"><defs><mask id="export-path"><rect fill="#fff" width="100%" height="100%"/><path d="M13.848-1.1l-1.797,1.795l0.286,0.287c-1.812,0.575-3.107,2.263-3.107,4.254v0.987h2.626 V5.235c0-0.491,0.191-0.954,0.538-1.302c0.01-0.01,0.021-0.02,0.03-0.03l1.425,1.421l3.212-3.213L13.848-1.1z" fill="#000"/></mask></defs><path id="export" display="inline" d="M13.848-0.04l-0.736,0.735l0.821,0.821h-0.234 l-0.156,0.008c-1.978,0.084-3.563,1.714-3.563,3.711v0.237h1.126V5.235c0-0.691,0.27-1.343,0.759-1.833 c0.49-0.489,1.141-0.759,1.833-0.759h0.237V2.643h0.063L13.112,3.53l0.735,0.734L16,2.111L13.848-0.04z" fill="#cb1800"/><g mask="url(#export-path)"><g><path d="M9.325,5.321c-0.372-0.324-0.84-0.576-1.26-0.576c-0.432,0-0.647,0.168-0.647,0.468c0,0.852,3.25,0.923,3.25,3.094 c0,0.696-0.359,1.211-0.983,1.595c0.168,0.252,0.276,0.552,0.276,0.923c0,1.08-0.804,1.895-2.303,1.895 c-0.876,0-1.787-0.324-2.327-1.007l1.02-0.899c0.384,0.396,0.84,0.611,1.308,0.611c0.491,0,0.719-0.216,0.719-0.516 c0-0.936-3.154-0.852-3.154-3.106c0-0.6,0.372-1.175,0.96-1.535C5.967,6.017,5.835,5.693,5.835,5.273 c0-1.08,0.791-1.835,2.135-1.835c0.923,0,1.667,0.396,2.158,0.779L9.325,5.321z M8.774,9.159 c0.275-0.168,0.407-0.384,0.407-0.708c0-0.755-1.115-0.996-2.051-1.475c-0.275,0.18-0.42,0.408-0.42,0.695 C6.71,8.427,7.85,8.667,8.774,9.159z"/></g><path d="M8,1.001c-3.866,0-6.999,3.135-6.999,7.003C1.003,11.867,4.134,14.999,8,15.001 c3.867-0.002,7.001-3.134,7.001-6.997C15.001,4.136,11.867,1.001,8,1.001z M8,13.585c-3.083-0.006-5.577-2.5-5.583-5.581 C2.423,4.918,4.917,2.423,8,2.417c3.084,0.006,5.578,2.501,5.585,5.587C13.578,11.085,11.084,13.579,8,13.585z"/></g></svg>