<?xml version="1.0"?><!DOCTYPE svg PUBLIC "-//W3C//DTD SVG 1.1//EN" "http://www.w3.org/Graphics/SVG/1.1/DTD/svg11.dtd"><svg width="16px" height="16px" xmlns="http://www.w3.org/2000/svg" viewBox="0 0 16 16" shape-rendering="geometricPrecision" fill="#fff"><defs><mask id="export-path"><rect fill="#fff" width="100%" height="100%"/><path d="M13.848-1.1l-1.797,1.795l0.286,0.287c-1.812,0.575-3.107,2.263-3.107,4.254v0.987h2.626 V5.235c0-0.491,0.191-0.954,0.538-1.302c0.01-0.01,0.021-0.02,0.03-0.03l1.425,1.421l3.212-3.213L13.848-1.1z" fill="#000"/></mask></defs><path id="export" display="inline" d="M13.848-0.04l-0.736,0.735l0.821,0.821h-0.234 l-0.156,0.008c-1.978,0.084-3.563,1.714-3.563,3.711v0.237h1.126V5.235c0-0.691,0.27-1.343,0.759-1.833 c0.49-0.489,1.141-0.759,1.833-0.759h0.237V2.643h0.063L13.112,3.53l0.735,0.734L16,2.111L13.848-0.04z" fill="#cb1800"/><g mask="url(#export-path)"><g><g><polygon points="10.561,10.525 9.232,10.371 8.126,11.123 7.022,10.371 6.976,10.376 8.349,15.331 10.014,13.501 12.396,14.21 11.096,9.519"/></g><path d="M12.169,5.086l0.283-1.182l-0.996-0.698l-0.298-1.178L9.951,1.873L9.14,0.969l-1.14,0.423L6.86,0.969L6.049,1.873 L4.843,2.028L4.543,3.206L3.548,3.904l0.283,1.182L3.273,6.167l0.8,0.915l0.008,1.215l1.134,0.44L5.787,9.81l1.209-0.139 l1.003,0.684l1.006-0.686l1.208,0.139l0.571-1.072l1.134-0.44l0.008-1.215l0.8-0.915L12.169,5.086z M7.999,9.561 c-2.153,0-3.898-1.745-3.898-3.898c0-2.153,1.745-3.898,3.898-3.898c2.154,0,3.899,1.744,3.899,3.897S10.153,9.561,7.999,9.561z"/><circle cx="8.03" cy="5.662" r="3.143"/><g><polygon points="5.486,10.511 4.857,9.33 4.822,9.316 3.73,14.277 6.259,13.369 7.597,14.686 6.411,10.404"/></g></g></g></svg>