<?xml version="1.0"?><!DOCTYPE svg PUBLIC "-//W3C//DTD SVG 1.1//EN" "http://www.w3.org/Graphics/SVG/1.1/DTD/svg11.dtd"><svg width="16px" height="16px" xmlns="http://www.w3.org/2000/svg" viewBox="0 0 16 16" shape-rendering="geometricPrecision" fill="#fff"><defs><mask id="export-path"><rect fill="#fff" width="100%" height="100%"/><path d="M13.848-1.1l-1.797,1.795l0.286,0.287c-1.812,0.575-3.107,2.263-3.107,4.254v0.987h2.626 V5.235c0-0.491,0.191-0.954,0.538-1.302c0.01-0.01,0.021-0.02,0.03-0.03l1.425,1.421l3.212-3.213L13.848-1.1z" fill="#000"/></mask></defs><path id="export" display="inline" d="M13.848-0.04l-0.736,0.735l0.821,0.821h-0.234 l-0.156,0.008c-1.978,0.084-3.563,1.714-3.563,3.711v0.237h1.126V5.235c0-0.691,0.27-1.343,0.759-1.833 c0.49-0.489,1.141-0.759,1.833-0.759h0.237V2.643h0.063L13.112,3.53l0.735,0.734L16,2.111L13.848-0.04z" fill="#cb1800"/><g mask="url(#export-path)"><path d="M7.999,0.97c-3.882,0-7.029,3.147-7.029,7.033c0.001,3.881,3.147,7.025,7.029,7.027 c3.883-0.002,7.031-3.146,7.031-7.027C15.03,4.116,11.882,0.97,7.999,0.97z M7.917,12.524H7.906c-0.663,0-1.121-0.496-1.121-1.16 c0-0.686,0.471-1.156,1.132-1.156c0.688,0,1.136,0.471,1.147,1.156C9.065,12.028,8.606,12.524,7.917,12.524z M9.46,7.774 c-0.472,0.52-0.663,1.02-0.65,1.594v0.229H7.116L7.104,9.265c-0.038-0.65,0.177-1.312,0.75-1.988 C8.263,6.78,8.596,6.372,8.596,5.938c0-0.445-0.293-0.738-0.93-0.764c-0.423,0-0.932,0.152-1.262,0.381L5.97,4.169 c0.472-0.268,1.223-0.523,2.127-0.523c1.681,0,2.446,0.93,2.446,1.986C10.543,6.601,9.946,7.237,9.46,7.774z"/></g></svg>