<?xml version="1.0"?><!DOCTYPE svg PUBLIC "-//W3C//DTD SVG 1.1//EN" "http://www.w3.org/Graphics/SVG/1.1/DTD/svg11.dtd"><svg width="16px" height="16px" xmlns="http://www.w3.org/2000/svg" viewBox="0 0 16 16" shape-rendering="geometricPrecision" fill="#fff"><defs><mask id="export-path"><rect fill="#fff" width="100%" height="100%"/><path d="M13.848-1.1l-1.797,1.795l0.286,0.287c-1.812,0.575-3.107,2.263-3.107,4.254v0.987h2.626 V5.235c0-0.491,0.191-0.954,0.538-1.302c0.01-0.01,0.021-0.02,0.03-0.03l1.425,1.421l3.212-3.213L13.848-1.1z" fill="#000"/></mask></defs><path id="export" display="inline" d="M13.848-0.04l-0.736,0.735l0.821,0.821h-0.234 l-0.156,0.008c-1.978,0.084-3.563,1.714-3.563,3.711v0.237h1.126V5.235c0-0.691,0.27-1.343,0.759-1.833 c0.49-0.489,1.141-0.759,1.833-0.759h0.237V2.643h0.063L13.112,3.53l0.735,0.734L16,2.111L13.848-0.04z" fill="#cb1800"/><g mask="url(#export-path)"><path d="M8.41,6.155l6.188,0.002l-0.002-6.185l-2.114,0L12.48,2.667 c-2.932-2.263-7.126-2.112-9.79,0.55c-2.895,2.895-2.832,7.604,0.086,10.53c2.929,2.918,7.635,2.981,10.533,0.09 c1.425-1.426,2.141-3.311,2.138-5.191l-2.094,0.002c0,1.355-0.507,2.689-1.525,3.709c-2.058,2.05-5.443,2.036-7.572-0.089 C2.131,10.14,2.119,6.753,4.169,4.696c1.775-1.772,4.54-1.994,6.635-0.654L8.41,4.043V6.155z"/></g></svg>