<svg width="16" height="16" xmlns="http://www.w3.org/2000/svg" viewBox="0 0 16 16" shape-rendering="geometricPrecision" fill="#fff"><defs><mask id="a"><rect width="100%" height="100%"/><path d="M13.848-1.1L12.051.695l.286.287A4.455 4.455 0 0 0 9.23 5.236v.987h2.626v-.988c0-.491.191-.954.538-1.302l.03-.03 1.425 1.421 3.212-3.213L13.848-1.1z" fill="#000"/></mask></defs><path d="M13.848-.04l-.736.735.821.821h-.234l-.156.008A3.722 3.722 0 0 0 9.98 5.235v.237h1.126v-.237c0-.691.27-1.343.759-1.833a2.579 2.579 0 0 1 1.833-.759h.3l-.886.887.735.734L16 2.111 13.848-.04z" fill="#cb1800"/><g mask="url(#a)"><path d="M2.138 11.963a1.128 1.128 0 1 0 0-2.257 1.128 1.128 0 0 0 0 2.257zm1.049.536H1.085c-.599 0-1.085.49-1.085 1.088v1.414h4.276v-1.414c0-.598-.49-1.088-1.089-1.088zm10.675-.536a1.129 1.129 0 1 0 .002-2.258 1.129 1.129 0 0 0-.002 2.258zm1.049.536H12.81a1.09 1.09 0 0 0-1.086 1.088v1.414H16v-1.414c0-.598-.491-1.088-1.089-1.088zM8.018 2.257a1.128 1.128 0 1 0 0-2.257 1.128 1.128 0 1 0 0 2.257zm1.049.537H6.965c-.599 0-1.085.489-1.085 1.088v1.413h4.276V3.882c0-.599-.49-1.088-1.089-1.088zm-.539 4.195V5.985h-1.02v1.004H1.984v1.984h1.057v-.972h9.972v.972h.945V6.989z"/></g></svg>