<svg width="16" height="16" xmlns="http://www.w3.org/2000/svg" viewBox="0 0 16 16" shape-rendering="geometricPrecision" fill="#fff"><defs><mask id="a"><rect width="100%" height="100%"/><path d="M13.848-1.1L12.051.695l.286.287A4.455 4.455 0 0 0 9.23 5.236v.987h2.626v-.988c0-.491.191-.954.538-1.302l.03-.03 1.425 1.421 3.212-3.213L13.848-1.1z" fill="#000"/></mask></defs><path d="M13.848-.04l-.736.735.821.821h-.234l-.156.008A3.722 3.722 0 0 0 9.98 5.235v.237h1.126v-.237c0-.691.27-1.343.759-1.833a2.579 2.579 0 0 1 1.833-.759h.3l-.886.887.735.734L16 2.111 13.848-.04z" fill="#cb1800"/><g mask="url(#a)"><path d="M15.432 12.94l-3.595-3.593-.356-.356c1.227-2.3.901-5.215-1.039-7.157a6.09 6.09 0 0 0-8.609.003 6.085 6.085 0 0 0 .002 8.605c1.939 1.939 4.855 2.267 7.158 1.037l3.952 3.952a1.757 1.757 0 0 0 2.486 0c.69-.687.69-1.8.001-2.491zM3.104 9.17a4.286 4.286 0 0 1 .001-6.062 4.285 4.285 0 0 1 6.064-.005A4.29 4.29 0 0 1 3.104 9.17z"/></g></svg>