<?xml version="1.0"?><!DOCTYPE svg PUBLIC "-//W3C//DTD SVG 1.1//EN" "http://www.w3.org/Graphics/SVG/1.1/DTD/svg11.dtd"><svg width="16px" height="16px" xmlns="http://www.w3.org/2000/svg" viewBox="0 0 16 16" shape-rendering="geometricPrecision" fill="#fff"><defs><mask id="export-path"><rect fill="#fff" width="100%" height="100%"/><path d="M13.848-1.1l-1.797,1.795l0.286,0.287c-1.812,0.575-3.107,2.263-3.107,4.254v0.987h2.626 V5.235c0-0.491,0.191-0.954,0.538-1.302c0.01-0.01,0.021-0.02,0.03-0.03l1.425,1.421l3.212-3.213L13.848-1.1z" fill="#000"/></mask></defs><path id="export" display="inline" d="M13.848-0.04l-0.736,0.735l0.821,0.821h-0.234 l-0.156,0.008c-1.978,0.084-3.563,1.714-3.563,3.711v0.237h1.126V5.235c0-0.691,0.27-1.343,0.759-1.833 c0.49-0.489,1.141-0.759,1.833-0.759h0.237V2.643h0.063L13.112,3.53l0.735,0.734L16,2.111L13.848-0.04z" fill="#cb1800"/><path mask="url(#export-path)" d="M13.053,8.004c0.064-0.324,0.101-0.657,0.101-1c0-2.859-2.318-5.179-5.18-5.179 c-2.857,0-5.178,2.319-5.178,5.177h1.541c0.002-2.007,1.631-3.637,3.637-3.637c2.01,0,3.639,1.631,3.639,3.639 c0,0.35-0.065,0.681-0.157,1H9.636c0.177-0.293,0.285-0.633,0.285-1c0-1.074-0.873-1.946-1.947-1.946S6.03,5.93,6.03,7.004 c0,0.367,0.107,0.707,0.284,1H0.958v5.482h14.084V8.004H13.053z M11.377,10.745H4.622v-1.46h6.755V10.745z"/></svg>