<svg width="16" height="16" xmlns="http://www.w3.org/2000/svg" viewBox="0 0 16 16" shape-rendering="geometricPrecision" fill="#fff"><defs><mask id="a"><rect width="100%" height="100%"/><path d="M13.848-1.1L12.051.695l.286.287A4.455 4.455 0 0 0 9.23 5.236v.987h2.626v-.988c0-.491.191-.954.538-1.302l.03-.03 1.425 1.421 3.212-3.213L13.848-1.1z" fill="#000"/></mask></defs><path d="M13.848-.04l-.736.735.821.821h-.234l-.156.008A3.722 3.722 0 0 0 9.98 5.235v.237h1.126v-.237c0-.691.27-1.343.759-1.833a2.579 2.579 0 0 1 1.833-.759h.3l-.886.887.735.734L16 2.111 13.848-.04z" fill="#cb1800"/><g mask="url(#a)"><path d="M13.078 2.394C11.292.612 8.42.628 6.634 2.404l-5.05 5.052.904.902 5.051-5.049a3.268 3.268 0 0 1 4.639-.012 3.292 3.292 0 0 1 0 4.65l-5.051 5.051a2.25 2.25 0 0 1-3.186.008 2.266 2.266 0 0 1 0-3.194l4.422-4.423.001.001a1.222 1.222 0 1 1 1.73 1.727L5.67 11.542l.901.9 4.423-4.423c.976-.977.98-2.562.003-3.54a2.502 2.502 0 0 0-3.521-.001l-.002-.001-4.435 4.432a3.538 3.538 0 0 0 0 4.999 3.534 3.534 0 0 0 4.99-.009l5.05-5.051a4.561 4.561 0 0 0-.001-6.454z"/></g></svg>