<svg width="16" height="16" xmlns="http://www.w3.org/2000/svg" viewBox="0 0 16 16" shape-rendering="geometricPrecision" fill="#00962d"><defs><mask id="a"><rect fill="#fff" width="100%" height="100%"/><path fill="#000" d="M16.383 1.058l-2.47-2.473-4.51 4.512 4.511 4.506 2.469-2.469-2.035-2.039z"/></mask></defs><path fill="#cb1800" d="M12.935 3.095l2.035-2.037L13.913 0l-3.096 3.097 3.096 3.092 1.057-1.056z"/><path d="M12.421 2.295H3.568a2.532 2.532 0 0 0-2.529 2.528V9.76a2.534 2.534 0 0 0 2.529 2.529h.196c-.097.402-.325.845-.828 1.304L1.368 15l2.084-.319c2.36-.374 3.82-1.796 4.344-2.392h4.625A2.533 2.533 0 0 0 14.95 9.76V4.823a2.53 2.53 0 0 0-2.529-2.528zm1.272 7.465c0 .696-.577 1.272-1.272 1.274H7.188l-.188.25c-.033.05-.784 1.016-2.124 1.657.153-.422.211-.832.207-1.188l-.001-.108-.018-.61H3.568a1.284 1.284 0 0 1-1.272-1.274V4.823c0-.698.577-1.272 1.272-1.273h8.853a1.281 1.281 0 0 1 1.272 1.273V9.76zM4.849 6.242a1.156 1.156 0 1 0 .001 2.311 1.156 1.156 0 0 0-.001-2.311zm3.146 0c-.638 0-1.157.518-1.157 1.156a1.157 1.157 0 0 0 2.312 0c0-.638-.518-1.156-1.155-1.156zm3.145 0c-.637 0-1.156.518-1.156 1.156a1.155 1.155 0 1 0 1.156-1.156z" mask="url(#a)"/></svg>