<svg width="16" height="16" xmlns="http://www.w3.org/2000/svg" viewBox="0 0 16 16" shape-rendering="geometricPrecision" fill="#00962d"><defs><mask id="a"><rect fill="#fff" width="100%" height="100%"/><path fill="#000" d="M16.383 1.058l-2.47-2.473-4.51 4.512 4.511 4.506 2.469-2.469-2.035-2.039z"/></mask></defs><path fill="#cb1800" d="M12.935 3.095l2.035-2.037L13.913 0l-3.096 3.097 3.096 3.092 1.057-1.056z"/><path d="M1.059 3.199v2.777c0 .59.481 1.07 1.07 1.07h2.768a3.816 3.816 0 0 0 2.333 1.35c-.516-.461-.63-.965-.618-1.349h.499c.588 0 1.069-.48 1.069-1.07V3.199c0-.588-.481-1.07-1.069-1.07H2.129c-.589 0-1.07.482-1.07 1.07zm1.274 1.426h4.509v.629H2.333v-.629zm0-1.303h4.509v.63H2.333v-.63zM13.15 6.007a2.13 2.13 0 1 0-4.26 0 2.13 2.13 0 0 0 4.26 0zm-6.163 5.194v2.669h8.067v-2.669a2.054 2.054 0 0 0-2.047-2.053H9.041a2.06 2.06 0 0 0-2.054 2.053z" mask="url(#a)"/></svg>