<svg width="16" height="16" xmlns="http://www.w3.org/2000/svg" viewBox="0 0 16 16" shape-rendering="geometricPrecision" fill="#00962d"><defs><mask id="a"><rect fill="#fff" width="100%" height="100%"/><path fill="#000" d="M16.383 1.058l-2.47-2.473-4.51 4.512 4.511 4.506 2.469-2.469-2.035-2.039z"/></mask></defs><path fill="#cb1800" d="M12.935 3.095l2.035-2.037L13.913 0l-3.096 3.097 3.096 3.092 1.057-1.056z"/><path d="M7.999 1a7 7 0 1 0 .003 14 7 7 0 0 0-.003-14zm0 12.584a5.59 5.59 0 0 1-5.583-5.581 5.593 5.593 0 0 1 5.583-5.587 5.594 5.594 0 0 1 5.585 5.587 5.593 5.593 0 0 1-5.585 5.581zm3.423-3.53L9.366 7.999l2.057-2.057-1.448-1.45L7.917 6.55 5.86 4.493 4.412 5.941l2.057 2.056-2.059 2.058 1.451 1.45 2.058-2.058 2.056 2.057 1.447-1.45z" mask="url(#a)"/></svg>