<?xml version="1.0"?><!DOCTYPE svg PUBLIC "-//W3C//DTD SVG 1.1//EN" "http://www.w3.org/Graphics/SVG/1.1/DTD/svg11.dtd"><svg width="16px" height="16px" xmlns="http://www.w3.org/2000/svg" viewBox="0 0 16 16" shape-rendering="geometricPrecision" fill="#00962d"><defs><mask id="move_left-path"><rect fill="#fff" width="100%" height="100%"/><polygon points="16.383,1.058 13.913,-1.415 9.403,3.097 13.914,7.603 16.383,5.134 14.348,3.095 " fill="#000"/></mask></defs><polygon points="12.935,3.095 14.97,1.058 13.913,0 10.817,3.097 13.913,6.189 14.97,5.133 " fill="#cb1800"/><g mask="url(#move_left-path)"><path d="M7.983,8.903L3.694,6.274L0.793,8.596c0.046,0.096,4.25,2.737,4.25,2.737L7.98,9.125l3.028,2.206 l4.352-2.617l-3.1-2.494L7.983,8.903z"/><polygon points="7.98,9.955 5.053,12.152 3.598,11.339 3.598,12.169 7.998,14.955 12.364,12.169 12.364,11.339 10.994,12.152"/><polygon points="11.084,1.045 7.98,3.59 12.26,6.218 15.362,3.792"/><polygon points="0.638,3.928 3.702,6.27 7.98,3.59 5.041,1.047"/><rect x="12.259" y="6.219" transform="matrix(0.7071 -0.7071 0.7071 0.7071 -0.8068 10.4906)" width="0.001" height="0.001"/></g></svg>