<svg width="16" height="16" xmlns="http://www.w3.org/2000/svg" viewBox="0 0 16 16" shape-rendering="geometricPrecision" fill="#00962d"><defs><mask id="a"><rect fill="#fff" width="100%" height="100%"/><path fill="#000" d="M16.383 1.058l-2.47-2.473-4.51 4.512 4.511 4.506 2.469-2.469-2.035-2.039z"/></mask></defs><path fill="#cb1800" d="M12.935 3.095l2.035-2.037L13.913 0l-3.096 3.097 3.096 3.092 1.057-1.056z"/><path mask="url(#a)" d="M9.985 2L8.271 3.713l1.912 1.914h-.546l-.364.018c-4.608.196-8.3 3.993-8.3 8.646v.553h2.624v-.553a6.01 6.01 0 0 1 1.768-4.271 6.008 6.008 0 0 1 4.272-1.768h.552V8.25h.147l-2.065 2.068 1.713 1.711L15 7.012 9.985 2z"/></svg>