<svg width="16" height="16" xmlns="http://www.w3.org/2000/svg" viewBox="0 0 16 16" shape-rendering="geometricPrecision" fill="#00962d"><defs><mask id="a"><rect fill="#fff" width="100%" height="100%"/><path d="M16.383 1.058l-2.47-2.473-4.51 4.512 4.511 4.506 2.469-2.469-2.035-2.039z"/></mask></defs><path fill="#cb1800" d="M12.935 3.095l2.035-2.037-1.057-1.058-3.096 3.097 3.096 3.092 1.057-1.056z"/><path mask="url(#a)" d="M7.993 3.184c-3.468 0-6.475 1.952-7.993 4.817 1.518 2.863 4.525 4.814 7.993 4.814 3.466 0 6.472-1.951 7.993-4.814-1.521-2.865-4.527-4.817-7.993-4.817zm-.82 8.199l-3.052-3.052 1.342-1.344 1.709 1.708 3.265-3.265 1.345 1.344-4.609 4.609z"/></svg>