<svg width="16" height="16" xmlns="http://www.w3.org/2000/svg" viewBox="0 0 16 16" shape-rendering="geometricPrecision"><defs><mask id="a"><rect fill="#fff" width="100%" height="100%"/><path d="M17.414 1.215L14.79-1.414 13.066.308l-1.722-1.722-2.627 2.627 1.722 1.721-1.724 1.722 2.63 2.628 1.722-1.722 1.722 1.723 2.625-2.63-1.721-1.72z"/></mask></defs><path d="M16 4.656l-1.722-1.721L16 1.214 14.789.001l-1.723 1.721L11.344.001l-1.212 1.212 1.722 1.721-1.724 1.722 1.215 1.214 1.722-1.723 1.722 1.723z" fill="#cb1800"/><g mask="url(#a)"><path d="M10.201 4.508a2.698 2.698 0 0 1 2.711 2.645l.019.766.744.181a1.715 1.715 0 0 1 1.311 1.672v.057a1.724 1.724 0 0 1-1.714 1.665H3.035A2.025 2.025 0 0 1 1.013 9.47a2.025 2.025 0 0 1 2.384-1.991l1.365.245-.198-1.374a1.087 1.087 0 0 1 1.074-1.238c.337 0 .65.154.858.423l.783 1.012.793-1.004a2.694 2.694 0 0 1 2.129-1.035m0-1a3.706 3.706 0 0 0-2.915 1.415 2.085 2.085 0 0 0-3.713 1.571 3.023 3.023 0 0 0-3.56 2.975 3.023 3.023 0 0 0 3.022 3.024h10.237a2.72 2.72 0 0 0 2.714-2.721l-.001-.001c0-1.28-.884-2.354-2.075-2.644a3.71 3.71 0 0 0-3.709-3.619z"/></g></svg>