<svg width="16" height="16" xmlns="http://www.w3.org/2000/svg" viewBox="0 0 16 16" shape-rendering="geometricPrecision"><defs><mask id="a"><rect fill="#fff" width="100%" height="100%"/><path d="M17.414 1.215L14.79-1.414 13.066.308l-1.722-1.722-2.627 2.627 1.722 1.721-1.724 1.722 2.63 2.628 1.722-1.722 1.722 1.723 2.625-2.63-1.721-1.72z"/></mask></defs><path d="M16 4.656l-1.722-1.721L16 1.214 14.789.001l-1.723 1.721L11.344.001l-1.212 1.212 1.722 1.721-1.724 1.722 1.215 1.214 1.722-1.723 1.722 1.723z" fill="#cb1800"/><g mask="url(#a)"><path d="M2.764 2.068L4.554.277l3.447 3.447L11.448.277l1.789 1.791-5.239 5.239zM0 8v6.929h16V8H0zm14.413 5.495H1.588v-4.06h12.825v4.06zm-2.387-1.517a.934.934 0 0 0 .939-.93.934.934 0 0 0-.939-.931.935.935 0 0 0-.941.931c0 .513.42.93.941.93z"/></g></svg>