<svg width="16" height="16" xmlns="http://www.w3.org/2000/svg" viewBox="0 0 16 16" shape-rendering="geometricPrecision"><defs><mask id="a"><rect fill="#fff" width="100%" height="100%"/><path d="M17.414 1.215L14.79-1.414 13.066.308l-1.722-1.722-2.627 2.627 1.722 1.721-1.724 1.722 2.63 2.628 1.722-1.722 1.722 1.723 2.625-2.63-1.721-1.72z"/></mask></defs><path d="M16 4.656l-1.722-1.721L16 1.214 14.789.001l-1.723 1.721L11.344.001l-1.212 1.212 1.722 1.721-1.724 1.722 1.215 1.214 1.722-1.723 1.722 1.723z" fill="#cb1800"/><g mask="url(#a)"><path d="M8.182 3.179l-.815-1.923h-3.78L2.77 3.179H1.649l.001.949 13.327-.009.018 9.283.933-.978V3.179z"/><path d="M.072 4.756V14h14.279V4.756H.072zm13.178 8.173H1.041v-7H13.25v7z"/><g><circle cx="5.236" cy="8.478" r=".722"/><path d="M5.564 9.543h-.659a.697.697 0 0 0-.694.696v.904H6.26v-.904a.698.698 0 0 0-.696-.696z"/><circle cx="8.83" cy="9.334" r=".722"/><path d="M9.158 10.398h-.659a.697.697 0 0 0-.694.696v.905h2.049v-.905a.698.698 0 0 0-.696-.696z"/><circle cx="6.833" cy="7.68" r=".722"/><path d="M7.858 10.345V9.44a.698.698 0 0 0-.696-.696h-.66a.695.695 0 0 0-.691.668c.357.107.62.435.62.827v.105h1.427z"/></g></g></svg>