<?xml version="1.0"?><!DOCTYPE svg PUBLIC "-//W3C//DTD SVG 1.1//EN" "http://www.w3.org/Graphics/SVG/1.1/DTD/svg11.dtd"><svg width="16px" height="16px" xmlns="http://www.w3.org/2000/svg" viewBox="0 0 16 16" shape-rendering="geometricPrecision" fill="#000"><defs><mask id="decline-path"><rect fill="#fff" width="100%" height="100%"/><polygon points="17.414,1.215 14.79,-1.414 13.066,0.308 11.344,-1.414 8.717,1.213 10.439,2.934 8.715,4.656 11.345,7.284 13.067,5.562 14.789,7.285 17.414,4.655 15.693,2.935 " fill="#000"/></mask></defs><g fill="#cb1800"><polygon points="16,4.656 14.278,2.935 16,1.214 14.789,0.001 13.066,1.722 11.344,0.001 10.132,1.213 11.854,2.934 10.13,4.656 11.345,5.87 13.067,4.147 14.789,5.87 "/></g><g mask="url(#decline-path)"><path d="M8,6.636C6.436,6.639,5.17,7.904,5.167,9.47C5.17,11.033,6.436,12.299,8,12.302 c1.564-0.003,2.83-1.268,2.833-2.832C10.83,7.904,9.565,6.639,8,6.636z M8.556,9.914l-1.904,1.105l-0.54-0.945L7.477,9.28V7.077 l1.089,0l0.001,2.837H8.556z"/><path d="M7.394,4.755L6.578,2.832H2.798L1.982,4.755H0.861V14h14.278V4.755H7.394z M8,13.021 C6.039,13.02,4.448,11.43,4.448,9.47c0-1.963,1.59-3.554,3.552-3.554c1.961,0,3.551,1.591,3.551,3.554 C11.551,11.43,9.962,13.02,8,13.021z"/></g></svg>