<?xml version="1.0"?><!DOCTYPE svg PUBLIC "-//W3C//DTD SVG 1.1//EN" "http://www.w3.org/Graphics/SVG/1.1/DTD/svg11.dtd"><svg width="16px" height="16px" xmlns="http://www.w3.org/2000/svg" viewBox="0 0 16 16" shape-rendering="geometricPrecision" fill="#000"><defs><mask id="decline-path"><rect fill="#fff" width="100%" height="100%"/><polygon points="17.414,1.215 14.79,-1.414 13.066,0.308 11.344,-1.414 8.717,1.213 10.439,2.934 8.715,4.656 11.345,7.284 13.067,5.562 14.789,7.285 17.414,4.655 15.693,2.935 " fill="#000"/></mask></defs><g fill="#cb1800"><polygon points="16,4.656 14.278,2.935 16,1.214 14.789,0.001 13.066,1.722 11.344,0.001 10.132,1.213 11.854,2.934 10.13,4.656 11.345,5.87 13.067,4.147 14.789,5.87 "/></g><g mask="url(#decline-path)"><g><path d="M8,5.495C6.343,5.495,5,6.839,5,8.497C5,10.153,6.343,11.495,8,11.496c1.657-0.001,2.999-1.343,3-2.999 C11,6.839,9.657,5.495,8,5.495z M8,10.889C6.679,10.886,5.61,9.817,5.607,8.497C5.61,7.174,6.679,6.105,8,6.102 c1.321,0.003,2.39,1.072,2.393,2.394C10.391,9.817,9.322,10.886,8,10.889z"/><polygon points="7.558,6.475 7.558,8.336 6.405,9.007 6.861,9.805 8.469,8.872 8.479,8.872 8.478,6.475"/></g><path d="M6.799,3.47L6.5,1.979h-4L2.2,3.47H0.999v10h14v-10H6.799z M14,12.47H2v-8h5h7V12.47z"/></g></svg>