<svg width="16" height="16" xmlns="http://www.w3.org/2000/svg" viewBox="0 0 16 16" shape-rendering="geometricPrecision"><defs><mask id="a"><rect fill="#fff" width="100%" height="100%"/><path d="M17.414 1.215L14.79-1.414 13.066.308l-1.722-1.722-2.627 2.627 1.722 1.721-1.724 1.722 2.63 2.628 1.722-1.722 1.722 1.723 2.625-2.63-1.721-1.72z"/></mask></defs><path d="M16 4.656l-1.722-1.721L16 1.214 14.789.001l-1.723 1.721L11.344.001l-1.212 1.212 1.722 1.721-1.724 1.722 1.215 1.214 1.722-1.723 1.722 1.723z" fill="#cb1800"/><g mask="url(#a)"><path d="M7.054 6.495a3.002 3.002 0 0 0 0 6.001 3 3 0 0 0 0-6.001zm0 5.394A2.397 2.397 0 0 1 4.66 9.497a2.397 2.397 0 0 1 2.394-2.394 2.398 2.398 0 0 1 2.393 2.394 2.397 2.397 0 0 1-2.393 2.392z"/><path d="M6.611 7.475v1.861l-1.152.671.456.798 1.608-.933h.009l-.001-2.397z"/><path d="M13.125 5.495v8h-12v-8h12m1-1h-14v10h14v-10z"/><path d="M7.175 2.995l-.299-1.49h-4l-.3 1.49H1.375v1h13.5v9.5l1-1v-9.5z"/></g></svg>