<?xml version="1.0"?><!DOCTYPE svg PUBLIC "-//W3C//DTD SVG 1.1//EN" "http://www.w3.org/Graphics/SVG/1.1/DTD/svg11.dtd"><svg width="16px" height="16px" xmlns="http://www.w3.org/2000/svg" viewBox="0 0 16 16" shape-rendering="geometricPrecision" fill="#000"><defs><mask id="decline-path"><rect fill="#fff" width="100%" height="100%"/><polygon points="17.414,1.215 14.79,-1.414 13.066,0.308 11.344,-1.414 8.717,1.213 10.439,2.934 8.715,4.656 11.345,7.284 13.067,5.562 14.789,7.285 17.414,4.655 15.693,2.935 " fill="#000"/></mask></defs><g fill="#cb1800"><polygon points="16,4.656 14.278,2.935 16,1.214 14.789,0.001 13.066,1.722 11.344,0.001 10.132,1.213 11.854,2.934 10.13,4.656 11.345,5.87 13.067,4.147 14.789,5.87 "/></g><g mask="url(#decline-path)"><g><path d="M9.325,5.321c-0.372-0.324-0.84-0.576-1.26-0.576c-0.432,0-0.647,0.168-0.647,0.468c0,0.852,3.25,0.923,3.25,3.094 c0,0.696-0.359,1.211-0.983,1.595c0.168,0.252,0.276,0.552,0.276,0.923c0,1.08-0.804,1.895-2.303,1.895 c-0.876,0-1.787-0.324-2.327-1.007l1.02-0.899c0.384,0.396,0.84,0.611,1.308,0.611c0.491,0,0.719-0.216,0.719-0.516 c0-0.936-3.154-0.852-3.154-3.106c0-0.6,0.372-1.175,0.96-1.535C5.967,6.017,5.835,5.693,5.835,5.273 c0-1.08,0.791-1.835,2.135-1.835c0.923,0,1.667,0.396,2.158,0.779L9.325,5.321z M8.774,9.159 c0.275-0.168,0.407-0.384,0.407-0.708c0-0.755-1.115-0.996-2.051-1.475c-0.275,0.18-0.42,0.408-0.42,0.695 C6.71,8.427,7.85,8.667,8.774,9.159z"/></g><path d="M8,1.001c-3.866,0-6.999,3.135-6.999,7.003C1.003,11.867,4.134,14.999,8,15.001 c3.867-0.002,7.001-3.134,7.001-6.997C15.001,4.136,11.867,1.001,8,1.001z M8,13.585c-3.083-0.006-5.577-2.5-5.583-5.581 C2.423,4.918,4.917,2.423,8,2.417c3.084,0.006,5.578,2.501,5.585,5.587C13.578,11.085,11.084,13.579,8,13.585z"/></g></svg>