<svg width="16" height="16" xmlns="http://www.w3.org/2000/svg" viewBox="0 0 16 16" shape-rendering="geometricPrecision"><defs><mask id="a"><rect fill="#fff" width="100%" height="100%"/><path d="M17.414 1.215L14.79-1.414 13.066.308l-1.722-1.722-2.627 2.627 1.722 1.721-1.724 1.722 2.63 2.628 1.722-1.722 1.722 1.723 2.625-2.63-1.721-1.72z"/></mask></defs><path d="M16 4.656l-1.722-1.721L16 1.214 14.789.001l-1.723 1.721L11.344.001l-1.212 1.212 1.722 1.721-1.724 1.722 1.215 1.214 1.722-1.723 1.722 1.723z" fill="#cb1800"/><g mask="url(#a)"><path d="M10.561 10.525l-1.329-.154-1.106.752-1.104-.752-.046.005 1.373 4.955 1.665-1.83 2.382.709-1.3-4.691z"/><path d="M12.169 5.086l.283-1.182-.996-.698-.298-1.178-1.207-.155L9.14.969 8 1.392 6.86.969l-.811.904-1.206.155-.3 1.178-.995.698.283 1.182-.558 1.081.8.915.008 1.215 1.134.44.572 1.073 1.209-.139 1.003.684 1.006-.686 1.208.139.571-1.072 1.134-.44.008-1.215.8-.915-.557-1.08zm-4.17 4.475a3.898 3.898 0 1 1 0-7.796 3.897 3.897 0 1 1 0 7.796z"/><circle cx="8.03" cy="5.662" r="3.143"/><path d="M5.486 10.511L4.857 9.33l-.035-.014-1.092 4.961 2.529-.908 1.338 1.317-1.186-4.282z"/></g></svg>