<svg width="16" height="16" xmlns="http://www.w3.org/2000/svg" viewBox="0 0 16 16" shape-rendering="geometricPrecision"><defs><mask id="a"><rect fill="#fff" width="100%" height="100%"/><path d="M17.414 1.215L14.79-1.414 13.066.308l-1.722-1.722-2.627 2.627 1.722 1.721-1.724 1.722 2.63 2.628 1.722-1.722 1.722 1.723 2.625-2.63-1.721-1.72z"/></mask></defs><path d="M16 4.656l-1.722-1.721L16 1.214 14.789.001l-1.723 1.721L11.344.001l-1.212 1.212 1.722 1.721-1.724 1.722 1.215 1.214 1.722-1.723 1.722 1.723z" fill="#cb1800"/><g mask="url(#a)"><path d="M14.479 9.852V8.649h-2.566V1.632H6.599L3.896 4.124v4.525H1.569v1.202H.966v4.518h14.069V9.852h-.556zM6.645 2.73v1.403H5.121L6.645 2.73zM4.635 5h2.88V2.321h3.604v8.377H4.635V5zm8.237 6.546a.711.711 0 1 1 0-1.422.711.711 0 0 1 0 1.422z"/><path d="M5.624 5.738h4.57v.866h-4.57zm0 1.625h4.57v.866h-4.57z"/></g></svg>