<svg width="16" height="16" xmlns="http://www.w3.org/2000/svg" viewBox="0 0 16 16" shape-rendering="geometricPrecision" fill="#cb1800"><defs><mask id="a"><rect fill="#fff" width="100%" height="100%"/><path fill="#000" d="M12.892-.396l-4.507 4.51 2.471 2.471 2.038-2.036 2.037 2.035 2.473-2.47z"/></mask></defs><path d="M12.894 3.136l2.037 2.035 1.058-1.057-3.097-3.096-3.093 3.096 1.057 1.057z"/><g mask="url(#a)"><path d="M10.021 15.177l3.437-3.165h-3.437z"/><path d="M2.02 0v16h7.021v-4.905h4.941V0H2.02zM13 9.97H8v5H3.083v-14H13v9z"/><path d="M6.999 2.97h1v1h-1zm1 1h1v1h-1z"/><path d="M6.999 4.97h1v1h-1zm1 1h1v1h-1zm-1 1h1v1h-1zm1 1h1v1h-1zm-1 1h1v1h-1zm0 2h1v1h-1zm0 2h1v1h-1zM6.975 0h2.024v1.97H6.975z"/><path d="M7.583 4.414l.634-1.663a.873.873 0 0 0-.365-1.056.87.87 0 0 0-1.104.177h-.001L5.579 3.215l.001.001a1.188 1.188 0 0 0 .286 1.795 1.187 1.187 0 0 0 1.717-.597zm-.426-1.559a.482.482 0 0 1 .493-.825.48.48 0 1 1-.493.825z"/><path d="M7.999 1.97h1v1h-1z"/></g></svg>