<svg width="16" height="16" xmlns="http://www.w3.org/2000/svg" viewBox="0 0 16 16" shape-rendering="geometricPrecision" fill="#cb1800"><defs><mask id="a"><rect fill="#fff" width="100%" height="100%"/><path fill="#000" d="M12.892-.396l-4.507 4.51 2.471 2.471 2.038-2.036 2.037 2.035 2.473-2.47z"/></mask></defs><path d="M12.894 3.136l2.037 2.035 1.058-1.057-3.097-3.096-3.093 3.096 1.057 1.057z"/><g mask="url(#a)"><path d="M13.125 5.495v8h-12v-8h12m1-1h-14v10h14v-10z"/><path d="M7.175 2.995l-.299-1.49h-4l-.3 1.49H1.375v1h13.5v9.5l1-1v-9.5zm-1.601 9.579l.574-.49-.646-.258z"/><path d="M5.422 11.117L6.793 7.7l1.268.508-1.37 3.417zm2.6-4.651a.684.684 0 0 0-.887.376l-.204.508 1.269.509.204-.509h-.001a.681.681 0 0 0-.381-.884z"/></g></svg>