<svg width="16" height="16" xmlns="http://www.w3.org/2000/svg" viewBox="0 0 16 16" shape-rendering="geometricPrecision" fill="#cb1800"><defs><mask id="a"><rect fill="#fff" width="100%" height="100%"/><path fill="#000" d="M12.892-.396l-4.507 4.51 2.471 2.471 2.038-2.036 2.037 2.035 2.473-2.47z"/></mask></defs><path d="M12.894 3.136l2.037 2.035 1.058-1.057-3.097-3.096-3.093 3.096 1.057 1.057z"/><g mask="url(#a)"><path d="M14.818 5.818c-.4-2.076-3.738-2.209-5.541-2.209H6.705c-1.801 0-5.08.295-5.514 2.183l-.111.735-.021.54h1.848c.766-.584 2.014-1.203 2.903-1.527.436-.426 1.138-.576 1.696-.576H8.53c.578 0 1.321.088 1.753.581.877.326 2.1.943 2.853 1.523h1.799l.006-.517-.123-.733z"/><path d="M14.082 10.512c0-.623-.497-2.442-.497-2.442-.235-.777-3.503-2.342-4.193-2.342H6.7c-.689 0-4.017 1.565-4.252 2.342 0 0-.497 1.819-.497 2.442 0 .488-.004 1.445-.004 1.445h12.138s-.003-.957-.003-1.445zM8 10.935a2.102 2.102 0 1 1 0-4.204 2.102 2.102 0 0 1 0 4.204z"/></g></svg>