<?xml version="1.0"?><!DOCTYPE svg PUBLIC "-//W3C//DTD SVG 1.1//EN" "http://www.w3.org/Graphics/SVG/1.1/DTD/svg11.dtd"><svg width="16px" height="16px" xmlns="http://www.w3.org/2000/svg" viewBox="0 0 16 16" shape-rendering="geometricPrecision" fill="#cb1800"><defs><mask id="move_up-path"><rect fill="#fff" width="100%" height="100%"/><polygon points="12.892,-0.396 8.385,4.114 10.856,6.585 12.894,4.549 14.931,6.584 17.404,4.114 " fill="#000"/></mask></defs><polygon points="12.894,3.136 14.931,5.171 15.989,4.114 12.892,1.018 9.799,4.114 10.856,5.171 " fill="#cb1800"/><g mask="url(#move_up-path)"><g><path d="M8.001,1.062c-3.833,0-6.939,3.107-6.939,6.941c0,3.829,3.106,6.934,6.939,6.936c3.832-0.002,6.936-3.106,6.937-6.936 C14.938,4.169,11.833,1.062,8.001,1.062z M8.001,13.534c-3.057-0.006-5.529-2.478-5.536-5.531 c0.007-3.059,2.479-5.531,5.536-5.537c3.056,0.006,5.528,2.478,5.534,5.537C13.529,11.057,11.057,13.528,8.001,13.534z"/></g><path d="M8.001,12.673c-2.581-0.005-4.668-2.092-4.674-4.67C3.333,5.42,5.42,3.332,8.001,3.327 c2.58,0.005,4.667,2.093,4.672,4.675C12.668,10.581,10.581,12.668,8.001,12.673z"/></g></svg>