<svg width="16" height="16" xmlns="http://www.w3.org/2000/svg" viewBox="0 0 16 16" shape-rendering="geometricPrecision" fill="#fff"><defs><mask id="a"><rect width="100%" height="100%"/><path fill="#000" d="M14.934-.397l-2.039 2.036-2.037-2.036-2.472 2.47 4.511 4.51 4.507-4.51z"/></mask></defs><path fill="#cb1800" d="M12.895 3.052l-2.037-2.035L9.8 2.073l3.097 3.096 3.093-3.096-1.057-1.056z"/><path d="M14.085 1.939a6.336 6.336 0 0 1 .002 8.965 6.337 6.337 0 0 1-7.916.847h-.009v2.125l-.013.014H4.022v2.123H.013v-4.014h.01l-.003-.005 3.574-3.573A6.33 6.33 0 0 1 5.122 1.94a6.335 6.335 0 0 1 8.963-.001zm-3.928 3.928z" mask="url(#a)"/></svg>