<?xml version="1.0"?><!DOCTYPE svg PUBLIC "-//W3C//DTD SVG 1.1//EN" "http://www.w3.org/Graphics/SVG/1.1/DTD/svg11.dtd"><svg width="16px" height="16px" xmlns="http://www.w3.org/2000/svg" viewBox="0 0 16 16" shape-rendering="geometricPrecision" fill="#fff"><defs><mask id="move_down-path"><rect fill="#fff" width="100%" height="100%"/><polygon points="14.934,-0.397 12.895,1.639 10.858,-0.397 8.386,2.073 12.897,6.583 17.404,2.073 " fill="#000"/></mask></defs><polygon points="12.895,3.052 10.858,1.017 9.8,2.073 12.897,5.169 15.99,2.073 14.933,1.017 " fill="#cb1800"/><g mask="url(#move_down-path)"><path d="M10.479,0C7.43,0,4.958,2.472,4.958,5.521c0,0.739,0.152,1.44,0.416,2.084L0,12.979V16h3.021v-2.042h1.958V12h2.042V9.821 c0.947,0.762,2.148,1.221,3.458,1.221C13.528,11.042,16,8.57,16,5.521S13.528,0,10.479,0z M11.773,6.812 c-1.428,0-2.586-1.158-2.586-2.586c0-1.428,1.158-2.586,2.586-2.586s2.586,1.158,2.586,2.586 C14.359,5.655,13.202,6.812,11.773,6.812z"/></g></svg>