<svg width="16" height="16" xmlns="http://www.w3.org/2000/svg" viewBox="0 0 16 16" shape-rendering="geometricPrecision" fill="#fff"><defs><mask id="a"><rect width="100%" height="100%"/><path fill="#000" d="M14.934-.397l-2.039 2.036-2.037-2.036-2.472 2.47 4.511 4.51 4.507-4.51z"/></mask></defs><path fill="#cb1800" d="M12.895 3.052l-2.037-2.035L9.8 2.073l3.097 3.096 3.093-3.096-1.057-1.056z"/><path d="M6.136 14.063l7.86-6.878-3.255-1.741-4.605 8.619zM0 4.568l4.147 11.214.838-1.57-1.421-3.844 4.331-1.602 2.457-4.6 4.406 2.352.003-.003L12.35-.002 0 4.568zm7.985 2.478l-4.97 1.838-.397-1.074 4.97-1.839.397 1.075zm4.073-4.002L2.204 6.688l-.398-1.074 9.854-3.646.398 1.076z" mask="url(#a)"/></svg>