<svg width="16" height="16" xmlns="http://www.w3.org/2000/svg" viewBox="0 0 16 16" shape-rendering="geometricPrecision" fill="#fff"><defs><mask id="a"><rect width="100%" height="100%"/><path fill="#000" d="M14.934-.397l-2.039 2.036-2.037-2.036-2.472 2.47 4.511 4.51 4.507-4.51z"/></mask></defs><path fill="#cb1800" d="M12.895 3.052l-2.037-2.035L9.8 2.073l3.097 3.096 3.093-3.096-1.057-1.056z"/><g mask="url(#a)"><path d="M13.826 1.99l-5.027.006L1 9.794l5.038 5.038 7.799-7.799-.011-5.043zm-2.484 4a1.5 1.5 0 1 1 .001-3.001 1.5 1.5 0 0 1-.001 3.001z"/><path d="M2.342 9.668L7.94 4.07l3.823 3.822-5.598 5.599z"/><path d="M3.873 9.85l4.263-4.263.719.718L4.59 10.57zm1.353 1.354L9.489 6.94l.718.719-4.263 4.263z"/></g></svg>