<svg width="16" height="16" xmlns="http://www.w3.org/2000/svg" viewBox="0 0 16 16" shape-rendering="geometricPrecision" fill="#cb1800"><defs><mask id="a"><rect fill="#fff" width="100%" height="100%"/><path fill="#000" d="M14.5 1.716L13-.371l-1.501 2.087-1.982-2.76-.836.011 1.888 6.811h4.86l1.884-6.792-.841-.013z"/></mask></defs><path fill="#FCC70A" d="M14.858 5.028H11.14L9.999.914l.749 1.043.751 1.045.75-1.045L13 .914l.75 1.043.749 1.045.751-1.045L16 .914z"/><g mask="url(#a)"><path d="M7.999 1a7 7 0 1 0 .003 14 7 7 0 0 0-.003-14zm0 12.584a5.59 5.59 0 0 1-5.583-5.581 5.593 5.593 0 0 1 5.583-5.587 5.594 5.594 0 0 1 5.585 5.587 5.593 5.593 0 0 1-5.585 5.581zm3.423-3.53L9.366 7.999l2.057-2.057-1.448-1.45L7.917 6.55 5.86 4.493 4.412 5.941l2.057 2.056-2.059 2.058 1.451 1.45 2.058-2.058 2.056 2.057 1.447-1.45z"/></g></svg>