<?xml version="1.0"?><!DOCTYPE svg PUBLIC "-//W3C//DTD SVG 1.1//EN" "http://www.w3.org/Graphics/SVG/1.1/DTD/svg11.dtd"><svg width="16px" height="16px" xmlns="http://www.w3.org/2000/svg" viewBox="0 0 16 16" shape-rendering="geometricPrecision" fill="#cb1800"><defs><mask id="crown-path"><rect fill="#fff" width="100%" height="100%"/><polygon points="14.5,1.716 13,-0.371 11.499,1.716 9.517,-1.044 8.681,-1.033 10.569,5.778 15.429,5.778 17.313,-1.014 16.472,-1.027 " fill="#000"/></mask></defs><g id="crown" display="inline" fill="#cb1800"><polygon fill="#FCC70A" points="14.858,5.028 11.14,5.028 9.999,0.914 10.748,1.957 11.499,3.002 12.249,1.957 13,0.914 13.75,1.957 14.499,3.002 15.25,1.957 16,0.914 "/></g><g mask="url(#crown-path)"><g><path d="M7.054,6.495c-1.657,0-3.001,1.344-3.001,3.002c0,1.656,1.343,2.998,3.001,2.999c1.657-0.001,2.999-1.343,3-2.999 C10.054,7.839,8.711,6.495,7.054,6.495z M7.054,11.889c-1.322-0.003-2.391-1.071-2.394-2.392 c0.003-1.323,1.072-2.392,2.394-2.394c1.321,0.003,2.39,1.072,2.393,2.394C9.444,10.817,8.375,11.886,7.054,11.889z"/><polygon points="6.611,7.475 6.611,9.336 5.459,10.007 5.915,10.805 7.523,9.872 7.532,9.872 7.531,7.475"/></g><path d="M13.125,5.495v8h-12v-8H13.125 M14.125,4.495h-14v10h14V4.495L14.125,4.495z"/><polygon points="7.175,2.995 6.876,1.505 2.876,1.505 2.576,2.995 1.375,2.995 1.375,3.995 2.375,3.995 7.375,3.995 14.875,3.995 14.875,13.495 15.875,12.495 15.875,2.995"/></g></svg>