<?xml version="1.0"?><!DOCTYPE svg PUBLIC "-//W3C//DTD SVG 1.1//EN" "http://www.w3.org/Graphics/SVG/1.1/DTD/svg11.dtd"><svg width="16px" height="16px" xmlns="http://www.w3.org/2000/svg" viewBox="0 0 16 16" shape-rendering="geometricPrecision" fill="#cb1800"><defs><mask id="crown-path"><rect fill="#fff" width="100%" height="100%"/><polygon points="14.5,1.716 13,-0.371 11.499,1.716 9.517,-1.044 8.681,-1.033 10.569,5.778 15.429,5.778 17.313,-1.014 16.472,-1.027 " fill="#000"/></mask></defs><g id="crown" display="inline" fill="#cb1800"><polygon fill="#FCC70A" points="14.858,5.028 11.14,5.028 9.999,0.914 10.748,1.957 11.499,3.002 12.249,1.957 13,0.914 13.75,1.957 14.499,3.002 15.25,1.957 16,0.914 "/></g><path mask="url(#crown-path)" d="M7.999,0.97c-3.882,0-7.029,3.147-7.029,7.033 c0.001,3.881,3.147,7.025,7.029,7.027c3.883-0.002,7.031-3.146,7.031-7.027C15.03,4.116,11.882,0.97,7.999,0.97z M8.5,6.156 c0.493-0.019,1-0.064,1.496-0.124c0.042,0.456,0.069,0.946,0.082,1.468H8.5V6.156z M8.5,5.155V2.418 C8.799,2.445,9.089,2.498,9.372,2.57C9.506,3.018,9.72,3.872,9.884,5.038C9.422,5.094,8.953,5.136,8.5,5.155z M7.5,5.154 c-0.443-0.02-0.908-0.063-1.371-0.12c0.163-1.18,0.379-2.028,0.514-2.468C6.922,2.496,7.207,2.444,7.5,2.418V5.154z M7.5,6.155V7.5 H5.938c0.013-0.525,0.039-1.017,0.08-1.472C6.516,6.089,7.019,6.135,7.5,6.155z M4.938,7.5h-2.52 c0.064-0.713,0.264-1.386,0.569-1.997c0.505,0.11,1.231,0.256,2.038,0.385C4.981,6.385,4.951,6.923,4.938,7.5z M4.936,8.5 c0.012,0.611,0.043,1.181,0.092,1.707c-0.791,0.125-1.497,0.268-1.998,0.379C2.699,9.952,2.485,9.248,2.418,8.5H4.936z M5.936,8.5 H7.5v1.447c-0.487,0.019-0.989,0.063-1.48,0.121C5.976,9.584,5.947,9.06,5.936,8.5z M7.5,10.949v2.633 c-0.303-0.027-0.598-0.082-0.886-0.155c-0.135-0.47-0.33-1.286-0.481-2.363C6.59,11.009,7.053,10.968,7.5,10.949z M8.5,10.95 c0.448,0.02,0.919,0.064,1.387,0.122c-0.149,1.08-0.343,1.884-0.479,2.348c-0.295,0.077-0.597,0.134-0.908,0.162V10.95z M8.5,9.949 V8.5h1.581c-0.011,0.566-0.04,1.092-0.083,1.578C9.496,10.016,8.987,9.969,8.5,9.949z M11.082,8.5h2.5 c-0.067,0.749-0.282,1.455-0.614,2.09c-0.499-0.108-1.199-0.248-1.976-0.372C11.039,9.691,11.071,9.119,11.082,8.5z M11.079,7.5 c-0.014-0.573-0.044-1.11-0.09-1.606c0.808-0.128,1.525-0.275,2.025-0.386c0.304,0.61,0.503,1.281,0.568,1.993H11.079z M12.451,4.605c-0.438,0.092-0.982,0.198-1.577,0.293c-0.107-0.766-0.234-1.409-0.353-1.899 C11.281,3.384,11.939,3.934,12.451,4.605z M5.49,2.993C5.37,3.48,5.244,4.12,5.138,4.892C4.543,4.796,3.995,4.691,3.552,4.6 C4.067,3.928,4.728,3.377,5.49,2.993z M3.615,11.485c0.43-0.09,0.957-0.191,1.528-0.282c0.1,0.716,0.216,1.319,0.329,1.795 C4.748,12.631,4.115,12.114,3.615,11.485z M10.557,12.984c0.112-0.469,0.225-1.061,0.323-1.769c0.557,0.09,1.075,0.188,1.501,0.275 C11.887,12.109,11.266,12.619,10.557,12.984z"/></svg>