<?xml version="1.0"?><!DOCTYPE svg PUBLIC "-//W3C//DTD SVG 1.1//EN" "http://www.w3.org/Graphics/SVG/1.1/DTD/svg11.dtd"><svg width="16px" height="16px" xmlns="http://www.w3.org/2000/svg" viewBox="0 0 16 16" shape-rendering="geometricPrecision" fill="#cb1800"><defs><mask id="crown-path"><rect fill="#fff" width="100%" height="100%"/><polygon points="14.5,1.716 13,-0.371 11.499,1.716 9.517,-1.044 8.681,-1.033 10.569,5.778 15.429,5.778 17.313,-1.014 16.472,-1.027 " fill="#000"/></mask></defs><g id="crown" display="inline" fill="#cb1800"><polygon fill="#FCC70A" points="14.858,5.028 11.14,5.028 9.999,0.914 10.748,1.957 11.499,3.002 12.249,1.957 13,0.914 13.75,1.957 14.499,3.002 15.25,1.957 16,0.914 "/></g><g mask="url(#crown-path)"><g><polygon points="3.01,2.578 4.589,1 7.628,4.038 10.668,1 12.246,2.578 7.625,7.197"/></g><g><path d="M2.02,9.705V16h11.148V9.684l-5.589,4.497L2.02,9.705z M2.02,8.098v0.016l5.559,4.499l5.589-4.494V8.098H2.02z"/></g></g></svg>