<svg width="16" height="16" xmlns="http://www.w3.org/2000/svg" viewBox="0 0 16 16" shape-rendering="geometricPrecision" fill="#cb1800"><defs><mask id="a"><rect fill="#fff" width="100%" height="100%"/><path fill="#000" d="M14.5 1.716L13-.371l-1.501 2.087-1.982-2.76-.836.011 1.888 6.811h4.86l1.884-6.792-.841-.013z"/></mask></defs><path fill="#FCC70A" d="M14.858 5.028H11.14L9.999.914l.749 1.043.751 1.045.75-1.045L13 .914l.75 1.043.749 1.045.751-1.045L16 .914z"/><g mask="url(#a)"><path d="M3.359 0v1.056h10.329v12.842h1.072V0H3.359zM1.24 16h11.401V2.102H1.24V16zM6.956 3.726a2.65 2.65 0 0 1 2.651 2.651A2.648 2.648 0 0 1 6.956 9.03a2.651 2.651 0 1 1 0-5.304zm-4.509 8.458a2.296 2.296 0 0 1 2.288-2.295H9.17a2.302 2.302 0 0 1 2.296 2.295v2.98H2.447v-2.98z"/></g></svg>