<?xml version="1.0"?><!DOCTYPE svg PUBLIC "-//W3C//DTD SVG 1.1//EN" "http://www.w3.org/Graphics/SVG/1.1/DTD/svg11.dtd"><svg width="16px" height="16px" xmlns="http://www.w3.org/2000/svg" viewBox="0 0 16 16" shape-rendering="geometricPrecision" fill="#cb1800"><defs><mask id="crown-path"><rect fill="#fff" width="100%" height="100%"/><polygon points="14.5,1.716 13,-0.371 11.499,1.716 9.517,-1.044 8.681,-1.033 10.569,5.778 15.429,5.778 17.313,-1.014 16.472,-1.027 " fill="#000"/></mask></defs><g id="crown" display="inline" fill="#cb1800"><polygon fill="#FCC70A" points="14.858,5.028 11.14,5.028 9.999,0.914 10.748,1.957 11.499,3.002 12.249,1.957 13,0.914 13.75,1.957 14.499,3.002 15.25,1.957 16,0.914 "/></g><g mask="url(#crown-path)"><g><path d="M14.017,5.94c0-3.278-2.658-5.938-5.939-5.938c-3.277,0-5.936,2.659-5.936,5.938c0,1.172,0.345,2.262,0.932,3.184 L3.068,9.12l0.041,0.06C3.155,9.251,3.205,9.32,3.254,9.389L8.114,16l4.833-6.665c0.031-0.046,0.063-0.091,0.093-0.136 l0.025-0.036L13.06,9.164C13.663,8.235,14.017,7.129,14.017,5.94z M8.079,10.507c-2.52,0-4.565-2.046-4.565-4.566 c0-2.523,2.045-4.566,4.565-4.566c2.523,0,4.567,2.044,4.567,4.566C12.646,8.461,10.602,10.507,8.079,10.507z"/></g><circle cx="8.079" cy="5.914" r="2.242"/></g></svg>