<?xml version="1.0"?><!DOCTYPE svg PUBLIC "-//W3C//DTD SVG 1.1//EN" "http://www.w3.org/Graphics/SVG/1.1/DTD/svg11.dtd"><svg width="16px" height="16px" xmlns="http://www.w3.org/2000/svg" viewBox="0 0 16 16" shape-rendering="geometricPrecision" fill="#cb1800"><defs><mask id="crown-path"><rect fill="#fff" width="100%" height="100%"/><polygon points="14.5,1.716 13,-0.371 11.499,1.716 9.517,-1.044 8.681,-1.033 10.569,5.778 15.429,5.778 17.313,-1.014 16.472,-1.027 " fill="#000"/></mask></defs><g id="crown" display="inline" fill="#cb1800"><polygon fill="#FCC70A" points="14.858,5.028 11.14,5.028 9.999,0.914 10.748,1.957 11.499,3.002 12.249,1.957 13,0.914 13.75,1.957 14.499,3.002 15.25,1.957 16,0.914 "/></g><g mask="url(#crown-path)"><path d="M7.468,11.335c-1.04,0-1.782,0.742-1.782,1.824c0,1.041,0.722,1.822,1.763,1.822h0.02 c1.083,0,1.805-0.781,1.805-1.822C9.253,12.077,8.551,11.335,7.468,11.335z M7.749,1.018c-1.422,0-2.604,0.4-3.345,0.822 l0.681,2.182c0.52-0.359,1.322-0.6,1.983-0.6c1.002,0.041,1.463,0.5,1.463,1.203c0,0.68-0.521,1.32-1.162,2.102 C6.468,7.79,6.127,8.833,6.188,9.853l0.02,0.521h2.664v-0.361c-0.02-0.9,0.281-1.682,1.021-2.504 c0.762-0.84,1.702-1.842,1.702-3.365C11.595,2.481,10.395,1.018,7.749,1.018z"/></g></svg>