<?xml version="1.0"?><!DOCTYPE svg PUBLIC "-//W3C//DTD SVG 1.1//EN" "http://www.w3.org/Graphics/SVG/1.1/DTD/svg11.dtd"><svg width="16px" height="16px" xmlns="http://www.w3.org/2000/svg" viewBox="0 0 16 16" shape-rendering="geometricPrecision" fill="#cb1800"><defs><mask id="crown-path"><rect fill="#fff" width="100%" height="100%"/><polygon points="14.5,1.716 13,-0.371 11.499,1.716 9.517,-1.044 8.681,-1.033 10.569,5.778 15.429,5.778 17.313,-1.014 16.472,-1.027 " fill="#000"/></mask></defs><g id="crown" display="inline" fill="#cb1800"><polygon fill="#FCC70A" points="14.858,5.028 11.14,5.028 9.999,0.914 10.748,1.957 11.499,3.002 12.249,1.957 13,0.914 13.75,1.957 14.499,3.002 15.25,1.957 16,0.914 "/></g><g mask="url(#crown-path)"><path d="M11.231,3.39c0.003-0.045,0.008-0.09,0.008-0.137c0-1.789-1.45-3.241-3.24-3.241 c-1.391,0-2.571,0.875-3.031,2.104l1.31,0.401c0.287-0.668,0.951-1.136,1.723-1.136c1.033,0,1.871,0.839,1.871,1.872 c0,0.527-0.221,1.002-0.57,1.342C8.718,5.216,8.274,5.216,7.128,5.831C5.3,6.813,4.855,8.341,4.758,9.243v6.745h6.483V3.388 h-0.011V3.39z M10.419,14.005l-1.02,1.023l-1.452-1.453l-1.452,1.454l-1.023-1.024l1.453-1.453l-1.452-1.451l1.022-1.022 l1.451,1.452l1.453-1.452l1.02,1.022l-1.452,1.451L10.419,14.005z"/></g></svg>