<?xml version="1.0"?><!DOCTYPE svg PUBLIC "-//W3C//DTD SVG 1.1//EN" "http://www.w3.org/Graphics/SVG/1.1/DTD/svg11.dtd"><svg width="16px" height="16px" xmlns="http://www.w3.org/2000/svg" viewBox="0 0 16 16" shape-rendering="geometricPrecision" fill="#cb1800"><defs><mask id="crown-path"><rect fill="#fff" width="100%" height="100%"/><polygon points="14.5,1.716 13,-0.371 11.499,1.716 9.517,-1.044 8.681,-1.033 10.569,5.778 15.429,5.778 17.313,-1.014 16.472,-1.027 " fill="#000"/></mask></defs><g id="crown" display="inline" fill="#cb1800"><polygon fill="#FCC70A" points="14.858,5.028 11.14,5.028 9.999,0.914 10.748,1.957 11.499,3.002 12.249,1.957 13,0.914 13.75,1.957 14.499,3.002 15.25,1.957 16,0.914 "/></g><g mask="url(#crown-path)"><g><g><rect x="1" y="11.479" width="13.987" height="1.042"/></g><g><rect x="1" y="7.465" width="13.987" height="1.062"/></g><g><rect x="1" y="3.45" width="13.987" height="1.021"/></g><path d="M7.466,10.505h2.027c0.267,0,0.483,0.216,0.483,0.483v2.027c0,0.267-0.216,0.483-0.483,0.483H7.466 c-0.267,0-0.483-0.216-0.483-0.483v-2.027C6.983,10.721,7.2,10.505,7.466,10.505z"/><path d="M10.474,6.501h2.032c0.267,0,0.483,0.216,0.483,0.483v2.032c0,0.267-0.216,0.483-0.483,0.483h-2.032 c-0.267,0-0.483-0.216-0.483-0.483V6.984C9.991,6.717,10.208,6.501,10.474,6.501z"/><path d="M3.477,2.502h2.019c0.267,0,0.483,0.216,0.483,0.483v2.019c0,0.267-0.216,0.483-0.483,0.483H3.477 c-0.267,0-0.483-0.216-0.483-0.483V2.985C2.994,2.718,3.21,2.502,3.477,2.502z"/></g></g></svg>