<svg xmlns="http://www.w3.org/2000/svg" viewBox="0 0 16 16"><defs><style>.cls-1{fill:#6e6e6e;}</style></defs><title>60a-grey</title><g id="_60a"><path class="cls-1" d="M3.09 8.09c0-1.57.82-2.28 1.7-2.28a1.69 1.69 0 0 1 1.21.51l-.5.58a.93.93 0 0 0-.65-.3c-.48 0-.85.4-.85 1.49s.33 1.35.68 1.35.53-.2.53-.68-.21-.61-.57-.61a.76.76 0 0 0-.64.46l-.06-.61a1.18 1.18 0 0 1 .89-.5 1.16 1.16 0 0 1 1.25 1.26 1.35 1.35 0 0 1-1.4 1.41c-.81 0-1.59-.61-1.59-2.08zM6.56 8c0-1.43.6-2.16 1.5-2.16s1.51.71 1.51 2.16-.6 2.2-1.51 2.2-1.5-.8-1.5-2.2zm2.09 0c0-1.14-.26-1.4-.59-1.4s-.58.26-.58 1.4.26 1.45.58 1.45.59-.33.59-1.45zM10.09 9.18c0-.69.55-1.06 1.85-1.2a.46.46 0 0 0-.52-.47 1.79 1.79 0 0 0-.87.29l-.35-.64a2.74 2.74 0 0 1 1.4-.43c.84 0 1.31.48 1.31 1.49v1.87h-.8l-.11-.33a1.46 1.46 0 0 1-.95.41.94.94 0 0 1-.96-.99zm1.85 0v-.61c-.7.09-.92.29-.92.54s.14.31.37.31a.76.76 0 0 0 .55-.28zM8 1a7 7 0 1 0 7 7 7 7 0 0 0-7-7zm0 12.61a5.61 5.61 0 1 1 5.61-5.61 5.62 5.62 0 0 1-5.61 5.61z"/></g></svg>