<svg width="16" height="16" xmlns="http://www.w3.org/2000/svg" viewBox="0 0 16 16" shape-rendering="geometricPrecision" fill="#6e6e6e"><path d="M13.125 5.495v8h-12v-8h12m1-1h-14v10h14v-10z"/><path d="M7.175 2.995l-.299-1.49h-4l-.3 1.49H1.375v1h13.5v9.5l1-1v-9.5z"/><circle cx="4.769" cy="8.307" r=".858"/><path d="M5.159 9.573h-.783a.828.828 0 0 0-.825.828v1.074h2.436V10.4a.83.83 0 0 0-.828-.827z"/><circle cx="9.041" cy="9.324" r=".858"/><path d="M9.431 10.589h-.784a.827.827 0 0 0-.824.827v1.075h2.436v-1.075a.83.83 0 0 0-.828-.827z"/><circle cx="6.668" cy="7.358" r=".858"/><path d="M7.886 10.525V9.45a.83.83 0 0 0-.827-.827h-.785a.825.825 0 0 0-.821.794c.425.128.737.517.737.983v.125h1.696z"/></svg>