<?xml version="1.0"?><!DOCTYPE svg PUBLIC "-//W3C//DTD SVG 1.1//EN" "http://www.w3.org/Graphics/SVG/1.1/DTD/svg11.dtd"><svg width="16px" height="16px" xmlns="http://www.w3.org/2000/svg" viewBox="0 0 16 16" shape-rendering="geometricPrecision" fill="#6e6e6e"><defs><mask id="move_left-path"><rect fill="#fff" width="100%" height="100%"/><polygon points="16.383,1.058 13.913,-1.415 9.403,3.097 13.914,7.603 16.383,5.134 14.348,3.095 " fill="#000"/></mask></defs><polygon points="12.935,3.095 14.97,1.058 13.913,0 10.817,3.097 13.913,6.189 14.97,5.133 " fill="#cb1800"/><g mask="url(#move_left-path)"><path d="M7.394,4.755L6.578,2.832H2.798L1.982,4.755H0.861V14h14.278V4.755H7.394z M14.042,12.929H1.916v-7 h12.125V12.929z"/><g><polygon points="6.66,12.054 7.14,11.645 6.601,11.43"/><rect x="6.099" y="9.055" transform="matrix(0.3723 -0.9281 0.9281 0.3723 -4.1413 13.1265)" width="3.071" height="1.139"/><path d="M8.702,6.959c-0.291-0.117-0.62,0.024-0.74,0.314l-0.17,0.423l1.058,0.425l0.171-0.425H9.021 C9.135,7.405,8.993,7.074,8.702,6.959z"/></g></g></svg>