<?xml version="1.0"?><!DOCTYPE svg PUBLIC "-//W3C//DTD SVG 1.1//EN" "http://www.w3.org/Graphics/SVG/1.1/DTD/svg11.dtd"><svg width="16px" height="16px" xmlns="http://www.w3.org/2000/svg" viewBox="0 0 16 16" shape-rendering="geometricPrecision" fill="#6e6e6e"><defs><mask id="move_left-path"><rect fill="#fff" width="100%" height="100%"/><polygon points="16.383,1.058 13.913,-1.415 9.403,3.097 13.914,7.603 16.383,5.134 14.348,3.095 " fill="#000"/></mask></defs><polygon points="12.935,3.095 14.97,1.058 13.913,0 10.817,3.097 13.913,6.189 14.97,5.133 " fill="#cb1800"/><g mask="url(#move_left-path)"><g><path d="M1.062,7.999c0,3.833,3.107,6.939,6.941,6.939c3.829,0,6.934-3.106,6.936-6.939c-0.002-3.832-3.106-6.936-6.936-6.937 C4.169,1.062,1.062,4.168,1.062,7.999z M13.534,7.999c-0.006,3.057-2.478,5.529-5.531,5.536 c-3.059-0.007-5.531-2.479-5.537-5.536c0.006-3.056,2.478-5.528,5.537-5.534C11.057,2.471,13.528,4.943,13.534,7.999z"/></g><path d="M8,7.999H3.327c0.005,2.581,2.093,4.668,4.675,4.674c2.578-0.006,4.665-2.093,4.67-4.674 c-0.005-2.58-2.092-4.668-4.67-4.672c0,0-0.002,0-0.003,0V7.999z"/></g></svg>