<svg width="16" height="16" xmlns="http://www.w3.org/2000/svg" viewBox="0 0 16 16" shape-rendering="geometricPrecision" fill="#6e6e6e"><defs><mask id="a"><rect fill="#fff" width="100%" height="100%"/><path fill="#000" d="M16.383 1.058l-2.47-2.473-4.51 4.512 4.511 4.506 2.469-2.469-2.035-2.039z"/></mask></defs><path fill="#cb1800" d="M12.935 3.095l2.035-2.037L13.913 0l-3.096 3.097 3.096 3.092 1.057-1.056z"/><g mask="url(#a)"><path d="M8 3.181a9.045 9.045 0 0 0-8 4.82 9.05 9.05 0 1 0 16 0 9.049 9.049 0 0 0-8-4.82zm-.002 9.047a4.23 4.23 0 0 1-4.229-4.227 4.23 4.23 0 0 1 8.459 0 4.228 4.228 0 0 1-4.23 4.227z"/><path d="M11.792 6.774l-1.346-1.345-3.268 3.267-1.71-1.709-1.344 1.344 3.056 3.055z"/></g></svg>