<svg width="16" height="16" xmlns="http://www.w3.org/2000/svg" viewBox="0 0 16 16" shape-rendering="geometricPrecision" fill="#24437c"><defs><mask id="a"><rect fill="#fff" width="100%" height="100%"/><path fill="#000" d="M14.5 1.716L13-.371l-1.501 2.087-1.982-2.76-.836.011 1.888 6.811h4.86l1.884-6.792-.841-.013z"/></mask></defs><path fill="#FCC70A" d="M14.858 5.028H11.14L9.999.914l.749 1.043.751 1.045.75-1.045L13 .914l.75 1.043.749 1.045.751-1.045L16 .914z"/><g mask="url(#a)"><path d="M1.935 1.982V14h3.031V1.982H1.935zm1.516 10.046a.923.923 0 1 1 0-1.848.923.923 0 0 1 0 1.848zM5.993 1.982V14h3.029V1.982H5.993zm1.515 10.046a.922.922 0 1 1 0-1.845.92.92 0 0 1 .922.923.92.92 0 0 1-.922.922zm2.493-10.046V14h3.076V1.982h-3.076zm1.539 10.017a.937.937 0 1 1 0-1.875.937.937 0 1 1 0 1.875z"/></g></svg>