<svg width="16" height="16" xmlns="http://www.w3.org/2000/svg" viewBox="0 0 16 16" shape-rendering="geometricPrecision" fill="#24437c"><defs><mask id="a"><rect fill="#fff" width="100%" height="100%"/><path fill="#000" d="M14.5 1.716L13-.371l-1.501 2.087-1.982-2.76-.836.011 1.888 6.811h4.86l1.884-6.792-.841-.013z"/></mask></defs><path fill="#FCC70A" d="M14.858 5.028H11.14L9.999.914l.749 1.043.751 1.045.75-1.045L13 .914l.75 1.043.749 1.045.751-1.045L16 .914z"/><g mask="url(#a)"><path d="M12.933 2.584H3.067A2.125 2.125 0 0 0 .948 4.703v5.504c0 1.164.953 2.119 2.119 2.119h.987c.023.76-.201 1.758-1.224 2.674 2.905-.451 4.518-2.537 4.621-2.674h5.481a2.126 2.126 0 0 0 2.119-2.119V4.703a2.123 2.123 0 0 0-2.118-2.119zM4.495 8.746a1.288 1.288 0 1 1 0-2.577 1.288 1.288 0 0 1 0 2.577zm3.505 0a1.29 1.29 0 1 1 1.287-1.289A1.288 1.288 0 0 1 8 8.746zm3.505 0a1.288 1.288 0 1 1 0-2.577 1.288 1.288 0 0 1 0 2.577z"/></g></svg>