<svg width="16" height="16" xmlns="http://www.w3.org/2000/svg" viewBox="0 0 16 16" shape-rendering="geometricPrecision" fill="#24437c"><defs><mask id="a"><rect fill="#fff" width="100%" height="100%"/><path fill="#000" d="M14.5 1.716L13-.371l-1.501 2.087-1.982-2.76-.836.011 1.888 6.811h4.86l1.884-6.792-.841-.013z"/></mask></defs><path fill="#FCC70A" d="M14.858 5.028H11.14L9.999.914l.749 1.043.751 1.045.75-1.045L13 .914l.75 1.043.749 1.045.751-1.045L16 .914z"/><g mask="url(#a)"><path d="M11.17 3.472L9.519 5.124l3.176 3.178-3.176 3.179 1.651 1.65L16 8.305zM0 1.671l.001 12.497L6.4 15.999V2.435l-2.672-.764h4.061v13.03h1.066V.604H0v1.067zm1 .235l4.4 1.282v11.564L1 13.47V1.906z"/></g></svg>