<?xml version="1.0"?><!DOCTYPE svg PUBLIC "-//W3C//DTD SVG 1.1//EN" "http://www.w3.org/Graphics/SVG/1.1/DTD/svg11.dtd"><svg width="16px" height="16px" xmlns="http://www.w3.org/2000/svg" viewBox="0 0 16 16" shape-rendering="geometricPrecision" fill="#24437c"><defs><mask id="crown-path"><rect fill="#fff" width="100%" height="100%"/><polygon points="14.5,1.716 13,-0.371 11.499,1.716 9.517,-1.044 8.681,-1.033 10.569,5.778 15.429,5.778 17.313,-1.014 16.472,-1.027 " fill="#000"/></mask></defs><g id="crown" display="inline" fill="#cb1800"><polygon fill="#FCC70A" points="14.858,5.028 11.14,5.028 9.999,0.914 10.748,1.957 11.499,3.002 12.249,1.957 13,0.914 13.75,1.957 14.499,3.002 15.25,1.957 16,0.914 "/></g><g mask="url(#crown-path)"><g><polygon points="10.021,15.177 13.458,12.012 10.021,12.012"/><path d="M2.02,0v16h7.021v-4.905h4.941V0H2.02z M13,9.97h-5l0,5H3.083v-14H13V9.97z"/></g><rect x="6.999" y="2.97" width="1" height="1"/><rect x="7.999" y="3.97" width="1" height="1"/><rect x="6.999" y="4.97" width="1" height="1"/><rect x="7.999" y="5.97" width="1" height="1"/><rect x="6.999" y="6.97" width="1" height="1"/><rect x="7.999" y="7.97" width="1" height="1"/><rect x="6.999" y="8.97" width="1" height="1"/><rect x="6.999" y="10.97" width="1" height="1"/><rect x="6.999" y="12.97" width="1" height="1"/><rect x="6.975" width="2.024" height="1.97"/><path d="M7.583,4.414L7.583,4.414c0.366-0.959,0.366-0.959,0.634-1.663l0,0c0.146-0.386,0.002-0.835-0.365-1.056 c-0.368-0.22-0.833-0.136-1.104,0.177H6.747C6.254,2.439,6.254,2.439,5.579,3.215l0.001,0.001 C5.536,3.268,5.494,3.322,5.458,3.383c-0.336,0.563-0.154,1.29,0.408,1.628c0.562,0.337,1.291,0.152,1.627-0.408 C7.529,4.541,7.559,4.477,7.583,4.414z M7.157,2.855C6.929,2.718,6.856,2.423,6.992,2.195C7.129,1.968,7.423,1.895,7.65,2.03 c0.228,0.137,0.302,0.43,0.166,0.658C7.679,2.915,7.384,2.989,7.157,2.855z"/><rect x="7.999" y="1.97" width="1" height="1"/></g></svg>