<svg width="16" height="16" xmlns="http://www.w3.org/2000/svg" viewBox="0 0 16 16" shape-rendering="geometricPrecision" fill="#24437c"><defs><mask id="a"><rect fill="#fff" width="100%" height="100%"/><path fill="#000" d="M14.5 1.716L13-.371l-1.501 2.087-1.982-2.76-.836.011 1.888 6.811h4.86l1.884-6.792-.841-.013z"/></mask></defs><path fill="#FCC70A" d="M14.858 5.028H11.14L9.999.914l.749 1.043.751 1.045.75-1.045L13 .914l.75 1.043.749 1.045.751-1.045L16 .914z"/><path mask="url(#a)" d="M6.035 15.636V8.96a.645.645 0 0 0-.137-.396L0 1.072h16l-5.818 7.389c-.14.179-.218.402-.218.628v4.378l-3.929 2.169zM2.109 2.096L6.703 7.93c.23.292.357.658.357 1.03v4.942l1.881-1.038V9.089c0-.455.155-.903.438-1.261l4.512-5.732H2.109z"/></svg>