<svg width="16" height="16" xmlns="http://www.w3.org/2000/svg" viewBox="0 0 16 16" shape-rendering="geometricPrecision" fill="#24437c"><defs><mask id="a"><rect fill="#fff" width="100%" height="100%"/><path fill="#000" d="M14.5 1.716L13-.371l-1.501 2.087-1.982-2.76-.836.011 1.888 6.811h4.86l1.884-6.792-.841-.013z"/></mask></defs><path fill="#FCC70A" d="M14.858 5.028H11.14L9.999.914l.749 1.043.751 1.045.75-1.045L13 .914l.75 1.043.749 1.045.751-1.045L16 .914z"/><path d="M14.085 1.939a6.336 6.336 0 0 1 .002 8.965 6.337 6.337 0 0 1-7.916.847h-.009v2.125l-.013.014H4.022v2.123H.013v-4.014h.01l-.003-.005 3.574-3.573A6.33 6.33 0 0 1 5.122 1.94a6.335 6.335 0 0 1 8.963-.001zm-3.928 3.928z" mask="url(#a)"/></svg>