<svg width="16" height="16" xmlns="http://www.w3.org/2000/svg" viewBox="0 0 16 16" shape-rendering="geometricPrecision" fill="#24437c"><defs><mask id="a"><rect fill="#fff" width="100%" height="100%"/><path fill="#000" d="M14.5 1.716L13-.371l-1.501 2.087-1.982-2.76-.836.011 1.888 6.811h4.86l1.884-6.792-.841-.013z"/></mask></defs><path fill="#FCC70A" d="M14.858 5.028H11.14L9.999.914l.749 1.043.751 1.045.75-1.045L13 .914l.75 1.043.749 1.045.751-1.045L16 .914z"/><g mask="url(#a)"><path d="M15.002 12.385H.998v.829h.85l.649.805h11.082l.648-.805h.775zM7.325 8.637c-.804-.537-1.599-.875-2.117-.797l-1.041-.862a.449.449 0 0 0-.696-.567.442.442 0 0 0-.063.45.445.445 0 0 0-.432.149.448.448 0 0 0 .061.631c.183.152.449.13.609-.041l1.027.848c-.004.521.49 1.252 1.173 1.976.869.922 1.854 1.393 2.524.582.65-.785.029-1.656-1.045-2.369z"/><path d="M9.771 8.43c1.32 0 2.397.926 2.397 2.064 0 1.141-1.075 2.066-2.397 2.066-2.07 0-5.647-.486-6.205-1.09-.009-.027-.013-.084.042-.197.224-.478 1.062-1.121 2.175-1.375a4.207 4.207 0 0 1 1.09-.098l.552.027.331-.444c.444-.598 1.199-.953 2.015-.953m0-1.036c-1.187 0-2.23.545-2.847 1.371-.077-.001-.157-.005-.237-.005a5.13 5.13 0 0 0-1.134.131c-1.891.43-3.495 1.895-2.902 3.07.705 1.395 6.387 1.635 7.121 1.635 1.897 0 3.432-1.39 3.432-3.102-.001-1.713-1.537-3.1-3.433-3.1zm-1.522-.425l-.376-.358c.029-.029.732-.821-.033-2.097a2.33 2.33 0 0 1 .012-2.534l.419.301c-.025.037-.625.904.012 1.966.972 1.624.008 2.677-.034 2.722z"/><path d="M7.214 6.969l-.377-.358c.03-.029.733-.821-.033-2.095a2.335 2.335 0 0 1 .013-2.536l.42.301c-.027.037-.625.904.011 1.966.972 1.624.007 2.677-.034 2.722zm2.07 0l-.376-.358c.027-.029.73-.821-.033-2.098a2.33 2.33 0 0 1 .012-2.533l.418.301c-.026.037-.623.904.013 1.966.973 1.624.008 2.677-.034 2.722z"/></g></svg>