<svg width="16" height="16" xmlns="http://www.w3.org/2000/svg" viewBox="0 0 16 16" shape-rendering="geometricPrecision" fill="#24437c"><defs><mask id="a"><rect fill="#fff" width="100%" height="100%"/><path fill="#000" d="M14.5 1.716L13-.371l-1.501 2.087-1.982-2.76-.836.011 1.888 6.811h4.86l1.884-6.792-.841-.013z"/></mask></defs><path fill="#FCC70A" d="M14.858 5.028H11.14L9.999.914l.749 1.043.751 1.045.75-1.045L13 .914l.75 1.043.749 1.045.751-1.045L16 .914z"/><g mask="url(#a)"><ellipse cx="13.096" cy="4.259" rx="1.101" ry="1.091"/><path d="M13.367 6.868c-.318 0-.614.095-.862.255a2 2 0 0 0-1.983-1.741 2 2 0 0 0-2.009 1.993 2.004 2.004 0 1 0 3.327 1.491 1.586 1.586 0 0 0 1.527 1.159c.879 0 1.592-.707 1.592-1.578a1.586 1.586 0 0 0-1.592-1.579z"/><path d="M10.202 10.016a2.67 2.67 0 0 1-2.365-2.641c0-1.071.639-1.993 1.559-2.414L8.91 1.907l-5.074.795.284 1.785L1.2 5.611l3.28 8.381 4.789-1.844-.441-1.126 1.497-.235-.123-.771z"/></g></svg>