<svg width="16" height="16" xmlns="http://www.w3.org/2000/svg" viewBox="0 0 16 16" shape-rendering="geometricPrecision" fill="#24437c"><defs><mask id="a"><rect fill="#fff" width="100%" height="100%"/><path fill="#000" d="M14.5 1.716L13-.371l-1.501 2.087-1.982-2.76-.836.011 1.888 6.811h4.86l1.884-6.792-.841-.013z"/></mask></defs><path fill="#FCC70A" d="M14.858 5.028H11.14L9.999.914l.749 1.043.751 1.045.75-1.045L13 .914l.75 1.043.749 1.045.751-1.045L16 .914z"/><g mask="url(#a)"><path d="M8.291 3.837H6.674v3.414h1.711c.636 0 1.125-.149 1.469-.449.344-.3.516-.728.516-1.285-.001-1.12-.693-1.68-2.079-1.68z"/><path d="M8 0a8 8 0 1 0 0 16A8 8 0 0 0 8 0zm3.51 7.243a2.724 2.724 0 0 1-1.305 1.066c-.552.222-1.344.333-2.375.333H6.674v4.734h-1.57V2.446h3.461c1.042 0 1.872.281 2.492.844s.93 1.317.93 2.266c-.001.635-.16 1.198-.477 1.687z"/></g></svg>