<svg width="16" height="16" xmlns="http://www.w3.org/2000/svg" viewBox="0 0 16 16" shape-rendering="geometricPrecision" fill="#24437c"><defs><mask id="a"><rect fill="#fff" width="100%" height="100%"/><path fill="#000" d="M14.5 1.716L13-.371l-1.501 2.087-1.982-2.76-.836.011 1.888 6.811h4.86l1.884-6.792-.841-.013z"/></mask></defs><path fill="#FCC70A" d="M14.858 5.028H11.14L9.999.914l.749 1.043.751 1.045.75-1.045L13 .914l.75 1.043.749 1.045.751-1.045L16 .914z"/><path d="M2.021 8.002a5.987 5.987 0 0 0 5.792 5.976V8.104L2.423 5.85a5.92 5.92 0 0 0-.402 2.152zm3.587-5.476a6.052 6.052 0 0 0-2.516 2.07l4.456 2.731-1.94-4.801zM8 2.022c-.343 0-.693.031-1.044.095l1.355 5.788.786 5.967c2.8-.521 4.881-3.001 4.881-5.87A5.984 5.984 0 0 0 8 2.022z" mask="url(#a)"/></svg>