<?xml version="1.0"?><!DOCTYPE svg PUBLIC "-//W3C//DTD SVG 1.1//EN" "http://www.w3.org/Graphics/SVG/1.1/DTD/svg11.dtd"><svg width="16px" height="16px" xmlns="http://www.w3.org/2000/svg" viewBox="0 0 16 16" shape-rendering="geometricPrecision" fill="#24437c"><defs><mask id="crown-path"><rect fill="#fff" width="100%" height="100%"/><polygon points="14.5,1.716 13,-0.371 11.499,1.716 9.517,-1.044 8.681,-1.033 10.569,5.778 15.429,5.778 17.313,-1.014 16.472,-1.027 " fill="#000"/></mask></defs><g id="crown" display="inline" fill="#cb1800"><polygon fill="#FCC70A" points="14.858,5.028 11.14,5.028 9.999,0.914 10.748,1.957 11.499,3.002 12.249,1.957 13,0.914 13.75,1.957 14.499,3.002 15.25,1.957 16,0.914 "/></g><g mask="url(#crown-path)"><g><path d="M15.609,3.739c-0.906,1.865-2.393,2.551-3.389,2.805c0.568,1.092,0.975,2.484,1.15,4.041 C14.545,9.792,16.939,7.624,15.609,3.739z M0.39,3.739c-1.328,3.885,1.065,6.053,2.241,6.846c0.174-1.557,0.58-2.949,1.147-4.041 C2.784,6.29,1.297,5.604,0.39,3.739z M8.001,4.087c-2.367,0-4.286,3.66-4.286,8.174h8.57C12.285,7.747,10.367,4.087,8.001,4.087z"/></g></g></svg>