<svg width="16" height="16" xmlns="http://www.w3.org/2000/svg" viewBox="0 0 16 16" shape-rendering="geometricPrecision" fill="#fff"><defs><mask id="a"><rect width="100%" height="100%"/><path fill="#000" d="M19.079 1.436h-4.914l-1.516-4.674-1.519 4.674H6.217l3.975 2.886-1.516 4.673 3.972-2.888 3.972 2.889-1.516-4.674z"/></mask></defs><path fill="#cb1800" d="M13.928 3.94L16 2.435h-2.561L12.648 0l-.791 2.435H9.295l2.072 1.505-.79 2.437 2.071-1.506 2.071 1.506z"/><path d="M13.669 14.814L16 12.486 11.515 8 16 3.512l-2.329-2.326-6.815 6.818 6.813 6.81zM4.66 8l4.485-4.488-2.329-2.326L0 8.004l6.814 6.811 2.331-2.328L4.66 8z" mask="url(#a)"/></svg>