<svg width="16" height="16" xmlns="http://www.w3.org/2000/svg" viewBox="0 0 16 16" shape-rendering="geometricPrecision" fill="#fff"><defs><mask id="a"><rect width="100%" height="100%"/><path fill="#000" d="M19.079 1.436h-4.914l-1.516-4.674-1.519 4.674H6.217l3.975 2.886-1.516 4.673 3.972-2.888 3.972 2.889-1.516-4.674z"/></mask></defs><path fill="#cb1800" d="M13.928 3.94L16 2.435h-2.561L12.648 0l-.791 2.435H9.295l2.072 1.505-.79 2.437 2.071-1.506 2.071 1.506z"/><path d="M7.99 15.033c-1.088 0-1.828-.8-1.828-1.868 0-1.088.759-1.868 1.848-1.868 1.088 0 1.807.78 1.827 1.868 0 1.068-.717 1.868-1.827 1.868h-.02zM6.84 10.27L6.368.967h3.265l-.452 9.303H6.84z" mask="url(#a)"/></svg>