<svg width="16" height="16" xmlns="http://www.w3.org/2000/svg" viewBox="0 0 16 16" shape-rendering="geometricPrecision" fill="#fff"><defs><mask id="a"><rect width="100%" height="100%"/><path fill="#000" d="M19.079 1.436h-4.914l-1.516-4.674-1.519 4.674H6.217l3.975 2.886-1.516 4.673 3.972-2.888 3.972 2.889-1.516-4.674z"/></mask></defs><path fill="#cb1800" d="M13.928 3.94L16 2.435h-2.561L12.648 0l-.791 2.435H9.295l2.072 1.505-.79 2.437 2.071-1.506 2.071 1.506z"/><g mask="url(#a)"><path d="M8 6.636A2.837 2.837 0 0 0 5.167 9.47 2.837 2.837 0 0 0 8 12.302a2.837 2.837 0 0 0 2.833-2.832A2.837 2.837 0 0 0 8 6.636zm.556 3.278l-1.904 1.105-.54-.945 1.365-.794V7.077h1.089l.001 2.837h-.011z"/><path d="M7.394 4.755l-.816-1.923h-3.78l-.816 1.923H.861V14h14.278V4.755H7.394zM8 13.021a3.553 3.553 0 0 1 0-7.105 3.552 3.552 0 0 1 0 7.105z"/></g></svg>