<svg width="16" height="16" xmlns="http://www.w3.org/2000/svg" viewBox="0 0 16 16" shape-rendering="geometricPrecision" fill="#fff"><defs><mask id="a"><rect width="100%" height="100%"/><path fill="#000" d="M19.079 1.436h-4.914l-1.516-4.674-1.519 4.674H6.217l3.975 2.886-1.516 4.673 3.972-2.888 3.972 2.889-1.516-4.674z"/></mask></defs><path fill="#cb1800" d="M13.928 3.94L16 2.435h-2.561L12.648 0l-.791 2.435H9.295l2.072 1.505-.79 2.437 2.071-1.506 2.071 1.506z"/><path d="M15.235 11.444L9.643 5.85a4.861 4.861 0 0 0-1.327-4.418C6.997.114 5.122-.271 3.457.23l3.349 3.353L3.56 6.828.211 3.475c-.5 1.667-.114 3.541 1.198 4.86 1.2 1.2 2.87 1.64 4.418 1.329l5.59 5.588c.987.986 2.634.934 3.692-.124 1.053-1.052 1.107-2.705.126-3.684z" mask="url(#a)"/></svg>