<svg width="16" height="16" xmlns="http://www.w3.org/2000/svg" viewBox="0 0 16 16" shape-rendering="geometricPrecision" fill="#cb1800"><defs><mask id="a"><rect fill="#fff" width="100%" height="100%"/><path d="M15.568.488c.365-.9-.337-1.487-.851-1.704-.593-.25-1.396-.157-1.78.752l-.142.357-2.14 5.317.603 2.278 1.98-1.23L15.44.788l.128-.3z" fill="#000"/></mask></defs><path d="M11.686 6.423l.6-.513-.675-.269zM14.245.038a.714.714 0 0 0-.927.393l-.213.531 1.326.532.214-.532h-.001a.714.714 0 0 0-.399-.924zM11.527 4.9l1.433-3.573 1.325.532-1.433 3.572z"/><g mask="url(#a)"><path d="M4.622 5.865H1.017V2.262h3.604v3.603h.001zM1.55 5.331h2.536V2.795H1.55v2.536zm3.072 4.472H1.017V6.199h3.604v3.604h.001zM1.55 9.268h2.536V6.73H1.55v2.538zm3.072 4.47H1.017v-3.604h3.604v3.604h.001zm-3.072-.534h2.536V10.67H1.55v2.534zM6.041 3.051h8.941v2.137H6.041zm0 3.892h8.941v2.135H6.041zm0 3.912h8.941v2.136H6.041z"/><path d="M5.248 6.887l-.627-.629-1.523 1.521-.797-.795-.626.625 1.424 1.425z"/></g></svg>