<svg width="16" height="16" xmlns="http://www.w3.org/2000/svg" viewBox="0 0 16 16" shape-rendering="geometricPrecision" fill="#cb1800"><defs><mask id="a"><rect fill="#fff" width="100%" height="100%"/><path d="M15.568.488c.365-.9-.337-1.487-.851-1.704-.593-.25-1.396-.157-1.78.752l-.142.357-2.14 5.317.603 2.278 1.98-1.23L15.44.788l.128-.3z" fill="#000"/></mask></defs><path d="M11.686 6.423l.6-.513-.675-.269zM14.245.038a.714.714 0 0 0-.927.393l-.213.531 1.326.532.214-.532h-.001a.714.714 0 0 0-.399-.924zM11.527 4.9l1.433-3.573 1.325.532-1.433 3.572z"/><g mask="url(#a)"><path d="M8 1.001a7 7 0 1 0 .003 14 7 7 0 0 0-.003-14zm0 12.584a5.59 5.59 0 0 1-5.583-5.581A5.593 5.593 0 0 1 8 2.417a5.594 5.594 0 0 1 5.585 5.587A5.593 5.593 0 0 1 8 13.585zm4.055-7.312L10.631 4.85 7.175 8.304l-1.81-1.806-1.419 1.421 3.231 3.23 4.878-4.876z"/></g></svg>