<svg width="16" height="16" xmlns="http://www.w3.org/2000/svg" viewBox="0 0 16 16" shape-rendering="geometricPrecision" fill="#cb1800"><defs><mask id="a"><rect fill="#fff" width="100%" height="100%"/><path d="M15.568.488c.365-.9-.337-1.487-.851-1.704-.593-.25-1.396-.157-1.78.752l-.142.357-2.14 5.317.603 2.278 1.98-1.23L15.44.788l.128-.3z" fill="#000"/></mask></defs><path d="M11.686 6.423l.6-.513-.675-.269zM14.245.038a.714.714 0 0 0-.927.393l-.213.531 1.326.532.214-.532h-.001a.714.714 0 0 0-.399-.924zM11.527 4.9l1.433-3.573 1.325.532-1.433 3.572z"/><path mask="url(#a)" d="M14.55 13.121L14.539 0H4.094C2.718.003 1.596.619 1.573 1.987c-.003.025-.003.529 0 .535v.003c0 .04.009.076.011.117h-.009v10.826A2.532 2.532 0 0 0 4.104 16h8.386l-.038-1.689-.009-11.345h-8.35c-.496 0-1.68-.048-1.68-.979v-.094C2.464 1.008 3.597.841 4.093.841h9.593V13.12h.864zm-2.899-2.232v1.746H6.375v-1.746c0-.738.601-1.342 1.339-1.342h2.594c.738 0 1.343.603 1.343 1.342zM9.013 6.101a1.393 1.393 0 1 1 .004 2.786 1.393 1.393 0 0 1-.004-2.786zm-3.638 0a1.392 1.392 0 1 1 0 2.786 1.393 1.393 0 1 1 0-2.786zm-2.637 4.788c0-.738.6-1.342 1.339-1.342H6.06a2.13 2.13 0 0 0-.485 1.342v1.746H2.738v-1.746z"/></svg>