<svg width="16" height="16" xmlns="http://www.w3.org/2000/svg" viewBox="0 0 16 16" shape-rendering="geometricPrecision" fill="#cb1800"><defs><mask id="a"><rect fill="#fff" width="100%" height="100%"/><path d="M15.568.488c.365-.9-.337-1.487-.851-1.704-.593-.25-1.396-.157-1.78.752l-.142.357-2.14 5.317.603 2.278 1.98-1.23L15.44.788l.128-.3z" fill="#000"/></mask></defs><path d="M11.686 6.423l.6-.513-.675-.269zM14.245.038a.714.714 0 0 0-.927.393l-.213.531 1.326.532.214-.532h-.001a.714.714 0 0 0-.399-.924zM11.527 4.9l1.433-3.573 1.325.532-1.433 3.572z"/><path mask="url(#a)" d="M15.986 9.771c0-1.28-.884-2.354-2.075-2.644a3.713 3.713 0 0 0-6.625-2.205 2.085 2.085 0 0 0-3.713 1.572 3.023 3.023 0 0 0-3.56 2.975 3.023 3.023 0 0 0 3.022 3.024h10.237a2.72 2.72 0 0 0 2.714-2.722z"/></svg>