<svg width="16" height="16" xmlns="http://www.w3.org/2000/svg" viewBox="0 0 16 16" shape-rendering="geometricPrecision" fill="#cb1800"><defs><mask id="a"><rect fill="#fff" width="100%" height="100%"/><path d="M15.568.488c.365-.9-.337-1.487-.851-1.704-.593-.25-1.396-.157-1.78.752l-.142.357-2.14 5.317.603 2.278 1.98-1.23L15.44.788l.128-.3z" fill="#000"/></mask></defs><path d="M11.686 6.423l.6-.513-.675-.269zM14.245.038a.714.714 0 0 0-.927.393l-.213.531 1.326.532.214-.532h-.001a.714.714 0 0 0-.399-.924zM11.527 4.9l1.433-3.573 1.325.532-1.433 3.572z"/><g mask="url(#a)"><path d="M6.799 3.47L6.5 1.979h-4L2.2 3.47H.999v10h14v-10h-8.2zm7.201 9H2v-8h12v8z"/><path d="M6.919 7.07a1.09 1.09 0 1 1 2.183 0v.542h.667V7.07a1.759 1.759 0 1 0-3.517 0v.542h.667V7.07zM5.68 8.076v3.401h4.66V8.076H5.68zm2.741 2.266a.41.41 0 0 1-.821 0v-1.13a.41.41 0 0 1 .821 0v1.13z"/></g></svg>