<?xml version="1.0"?><!DOCTYPE svg PUBLIC "-//W3C//DTD SVG 1.1//EN" "http://www.w3.org/Graphics/SVG/1.1/DTD/svg11.dtd"><svg width="16px" height="16px" xmlns="http://www.w3.org/2000/svg" viewBox="0 0 16 16" shape-rendering="geometricPrecision" fill="#cb1800"><defs><mask id="edit-path"><rect fill="#fff" width="100%" height="100%"/><path d="M15.568,0.488c0.365-0.9-0.337-1.487-0.851-1.704c-0.593-0.25-1.396-0.157-1.78,0.752l-0.142,0.357 l-2.14,5.317l0.603,2.278l1.98-1.23l2.202-5.47L15.568,0.488z" fill="#000"/></mask></defs><g id="edit_3_" display="inline" fill="#cb1800"><polygon points="11.686,6.423 12.286,5.91 11.611,5.641 "/><path d="M14.245,0.038c-0.365-0.147-0.778,0.03-0.927,0.393l-0.213,0.531l1.326,0.532l0.214-0.532h-0.001 C14.787,0.597,14.61,0.183,14.245,0.038z"/><rect x="10.982" y="2.666" transform="matrix(0.3723 -0.9281 0.9281 0.3723 4.9642 14.0992)" width="3.849" height="1.428"/></g><g mask="url(#edit-path)"><g><path d="M7.054,6.495c-1.657,0-3.001,1.344-3.001,3.002c0,1.656,1.343,2.998,3.001,2.999c1.657-0.001,2.999-1.343,3-2.999 C10.054,7.839,8.711,6.495,7.054,6.495z M7.054,11.889c-1.322-0.003-2.391-1.071-2.394-2.392 c0.003-1.323,1.072-2.392,2.394-2.394c1.321,0.003,2.39,1.072,2.393,2.394C9.444,10.817,8.375,11.886,7.054,11.889z"/><polygon points="6.611,7.475 6.611,9.336 5.459,10.007 5.915,10.805 7.523,9.872 7.532,9.872 7.531,7.475"/></g><path d="M13.125,5.495v8h-12v-8H13.125 M14.125,4.495h-14v10h14V4.495L14.125,4.495z"/><polygon points="7.175,2.995 6.876,1.505 2.876,1.505 2.576,2.995 1.375,2.995 1.375,3.995 2.375,3.995 7.375,3.995 14.875,3.995 14.875,13.495 15.875,12.495 15.875,2.995"/></g></svg>