<?xml version="1.0"?><!DOCTYPE svg PUBLIC "-//W3C//DTD SVG 1.1//EN" "http://www.w3.org/Graphics/SVG/1.1/DTD/svg11.dtd"><svg width="16px" height="16px" xmlns="http://www.w3.org/2000/svg" viewBox="0 0 16 16" shape-rendering="geometricPrecision" fill="#cb1800"><defs><mask id="edit-path"><rect fill="#fff" width="100%" height="100%"/><path d="M16.451,1.534c0.091-0.364-0.004-0.77-0.288-1.066l-0.58-0.581 c-0.286-0.287-0.692-0.383-1.065-0.29c-0.194-0.327-0.552-0.548-0.962-0.551h-0.819c-0.41,0-0.77,0.223-0.964,0.554 c-0.38-0.106-0.813,0.038-1.062,0.288l-0.576,0.579C9.846,0.754,9.749,1.165,9.843,1.534c-0.329,0.194-0.55,0.553-0.55,0.962 v0.821c0,0.408,0.221,0.766,0.548,0.96C9.817,4.37,9.806,4.466,9.806,4.562c0.002,0.263,0.14,0.595,0.325,0.781l0.58,0.581 c0.248,0.248,0.68,0.393,1.062,0.287c0.194,0.332,0.555,0.555,0.963,0.555h0.82c0.298,0,0.588-0.121,0.796-0.333 c0.059-0.06,0.112-0.134,0.158-0.216c0.098,0.025,0.201,0.031,0.3,0.036c0.26-0.004,0.588-0.144,0.771-0.328l0.57-0.572 c0.215-0.21,0.337-0.503,0.335-0.803c0-0.085-0.016-0.178-0.042-0.271C16.777,4.086,17,3.727,17,3.315V2.494 C17,2.086,16.779,1.728,16.451,1.534z" fill="#000"/></mask></defs><g fill="#cb1800"><g><path d="M15.884,2.379h-0.177V2.376c-0.212,0.008-0.414-0.118-0.5-0.325c-0.086-0.207-0.031-0.439,0.122-0.586l0.126-0.126 c0.044-0.044,0.044-0.119,0-0.165l-0.579-0.58c-0.046-0.046-0.119-0.046-0.166,0l-0.125,0.125 C14.439,0.872,14.208,0.929,14,0.841c-0.206-0.087-0.331-0.289-0.326-0.501l-0.001-0.177c0-0.065-0.052-0.117-0.117-0.117 h-0.819c-0.063,0-0.117,0.053-0.116,0.117l0,0.178c0.005,0.212-0.119,0.414-0.326,0.501c-0.208,0.086-0.439,0.03-0.585-0.122 l-0.126-0.126c-0.045-0.045-0.119-0.045-0.165,0l-0.578,0.581c-0.045,0.045-0.045,0.118,0,0.164l0.123,0.127 c0.154,0.147,0.209,0.379,0.124,0.586c-0.086,0.207-0.289,0.333-0.499,0.325l-0.178,0.003c-0.065,0-0.117,0.053-0.117,0.117 v0.821c0,0.063,0.052,0.116,0.117,0.116h0.178l-0.002,0.002c0.212-0.008,0.415,0.118,0.501,0.325 c0.085,0.208,0.03,0.44-0.123,0.585v0.001l-0.125,0.127c-0.044,0.044-0.044,0.12,0,0.163l0.579,0.58 c0.046,0.046,0.119,0.046,0.165,0l0.127-0.124c0.146-0.153,0.377-0.208,0.585-0.123c0.207,0.088,0.331,0.29,0.326,0.502 l0.002,0.177h-0.002c0.001,0.066,0.053,0.117,0.116,0.117h0.002h0.817h0.001c0.064,0,0.117-0.051,0.117-0.117h-0.001 l0.001-0.177C13.668,5.26,13.793,5.058,14,4.97c0.208-0.085,0.439-0.03,0.586,0.123l0.124,0.126 c0.046,0.046,0.121,0.046,0.165,0l0.58-0.58c0.046-0.045,0.046-0.119,0-0.163l-0.125-0.129 c-0.153-0.146-0.208-0.378-0.122-0.586c0.085-0.207,0.288-0.333,0.5-0.325l0.177-0.004C15.947,3.432,16,3.379,16,3.315V2.494 C16,2.431,15.947,2.379,15.884,2.379z M13.146,3.91c-0.553,0-1.001-0.449-1.001-1.004c0-0.555,0.448-1.005,1.001-1.005 c0.553,0,1.002,0.45,1.002,1.005C14.149,3.461,13.7,3.91,13.146,3.91z"/></g></g><g mask="url(#edit-path)"><g><path d="M9.325,5.321c-0.372-0.324-0.84-0.576-1.26-0.576c-0.432,0-0.647,0.168-0.647,0.468c0,0.852,3.25,0.923,3.25,3.094 c0,0.696-0.359,1.211-0.983,1.595c0.168,0.252,0.276,0.552,0.276,0.923c0,1.08-0.804,1.895-2.303,1.895 c-0.876,0-1.787-0.324-2.327-1.007l1.02-0.899c0.384,0.396,0.84,0.611,1.308,0.611c0.491,0,0.719-0.216,0.719-0.516 c0-0.936-3.154-0.852-3.154-3.106c0-0.6,0.372-1.175,0.96-1.535C5.967,6.017,5.835,5.693,5.835,5.273 c0-1.08,0.791-1.835,2.135-1.835c0.923,0,1.667,0.396,2.158,0.779L9.325,5.321z M8.774,9.159 c0.275-0.168,0.407-0.384,0.407-0.708c0-0.755-1.115-0.996-2.051-1.475c-0.275,0.18-0.42,0.408-0.42,0.695 C6.71,8.427,7.85,8.667,8.774,9.159z"/></g><path d="M8,1.001c-3.866,0-6.999,3.135-6.999,7.003C1.003,11.867,4.134,14.999,8,15.001 c3.867-0.002,7.001-3.134,7.001-6.997C15.001,4.136,11.867,1.001,8,1.001z M8,13.585c-3.083-0.006-5.577-2.5-5.583-5.581 C2.423,4.918,4.917,2.423,8,2.417c3.084,0.006,5.578,2.501,5.585,5.587C13.578,11.085,11.084,13.579,8,13.585z"/></g></svg>