<svg width="16" height="16" xmlns="http://www.w3.org/2000/svg" viewBox="0 0 16 16" shape-rendering="geometricPrecision" fill="#cb1800"><defs><mask id="a"><rect fill="#fff" width="100%" height="100%"/><path d="M15.568.488c.365-.9-.337-1.487-.851-1.704-.593-.25-1.396-.157-1.78.752l-.142.357-2.14 5.317.603 2.278 1.98-1.23L15.44.788l.128-.3z" fill="#000"/></mask></defs><path d="M11.686 6.423l.6-.513-.675-.269zM14.245.038a.714.714 0 0 0-.927.393l-.213.531 1.326.532.214-.532h-.001a.714.714 0 0 0-.399-.924zM11.527 4.9l1.433-3.573 1.325.532-1.433 3.572z"/><g mask="url(#a)"><path d="M6.867 9.283a2.493 2.493 0 0 0 2.497-2.495 2.493 2.493 0 0 0-2.497-2.494 2.496 2.496 0 1 0 0 4.989zm2.319 1.186H4.541a2.406 2.406 0 0 0-2.398 2.404V16h9.45v-3.127a2.413 2.413 0 0 0-2.407-2.404zM7.641 0v1.125c1.349 0 2.564.545 3.448 1.428a4.86 4.86 0 0 1 1.428 3.449h1.125A6.002 6.002 0 0 0 7.641 0zm0 2.025v1.122a2.859 2.859 0 0 1 2.852 2.855h1.125a3.977 3.977 0 0 0-3.977-3.977z"/></g></svg>