<svg width="16" height="16" xmlns="http://www.w3.org/2000/svg" viewBox="0 0 16 16" shape-rendering="geometricPrecision" fill="#cb1800"><defs><mask id="a"><rect fill="#fff" width="100%" height="100%"/><path d="M16.451 1.534a1.141 1.141 0 0 0-.288-1.066l-.58-.581a1.116 1.116 0 0 0-1.065-.29 1.127 1.127 0 0 0-.962-.551h-.819c-.41 0-.77.223-.964.554-.38-.106-.813.038-1.062.288l-.576.579a1.116 1.116 0 0 0-.292 1.067c-.329.194-.55.553-.55.962v.821c0 .408.221.766.548.96a1.14 1.14 0 0 0-.035.285c.002.263.14.595.325.781l.58.581c.248.248.68.393 1.062.287.194.332.555.555.963.555h.82c.298 0 .588-.121.796-.333a1.02 1.02 0 0 0 .158-.216c.098.025.201.031.3.036.26-.004.588-.144.771-.328l.57-.572c.215-.21.337-.503.335-.803 0-.085-.016-.178-.042-.271.333-.193.556-.552.556-.964v-.821c0-.408-.221-.766-.549-.96z" fill="#000"/></mask></defs><path d="M15.884 2.379h-.177v-.003a.523.523 0 0 1-.5-.325.531.531 0 0 1 .122-.586l.126-.126a.12.12 0 0 0 0-.165l-.579-.58a.117.117 0 0 0-.166 0l-.125.125A.525.525 0 0 1 14 .841a.532.532 0 0 1-.326-.501l-.001-.177a.117.117 0 0 0-.117-.117h-.819a.117.117 0 0 0-.116.117v.178a.53.53 0 0 1-.911.379l-.126-.126a.118.118 0 0 0-.165 0l-.578.581a.116.116 0 0 0 0 .164l.123.127a.532.532 0 0 1 .124.586.523.523 0 0 1-.499.325l-.178.003a.117.117 0 0 0-.117.117v.821c0 .063.052.116.117.116h.178l-.002.002a.524.524 0 0 1 .501.325.53.53 0 0 1-.123.585v.001l-.125.127a.117.117 0 0 0 0 .163l.579.58a.116.116 0 0 0 .165 0l.127-.124a.53.53 0 0 1 .585-.123c.207.088.331.29.326.502l.002.177h-.002a.117.117 0 0 0 .116.117h.82a.117.117 0 0 0 .117-.117h-.001l.001-.177a.529.529 0 0 1 .911-.379l.124.126a.116.116 0 0 0 .165 0l.58-.58a.114.114 0 0 0 0-.163l-.125-.129a.53.53 0 0 1 .378-.911l.177-.004A.117.117 0 0 0 16 3.315v-.821a.117.117 0 0 0-.116-.115zM13.146 3.91a1.002 1.002 0 0 1-1.001-1.004c0-.555.448-1.005 1.001-1.005a1.004 1.004 0 0 1 0 2.009z"/><g mask="url(#a)"><path d="M6.35 5.582a2.92 2.92 0 0 1 3.301 0l1.471-1.47A4.965 4.965 0 0 0 8 3.011a4.97 4.97 0 0 0-3.122 1.1L6.35 5.582zm-.767.767L4.112 4.878A4.962 4.962 0 0 0 3.011 8c0 1.182.413 2.267 1.1 3.121L5.582 9.65A2.912 2.912 0 0 1 5.072 8c0-.613.189-1.181.511-1.651zm4.835 3.302l1.47 1.47A4.965 4.965 0 0 0 12.988 8a4.962 4.962 0 0 0-1.101-3.122l-1.471 1.471c.324.47.512 1.038.512 1.651s-.188 1.181-.51 1.651zm-.767.767c-.47.321-1.038.51-1.651.51a2.917 2.917 0 0 1-1.651-.51l-1.471 1.471c.855.687 1.94 1.1 3.122 1.1a4.962 4.962 0 0 0 3.122-1.101l-1.471-1.47z"/><path d="M7.934 14.81a3.957 3.957 0 0 1-2.814-1.173l-2.756-2.756C.824 9.342.8 6.862 2.309 5.353l3.045-3.044A3.803 3.803 0 0 1 8.067 1.19c1.058 0 2.058.416 2.814 1.172l2.756 2.756a3.97 3.97 0 0 1 1.173 2.77 3.81 3.81 0 0 1-1.118 2.758l-3.045 3.045a3.81 3.81 0 0 1-2.713 1.119zm.133-12.62c-.762 0-1.475.293-2.006.825L3.016 6.06c-1.12 1.119-1.095 2.964.054 4.114l2.756 2.756c1.113 1.113 3.028 1.141 4.113.055l3.045-3.045a2.81 2.81 0 0 0 .825-2.039 2.966 2.966 0 0 0-.88-2.074L10.174 3.07a2.967 2.967 0 0 0-2.107-.88z"/></g></svg>