<svg width="16" height="16" xmlns="http://www.w3.org/2000/svg" viewBox="0 0 16 16" shape-rendering="geometricPrecision" fill="#cb1800"><defs><mask id="a"><rect fill="#fff" width="100%" height="100%"/><path d="M15.568.488c.365-.9-.337-1.487-.851-1.704-.593-.25-1.396-.157-1.78.752l-.142.357-2.14 5.317.603 2.278 1.98-1.23L15.44.788l.128-.3z" fill="#000"/></mask></defs><path d="M11.686 6.423l.6-.513-.675-.269zM14.245.038a.714.714 0 0 0-.927.393l-.213.531 1.326.532.214-.532h-.001a.714.714 0 0 0-.399-.924zM11.527 4.9l1.433-3.573 1.325.532-1.433 3.572z"/><path mask="url(#a)" d="M9.985 2L8.271 3.713l1.912 1.914h-.546l-.364.018c-4.608.196-8.3 3.993-8.3 8.646v.553h2.624v-.553a6.01 6.01 0 0 1 1.768-4.271 6.008 6.008 0 0 1 4.272-1.768h.552V8.25h.147l-2.065 2.068 1.713 1.711L15 7.012 9.985 2z"/></svg>