<svg width="16" height="16" xmlns="http://www.w3.org/2000/svg" viewBox="0 0 16 16" shape-rendering="geometricPrecision" fill="#cb1800"><defs><mask id="a"><rect fill="#fff" width="100%" height="100%"/><path fill="#000" d="M11.875-1.414l-2.47 2.47 2.035 2.039-2.035 2.037 2.47 2.472 4.51-4.511z"/></mask></defs><path d="M11.875 0l-1.057 1.057 2.035 2.038-2.035 2.037 1.057 1.057 3.095-3.096z"/><g mask="url(#a)"><path d="M7.999 1a7 7 0 1 0 .003 14 7 7 0 0 0-.003-14zm3.423 9.054l-1.448 1.45-2.055-2.057-2.058 2.058-1.451-1.45 2.059-2.058-2.057-2.056L5.86 4.493 7.917 6.55l2.058-2.057 1.448 1.45-2.057 2.056 2.056 2.055z"/></g></svg>