<svg width="16" height="16" xmlns="http://www.w3.org/2000/svg" viewBox="0 0 16 16" shape-rendering="geometricPrecision" fill="#cb1800"><defs><mask id="a"><rect fill="#fff" width="100%" height="100%"/><path fill="#000" d="M11.875-1.414l-2.47 2.47 2.035 2.039-2.035 2.037 2.47 2.472 4.51-4.511z"/></mask></defs><path d="M11.875 0l-1.057 1.057 2.035 2.038-2.035 2.037 1.057 1.057 3.095-3.096z"/><path d="M7.99 15.033c-1.088 0-1.828-.8-1.828-1.868 0-1.088.759-1.868 1.848-1.868 1.088 0 1.807.78 1.827 1.868 0 1.068-.717 1.868-1.827 1.868h-.02zM6.84 10.27L6.368.967h3.265l-.452 9.303H6.84z" mask="url(#a)"/></svg>