<svg width="16" height="16" xmlns="http://www.w3.org/2000/svg" viewBox="0 0 16 16" shape-rendering="geometricPrecision" fill="#cb1800"><defs><mask id="a"><rect fill="#fff" width="100%" height="100%"/><path fill="#000" d="M11.875-1.414l-2.47 2.47 2.035 2.039-2.035 2.037 2.47 2.472 4.51-4.511z"/></mask></defs><path d="M11.875 0l-1.057 1.057 2.035 2.038-2.035 2.037 1.057 1.057 3.095-3.096z"/><g mask="url(#a)"><path d="M10.055 14.302l2.54-2.338h-2.54z"/><path d="M2.595 1.016v13.969h6.008v-4.468h4.802V1.016H2.595zm9.439 8.027h-4.79v4.601H3.917V2.318h8.116v6.725z"/><path d="M8.146 6.207h-.977v1.911h-.99V3.042h1.968c1.048 0 1.675.72 1.675 1.582 0 .863-.628 1.583-1.676 1.583zm-.049-2.281h-.928v1.391h.927c.449 0 .734-.278.734-.692.001-.414-.284-.699-.733-.699z"/></g></svg>