<?xml version="1.0"?><!DOCTYPE svg PUBLIC "-//W3C//DTD SVG 1.1//EN" "http://www.w3.org/Graphics/SVG/1.1/DTD/svg11.dtd"><svg width="16px" height="16px" xmlns="http://www.w3.org/2000/svg" viewBox="0 0 16 16" shape-rendering="geometricPrecision" fill="#cb1800"><defs><mask id="move_right-path"><rect fill="#fff" width="100%" height="100%"/><polygon points="11.875,-1.414 9.405,1.056 11.44,3.095 9.405,5.132 11.875,7.604 16.385,3.093 " fill="#000"/></mask></defs><polygon points="11.875,0 10.818,1.057 12.853,3.095 10.818,5.132 11.875,6.189 14.97,3.093 " fill="#cb1800"/><g mask="url(#move_right-path)"><path d="M10.479,0C7.43,0,4.958,2.472,4.958,5.521c0,0.739,0.152,1.44,0.416,2.084L0,12.979V16h3.021v-2.042h1.958V12h2.042V9.821 c0.947,0.762,2.148,1.221,3.458,1.221C13.528,11.042,16,8.57,16,5.521S13.528,0,10.479,0z M11.773,6.812 c-1.428,0-2.586-1.158-2.586-2.586c0-1.428,1.158-2.586,2.586-2.586s2.586,1.158,2.586,2.586 C14.359,5.655,13.202,6.812,11.773,6.812z"/></g></svg>