<svg width="16" height="16" xmlns="http://www.w3.org/2000/svg" viewBox="0 0 16 16" shape-rendering="geometricPrecision" fill="#cb1800"><defs><mask id="a"><rect fill="#fff" width="100%" height="100%"/><path fill="#000" d="M11.875-1.414l-2.47 2.47 2.035 2.039-2.035 2.037 2.47 2.472 4.51-4.511z"/></mask></defs><path d="M11.875 0l-1.057 1.057 2.035 2.038-2.035 2.037 1.057 1.057 3.095-3.096z"/><g mask="url(#a)"><path d="M2.138 11.963a1.128 1.128 0 1 0 0-2.257 1.128 1.128 0 0 0 0 2.257zm1.049.536H1.085c-.599 0-1.085.49-1.085 1.088v1.414h4.276v-1.414c0-.598-.49-1.088-1.089-1.088zm10.675-.536a1.129 1.129 0 1 0 .002-2.258 1.129 1.129 0 0 0-.002 2.258zm1.049.536H12.81a1.09 1.09 0 0 0-1.086 1.088v1.414H16v-1.414c0-.598-.491-1.088-1.089-1.088zM8.018 2.257a1.128 1.128 0 1 0 0-2.257 1.128 1.128 0 1 0 0 2.257zm1.049.537H6.965c-.599 0-1.085.489-1.085 1.088v1.413h4.276V3.882c0-.599-.49-1.088-1.089-1.088zm-.539 4.195V5.985h-1.02v1.004H1.984v1.984h1.057v-.972h9.972v.972h.945V6.989z"/></g></svg>