<svg width="16" height="16" xmlns="http://www.w3.org/2000/svg" viewBox="0 0 16 16" shape-rendering="geometricPrecision" fill="#cb1800"><defs><mask id="a"><rect fill="#fff" width="100%" height="100%"/><path fill="#000" d="M11.875-1.414l-2.47 2.47 2.035 2.039-2.035 2.037 2.47 2.472 4.51-4.511z"/></mask></defs><path d="M11.875 0l-1.057 1.057 2.035 2.038-2.035 2.037 1.057 1.057 3.095-3.096z"/><g mask="url(#a)"><path d="M9.759 2.438V1.03H6.24v1.408H2.717v1.917h10.565V2.438H9.759zM3.661 14.97h8.645V5.388H3.661v9.582zm6.163-8.075h1.016v6.567H9.824V6.895zm-2.35 0h1.017v6.567H7.474V6.895zm-2.349 0h1.016v6.567H5.125V6.895z"/></g></svg>