<svg width="16" height="16" xmlns="http://www.w3.org/2000/svg" viewBox="0 0 16 16" shape-rendering="geometricPrecision" fill="#cb1800"><defs><mask id="a"><rect fill="#fff" width="100%" height="100%"/><path d="M11.875-1.414l-2.47 2.47 2.035 2.039-2.035 2.037 2.47 2.472 4.51-4.511z"/></mask></defs><path fill="#cb1800" d="M11.875 0l-1.057 1.057 2.035 2.038-2.035 2.037 1.057 1.057 3.095-3.096z"/><path d="M8 3.181c-3.471 0-6.48 1.953-8 4.82 1.52 2.865 4.529 4.818 8 4.818 3.469 0 6.479-1.953 8-4.818-1.521-2.867-4.531-4.82-8-4.82zm-.002 9.047c-2.334 0-4.229-1.893-4.229-4.227 0-2.336 1.895-4.229 4.229-4.229 2.336 0 4.23 1.893 4.23 4.229.001 2.334-1.894 4.227-4.23 4.227z" mask="url(#a)"/></svg>