<svg width="16" height="16" xmlns="http://www.w3.org/2000/svg" viewBox="0 0 16 16" shape-rendering="geometricPrecision" fill="#ffad00"><defs><mask id="a"><rect fill="#fff" width="100%" height="100%"/><path fill="#000" d="M19.079 1.436h-4.914l-1.516-4.674-1.519 4.674H6.217l3.975 2.886-1.516 4.673 3.972-2.888 3.972 2.889-1.516-4.674z"/></mask></defs><path fill="#cb1800" d="M13.928 3.94L16 2.435h-2.561L12.648 0l-.791 2.435H9.295l2.072 1.505-.79 2.437 2.071-1.506 2.071 1.506z"/><g mask="url(#a)"><path d="M10.021 15.177l3.437-3.165h-3.437z"/><path d="M2.02 0v16h7.021v-4.905h4.941V0H2.02zM13 9.97H8v5H3.083v-14H13v9z"/><path d="M8.723 6.459h-1.37v2.68H5.964V2.022h2.758c1.469 0 2.349 1.01 2.349 2.219 0 1.209-.879 2.218-2.348 2.218zm-.07-3.197h-1.3v1.949h1.299c.63 0 1.029-.391 1.029-.971.001-.579-.398-.978-1.028-.978z"/></g></svg>