<?xml version="1.0"?><!DOCTYPE svg PUBLIC "-//W3C//DTD SVG 1.1//EN" "http://www.w3.org/Graphics/SVG/1.1/DTD/svg11.dtd"><svg width="16px" height="16px" xmlns="http://www.w3.org/2000/svg" viewBox="0 0 16 16" shape-rendering="geometricPrecision" fill="#ffad00"><defs><mask id="new-path"><rect fill="#fff" width="100%" height="100%"/><polygon points="19.079,1.436 14.165,1.436 12.649,-3.238 11.13,1.436 6.217,1.436 10.192,4.322 8.676,8.995 12.648,6.107 16.62,8.996 15.104,4.322 " fill="#000"/></mask></defs><polygon points="13.928,3.94 16,2.435 13.439,2.435 12.648,0 11.857,2.435 9.295,2.435 11.367,3.94 10.577,6.377 12.648,4.871 14.719,6.377 " fill="#cb1800"/><g mask="url(#new-path)"><path d="M13.125,5.495v8h-12v-8H13.125 M14.125,4.495h-14v10h14V4.495L14.125,4.495z"/><polygon points="7.175,2.995 6.876,1.505 2.876,1.505 2.576,2.995 1.375,2.995 1.375,3.995 2.375,3.995 7.375,3.995 14.875,3.995 14.875,13.495 15.875,12.495 15.875,2.995"/><g><path d="M5.919,8.172c0-0.604,0.489-1.091,1.092-1.091c0.602,0,1.091,0.488,1.091,1.091v0.542h0.667V8.172 c0-0.971-0.787-1.759-1.758-1.759c-0.971,0-1.759,0.788-1.759,1.759v0.542h0.667V8.172z M4.68,9.177v3.401h4.66V9.177H4.68z M7.421,11.443c0,0.226-0.183,0.409-0.409,0.409c-0.227,0-0.412-0.183-0.412-0.409v-1.13c0-0.225,0.184-0.409,0.41-0.409 c0.228,0,0.411,0.184,0.411,0.409V11.443z"/></g></g></svg>