<svg width="16" height="16" xmlns="http://www.w3.org/2000/svg" viewBox="0 0 16 16" shape-rendering="geometricPrecision" fill="#ffad00"><defs><mask id="a"><rect fill="#fff" width="100%" height="100%"/><path fill="#000" d="M19.079 1.436h-4.914l-1.516-4.674-1.519 4.674H6.217l3.975 2.886-1.516 4.673 3.972-2.888 3.972 2.889-1.516-4.674z"/></mask></defs><path fill="#cb1800" d="M13.928 3.94L16 2.435h-2.561L12.648 0l-.791 2.435H9.295l2.072 1.505-.79 2.437 2.071-1.506 2.071 1.506z"/><g mask="url(#a)"><path d="M13.031 11.953s-.891 0-1.016-.806c-.187-1.197-.661-4.542-.661-4.542h-.007a3.397 3.397 0 0 0-2.521-2.704c.002-.021.012-.039.012-.06a.852.852 0 0 0-1.704 0c0 .024.012.044.014.068a3.396 3.396 0 0 0-2.495 2.697h-.007s-.501 3.352-.663 4.557c-.106.791-1.014.791-1.014.791v1.031h2.134c.199.598.756 1.031 1.42 1.031s1.222-.434 1.42-1.031h5.087v-1.032z"/></g></svg>