<svg width="16" height="16" xmlns="http://www.w3.org/2000/svg" viewBox="0 0 16 16" shape-rendering="geometricPrecision" fill="#ffad00"><defs><mask id="a"><rect fill="#fff" width="100%" height="100%"/><path fill="#000" d="M19.079 1.436h-4.914l-1.516-4.674-1.519 4.674H6.217l3.975 2.886-1.516 4.673 3.972-2.888 3.972 2.889-1.516-4.674z"/></mask></defs><path fill="#cb1800" d="M13.928 3.94L16 2.435h-2.561L12.648 0l-.791 2.435H9.295l2.072 1.505-.79 2.437 2.071-1.506 2.071 1.506z"/><path d="M2.271.963v13.971H13.73V.963H2.271zm5.745 1.633a2.664 2.664 0 0 1 2.665 2.665 2.66 2.66 0 0 1-2.665 2.666 2.665 2.665 0 1 1 0-5.331zm4.533 11.497H3.484v-2.996a2.308 2.308 0 0 1 2.301-2.306h4.457a2.315 2.315 0 0 1 2.308 2.306v2.996z" mask="url(#a)"/></svg>