<svg width="16" height="16" xmlns="http://www.w3.org/2000/svg" viewBox="0 0 16 16" shape-rendering="geometricPrecision" fill="#ffad00"><defs><mask id="a"><rect fill="#fff" width="100%" height="100%"/><path d="M19.079 1.436h-4.914l-1.516-4.674-1.519 4.674h-4.913l3.975 2.886-1.516 4.673 3.972-2.888 3.972 2.889-1.516-4.674z"/></mask></defs><path fill="#cb1800" d="M13.928 3.94l2.072-1.505h-2.561l-.791-2.435-.791 2.435h-2.562l2.072 1.505-.79 2.437 2.071-1.506 2.071 1.506z"/><g mask="url(#a)"><path d="M8 3.181c-3.471 0-6.48 1.953-8 4.82 1.52 2.865 4.529 4.818 8 4.818 3.469 0 6.479-1.953 8-4.818-1.521-2.867-4.531-4.82-8-4.82zm-.002 9.047c-2.334 0-4.229-1.893-4.229-4.227 0-2.336 1.895-4.229 4.229-4.229 2.336 0 4.23 1.893 4.23 4.229.001 2.334-1.894 4.227-4.23 4.227zM11.792 6.774l-1.346-1.345-3.268 3.267-1.71-1.709-1.344 1.344 3.056 3.055z"/></g></svg>