<svg width="16" height="16" xmlns="http://www.w3.org/2000/svg" viewBox="0 0 16 16" shape-rendering="geometricPrecision" fill="#24437c"><defs><mask id="a"><rect fill="#fff" width="100%" height="100%"/><path fill="#000" d="M11.875-1.414l-2.47 2.47 2.035 2.039-2.035 2.037 2.47 2.472 4.51-4.511z"/></mask></defs><path fill="#cb1800" d="M11.875 0l-1.057 1.057 2.035 2.038-2.035 2.037 1.057 1.057 3.095-3.096z"/><g mask="url(#a)"><path d="M10.021 15.177l3.437-3.165h-3.437z"/><path d="M2.02 0v16h7.021v-4.905h4.941V0H2.02zM13 9.97H8v5H3.083v-14H13v9z"/><path d="M4 1.97h3v3H4zm3.999 0h4v1h-4zm0 2h4v1h-4zM4 5.97h8v1H4zm0 2h8v1H4z"/></g></svg>