<?xml version="1.0"?><!DOCTYPE svg PUBLIC "-//W3C//DTD SVG 1.1//EN" "http://www.w3.org/Graphics/SVG/1.1/DTD/svg11.dtd"><svg width="16px" height="16px" xmlns="http://www.w3.org/2000/svg" viewBox="0 0 16 16" shape-rendering="geometricPrecision" fill="#24437c"><defs><mask id="move_right-path"><rect fill="#fff" width="100%" height="100%"/><polygon points="11.875,-1.414 9.405,1.056 11.44,3.095 9.405,5.132 11.875,7.604 16.385,3.093 " fill="#000"/></mask></defs><polygon points="11.875,0 10.818,1.057 12.853,3.095 10.818,5.132 11.875,6.189 14.97,3.093 " fill="#cb1800"/><path mask="url(#move_right-path)" d="M6.035,15.636V8.96c0-0.143-0.049-0.284-0.137-0.396L0,1.072h16l-5.818,7.389 c-0.14,0.179-0.218,0.402-0.218,0.628v4.378L6.035,15.636z M2.109,2.096L6.703,7.93c0.23,0.292,0.357,0.658,0.357,1.03v4.942 l1.881-1.038V9.089c0-0.455,0.155-0.903,0.438-1.261l4.512-5.732H2.109z"/></svg>