<svg width="16" height="16" xmlns="http://www.w3.org/2000/svg" viewBox="0 0 16 16" shape-rendering="geometricPrecision" fill="#24437c"><defs><mask id="a"><rect fill="#fff" width="100%" height="100%"/><path fill="#000" d="M11.875-1.414l-2.47 2.47 2.035 2.039-2.035 2.037 2.47 2.472 4.51-4.511z"/></mask></defs><path fill="#cb1800" d="M11.875 0l-1.057 1.057 2.035 2.038-2.035 2.037 1.057 1.057 3.095-3.096z"/><g mask="url(#a)"><path d="M1.811-.001v16h12.378v-16H1.811zm11.34 14.962H2.793V1.011H13.15v13.95z"/><path d="M8.067 4.602a1.373 1.373 0 1 0 .002-2.746 1.373 1.373 0 0 0-.002 2.746zm1.354 7.896v-6.49H5.312v1.02H6.66v5.471H5.307v1.359h5.467v-1.359H9.421z"/></g></svg>