<svg width="16" height="16" xmlns="http://www.w3.org/2000/svg" viewBox="0 0 16 16" shape-rendering="geometricPrecision" fill="#24437c"><defs><mask id="a"><rect fill="#fff" width="100%" height="100%"/><path fill="#000" d="M11.875-1.414l-2.47 2.47 2.035 2.039-2.035 2.037 2.47 2.472 4.51-4.511z"/></mask></defs><path fill="#cb1800" d="M11.875 0l-1.057 1.057 2.035 2.038-2.035 2.037 1.057 1.057 3.095-3.096z"/><g mask="url(#a)"><path d="M-.001 8.59h7.406V16H-.001zm8.556 0V16H16V8.59H8.555zm6.297 5.206l-1.063 1.061-1.51-1.504-1.511 1.504-1.064-1.06 1.511-1.503-1.51-1.504 1.063-1.059 1.511 1.505 1.51-1.505 1.063 1.061-1.511 1.502 1.511 1.502zM4.276.073v7.41h7.368V.073H4.276zm3.076 6.049L4.96 3.717l1.051-1.059L7.35 4.004l2.559-2.572 1.054 1.06-3.611 3.63z"/></g></svg>