<svg width="16" height="16" xmlns="http://www.w3.org/2000/svg" viewBox="0 0 16 16" shape-rendering="geometricPrecision" fill="#24437c"><defs><mask id="a"><rect fill="#fff" width="100%" height="100%"/><path fill="#000" d="M11.875-1.414l-2.47 2.47 2.035 2.039-2.035 2.037 2.47 2.472 4.51-4.511z"/></mask></defs><path fill="#cb1800" d="M11.875 0l-1.057 1.057 2.035 2.038-2.035 2.037 1.057 1.057 3.095-3.096z"/><g mask="url(#a)"><path d="M1.062 7.999a6.94 6.94 0 1 0 13.878 0 6.94 6.94 0 0 0-13.878 0zm12.472 0a5.543 5.543 0 0 1-5.531 5.536 5.544 5.544 0 0 1-5.537-5.536 5.543 5.543 0 0 1 5.537-5.534 5.54 5.54 0 0 1 5.531 5.534z"/><path d="M8 3.327a4.68 4.68 0 0 0-4.673 4.672A4.681 4.681 0 0 0 8 12.673V3.327z"/></g></svg>