<svg width="16" height="16" xmlns="http://www.w3.org/2000/svg" viewBox="0 0 16 16" shape-rendering="geometricPrecision"><defs><mask id="a"><rect fill="#fff" width="100%" height="100%"/><path d="M14.5 1.716L13-.371l-1.501 2.087-1.982-2.76-.836.011 1.888 6.811h4.86l1.884-6.792-.841-.013z"/></mask></defs><path fill="#FCC70A" d="M14.858 5.028H11.14L9.999.914l.749 1.043.751 1.045.75-1.045L13 .914l.75 1.043.749 1.045.751-1.045L16 .914z"/><path d="M1.185 13.668L3.513 16l4.486-4.486L12.488 16l2.326-2.33-6.818-6.815-6.811 6.813zm6.814-9.009l4.488 4.485 2.326-2.329L7.996-.001 1.185 6.813l2.328 2.331 4.486-4.485z" mask="url(#a)"/></svg>