<svg width="16" height="16" xmlns="http://www.w3.org/2000/svg" viewBox="0 0 16 16" shape-rendering="geometricPrecision"><defs><mask id="a"><rect fill="#fff" width="100%" height="100%"/><path d="M14.5 1.716L13-.371l-1.501 2.087-1.982-2.76-.836.011 1.888 6.811h4.86l1.884-6.792-.841-.013z"/></mask></defs><path fill="#FCC70A" d="M14.858 5.028H11.14L9.999.914l.749 1.043.751 1.045.75-1.045L13 .914l.75 1.043.749 1.045.751-1.045L16 .914z"/><g mask="url(#a)"><path d="M8.001 12.153a.466.466 0 0 0 .466-.466V10.4a.467.467 0 1 0-.935 0v1.287a.469.469 0 0 0 .469.466z"/><path d="M7.394 4.755l-.816-1.923h-3.78l-.816 1.923H.861V14h14.278V4.755H7.394zM5.997 7.961a2.003 2.003 0 0 1 4.005 0v.618h-.76v-.618a1.242 1.242 0 1 0-2.485 0v.618h-.76v-.618zm4.656 5.018H5.346V9.106h5.307v3.873z"/></g></svg>