<svg width="16" height="16" xmlns="http://www.w3.org/2000/svg" viewBox="0 0 16 16" shape-rendering="geometricPrecision"><defs><mask id="a"><rect fill="#fff" width="100%" height="100%"/><path d="M14.5 1.716L13-.371l-1.501 2.087-1.982-2.76-.836.011 1.888 6.811h4.86l1.884-6.792-.841-.013z"/></mask></defs><path fill="#FCC70A" d="M14.858 5.028H11.14L9.999.914l.749 1.043.751 1.045.75-1.045L13 .914l.75 1.043.749 1.045.751-1.045L16 .914z"/><g mask="url(#a)"><path d="M7.054 6.495a3.002 3.002 0 0 0 0 6.001 3 3 0 0 0 0-6.001zm0 5.394A2.397 2.397 0 0 1 4.66 9.497a2.397 2.397 0 0 1 2.394-2.394 2.398 2.398 0 0 1 2.393 2.394 2.397 2.397 0 0 1-2.393 2.392z"/><path d="M6.611 7.475v1.861l-1.152.671.456.798 1.608-.933h.009l-.001-2.397z"/><path d="M13.125 5.495v8h-12v-8h12m1-1h-14v10h14v-10z"/><path d="M7.175 2.995l-.299-1.49h-4l-.3 1.49H1.375v1h13.5v9.5l1-1v-9.5z"/></g></svg>