<svg width="16" height="16" xmlns="http://www.w3.org/2000/svg" viewBox="0 0 16 16" shape-rendering="geometricPrecision"><defs><mask id="a"><rect fill="#fff" width="100%" height="100%"/><path d="M14.5 1.716L13-.371l-1.501 2.087-1.982-2.76-.836.011 1.888 6.811h4.86l1.884-6.792-.841-.013z"/></mask></defs><path fill="#FCC70A" d="M14.858 5.028H11.14L9.999.914l.749 1.043.751 1.045.75-1.045L13 .914l.75 1.043.749 1.045.751-1.045L16 .914z"/><g mask="url(#a)"><path d="M6.655 8.121c0 .521-.208.992-.54 1.345h3.925a1.956 1.956 0 0 1-.54-1.345c0-.668.337-1.259.849-1.613a1.524 1.524 0 0 0-1.173-.561H6.974c-.472 0-.889.221-1.169.56.513.354.85.944.85 1.614z"/><circle cx="8.078" cy="3.606" r="1.587"/><circle cx="4.691" cy="8.121" r="1.588"/><path d="M5.79 10.462H3.587a1.53 1.53 0 0 0-1.525 1.53v1.988H7.32v-1.988c0-.841-.689-1.53-1.53-1.53z"/><circle cx="11.464" cy="8.121" r="1.588"/><path d="M12.562 10.462H10.36a1.53 1.53 0 0 0-1.525 1.53v1.988h5.258v-1.988c0-.841-.689-1.53-1.531-1.53z"/></g></svg>