<svg width="16" height="16" xmlns="http://www.w3.org/2000/svg" viewBox="0 0 16 16" shape-rendering="geometricPrecision"><defs><mask id="a"><rect fill="#fff" width="100%" height="100%"/><path d="M14.5 1.716L13-.371l-1.501 2.087-1.982-2.76-.836.011 1.888 6.811h4.86l1.884-6.792-.841-.013z"/></mask></defs><path fill="#FCC70A" d="M14.858 5.028H11.14L9.999.914l.749 1.043.751 1.045.75-1.045L13 .914l.75 1.043.749 1.045.751-1.045L16 .914z"/><g mask="url(#a)"><path d="M7.999.97a7.03 7.03 0 0 0 0 14.06 7.03 7.03 0 1 0 0-14.06zm0 12.638a5.616 5.616 0 0 1-5.607-5.605 5.616 5.616 0 0 1 5.607-5.611 5.617 5.617 0 0 1 5.609 5.611 5.615 5.615 0 0 1-5.609 5.605z"/><path d="M8.243 3.606c1.054 0 1.938.52 2.51 1.105L9.699 5.894c-.429-.39-.832-.637-1.43-.637-1.184 0-2.106 1.027-2.106 2.73 0 1.742.819 2.756 2.055 2.756.701 0 1.195-.299 1.611-.754l1.054 1.157c-.702.819-1.639 1.248-2.691 1.248-2.197 0-3.991-1.495-3.991-4.342C4.2 5.244 6.06 3.606 8.243 3.606z"/><path d="M3.064 4.124l1.06-1.06 8.812 8.812-1.06 1.06z"/></g></svg>