<svg width="16" height="16" xmlns="http://www.w3.org/2000/svg" viewBox="0 0 16 16" shape-rendering="geometricPrecision"><defs><mask id="a"><rect fill="#fff" width="100%" height="100%"/><path d="M14.5 1.716L13-.371l-1.501 2.087-1.982-2.76-.836.011 1.888 6.811h4.86l1.884-6.792-.841-.013z"/></mask></defs><path fill="#FCC70A" d="M14.858 5.028H11.14L9.999.914l.749 1.043.751 1.045.75-1.045L13 .914l.75 1.043.749 1.045.751-1.045L16 .914z"/><g mask="url(#a)"><path d="M11.231 3.39c.002-.046.008-.09.008-.136a3.24 3.24 0 1 0-6.273-1.138l1.312.399a1.872 1.872 0 1 1 3.023 2.08c-.583.621-1.03.621-2.176 1.235-1.824.984-2.271 2.511-2.366 3.414v6.744h6.482V3.39h-.01zM7.445 15.148l-2.33-2.328 1.024-1.024 1.303 1.303 2.492-2.489 1.024 1.026-3.513 3.512z"/></g></svg>