<?xml version="1.0"?><!DOCTYPE svg PUBLIC "-//W3C//DTD SVG 1.1//EN" "http://www.w3.org/Graphics/SVG/1.1/DTD/svg11.dtd"><svg width="16px" height="16px" xmlns="http://www.w3.org/2000/svg" viewBox="0 0 16 16" shape-rendering="geometricPrecision" fill="#000"><defs><mask id="crown-path"><rect fill="#fff" width="100%" height="100%"/><polygon points="14.5,1.716 13,-0.371 11.499,1.716 9.517,-1.044 8.681,-1.033 10.569,5.778 15.429,5.778 17.313,-1.014 16.472,-1.027 " fill="#000"/></mask></defs><g id="crown" display="inline" fill="#cb1800"><polygon fill="#FCC70A" points="14.858,5.028 11.14,5.028 9.999,0.914 10.748,1.957 11.499,3.002 12.249,1.957 13,0.914 13.75,1.957 14.499,3.002 15.25,1.957 16,0.914 "/></g><path mask="url(#crown-path)" d="M7.993,3.184C4.525,3.184,1.518,5.136,0,8.001 c1.518,2.863,4.525,4.814,7.993,4.814c3.466,0,6.472-1.951,7.993-4.814C14.465,5.136,11.459,3.184,7.993,3.184z M7.173,11.383 L4.121,8.331l1.342-1.344l1.709,1.708l3.265-3.265l1.345,1.344L7.173,11.383z"/></svg>