<svg width="16" height="16" xmlns="http://www.w3.org/2000/svg" viewBox="0 0 16 16" shape-rendering="geometricPrecision" fill="#00962d"><defs><mask id="a"><rect fill="#fff" width="100%" height="100%"/><path fill="#000" d="M8.986 1.143H17v3.565H8.986z"/></mask></defs><path d="M9.986 2.143H16v1.565H9.986z" fill="#cb1800"/><path d="M1.935 1.982V14h3.031V1.982H1.935zm1.516 10.046a.923.923 0 1 1 0-1.848.923.923 0 0 1 0 1.848zM5.993 1.982V14h3.029V1.982H5.993zm1.515 10.046a.922.922 0 1 1 0-1.845.92.92 0 0 1 .922.923.92.92 0 0 1-.922.922zm2.493-10.046V14h3.076V1.982h-3.076zm1.539 10.017a.937.937 0 1 1 0-1.875.937.937 0 1 1 0 1.875z" mask="url(#a)"/></svg>