<svg width="16" height="16" xmlns="http://www.w3.org/2000/svg" viewBox="0 0 16 16" shape-rendering="geometricPrecision" fill="#6e6e6e"><defs><mask id="a"><rect fill="#fff" width="100%" height="100%"/><path d="M12.997.858a4.809 4.809 0 0 0-4.253 2.563 4.81 4.81 0 0 0 8.506 0A4.812 4.812 0 0 0 12.997.858z" fill="#000"/></mask></defs><path d="M12.997 1.611a3.394 3.394 0 0 0-3.003 1.81 3.397 3.397 0 0 0 6.006 0 3.398 3.398 0 0 0-3.003-1.81zm-.001 3.396a1.587 1.587 0 1 1 0-3.174 1.587 1.587 0 0 1 0 3.174z" fill="#cb1800"/><path d="M7.999 1a7 7 0 1 0 .003 14 7 7 0 0 0-.003-14zm3.423 9.054l-1.448 1.45-2.055-2.057-2.058 2.058-1.451-1.45 2.059-2.058-2.057-2.056L5.86 4.493 7.917 6.55l2.058-2.057 1.448 1.45-2.057 2.056 2.056 2.055z" mask="url(#a)"/></svg>