<svg width="16" height="16" xmlns="http://www.w3.org/2000/svg" viewBox="0 0 16 16" shape-rendering="geometricPrecision" fill="#6e6e6e"><defs><mask id="a"><rect fill="#fff" width="100%" height="100%"/><path d="M12.997.858a4.809 4.809 0 0 0-4.253 2.563 4.81 4.81 0 0 0 8.506 0A4.812 4.812 0 0 0 12.997.858z" fill="#000"/></mask></defs><path d="M12.997 1.611a3.394 3.394 0 0 0-3.003 1.81 3.397 3.397 0 0 0 6.006 0 3.398 3.398 0 0 0-3.003-1.81zm-.001 3.396a1.587 1.587 0 1 1 0-3.174 1.587 1.587 0 0 1 0 3.174z" fill="#cb1800"/><g mask="url(#a)"><path d="M7.983 8.903L3.694 6.274.793 8.596c.046.096 4.25 2.737 4.25 2.737L7.98 9.125l3.028 2.206 4.352-2.617-3.1-2.494-4.277 2.683z"/><path d="M7.98 9.955l-2.927 2.197-1.455-.813v.83l4.4 2.786 4.366-2.786v-.83l-1.37.813zm3.104-8.91L7.98 3.59l4.28 2.628 3.102-2.426zM.638 3.928L3.702 6.27 7.98 3.59 5.041 1.047zM12.259 6.22v-.001h.001v.001z"/></g></svg>