<svg width="16" height="16" xmlns="http://www.w3.org/2000/svg" viewBox="0 0 16 16" shape-rendering="geometricPrecision" fill="#6e6e6e"><defs><mask id="a"><rect fill="#fff" width="100%" height="100%"/><path d="M12.997.858a4.809 4.809 0 0 0-4.253 2.563 4.81 4.81 0 0 0 8.506 0A4.812 4.812 0 0 0 12.997.858z" fill="#000"/></mask></defs><path d="M12.997 1.611a3.394 3.394 0 0 0-3.003 1.81 3.397 3.397 0 0 0 6.006 0 3.398 3.398 0 0 0-3.003-1.81zm-.001 3.396a1.587 1.587 0 1 1 0-3.174 1.587 1.587 0 0 1 0 3.174z" fill="#cb1800"/><g mask="url(#a)"><path d="M14.49 13.12L14.479-.001H4.034C2.658.002 1.536.618 1.513 1.986c-.003.025-.003.529 0 .535v.003c0 .04.009.076.011.117h-.009v10.826a2.532 2.532 0 0 0 2.529 2.531h8.386l-.038-1.689-.009-11.344h-8.35c-.496 0-1.68-.048-1.68-.978v-.094C2.404 1.008 3.537.841 4.033.841h9.593V13.12h.864zM4.011 3.966h7.35l.004 10.992L4.851 15a2.532 2.532 0 0 1-2.529-2.531s-.005-9.456-.002-9.481h.011c0 .93 1.184.978 1.68.978z"/><path d="M4.525 5.764h5.506v1.247H4.525zm0 2.582h5.506v1.243H4.525z"/></g></svg>