<?xml version="1.0"?><!DOCTYPE svg PUBLIC "-//W3C//DTD SVG 1.1//EN" "http://www.w3.org/Graphics/SVG/1.1/DTD/svg11.dtd"><svg width="16px" height="16px" xmlns="http://www.w3.org/2000/svg" viewBox="0 0 16 16" shape-rendering="geometricPrecision" fill="#6e6e6e"><defs><mask id="visibility-invisible-path"><rect fill="#fff" width="100%" height="100%"/><path d="M12.997,0.858c-1.845,0-3.446,1.039-4.253,2.563c0.808,1.523,2.408,2.562,4.253,2.562 c1.844,0,3.444-1.039,4.253-2.562C16.441,1.897,14.841,0.858,12.997,0.858z" fill="#000"/></mask></defs><g id="visibility-invisible" fill="#cb1800"><g><g><path d="M12.997,1.611c-1.303,0-2.433,0.733-3.003,1.81c0.57,1.075,1.7,1.809,3.003,1.809c1.302,0,2.432-0.733,3.003-1.809 C15.429,2.345,14.299,1.611,12.997,1.611z M12.996,5.007c-0.876,0-1.587-0.71-1.587-1.586c0-0.877,0.711-1.588,1.587-1.588 c0.877,0,1.588,0.711,1.588,1.588C14.584,4.297,13.873,5.007,12.996,5.007z"/></g></g></g><g mask="url(#visibility-invisible-path)"><g><g><path d="M10.128,6.094c-0.864-0.014-1.742-0.014-2.921,0C6.027,6.107,5.506,6.45,5.341,7.026S4.367,10.4,4.367,10.4H5.78 L6.562,8c0,0,2.757-0.014,4.032-0.014s1.193-0.411,1.221-1.001S10.992,6.107,10.128,6.094z M10.937,7.04 c-0.055,0.288-0.192,0.439-0.85,0.425c-0.658-0.014-3.429,0-3.429,0s0.027-0.206,0.11-0.48c0.082-0.274,0.247-0.37,1.015-0.37 s1.783,0.027,2.345,0.027C10.69,6.642,10.992,6.752,10.937,7.04z"/></g></g><path d="M8.001,1.79c-3.43,0-6.211,2.781-6.211,6.213c0,3.427,2.78,6.206,6.211,6.208 c3.429-0.002,6.208-2.78,6.209-6.208C14.21,4.571,11.43,1.79,8.001,1.79z M8.001,12.953c-2.736-0.005-4.949-2.218-4.955-4.951 c0.006-2.738,2.219-4.951,4.955-4.956c2.735,0.005,4.948,2.218,4.953,4.956C12.949,10.736,10.736,12.948,8.001,12.953z"/></g></svg>