<?xml version="1.0"?><!DOCTYPE svg PUBLIC "-//W3C//DTD SVG 1.1//EN" "http://www.w3.org/Graphics/SVG/1.1/DTD/svg11.dtd"><svg width="16px" height="16px" xmlns="http://www.w3.org/2000/svg" viewBox="0 0 16 16" shape-rendering="geometricPrecision" fill="#6e6e6e"><defs><mask id="visibility-invisible-path"><rect fill="#fff" width="100%" height="100%"/><path d="M12.997,0.858c-1.845,0-3.446,1.039-4.253,2.563c0.808,1.523,2.408,2.562,4.253,2.562 c1.844,0,3.444-1.039,4.253-2.562C16.441,1.897,14.841,0.858,12.997,0.858z" fill="#000"/></mask></defs><g id="visibility-invisible" display="inline" fill="#cb1800"><g><g><path d="M12.997,1.611c-1.303,0-2.433,0.733-3.003,1.81c0.57,1.075,1.7,1.809,3.003,1.809c1.302,0,2.432-0.733,3.003-1.809 C15.429,2.345,14.299,1.611,12.997,1.611z M12.996,5.007c-0.876,0-1.587-0.71-1.587-1.586c0-0.877,0.711-1.588,1.587-1.588 c0.877,0,1.588,0.711,1.588,1.588C14.584,4.297,13.873,5.007,12.996,5.007z"/></g></g></g><path mask="url(#visibility-invisible-path)" d="M4.212,1.067c1.069,0,1.604,0.865,1.604,1.832c0,1.122,0.03,2.548,0.03,2.548s4.381,0,5.504,0 c1.123,0,1.922,0.621,1.922,1.56c0,1.124-0.687,1.686-1.811,1.686c-1.123,0-5.584,0-5.584,0s0,0,0,0.999S6.378,11.687,8,11.687 c1.748,0,2.589,0,3.462,0c0.874,0,1.623,0.581,1.623,1.579c0,0.998-0.518,1.666-1.592,1.666c-1.372,0-1.427,0-3.673,0 c-3.145,0-5.095-1.23-5.095-4.738c0-3.371,0-5.53,0-7.152C2.727,1.824,3.215,1.067,4.212,1.067z"/></svg>