<?xml version="1.0"?><!DOCTYPE svg PUBLIC "-//W3C//DTD SVG 1.1//EN" "http://www.w3.org/Graphics/SVG/1.1/DTD/svg11.dtd"><svg width="16px" height="16px" xmlns="http://www.w3.org/2000/svg" viewBox="0 0 16 16" shape-rendering="geometricPrecision" fill="#fff"><defs><mask id="move_right-path"><rect fill="#fff" width="100%" height="100%"/><polygon points="11.875,-1.414 9.405,1.056 11.44,3.095 9.405,5.132 11.875,7.604 16.385,3.093 " fill="#000"/></mask></defs><polygon points="11.875,0 10.818,1.057 12.853,3.095 10.818,5.132 11.875,6.189 14.97,3.093 " fill="#cb1800"/><g mask="url(#move_right-path)"><polygon points="10.021,15.177 13.458,12.012 10.021,12.012"/><path d="M2.02,0v16h7.021v-4.905h4.941V0H2.02z M13,9.97h-5l0,5H3.083v-14H13V9.97z"/><path d="M6.499,8.97c0.829,0,1.5-0.672,1.5-1.5v-3.5c0,0,0.22-0.498,0.95,0.182C9.89,5.026,11,4.313,11,4.313 s-1.364-0.33-1.644-1.218C9,1.97,7.999,1.97,7.999,1.97h-1v4.092C6.842,6.006,6.676,5.97,6.499,5.97c-0.829,0-1.5,0.672-1.5,1.5 C4.999,8.298,5.671,8.97,6.499,8.97z"/></g></svg>