<?xml version="1.0"?><!DOCTYPE svg PUBLIC "-//W3C//DTD SVG 1.1//EN" "http://www.w3.org/Graphics/SVG/1.1/DTD/svg11.dtd"><svg width="16px" height="16px" xmlns="http://www.w3.org/2000/svg" viewBox="0 0 16 16" shape-rendering="geometricPrecision" fill="#fff"><defs><mask id="move_right-path"><rect fill="#fff" width="100%" height="100%"/><polygon points="11.875,-1.414 9.405,1.056 11.44,3.095 9.405,5.132 11.875,7.604 16.385,3.093 " fill="#000"/></mask></defs><polygon points="11.875,0 10.818,1.057 12.853,3.095 10.818,5.132 11.875,6.189 14.97,3.093 " fill="#cb1800"/><path mask="url(#move_right-path)" d="M14.49,13.121L14.479,0H4.034C2.658,0.003,1.536,0.619,1.513,1.987 c-0.003,0.025-0.003,0.529,0,0.535v0.003c0,0.04,0.009,0.076,0.011,0.117H1.515v10.826C1.515,14.865,2.648,16,4.044,16h8.386 l-0.038-1.689L12.383,2.966h-8.35c-0.496,0-1.68-0.048-1.68-0.979V1.894c0.051-0.885,1.184-1.052,1.68-1.052h9.593v12.279H14.49z M7.819,4.302c0.62,0,1.122,0.502,1.122,1.122c0,0.616-0.502,1.12-1.122,1.12c-0.62,0-1.122-0.504-1.122-1.12 C6.696,4.804,7.199,4.302,7.819,4.302z M5.562,12.996h1.105v-4.47H5.566V7.692h3.359v5.304h1.106v1.111H5.562V12.996z"/></svg>