<svg width="16" height="16" xmlns="http://www.w3.org/2000/svg" viewBox="0 0 16 16" shape-rendering="geometricPrecision" fill="#fff"><defs><mask id="a"><rect width="100%" height="100%"/><path fill="#000" d="M11.875-1.414l-2.47 2.47 2.035 2.039-2.035 2.037 2.47 2.472 4.51-4.511z"/></mask></defs><path fill="#cb1800" d="M11.875 0l-1.057 1.057 2.035 2.038-2.035 2.037 1.057 1.057 3.095-3.096z"/><g mask="url(#a)"><path d="M1.062 8.003a6.939 6.939 0 1 0 13.875-.005 6.939 6.939 0 0 0-13.875.005zm1.403 0a5.543 5.543 0 0 1 5.534-5.537 5.544 5.544 0 0 1 5.536 5.537 5.543 5.543 0 0 1-5.536 5.531 5.54 5.54 0 0 1-5.534-5.531z"/><path d="M7.966 8.038V3.331c.012 0 .022-.003.034-.003a4.682 4.682 0 0 1 4.674 4.675A4.68 4.68 0 0 1 8 12.673c-1.723-.003-3.21-.946-4.02-2.333l3.986-2.302z"/></g></svg>