<svg width="16" height="16" xmlns="http://www.w3.org/2000/svg" viewBox="0 0 16 16" shape-rendering="geometricPrecision" fill="#24437c"><defs><mask id="a"><rect fill="#fff" width="100%" height="100%"/><path fill="#000" d="M14.258-1.414l-3.229 3.227-1.69-1.69-2.74 2.743 4.432 4.433L17 1.329z"/></mask></defs><path fill="#cb1800" d="M15.586 1.33L14.258 0l-3.229 3.228L9.34 1.539 8.013 2.867l3.018 3.019z"/><path d="M0 5.121l3.176 3.181L0 11.479l1.651 1.652L6.48 8.298 1.651 3.473zM7.144.605v14.096h1.067V1.671l4.057.002-2.67.764v13.562l6.399-1.831V1.674H16V.605H7.144zM15 13.47l-4.4 1.282V3.188L15 1.906V13.47z" mask="url(#a)"/></svg>