<svg width="16" height="16" xmlns="http://www.w3.org/2000/svg" viewBox="0 0 16 16" shape-rendering="geometricPrecision" fill="#24437c"><defs><mask id="a"><rect fill="#fff" width="100%" height="100%"/><path fill="#000" d="M14.258-1.414l-3.229 3.227-1.69-1.69-2.74 2.743 4.432 4.433L17 1.329z"/></mask></defs><path fill="#cb1800" d="M15.586 1.33L14.258 0l-3.229 3.228L9.34 1.539 8.013 2.867l3.018 3.019z"/><g mask="url(#a)"><path d="M6.394 4.686h.844v.844h-.844zm.844.843h.844v.844h-.844zm-.844.844h.844v.845h-.844zm.844.845h.844v.844h-.844zm-.844.843h.844v.844h-.844zm.844.844h.844v.844h-.844zm-.844.844h.844v.845h-.844zm0 1.688h.844v.844h-.844zm0 1.689h.844v.844h-.844zm-.02-10.947h1.709v1.662H6.374z"/><path d="M6.886 5.904l.535-1.403a.737.737 0 0 0-.308-.892.736.736 0 0 0-.932.15l-.986 1.133.001.001a.997.997 0 0 0 .241 1.515 1.002 1.002 0 0 0 1.449-.504zm-.359-1.316a.405.405 0 1 1 .416-.696.405.405 0 0 1-.416.696z"/><path d="M7.238 3.841h.844v.845h-.844zm2.817 10.461l2.54-2.338h-2.54z"/><path d="M2.595 1.016v13.969h6.008v-4.468h4.802V1.016H2.595zm9.439 8.027h-4.79v4.601H3.917V2.318h8.116v6.725z"/></g></svg>