<svg width="16" height="16" xmlns="http://www.w3.org/2000/svg" viewBox="0 0 16 16" shape-rendering="geometricPrecision" fill="#24437c"><defs><mask id="a"><rect fill="#fff" width="100%" height="100%"/><path fill="#000" d="M14.258-1.414l-3.229 3.227-1.69-1.69-2.74 2.743 4.432 4.433L17 1.329z"/></mask></defs><path fill="#cb1800" d="M15.586 1.33L14.258 0l-3.229 3.228L9.34 1.539 8.013 2.867l3.018 3.019z"/><path d="M14.085 1.939a6.336 6.336 0 0 1 .002 8.965 6.337 6.337 0 0 1-7.916.847h-.009v2.125l-.013.014H4.022v2.123H.013v-4.014h.01l-.003-.005 3.574-3.573A6.33 6.33 0 0 1 5.122 1.94a6.335 6.335 0 0 1 8.963-.001zm-3.928 3.928z" mask="url(#a)"/></svg>