<svg width="16" height="16" xmlns="http://www.w3.org/2000/svg" viewBox="0 0 16 16" shape-rendering="geometricPrecision" fill="#24437c"><defs><mask id="a"><rect fill="#fff" width="100%" height="100%"/><path fill="#000" d="M14.258-1.414l-3.229 3.227-1.69-1.69-2.74 2.743 4.432 4.433L17 1.329z"/></mask></defs><path fill="#cb1800" d="M15.586 1.33L14.258 0l-3.229 3.228L9.34 1.539 8.013 2.867l3.018 3.019z"/><path d="M2.138 11.963a1.128 1.128 0 1 0 0-2.257 1.128 1.128 0 0 0 0 2.257zm1.049.536H1.085c-.599 0-1.085.49-1.085 1.088v1.414h4.276v-1.414c0-.598-.49-1.088-1.089-1.088zm10.675-.536a1.129 1.129 0 1 0 .002-2.258 1.129 1.129 0 0 0-.002 2.258zm1.049.536H12.81a1.09 1.09 0 0 0-1.086 1.088v1.414H16v-1.414c0-.598-.491-1.088-1.089-1.088zM8.018 2.257a1.128 1.128 0 1 0 0-2.257 1.128 1.128 0 1 0 0 2.257zm1.049.537H6.965c-.599 0-1.085.489-1.085 1.088v1.413h4.276V3.882c0-.599-.49-1.088-1.089-1.088zm-.539 4.195V5.985h-1.02v1.004H1.984v1.984h1.057v-.972h9.972v.972h.945V6.989z" mask="url(#a)"/></svg>