<?xml version="1.0"?><!DOCTYPE svg PUBLIC "-//W3C//DTD SVG 1.1//EN" "http://www.w3.org/Graphics/SVG/1.1/DTD/svg11.dtd"><svg width="16px" height="16px" xmlns="http://www.w3.org/2000/svg" viewBox="0 0 16 16" shape-rendering="geometricPrecision" fill="#6e6e6e"><defs><mask id="decline-path"><rect fill="#fff" width="100%" height="100%"/><polygon points="17.414,1.215 14.79,-1.414 13.066,0.308 11.344,-1.414 8.717,1.213 10.439,2.934 8.715,4.656 11.345,7.284 13.067,5.562 14.789,7.285 17.414,4.655 15.693,2.935 " fill="#000"/></mask></defs><g fill="#cb1800"><polygon points="16,4.656 14.278,2.935 16,1.214 14.789,0.001 13.066,1.722 11.344,0.001 10.132,1.213 11.854,2.934 10.13,4.656 11.345,5.87 13.067,4.147 14.789,5.87 "/></g><g mask="url(#decline-path)"><path d="M10.515,1.979l3.51,3.51v4.964l-3.51,3.51H5.551l-3.51-3.51V5.488l3.51-3.51H10.515 M10.929,0.979H5.137 L1.041,5.074v5.792l4.096,4.096h5.792l4.096-4.096V5.074L10.929,0.979L10.929,0.979z"/><path d="M3.446,8.977c0.252,0.232,0.55,0.418,0.908,0.418c0.431,0,0.709-0.226,0.709-0.656 c0-0.424-0.272-0.65-0.663-0.65c-0.246,0-0.371,0.053-0.623,0.212L3.34,8.023l0.119-2.127h2.386v0.822H4.3L4.227,7.507 c0.159-0.073,0.298-0.1,0.471-0.1c0.723,0,1.339,0.411,1.339,1.306c0,0.934-0.723,1.471-1.544,1.471 c-0.689,0-1.153-0.258-1.484-0.59L3.446,8.977z"/><path d="M6.602,9.547c1.074-1.014,1.829-1.736,1.829-2.333c0-0.411-0.232-0.636-0.596-0.636 c-0.305,0-0.537,0.206-0.749,0.431l-0.53-0.523c0.418-0.444,0.809-0.669,1.412-0.669c0.829,0,1.392,0.53,1.392,1.339 c0,0.709-0.663,1.464-1.345,2.18c0.212-0.026,0.504-0.053,0.703-0.053h0.848v0.822H6.602V9.547z"/><path d="M12.018,7.99c-0.02-0.291-0.166-0.477-0.517-0.477c-0.278,0-0.557,0.113-0.875,0.298l-0.345-0.643 c0.418-0.252,0.888-0.431,1.405-0.431c0.841,0,1.305,0.477,1.305,1.484v1.882h-0.795l-0.073-0.338h-0.02 c-0.278,0.246-0.59,0.418-0.96,0.418c-0.597,0-0.974-0.437-0.974-0.994C10.169,8.5,10.719,8.123,12.018,7.99z M11.475,9.428 c0.225,0,0.371-0.106,0.543-0.278V8.573c-0.696,0.093-0.921,0.291-0.921,0.543C11.097,9.329,11.243,9.428,11.475,9.428z"/></g></svg>