<svg width="16" height="16" xmlns="http://www.w3.org/2000/svg" viewBox="0 0 16 16" shape-rendering="geometricPrecision" fill="#6e6e6e"><defs><mask id="a"><rect fill="#fff" width="100%" height="100%"/><path fill="#000" d="M17.414 1.215L14.79-1.414 13.066.308l-1.722-1.722-2.627 2.627 1.722 1.721-1.724 1.722 2.63 2.628 1.722-1.722 1.722 1.723 2.625-2.63-1.721-1.72z"/></mask></defs><path d="M16 4.656l-1.722-1.721L16 1.214 14.789.001l-1.723 1.721L11.344.001l-1.212 1.212 1.722 1.721-1.724 1.722 1.215 1.214 1.722-1.723 1.722 1.723z" fill="#cb1800"/><path d="M13.031 11.953s-.891 0-1.016-.806c-.187-1.197-.661-4.542-.661-4.542h-.007a3.397 3.397 0 0 0-2.521-2.704c.002-.021.012-.039.012-.06a.852.852 0 0 0-1.704 0c0 .024.012.044.014.068a3.396 3.396 0 0 0-2.495 2.697h-.007s-.501 3.352-.663 4.557c-.106.791-1.014.791-1.014.791v1.031h2.134c.199.598.756 1.031 1.42 1.031s1.222-.434 1.42-1.031h5.087v-1.032z" mask="url(#a)"/></svg>