<svg width="16" height="16" xmlns="http://www.w3.org/2000/svg" viewBox="0 0 16 16" shape-rendering="geometricPrecision" fill="#6e6e6e"><defs><mask id="a"><rect fill="#fff" width="100%" height="100%"/><path fill="#000" d="M17.414 1.215L14.79-1.414 13.066.308l-1.722-1.722-2.627 2.627 1.722 1.721-1.724 1.722 2.63 2.628 1.722-1.722 1.722 1.723 2.625-2.63-1.721-1.72z"/></mask></defs><path d="M16 4.656l-1.722-1.721L16 1.214 14.789.001l-1.723 1.721L11.344.001l-1.212 1.212 1.722 1.721-1.724 1.722 1.215 1.214 1.722-1.723 1.722 1.723z" fill="#cb1800"/><g mask="url(#a)"><path d="M7.468 11.335c-1.04 0-1.782.742-1.782 1.824 0 1.041.722 1.822 1.763 1.822h.02c1.083 0 1.805-.781 1.805-1.822-.021-1.082-.723-1.824-1.806-1.824zm.281-10.317c-1.422 0-2.604.4-3.345.822l.681 2.182c.52-.359 1.322-.6 1.983-.6 1.002.041 1.463.5 1.463 1.203 0 .68-.521 1.32-1.162 2.102-.901 1.063-1.242 2.106-1.181 3.126l.02.521h2.664v-.361c-.02-.9.281-1.682 1.021-2.504.762-.84 1.702-1.842 1.702-3.365 0-1.663-1.2-3.126-3.846-3.126z"/></g></svg>