<svg width="16" height="16" xmlns="http://www.w3.org/2000/svg" viewBox="0 0 16 16" shape-rendering="geometricPrecision" fill="#ffad00"><defs><mask id="a"><rect fill="#fff" width="100%" height="100%"/><path fill="#000" d="M14.258-1.414l-3.229 3.227-1.69-1.69-2.74 2.743 4.432 4.433L17 1.329z"/></mask></defs><path fill="#cb1800" d="M15.586 1.33L14.258 0l-3.229 3.228L9.34 1.539 8.013 2.867l3.018 3.019z"/><path mask="url(#a)" d="M15.98 6.366c-.174-.729-1.551-1.107-3.448-1.107 0 0 .104.154.185.325.083.175.137.377.137.377 1.909.035 2.423.478 2.445.568.069.291-.751 1.064-2.466 1.879a4.913 4.913 0 0 0-9.135-2.886 4.913 4.913 0 0 0 .038 5.042c-.113.003-.236.013-.346.013-2.112 0-2.669-.476-2.692-.57-.061-.264.592-.915 1.973-1.637 0 0-.028-.184-.027-.361.001-.209.027-.417.027-.417C.926 8.459-.157 9.426.019 10.168c.174.729 1.475 1.107 3.372 1.107.268 0 .558-.016.848-.031a4.916 4.916 0 0 0 7.937-.742c.239-.406.408-.833.52-1.267 2.154-.948 3.483-2.035 3.284-2.869zM4.556 6.025a3.928 3.928 0 0 1 5.369-1.397 3.928 3.928 0 0 1 1.837 4.242c-.937.371-2.055.735-3.369 1.048a24.957 24.957 0 0 1-3.483.576 3.924 3.924 0 0 1-.354-4.469zm6.763 3.974a3.928 3.928 0 0 1-5.368 1.393 4.149 4.149 0 0 1-.383-.26 26.342 26.342 0 0 0 2.987-.532 26.373 26.373 0 0 0 2.902-.866c-.044.088-.087.177-.138.265z"/></svg>