<svg width="16" height="16" xmlns="http://www.w3.org/2000/svg" viewBox="0 0 16 16" shape-rendering="geometricPrecision" fill="#ffad00"><defs><mask id="a"><rect fill="#fff" width="100%" height="100%"/><path fill="#000" d="M14.258-1.414l-3.229 3.227-1.69-1.69-2.74 2.743 4.432 4.433L17 1.329z"/></mask></defs><path fill="#cb1800" d="M15.586 1.33L14.258 0l-3.229 3.228L9.34 1.539 8.013 2.867l3.018 3.019z"/><g mask="url(#a)"><path d="M13.826 1.99l-5.027.006L1 9.794l5.038 5.038 7.799-7.799-.011-5.043zm-2.484 4a1.5 1.5 0 1 1 .001-3.001 1.5 1.5 0 0 1-.001 3.001z"/><path d="M2.342 9.668L7.94 4.07l3.823 3.822-5.598 5.599z"/><path d="M3.873 9.85l4.263-4.263.719.718L4.59 10.57zm1.353 1.354L9.489 6.94l.718.719-4.263 4.263z"/></g></svg>