<?xml version="1.0" encoding="utf-8"?>
<!-- Generator: Adobe Illustrator 17.1.0, SVG Export Plug-In . SVG Version: 6.00 Build 0)  -->
<!DOCTYPE svg PUBLIC "-//W3C//DTD SVG 1.1//EN" "http://www.w3.org/Graphics/SVG/1.1/DTD/svg11.dtd">
<svg version="1.1" id="Ebene_1" xmlns="http://www.w3.org/2000/svg" xmlns:xlink="http://www.w3.org/1999/xlink" x="0px" y="0px"
	 viewBox="0 0 841.89 595.28" enable-background="new 0 0 841.89 595.28" xml:space="preserve">
<g>
	<path fill="#134094" d="M763.172,248.355c0-17.639-14.331-31.956-31.97-31.956c-17.652,0-31.941,14.316-31.941,31.956
		s14.289,31.97,31.941,31.97C748.841,280.325,763.172,265.994,763.172,248.355 M731.202,163.272
		c-46.958,0-85.076,38.112-85.09,85.063h25.34c0.006-32.966,26.762-59.743,59.75-59.743c33,0,59.777,26.783,59.777,59.764
		c0,32.985-26.762,59.756-59.75,59.762v25.34c46.978-0.013,85.063-38.139,85.063-85.103S778.193,163.272,731.202,163.272"/>
	<rect x="486.916" y="399.318" fill="#AE0A0D" width="30.641" height="30.641"/>
	<g>
		<path fill="#3C4448" d="M51.002,385.567c10.951,9.524,25.236,16.19,38.093,16.19c14.522,0,21.664-5.714,21.664-14.998
			c0-9.763-8.808-12.858-22.38-18.571l-19.998-8.571c-16.19-6.429-31.427-19.761-31.427-42.378
			c0-25.713,23.095-46.188,55.235-46.188c17.856,0,36.664,7.142,49.996,20.475l-17.617,22.142c-10.239-7.858-20-12.381-32.38-12.381
			c-11.905,0-19.761,5.239-19.761,14.047c0,9.524,10.237,12.856,23.808,18.332l19.761,8.095
			c18.808,7.619,30.712,20.237,30.712,42.141c0,25.713-21.427,48.093-58.33,48.093c-20.236,0-41.664-7.619-57.615-22.38
			L51.002,385.567z"/>
		<path fill="#3C4448" d="M183.378,332.103h-32.983v-27.615h98.952v27.615h-32.985v97.034h-32.983V332.103z"/>
		<path fill="#3C4448" d="M261.155,304.487h32.983v68.269c0,22.246,5.754,30.3,18.794,30.3c13.04,0,19.177-8.055,19.177-30.3
			v-68.269h31.834v64.435c0,42.572-16.109,62.515-51.01,62.515s-51.777-19.943-51.777-62.515V304.487z"/>
		<path fill="#3C4448" d="M379.122,304.487h36.819c37.97,0,64.05,17.643,64.05,61.75c0,44.105-26.08,62.899-62.132,62.899h-38.737
			V304.487z M414.023,402.672c18.027,0,32.218-7.286,32.218-36.435c0-29.149-14.191-35.286-32.218-35.286h-1.916v71.721H414.023z"/>
		<path fill="#3C4448" d="M532.55,273.906h35.236v155.23H532.55V273.906z"/>
		<path fill="#3C4448" d="M584.444,273.906h56.663c33.808,0,60.712,12.381,60.712,49.998c0,36.427-27.856,52.615-60.712,52.615
			h-21.427v52.617h-35.235V273.906z M638.964,348.665c19.285,0,28.569-8.571,28.569-24.761c0-16.19-9.998-22.142-28.569-22.142
			h-19.285v46.903H638.964z"/>
	</g>
</g>
</svg>
