<?xml version="1.0"?><!DOCTYPE svg PUBLIC "-//W3C//DTD SVG 1.1//EN" "http://www.w3.org/Graphics/SVG/1.1/DTD/svg11.dtd"><svg width="16px" height="16px" xmlns="http://www.w3.org/2000/svg" viewBox="0 0 16 16" shape-rendering="geometricPrecision" fill="#00962d"><defs><mask id="visibility-invisible-path"><rect fill="#fff" width="100%" height="100%"/><path d="M12.997,0.858c-1.845,0-3.446,1.039-4.253,2.563c0.808,1.523,2.408,2.562,4.253,2.562 c1.844,0,3.444-1.039,4.253-2.562C16.441,1.897,14.841,0.858,12.997,0.858z" fill="#000"/></mask></defs><g id="visibility-invisible" display="inline" fill="#cb1800"><g><g><path d="M12.997,1.611c-1.303,0-2.433,0.733-3.003,1.81c0.57,1.075,1.7,1.809,3.003,1.809c1.302,0,2.432-0.733,3.003-1.809 C15.429,2.345,14.299,1.611,12.997,1.611z M12.996,5.007c-0.876,0-1.587-0.71-1.587-1.586c0-0.877,0.711-1.588,1.587-1.588 c0.877,0,1.588,0.711,1.588,1.588C14.584,4.297,13.873,5.007,12.996,5.007z"/></g></g></g><g mask="url(#visibility-invisible-path)"><path d="M12.694,4.022c-0.014,0-0.026,0.005-0.04,0.006V3.299c0-0.716-0.581-1.296-1.297-1.296H4.629 c-0.716,0-1.297,0.58-1.297,1.296v0.727c-0.009,0-0.017-0.004-0.026-0.004c-0.254,0-0.459,0.152-0.459,0.339V5.56 c0,0.188,0.206,0.339,0.459,0.339c0.009,0,0.017-0.003,0.026-0.004v1.866v5.291h0.002v0.946h1.4v-0.946h6.519v0.946h1.4v-1.77 h-0.007V7.825c0.001-0.022,0.007-0.042,0.007-0.064V5.894C12.668,5.895,12.68,5.9,12.694,5.9c0.254,0,0.459-0.152,0.459-0.339 V4.362C13.153,4.174,12.947,4.022,12.694,4.022z M5.514,11.832H4.959c-0.357,0-0.647-0.29-0.647-0.647 c0-0.357,0.29-0.647,0.647-0.647h0.555c0.357,0,0.647,0.29,0.647,0.647C6.161,11.542,5.871,11.832,5.514,11.832z M10.871,11.832 h-0.555c-0.357,0-0.647-0.29-0.647-0.647c0-0.357,0.29-0.647,0.647-0.647h0.555c0.358,0,0.647,0.29,0.647,0.647 C11.518,11.542,11.228,11.832,10.871,11.832z M11.805,7.897c0,0.646-0.49,1.169-1.093,1.169H5.275 c-0.604,0-1.093-0.523-1.093-1.169V4.104c0-0.646,0.49-1.169,1.093-1.169h5.437c0.604,0,1.093,0.523,1.093,1.169V7.897z"/></g></svg>