<?xml version="1.0"?><!DOCTYPE svg PUBLIC "-//W3C//DTD SVG 1.1//EN" "http://www.w3.org/Graphics/SVG/1.1/DTD/svg11.dtd"><svg width="16px" height="16px" xmlns="http://www.w3.org/2000/svg" viewBox="0 0 16 16" shape-rendering="geometricPrecision" fill="#00962d"><defs><mask id="visibility-invisible-path"><rect fill="#fff" width="100%" height="100%"/><path d="M12.997,0.858c-1.845,0-3.446,1.039-4.253,2.563c0.808,1.523,2.408,2.562,4.253,2.562 c1.844,0,3.444-1.039,4.253-2.562C16.441,1.897,14.841,0.858,12.997,0.858z" fill="#000"/></mask></defs><g id="visibility-invisible" display="inline" fill="#cb1800"><g><g><path d="M12.997,1.611c-1.303,0-2.433,0.733-3.003,1.81c0.57,1.075,1.7,1.809,3.003,1.809c1.302,0,2.432-0.733,3.003-1.809 C15.429,2.345,14.299,1.611,12.997,1.611z M12.996,5.007c-0.876,0-1.587-0.71-1.587-1.586c0-0.877,0.711-1.588,1.587-1.588 c0.877,0,1.588,0.711,1.588,1.588C14.584,4.297,13.873,5.007,12.996,5.007z"/></g></g></g><g mask="url(#visibility-invisible-path)"><g><path d="M4.271,11.728l4.866-2.562l2.562-4.866L6.833,6.863L4.271,11.728z M7.229,7.259c0.418-0.418,1.095-0.418,1.512,0 c0.418,0.418,0.418,1.095,0,1.512c-0.418,0.418-1.095,0.418-1.512,0C6.811,8.353,6.811,7.676,7.229,7.259z"/><path d="M8.001,1.01c-3.861,0-6.99,3.13-6.99,6.993c0,3.858,3.13,6.985,6.99,6.986c3.86-0.002,6.987-3.129,6.989-6.986 C14.99,4.14,11.861,1.01,8.001,1.01z M9.145,13.455L8,12.31l-1.145,1.145c-2.159-0.454-3.857-2.152-4.31-4.309L3.69,8 L2.546,6.855C3,4.696,4.697,2.999,6.855,2.545L8,3.69l1.145-1.145C11.303,2.998,13,4.696,13.455,6.855L12.31,8l1.146,1.146 C13.003,11.304,11.305,13.002,9.145,13.455z"/></g></g></svg>