<?xml version="1.0"?><!DOCTYPE svg PUBLIC "-//W3C//DTD SVG 1.1//EN" "http://www.w3.org/Graphics/SVG/1.1/DTD/svg11.dtd"><svg width="16px" height="16px" xmlns="http://www.w3.org/2000/svg" viewBox="0 0 16 16" shape-rendering="geometricPrecision" fill="#00962d"><defs><mask id="visibility-invisible-path"><rect fill="#fff" width="100%" height="100%"/><path d="M12.997,0.858c-1.845,0-3.446,1.039-4.253,2.563c0.808,1.523,2.408,2.562,4.253,2.562 c1.844,0,3.444-1.039,4.253-2.562C16.441,1.897,14.841,0.858,12.997,0.858z" fill="#000"/></mask></defs><g id="visibility-invisible" display="inline" fill="#cb1800"><g><g><path d="M12.997,1.611c-1.303,0-2.433,0.733-3.003,1.81c0.57,1.075,1.7,1.809,3.003,1.809c1.302,0,2.432-0.733,3.003-1.809 C15.429,2.345,14.299,1.611,12.997,1.611z M12.996,5.007c-0.876,0-1.587-0.71-1.587-1.586c0-0.877,0.711-1.588,1.587-1.588 c0.877,0,1.588,0.711,1.588,1.588C14.584,4.297,13.873,5.007,12.996,5.007z"/></g></g></g><g mask="url(#visibility-invisible-path)"><path d="M6.655,8.121c0,0.521-0.208,0.992-0.54,1.345h3.925C9.708,9.113,9.5,8.643,9.5,8.121 c0-0.668,0.337-1.259,0.849-1.613c-0.281-0.339-0.701-0.561-1.173-0.561H6.974c-0.472,0-0.889,0.221-1.169,0.56 C6.318,6.861,6.655,7.451,6.655,8.121z"/><circle cx="8.078" cy="3.606" r="1.587"/><circle cx="4.691" cy="8.121" r="1.588"/><path d="M5.79,10.462H3.587c-0.841,0-1.525,0.689-1.525,1.53v1.988H7.32v-1.988 C7.32,11.151,6.631,10.462,5.79,10.462z"/><circle cx="11.464" cy="8.121" r="1.588"/><path d="M12.562,10.462H10.36c-0.841,0-1.525,0.689-1.525,1.53v1.988h5.258v-1.988 C14.093,11.151,13.404,10.462,12.562,10.462z"/></g></svg>