<svg width="16" height="16" xmlns="http://www.w3.org/2000/svg" viewBox="0 0 16 16" shape-rendering="geometricPrecision" fill="#00962d"><defs><mask id="a"><rect fill="#fff" width="100%" height="100%"/><path d="M12.997.858a4.809 4.809 0 0 0-4.253 2.563 4.81 4.81 0 0 0 8.506 0A4.812 4.812 0 0 0 12.997.858z" fill="#000"/></mask></defs><path d="M12.997 1.611a3.394 3.394 0 0 0-3.003 1.81 3.397 3.397 0 0 0 6.006 0 3.398 3.398 0 0 0-3.003-1.81zm-.001 3.396a1.587 1.587 0 1 1 0-3.174 1.587 1.587 0 0 1 0 3.174z" fill="#cb1800"/><g mask="url(#a)"><path d="M3.359 0v1.056h10.329v12.842h1.072V0H3.359zM1.24 16h11.401V2.102H1.24V16zM6.956 3.726a2.65 2.65 0 0 1 2.651 2.651A2.648 2.648 0 0 1 6.956 9.03a2.651 2.651 0 1 1 0-5.304zm-4.509 8.458a2.296 2.296 0 0 1 2.288-2.295H9.17a2.302 2.302 0 0 1 2.296 2.295v2.98H2.447v-2.98z"/></g></svg>