<svg width="16" height="16" xmlns="http://www.w3.org/2000/svg" viewBox="0 0 16 16" shape-rendering="geometricPrecision" fill="#00962d"><defs><mask id="a"><rect fill="#fff" width="100%" height="100%"/><path d="M12.997.858a4.809 4.809 0 0 0-4.253 2.563 4.81 4.81 0 0 0 8.506 0A4.812 4.812 0 0 0 12.997.858z" fill="#000"/></mask></defs><path d="M12.997 1.611a3.394 3.394 0 0 0-3.003 1.81 3.397 3.397 0 0 0 6.006 0 3.398 3.398 0 0 0-3.003-1.81zm-.001 3.396a1.587 1.587 0 1 1 0-3.174 1.587 1.587 0 0 1 0 3.174z" fill="#cb1800"/><g mask="url(#a)"><path d="M11.348 7.312a1.992 1.992 0 0 1 1.779 1.146V4.747H9.053a1.978 1.978 0 0 0 1.081-1.737 1.992 1.992 0 0 0-3.982-.04 1.978 1.978 0 0 0 1.077 1.777H2.873v10.254h2.951a1.992 1.992 0 1 1 2.905-1.747 1.992 1.992 0 0 1-1.083 1.747h5.481v-4.845a1.992 1.992 0 0 1-3.792-.873 1.992 1.992 0 0 1 2.013-1.971z"/></g></svg>