<svg width="16" height="16" xmlns="http://www.w3.org/2000/svg" viewBox="0 0 16 16" shape-rendering="geometricPrecision" fill="#ffad00"><defs><mask id="a"><rect fill="#fff" width="100%" height="100%"/><path fill="#000" d="M14.5 1.716L13-.371l-1.501 2.087-1.982-2.76-.836.011 1.888 6.811h4.86l1.884-6.792-.841-.013z"/></mask></defs><path fill="#FCC70A" d="M14.858 5.028H11.14L9.999.914l.749 1.043.751 1.045.75-1.045L13 .914l.75 1.043.749 1.045.751-1.045L16 .914z"/><path mask="url(#a)" d="M0 0v16h16V0H0zm15 7.876h-1.652l-1.284-2.625-1.32 2.625h-1.1l-.215.59L8.03 4.205l-1.868 7.419L4.268 1H15v6.876zM4.22 1L2.129 7.876H1V1h3.22zM1 8.876h1.87l1.127-3.701L5.751 15H1V8.876zM6.36 15l1.797-7.203 1.222 3.722.964-2.643h1.017l.691-1.375.672 1.375H15V15H6.36z"/></svg>