<svg width="16" height="16" xmlns="http://www.w3.org/2000/svg" viewBox="0 0 16 16" shape-rendering="geometricPrecision" fill="#ffad00"><defs><mask id="a"><rect fill="#fff" width="100%" height="100%"/><path fill="#000" d="M14.5 1.716L13-.371l-1.501 2.087-1.982-2.76-.836.011 1.888 6.811h4.86l1.884-6.792-.841-.013z"/></mask></defs><path fill="#FCC70A" d="M14.858 5.028H11.14L9.999.914l.749 1.043.751 1.045.75-1.045L13 .914l.75 1.043.749 1.045.751-1.045L16 .914z"/><path d="M13.669 14.814L16 12.486 11.515 8 16 3.512l-2.329-2.326-6.815 6.818 6.813 6.81zM4.66 8l4.485-4.488-2.329-2.326L0 8.004l6.814 6.811 2.331-2.328L4.66 8z" mask="url(#a)"/></svg>