<svg width="16" height="16" xmlns="http://www.w3.org/2000/svg" viewBox="0 0 16 16" shape-rendering="geometricPrecision" fill="#ffad00"><defs><mask id="a"><rect fill="#fff" width="100%" height="100%"/><path fill="#000" d="M14.5 1.716L13-.371l-1.501 2.087-1.982-2.76-.836.011 1.888 6.811h4.86l1.884-6.792-.841-.013z"/></mask></defs><path fill="#FCC70A" d="M14.858 5.028H11.14L9.999.914l.749 1.043.751 1.045.75-1.045L13 .914l.75 1.043.749 1.045.751-1.045L16 .914z"/><path mask="url(#a)" d="M8.255 6.028v-.806c0-1.318.144-1.61 1.711-1.61h2.025L12 .994H8.562c-1.913 0-2.85 1.02-2.85 2.983v2.051H4.229v2.617h1.483v6.284l2.497.006c.007-3.073.021-6.29.021-6.29h3.75l.012-2.617H8.255z"/></svg>