<svg width="16" height="16" xmlns="http://www.w3.org/2000/svg" viewBox="0 0 16 16" shape-rendering="geometricPrecision" fill="#ffad00"><defs><mask id="a"><rect fill="#fff" width="100%" height="100%"/><path fill="#000" d="M14.5 1.716L13-.371l-1.501 2.087-1.982-2.76-.836.011 1.888 6.811h4.86l1.884-6.792-.841-.013z"/></mask></defs><path fill="#FCC70A" d="M14.858 5.028H11.14L9.999.914l.749 1.043.751 1.045.75-1.045L13 .914l.75 1.043.749 1.045.751-1.045L16 .914z"/><g mask="url(#a)"><path d="M13.125 5.495v8h-12v-8h12m1-1h-14v10h14v-10z"/><path d="M7.175 2.995l-.299-1.49h-4l-.3 1.49H1.375v1h13.5v9.5l1-1v-9.5z"/><path d="M5.919 8.172a1.09 1.09 0 1 1 2.183 0v.542h.667v-.542a1.759 1.759 0 1 0-3.517 0v.542h.667v-.542zM4.68 9.177v3.401h4.66V9.177H4.68zm2.741 2.266a.41.41 0 0 1-.821 0v-1.13a.41.41 0 0 1 .821 0v1.13z"/></g></svg>