<?xml version="1.0"?><!DOCTYPE svg PUBLIC "-//W3C//DTD SVG 1.1//EN" "http://www.w3.org/Graphics/SVG/1.1/DTD/svg11.dtd"><svg width="16px" height="16px" xmlns="http://www.w3.org/2000/svg" viewBox="0 0 16 16" shape-rendering="geometricPrecision" fill="#ffad00"><defs><mask id="crown-path"><rect fill="#fff" width="100%" height="100%"/><polygon points="14.5,1.716 13,-0.371 11.499,1.716 9.517,-1.044 8.681,-1.033 10.569,5.778 15.429,5.778 17.313,-1.014 16.472,-1.027 " fill="#000"/></mask></defs><g id="crown" display="inline" fill="#cb1800"><polygon fill="#FCC70A" points="14.858,5.028 11.14,5.028 9.999,0.914 10.748,1.957 11.499,3.002 12.249,1.957 13,0.914 13.75,1.957 14.499,3.002 15.25,1.957 16,0.914 "/></g><g mask="url(#crown-path)"><path d="M13.125,5.495v8h-12v-8H13.125 M14.125,4.495h-14v10h14V4.495L14.125,4.495z"/><polygon points="7.175,2.995 6.876,1.505 2.876,1.505 2.576,2.995 1.375,2.995 1.375,3.995 2.375,3.995 7.375,3.995 14.875,3.995 14.875,13.495 15.875,12.495 15.875,2.995"/><g><path d="M5.919,8.172c0-0.604,0.489-1.091,1.092-1.091c0.602,0,1.091,0.488,1.091,1.091v0.542h0.667V8.172 c0-0.971-0.787-1.759-1.758-1.759c-0.971,0-1.759,0.788-1.759,1.759v0.542h0.667V8.172z M4.68,9.177v3.401h4.66V9.177H4.68z M7.421,11.443c0,0.226-0.183,0.409-0.409,0.409c-0.227,0-0.412-0.183-0.412-0.409v-1.13c0-0.225,0.184-0.409,0.41-0.409 c0.228,0,0.411,0.184,0.411,0.409V11.443z"/></g></g></svg>