<svg width="16" height="16" xmlns="http://www.w3.org/2000/svg" viewBox="0 0 16 16" shape-rendering="geometricPrecision" fill="#ffad00"><defs><mask id="a"><rect fill="#fff" width="100%" height="100%"/><path fill="#000" d="M14.5 1.716L13-.371l-1.501 2.087-1.982-2.76-.836.011 1.888 6.811h4.86l1.884-6.792-.841-.013z"/></mask></defs><path fill="#FCC70A" d="M14.858 5.028H11.14L9.999.914l.749 1.043.751 1.045.75-1.045L13 .914l.75 1.043.749 1.045.751-1.045L16 .914z"/><g mask="url(#a)"><path d="M14.49 13.12L14.479-.001H4.034C2.658.002 1.536.618 1.513 1.986c-.003.025-.003.529 0 .535v.003c0 .04.009.076.011.117h-.009v10.826a2.532 2.532 0 0 0 2.529 2.531h8.386l-.038-1.689-.009-11.344h-8.35c-.496 0-1.68-.048-1.68-.978v-.094C2.404 1.008 3.537.841 4.033.841h9.593V13.12h.864zM4.011 3.966h7.35l.004 10.992L4.851 15a2.532 2.532 0 0 1-2.529-2.531s-.005-9.456-.002-9.481h.011c0 .93 1.184.978 1.68.978z"/><path d="M4.525 5.764h5.506v1.247H4.525zm0 2.582h5.506v1.243H4.525z"/></g></svg>