<?xml version="1.0"?><!DOCTYPE svg PUBLIC "-//W3C//DTD SVG 1.1//EN" "http://www.w3.org/Graphics/SVG/1.1/DTD/svg11.dtd"><svg width="16px" height="16px" xmlns="http://www.w3.org/2000/svg" viewBox="0 0 16 16" shape-rendering="geometricPrecision" fill="#ffad00"><defs><mask id="crown-path"><rect fill="#fff" width="100%" height="100%"/><polygon points="14.5,1.716 13,-0.371 11.499,1.716 9.517,-1.044 8.681,-1.033 10.569,5.778 15.429,5.778 17.313,-1.014 16.472,-1.027 " fill="#000"/></mask></defs><g id="crown" display="inline" fill="#cb1800"><polygon fill="#FCC70A" points="14.858,5.028 11.14,5.028 9.999,0.914 10.748,1.957 11.499,3.002 12.249,1.957 13,0.914 13.75,1.957 14.499,3.002 15.25,1.957 16,0.914 "/></g><g mask="url(#crown-path)"><path d="M15.064,12.939l-0.117-4.781c0.019-0.081,0.023-0.198,0.023-0.367c0-0.663,0-0.966,0-0.966 c0-0.724,0.061-3.199,0.061-4.044s-0.725-0.181-1.026,0.905c-0.302,1.087-0.785,4.527,0.06,4.588 c0.057,0.004,0.101,0.008,0.151,0.013l-0.11,4.652H15.064z"/><path d="M3.276,5.169c0-0.613-0.209-2.736-0.418-2.736c-0.209,0-0.077,2.736-0.229,2.736 c-0.153,0-0.287-2.693-0.458-2.693h-0.01c-0.171,0-0.305,2.693-0.457,2.693S1.685,2.433,1.476,2.433 c-0.21,0-0.419,2.123-0.419,2.736c0,0.557,0.238,1.02,0.753,1.101l-0.123,6.67h0.958l-0.126-6.67 C3.036,6.19,3.276,5.728,3.276,5.169z"/><path d="M8.27,3.085c-2.63,0-4.762,2.132-4.762,4.763c0,2.63,2.132,4.762,4.762,4.762 c2.631,0,4.763-2.132,4.763-4.762C13.033,5.217,10.901,3.085,8.27,3.085z M8.27,11.181c-1.841,0-3.333-1.492-3.333-3.333 c0-1.842,1.492-3.335,3.333-3.335c1.841,0,3.334,1.493,3.334,3.335C11.604,9.688,10.111,11.181,8.27,11.181z"/></g></svg>