<svg width="16" height="16" xmlns="http://www.w3.org/2000/svg" viewBox="0 0 16 16" shape-rendering="geometricPrecision" fill="#ffad00"><defs><mask id="a"><rect fill="#fff" width="100%" height="100%"/><path fill="#000" d="M14.5 1.716L13-.371l-1.501 2.087-1.982-2.76-.836.011 1.888 6.811h4.86l1.884-6.792-.841-.013z"/></mask></defs><path fill="#FCC70A" d="M14.858 5.028H11.14L9.999.914l.749 1.043.751 1.045.75-1.045L13 .914l.75 1.043.749 1.045.751-1.045L16 .914z"/><g mask="url(#a)"><path d="M14.818 5.818c-.4-2.076-3.738-2.209-5.541-2.209H6.705c-1.801 0-5.08.295-5.514 2.183l-.111.735-.021.54h1.848c.766-.584 2.014-1.203 2.903-1.527.436-.426 1.138-.576 1.696-.576H8.53c.578 0 1.321.088 1.753.581.877.326 2.1.943 2.853 1.523h1.799l.006-.517-.123-.733z"/><path d="M14.082 10.512c0-.623-.497-2.442-.497-2.442-.235-.777-3.503-2.342-4.193-2.342H6.7c-.689 0-4.017 1.565-4.252 2.342 0 0-.497 1.819-.497 2.442 0 .488-.004 1.445-.004 1.445h12.138s-.003-.957-.003-1.445zM8 10.935a2.102 2.102 0 1 1 0-4.204 2.102 2.102 0 0 1 0 4.204z"/></g></svg>