<svg width="16" height="16" xmlns="http://www.w3.org/2000/svg" viewBox="0 0 16 16" shape-rendering="geometricPrecision" fill="#ffad00"><defs><mask id="a"><rect fill="#fff" width="100%" height="100%"/><path fill="#000" d="M14.5 1.716L13-.371l-1.501 2.087-1.982-2.76-.836.011 1.888 6.811h4.86l1.884-6.792-.841-.013z"/></mask></defs><path fill="#FCC70A" d="M14.858 5.028H11.14L9.999.914l.749 1.043.751 1.045.75-1.045L13 .914l.75 1.043.749 1.045.751-1.045L16 .914z"/><g mask="url(#a)"><path d="M10.128 6.094c-.864-.014-1.742-.014-2.921 0-1.18.013-1.701.356-1.866.932S4.367 10.4 4.367 10.4H5.78L6.562 8s2.757-.014 4.032-.014 1.193-.411 1.221-1.001-.823-.878-1.687-.891zm.809.946c-.055.288-.192.439-.85.425-.658-.014-3.429 0-3.429 0s.027-.206.11-.48c.082-.274.247-.37 1.015-.37s1.783.027 2.345.027c.562 0 .864.11.809.398z"/><path d="M8.001 1.79a6.212 6.212 0 0 0 0 12.421 6.21 6.21 0 0 0 0-12.421zm0 11.163a4.961 4.961 0 0 1-4.955-4.951 4.962 4.962 0 0 1 4.955-4.956 4.96 4.96 0 0 1 4.953 4.956 4.959 4.959 0 0 1-4.953 4.951z"/></g></svg>