<svg width="16" height="16" xmlns="http://www.w3.org/2000/svg" viewBox="0 0 16 16" shape-rendering="geometricPrecision" fill="#ffad00"><defs><mask id="a"><rect fill="#fff" width="100%" height="100%"/><path fill="#000" d="M14.5 1.716L13-.371l-1.501 2.087-1.982-2.76-.836.011 1.888 6.811h4.86l1.884-6.792-.841-.013z"/></mask></defs><path fill="#FCC70A" d="M14.858 5.028H11.14L9.999.914l.749 1.043.751 1.045.75-1.045L13 .914l.75 1.043.749 1.045.751-1.045L16 .914z"/><g mask="url(#a)"><path d="M-.001 8.59h7.406V16H-.001zm8.556 0V16H16V8.59H8.555zm6.297 5.206l-1.063 1.061-1.51-1.504-1.511 1.504-1.064-1.06 1.511-1.503-1.51-1.504 1.063-1.059 1.511 1.505 1.51-1.505 1.063 1.061-1.511 1.502 1.511 1.502zM4.276.073v7.41h7.368V.073H4.276zm3.076 6.049L4.96 3.717l1.051-1.059L7.35 4.004l2.559-2.572 1.054 1.06-3.611 3.63z"/></g></svg>