<svg width="16" height="16" xmlns="http://www.w3.org/2000/svg" viewBox="0 0 16 16" shape-rendering="geometricPrecision" fill="#ffad00"><defs><mask id="a"><rect fill="#fff" width="100%" height="100%"/><path fill="#000" d="M14.5 1.716L13-.371l-1.501 2.087-1.982-2.76-.836.011 1.888 6.811h4.86l1.884-6.792-.841-.013z"/></mask></defs><path fill="#FCC70A" d="M14.858 5.028H11.14L9.999.914l.749 1.043.751 1.045.75-1.045L13 .914l.75 1.043.749 1.045.751-1.045L16 .914z"/><g mask="url(#a)"><path d="M10.692 3.736H7.596v8.984h3.096V3.736zM6.403 8.562H3.305v4.158h3.098V8.562zm5.484-2.109v6.268h3.096V6.453h-3.096zM2.115 5.73H1.017V15l.799-.002V15h13.167v-1.1H2.114l.001-8.17z"/></g></svg>