<svg width="16" height="16" xmlns="http://www.w3.org/2000/svg" viewBox="0 0 16 16" shape-rendering="geometricPrecision" fill="#ffad00"><defs><mask id="a"><rect fill="#fff" width="100%" height="100%"/><path fill="#000" d="M12.892-.396l-4.507 4.51 2.471 2.471 2.038-2.036 2.037 2.035 2.473-2.47z"/></mask></defs><path fill="#cb1800" d="M12.894 3.136l2.037 2.035 1.058-1.057-3.097-3.096-3.093 3.096 1.057 1.057z"/><g mask="url(#a)"><path d="M6.799 3.47L6.5 1.979h-4L2.2 3.47H.999v10h14v-10h-8.2zm7.201 9H2v-8h12v8z"/><circle cx="5.864" cy="7.27" r=".858"/><path d="M6.255 8.536h-.784a.828.828 0 0 0-.825.828v1.074h2.436V9.364a.83.83 0 0 0-.827-.828z"/><circle cx="10.136" cy="8.287" r=".858"/><path d="M10.526 9.552h-.783a.827.827 0 0 0-.824.827v1.075h2.436v-1.075a.832.832 0 0 0-.829-.827z"/><circle cx="7.763" cy="6.321" r=".858"/><path d="M8.981 9.489V8.414a.83.83 0 0 0-.827-.827H7.37a.825.825 0 0 0-.821.794c.425.127.737.517.737.983v.125h1.695z"/></g></svg>