<?xml version="1.0"?><!DOCTYPE svg PUBLIC "-//W3C//DTD SVG 1.1//EN" "http://www.w3.org/Graphics/SVG/1.1/DTD/svg11.dtd"><svg width="16px" height="16px" xmlns="http://www.w3.org/2000/svg" viewBox="0 0 16 16" shape-rendering="geometricPrecision" fill="#ffad00"><defs><mask id="move_up-path"><rect fill="#fff" width="100%" height="100%"/><polygon points="12.892,-0.396 8.385,4.114 10.856,6.585 12.894,4.549 14.931,6.584 17.404,4.114 " fill="#000"/></mask></defs><polygon points="12.894,3.136 14.931,5.171 15.989,4.114 12.892,1.018 9.799,4.114 10.856,5.171 " fill="#cb1800"/><g mask="url(#move_up-path)"><g><polygon points="9.667,4.755 9.452,5.929 14.041,5.929 14.041,12.929 8.168,12.929 7.971,14 15.139,14 15.139,4.755"/><polygon points="7.151,11.929 1.916,11.929 1.916,4.929 8.435,4.929 8.651,3.755 7.394,3.755 6.578,1.832 2.798,1.832 1.982,3.755 0.861,3.755 0.861,13 6.955,13"/></g></g></svg>