<svg width="16" height="16" xmlns="http://www.w3.org/2000/svg" viewBox="0 0 16 16" shape-rendering="geometricPrecision" fill="#ffad00"><defs><mask id="a"><rect fill="#fff" width="100%" height="100%"/><path fill="#000" d="M12.892-.396l-4.507 4.51 2.471 2.471 2.038-2.036 2.037 2.035 2.473-2.47z"/></mask></defs><path fill="#cb1800" d="M12.894 3.136l2.037 2.035 1.058-1.057-3.097-3.096-3.093 3.096 1.057 1.057z"/><path d="M2.131 11.885V7.242l2.654 2.654 3.757-3.758 1.98 1.981 3.566-3.565-.92-.919-2.645 2.641-1.06-1.059.009-.009-.92-.92-3.768 3.765L2.14 5.411l-.009.01V3.738H1.037v9.242l.797-.002v.002h13.129v-1.095z" mask="url(#a)"/></svg>