<svg width="16" height="16" xmlns="http://www.w3.org/2000/svg" viewBox="0 0 16 16" shape-rendering="geometricPrecision" fill="#ffad00"><defs><mask id="a"><rect fill="#fff" width="100%" height="100%"/><path fill="#000" d="M12.892-.396l-4.507 4.51 2.471 2.471 2.038-2.036 2.037 2.035 2.473-2.47z"/></mask></defs><path fill="#cb1800" d="M12.894 3.136l2.037 2.035 1.058-1.057-3.097-3.096-3.093 3.096 1.057 1.057z"/><g mask="url(#a)"><path d="M7.271 8.729H1.03v.001a6.242 6.242 0 0 0 6.238 6.239h.002v-6.24z"/><path d="M8.83.928a6.24 6.24 0 0 0-6.238 6.236H4.45a4.382 4.382 0 1 1 4.384 4.384v1.857a6.241 6.241 0 0 0 6.235-6.24A6.24 6.24 0 0 0 8.83.928zm2.344 6.237a2.343 2.343 0 0 0-4.686-.001h2.346v2.345a2.345 2.345 0 0 0 2.34-2.344z"/></g></svg>