<?xml version="1.0"?><!DOCTYPE svg PUBLIC "-//W3C//DTD SVG 1.1//EN" "http://www.w3.org/Graphics/SVG/1.1/DTD/svg11.dtd"><svg width="16px" height="16px" xmlns="http://www.w3.org/2000/svg" viewBox="0 0 16 16" shape-rendering="geometricPrecision" fill="#ffad00"><defs><mask id="move_up-path"><rect fill="#fff" width="100%" height="100%"/><polygon points="12.892,-0.396 8.385,4.114 10.856,6.585 12.894,4.549 14.931,6.584 17.404,4.114 " fill="#000"/></mask></defs><polygon points="12.894,3.136 14.931,5.171 15.989,4.114 12.892,1.018 9.799,4.114 10.856,5.171 " fill="#cb1800"/><g mask="url(#move_up-path)"><g><path d="M15.387,12.386L11.35,8.347l-3.029,3.029l4.035,4.034c0.784,0.783,2.092,0.741,2.932-0.099 C16.124,14.476,16.167,13.163,15.387,12.386z"/><path d="M7.678,4.667c0.248-1.228-0.103-2.551-1.054-3.502C5.577,0.119,4.087-0.186,2.765,0.211l2.109,2.112L4.262,4.221 L2.296,4.9L0.188,2.788C-0.21,4.112,0.097,5.6,1.139,6.647c0.951,0.952,2.275,1.3,3.503,1.056L7.678,4.667z"/></g><g><polygon points="0.036,15.915 1.91,15.337 0.636,14.059"/><polygon points="1.176,12.288 3.672,14.803 13.784,4.738 11.287,2.223"/><path d="M15.484,0.551c-0.687-0.694-1.801-0.697-2.499-0.017l-1.008,1l2.497,2.517l1.011-1.003l-0.002-0.001 C16.17,2.357,16.174,1.239,15.484,0.551z"/></g></g></svg>