<svg width="16" height="16" xmlns="http://www.w3.org/2000/svg" viewBox="0 0 16 16" shape-rendering="geometricPrecision" fill="#ffad00"><defs><mask id="a"><rect fill="#fff" width="100%" height="100%"/><path fill="#000" d="M12.892-.396l-4.507 4.51 2.471 2.471 2.038-2.036 2.037 2.035 2.473-2.47z"/></mask></defs><path fill="#cb1800" d="M12.894 3.136l2.037 2.035 1.058-1.057-3.097-3.096-3.093 3.096 1.057 1.057z"/><path d="M8 3.181a9.045 9.045 0 0 0-8 4.82 9.05 9.05 0 1 0 16 0 9.049 9.049 0 0 0-8-4.82zm-.002 9.047a4.23 4.23 0 0 1-4.229-4.227 4.23 4.23 0 0 1 8.459 0 4.228 4.228 0 0 1-4.23 4.227z" mask="url(#a)"/></svg>