<svg width="16" height="16" xmlns="http://www.w3.org/2000/svg" viewBox="0 0 16 16" shape-rendering="geometricPrecision" fill="#cb1800"><defs><mask id="a"><rect fill="#fff" width="100%" height="100%"/><path d="M17.514 2.671l-.862-.552L16.65-1h-2.866v.558A4.044 4.044 0 0 0 10.061.625c-1.569 1.569-1.554 4.141.035 5.732a4.084 4.084 0 0 0 2.901 1.205 3.98 3.98 0 0 0 2.831-1.168A3.973 3.973 0 0 0 17 3.557v-.886h.514zm-3.373.887c0 .22-.058.539-.333.813-.443.443-1.23.426-1.69-.035-.475-.475-.49-1.234-.036-1.689.011-.011.021-.022.033-.031v.922h2.026v.02z" fill="#000"/></mask></defs><path d="M13.114 2.537h2.538L15.651 0h-.867v1.105c-1.204-.927-2.924-.863-4.016.227-1.187 1.188-1.162 3.119.035 4.317 1.201 1.198 3.131 1.224 4.319.037A2.996 2.996 0 0 0 16 3.558l-.859.001a2.137 2.137 0 0 1-.627 1.521c-.843.842-2.231.836-3.104-.036-.871-.872-.877-2.26-.035-3.105.729-.727 1.86-.818 2.721-.268h-.983l.001.866z"/><g mask="url(#a)"><path d="M7.045 11.946h.995v.995h-.995zm1.991 1.99h1.99v-.995h-.995v-.995h-.995zm.995-5.972v.997H8.04v-.997h1.991V6.97h-.995v-.995H7.045v.995H6.05v1.991h.995v.995h.995v.995h1.991v-.995h.995v.995h1.99v-.995h-.995V6.97h-.995v.994zm0 2.987h.995v.995h-.995zM1.075 6.97h.995v.994h-.995z"/><path d="M3.065 5.975H6.05v-1.99h.995V2.99H6.05V1H1.075v4.974h.995v.996h.995v-.995zm-.995-3.98h2.985V4.98H2.07V1.995zm9.951 12.936h.995v-.995h.995v-.995h-.995v-.995h-.995zm.995-3.98h.995v.995h-.995zm.995-2.987h.995v.997h-.995zM3.065 11.946h.995v.995h-.995z"/><path d="M6.05 10.951v-.995H4.06v-.995h.995V6.97H4.06v.994h-.995v1.992h-1.99v4.974H6.05v-.994h.995v-.995H6.05v-1.99zm-3.98 2.985v-2.985h2.985v2.985H2.07zM3.065 2.99h.995v.995h-.995zm8.956 0h.995v.995h-.995z"/><path d="M14.011 1h-3.98v.995H8.04V4.98h.996V2.99h.995v3.98h.995v-.995h3.98V1h-.995zm0 3.98h-2.985V1.995h2.985V4.98z"/></g></svg>