<svg width="16" height="16" xmlns="http://www.w3.org/2000/svg" viewBox="0 0 16 16" shape-rendering="geometricPrecision" fill="#cb1800"><defs><mask id="a"><rect fill="#fff" width="100%" height="100%"/><path d="M17.514 2.671l-.862-.552L16.65-1h-2.866v.558A4.044 4.044 0 0 0 10.061.625c-1.569 1.569-1.554 4.141.035 5.732a4.084 4.084 0 0 0 2.901 1.205 3.98 3.98 0 0 0 2.831-1.168A3.973 3.973 0 0 0 17 3.557v-.886h.514zm-3.373.887c0 .22-.058.539-.333.813-.443.443-1.23.426-1.69-.035-.475-.475-.49-1.234-.036-1.689.011-.011.021-.022.033-.031v.922h2.026v.02z" fill="#000"/></mask></defs><path d="M13.114 2.537h2.538L15.651 0h-.867v1.105c-1.204-.927-2.924-.863-4.016.227-1.187 1.188-1.162 3.119.035 4.317 1.201 1.198 3.131 1.224 4.319.037A2.996 2.996 0 0 0 16 3.558l-.859.001a2.137 2.137 0 0 1-.627 1.521c-.843.842-2.231.836-3.104-.036-.871-.872-.877-2.26-.035-3.105.729-.727 1.86-.818 2.721-.268h-.983l.001.866z"/><path d="M5.971 12.849l1.54-.579-1.133-1.008-.407 1.587zm4.751-7.577V2.403H-.001V15.94h10.723V9.75l3.569-4.011-2.221-1.982-1.348 1.515zM9.618 6.514L6.74 9.748l2.221 1.983.657-.739v3.843H1.1V3.505h8.518v3.009zm5.884-4.373a1.488 1.488 0 0 0-2.096.113l-.792.889 2.222 1.985.796-.893-.002-.001a1.49 1.49 0 0 0-.128-2.093zM6.456 7.633H2.533v1.103h3.923V7.633zM4.863 5.291h-2.33v1.102h2.33V5.291z" mask="url(#a)"/></svg>