<?xml version="1.0"?><!DOCTYPE svg PUBLIC "-//W3C//DTD SVG 1.1//EN" "http://www.w3.org/Graphics/SVG/1.1/DTD/svg11.dtd"><svg width="16px" height="16px" xmlns="http://www.w3.org/2000/svg" viewBox="0 0 16 16" shape-rendering="geometricPrecision" fill="#cb1800"><defs><mask id="refresh-path"><rect fill="#fff" width="100%" height="100%"/><path d="M17.514,2.671l-0.862-0.552L16.65-1h-2.866v0.558c-1.334-0.3-2.758,0.103-3.723,1.067 c-1.569,1.569-1.554,4.141,0.035,5.732c0.779,0.777,1.809,1.205,2.901,1.205c1.071,0,2.077-0.415,2.831-1.168 C16.585,5.639,17.001,4.631,17,3.557l0-0.886H17.514z M14.141,3.558c0,0.22-0.058,0.539-0.333,0.813 c-0.443,0.443-1.23,0.426-1.69-0.035c-0.475-0.475-0.49-1.234-0.036-1.689c0.011-0.011,0.021-0.022,0.033-0.031l0,0.922h2.026 V3.558z" fill="#000"/></mask></defs><path display="inline" d="M13.114,2.537h2.538L15.651,0h-0.867v1.105 c-1.204-0.927-2.924-0.863-4.016,0.227C9.581,2.52,9.606,4.451,10.803,5.649c1.201,1.198,3.131,1.224,4.319,0.037 C15.707,5.102,16.001,4.329,16,3.558l-0.859,0.001c-0.001,0.557-0.208,1.102-0.627,1.521c-0.843,0.842-2.231,0.836-3.104-0.036 c-0.871-0.872-0.877-2.26-0.035-3.105c0.729-0.727,1.86-0.818,2.721-0.268h-0.983L13.114,2.537z" fill="#cb1800"/><g mask="url(#refresh-path)"><g><polygon points="10.021,15.177 13.458,12.012 10.021,12.012"/><path d="M2.02,0v16h7.021v-4.905h4.941V0H2.02z M13,9.97h-5l0,5H3.083v-14H13V9.97z"/></g><rect x="6.999" y="2.97" width="1" height="1"/><rect x="7.999" y="3.97" width="1" height="1"/><rect x="6.999" y="4.97" width="1" height="1"/><rect x="7.999" y="5.97" width="1" height="1"/><rect x="6.999" y="6.97" width="1" height="1"/><rect x="7.999" y="7.97" width="1" height="1"/><rect x="6.999" y="8.97" width="1" height="1"/><rect x="6.999" y="10.97" width="1" height="1"/><rect x="6.999" y="12.97" width="1" height="1"/><rect x="6.975" width="2.024" height="1.97"/><path d="M7.583,4.414L7.583,4.414c0.366-0.959,0.366-0.959,0.634-1.663l0,0c0.146-0.386,0.002-0.835-0.365-1.056 c-0.368-0.22-0.833-0.136-1.104,0.177H6.747C6.254,2.439,6.254,2.439,5.579,3.215l0.001,0.001 C5.536,3.268,5.494,3.322,5.458,3.383c-0.336,0.563-0.154,1.29,0.408,1.628c0.562,0.337,1.291,0.152,1.627-0.408 C7.529,4.541,7.559,4.477,7.583,4.414z M7.157,2.855C6.929,2.718,6.856,2.423,6.992,2.195C7.129,1.968,7.423,1.895,7.65,2.03 c0.228,0.137,0.302,0.43,0.166,0.658C7.679,2.915,7.384,2.989,7.157,2.855z"/><rect x="7.999" y="1.97" width="1" height="1"/></g></svg>