<svg width="16" height="16" xmlns="http://www.w3.org/2000/svg" viewBox="0 0 16 16" shape-rendering="geometricPrecision" fill="#cb1800"><defs><mask id="a"><rect fill="#fff" width="100%" height="100%"/><path d="M17.514 2.671l-.862-.552L16.65-1h-2.866v.558A4.044 4.044 0 0 0 10.061.625c-1.569 1.569-1.554 4.141.035 5.732a4.084 4.084 0 0 0 2.901 1.205 3.98 3.98 0 0 0 2.831-1.168A3.973 3.973 0 0 0 17 3.557v-.886h.514zm-3.373.887c0 .22-.058.539-.333.813-.443.443-1.23.426-1.69-.035-.475-.475-.49-1.234-.036-1.689.011-.011.021-.022.033-.031v.922h2.026v.02z" fill="#000"/></mask></defs><path d="M13.114 2.537h2.538L15.651 0h-.867v1.105c-1.204-.927-2.924-.863-4.016.227-1.187 1.188-1.162 3.119.035 4.317 1.201 1.198 3.131 1.224 4.319.037A2.996 2.996 0 0 0 16 3.558l-.859.001a2.137 2.137 0 0 1-.627 1.521c-.843.842-2.231.836-3.104-.036-.871-.872-.877-2.26-.035-3.105.729-.727 1.86-.818 2.721-.268h-.983l.001.866z"/><g mask="url(#a)"><path d="M6.35 5.582a2.92 2.92 0 0 1 3.301 0l1.471-1.47A4.965 4.965 0 0 0 8 3.011a4.97 4.97 0 0 0-3.122 1.1L6.35 5.582zm-.767.767L4.112 4.878A4.962 4.962 0 0 0 3.011 8c0 1.182.413 2.267 1.1 3.121L5.582 9.65A2.912 2.912 0 0 1 5.072 8c0-.613.189-1.181.511-1.651zm4.835 3.302l1.47 1.47A4.965 4.965 0 0 0 12.988 8a4.962 4.962 0 0 0-1.101-3.122l-1.471 1.471c.324.47.512 1.038.512 1.651s-.188 1.181-.51 1.651zm-.767.767c-.47.321-1.038.51-1.651.51a2.917 2.917 0 0 1-1.651-.51l-1.471 1.471c.855.687 1.94 1.1 3.122 1.1a4.962 4.962 0 0 0 3.122-1.101l-1.471-1.47z"/><path d="M7.934 14.81a3.957 3.957 0 0 1-2.814-1.173l-2.756-2.756C.824 9.342.8 6.862 2.309 5.353l3.045-3.044A3.803 3.803 0 0 1 8.067 1.19c1.058 0 2.058.416 2.814 1.172l2.756 2.756a3.97 3.97 0 0 1 1.173 2.77 3.81 3.81 0 0 1-1.118 2.758l-3.045 3.045a3.81 3.81 0 0 1-2.713 1.119zm.133-12.62c-.762 0-1.475.293-2.006.825L3.016 6.06c-1.12 1.119-1.095 2.964.054 4.114l2.756 2.756c1.113 1.113 3.028 1.141 4.113.055l3.045-3.045a2.81 2.81 0 0 0 .825-2.039 2.966 2.966 0 0 0-.88-2.074L10.174 3.07a2.967 2.967 0 0 0-2.107-.88z"/></g></svg>