<svg width="16" height="16" xmlns="http://www.w3.org/2000/svg" viewBox="0 0 16 16" shape-rendering="geometricPrecision" fill="#cb1800"><defs><mask id="a"><rect fill="#fff" width="100%" height="100%"/><path d="M17.514 2.671l-.862-.552-.002-3.119h-2.866v.558c-1.334-.3-2.758.103-3.723 1.067-1.569 1.569-1.554 4.141.035 5.732.779.777 1.809 1.205 2.901 1.205 1.071 0 2.077-.415 2.831-1.168.757-.755 1.173-1.763 1.172-2.837v-.886h.514zm-3.373.887c0 .22-.058.539-.333.813-.443.443-1.23.426-1.69-.035-.475-.475-.49-1.234-.036-1.689l.033-.031v.922h2.026v.02z"/></mask></defs><path d="M13.114 2.537h2.538l-.001-2.537h-.867v1.105c-1.204-.927-2.924-.863-4.016.227-1.187 1.188-1.162 3.119.035 4.317 1.201 1.198 3.131 1.224 4.319.037.585-.584.879-1.357.878-2.128l-.859.001c-.001.557-.208 1.102-.627 1.521-.843.842-2.231.836-3.104-.036-.871-.872-.877-2.26-.035-3.105.729-.727 1.86-.818 2.721-.268h-.983l.001.866z" fill="#cb1800"/><path mask="url(#a)" d="M7.993 3.184c-3.468 0-6.475 1.952-7.993 4.817 1.518 2.863 4.525 4.814 7.993 4.814 3.466 0 6.472-1.951 7.993-4.814-1.521-2.865-4.527-4.817-7.993-4.817zm-.82 8.199l-3.052-3.052 1.342-1.344 1.709 1.708 3.265-3.265 1.345 1.344-4.609 4.609z"/></svg>