<?xml version="1.0"?><!DOCTYPE svg PUBLIC "-//W3C//DTD SVG 1.1//EN" "http://www.w3.org/Graphics/SVG/1.1/DTD/svg11.dtd"><svg width="16px" height="16px" xmlns="http://www.w3.org/2000/svg" viewBox="0 0 16 16" shape-rendering="geometricPrecision" fill="#ffad00"><defs><mask id="move_left-path"><rect fill="#fff" width="100%" height="100%"/><polygon points="16.383,1.058 13.913,-1.415 9.403,3.097 13.914,7.603 16.383,5.134 14.348,3.095 " fill="#000"/></mask></defs><polygon points="12.935,3.095 14.97,1.058 13.913,0 10.817,3.097 13.913,6.189 14.97,5.133 " fill="#cb1800"/><g mask="url(#move_left-path)"><g><polygon points="7.065,12.458 2,12.458 2,4.458 7,4.458 8.609,4.458 8.802,3.458 6.799,3.458 6.5,1.967 2.5,1.967 2.201,3.458 1,3.458 1,13.458 6.872,13.458"/><polygon points="9.82,4 9.627,5 14,5 14,13 8.083,13 7.89,14 15,14 15,4"/></g></g></svg>