<?xml version="1.0"?><!DOCTYPE svg PUBLIC "-//W3C//DTD SVG 1.1//EN" "http://www.w3.org/Graphics/SVG/1.1/DTD/svg11.dtd"><svg width="16px" height="16px" xmlns="http://www.w3.org/2000/svg" viewBox="0 0 16 16" shape-rendering="geometricPrecision" fill="#ffad00"><defs><mask id="move_left-path"><rect fill="#fff" width="100%" height="100%"/><polygon points="16.383,1.058 13.913,-1.415 9.403,3.097 13.914,7.603 16.383,5.134 14.348,3.095 " fill="#000"/></mask></defs><polygon points="12.935,3.095 14.97,1.058 13.913,0 10.817,3.097 13.913,6.189 14.97,5.133 " fill="#cb1800"/><g mask="url(#move_left-path)"><path d="M6.799,3.47L6.5,1.979h-4L2.2,3.47H0.999v10h14v-10H6.799z M14,12.47H2v-8h5h7V12.47z"/><g><polygon points="6.685,11.616 7.26,11.126 6.614,10.868"/><rect x="6.012" y="8.022" transform="matrix(0.3723 -0.9281 0.9281 0.3723 -3.1496 12.7517)" width="3.682" height="1.366"/><path d="M9.133,5.508C8.784,5.368,8.39,5.537,8.247,5.884L8.043,6.392l1.268,0.509l0.205-0.509H9.515 C9.652,6.042,9.483,5.646,9.133,5.508z"/></g></g></svg>