<svg width="16" height="16" xmlns="http://www.w3.org/2000/svg" viewBox="0 0 16 16" shape-rendering="geometricPrecision" fill="#ffad00"><defs><mask id="a"><rect fill="#fff" width="100%" height="100%"/><path fill="#000" d="M16.383 1.058l-2.47-2.473-4.51 4.512 4.511 4.506 2.469-2.469-2.035-2.039z"/></mask></defs><path fill="#cb1800" d="M12.935 3.095l2.035-2.037L13.913 0l-3.096 3.097 3.096 3.092 1.057-1.056z"/><g mask="url(#a)"><path d="M-.001 8.59h7.406V16H-.001zm8.556 0V16H16V8.59H8.555zm6.297 5.206l-1.063 1.061-1.51-1.504-1.511 1.504-1.064-1.06 1.511-1.503-1.51-1.504 1.063-1.059 1.511 1.505 1.51-1.505 1.063 1.061-1.511 1.502 1.511 1.502zM4.276.073v7.41h7.368V.073H4.276zm3.076 6.049L4.96 3.717l1.051-1.059L7.35 4.004l2.559-2.572 1.054 1.06-3.611 3.63z"/></g></svg>