<svg width="16" height="16" xmlns="http://www.w3.org/2000/svg" viewBox="0 0 16 16" shape-rendering="geometricPrecision" fill="#ffad00"><defs><mask id="a"><rect fill="#fff" width="100%" height="100%"/><path fill="#000" d="M16.383 1.058l-2.47-2.473-4.51 4.512 4.511 4.506 2.469-2.469-2.035-2.039z"/></mask></defs><path fill="#cb1800" d="M12.935 3.095l2.035-2.037L13.913 0l-3.096 3.097 3.096 3.092 1.057-1.056z"/><g mask="url(#a)"><path d="M1 11.479h13.987v1.042H1zM1 7.465h13.987v1.062H1zM1 3.45h13.987v1.021H1z"/><path d="M7.466 10.505h2.027c.267 0 .483.216.483.483v2.027a.483.483 0 0 1-.483.483H7.466a.483.483 0 0 1-.483-.483v-2.027c0-.267.217-.483.483-.483zM10.474 6.501h2.032c.267 0 .483.216.483.483v2.032a.483.483 0 0 1-.483.483h-2.032a.483.483 0 0 1-.483-.483V6.984c0-.267.217-.483.483-.483zM3.477 2.502h2.019c.267 0 .483.216.483.483v2.019a.483.483 0 0 1-.483.483H3.477a.483.483 0 0 1-.483-.483V2.985c0-.267.216-.483.483-.483z"/></g></svg>