<svg width="16" height="16" xmlns="http://www.w3.org/2000/svg" viewBox="0 0 16 16" shape-rendering="geometricPrecision" fill="#ffad00"><defs><mask id="a"><rect fill="#fff" width="100%" height="100%"/><path d="M13.848-1.1L12.051.695l.286.287A4.455 4.455 0 0 0 9.23 5.236v.987h2.626v-.988c0-.491.191-.954.538-1.302l.03-.03 1.425 1.421 3.212-3.213L13.848-1.1z" fill="#000"/></mask></defs><path d="M13.848-.04l-.736.735.821.821h-.234l-.156.008A3.722 3.722 0 0 0 9.98 5.235v.237h1.126v-.237c0-.691.27-1.343.759-1.833a2.579 2.579 0 0 1 1.833-.759h.3l-.886.887.735.734L16 2.111 13.848-.04z" fill="#cb1800"/><path d="M8.009 4.685c-.991-2.585-6.25-2.471-6.001 1.65.087 1.41 1.178 2.589 2.687 3.96 2.26 2.058 3.315 2.755 3.315 2.755s1.051-.697 3.314-2.755c1.505-1.371 2.599-2.55 2.683-3.96C14.254 2.214 9 2.1 8.009 4.685z" mask="url(#a)"/></svg>