<svg width="16" height="16" xmlns="http://www.w3.org/2000/svg" viewBox="0 0 16 16" shape-rendering="geometricPrecision" fill="#ffad00"><defs><mask id="a"><rect fill="#fff" width="100%" height="100%"/><path d="M13.848-1.1L12.051.695l.286.287A4.455 4.455 0 0 0 9.23 5.236v.987h2.626v-.988c0-.491.191-.954.538-1.302l.03-.03 1.425 1.421 3.212-3.213L13.848-1.1z" fill="#000"/></mask></defs><path d="M13.848-.04l-.736.735.821.821h-.234l-.156.008A3.722 3.722 0 0 0 9.98 5.235v.237h1.126v-.237c0-.691.27-1.343.759-1.833a2.579 2.579 0 0 1 1.833-.759h.3l-.886.887.735.734L16 2.111 13.848-.04z" fill="#cb1800"/><g mask="url(#a)"><path d="M13.125 5.495v8h-12v-8h12m1-1h-14v10h14v-10z"/><path d="M7.175 2.995l-.299-1.49h-4l-.3 1.49H1.375v1h13.5v9.5l1-1v-9.5z"/><path d="M7.914 6.87v-.375H6.298v.375H4.72v5.626h4.811V6.87H7.914zm.978 5.028H5.358v-4.43h.94v.141h1.616v-.141h.977v4.43z"/><path d="M5.922 9.097h2.405v.758H5.922zm0 1.125h2.405v.787H5.922z"/></g></svg>