<svg width="16" height="16" xmlns="http://www.w3.org/2000/svg" viewBox="0 0 16 16" shape-rendering="geometricPrecision" fill="#ffad00"><defs><mask id="a"><rect fill="#fff" width="100%" height="100%"/><path d="M13.848-1.1L12.051.695l.286.287A4.455 4.455 0 0 0 9.23 5.236v.987h2.626v-.988c0-.491.191-.954.538-1.302l.03-.03 1.425 1.421 3.212-3.213L13.848-1.1z" fill="#000"/></mask></defs><path d="M13.848-.04l-.736.735.821.821h-.234l-.156.008A3.722 3.722 0 0 0 9.98 5.235v.237h1.126v-.237c0-.691.27-1.343.759-1.833a2.579 2.579 0 0 1 1.833-.759h.3l-.886.887.735.734L16 2.111 13.848-.04z" fill="#cb1800"/><path d="M15.064 12.939l-.117-4.781a1.79 1.79 0 0 0 .023-.367v-.966c0-.724.061-3.199.061-4.044s-.725-.181-1.026.905c-.302 1.087-.785 4.527.06 4.588l.151.013-.11 4.652h.958zM3.276 5.169c0-.613-.209-2.736-.418-2.736s-.077 2.736-.229 2.736c-.153 0-.287-2.693-.458-2.693h-.01c-.171 0-.305 2.693-.457 2.693s-.019-2.736-.228-2.736c-.21 0-.419 2.123-.419 2.736 0 .557.238 1.02.753 1.101l-.123 6.67h.958l-.126-6.67c.517-.08.757-.542.757-1.101zM8.27 3.085a4.762 4.762 0 1 0 0 9.524 4.762 4.762 0 0 0 0-9.524zm0 8.096a3.334 3.334 0 1 1 .002-6.668 3.334 3.334 0 0 1-.002 6.668z" mask="url(#a)"/></svg>