<?xml version="1.0"?><!DOCTYPE svg PUBLIC "-//W3C//DTD SVG 1.1//EN" "http://www.w3.org/Graphics/SVG/1.1/DTD/svg11.dtd"><svg width="16px" height="16px" xmlns="http://www.w3.org/2000/svg" viewBox="0 0 16 16" shape-rendering="geometricPrecision" fill="#ffad00"><defs><mask id="export-path"><rect fill="#fff" width="100%" height="100%"/><path d="M13.848-1.1l-1.797,1.795l0.286,0.287c-1.812,0.575-3.107,2.263-3.107,4.254v0.987h2.626 V5.235c0-0.491,0.191-0.954,0.538-1.302c0.01-0.01,0.021-0.02,0.03-0.03l1.425,1.421l3.212-3.213L13.848-1.1z" fill="#000"/></mask></defs><path id="export" display="inline" d="M13.848-0.04l-0.736,0.735l0.821,0.821h-0.234 l-0.156,0.008c-1.978,0.084-3.563,1.714-3.563,3.711v0.237h1.126V5.235c0-0.691,0.27-1.343,0.759-1.833 c0.49-0.489,1.141-0.759,1.833-0.759h0.237V2.643h0.063L13.112,3.53l0.735,0.734L16,2.111L13.848-0.04z" fill="#cb1800"/><g mask="url(#export-path)"><path d="M6.136,14.063l7.86-6.878l-3.255-1.741L6.136,14.063z M0,4.568l4.147,11.214l0.838-1.57l-1.421-3.844 l4.331-1.602l2.457-4.6l4.406,2.352l0.003-0.003l-2.411-6.517L0,4.568z M7.985,7.046l-4.97,1.838L2.618,7.81l4.97-1.839 L7.985,7.046z M12.058,3.044L2.204,6.688L1.806,5.614l9.854-3.646L12.058,3.044z"/></g></svg>