<?xml version="1.0"?><!DOCTYPE svg PUBLIC "-//W3C//DTD SVG 1.1//EN" "http://www.w3.org/Graphics/SVG/1.1/DTD/svg11.dtd"><svg width="16px" height="16px" xmlns="http://www.w3.org/2000/svg" viewBox="0 0 16 16" shape-rendering="geometricPrecision" fill="#ffad00"><defs><mask id="export-path"><rect fill="#fff" width="100%" height="100%"/><path d="M13.848-1.1l-1.797,1.795l0.286,0.287c-1.812,0.575-3.107,2.263-3.107,4.254v0.987h2.626 V5.235c0-0.491,0.191-0.954,0.538-1.302c0.01-0.01,0.021-0.02,0.03-0.03l1.425,1.421l3.212-3.213L13.848-1.1z" fill="#000"/></mask></defs><path id="export" display="inline" d="M13.848-0.04l-0.736,0.735l0.821,0.821h-0.234 l-0.156,0.008c-1.978,0.084-3.563,1.714-3.563,3.711v0.237h1.126V5.235c0-0.691,0.27-1.343,0.759-1.833 c0.49-0.489,1.141-0.759,1.833-0.759h0.237V2.643h0.063L13.112,3.53l0.735,0.734L16,2.111L13.848-0.04z" fill="#cb1800"/><g mask="url(#export-path)"><g><g><g><path d="M6.35,5.582C6.819,5.26,7.387,5.072,8,5.072c0.612,0,1.181,0.189,1.651,0.51l1.471-1.47 C10.266,3.424,9.182,3.011,8,3.011c-1.182,0-2.266,0.413-3.122,1.1L6.35,5.582z"/><path d="M5.583,6.349L4.112,4.878C3.424,5.733,3.011,6.818,3.011,8c0,1.182,0.413,2.267,1.1,3.121l1.471-1.471 C5.261,9.181,5.072,8.613,5.072,8C5.072,7.387,5.261,6.819,5.583,6.349z"/></g><g><path d="M10.418,9.651l1.47,1.47c0.687-0.855,1.1-1.939,1.1-3.121c0-1.182-0.413-2.267-1.101-3.122l-1.471,1.471 C10.74,6.819,10.928,7.387,10.928,8S10.74,9.181,10.418,9.651z"/><path d="M9.651,10.418C9.181,10.739,8.613,10.928,8,10.928c-0.613,0-1.181-0.189-1.651-0.51l-1.471,1.471 c0.855,0.687,1.94,1.1,3.122,1.1c1.182,0,2.267-0.413,3.122-1.101L9.651,10.418z"/></g></g><g><path d="M7.934,14.81c-1.059,0-2.058-0.417-2.814-1.173l-2.756-2.756C0.824,9.342,0.8,6.862,2.309,5.353l3.045-3.044 C6.074,1.587,7.038,1.19,8.067,1.19c1.058,0,2.058,0.416,2.814,1.172l2.756,2.756c0.744,0.744,1.16,1.728,1.173,2.77 c0.012,1.046-0.386,2.025-1.118,2.758l-3.045,3.045C9.926,14.412,8.962,14.81,7.934,14.81z M8.067,2.19 c-0.762,0-1.475,0.293-2.006,0.825L3.016,6.06C1.896,7.179,1.921,9.024,3.07,10.174l2.756,2.756 c1.113,1.113,3.028,1.141,4.113,0.055l3.045-3.045c0.541-0.54,0.834-1.265,0.825-2.039c-0.009-0.779-0.321-1.516-0.88-2.074 L10.174,3.07C9.606,2.503,8.858,2.19,8.067,2.19z"/></g></g></g></svg>