<svg width="16" height="16" xmlns="http://www.w3.org/2000/svg" viewBox="0 0 16 16" shape-rendering="geometricPrecision" fill="#ffad00"><defs><mask id="a"><rect fill="#fff" width="100%" height="100%"/><path d="M13.848-1.1L12.051.695l.286.287A4.455 4.455 0 0 0 9.23 5.236v.987h2.626v-.988c0-.491.191-.954.538-1.302l.03-.03 1.425 1.421 3.212-3.213L13.848-1.1z" fill="#000"/></mask></defs><path d="M13.848-.04l-.736.735.821.821h-.234l-.156.008A3.722 3.722 0 0 0 9.98 5.235v.237h1.126v-.237c0-.691.27-1.343.759-1.833a2.579 2.579 0 0 1 1.833-.759h.3l-.886.887.735.734L16 2.111 13.848-.04z" fill="#cb1800"/><path d="M1.53.555h4.392v4.392H1.53zm8.418.723v2.918H7.032V1.278h2.916m.739-.739H6.293v4.393h4.394V.539zm4.043.739v2.918h-2.916V1.278h2.916m.738-.739h-4.392v4.393h4.392V.539zM5.185 6.063v2.914H2.27V6.063h2.915m.737-.74H1.53v4.394h4.392V5.323zm.371-.014h4.394v4.394H6.293zm4.784 0h4.392v4.394h-4.392zM1.53 10.007h4.392V14.4H1.53zm4.763-.016h4.394v4.394H6.293zm8.437.74v2.916h-2.916v-2.916h2.916m.738-.74h-4.392v4.394h4.392V9.991z" mask="url(#a)"/></svg>