<svg width="16" height="16" xmlns="http://www.w3.org/2000/svg" viewBox="0 0 16 16" shape-rendering="geometricPrecision" fill="#abb7ce"><path d="M6.394 4.686h.844v.844h-.844zM7.238 5.529h.844v.844h-.844zM6.394 6.373h.844v.845h-.844zM7.238 7.218h.844v.844h-.844zM6.394 8.062h.844v.844h-.844zM7.238 8.905h.844v.844h-.844zM6.394 9.749h.844v.845h-.844zM6.394 11.437h.844v.844h-.844zM6.394 13.126h.844v.844h-.844zM6.374 2.179h1.709v1.662H6.374z"/><path d="M6.886 5.904l.535-1.403a.737.737 0 0 0-.308-.892.736.736 0 0 0-.932.15l-.986 1.133.001.001a.997.997 0 0 0 .241 1.515 1.002 1.002 0 0 0 1.449-.504zm-.359-1.316a.405.405 0 1 1 .416-.696.405.405 0 0 1-.416.696z"/><path d="M7.238 3.841h.844v.845h-.844zM10.055 14.302l2.54-2.338h-2.54z"/><path d="M2.595 1.016v13.969h6.008v-4.468h4.802V1.016H2.595zm9.439 8.027h-4.79v4.601H3.917V2.318h8.116v6.725z"/></svg>