<svg width="16" height="16" xmlns="http://www.w3.org/2000/svg" viewBox="0 0 16 16" shape-rendering="geometricPrecision" fill="#abb7ce"><path d="M14.49 13.12L14.48 0H4.033c-1.376.003-2.498.62-2.52 1.987-.004.025-.004.53 0 .535v.003c0 .04.008.076.01.117h-.01v10.826A2.536 2.536 0 0 0 4.045 16h8.386l-.038-1.69-.01-11.344h-8.35c-.495 0-1.68-.048-1.68-.98v-.092C2.405 1.01 3.538.842 4.033.842h9.594v12.28h.864zM7.82 4.303a1.12 1.12 0 1 1 0 2.242 1.122 1.122 0 0 1-.001-2.242zm-2.26 8.693h1.105v-4.47h-1.1v-.834h3.358v5.304h1.106v1.11H5.563v-1.11z"/></svg>