<svg width="16" height="16" xmlns="http://www.w3.org/2000/svg" viewBox="0 0 16 16" shape-rendering="geometricPrecision" fill="#abb7ce"><path d="M14.625 6.406c-.28-.844-3.277.058-5.172.453-.673.14.552-1.62 1.235-2.89.398-.743-.03-1-2.375-1.032C5.97 2.906 1.49 4.244 1.063 7.5c-.44 3.344 2.624 6.03 7.593 5.344 5.95-.823 6.164-5.853 5.97-6.438zm-12.11.453a.923.923 0 0 1 1.845-.001.921.921 0 0 1-1.844 0zm1.376 4.003a1.03 1.03 0 1 1 0-2.062 1.03 1.03 0 1 1 .002 2.062zM4.923 5.03a.75.75 0 1 1 1.502.002.75.75 0 0 1-1.502-.002zm2.328 7a1.176 1.176 0 0 1-.267-2.334 1.175 1.175 0 0 1 .267 2.333zm3.246-.564a1.175 1.175 0 0 1-.267-2.333 1.176 1.176 0 0 1 1.3 1.033 1.177 1.177 0 0 1-1.034 1.3zm2.146-2.242a.803.803 0 1 1-.18-1.596.803.803 0 0 1 .18 1.596z"/></svg>