<svg width="16" height="16" xmlns="http://www.w3.org/2000/svg" viewBox="0 0 16 16" shape-rendering="geometricPrecision" fill="#abb7ce"><path d="M1.53.555h4.392v4.392H1.53zM9.948 1.278v2.918H7.032V1.278h2.916m.739-.739H6.293v4.393h4.394V.539zM14.73 1.278v2.918h-2.916V1.278h2.916m.738-.739h-4.392v4.393h4.392V.539zM5.185 6.063v2.914H2.27V6.063h2.915m.737-.74H1.53v4.394h4.392V5.323zM6.293 5.309h4.394v4.394H6.293zM11.077 5.309h4.392v4.394h-4.392zM1.53 10.007h4.392V14.4H1.53zM6.293 9.991h4.394v4.394H6.293zM14.73 10.731v2.916h-2.916v-2.916h2.916m.738-.74h-4.392v4.394h4.392V9.991z"/></svg>