<?xml version="1.0"?><!DOCTYPE svg PUBLIC "-//W3C//DTD SVG 1.1//EN" "http://www.w3.org/Graphics/SVG/1.1/DTD/svg11.dtd"><svg width="16px" height="16px" xmlns="http://www.w3.org/2000/svg" viewBox="0 0 16 16" shape-rendering="geometricPrecision" fill="#cb1800"><defs><mask id="move_left-path"><rect fill="#fff" width="100%" height="100%"/><polygon points="16.383,1.058 13.913,-1.415 9.403,3.097 13.914,7.603 16.383,5.134 14.348,3.095 " fill="#000"/></mask></defs><polygon points="12.935,3.095 14.97,1.058 13.913,0 10.817,3.097 13.913,6.189 14.97,5.133 " fill="#cb1800"/><path mask="url(#move_left-path)" d="M15.986,9.771c0-1.28-0.884-2.354-2.075-2.644c-0.05-2.008-1.692-3.62-3.71-3.62 c-1.183,0-2.235,0.554-2.915,1.415C6.905,4.43,6.308,4.112,5.637,4.112c-1.152,0-2.085,0.934-2.085,2.086 c0,0.1,0.007,0.199,0.021,0.296C3.399,6.462,3.219,6.445,3.035,6.445c-1.669,0-3.022,1.354-3.022,3.024s1.353,3.024,3.022,3.024 h10.237C14.772,12.489,15.987,11.273,15.986,9.771L15.986,9.771z"/></svg>