<?xml version="1.0"?><!DOCTYPE svg PUBLIC "-//W3C//DTD SVG 1.1//EN" "http://www.w3.org/Graphics/SVG/1.1/DTD/svg11.dtd"><svg width="16px" height="16px" xmlns="http://www.w3.org/2000/svg" viewBox="0 0 16 16" shape-rendering="geometricPrecision" fill="#cb1800"><defs><mask id="move_left-path"><rect fill="#fff" width="100%" height="100%"/><polygon points="16.383,1.058 13.913,-1.415 9.403,3.097 13.914,7.603 16.383,5.134 14.348,3.095 " fill="#000"/></mask></defs><polygon points="12.935,3.095 14.97,1.058 13.913,0 10.817,3.097 13.913,6.189 14.97,5.133 " fill="#cb1800"/><g mask="url(#move_left-path)"><polygon points="5.295,3.817 5.295,7.67 2.909,9.059 3.853,10.711 7.181,8.779 7.201,8.779 7.198,3.818"/><path d="M9.791,1.79h-3.58C2.78,1.79,0,4.571,0,8.003c0,3.427,2.78,6.206,6.211,6.208h3.58 c3.429-0.002,6.208-2.78,6.209-6.208C16,4.571,13.22,1.79,9.791,1.79z M6.211,12.953c-2.736-0.005-4.949-2.218-4.955-4.951 c0.006-2.738,2.219-4.951,4.955-4.956c2.735,0.005,4.948,2.218,4.953,4.956C11.158,10.736,8.946,12.948,6.211,12.953z M9.955,12.945c1.494-1.134,2.464-2.923,2.465-4.942c0-2.022-0.969-3.813-2.464-4.947c2.658,0.092,4.783,2.265,4.788,4.947 C14.739,10.68,12.613,12.853,9.955,12.945z"/></g></svg>