<?xml version="1.0"?><!DOCTYPE svg PUBLIC "-//W3C//DTD SVG 1.1//EN" "http://www.w3.org/Graphics/SVG/1.1/DTD/svg11.dtd"><svg width="16px" height="16px" xmlns="http://www.w3.org/2000/svg" viewBox="0 0 16 16" shape-rendering="geometricPrecision" fill="#cb1800"><defs><mask id="move_left-path"><rect fill="#fff" width="100%" height="100%"/><polygon points="16.383,1.058 13.913,-1.415 9.403,3.097 13.914,7.603 16.383,5.134 14.348,3.095 " fill="#000"/></mask></defs><polygon points="12.935,3.095 14.97,1.058 13.913,0 10.817,3.097 13.913,6.189 14.97,5.133 " fill="#cb1800"/><g mask="url(#move_left-path)"><g><polygon points="8.182,3.179 7.367,1.256 3.587,1.256 2.77,3.179 1.649,3.179 1.65,4.128 14.977,4.119 14.995,13.402 15.928,12.424 15.928,3.179"/><path d="M0.072,4.756V14h14.279V4.756H0.072z M13.25,12.929H1.041v-7H13.25V12.929z"/></g><g><path d="M7.027,6.979c-1.375,0-2.49,1.115-2.49,2.491c0,1.374,1.115,2.488,2.49,2.489c1.375-0.001,2.489-1.115,2.489-2.489 C9.516,8.094,8.402,6.979,7.027,6.979z M7.027,11.454C5.93,11.452,5.043,10.565,5.041,9.47c0.002-1.097,0.89-1.985,1.986-1.987 C8.123,7.485,9.01,8.372,9.012,9.47C9.01,10.565,8.123,11.452,7.027,11.454z"/><polygon points="6.66,7.792 6.66,9.337 5.703,9.893 6.082,10.556 7.416,9.781 7.424,9.781 7.423,7.792"/></g></g></svg>