<svg width="16" height="16" xmlns="http://www.w3.org/2000/svg" viewBox="0 0 16 16" shape-rendering="geometricPrecision" fill="#cb1800"><defs><mask id="a"><rect fill="#fff" width="100%" height="100%"/><path fill="#000" d="M16.383 1.058l-2.47-2.473-4.51 4.512 4.511 4.506 2.469-2.469-2.035-2.039z"/></mask></defs><path d="M12.935 3.095l2.035-2.037L13.913 0l-3.096 3.097 3.096 3.092 1.057-1.056z"/><g mask="url(#a)"><path d="M8.182 3.179l-.815-1.923h-3.78L2.77 3.179H1.649l.001.949 13.327-.009.018 9.283.933-.978V3.179z"/><path d="M.072 4.756V14h14.279V4.756H.072zm9.449 3.583a.993.993 0 1 1 .001 1.987.993.993 0 0 1-.001-1.987zM6.774 6.062a.993.993 0 1 1 .002 1.986.993.993 0 0 1-.002-1.986zm-2.199 1.1a.993.993 0 1 1 .002 1.986.993.993 0 0 1-.002-1.986zm1.41 4.661H3.164v-1.244c0-.527.428-.958.955-.958h.908c.526 0 .958.432.958.958v1.244zm-.618-2.382a.956.956 0 0 1 .951-.92h.908c.527 0 .958.432.958.957v1.245H6.221v-.145c0-.539-.362-.99-.854-1.137zM10.932 13H8.111v-1.245c0-.526.428-.957.955-.957h.908c.527 0 .958.432.958.957V13z"/></g></svg>