<svg width="16" height="16" xmlns="http://www.w3.org/2000/svg" viewBox="0 0 16 16" shape-rendering="geometricPrecision" fill="#cb1800"><defs><mask id="a"><rect fill="#fff" width="100%" height="100%"/><path fill="#000" d="M16.383 1.058l-2.47-2.473-4.51 4.512 4.511 4.506 2.469-2.469-2.035-2.039z"/></mask></defs><path d="M12.935 3.095l2.035-2.037L13.913 0l-3.096 3.097 3.096 3.092 1.057-1.056z"/><path d="M3.359 0v1.056h10.329v12.842h1.072V0H3.359zM1.24 16h11.401V2.102H1.24V16zM6.956 3.726a2.65 2.65 0 0 1 2.651 2.651A2.648 2.648 0 0 1 6.956 9.03a2.651 2.651 0 1 1 0-5.304zm-4.509 8.458a2.296 2.296 0 0 1 2.288-2.295H9.17a2.302 2.302 0 0 1 2.296 2.295v2.98H2.447v-2.98z" mask="url(#a)"/></svg>