<svg width="16" height="16" xmlns="http://www.w3.org/2000/svg" viewBox="0 0 16 16" shape-rendering="geometricPrecision" fill="#cb1800"><defs><mask id="a"><rect fill="#fff" width="100%" height="100%"/><path fill="#000" d="M16.383 1.058l-2.47-2.473-4.51 4.512 4.511 4.506 2.469-2.469-2.035-2.039z"/></mask></defs><path d="M12.935 3.095l2.035-2.037L13.913 0l-3.096 3.097 3.096 3.092 1.057-1.056z"/><path d="M11.231 3.39c.002-.046.008-.09.008-.136a3.24 3.24 0 1 0-6.273-1.138l1.312.399a1.872 1.872 0 1 1 3.023 2.08c-.583.621-1.03.621-2.176 1.235-1.824.984-2.271 2.511-2.366 3.414v6.744h6.482V3.39h-.01zM7.445 15.148l-2.33-2.328 1.024-1.024 1.303 1.303 2.492-2.489 1.024 1.026-3.513 3.512z" mask="url(#a)"/></svg>