<svg width="16" height="16" xmlns="http://www.w3.org/2000/svg" viewBox="0 0 16 16" shape-rendering="geometricPrecision"><defs><mask id="a"><rect fill="#fff" width="100%" height="100%"/><path d="M12.997.858a4.809 4.809 0 0 0-4.253 2.563 4.81 4.81 0 0 0 8.506 0A4.812 4.812 0 0 0 12.997.858z"/></mask></defs><path d="M12.997 1.611a3.394 3.394 0 0 0-3.003 1.81 3.397 3.397 0 0 0 6.006 0 3.398 3.398 0 0 0-3.003-1.81zm-.001 3.396a1.587 1.587 0 1 1 0-3.174 1.587 1.587 0 0 1 0 3.174z" fill="#cb1800"/><g mask="url(#a)"><circle cx="11.278" cy="12.205" r=".769"/><circle cx="11.278" cy="7.939" r=".769"/><path d="M2.042.948V14.93h11.939V.948H2.042zm10.812 12.854H3.171v-3.138h9.682v3.138zm0-4.323H3.171V6.397h9.682v3.082zM3.171 5.213V2.077h9.682v3.136H3.171z"/><circle cx="11.278" cy="3.673" r=".769"/></g></svg>