<?xml version="1.0"?><!DOCTYPE svg PUBLIC "-//W3C//DTD SVG 1.1//EN" "http://www.w3.org/Graphics/SVG/1.1/DTD/svg11.dtd"><svg width="16px" height="16px" xmlns="http://www.w3.org/2000/svg" viewBox="0 0 16 16" shape-rendering="geometricPrecision" fill="#000"><defs><mask id="visibility-invisible-path"><rect fill="#fff" width="100%" height="100%"/><path d="M12.997,0.858c-1.845,0-3.446,1.039-4.253,2.563c0.808,1.523,2.408,2.562,4.253,2.562 c1.844,0,3.444-1.039,4.253-2.562C16.441,1.897,14.841,0.858,12.997,0.858z" fill="#000"/></mask></defs><g id="visibility-invisible" display="inline" fill="#cb1800"><g><g><path d="M12.997,1.611c-1.303,0-2.433,0.733-3.003,1.81c0.57,1.075,1.7,1.809,3.003,1.809c1.302,0,2.432-0.733,3.003-1.809 C15.429,2.345,14.299,1.611,12.997,1.611z M12.996,5.007c-0.876,0-1.587-0.71-1.587-1.586c0-0.877,0.711-1.588,1.587-1.588 c0.877,0,1.588,0.711,1.588,1.588C14.584,4.297,13.873,5.007,12.996,5.007z"/></g></g></g><g mask="url(#visibility-invisible-path)"><g><polygon points="10.021,15.177 13.458,12.012 10.021,12.012"/><path d="M2.02,0v16h7.021v-4.905h4.941V0H2.02z M13,9.97h-5l0,5H3.083v-14H13V9.97z"/></g><rect x="6.999" y="2.97" width="1" height="1"/><rect x="7.999" y="3.97" width="1" height="1"/><rect x="6.999" y="4.97" width="1" height="1"/><rect x="7.999" y="5.97" width="1" height="1"/><rect x="6.999" y="6.97" width="1" height="1"/><rect x="7.999" y="7.97" width="1" height="1"/><rect x="6.999" y="8.97" width="1" height="1"/><rect x="6.999" y="10.97" width="1" height="1"/><rect x="6.999" y="12.97" width="1" height="1"/><rect x="6.975" width="2.024" height="1.97"/><path d="M7.583,4.414L7.583,4.414c0.366-0.959,0.366-0.959,0.634-1.663l0,0c0.146-0.386,0.002-0.835-0.365-1.056 c-0.368-0.22-0.833-0.136-1.104,0.177H6.747C6.254,2.439,6.254,2.439,5.579,3.215l0.001,0.001 C5.536,3.268,5.494,3.322,5.458,3.383c-0.336,0.563-0.154,1.29,0.408,1.628c0.562,0.337,1.291,0.152,1.627-0.408 C7.529,4.541,7.559,4.477,7.583,4.414z M7.157,2.855C6.929,2.718,6.856,2.423,6.992,2.195C7.129,1.968,7.423,1.895,7.65,2.03 c0.228,0.137,0.302,0.43,0.166,0.658C7.679,2.915,7.384,2.989,7.157,2.855z"/><rect x="7.999" y="1.97" width="1" height="1"/></g></svg>