<svg width="16" height="16" xmlns="http://www.w3.org/2000/svg" viewBox="0 0 16 16" shape-rendering="geometricPrecision"><defs><mask id="a"><rect fill="#fff" width="100%" height="100%"/><path d="M12.997.858a4.809 4.809 0 0 0-4.253 2.563 4.81 4.81 0 0 0 8.506 0A4.812 4.812 0 0 0 12.997.858z"/></mask></defs><path d="M12.997 1.611a3.394 3.394 0 0 0-3.003 1.81 3.397 3.397 0 0 0 6.006 0 3.398 3.398 0 0 0-3.003-1.81zm-.001 3.396a1.587 1.587 0 1 1 0-3.174 1.587 1.587 0 0 1 0 3.174z" fill="#cb1800"/><g mask="url(#a)"><path d="M9.341 5.662a2.312 2.312 0 1 1 4.626 0V6.81h1.413V5.662a3.726 3.726 0 1 0-7.453 0V6.81H9.34V5.662zM.62 7.792v7.207h9.875V7.792H.62zm5.806 4.802a.87.87 0 0 1-1.738 0v-2.396a.868.868 0 0 1 1.738 0v2.396z"/></g></svg>