<?xml version="1.0"?><!DOCTYPE svg PUBLIC "-//W3C//DTD SVG 1.1//EN" "http://www.w3.org/Graphics/SVG/1.1/DTD/svg11.dtd"><svg width="16px" height="16px" xmlns="http://www.w3.org/2000/svg" viewBox="0 0 16 16" shape-rendering="geometricPrecision" fill="#000"><defs><mask id="visibility-invisible-path"><rect fill="#fff" width="100%" height="100%"/><path d="M12.997,0.858c-1.845,0-3.446,1.039-4.253,2.563c0.808,1.523,2.408,2.562,4.253,2.562 c1.844,0,3.444-1.039,4.253-2.562C16.441,1.897,14.841,0.858,12.997,0.858z" fill="#000"/></mask></defs><g id="visibility-invisible" display="inline" fill="#cb1800"><g><g><path d="M12.997,1.611c-1.303,0-2.433,0.733-3.003,1.81c0.57,1.075,1.7,1.809,3.003,1.809c1.302,0,2.432-0.733,3.003-1.809 C15.429,2.345,14.299,1.611,12.997,1.611z M12.996,5.007c-0.876,0-1.587-0.71-1.587-1.586c0-0.877,0.711-1.588,1.587-1.588 c0.877,0,1.588,0.711,1.588,1.588C14.584,4.297,13.873,5.007,12.996,5.007z"/></g></g></g><g mask="url(#visibility-invisible-path)"><path d="M8.291,3.837H6.674v3.414h1.711c0.636,0,1.125-0.149,1.469-0.449c0.344-0.3,0.516-0.728,0.516-1.285 C10.369,4.397,9.677,3.837,8.291,3.837z"/><path d="M8,0C3.582,0,0,3.582,0,8s3.582,8,8,8c4.418,0,8-3.582,8-8S12.418,0,8,0z M11.51,7.243 c-0.317,0.489-0.753,0.845-1.305,1.066C9.653,8.531,8.861,8.642,7.83,8.642H6.674v4.734h-1.57V2.446h3.461 c1.042,0,1.872,0.281,2.492,0.844s0.93,1.317,0.93,2.266C11.986,6.191,11.827,6.754,11.51,7.243z"/></g></svg>