<svg width="16" height="16" xmlns="http://www.w3.org/2000/svg" viewBox="0 0 16 16" shape-rendering="geometricPrecision"><defs><mask id="a"><rect fill="#fff" width="100%" height="100%"/><path d="M12.997.858a4.809 4.809 0 0 0-4.253 2.563 4.81 4.81 0 0 0 8.506 0A4.812 4.812 0 0 0 12.997.858z"/></mask></defs><path d="M12.997 1.611a3.394 3.394 0 0 0-3.003 1.81 3.397 3.397 0 0 0 6.006 0 3.398 3.398 0 0 0-3.003-1.81zm-.001 3.396a1.587 1.587 0 1 1 0-3.174 1.587 1.587 0 0 1 0 3.174z" fill="#cb1800"/><path mask="url(#a)" d="M9.985 2L8.271 3.713l1.912 1.914h-.546l-.364.018c-4.608.196-8.3 3.993-8.3 8.646v.553h2.624v-.553a6.01 6.01 0 0 1 1.768-4.271 6.008 6.008 0 0 1 4.272-1.768h.552V8.25h.147l-2.065 2.068 1.713 1.711L15 7.012 9.985 2z"/></svg>