<?xml version="1.0"?><!DOCTYPE svg PUBLIC "-//W3C//DTD SVG 1.1//EN" "http://www.w3.org/Graphics/SVG/1.1/DTD/svg11.dtd"><svg width="16px" height="16px" xmlns="http://www.w3.org/2000/svg" viewBox="0 0 16 16" shape-rendering="geometricPrecision" fill="#000"><defs><mask id="visibility-invisible-path"><rect fill="#fff" width="100%" height="100%"/><path d="M12.997,0.858c-1.845,0-3.446,1.039-4.253,2.563c0.808,1.523,2.408,2.562,4.253,2.562 c1.844,0,3.444-1.039,4.253-2.562C16.441,1.897,14.841,0.858,12.997,0.858z" fill="#000"/></mask></defs><g id="visibility-invisible" display="inline" fill="#cb1800"><g><g><path d="M12.997,1.611c-1.303,0-2.433,0.733-3.003,1.81c0.57,1.075,1.7,1.809,3.003,1.809c1.302,0,2.432-0.733,3.003-1.809 C15.429,2.345,14.299,1.611,12.997,1.611z M12.996,5.007c-0.876,0-1.587-0.71-1.587-1.586c0-0.877,0.711-1.588,1.587-1.588 c0.877,0,1.588,0.711,1.588,1.588C14.584,4.297,13.873,5.007,12.996,5.007z"/></g></g></g><g mask="url(#visibility-invisible-path)"><g><rect x="1.53" y="0.555" width="4.392" height="4.392"/><path d="M9.948,1.278v2.918H7.032V1.278H9.948 M10.687,0.539H6.293v4.393h4.394V0.539L10.687,0.539z"/><path d="M14.73,1.278v2.918h-2.916V1.278H14.73 M15.468,0.539h-4.392v4.393h4.392V0.539L15.468,0.539z"/><path d="M5.185,6.063v2.914H2.27V6.063H5.185 M5.922,5.323H1.53v4.394h4.392V5.323L5.922,5.323z"/><rect x="6.293" y="5.309" width="4.394" height="4.394"/><rect x="11.077" y="5.309" width="4.392" height="4.394"/><rect x="1.53" y="10.007" width="4.392" height="4.393"/><rect x="6.293" y="9.991" width="4.394" height="4.394"/><path d="M14.73,10.731v2.916h-2.916v-2.916H14.73 M15.468,9.991h-4.392v4.394h4.392V9.991L15.468,9.991z"/></g></g></svg>