<?xml version="1.0"?><!DOCTYPE svg PUBLIC "-//W3C//DTD SVG 1.1//EN" "http://www.w3.org/Graphics/SVG/1.1/DTD/svg11.dtd"><svg width="16px" height="16px" xmlns="http://www.w3.org/2000/svg" viewBox="0 0 16 16" shape-rendering="geometricPrecision" fill="#ffad00"><defs><mask id="pause-path"><rect fill="#fff" width="100%" height="100%"/><polygon points="13.135,-1 12.45,-1 9.585,-1 9.585,6.956 12.45,6.956 13.135,6.956 16,6.956 16,-1 " fill="#000"/></mask></defs><g fill="#cb1800"><g><rect x="10.585" width="1.55" height="5.956"/></g><g><rect x="13.45" width="1.55" height="5.956"/></g></g><g mask="url(#pause-path)"><path d="M11,1H5C4.45,1,4,1.45,4,2v8.969V14c0,0.55,0.45,1,1,1h6c0.55,0,1-0.45,1-1v-3.031V2 C12,1.45,11.55,1,11,1z M8,13.969c-0.552,0-1-0.448-1-1c0-0.552,0.448-1,1-1c0.552,0,1,0.448,1,1C9,13.521,8.552,13.969,8,13.969z M11,10.969H5V2h6V10.969z"/></g></svg>