<svg width="16" height="16" xmlns="http://www.w3.org/2000/svg" viewBox="0 0 16 16" shape-rendering="geometricPrecision" fill="#ffad00"><defs><mask id="a"><rect fill="#fff" width="100%" height="100%"/><path fill="#000" d="M13.135-1h-3.55v7.956H16V-1z"/></mask></defs><path d="M10.585 0h1.55v5.956h-1.55zm2.865 0H15v5.956h-1.55z" fill="#cb1800"/><g mask="url(#a)"><path d="M7.999 1a7 7 0 1 0 .003 14 7 7 0 0 0-.003-14zm3.423 9.054l-1.448 1.45-2.055-2.057-2.058 2.058-1.451-1.45 2.059-2.058-2.057-2.056L5.86 4.493 7.917 6.55l2.058-2.057 1.448 1.45-2.057 2.056 2.056 2.055z"/></g></svg>