<svg width="16" height="16" xmlns="http://www.w3.org/2000/svg" viewBox="0 0 16 16" shape-rendering="geometricPrecision" fill="#ffad00"><defs><mask id="a"><rect fill="#fff" width="100%" height="100%"/><path fill="#000" d="M13.135-1h-3.55v7.956H16V-1z"/></mask></defs><path d="M10.585 0h1.55v5.956h-1.55zm2.865 0H15v5.956h-1.55z" fill="#cb1800"/><path d="M8 1.001a7 7 0 1 0 .003 14 7 7 0 0 0-.003-14zm.127 2.279c.554 0 1 .458 1 1.024a1.01 1.01 0 0 1-1 1.021 1.012 1.012 0 0 1-1.001-1.021c0-.566.448-1.024 1.001-1.024zm1.974 8.948H6.115v-1.015h.986V7.136h-.983v-.761h2.996v4.839h.987v1.014z" mask="url(#a)"/></svg>