<svg width="16" height="16" xmlns="http://www.w3.org/2000/svg" viewBox="0 0 16 16" shape-rendering="geometricPrecision" fill="#ffad00"><defs><mask id="a"><rect fill="#fff" width="100%" height="100%"/><path fill="#000" d="M13.135-1h-3.55v7.956H16V-1z"/></mask></defs><path d="M10.585 0h1.55v5.956h-1.55zm2.865 0H15v5.956h-1.55z" fill="#cb1800"/><g mask="url(#a)"><path d="M.995 14.003L14.01 1l.997.997L1.992 15zM7.59 3.71v2.121L9.714 3.71zM3.289 8.548v1.578l1.582-1.578zm3.105 3.558l-.61.61h.61zm4.3.61V7.81L7.59 10.911v1.805zm-7.195 2.285h11.496v-1.102H4.6zm8.393-8.389v6.104h3.103V6.435H12.07zm-9.797 4.705l.001-5.609H.995v7.141l.002-.434zm-1.1 3.684l.801-.002v.002h.195l-.996-.996z"/></g></svg>