<svg width="16" height="16" xmlns="http://www.w3.org/2000/svg" viewBox="0 0 16 16" shape-rendering="geometricPrecision" fill="#24437c"><defs><mask id="a"><rect fill="#fff" width="100%" height="100%"/><path fill="#000" d="M12.892-.396l-4.507 4.51 2.471 2.471 2.038-2.036 2.037 2.035 2.473-2.47z"/></mask></defs><path fill="#cb1800" d="M12.894 3.136l2.037 2.035 1.058-1.057-3.097-3.096-3.093 3.096 1.057 1.057z"/><g mask="url(#a)"><path d="M12.26 6.22L7.983 8.903 3.694 6.274.793 8.596c.046.096 4.25 2.737 4.25 2.737L7.98 9.125l3.028 2.206 4.352-2.617-3.1-2.494z"/><path d="M7.98 9.955l-2.927 2.197-1.455-.813v.83l4.4 2.786 4.366-2.786v-.83l-1.37.813zM11.084 1.045L7.98 3.59l4.28 2.628 3.102-2.426zM.638 3.928l3.064 2.341L7.98 3.59 5.041 1.047zM12.258 6.22l.001-.001v.001z"/></g></svg>