<svg width="16" height="16" xmlns="http://www.w3.org/2000/svg" viewBox="0 0 16 16" shape-rendering="geometricPrecision" fill="#24437c"><defs><mask id="a"><rect fill="#fff" width="100%" height="100%"/><path fill="#000" d="M12.892-.396l-4.507 4.51 2.471 2.471 2.038-2.036 2.037 2.035 2.473-2.47z"/></mask></defs><path fill="#cb1800" d="M12.894 3.136l2.037 2.035 1.058-1.057-3.097-3.096-3.093 3.096 1.057 1.057z"/><path d="M7.999.973a6.997 6.997 0 1 0 .002 13.994A6.997 6.997 0 0 0 8 .973zm1.027 2.663L8.741 9.48H7.27l-.296-5.844h2.052zm-1.021 8.837h-.012c-.683 0-1.147-.501-1.147-1.172 0-.685.477-1.175 1.16-1.175.686 0 1.138.49 1.148 1.175-.001.671-.451 1.172-1.149 1.172z" mask="url(#a)"/></svg>