<svg width="16" height="16" xmlns="http://www.w3.org/2000/svg" viewBox="0 0 16 16" shape-rendering="geometricPrecision" fill="#24437c"><defs><mask id="a"><rect fill="#fff" width="100%" height="100%"/><path fill="#000" d="M12.892-.396l-4.507 4.51 2.471 2.471 2.038-2.036 2.037 2.035 2.473-2.47z"/></mask></defs><path fill="#cb1800" d="M12.894 3.136l2.037 2.035 1.058-1.057-3.097-3.096-3.093 3.096 1.057 1.057z"/><path mask="url(#a)" d="M6.035 15.636V8.96a.645.645 0 0 0-.137-.396L0 1.072h16l-5.818 7.389c-.14.179-.218.402-.218.628v4.378l-3.929 2.169zM2.109 2.096L6.703 7.93c.23.292.357.658.357 1.03v4.942l1.881-1.038V9.089c0-.455.155-.903.438-1.261l4.512-5.732H2.109z"/></svg>