<svg width="16" height="16" xmlns="http://www.w3.org/2000/svg" viewBox="0 0 16 16" shape-rendering="geometricPrecision" fill="#24437c"><defs><mask id="a"><rect fill="#fff" width="100%" height="100%"/><path fill="#000" d="M12.892-.396l-4.507 4.51 2.471 2.471 2.038-2.036 2.037 2.035 2.473-2.47z"/></mask></defs><path fill="#cb1800" d="M12.894 3.136l2.037 2.035 1.058-1.057-3.097-3.096-3.093 3.096 1.057 1.057z"/><path d="M11.348 7.312a1.992 1.992 0 0 1 1.779 1.146V4.747H9.053a1.978 1.978 0 0 0 1.081-1.737 1.992 1.992 0 0 0-3.982-.04 1.978 1.978 0 0 0 1.077 1.777H2.873v10.254h2.951a1.992 1.992 0 1 1 2.905-1.747 1.992 1.992 0 0 1-1.083 1.747h5.481v-4.845a1.992 1.992 0 0 1-3.792-.873 1.992 1.992 0 0 1 2.013-1.971z" mask="url(#a)"/></svg>