<svg width="16" height="16" xmlns="http://www.w3.org/2000/svg" viewBox="0 0 16 16" shape-rendering="geometricPrecision" fill="#24437c"><defs><mask id="a"><rect fill="#fff" width="100%" height="100%"/><path fill="#000" d="M12.892-.396l-4.507 4.51 2.471 2.471 2.038-2.036 2.037 2.035 2.473-2.47z"/></mask></defs><path fill="#cb1800" d="M12.894 3.136l2.037 2.035 1.058-1.057-3.097-3.096-3.093 3.096 1.057 1.057z"/><path mask="url(#a)" d="M8 1.051a6.949 6.949 0 1 0 0 13.898A6.949 6.949 0 0 0 8 1.051zm1.973 3.456c.731 0 1.326.756 1.326 1.682 0 .927-.595 1.683-1.326 1.683-.73 0-1.325-.756-1.325-1.683-.001-.926.594-1.682 1.325-1.682zm-3.667-.042c.731 0 1.326.755 1.326 1.681 0 .928-.595 1.683-1.326 1.683-.73 0-1.325-.755-1.325-1.683-.001-.926.594-1.681 1.325-1.681zm1.852 9.081c-4.853 0-5.388-5.018-5.388-5.018s1.111 3.248 5.347 3.248c4.154 0 5.182-3.085 5.182-3.085s-.74 4.855-5.141 4.855z"/></svg>