<svg width="16" height="16" xmlns="http://www.w3.org/2000/svg" viewBox="0 0 16 16" shape-rendering="geometricPrecision" fill="#00962d"><defs><mask id="a"><rect fill="#fff" width="100%" height="100%"/><path fill="#000" d="M14.782 1.217V-1h-3.564v2.217H9V4.78h2.218v2.221h3.564V4.78H17V1.217z"/></mask></defs><path fill="#cb1800" d="M16 2.217h-2.218V0h-1.564v2.217H10V3.78h2.218v2.221h1.564V3.78H16z"/><path d="M0 5.121l3.176 3.181L0 11.479l1.651 1.652L6.48 8.298 1.651 3.473zM7.144.605v14.096h1.067V1.671l4.057.002-2.67.764v13.562l6.399-1.831V1.674H16V.605H7.144zM15 13.47l-4.4 1.282V3.188L15 1.906V13.47z" mask="url(#a)"/></svg>