<svg width="16" height="16" xmlns="http://www.w3.org/2000/svg" viewBox="0 0 16 16" shape-rendering="geometricPrecision" fill="#00962d"><defs><mask id="a"><rect fill="#fff" width="100%" height="100%"/><path fill="#000" d="M12.892-.396l-4.507 4.51 2.471 2.471 2.038-2.036 2.037 2.035 2.473-2.47z"/></mask></defs><path fill="#cb1800" d="M12.894 3.136l2.037 2.035 1.058-1.057-3.097-3.096-3.093 3.096 1.057 1.057z"/><path mask="url(#a)" d="M16.011 6.354c-.174-.731-1.554-1.11-3.454-1.11 0 0 .104.154.186.325.083.175.137.378.137.378 1.912.035 2.428.479 2.45.569.069.292-.753 1.066-2.471 1.882a4.921 4.921 0 0 0-9.153-2.892 4.925 4.925 0 0 0 .038 5.052c-.113.003-.237.013-.346.013-2.116 0-2.675-.477-2.697-.571-.063-.263.592-.916 1.975-1.638 0 0-.028-.185-.027-.362.001-.21.027-.418.027-.418C.928 8.45-.158 9.419.019 10.162c.174.731 1.478 1.11 3.379 1.11.268 0 .56-.016.85-.031.339.388.742.731 1.21 1.006a4.926 4.926 0 0 0 6.742-1.749 4.92 4.92 0 0 0 .521-1.269c2.158-.951 3.489-2.04 3.29-2.875zM4.565 6.011a3.935 3.935 0 0 1 5.379-1.399 3.935 3.935 0 0 1 1.841 4.251c-.939.372-2.059.736-3.376 1.05a25.032 25.032 0 0 1-3.49.577 3.935 3.935 0 0 1-.354-4.479zm6.776 3.982a3.935 3.935 0 0 1-5.378 1.395 3.982 3.982 0 0 1-.384-.261 26.225 26.225 0 0 0 2.993-.533 26.481 26.481 0 0 0 2.908-.868c-.045.09-.088.179-.139.267z"/></svg>