<svg width="16" height="16" xmlns="http://www.w3.org/2000/svg" viewBox="0 0 16 16" shape-rendering="geometricPrecision" fill="#00962d"><defs><mask id="a"><rect fill="#fff" width="100%" height="100%"/><path fill="#000" d="M12.892-.396l-4.507 4.51 2.471 2.471 2.038-2.036 2.037 2.035 2.473-2.47z"/></mask></defs><path fill="#cb1800" d="M12.894 3.136l2.037 2.035 1.058-1.057-3.097-3.096-3.093 3.096 1.057 1.057z"/><g mask="url(#a)"><path d="M7.975 1.052A6.978 6.978 0 0 0 1 8.022h2.077a4.9 4.9 0 0 1 4.897-4.896 4.9 4.9 0 0 1 4.899 4.897 4.9 4.9 0 0 1-4.898 4.9V15a6.977 6.977 0 0 0 6.973-6.977 6.973 6.973 0 0 0-6.973-6.971zm2.62 6.971a2.62 2.62 0 0 0-2.621-2.617 2.618 2.618 0 0 0 0 5.239 2.623 2.623 0 0 0 2.621-2.622z"/></g></svg>