<svg width="16" height="16" xmlns="http://www.w3.org/2000/svg" viewBox="0 0 16 16" shape-rendering="geometricPrecision" fill="#00962d"><defs><mask id="a"><rect fill="#fff" width="100%" height="100%"/><path fill="#000" d="M12.892-.396l-4.507 4.51 2.471 2.471 2.038-2.036 2.037 2.035 2.473-2.47z"/></mask></defs><path fill="#cb1800" d="M12.894 3.136l2.037 2.035 1.058-1.057-3.097-3.096-3.093 3.096 1.057 1.057z"/><path d="M8.001 1.062a6.94 6.94 0 1 0 0 13.878 6.94 6.94 0 0 0 0-13.878zm0 12.472a5.543 5.543 0 0 1-5.536-5.531 5.544 5.544 0 0 1 5.536-5.537 5.543 5.543 0 0 1 5.534 5.537 5.54 5.54 0 0 1-5.534 5.531z" mask="url(#a)"/></svg>