<svg width="16" height="16" xmlns="http://www.w3.org/2000/svg" viewBox="0 0 16 16" shape-rendering="geometricPrecision" fill="#00962d"><defs><mask id="a"><rect fill="#fff" width="100%" height="100%"/><path fill="#000" d="M12.892-.396l-4.507 4.51 2.471 2.471 2.038-2.036 2.037 2.035 2.473-2.47z"/></mask></defs><path fill="#cb1800" d="M12.894 3.136l2.037 2.035 1.058-1.057-3.097-3.096-3.093 3.096 1.057 1.057z"/><g mask="url(#a)"><path d="M15.609 3.739c-.906 1.865-2.393 2.551-3.389 2.805.568 1.092.975 2.484 1.15 4.041 1.175-.793 3.569-2.961 2.239-6.846zm-15.219 0c-1.328 3.885 1.065 6.053 2.241 6.846.174-1.557.58-2.949 1.147-4.041-.994-.254-2.481-.94-3.388-2.805zm7.611.348c-2.367 0-4.286 3.66-4.286 8.174h8.57c0-4.514-1.918-8.174-4.284-8.174z"/></g></svg>