<?xml version="1.0"?><!DOCTYPE svg PUBLIC "-//W3C//DTD SVG 1.1//EN" "http://www.w3.org/Graphics/SVG/1.1/DTD/svg11.dtd"><svg width="16px" height="16px" xmlns="http://www.w3.org/2000/svg" viewBox="0 0 16 16" shape-rendering="geometricPrecision" fill="#24437c"><defs><mask id="remove-path"><rect fill="#fff" width="100%" height="100%"/><rect x="8.986" y="1.143" width="8.014" height="3.565" fill="#000"/></mask></defs><g fill="#cb1800"><rect x="9.986" y="2.143" width="6.014" height="1.565"/></g><path mask="url(#remove-path)" d="M7.999,0.97c-0.855,0-1.671,0.16-2.429,0.44C5.315,1.219,5.001,1.101,4.658,1.101 c-0.845,0-1.53,0.685-1.53,1.529c0,0.096,0.011,0.19,0.028,0.281C1.812,4.193,0.97,5.997,0.97,8.003 c0.001,3.881,3.147,7.025,7.029,7.027c3.883-0.002,7.031-3.146,7.031-7.027C15.03,4.116,11.882,0.97,7.999,0.97z M13.588,7.63 h-0.889c-0.167-0.515-0.594-0.913-1.131-1.027C11.067,5.325,9.904,4.395,8.5,4.211V2.418C11.239,2.665,13.402,4.872,13.588,7.63z M9.802,7.63H8.5V4.988c0.991,0.165,1.814,0.801,2.242,1.674C10.295,6.821,9.948,7.178,9.802,7.63z M7.5,7.63H4.975 C5.142,6.281,6.17,5.21,7.5,4.988V7.63z M7.5,8.63v2.382C6.254,10.805,5.262,9.857,5.004,8.63H7.5z M8.5,8.63h1.322 c0.146,0.393,0.445,0.712,0.829,0.876c-0.448,0.786-1.225,1.352-2.151,1.507V8.63z M4.044,4.03c0.188,0.083,0.395,0.13,0.614,0.13 c0.82,0,1.484-0.647,1.522-1.458C6.6,2.557,7.041,2.459,7.5,2.418v1.793C5.741,4.442,4.371,5.852,4.198,7.63H2.412 C2.506,6.226,3.109,4.963,4.044,4.03z M2.43,8.63h1.793c0.275,1.655,1.602,2.939,3.276,3.159v1.793 C4.846,13.343,2.728,11.264,2.43,8.63z M8.5,13.582v-1.793c1.327-0.175,2.438-1.014,2.979-2.184 c0.556-0.084,1.01-0.463,1.201-0.975h0.89C13.271,11.264,11.154,13.343,8.5,13.582z"/></svg>