<svg width="16" height="16" xmlns="http://www.w3.org/2000/svg" viewBox="0 0 16 16" shape-rendering="geometricPrecision" fill="#cb1800"><defs><mask id="a"><rect fill="#fff" width="100%" height="100%"/><path d="M12.997.858a4.809 4.809 0 0 0-4.253 2.563 4.81 4.81 0 0 0 8.506 0A4.812 4.812 0 0 0 12.997.858z" fill="#000"/></mask></defs><path d="M12.971 1.607c-1.315 0-2.454.74-3.029 1.825a3.425 3.425 0 0 0 6.058 0 3.43 3.43 0 0 0-3.029-1.825z"/><g mask="url(#a)"><path d="M3.446 8.977c.252.232.55.418.908.418.431 0 .709-.226.709-.656 0-.424-.272-.65-.663-.65-.246 0-.371.053-.623.212l-.437-.278.119-2.127h2.386v.822H4.3l-.073.789c.159-.073.298-.1.471-.1.723 0 1.339.411 1.339 1.306 0 .934-.723 1.471-1.544 1.471-.689 0-1.153-.258-1.484-.59l.437-.617zM6.602 9.547c1.074-1.014 1.829-1.736 1.829-2.333 0-.411-.232-.636-.596-.636-.305 0-.537.206-.749.431l-.53-.523c.418-.444.809-.669 1.412-.669.829 0 1.392.53 1.392 1.339 0 .709-.663 1.464-1.345 2.18.212-.026.504-.053.703-.053h.848v.822H6.602v-.558zM12.018 7.99c-.02-.291-.166-.477-.517-.477-.278 0-.557.113-.875.298l-.345-.643c.418-.252.888-.431 1.405-.431.841 0 1.305.477 1.305 1.484v1.882h-.795l-.073-.338h-.02c-.278.246-.59.418-.96.418-.597 0-.974-.437-.974-.994 0-.689.55-1.066 1.849-1.199zm-.543 1.438c.225 0 .371-.106.543-.278v-.577c-.696.093-.921.291-.921.543 0 .213.146.312.378.312z"/><path d="M7.999.97a7.03 7.03 0 0 0 0 14.06 7.03 7.03 0 1 0 0-14.06zm0 12.638a5.616 5.616 0 0 1-5.607-5.605 5.616 5.616 0 0 1 5.607-5.611 5.617 5.617 0 0 1 5.609 5.611 5.615 5.615 0 0 1-5.609 5.605z"/></g></svg>