<svg width="16" height="16" xmlns="http://www.w3.org/2000/svg" viewBox="0 0 16 16" shape-rendering="geometricPrecision" fill="#cb1800"><defs><mask id="a"><rect fill="#fff" width="100%" height="100%"/><path d="M12.997.858a4.809 4.809 0 0 0-4.253 2.563 4.81 4.81 0 0 0 8.506 0A4.812 4.812 0 0 0 12.997.858z" fill="#000"/></mask></defs><path d="M12.971 1.607c-1.315 0-2.454.74-3.029 1.825a3.425 3.425 0 0 0 6.058 0 3.43 3.43 0 0 0-3.029-1.825z"/><g mask="url(#a)"><circle cx="11.278" cy="12.205" r=".769"/><circle cx="11.278" cy="7.939" r=".769"/><path d="M2.042.948V14.93h11.939V.948H2.042zm10.812 12.854H3.171v-3.138h9.682v3.138zm0-4.323H3.171V6.397h9.682v3.082zM3.171 5.213V2.077h9.682v3.136H3.171z"/><circle cx="11.278" cy="3.673" r=".769"/></g></svg>