<?xml version="1.0"?><!DOCTYPE svg PUBLIC "-//W3C//DTD SVG 1.1//EN" "http://www.w3.org/Graphics/SVG/1.1/DTD/svg11.dtd"><svg width="16px" height="16px" xmlns="http://www.w3.org/2000/svg" viewBox="0 0 16 16" shape-rendering="geometricPrecision" fill="#cb1800"><defs><mask id="visibility-visible-path"><rect fill="#fff" width="100%" height="100%"/><path d="M12.997,0.858c-1.845,0-3.446,1.039-4.253,2.563c0.808,1.523,2.408,2.562,4.253,2.562 c1.844,0,3.444-1.039,4.253-2.562C16.441,1.897,14.841,0.858,12.997,0.858z" fill="#000"/></mask></defs><path display="inline" d="M12.971,1.607c-1.315,0-2.454,0.74-3.029,1.825 c0.575,1.085,1.715,1.825,3.029,1.825c1.314,0,2.453-0.74,3.029-1.825C15.424,2.348,14.284,1.607,12.971,1.607z" fill="#cb1800"/><g mask="url(#visibility-visible-path)"><polygon points="5.295,3.817 5.295,7.67 2.909,9.059 3.853,10.711 7.181,8.779 7.201,8.779 7.198,3.818"/><path d="M9.791,1.79h-3.58C2.78,1.79,0,4.571,0,8.003c0,3.427,2.78,6.206,6.211,6.208h3.58 c3.429-0.002,6.208-2.78,6.209-6.208C16,4.571,13.22,1.79,9.791,1.79z M6.211,12.953c-2.736-0.005-4.949-2.218-4.955-4.951 c0.006-2.738,2.219-4.951,4.955-4.956c2.735,0.005,4.948,2.218,4.953,4.956C11.158,10.736,8.946,12.948,6.211,12.953z M9.955,12.945c1.494-1.134,2.464-2.923,2.465-4.942c0-2.022-0.969-3.813-2.464-4.947c2.658,0.092,4.783,2.265,4.788,4.947 C14.739,10.68,12.613,12.853,9.955,12.945z"/></g></svg>