<svg width="16" height="16" xmlns="http://www.w3.org/2000/svg" viewBox="0 0 16 16" shape-rendering="geometricPrecision" fill="#cb1800"><defs><mask id="a"><rect fill="#fff" width="100%" height="100%"/><path d="M12.997.858a4.809 4.809 0 0 0-4.253 2.563 4.81 4.81 0 0 0 8.506 0A4.812 4.812 0 0 0 12.997.858z" fill="#000"/></mask></defs><path d="M12.971 1.607c-1.315 0-2.454.74-3.029 1.825a3.425 3.425 0 0 0 6.058 0 3.43 3.43 0 0 0-3.029-1.825z"/><g mask="url(#a)"><path d="M12.99 8.003A4.992 4.992 0 1 1 7.998 3.01L7.997.893A7.111 7.111 0 0 0 .892 8.002a7.109 7.109 0 0 0 14.215.001H12.99z"/><path d="M8.941 7.062l.001 3.916h2.035l-.002-5.956-5.951.002-.001 2.035z"/></g></svg>