<svg width="16" height="16" xmlns="http://www.w3.org/2000/svg" viewBox="0 0 16 16" shape-rendering="geometricPrecision" fill="#cb1800"><defs><mask id="a"><rect fill="#fff" width="100%" height="100%"/><path d="M12.997.858a4.809 4.809 0 0 0-4.253 2.563 4.81 4.81 0 0 0 8.506 0A4.812 4.812 0 0 0 12.997.858z" fill="#000"/></mask></defs><path d="M12.971 1.607c-1.315 0-2.454.74-3.029 1.825a3.425 3.425 0 0 0 6.058 0 3.43 3.43 0 0 0-3.029-1.825z"/><g mask="url(#a)"><path d="M1.001 8.003a7 7 0 0 1 7-7.002v1.416a5.593 5.593 0 0 0-5.584 5.586 5.592 5.592 0 0 0 5.584 5.58 5.591 5.591 0 0 0 5.583-5.58 5.592 5.592 0 0 0-5.583-5.586V1.001a7 7 0 0 1 0 13.998 7 7 0 0 1-7-6.996z"/><path d="M8.463 8.001l-2.921 2.922 1.517 1.514 4.438-4.44L7.06 3.563 5.542 5.08z"/></g></svg>