<svg width="16" height="16" xmlns="http://www.w3.org/2000/svg" viewBox="0 0 16 16" shape-rendering="geometricPrecision" fill="#cb1800"><defs><mask id="a"><rect fill="#fff" width="100%" height="100%"/><path d="M12.997.858a4.809 4.809 0 0 0-4.253 2.563 4.81 4.81 0 0 0 8.506 0A4.812 4.812 0 0 0 12.997.858z" fill="#000"/></mask></defs><path d="M12.971 1.607c-1.315 0-2.454.74-3.029 1.825a3.425 3.425 0 0 0 6.058 0 3.43 3.43 0 0 0-3.029-1.825z"/><g mask="url(#a)"><path d="M14.939 10.55a1.086 1.086 0 0 0-1.387-.659l-2.979 1.022-3.994-1.622 2.546-.34a1.065 1.065 0 1 0-.266-2.115l-5.796.731c-.163.021-.31.081-.44.164a.635.635 0 0 0-.361.366l-.053.141c-.014.035-.03.069-.04.106l-1.131 3.018a.631.631 0 0 0 .054.552c.264.58 1.506 1.4 2.652 1.829l2.754.513c.192.031.363.04.538.03.171.026.349.016.524-.046l.448-.154.376-.116c1.504-.48 3.181-1.067 3.81-1.314.008-.003.012-.008.019-.011l2.067-.709c.565-.2.86-.821.659-1.386z"/><path d="M8.568 1.699a4.608 4.608 0 0 0-4.575 5.142l.925-.117a3.678 3.678 0 0 1-.032-.461 3.684 3.684 0 0 1 7.368 0 3.683 3.683 0 0 1-2.432 3.461l.83.522.62-.213a4.599 4.599 0 0 0 1.905-3.726 4.61 4.61 0 0 0-4.609-4.608z"/></g></svg>