<?xml version="1.0"?><!DOCTYPE svg PUBLIC "-//W3C//DTD SVG 1.1//EN" "http://www.w3.org/Graphics/SVG/1.1/DTD/svg11.dtd"><svg width="16px" height="16px" xmlns="http://www.w3.org/2000/svg" viewBox="0 0 16 16" shape-rendering="geometricPrecision" fill="#00962d"><defs><mask id="export-path"><rect fill="#fff" width="100%" height="100%"/><path d="M13.848-1.1l-1.797,1.795l0.286,0.287c-1.812,0.575-3.107,2.263-3.107,4.254v0.987h2.626 V5.235c0-0.491,0.191-0.954,0.538-1.302c0.01-0.01,0.021-0.02,0.03-0.03l1.425,1.421l3.212-3.213L13.848-1.1z" fill="#000"/></mask></defs><path id="export" display="inline" d="M13.848-0.04l-0.736,0.735l0.821,0.821h-0.234 l-0.156,0.008c-1.978,0.084-3.563,1.714-3.563,3.711v0.237h1.126V5.235c0-0.691,0.27-1.343,0.759-1.833 c0.49-0.489,1.141-0.759,1.833-0.759h0.237V2.643h0.063L13.112,3.53l0.735,0.734L16,2.111L13.848-0.04z" fill="#cb1800"/><g mask="url(#export-path)"><path d="M11.097,9.117c0,0.212,0.146,0.311,0.378,0.311c0.225,0,0.371-0.106,0.543-0.278V8.573 C11.322,8.666,11.097,8.865,11.097,9.117z"/><path d="M7.999,0.97c-3.882,0-7.029,3.147-7.029,7.033c0.001,3.881,3.147,7.025,7.029,7.027 c3.883-0.002,7.031-3.146,7.031-7.027C15.03,4.116,11.882,0.97,7.999,0.97z M4.492,10.183c-0.689,0-1.153-0.258-1.484-0.59 l0.438-0.616c0.252,0.232,0.55,0.418,0.908,0.418c0.431,0,0.709-0.226,0.709-0.656c0-0.424-0.272-0.65-0.663-0.65 c-0.245,0-0.371,0.053-0.623,0.212L3.34,8.023l0.119-2.127h2.386v0.822H4.3L4.227,7.507c0.159-0.073,0.298-0.1,0.471-0.1 c0.723,0,1.339,0.411,1.339,1.306C6.037,9.647,5.314,10.183,4.492,10.183z M9.564,10.104H6.602V9.547 c1.074-1.014,1.829-1.736,1.829-2.333c0-0.411-0.232-0.636-0.596-0.636c-0.305,0-0.537,0.206-0.749,0.431l-0.53-0.523 c0.418-0.444,0.809-0.669,1.411-0.669c0.829,0,1.392,0.53,1.392,1.339c0,0.709-0.663,1.464-1.345,2.18 c0.212-0.026,0.504-0.053,0.703-0.053h0.848V10.104z M12.197,10.104l-0.073-0.338h-0.02c-0.278,0.246-0.59,0.418-0.96,0.418 c-0.597,0-0.974-0.437-0.974-0.994c0-0.689,0.55-1.067,1.849-1.199c-0.02-0.291-0.166-0.477-0.517-0.477 c-0.278,0-0.557,0.113-0.875,0.298l-0.345-0.643c0.418-0.252,0.888-0.431,1.405-0.431c0.841,0,1.305,0.477,1.305,1.484v1.882 H12.197z"/></g></svg>