<?xml version="1.0"?><!DOCTYPE svg PUBLIC "-//W3C//DTD SVG 1.1//EN" "http://www.w3.org/Graphics/SVG/1.1/DTD/svg11.dtd"><svg width="16px" height="16px" xmlns="http://www.w3.org/2000/svg" viewBox="0 0 16 16" shape-rendering="geometricPrecision" fill="#00962d"><defs><mask id="export-path"><rect fill="#fff" width="100%" height="100%"/><path d="M13.848-1.1l-1.797,1.795l0.286,0.287c-1.812,0.575-3.107,2.263-3.107,4.254v0.987h2.626 V5.235c0-0.491,0.191-0.954,0.538-1.302c0.01-0.01,0.021-0.02,0.03-0.03l1.425,1.421l3.212-3.213L13.848-1.1z" fill="#000"/></mask></defs><path id="export" display="inline" d="M13.848-0.04l-0.736,0.735l0.821,0.821h-0.234 l-0.156,0.008c-1.978,0.084-3.563,1.714-3.563,3.711v0.237h1.126V5.235c0-0.691,0.27-1.343,0.759-1.833 c0.49-0.489,1.141-0.759,1.833-0.759h0.237V2.643h0.063L13.112,3.53l0.735,0.734L16,2.111L13.848-0.04z" fill="#cb1800"/><g mask="url(#export-path)"><path d="M9.284,2.017c-0.438,0-0.546,0.125-0.735,0.747L5.67,12.038 c-0.168,0.554-0.277,0.904-0.277,1.108c0,0.544,0.408,0.781,0.725,0.781c0.437,0,0.546-0.125,0.734-0.747L9.73,3.907 c0.169-0.555,0.277-0.906,0.277-1.108C10.008,2.254,9.602,2.017,9.284,2.017z"/><path d="M4.523,3.425C4.655,3.011,4.404,2.7,4.161,2.599C3.828,2.46,3.715,2.52,3.419,2.934 L0.584,6.853C0.391,7.125,0.269,7.306,0.187,7.452C0.162,7.489,0.142,7.528,0.124,7.571C0.119,7.582,0.105,7.601,0.102,7.61 C0.097,7.628,0.101,7.642,0.096,7.659c-0.014,0.053-0.02,0.106-0.019,0.166c0,0.061,0.005,0.115,0.02,0.168 c0.004,0.017,0,0.03,0.005,0.047c0.003,0.01,0.017,0.027,0.021,0.038C0.141,8.123,0.162,8.162,0.188,8.2 C0.27,8.347,0.391,8.527,0.584,8.798l2.834,3.919c0.296,0.413,0.41,0.475,0.742,0.337c0.243-0.102,0.494-0.413,0.362-0.828 c-0.05-0.152-0.219-0.387-0.482-0.756L1.405,7.825l2.636-3.643C4.304,3.813,4.473,3.579,4.523,3.425z"/><path d="M15.988,7.825c0-0.06-0.006-0.114-0.02-0.168c-0.004-0.017,0-0.03-0.005-0.047 c-0.003-0.01-0.017-0.027-0.021-0.038c-0.019-0.044-0.039-0.083-0.064-0.12c-0.082-0.146-0.203-0.328-0.397-0.599l-2.835-3.919 c-0.296-0.414-0.411-0.475-0.742-0.336c-0.243,0.102-0.495,0.412-0.362,0.826c0.05,0.154,0.219,0.389,0.481,0.758l2.637,3.643 l-2.637,3.645c-0.263,0.368-0.432,0.604-0.481,0.756c-0.133,0.415,0.119,0.727,0.362,0.828c0.333,0.138,0.446,0.076,0.742-0.337 l2.835-3.919c0.192-0.27,0.313-0.449,0.395-0.597c0.027-0.038,0.048-0.079,0.066-0.124c0.004-0.011,0.017-0.027,0.02-0.037 c0.005-0.017,0.001-0.029,0.005-0.045C15.982,7.941,15.989,7.886,15.988,7.825z"/></g></svg>