<svg width="16" height="16" xmlns="http://www.w3.org/2000/svg" viewBox="0 0 16 16" shape-rendering="geometricPrecision" fill="#00962d"><defs><mask id="a"><rect fill="#fff" width="100%" height="100%"/><path d="M13.848-1.1L12.051.695l.286.287A4.455 4.455 0 0 0 9.23 5.236v.987h2.626v-.988c0-.491.191-.954.538-1.302l.03-.03 1.425 1.421 3.212-3.213L13.848-1.1z" fill="#000"/></mask></defs><path d="M13.848-.04l-.736.735.821.821h-.234l-.156.008A3.722 3.722 0 0 0 9.98 5.235v.237h1.126v-.237c0-.691.27-1.343.759-1.833a2.579 2.579 0 0 1 1.833-.759h.3l-.886.887.735.734L16 2.111 13.848-.04z" fill="#cb1800"/><g mask="url(#a)"><path d="M14.186 9.847c0 .756-.626 1.381-1.381 1.384h-5.68l-.204.271c-.036.055-.853 1.103-2.306 1.798a3.69 3.69 0 0 0 .225-1.289c0-.027 0-.066-.002-.119l-.018-.662H3.195a1.395 1.395 0 0 1-1.381-1.384V4.489c0-.759.626-1.382 1.381-1.384h9.61a1.392 1.392 0 0 1 1.381 1.384v5.358z"/><path d="M12.455 2.215h-8.91A2.546 2.546 0 0 0 1.001 4.76v4.968a2.549 2.549 0 0 0 2.544 2.544h.198c-.097.406-.327.851-.833 1.312L1.333 15l2.097-.321c2.375-.376 3.844-1.808 4.372-2.407h4.654A2.547 2.547 0 0 0 15 9.728V4.76a2.547 2.547 0 0 0-2.545-2.545zm1.28 7.513c0 .7-.58 1.28-1.28 1.281H7.189L7 11.262c-.033.05-.79 1.021-2.137 1.666a3.46 3.46 0 0 0 .208-1.194l-.001-.11-.018-.614H3.545a1.29 1.29 0 0 1-1.28-1.281V4.76c0-.703.58-1.28 1.28-1.282h8.909c.7.002 1.28.579 1.28 1.282v4.968z"/></g></svg>