<svg width="16" height="16" xmlns="http://www.w3.org/2000/svg" viewBox="0 0 16 16" shape-rendering="geometricPrecision" fill="#00962d"><defs><mask id="a"><rect fill="#fff" width="100%" height="100%"/><path d="M13.848-1.1L12.051.695l.286.287A4.455 4.455 0 0 0 9.23 5.236v.987h2.626v-.988c0-.491.191-.954.538-1.302l.03-.03 1.425 1.421 3.212-3.213L13.848-1.1z" fill="#000"/></mask></defs><path d="M13.848-.04l-.736.735.821.821h-.234l-.156.008A3.722 3.722 0 0 0 9.98 5.235v.237h1.126v-.237c0-.691.27-1.343.759-1.833a2.579 2.579 0 0 1 1.833-.759h.3l-.886.887.735.734L16 2.111 13.848-.04z" fill="#cb1800"/><g mask="url(#a)"><path d="M8 6.636A2.837 2.837 0 0 0 5.167 9.47 2.837 2.837 0 0 0 8 12.302a2.837 2.837 0 0 0 2.833-2.832A2.837 2.837 0 0 0 8 6.636zm.556 3.278l-1.904 1.105-.54-.945 1.365-.794V7.077h1.089l.001 2.837h-.011z"/><path d="M7.394 4.755l-.816-1.923h-3.78l-.816 1.923H.861V14h14.278V4.755H7.394zM8 13.021a3.553 3.553 0 0 1 0-7.105 3.552 3.552 0 0 1 0 7.105z"/></g></svg>