<?xml version="1.0"?><!DOCTYPE svg PUBLIC "-//W3C//DTD SVG 1.1//EN" "http://www.w3.org/Graphics/SVG/1.1/DTD/svg11.dtd"><svg width="16px" height="16px" xmlns="http://www.w3.org/2000/svg" viewBox="0 0 16 16" shape-rendering="geometricPrecision" fill="#00962d"><defs><mask id="export-path"><rect fill="#fff" width="100%" height="100%"/><path d="M13.848-1.1l-1.797,1.795l0.286,0.287c-1.812,0.575-3.107,2.263-3.107,4.254v0.987h2.626 V5.235c0-0.491,0.191-0.954,0.538-1.302c0.01-0.01,0.021-0.02,0.03-0.03l1.425,1.421l3.212-3.213L13.848-1.1z" fill="#000"/></mask></defs><path id="export" display="inline" d="M13.848-0.04l-0.736,0.735l0.821,0.821h-0.234 l-0.156,0.008c-1.978,0.084-3.563,1.714-3.563,3.711v0.237h1.126V5.235c0-0.691,0.27-1.343,0.759-1.833 c0.49-0.489,1.141-0.759,1.833-0.759h0.237V2.643h0.063L13.112,3.53l0.735,0.734L16,2.111L13.848-0.04z" fill="#cb1800"/><g mask="url(#export-path)"><g><path d="M1.979,7.695c0-2.574,2.088-4.661,4.663-4.661h0.001V1.056H6.642c-3.665,0-6.641,2.975-6.641,6.64v0.002h1.978V7.695z M8.311,11.852c1.375,0,2.492-1.118,2.492-2.494c0-1.377-1.117-2.492-2.492-2.492V9.36H5.814 C5.816,10.735,6.934,11.852,8.311,11.852z M8.311,2.718v1.978c2.572,0,4.661,2.087,4.661,4.662c0,2.576-2.089,4.663-4.661,4.663 c-2.575,0-4.664-2.086-4.665-4.66H1.668c0.002,3.665,2.977,6.637,6.643,6.637c3.662,0,6.638-2.973,6.638-6.64 C14.948,5.693,11.974,2.718,8.311,2.718z"/></g></g></svg>