<svg width="16" height="16" xmlns="http://www.w3.org/2000/svg" viewBox="0 0 16 16" shape-rendering="geometricPrecision" fill="#00962d"><defs><mask id="a"><rect fill="#fff" width="100%" height="100%"/><path d="M13.848-1.1L12.051.695l.286.287A4.455 4.455 0 0 0 9.23 5.236v.987h2.626v-.988c0-.491.191-.954.538-1.302l.03-.03 1.425 1.421 3.212-3.213L13.848-1.1z" fill="#000"/></mask></defs><path d="M13.848-.04l-.736.735.821.821h-.234l-.156.008A3.722 3.722 0 0 0 9.98 5.235v.237h1.126v-.237c0-.691.27-1.343.759-1.833a2.579 2.579 0 0 1 1.833-.759h.3l-.886.887.735.734L16 2.111 13.848-.04z" fill="#cb1800"/><g mask="url(#a)"><path d="M3.359 0v1.056h10.329v12.842h1.072V0H3.359zM1.24 16h11.401V2.102H1.24V16zM6.956 3.726a2.65 2.65 0 0 1 2.651 2.651A2.648 2.648 0 0 1 6.956 9.03a2.651 2.651 0 1 1 0-5.304zm-4.509 8.458a2.296 2.296 0 0 1 2.288-2.295H9.17a2.302 2.302 0 0 1 2.296 2.295v2.98H2.447v-2.98z"/></g></svg>