<?xml version="1.0"?><!DOCTYPE svg PUBLIC "-//W3C//DTD SVG 1.1//EN" "http://www.w3.org/Graphics/SVG/1.1/DTD/svg11.dtd"><svg width="16px" height="16px" xmlns="http://www.w3.org/2000/svg" viewBox="0 0 16 16" shape-rendering="geometricPrecision" fill="#00962d"><defs><mask id="export-path"><rect fill="#fff" width="100%" height="100%"/><path d="M13.848-1.1l-1.797,1.795l0.286,0.287c-1.812,0.575-3.107,2.263-3.107,4.254v0.987h2.626 V5.235c0-0.491,0.191-0.954,0.538-1.302c0.01-0.01,0.021-0.02,0.03-0.03l1.425,1.421l3.212-3.213L13.848-1.1z" fill="#000"/></mask></defs><path id="export" display="inline" d="M13.848-0.04l-0.736,0.735l0.821,0.821h-0.234 l-0.156,0.008c-1.978,0.084-3.563,1.714-3.563,3.711v0.237h1.126V5.235c0-0.691,0.27-1.343,0.759-1.833 c0.49-0.489,1.141-0.759,1.833-0.759h0.237V2.643h0.063L13.112,3.53l0.735,0.734L16,2.111L13.848-0.04z" fill="#cb1800"/><g mask="url(#export-path)"><g><g><circle cx="6.552" cy="4.044" r="2.94"/><path d="M9.366,13.378l-0.402-3.99l0.409-1c-0.03,0-0.059-0.008-0.089-0.008H3.811c-1.559,0-2.826,1.275-2.826,2.832v3.684 h11.133v-3.684c0-0.051-0.013-0.1-0.016-0.152L9.366,13.378z"/></g><path d="M14.929,2.831c0.247-0.633-0.059-1.35-0.69-1.598c-0.63-0.256-1.345,0.051-1.603,0.68l0,0l-0.368,0.918l2.292,0.92 l0.371-0.92H14.929z M9.813,12.276l1.039-0.887l-1.168-0.467L9.813,12.276z M9.541,9.642l2.291,0.92l2.477-6.182l-2.292-0.918 L9.541,9.642z"/></g></g></svg>