<?xml version="1.0"?><!DOCTYPE svg PUBLIC "-//W3C//DTD SVG 1.1//EN" "http://www.w3.org/Graphics/SVG/1.1/DTD/svg11.dtd"><svg width="16px" height="16px" xmlns="http://www.w3.org/2000/svg" viewBox="0 0 16 16" shape-rendering="geometricPrecision" fill="#00962d"><defs><mask id="export-path"><rect fill="#fff" width="100%" height="100%"/><path d="M13.848-1.1l-1.797,1.795l0.286,0.287c-1.812,0.575-3.107,2.263-3.107,4.254v0.987h2.626 V5.235c0-0.491,0.191-0.954,0.538-1.302c0.01-0.01,0.021-0.02,0.03-0.03l1.425,1.421l3.212-3.213L13.848-1.1z" fill="#000"/></mask></defs><path id="export" display="inline" d="M13.848-0.04l-0.736,0.735l0.821,0.821h-0.234 l-0.156,0.008c-1.978,0.084-3.563,1.714-3.563,3.711v0.237h1.126V5.235c0-0.691,0.27-1.343,0.759-1.833 c0.49-0.489,1.141-0.759,1.833-0.759h0.237V2.643h0.063L13.112,3.53l0.735,0.734L16,2.111L13.848-0.04z" fill="#cb1800"/><g mask="url(#export-path)"><path d="M11.236,3.388c0.001-0.045,0.005-0.09,0.005-0.137c0-1.791-1.451-3.242-3.242-3.242 c-1.391,0-2.57,0.875-3.032,2.103l1.312,0.402c0.284-0.668,0.947-1.137,1.72-1.137c1.033,0,1.873,0.838,1.873,1.873 c0,0.525-0.222,1.002-0.572,1.342C8.718,5.216,8.272,5.216,7.128,5.831c-1.83,0.981-2.275,2.51-2.371,3.414v6.746h6.485V3.388 H11.236z M7.892,15.046h-0.01c-0.531,0-0.9-0.4-0.9-0.932c0-0.555,0.378-0.934,0.911-0.934c0.555,0,0.912,0.379,0.922,0.934 C8.814,14.645,8.447,15.046,7.892,15.046z M9.132,11.226c-0.379,0.418-0.532,0.818-0.521,1.279v0.186H7.248l-0.009-0.268 c-0.031-0.523,0.144-1.055,0.604-1.598c0.327-0.398,0.594-0.729,0.594-1.074c0-0.359-0.235-0.596-0.748-0.615 c-0.338,0-0.748,0.123-1.015,0.307L6.325,8.327c0.38-0.215,0.984-0.42,1.711-0.42c1.354,0,1.967,0.746,1.967,1.598 C10.002,10.284,9.52,10.794,9.132,11.226z"/></g></svg>