<svg width="16" height="16" xmlns="http://www.w3.org/2000/svg" viewBox="0 0 16 16" shape-rendering="geometricPrecision" fill="#00962d"><defs><mask id="a"><rect fill="#fff" width="100%" height="100%"/><path d="M13.848-1.1L12.051.695l.286.287A4.455 4.455 0 0 0 9.23 5.236v.987h2.626v-.988c0-.491.191-.954.538-1.302l.03-.03 1.425 1.421 3.212-3.213L13.848-1.1z" fill="#000"/></mask></defs><path d="M13.848-.04l-.736.735.821.821h-.234l-.156.008A3.722 3.722 0 0 0 9.98 5.235v.237h1.126v-.237c0-.691.27-1.343.759-1.833a2.579 2.579 0 0 1 1.833-.759h.3l-.886.887.735.734L16 2.111 13.848-.04z" fill="#cb1800"/><path mask="url(#a)" d="M14.307 9.69c.143-.537.227-1.1.227-1.682a6.525 6.525 0 0 0-6.525-6.525c-.581 0-1.142.084-1.678.227A3.321 3.321 0 0 0 1.71 6.329a6.51 6.51 0 0 0-.226 1.68 6.525 6.525 0 0 0 6.525 6.525 6.45 6.45 0 0 0 1.683-.229 3.322 3.322 0 0 0 4.615-4.615zm-3.332 1.299a2.43 2.43 0 0 1-.63.832 3.07 3.07 0 0 1-1.002.568 3.926 3.926 0 0 1-1.333.209 4.47 4.47 0 0 1-1.72-.338 4.481 4.481 0 0 1-1.464-.96l.908-1.07a3.96 3.96 0 0 0 1.083.725 2.93 2.93 0 0 0 1.232.277c.496 0 .878-.104 1.145-.311a.996.996 0 0 0 .399-.826.96.96 0 0 0-.102-.461 1.024 1.024 0 0 0-.283-.332 2.509 2.509 0 0 0-.44-.264 9.714 9.714 0 0 0-.556-.242l-1.205-.529a4.36 4.36 0 0 1-.65-.34 2.567 2.567 0 0 1-.576-.487 2.264 2.264 0 0 1-.562-1.531c0-.352.075-.678.224-.983.149-.3.354-.566.616-.79.262-.227.573-.4.934-.527.361-.127.759-.19 1.192-.19.524 0 1.024.1 1.503.305.478.203.889.477 1.232.818l-.812 1.002a3.653 3.653 0 0 0-.887-.555 2.577 2.577 0 0 0-1.036-.203c-.424 0-.76.092-1.009.277a.904.904 0 0 0-.373.766c0 .17.039.316.116.439.076.122.181.231.312.325.13.096.281.182.453.258.171.078.347.15.528.225l1.192.5c.262.109.503.234.724.381.222.143.411.311.569.498.158.191.28.41.366.658.085.248.128.535.128.861 0 .359-.071.699-.216 1.015z"/></svg>