<svg width="16" height="16" xmlns="http://www.w3.org/2000/svg" viewBox="0 0 16 16" shape-rendering="geometricPrecision" fill="#00962d"><defs><mask id="a"><rect fill="#fff" width="100%" height="100%"/><path d="M13.848-1.1L12.051.695l.286.287A4.455 4.455 0 0 0 9.23 5.236v.987h2.626v-.988c0-.491.191-.954.538-1.302l.03-.03 1.425 1.421 3.212-3.213L13.848-1.1z" fill="#000"/></mask></defs><path d="M13.848-.04l-.736.735.821.821h-.234l-.156.008A3.722 3.722 0 0 0 9.98 5.235v.237h1.126v-.237c0-.691.27-1.343.759-1.833a2.579 2.579 0 0 1 1.833-.759h.3l-.886.887.735.734L16 2.111 13.848-.04z" fill="#cb1800"/><path mask="url(#a)" d="M14.9 4.223l-2.144-.193a3.247 3.247 0 0 0-5.974.925c-.099.53-.099 1.291-.557 2.091-1.626.367-3.325.2-3.325.2s.273 1.135 2.174 2.048c-1.721 2.305-4.06 2.705-4.06 2.705s1.001.983 3.196.725c.803-.095 1.504-.457 1.826-.646l-2.271 1.408s1.385.422 4.327-.488c3.759-1.162 4.873-4.779 4.845-6.051l.016-.039 2.035-.852-2.093-.433 2.005-1.4zm-3.993 1.451c-.297 0-.539-.322-.539-.719 0-.397.242-.718.539-.718.298 0 .539.321.539.718 0 .397-.241.719-.539.719z"/></svg>