<svg width="16" height="16" xmlns="http://www.w3.org/2000/svg" viewBox="0 0 16 16" shape-rendering="geometricPrecision" fill="#00962d"><defs><mask id="a"><rect fill="#fff" width="100%" height="100%"/><path d="M13.848-1.1l-1.797 1.795.286.287c-1.812.575-3.107 2.263-3.107 4.254v.987h2.626v-.988c0-.491.191-.954.538-1.302l.03-.03 1.425 1.421 3.212-3.213-3.213-3.211z"/></mask></defs><path d="M13.848-.04l-.736.735.821.821h-.234l-.156.008c-1.978.084-3.563 1.714-3.563 3.711v.237h1.126v-.237c0-.691.27-1.343.759-1.833.49-.489 1.141-.759 1.833-.759h.3l-.886.887.735.734 2.153-2.153-2.152-2.151z" fill="#cb1800"/><g mask="url(#a)"><path d="M8 3.181c-3.471 0-6.48 1.953-8 4.82 1.52 2.865 4.529 4.818 8 4.818 3.469 0 6.479-1.953 8-4.818-1.521-2.867-4.531-4.82-8-4.82zm-.002 9.047c-2.334 0-4.229-1.893-4.229-4.227 0-2.336 1.895-4.229 4.229-4.229 2.336 0 4.23 1.893 4.23 4.229.001 2.334-1.894 4.227-4.23 4.227zM11.792 6.774l-1.346-1.345-3.268 3.267-1.71-1.709-1.344 1.344 3.056 3.055z"/></g></svg>