<svg width="16" height="16" xmlns="http://www.w3.org/2000/svg" viewBox="0 0 16 16" shape-rendering="geometricPrecision" fill="#00962d"><defs><mask id="a"><rect fill="#fff" width="100%" height="100%"/><path d="M13.848-1.1L12.051.695l.286.287A4.455 4.455 0 0 0 9.23 5.236v.987h2.626v-.988c0-.491.191-.954.538-1.302l.03-.03 1.425 1.421 3.212-3.213L13.848-1.1z" fill="#000"/></mask></defs><path d="M13.848-.04l-.736.735.821.821h-.234l-.156.008A3.722 3.722 0 0 0 9.98 5.235v.237h1.126v-.237c0-.691.27-1.343.759-1.833a2.579 2.579 0 0 1 1.833-.759h.3l-.886.887.735.734L16 2.111 13.848-.04z" fill="#cb1800"/><path d="M.995 14.003L14.01 1l.997.997L1.992 15zM7.59 3.71v2.121L9.714 3.71zM3.289 8.548v1.578l1.582-1.578zm3.105 3.558l-.61.61h.61zm4.3.61V7.81L7.59 10.911v1.805zm-7.195 2.285h11.496v-1.102H4.6zm8.393-8.389v6.104h3.103V6.435H12.07zm-9.797 4.705l.001-5.609H.995v7.141l.002-.434zm-1.1 3.684l.801-.002v.002h.195l-.996-.996z" mask="url(#a)"/></svg>