<svg width="16" height="16" xmlns="http://www.w3.org/2000/svg" viewBox="0 0 16 16" shape-rendering="geometricPrecision" fill="#24437c"><path d="M10.515 1.979l3.51 3.51v4.964l-3.51 3.51H5.551l-3.51-3.51V5.488l3.51-3.51h4.964m.414-.999H5.137L1.041 5.074v5.792l4.096 4.096h5.792l4.096-4.096V5.074L10.929.979z"/><path d="M3.446 8.977c.252.232.55.418.908.418.431 0 .709-.226.709-.656 0-.424-.272-.65-.663-.65-.246 0-.371.053-.623.212l-.437-.278.119-2.127h2.386v.822H4.3l-.073.789c.159-.073.298-.1.471-.1.723 0 1.339.411 1.339 1.306 0 .934-.723 1.471-1.544 1.471-.689 0-1.153-.258-1.484-.59l.437-.617zM6.602 9.547c1.074-1.014 1.829-1.736 1.829-2.333 0-.411-.232-.636-.596-.636-.305 0-.537.206-.749.431l-.53-.523c.418-.444.809-.669 1.412-.669.829 0 1.392.53 1.392 1.339 0 .709-.663 1.464-1.345 2.18.212-.026.504-.053.703-.053h.848v.822H6.602v-.558zM12.018 7.99c-.02-.291-.166-.477-.517-.477-.278 0-.557.113-.875.298l-.345-.643c.418-.252.888-.431 1.405-.431.841 0 1.305.477 1.305 1.484v1.882h-.795l-.073-.338h-.02c-.278.246-.59.418-.96.418-.597 0-.974-.437-.974-.994 0-.689.55-1.066 1.849-1.199zm-.543 1.438c.225 0 .371-.106.543-.278v-.577c-.696.093-.921.291-.921.543 0 .213.146.312.378.312z"/></svg>