<?xml version="1.0" encoding="UTF-8" standalone="no"?>
<!DOCTYPE svg PUBLIC "-//W3C//DTD SVG 1.1//EN" "http://www.w3.org/Graphics/SVG/1.1/DTD/svg11.dtd">
<svg width="100%" height="100%" viewBox="0 0 32 32" version="1.1" xmlns="http://www.w3.org/2000/svg" xmlns:xlink="http://www.w3.org/1999/xlink" xml:space="preserve" style="fill-rule:evenodd;clip-rule:evenodd;stroke-linejoin:round;stroke-miterlimit:1.41421;">
    <path d="M32,20.548C32,17.983 30.229,15.832 27.844,15.252C27.743,11.23 24.455,8 20.411,8C18.042,8 15.934,9.109 14.572,10.835C13.808,9.848 12.613,9.211 11.269,9.211C8.962,9.211 7.093,11.082 7.093,13.39C7.093,13.591 7.108,13.789 7.136,13.982C6.785,13.919 6.425,13.884 6.056,13.884C2.712,13.884 0.002,16.596 0.002,19.942C0.002,23.288 2.712,26 6.056,26L26.564,26C29.568,25.994 32.002,23.556 32.002,20.549L32,20.548Z" style="fill:rgb(36,67,124);fill-rule:nonzero;"/>
</svg>
