<svg width="16" height="16" xmlns="http://www.w3.org/2000/svg" viewBox="0 0 16 16" shape-rendering="geometricPrecision" fill="#24437c"><path d="M11.257 7.001a2.493 2.493 0 0 0 2.497-2.495 2.493 2.493 0 0 0-2.497-2.494 2.496 2.496 0 1 0 0 4.989zM.017 10.414v3.575h5.081v-3.576a3.824 3.824 0 0 1 .869-2.404H2.415a2.406 2.406 0 0 0-2.398 2.405zm13.559-2.405H8.931a2.406 2.406 0 0 0-2.398 2.404v3.575h9.45v-3.575a2.413 2.413 0 0 0-2.407-2.404zM4.741 2.011a2.495 2.495 0 1 0 2.496 2.494 2.493 2.493 0 0 0-2.496-2.494z"/></svg>