<?xml version="1.0" encoding="UTF-8" standalone="no"?>
<!DOCTYPE svg PUBLIC "-//W3C//DTD SVG 1.1//EN" "http://www.w3.org/Graphics/SVG/1.1/DTD/svg11.dtd">
<svg width="100%" height="100%" viewBox="0 0 16 16" version="1.1" xmlns="http://www.w3.org/2000/svg" xmlns:xlink="http://www.w3.org/1999/xlink" xml:space="preserve" style="fill-rule:evenodd;clip-rule:evenodd;stroke-linejoin:round;stroke-miterlimit:1.41421;">
    <path d="M7.394,4.755L6.578,2.832L2.798,2.832L1.982,4.755L0.861,4.755L0.861,14L15.139,14L15.139,4.755L7.394,4.755ZM14.042,12.929L1.916,12.929L1.916,5.929L14.041,5.929L14.041,12.929L14.042,12.929Z" style="fill:rgb(36,67,124);fill-rule:nonzero;"/>
    <g transform="matrix(0.445252,0,0,0.445252,4.4362,5.79178)">
        <path d="M1.008,5.362L1.008,13.094L15,13.094L15,5.336L7.985,10.861L1.008,5.362L1.008,5.362ZM1.008,3.386L1.008,3.405L7.985,8.932L15,3.412L15,3.386L1.008,3.386Z" style="fill:rgb(36,67,124);fill-rule:nonzero;"/>
    </g>
</svg>
