<?xml version="1.0" encoding="UTF-8" standalone="no"?>
<!DOCTYPE svg PUBLIC "-//W3C//DTD SVG 1.1//EN" "http://www.w3.org/Graphics/SVG/1.1/DTD/svg11.dtd">
<svg width="100%" height="100%" viewBox="0 0 16 16" version="1.1" xmlns="http://www.w3.org/2000/svg" xmlns:xlink="http://www.w3.org/1999/xlink" xml:space="preserve" style="fill-rule:evenodd;clip-rule:evenodd;stroke-linejoin:round;stroke-miterlimit:1.41421;">
    <path d="M7.394,4.755L6.578,2.832L2.798,2.832L1.982,4.755L0.861,4.755L0.861,14L15.139,14L15.139,4.755L7.394,4.755ZM14.042,12.929L1.916,12.929L1.916,5.929L14.041,5.929L14.041,12.929L14.042,12.929Z" style="fill:rgb(36,67,124);fill-rule:nonzero;"/>
    <g transform="matrix(0.375244,0,0,0.375244,4.99805,6.42733)">
        <path d="M13,2L13,15L3,15L3,2L13,2M14,1L2,1L2,16L14,16L14,1Z" style="fill:rgb(36,67,124);fill-rule:nonzero;"/>
        <path d="M5.938,0L9.969,0L9.969,2.969L5.938,2.969L5.938,0ZM5,6.938L11,6.938L11,8.959L5,8.959L5,6.938ZM5,9.938L11,9.938L11,12.038L5,12.038L5,9.938Z" style="fill:rgb(36,67,124);fill-rule:nonzero;"/>
    </g>
</svg>
