<?xml version="1.0" encoding="UTF-8" standalone="no"?>
<svg
   xmlns:dc="http://purl.org/dc/elements/1.1/"
   xmlns:cc="http://creativecommons.org/ns#"
   xmlns:rdf="http://www.w3.org/1999/02/22-rdf-syntax-ns#"
   xmlns:svg="http://www.w3.org/2000/svg"
   xmlns="http://www.w3.org/2000/svg"
   id="svg6629"
   version="1.1"
   fill="#24437c"
   shape-rendering="geometricPrecision"
   viewBox="0 0 16 16"
   height="16"
   width="16">
  <metadata
     id="metadata6635">
    <rdf:RDF>
      <cc:Work
         rdf:about="">
        <dc:format>image/svg+xml</dc:format>
        <dc:type
           rdf:resource="http://purl.org/dc/dcmitype/StillImage" />
        <dc:title></dc:title>
      </cc:Work>
    </rdf:RDF>
  </metadata>
  <defs
     id="defs6633" />
  <path
     id="path6625"
     d="M8.182 3.179l-.815-1.923h-3.78L2.77 3.179H1.649l.001.949 13.327-.009.018 9.283.933-.978V3.179z" />
  <path
     id="path6627"
     d="M.072 4.756h14.279V14H.072z" />
  <path
     style="fill:#ffffff;fill-opacity:1;stroke-width:0.44556391;shape-rendering:geometricPrecision"
     d="m 7.2700147,6.3037522 a 3.1323143,3.1323143 0 0 0 0,6.2646278 3.1323143,3.1323143 0 1 0 0,-6.2646278 z m 0.2232275,2.3106945 c 0.219663,-0.00847 0.4455639,-0.028516 0.6665636,-0.05525 0.018714,0.2031771 0.030744,0.4215034 0.036536,0.6540878 H 7.4932422 Z m 0,-0.4460095 V 6.9489288 c 0.1332236,0.01203 0.2624371,0.035645 0.3885317,0.067726 0.059706,0.1996126 0.1550562,0.5801242 0.2281287,1.0996517 -0.2058505,0.024952 -0.41482,0.043665 -0.6166604,0.052131 z M 7.0476783,8.1679916 C 6.8502933,8.1590804 6.6431061,8.1399211 6.43681,8.114524 6.5094369,7.5887586 6.6056787,7.2109203 6.6658299,7.0148722 a 2.4595128,2.4595128 0 0 1 0.3818484,-0.065943 z m 0,0.4460095 v 0.5992835 h -0.695971 c 0.00579,-0.2339211 0.017377,-0.4531385 0.035645,-0.6558701 0.2218908,0.027179 0.4460095,0.047675 0.660326,0.056587 z M 5.9061434,9.2132846 H 4.7833223 A 2.4871377,2.4871377 0 0 1 5.0368482,8.3234934 c 0.2250098,0.049012 0.5484892,0.1140644 0.9080593,0.1715422 a 10.963991,10.963991 0 0 0 -0.038764,0.718249 z m -8.911e-4,0.4455639 c 0.00535,0.2722395 0.019159,0.5262105 0.040992,0.7605775 -0.3524412,0.0557 -0.6670093,0.119411 -0.8902369,0.168868 A 2.4826821,2.4826821 0 0 1 4.7833223,9.6588485 Z m 0.4455639,0 h 0.6968621 v 0.6447305 c -0.2169898,0.0085 -0.4406629,0.02807 -0.6594348,0.05391 A 9.8830531,9.8830531 0 0 1 6.3508162,9.6588485 Z m 0.6968621,1.0911855 v 1.17317 a 2.5129805,2.5129805 0 0 1 -0.3947698,-0.06906 c -0.060151,-0.209415 -0.1470361,-0.572995 -0.2143162,-1.052867 0.2036227,-0.02451 0.4099188,-0.04277 0.609086,-0.05124 z m 0.4455639,4.46e-4 c 0.1996126,0.0089 0.4094732,0.02852 0.6179971,0.05436 a 7.4578487,7.4578487 0 0 1 -0.2134251,1.046184 2.4791176,2.4791176 0 0 1 -0.404572,0.07218 z m 0,-0.44601 V 9.6588485 h 0.7044365 c -0.0049,0.2521892 -0.017823,0.4865555 -0.036982,0.7030995 A 8.2808053,8.2808053 0 0 0 7.4932422,10.30447 Z M 8.6436882,9.6588485 H 9.757598 A 2.4844644,2.4844644 0 0 1 9.4840217,10.590077 16.640475,16.640475 0 0 0 8.6035874,10.424327 c 0.020941,-0.234812 0.0352,-0.4896745 0.040101,-0.7654785 z M 8.6423515,9.2132846 A 10.588381,10.588381 0 0 0 8.6022508,8.4977089 15.217344,15.217344 0 0 0 9.5045177,8.3257213 2.4951579,2.4951579 0 0 1 9.757598,9.2137301 H 8.6423515 Z M 9.2536652,7.9233771 C 9.0585082,7.9643689 8.8161214,8.0115987 8.5510109,8.0539273 A 8.8110263,8.8110263 0 0 0 8.3937268,7.2078014 C 8.7323554,7.3793435 9.0255365,7.6244037 9.2536652,7.9233771 Z M 6.1520947,7.205128 C 6.098627,7.4221177 6.042486,7.7072786 5.9952562,8.0512539 A 17.005392,17.005392 0 0 1 5.2885918,7.9211492 2.5129805,2.5129805 0 0 1 6.1520947,7.205128 Z m -0.8354324,3.783728 c 0.1915925,-0.0401 0.4264047,-0.0851 0.6808217,-0.125649 0.044556,0.319024 0.096242,0.587699 0.1465905,0.799787 A 2.5018414,2.5018414 0 0 1 5.3166623,10.988856 Z m 3.0931048,0.667901 c 0.049903,-0.20897 0.1002519,-0.472744 0.1439172,-0.788203 0.2481791,0.0401 0.4789812,0.08377 0.6687914,0.12253 a 2.5089704,2.5089704 0 0 1 -0.8127086,0.665673 z"
     id="path6301" />
</svg>
