<?xml version="1.0" encoding="UTF-8" standalone="no"?>
<!DOCTYPE svg PUBLIC "-//W3C//DTD SVG 1.1//EN" "http://www.w3.org/Graphics/SVG/1.1/DTD/svg11.dtd">
<svg width="100%" height="100%" viewBox="0 0 16 16" version="1.1" xmlns="http://www.w3.org/2000/svg" xmlns:xlink="http://www.w3.org/1999/xlink" xml:space="preserve" style="fill-rule:evenodd;clip-rule:evenodd;stroke-linejoin:round;stroke-miterlimit:1.41421;">
    <path d="M8.182,3.179L7.367,1.256L3.587,1.256L2.77,3.179L1.649,3.179L1.65,4.128L14.977,4.119L14.995,13.402L15.928,12.424L15.928,3.179L8.182,3.179Z" style="fill:rgb(36,67,124);fill-rule:nonzero;"/>
    <path d="M0.072,4.756L0.072,14L14.351,14L14.351,4.756L0.072,4.756ZM13.25,12.929L1.041,12.929L1.041,5.929L13.25,5.929L13.25,12.929Z" style="fill:rgb(36,67,124);fill-rule:nonzero;"/>
    <g transform="matrix(0.445252,0,0,0.445252,3.6477,5.70912)">
        <path d="M1.008,5.362L1.008,13.094L15,13.094L15,5.336L7.985,10.861L1.008,5.362L1.008,5.362ZM1.008,3.386L1.008,3.405L7.985,8.932L15,3.412L15,3.386L1.008,3.386Z" style="fill:rgb(36,67,124);fill-rule:nonzero;"/>
    </g>
</svg>
