<?xml version="1.0" encoding="UTF-8" standalone="no"?>
<svg
   xmlns:dc="http://purl.org/dc/elements/1.1/"
   xmlns:cc="http://creativecommons.org/ns#"
   xmlns:rdf="http://www.w3.org/1999/02/22-rdf-syntax-ns#"
   xmlns:svg="http://www.w3.org/2000/svg"
   xmlns="http://www.w3.org/2000/svg"
   id="svg6431"
   version="1.1"
   fill="#24437c"
   shape-rendering="geometricPrecision"
   viewBox="0 0 16 16"
   height="16"
   width="16">
  <metadata
     id="metadata6437">
    <rdf:RDF>
      <cc:Work
         rdf:about="">
        <dc:format>image/svg+xml</dc:format>
        <dc:type
           rdf:resource="http://purl.org/dc/dcmitype/StillImage" />
        <dc:title></dc:title>
      </cc:Work>
    </rdf:RDF>
  </metadata>
  <defs
     id="defs6435" />
  <path
     id="path6429"
     d="M7.394 4.755l-.816-1.923h-3.78l-.816 1.923H.861V14h14.278V4.755z" />
  <g
     transform="matrix(0.44556391,0,0,0.44556391,4.6054258,5.9439633)"
     id="g6312"
     style="fill:#ffffff;shape-rendering:geometricPrecision">
    <path
       style="fill:#ffffff"
       d="m 7.999,0.97 a 7.03,7.03 0 0 0 0,14.06 7.03,7.03 0 1 0 0,-14.06 z M 8.5,6.156 C 8.993,6.137 9.5,6.092 9.996,6.032 10.038,6.488 10.065,6.978 10.078,7.5 H 8.5 Z m 0,-1.001 V 2.418 C 8.799,2.445 9.089,2.498 9.372,2.57 9.506,3.018 9.72,3.872 9.884,5.038 9.422,5.094 8.953,5.136 8.5,5.155 Z M 7.5,5.154 C 7.057,5.134 6.592,5.091 6.129,5.034 6.292,3.854 6.508,3.006 6.643,2.566 A 5.52,5.52 0 0 1 7.5,2.418 Z m 0,1.001 V 7.5 H 5.938 C 5.951,6.975 5.977,6.483 6.018,6.028 6.516,6.089 7.019,6.135 7.5,6.155 Z M 4.938,7.5 H 2.418 A 5.582,5.582 0 0 1 2.987,5.503 c 0.505,0.11 1.231,0.256 2.038,0.385 A 24.607,24.607 0 0 0 4.938,7.5 Z m -0.002,1 C 4.948,9.111 4.979,9.681 5.028,10.207 4.237,10.332 3.531,10.475 3.03,10.586 A 5.572,5.572 0 0 1 2.418,8.5 Z m 1,0 H 7.5 V 9.947 C 7.013,9.966 6.511,10.01 6.02,10.068 A 22.181,22.181 0 0 1 5.936,8.5 Z M 7.5,10.949 v 2.633 A 5.64,5.64 0 0 1 6.614,13.427 C 6.479,12.957 6.284,12.141 6.133,11.064 6.59,11.009 7.053,10.968 7.5,10.949 Z m 1,10e-4 c 0.448,0.02 0.919,0.064 1.387,0.122 A 16.738,16.738 0 0 1 9.408,13.42 5.564,5.564 0 0 1 8.5,13.582 Z m 0,-1.001 V 8.5 h 1.581 C 10.07,9.066 10.041,9.592 9.998,10.078 A 18.585,18.585 0 0 0 8.5,9.949 Z M 11.082,8.5 h 2.5 a 5.576,5.576 0 0 1 -0.614,2.09 37.347,37.347 0 0 0 -1.976,-0.372 C 11.039,9.691 11.071,9.119 11.082,8.5 Z m -0.003,-1 a 23.764,23.764 0 0 0 -0.09,-1.606 34.153,34.153 0 0 0 2.025,-0.386 5.6,5.6 0 0 1 0.568,1.993 H 11.079 Z M 12.451,4.605 C 12.013,4.697 11.469,4.803 10.874,4.898 A 19.775,19.775 0 0 0 10.521,2.999 c 0.76,0.385 1.418,0.935 1.93,1.606 z M 5.49,2.993 C 5.37,3.48 5.244,4.12 5.138,4.892 A 38.166,38.166 0 0 1 3.552,4.6 5.64,5.64 0 0 1 5.49,2.993 Z m -1.875,8.492 c 0.43,-0.09 0.957,-0.191 1.528,-0.282 0.1,0.716 0.216,1.319 0.329,1.795 A 5.615,5.615 0 0 1 3.615,11.485 Z m 6.942,1.499 c 0.112,-0.469 0.225,-1.061 0.323,-1.769 0.557,0.09 1.075,0.188 1.501,0.275 a 5.631,5.631 0 0 1 -1.824,1.494 z"
       id="path6301" />
  </g>
</svg>
