<svg width="16" height="16" xmlns="http://www.w3.org/2000/svg" viewBox="0 0 16 16" shape-rendering="geometricPrecision" fill="#24437c"><circle cx="3.535" cy="5.212" r="1.794"/><path d="M4.351 7.858H2.712c-.951 0-1.725.779-1.725 1.73v2.246H6.08V9.589a1.736 1.736 0 0 0-1.729-1.731z"/><circle cx="12.466" cy="7.338" r="1.794"/><path d="M13.282 9.983h-1.639a1.73 1.73 0 0 0-1.724 1.729v2.248h5.093v-2.248c0-.949-.779-1.729-1.73-1.729z"/><circle cx="7.505" cy="3.228" r="1.794"/><path d="M10.05 9.851V7.603c0-.949-.778-1.729-1.73-1.729H6.682c-.928 0-1.68.74-1.717 1.66a2.15 2.15 0 0 1 1.541 2.055v.262h3.544z"/></svg>