<svg width="16" height="16" xmlns="http://www.w3.org/2000/svg" viewBox="0 0 16 16" shape-rendering="geometricPrecision" fill="#24437c"><path d="M8 1.001a7 7 0 1 0 .003 14 7 7 0 0 0-.003-14zm0 12.584a5.59 5.59 0 0 1-5.583-5.581A5.593 5.593 0 0 1 8 2.417a5.594 5.594 0 0 1 5.585 5.587A5.593 5.593 0 0 1 8 13.585zm.127-8.259c.554 0 1-.459 1-1.021a1.01 1.01 0 0 0-1-1.024c-.553 0-1.001.458-1.001 1.024 0 .562.448 1.021 1.001 1.021zm.987 1.049H6.118v.761H7.1v4.078h-.985v1.015h3.986v-1.015h-.987V6.375z"/></svg>