<svg width="16" height="16" xmlns="http://www.w3.org/2000/svg" viewBox="0 0 16 16" shape-rendering="geometricPrecision" fill="#24437c"><path d="M14.358 9.706a6.599 6.599 0 0 0 .228-1.697 6.578 6.578 0 0 0-6.578-6.578 6.59 6.59 0 0 0-1.691.229 3.314 3.314 0 0 0-1.906-.599 3.35 3.35 0 0 0-2.752 5.256 6.56 6.56 0 0 0-.227 1.692 6.578 6.578 0 0 0 6.578 6.578c.587 0 1.154-.084 1.696-.229a3.35 3.35 0 0 0 4.652-4.652zm-2.77 4.207c-.468 0-.92-.139-1.306-.402l-.388-.264-.453.121a5.577 5.577 0 0 1-1.433.193 5.558 5.558 0 0 1-5.552-5.553c0-.465.065-.947.193-1.428l.122-.459-.27-.388a2.306 2.306 0 0 1-.414-1.322 2.327 2.327 0 0 1 2.324-2.324c.475 0 .932.145 1.322.414l.39.271.458-.123a5.618 5.618 0 0 1 1.428-.191 5.557 5.557 0 0 1 5.552 5.551c0 .467-.065.949-.194 1.432l-.121.453.265.389c.263.387.402.838.402 1.307a2.327 2.327 0 0 1-2.325 2.323z"/><path d="M10.719 8.46a2.627 2.627 0 0 0-.574-.506 4.599 4.599 0 0 0-.729-.381l-1.202-.506c-.182-.074-.36-.146-.532-.224a2.615 2.615 0 0 1-.458-.26 1.187 1.187 0 0 1-.314-.328.821.821 0 0 1-.116-.443c0-.326.125-.584.375-.772.25-.188.59-.279 1.018-.279.382 0 .73.068 1.043.205.314.135.613.322.896.559l.818-1.01a3.883 3.883 0 0 0-1.242-.826 3.82 3.82 0 0 0-1.515-.307c-.437 0-.838.065-1.202.191a2.903 2.903 0 0 0-.942.531 2.495 2.495 0 0 0-.62.799 2.2 2.2 0 0 0-.226.99 2.27 2.27 0 0 0 .567 1.543c.168.191.361.354.58.49.218.137.437.252.655.342l1.215.533c.2.082.387.162.56.246.172.08.32.17.444.264.122.096.218.209.286.336a.971.971 0 0 1 .103.465c0 .346-.134.623-.402.832-.269.209-.653.312-1.154.312-.418 0-.833-.092-1.242-.279a3.988 3.988 0 0 1-1.092-.729l-.915 1.078c.428.418.919.742 1.475.969a4.502 4.502 0 0 0 1.734.342c.5 0 .948-.07 1.344-.213.396-.141.733-.33 1.01-.572a2.425 2.425 0 0 0 .854-1.863c0-.328-.043-.617-.129-.867a2.131 2.131 0 0 0-.371-.662z"/></svg>