<svg width="16" height="16" xmlns="http://www.w3.org/2000/svg" viewBox="0 0 16 16" shape-rendering="geometricPrecision"><defs><mask id="a"><rect fill="#fff" width="100%" height="100%"/><path d="M13.135-1H9.585v7.956H16V-1z"/></mask></defs><g fill="#cb1800"><path d="M10.585 0h1.55v5.956h-1.55zM13.45 0H15v5.956h-1.55z"/></g><path mask="url(#a)" d="M15.986 9.771c0-1.28-.884-2.354-2.075-2.644a3.713 3.713 0 0 0-6.625-2.205 2.085 2.085 0 0 0-3.713 1.572 3.023 3.023 0 0 0-3.56 2.975 3.023 3.023 0 0 0 3.022 3.024h10.237a2.72 2.72 0 0 0 2.714-2.722z"/></svg>