<svg width="16" height="16" xmlns="http://www.w3.org/2000/svg" viewBox="0 0 16 16" shape-rendering="geometricPrecision"><defs><mask id="a"><rect fill="#fff" width="100%" height="100%"/><path d="M13.135-1h-3.55v7.956H16V-1z"/></mask></defs><path d="M10.585 0h1.55v5.956h-1.55zm2.865 0H15v5.956h-1.55z" fill="#cb1800"/><path d="M14.085 1.939a6.336 6.336 0 0 1 .002 8.965 6.337 6.337 0 0 1-7.916.847h-.009v2.125l-.013.014H4.022v2.123H.013v-4.014h.01l-.003-.005 3.574-3.573A6.33 6.33 0 0 1 5.122 1.94a6.335 6.335 0 0 1 8.963-.001zm-3.928 3.928z" mask="url(#a)"/></svg>