<svg width="16" height="16" xmlns="http://www.w3.org/2000/svg" viewBox="0 0 16 16" shape-rendering="geometricPrecision"><defs><mask id="a"><rect fill="#fff" width="100%" height="100%"/><path d="M13.135-1h-3.55v7.956H16V-1z"/></mask></defs><path d="M10.585 0h1.55v5.956h-1.55zm2.865 0H15v5.956h-1.55z" fill="#cb1800"/><g mask="url(#a)"><path d="M7.999.97a7.03 7.03 0 0 0 0 14.06 7.03 7.03 0 1 0 0-14.06zm0 12.638a5.616 5.616 0 0 1-5.607-5.605 5.616 5.616 0 0 1 5.607-5.611 5.617 5.617 0 0 1 5.609 5.611 5.615 5.615 0 0 1-5.609 5.605z"/></g></svg>