<svg width="16" height="16" xmlns="http://www.w3.org/2000/svg" viewBox="0 0 16 16" shape-rendering="geometricPrecision"><defs><mask id="a"><rect fill="#fff" width="100%" height="100%"/><path d="M13.135-1h-3.55v7.956H16V-1z"/></mask></defs><path d="M10.585 0h1.55v5.956h-1.55zm2.865 0H15v5.956h-1.55z" fill="#cb1800"/><g mask="url(#a)"><path d="M15.432 12.94l-3.595-3.593-.356-.356c1.227-2.3.901-5.215-1.039-7.157a6.09 6.09 0 0 0-8.609.003 6.085 6.085 0 0 0 .002 8.605c1.939 1.939 4.855 2.267 7.158 1.037l3.952 3.952a1.757 1.757 0 0 0 2.486 0c.69-.687.69-1.8.001-2.491zM3.104 9.17a4.286 4.286 0 0 1 .001-6.062 4.285 4.285 0 0 1 6.064-.005A4.29 4.29 0 0 1 3.104 9.17z"/></g></svg>