<svg width="16" height="16" xmlns="http://www.w3.org/2000/svg" viewBox="0 0 16 16" shape-rendering="geometricPrecision"><defs><mask id="a"><rect fill="#fff" width="100%" height="100%"/><path d="M13.135-1H9.585v7.956H16V-1z"/></mask></defs><g fill="#cb1800"><path d="M10.585 0h1.55v5.956h-1.55zM13.45 0H15v5.956h-1.55z"/></g><g mask="url(#a)"><path d="M1 11.479h13.987v1.042H1zM1 7.465h13.987v1.062H1zM1 3.45h13.987v1.021H1z"/><path d="M7.466 10.505h2.027c.267 0 .483.216.483.483v2.027a.483.483 0 0 1-.483.483H7.466a.483.483 0 0 1-.483-.483v-2.027c0-.267.217-.483.483-.483zM10.474 6.501h2.032c.267 0 .483.216.483.483v2.032a.483.483 0 0 1-.483.483h-2.032a.483.483 0 0 1-.483-.483V6.984c0-.267.217-.483.483-.483zM3.477 2.502h2.019c.267 0 .483.216.483.483v2.019a.483.483 0 0 1-.483.483H3.477a.483.483 0 0 1-.483-.483V2.985c0-.267.216-.483.483-.483z"/></g></svg>