<svg width="16" height="16" xmlns="http://www.w3.org/2000/svg" viewBox="0 0 16 16" shape-rendering="geometricPrecision"><defs><mask id="a"><rect fill="#fff" width="100%" height="100%"/><path d="M13.135-1h-3.5500000000000003v7.956h6.415000000000001v-7.956z"/></mask></defs><g fill="#cb1800"><path d="M10.585 0h1.55v5.956h-1.55zM13.45 0h1.55v5.956h-1.55z"/></g><g mask="url(#a)"><path d="M8 3.181c-3.471 0-6.48 1.953-8 4.82 1.52 2.865 4.529 4.818 8 4.818 3.469 0 6.479-1.953 8-4.818-1.521-2.867-4.531-4.82-8-4.82zm-.002 9.047c-2.334 0-4.229-1.893-4.229-4.227 0-2.336 1.895-4.229 4.229-4.229 2.336 0 4.23 1.893 4.23 4.229.001 2.334-1.894 4.227-4.23 4.227zM11.792 6.774l-1.346-1.345-3.268 3.267-1.71-1.709-1.344 1.344 3.056 3.055z"/></g></svg>