<svg width="16" height="16" xmlns="http://www.w3.org/2000/svg" viewBox="0 0 16 16" shape-rendering="geometricPrecision"><defs><mask id="a"><rect fill="#fff" width="100%" height="100%"/><path d="M13.135-1h-3.55v7.956H16V-1z"/></mask></defs><path d="M10.585 0h1.55v5.956h-1.55zm2.865 0H15v5.956h-1.55z" fill="#cb1800"/><g mask="url(#a)"><path d="M8 3.181a9.045 9.045 0 0 0-8 4.82 9.05 9.05 0 1 0 16 0 9.049 9.049 0 0 0-8-4.82zm-.002 9.047a4.23 4.23 0 0 1-4.229-4.227 4.23 4.23 0 0 1 8.459 0 4.228 4.228 0 0 1-4.23 4.227z"/><circle cx="8.011" cy="8.096" r="2.165"/></g></svg>