<svg width="16" height="16" xmlns="http://www.w3.org/2000/svg" viewBox="0 0 16 16" shape-rendering="geometricPrecision" fill="#00962d"><defs><mask id="a"><rect fill="#fff" width="100%" height="100%"/><path d="M12.997.858a4.809 4.809 0 0 0-4.253 2.563 4.81 4.81 0 0 0 8.506 0A4.812 4.812 0 0 0 12.997.858z" fill="#000"/></mask></defs><path d="M12.971 1.607c-1.315 0-2.454.74-3.029 1.825a3.425 3.425 0 0 0 6.058 0 3.43 3.43 0 0 0-3.029-1.825z" fill="#cb1800"/><g mask="url(#a)"><path d="M11.097 9.117c0 .212.146.311.378.311.225 0 .371-.106.543-.278v-.577c-.696.093-.921.292-.921.544z"/><path d="M7.999.97a7.03 7.03 0 0 0 0 14.06 7.03 7.03 0 1 0 0-14.06zm-3.507 9.213c-.689 0-1.153-.258-1.484-.59l.438-.616c.252.232.55.418.908.418.431 0 .709-.226.709-.656 0-.424-.272-.65-.663-.65-.245 0-.371.053-.623.212l-.437-.278.119-2.127h2.386v.822H4.3l-.073.789c.159-.073.298-.1.471-.1.723 0 1.339.411 1.339 1.306 0 .934-.723 1.47-1.545 1.47zm5.072-.079H6.602v-.557c1.074-1.014 1.829-1.736 1.829-2.333 0-.411-.232-.636-.596-.636-.305 0-.537.206-.749.431l-.53-.523c.418-.444.809-.669 1.411-.669.829 0 1.392.53 1.392 1.339 0 .709-.663 1.464-1.345 2.18.212-.026.504-.053.703-.053h.848v.821zm2.633 0l-.073-.338h-.02c-.278.246-.59.418-.96.418-.597 0-.974-.437-.974-.994 0-.689.55-1.067 1.849-1.199-.02-.291-.166-.477-.517-.477-.278 0-.557.113-.875.298l-.345-.643c.418-.252.888-.431 1.405-.431.841 0 1.305.477 1.305 1.484v1.882h-.795z"/></g></svg>