<?xml version="1.0"?><!DOCTYPE svg PUBLIC "-//W3C//DTD SVG 1.1//EN" "http://www.w3.org/Graphics/SVG/1.1/DTD/svg11.dtd"><svg width="16px" height="16px" xmlns="http://www.w3.org/2000/svg" viewBox="0 0 16 16" shape-rendering="geometricPrecision" fill="#00962d"><defs><mask id="visibility-visible-path"><rect fill="#fff" width="100%" height="100%"/><path d="M12.997,0.858c-1.845,0-3.446,1.039-4.253,2.563c0.808,1.523,2.408,2.562,4.253,2.562 c1.844,0,3.444-1.039,4.253-2.562C16.441,1.897,14.841,0.858,12.997,0.858z" fill="#000"/></mask></defs><path display="inline" d="M12.971,1.607c-1.315,0-2.454,0.74-3.029,1.825 c0.575,1.085,1.715,1.825,3.029,1.825c1.314,0,2.453-0.74,3.029-1.825C15.424,2.348,14.284,1.607,12.971,1.607z" fill="#cb1800"/><path mask="url(#visibility-visible-path)" d="M15.986,9.771c0-1.28-0.884-2.354-2.075-2.644c-0.05-2.008-1.692-3.62-3.71-3.62 c-1.183,0-2.235,0.554-2.915,1.415C6.905,4.43,6.308,4.112,5.637,4.112c-1.152,0-2.085,0.934-2.085,2.086 c0,0.1,0.007,0.199,0.021,0.296C3.399,6.462,3.219,6.445,3.035,6.445c-1.669,0-3.022,1.354-3.022,3.024s1.353,3.024,3.022,3.024 h10.237C14.772,12.489,15.987,11.273,15.986,9.771L15.986,9.771z"/></svg>