<svg width="16" height="16" xmlns="http://www.w3.org/2000/svg" viewBox="0 0 16 16" shape-rendering="geometricPrecision" fill="#00962d"><defs><mask id="a"><rect fill="#fff" width="100%" height="100%"/><path d="M12.997.858a4.809 4.809 0 0 0-4.253 2.563 4.81 4.81 0 0 0 8.506 0A4.812 4.812 0 0 0 12.997.858z" fill="#000"/></mask></defs><path d="M12.971 1.607c-1.315 0-2.454.74-3.029 1.825a3.425 3.425 0 0 0 6.058 0 3.43 3.43 0 0 0-3.029-1.825z" fill="#cb1800"/><path d="M7.99 15.033c-1.088 0-1.828-.8-1.828-1.868 0-1.088.759-1.868 1.848-1.868 1.088 0 1.807.78 1.827 1.868 0 1.068-.717 1.868-1.827 1.868h-.02zM6.84 10.27L6.368.967h3.265l-.452 9.303H6.84z" mask="url(#a)"/></svg>