<?xml version="1.0"?><!DOCTYPE svg PUBLIC "-//W3C//DTD SVG 1.1//EN" "http://www.w3.org/Graphics/SVG/1.1/DTD/svg11.dtd"><svg width="16px" height="16px" xmlns="http://www.w3.org/2000/svg" viewBox="0 0 16 16" shape-rendering="geometricPrecision" fill="#00962d"><defs><mask id="visibility-visible-path"><rect fill="#fff" width="100%" height="100%"/><path d="M12.997,0.858c-1.845,0-3.446,1.039-4.253,2.563c0.808,1.523,2.408,2.562,4.253,2.562 c1.844,0,3.444-1.039,4.253-2.562C16.441,1.897,14.841,0.858,12.997,0.858z" fill="#000"/></mask></defs><path display="inline" d="M12.971,1.607c-1.315,0-2.454,0.74-3.029,1.825 c0.575,1.085,1.715,1.825,3.029,1.825c1.314,0,2.453-0.74,3.029-1.825C15.424,2.348,14.284,1.607,12.971,1.607z" fill="#cb1800"/><path mask="url(#visibility-visible-path)" d="M8.255,6.028c0,0,0,0,0-0.806c0-1.318,0.144-1.61,1.711-1.61c0.561,0,1.648,0,2.025,0 L12,0.994c-0.893,0-2.135,0-3.438,0c-1.913,0-2.85,1.02-2.85,2.983c0,0.544,0,1.247,0,2.051c-0.354,0-1.16,0-1.483,0v2.617 c0.431,0,0.96,0,1.483,0c0,1.741,0,4.496,0,6.284l2.497,0.006c0.007-3.073,0.021-6.29,0.021-6.29s2.375,0,3.75,0l0.012-2.617 C10.615,6.028,8.255,6.028,8.255,6.028z"/></svg>