<svg width="16" height="16" xmlns="http://www.w3.org/2000/svg" viewBox="0 0 16 16" shape-rendering="geometricPrecision" fill="#00962d"><defs><mask id="a"><rect fill="#fff" width="100%" height="100%"/><path d="M12.997.858a4.809 4.809 0 0 0-4.253 2.563 4.81 4.81 0 0 0 8.506 0A4.812 4.812 0 0 0 12.997.858z" fill="#000"/></mask></defs><path d="M12.971 1.607c-1.315 0-2.454.74-3.029 1.825a3.425 3.425 0 0 0 6.058 0 3.43 3.43 0 0 0-3.029-1.825z" fill="#cb1800"/><path mask="url(#a)" d="M6.035 15.636V8.96a.645.645 0 0 0-.137-.396L0 1.072h16l-5.818 7.389c-.14.179-.218.402-.218.628v4.378l-3.929 2.169zM2.109 2.096L6.703 7.93c.23.292.357.658.357 1.03v4.942l1.881-1.038V9.089c0-.455.155-.903.438-1.261l4.512-5.732H2.109z"/></svg>