<?xml version="1.0"?><!DOCTYPE svg PUBLIC "-//W3C//DTD SVG 1.1//EN" "http://www.w3.org/Graphics/SVG/1.1/DTD/svg11.dtd"><svg width="16px" height="16px" xmlns="http://www.w3.org/2000/svg" viewBox="0 0 16 16" shape-rendering="geometricPrecision" fill="#00962d"><defs><mask id="visibility-visible-path"><rect fill="#fff" width="100%" height="100%"/><path d="M12.997,0.858c-1.845,0-3.446,1.039-4.253,2.563c0.808,1.523,2.408,2.562,4.253,2.562 c1.844,0,3.444-1.039,4.253-2.562C16.441,1.897,14.841,0.858,12.997,0.858z" fill="#000"/></mask></defs><path display="inline" d="M12.971,1.607c-1.315,0-2.454,0.74-3.029,1.825 c0.575,1.085,1.715,1.825,3.029,1.825c1.314,0,2.453-0.74,3.029-1.825C15.424,2.348,14.284,1.607,12.971,1.607z" fill="#cb1800"/><g mask="url(#visibility-visible-path)"><g><path d="M7.054,6.495c-1.657,0-3.001,1.344-3.001,3.002c0,1.656,1.343,2.998,3.001,2.999c1.657-0.001,2.999-1.343,3-2.999 C10.054,7.839,8.711,6.495,7.054,6.495z M7.054,11.889c-1.322-0.003-2.391-1.071-2.394-2.392 c0.003-1.323,1.072-2.392,2.394-2.394c1.321,0.003,2.39,1.072,2.393,2.394C9.444,10.817,8.375,11.886,7.054,11.889z"/><polygon points="6.611,7.475 6.611,9.336 5.459,10.007 5.915,10.805 7.523,9.872 7.532,9.872 7.531,7.475"/></g><path d="M13.125,5.495v8h-12v-8H13.125 M14.125,4.495h-14v10h14V4.495L14.125,4.495z"/><polygon points="7.175,2.995 6.876,1.505 2.876,1.505 2.576,2.995 1.375,2.995 1.375,3.995 2.375,3.995 7.375,3.995 14.875,3.995 14.875,13.495 15.875,12.495 15.875,2.995"/></g></svg>