<?xml version="1.0"?><!DOCTYPE svg PUBLIC "-//W3C//DTD SVG 1.1//EN" "http://www.w3.org/Graphics/SVG/1.1/DTD/svg11.dtd"><svg width="16px" height="16px" xmlns="http://www.w3.org/2000/svg" viewBox="0 0 16 16" shape-rendering="geometricPrecision" fill="#00962d"><defs><mask id="visibility-visible-path"><rect fill="#fff" width="100%" height="100%"/><path d="M12.997,0.858c-1.845,0-3.446,1.039-4.253,2.563c0.808,1.523,2.408,2.562,4.253,2.562 c1.844,0,3.444-1.039,4.253-2.562C16.441,1.897,14.841,0.858,12.997,0.858z" fill="#000"/></mask></defs><path display="inline" d="M12.971,1.607c-1.315,0-2.454,0.74-3.029,1.825 c0.575,1.085,1.715,1.825,3.029,1.825c1.314,0,2.453-0.74,3.029-1.825C15.424,2.348,14.284,1.607,12.971,1.607z" fill="#cb1800"/><g mask="url(#visibility-visible-path)"><g><path d="M7.271,8.729H1.03V8.73c0,3.443,2.795,6.239,6.238,6.239h0.002V8.729z"/><path d="M8.83,0.928c-3.442,0-6.237,2.793-6.238,6.236H4.45c0.001-2.417,1.962-4.379,4.38-4.379c2.42,0,4.382,1.963,4.382,4.38 c0,2.42-1.96,4.381-4.378,4.383v1.857c3.443-0.002,6.235-2.797,6.235-6.24C15.068,3.723,12.276,0.928,8.83,0.928z M11.174,7.165 c0-1.292-1.051-2.342-2.344-2.342c-1.293,0-2.341,1.049-2.342,2.341h2.346v2.345C10.125,9.508,11.174,8.458,11.174,7.165z"/></g></g></svg>