<?xml version="1.0"?><!DOCTYPE svg PUBLIC "-//W3C//DTD SVG 1.1//EN" "http://www.w3.org/Graphics/SVG/1.1/DTD/svg11.dtd"><svg width="16px" height="16px" xmlns="http://www.w3.org/2000/svg" viewBox="0 0 16 16" shape-rendering="geometricPrecision" fill="#00962d"><defs><mask id="visibility-visible-path"><rect fill="#fff" width="100%" height="100%"/><path d="M12.997,0.858c-1.845,0-3.446,1.039-4.253,2.563c0.808,1.523,2.408,2.562,4.253,2.562 c1.844,0,3.444-1.039,4.253-2.562C16.441,1.897,14.841,0.858,12.997,0.858z" fill="#000"/></mask></defs><path display="inline" d="M12.971,1.607c-1.315,0-2.454,0.74-3.029,1.825 c0.575,1.085,1.715,1.825,3.029,1.825c1.314,0,2.453-0.74,3.029-1.825C15.424,2.348,14.284,1.607,12.971,1.607z" fill="#cb1800"/><g mask="url(#visibility-visible-path)"><path d="M11.231,3.39c0.002-0.046,0.008-0.09,0.008-0.136c0-1.791-1.451-3.242-3.242-3.242 c-1.387,0-2.569,0.875-3.031,2.104l1.312,0.399c0.285-0.664,0.947-1.133,1.719-1.133c1.033,0,1.873,0.837,1.873,1.872 c0,0.525-0.222,1.001-0.569,1.341C8.718,5.216,8.271,5.216,7.125,5.83C5.301,6.814,4.854,8.341,4.759,9.244v6.744h6.482V3.39 H11.231z M7.445,15.148l-2.33-2.328l1.024-1.024l1.303,1.303l2.492-2.489l1.024,1.026L7.445,15.148z"/></g></svg>