<?xml version="1.0"?><!DOCTYPE svg PUBLIC "-//W3C//DTD SVG 1.1//EN" "http://www.w3.org/Graphics/SVG/1.1/DTD/svg11.dtd"><svg width="16px" height="16px" xmlns="http://www.w3.org/2000/svg" viewBox="0 0 16 16" shape-rendering="geometricPrecision" fill="#00962d"><defs><mask id="visibility-visible-path"><rect fill="#fff" width="100%" height="100%"/><path d="M12.997,0.858c-1.845,0-3.446,1.039-4.253,2.563c0.808,1.523,2.408,2.562,4.253,2.562 c1.844,0,3.444-1.039,4.253-2.562C16.441,1.897,14.841,0.858,12.997,0.858z" fill="#000"/></mask></defs><path display="inline" d="M12.971,1.607c-1.315,0-2.454,0.74-3.029,1.825 c0.575,1.085,1.715,1.825,3.029,1.825c1.314,0,2.453-0.74,3.029-1.825C15.424,2.348,14.284,1.607,12.971,1.607z" fill="#cb1800"/><g mask="url(#visibility-visible-path)"><g><g><rect x="1" y="11.479" width="13.987" height="1.042"/></g><g><rect x="1" y="7.465" width="13.987" height="1.062"/></g><g><rect x="1" y="3.45" width="13.987" height="1.021"/></g><path d="M7.466,10.505h2.027c0.267,0,0.483,0.216,0.483,0.483v2.027c0,0.267-0.216,0.483-0.483,0.483H7.466 c-0.267,0-0.483-0.216-0.483-0.483v-2.027C6.983,10.721,7.2,10.505,7.466,10.505z"/><path d="M10.474,6.501h2.032c0.267,0,0.483,0.216,0.483,0.483v2.032c0,0.267-0.216,0.483-0.483,0.483h-2.032 c-0.267,0-0.483-0.216-0.483-0.483V6.984C9.991,6.717,10.208,6.501,10.474,6.501z"/><path d="M3.477,2.502h2.019c0.267,0,0.483,0.216,0.483,0.483v2.019c0,0.267-0.216,0.483-0.483,0.483H3.477 c-0.267,0-0.483-0.216-0.483-0.483V2.985C2.994,2.718,3.21,2.502,3.477,2.502z"/></g></g></svg>