<svg width="16" height="16" xmlns="http://www.w3.org/2000/svg" viewBox="0 0 16 16" shape-rendering="geometricPrecision" fill="#00962d"><defs><mask id="a"><rect fill="#fff" width="100%" height="100%"/><path d="M12.997.858a4.809 4.809 0 0 0-4.253 2.563 4.81 4.81 0 0 0 8.506 0A4.812 4.812 0 0 0 12.997.858z" fill="#000"/></mask></defs><path d="M12.971 1.607c-1.315 0-2.454.74-3.029 1.825a3.425 3.425 0 0 0 6.058 0 3.43 3.43 0 0 0-3.029-1.825z" fill="#cb1800"/><g mask="url(#a)"><path d="M1 11.479h13.987v1.042H1zM1 7.465h13.987v1.062H1zM1 3.45h13.987v1.021H1z"/><path d="M7.466 10.505h2.027c.267 0 .483.216.483.483v2.027a.483.483 0 0 1-.483.483H7.466a.483.483 0 0 1-.483-.483v-2.027c0-.267.217-.483.483-.483zM10.474 6.501h2.032c.267 0 .483.216.483.483v2.032a.483.483 0 0 1-.483.483h-2.032a.483.483 0 0 1-.483-.483V6.984c0-.267.217-.483.483-.483zM3.477 2.502h2.019c.267 0 .483.216.483.483v2.019a.483.483 0 0 1-.483.483H3.477a.483.483 0 0 1-.483-.483V2.985c0-.267.216-.483.483-.483z"/></g></svg>