<svg width="16" height="16" xmlns="http://www.w3.org/2000/svg" viewBox="0 0 16 16" shape-rendering="geometricPrecision" fill="#00962d"><defs><mask id="a"><rect fill="#fff" width="100%" height="100%"/><path d="M12.997.858a4.809 4.809 0 0 0-4.253 2.563 4.81 4.81 0 0 0 8.506 0A4.812 4.812 0 0 0 12.997.858z" fill="#000"/></mask></defs><path d="M12.971 1.607c-1.315 0-2.454.74-3.029 1.825a3.425 3.425 0 0 0 6.058 0 3.43 3.43 0 0 0-3.029-1.825z" fill="#cb1800"/><g mask="url(#a)"><path d="M13.078 2.394C11.292.612 8.42.628 6.634 2.404l-5.05 5.052.904.902 5.051-5.049a3.268 3.268 0 0 1 4.639-.012 3.292 3.292 0 0 1 0 4.65l-5.051 5.051a2.25 2.25 0 0 1-3.186.008 2.266 2.266 0 0 1 0-3.194l4.422-4.423.001.001a1.222 1.222 0 1 1 1.73 1.727L5.67 11.542l.901.9 4.423-4.423c.976-.977.98-2.562.003-3.54a2.502 2.502 0 0 0-3.521-.001l-.002-.001-4.435 4.432a3.538 3.538 0 0 0 0 4.999 3.534 3.534 0 0 0 4.99-.009l5.05-5.051a4.561 4.561 0 0 0-.001-6.454z"/></g></svg>