<svg width="16" height="16" xmlns="http://www.w3.org/2000/svg" viewBox="0 0 16 16" shape-rendering="geometricPrecision" fill="#6e6e6e"><defs><mask id="a"><rect fill="#fff" width="100%" height="100%"/><path d="M12.997.858a4.809 4.809 0 0 0-4.253 2.563 4.81 4.81 0 0 0 8.506 0A4.812 4.812 0 0 0 12.997.858z" fill="#000"/></mask></defs><path d="M12.971 1.607c-1.315 0-2.454.74-3.029 1.825a3.425 3.425 0 0 0 6.058 0 3.43 3.43 0 0 0-3.029-1.825z" fill="#cb1800"/><g mask="url(#a)"><path d="M12.933 2.584H3.067A2.125 2.125 0 0 0 .948 4.703v5.504c0 1.164.953 2.119 2.119 2.119h.987c.023.76-.201 1.758-1.224 2.674 2.905-.451 4.518-2.537 4.621-2.674h5.481a2.126 2.126 0 0 0 2.119-2.119V4.703a2.123 2.123 0 0 0-2.118-2.119zM4.495 8.746a1.288 1.288 0 1 1 0-2.577 1.288 1.288 0 0 1 0 2.577zm3.505 0a1.29 1.29 0 1 1 1.287-1.289A1.288 1.288 0 0 1 8 8.746zm3.505 0a1.288 1.288 0 1 1 0-2.577 1.288 1.288 0 0 1 0 2.577z"/></g></svg>