<svg width="16" height="16" xmlns="http://www.w3.org/2000/svg" viewBox="0 0 16 16" shape-rendering="geometricPrecision" fill="#6e6e6e"><defs><mask id="a"><rect fill="#fff" width="100%" height="100%"/><path d="M12.997.858a4.809 4.809 0 0 0-4.253 2.563 4.81 4.81 0 0 0 8.506 0A4.812 4.812 0 0 0 12.997.858z" fill="#000"/></mask></defs><path d="M12.971 1.607c-1.315 0-2.454.74-3.029 1.825a3.425 3.425 0 0 0 6.058 0 3.43 3.43 0 0 0-3.029-1.825z" fill="#cb1800"/><g mask="url(#a)"><path d="M7.045 11.946h.995v.995h-.995zm1.991 1.99h1.99v-.995h-.995v-.995h-.995zm.995-5.972v.997H8.04v-.997h1.991V6.97h-.995v-.995H7.045v.995H6.05v1.991h.995v.995h.995v.995h1.991v-.995h.995v.995h1.99v-.995h-.995V6.97h-.995v.994zm0 2.987h.995v.995h-.995zM1.075 6.97h.995v.994h-.995z"/><path d="M3.065 5.975H6.05v-1.99h.995V2.99H6.05V1H1.075v4.974h.995v.996h.995v-.995zm-.995-3.98h2.985V4.98H2.07V1.995zm9.951 12.936h.995v-.995h.995v-.995h-.995v-.995h-.995zm.995-3.98h.995v.995h-.995zm.995-2.987h.995v.997h-.995zM3.065 11.946h.995v.995h-.995z"/><path d="M6.05 10.951v-.995H4.06v-.995h.995V6.97H4.06v.994h-.995v1.992h-1.99v4.974H6.05v-.994h.995v-.995H6.05v-1.99zm-3.98 2.985v-2.985h2.985v2.985H2.07zM3.065 2.99h.995v.995h-.995zm8.956 0h.995v.995h-.995z"/><path d="M14.011 1h-3.98v.995H8.04V4.98h.996V2.99h.995v3.98h.995v-.995h3.98V1h-.995zm0 3.98h-2.985V1.995h2.985V4.98z"/></g></svg>