<svg width="16" height="16" xmlns="http://www.w3.org/2000/svg" viewBox="0 0 16 16" shape-rendering="geometricPrecision" fill="#6e6e6e"><defs><mask id="a"><rect fill="#fff" width="100%" height="100%"/><path d="M12.997.858a4.809 4.809 0 0 0-4.253 2.563 4.81 4.81 0 0 0 8.506 0A4.812 4.812 0 0 0 12.997.858z" fill="#000"/></mask></defs><path d="M12.971 1.607c-1.315 0-2.454.74-3.029 1.825a3.425 3.425 0 0 0 6.058 0 3.43 3.43 0 0 0-3.029-1.825z" fill="#cb1800"/><path d="M11.805 2.414a1.772 1.772 0 1 0-3.29-1.317l-.529 1.317 3.291 1.321.531-1.321h-.003zM4.463 15.971l1.491-1.273-1.676-.668.185 1.941zm-.391-3.782l3.289 1.319 3.554-8.869-3.29-1.318-3.553 8.868z" mask="url(#a)"/></svg>