<?xml version="1.0"?><!DOCTYPE svg PUBLIC "-//W3C//DTD SVG 1.1//EN" "http://www.w3.org/Graphics/SVG/1.1/DTD/svg11.dtd"><svg width="16px" height="16px" xmlns="http://www.w3.org/2000/svg" viewBox="0 0 16 16" shape-rendering="geometricPrecision" fill="#6e6e6e"><defs><mask id="visibility-visible-path"><rect fill="#fff" width="100%" height="100%"/><path d="M12.997,0.858c-1.845,0-3.446,1.039-4.253,2.563c0.808,1.523,2.408,2.562,4.253,2.562 c1.844,0,3.444-1.039,4.253-2.562C16.441,1.897,14.841,0.858,12.997,0.858z" fill="#000"/></mask></defs><path display="inline" d="M12.971,1.607c-1.315,0-2.454,0.74-3.029,1.825 c0.575,1.085,1.715,1.825,3.029,1.825c1.314,0,2.453-0.74,3.029-1.825C15.424,2.348,14.284,1.607,12.971,1.607z" fill="#cb1800"/><g mask="url(#visibility-visible-path)"><path d="M7.394,4.755L6.578,2.832H2.798L1.982,4.755H0.861V14h14.278V4.755H7.394z M14.042,12.929H1.916v-7 h12.125V12.929z"/><g><path d="M8.006,6.979c-1.375,0-2.49,1.115-2.49,2.491c0,1.374,1.115,2.488,2.49,2.489c1.375-0.001,2.489-1.115,2.489-2.489 C10.495,8.094,9.381,6.979,8.006,6.979z M8.006,11.454C6.909,11.452,6.022,10.565,6.02,9.47c0.002-1.097,0.89-1.985,1.986-1.987 C9.102,7.485,9.99,8.372,9.992,9.47C9.99,10.565,9.102,11.452,8.006,11.454z"/><polygon points="7.639,7.792 7.639,9.337 6.683,9.893 7.061,10.556 8.395,9.781 8.403,9.781 8.402,7.792"/></g></g></svg>