<?xml version="1.0"?><!DOCTYPE svg PUBLIC "-//W3C//DTD SVG 1.1//EN" "http://www.w3.org/Graphics/SVG/1.1/DTD/svg11.dtd"><svg width="16px" height="16px" xmlns="http://www.w3.org/2000/svg" viewBox="0 0 16 16" shape-rendering="geometricPrecision" fill="#6e6e6e"><defs><mask id="visibility-visible-path"><rect fill="#fff" width="100%" height="100%"/><path d="M12.997,0.858c-1.845,0-3.446,1.039-4.253,2.563c0.808,1.523,2.408,2.562,4.253,2.562 c1.844,0,3.444-1.039,4.253-2.562C16.441,1.897,14.841,0.858,12.997,0.858z" fill="#000"/></mask></defs><path display="inline" d="M12.971,1.607c-1.315,0-2.454,0.74-3.029,1.825 c0.575,1.085,1.715,1.825,3.029,1.825c1.314,0,2.453-0.74,3.029-1.825C15.424,2.348,14.284,1.607,12.971,1.607z" fill="#cb1800"/><path mask="url(#visibility-visible-path)" d="M16.011,6.354c-0.174-0.731-1.554-1.11-3.454-1.11c0,0,0.104,0.154,0.186,0.325 c0.083,0.175,0.137,0.378,0.137,0.378c1.912,0.035,2.428,0.479,2.45,0.569c0.069,0.292-0.753,1.066-2.471,1.882 c0.146-1.824-0.727-3.656-2.41-4.645C8.104,2.375,5.085,3.158,3.706,5.506c-0.949,1.617-0.871,3.553,0.038,5.052 c-0.113,0.003-0.237,0.013-0.346,0.013c-2.116,0-2.675-0.477-2.697-0.571C0.638,9.737,1.293,9.084,2.676,8.362 c0,0-0.028-0.185-0.027-0.362C2.65,7.79,2.676,7.582,2.676,7.582C0.928,8.45-0.158,9.419,0.019,10.162 c0.174,0.731,1.478,1.11,3.379,1.11c0.268,0,0.56-0.016,0.85-0.031c0.339,0.388,0.742,0.731,1.21,1.006 c2.347,1.377,5.365,0.595,6.742-1.749c0.239-0.407,0.409-0.834,0.521-1.269C14.879,8.278,16.21,7.189,16.011,6.354z M4.565,6.011 c1.104-1.87,3.507-2.495,5.379-1.399c1.509,0.89,2.205,2.628,1.841,4.251c-0.939,0.372-2.059,0.736-3.376,1.05 c-1.201,0.286-2.392,0.477-3.49,0.577C3.907,9.252,3.711,7.471,4.565,6.011z M11.341,9.993c-1.102,1.867-3.505,2.491-5.378,1.395 c-0.135-0.08-0.262-0.168-0.384-0.261c0.941-0.111,1.947-0.284,2.993-0.533c1.042-0.248,2.02-0.545,2.908-0.868 C11.435,9.816,11.392,9.905,11.341,9.993z"/></svg>