<svg width="16" height="16" xmlns="http://www.w3.org/2000/svg" viewBox="0 0 16 16" shape-rendering="geometricPrecision" fill="#6e6e6e"><defs><mask id="a"><rect fill="#fff" width="100%" height="100%"/><path d="M12.997.858a4.809 4.809 0 0 0-4.253 2.563 4.81 4.81 0 0 0 8.506 0A4.812 4.812 0 0 0 12.997.858z" fill="#000"/></mask></defs><path d="M12.971 1.607c-1.315 0-2.454.74-3.029 1.825a3.425 3.425 0 0 0 6.058 0 3.43 3.43 0 0 0-3.029-1.825z" fill="#cb1800"/><g mask="url(#a)"><path d="M10.128 6.094c-.864-.014-1.742-.014-2.921 0-1.18.013-1.701.356-1.866.932S4.367 10.4 4.367 10.4H5.78L6.562 8s2.757-.014 4.032-.014 1.193-.411 1.221-1.001-.823-.878-1.687-.891zm.809.946c-.055.288-.192.439-.85.425-.658-.014-3.429 0-3.429 0s.027-.206.11-.48c.082-.274.247-.37 1.015-.37s1.783.027 2.345.027c.562 0 .864.11.809.398z"/><path d="M8.001 1.79a6.212 6.212 0 0 0 0 12.421 6.21 6.21 0 0 0 0-12.421zm0 11.163a4.961 4.961 0 0 1-4.955-4.951 4.962 4.962 0 0 1 4.955-4.956 4.96 4.96 0 0 1 4.953 4.956 4.959 4.959 0 0 1-4.953 4.951z"/></g></svg>