<svg width="16" height="16" xmlns="http://www.w3.org/2000/svg" viewBox="0 0 16 16" shape-rendering="geometricPrecision" fill="#6e6e6e"><defs><mask id="a"><rect fill="#fff" width="100%" height="100%"/><path d="M12.997.858a4.809 4.809 0 0 0-4.253 2.563 4.81 4.81 0 0 0 8.506 0A4.812 4.812 0 0 0 12.997.858z" fill="#000"/></mask></defs><path d="M12.971 1.607c-1.315 0-2.454.74-3.029 1.825a3.425 3.425 0 0 0 6.058 0 3.43 3.43 0 0 0-3.029-1.825z" fill="#cb1800"/><path d="M7.468 11.335c-1.04 0-1.782.742-1.782 1.824 0 1.041.722 1.822 1.763 1.822h.02c1.083 0 1.805-.781 1.805-1.822-.021-1.082-.723-1.824-1.806-1.824zm.281-10.317c-1.422 0-2.604.4-3.345.822l.681 2.182c.52-.359 1.322-.6 1.983-.6 1.002.041 1.463.5 1.463 1.203 0 .68-.521 1.32-1.162 2.102-.901 1.063-1.242 2.106-1.181 3.126l.02.521h2.664v-.361c-.02-.9.281-1.682 1.021-2.504.762-.84 1.702-1.842 1.702-3.365 0-1.663-1.2-3.126-3.846-3.126z" mask="url(#a)"/></svg>