<?xml version="1.0"?><!DOCTYPE svg PUBLIC "-//W3C//DTD SVG 1.1//EN" "http://www.w3.org/Graphics/SVG/1.1/DTD/svg11.dtd"><svg width="16px" height="16px" xmlns="http://www.w3.org/2000/svg" viewBox="0 0 16 16" shape-rendering="geometricPrecision" fill="#6e6e6e"><defs><mask id="visibility-visible-path"><rect fill="#fff" width="100%" height="100%"/><path d="M12.997,0.858c-1.845,0-3.446,1.039-4.253,2.563c0.808,1.523,2.408,2.562,4.253,2.562 c1.844,0,3.444-1.039,4.253-2.562C16.441,1.897,14.841,0.858,12.997,0.858z" fill="#000"/></mask></defs><path display="inline" d="M12.971,1.607c-1.315,0-2.454,0.74-3.029,1.825 c0.575,1.085,1.715,1.825,3.029,1.825c1.314,0,2.453-0.74,3.029-1.825C15.424,2.348,14.284,1.607,12.971,1.607z" fill="#cb1800"/><g mask="url(#visibility-visible-path)"><path d="M7.975,1.052C4.126,1.052,1.002,4.176,1,8.022h2.077c0-2.7,2.193-4.896,4.897-4.896 c2.705,0,4.899,2.195,4.899,4.897c0,2.706-2.194,4.899-4.898,4.9V15c3.851,0,6.973-3.126,6.973-6.977 C14.949,4.176,11.826,1.052,7.975,1.052z M10.595,8.023c0-1.444-1.175-2.617-2.621-2.617S5.356,6.579,5.356,8.023 c0,1.446,1.172,2.622,2.618,2.622S10.595,9.47,10.595,8.023z"/></g></svg>