<svg width="16" height="16" xmlns="http://www.w3.org/2000/svg" viewBox="0 0 16 16" shape-rendering="geometricPrecision" fill="#6e6e6e"><defs><mask id="a"><rect fill="#fff" width="100%" height="100%"/><path d="M12.997.858a4.809 4.809 0 0 0-4.253 2.563 4.81 4.81 0 0 0 8.506 0A4.812 4.812 0 0 0 12.997.858z" fill="#000"/></mask></defs><path d="M12.971 1.607c-1.315 0-2.454.74-3.029 1.825a3.425 3.425 0 0 0 6.058 0 3.43 3.43 0 0 0-3.029-1.825z" fill="#cb1800"/><path mask="url(#a)" d="M8 1.051a6.949 6.949 0 1 0 0 13.898A6.949 6.949 0 0 0 8 1.051zm1.973 3.456c.731 0 1.326.756 1.326 1.682 0 .927-.595 1.683-1.326 1.683-.73 0-1.325-.756-1.325-1.683-.001-.926.594-1.682 1.325-1.682zm-3.667-.042c.731 0 1.326.755 1.326 1.681 0 .928-.595 1.683-1.326 1.683-.73 0-1.325-.755-1.325-1.683-.001-.926.594-1.681 1.325-1.681zm1.852 9.081c-4.853 0-5.388-5.018-5.388-5.018s1.111 3.248 5.347 3.248c4.154 0 5.182-3.085 5.182-3.085s-.74 4.855-5.141 4.855z"/></svg>