<?xml version="1.0"?><!DOCTYPE svg PUBLIC "-//W3C//DTD SVG 1.1//EN" "http://www.w3.org/Graphics/SVG/1.1/DTD/svg11.dtd"><svg width="16px" height="16px" xmlns="http://www.w3.org/2000/svg" viewBox="0 0 16 16" shape-rendering="geometricPrecision" fill="#6e6e6e"><defs><mask id="visibility-visible-path"><rect fill="#fff" width="100%" height="100%"/><path d="M12.997,0.858c-1.845,0-3.446,1.039-4.253,2.563c0.808,1.523,2.408,2.562,4.253,2.562 c1.844,0,3.444-1.039,4.253-2.562C16.441,1.897,14.841,0.858,12.997,0.858z" fill="#000"/></mask></defs><path display="inline" d="M12.971,1.607c-1.315,0-2.454,0.74-3.029,1.825 c0.575,1.085,1.715,1.825,3.029,1.825c1.314,0,2.453-0.74,3.029-1.825C15.424,2.348,14.284,1.607,12.971,1.607z" fill="#cb1800"/><g mask="url(#visibility-visible-path)"><g><path d="M14.938,8.001c0-3.833-3.107-6.939-6.941-6.939c-3.829,0-6.934,3.106-6.936,6.939c0.002,3.832,3.106,6.936,6.936,6.937 C11.831,14.938,14.938,11.833,14.938,8.001z M2.466,8.001c0.006-3.057,2.478-5.529,5.531-5.536 c3.059,0.007,5.531,2.479,5.537,5.536c-0.006,3.056-2.479,5.528-5.537,5.534C4.943,13.529,2.472,11.057,2.466,8.001z"/></g><path d="M8,12.673c2.581-0.006,4.668-2.093,4.673-4.672C12.668,5.421,10.581,3.334,8,3.327V12.673z"/></g></svg>