<svg width="16" height="16" xmlns="http://www.w3.org/2000/svg" viewBox="0 0 16 16" shape-rendering="geometricPrecision" fill="#6e6e6e"><defs><mask id="a"><rect fill="#fff" width="100%" height="100%"/><path d="M12.997.858a4.809 4.809 0 0 0-4.253 2.563 4.81 4.81 0 0 0 8.506 0A4.812 4.812 0 0 0 12.997.858z" fill="#000"/></mask></defs><path d="M12.971 1.607c-1.315 0-2.454.74-3.029 1.825a3.425 3.425 0 0 0 6.058 0 3.43 3.43 0 0 0-3.029-1.825z" fill="#cb1800"/><g mask="url(#a)"><path d="M13.997 2.942v9.965H2.958V2.942h11.039m1-1H1.958v11.965h13.039V1.942z"/><path d="M1.958 4.061h13.054v1.064H1.958z"/><path d="M5.871 4.061h1.064v9.576H5.871zm4.231 0h1.064v9.576h-1.064zM3.985 5.89h1.106v1.106H3.985zm0 5h1.106v1.106H3.985zm3.947-2.041h1.106v1.106H7.932zm0-1.853h1.106v1.106H7.932zm4.01 2.959h1.106v1.106h-1.106zm0-1.955h1.106v1.106h-1.106z"/></g></svg>