<?xml version="1.0"?><!DOCTYPE svg PUBLIC "-//W3C//DTD SVG 1.1//EN" "http://www.w3.org/Graphics/SVG/1.1/DTD/svg11.dtd"><svg width="16px" height="16px" xmlns="http://www.w3.org/2000/svg" viewBox="0 0 16 16" shape-rendering="geometricPrecision" fill="#6e6e6e"><defs><mask id="visibility-visible-path"><rect fill="#fff" width="100%" height="100%"/><path d="M12.997,0.858c-1.845,0-3.446,1.039-4.253,2.563c0.808,1.523,2.408,2.562,4.253,2.562 c1.844,0,3.444-1.039,4.253-2.562C16.441,1.897,14.841,0.858,12.997,0.858z" fill="#000"/></mask></defs><path display="inline" d="M12.971,1.607c-1.315,0-2.454,0.74-3.029,1.825 c0.575,1.085,1.715,1.825,3.029,1.825c1.314,0,2.453-0.74,3.029-1.825C15.424,2.348,14.284,1.607,12.971,1.607z" fill="#cb1800"/><path mask="url(#visibility-visible-path)" d="M14.9,4.223l-2.144-0.193c-0.665-1.139-1.984-1.804-3.359-1.566 C8.062,2.695,7.062,3.711,6.782,4.955c-0.099,0.53-0.099,1.291-0.557,2.091C4.599,7.413,2.9,7.246,2.9,7.246 s0.273,1.135,2.174,2.048c-1.721,2.305-4.06,2.705-4.06,2.705s1.001,0.983,3.196,0.725c0.803-0.095,1.504-0.457,1.826-0.646 l-2.271,1.408c0,0,1.385,0.422,4.327-0.488c3.759-1.162,4.873-4.779,4.845-6.051c0.006-0.013,0.01-0.025,0.016-0.039l2.035-0.852 l-2.093-0.433L14.9,4.223z M10.907,5.674c-0.297,0-0.539-0.322-0.539-0.719c0-0.397,0.242-0.718,0.539-0.718 c0.298,0,0.539,0.321,0.539,0.718C11.446,5.352,11.205,5.674,10.907,5.674z"/></svg>